<svg width="21" height="21" viewBox="0 0 21 21" fill="none" xmlns="http://www.w3.org/2000/svg">
<path d="M5.34501 6.68642L4.53718 6.20172C4.34044 6.08368 4.08861 6.11468 3.92637 6.27692L0.646452 9.5568C0.53758 9.66567 0.484938 9.81863 0.50375 9.97144C0.522562 10.1243 0.61073 10.2599 0.742757 10.3391L3.62352 12.0676C3.83309 10.2048 4.40744 8.37219 5.34501 6.68642Z" fill="url(#paint0_linear_297_1814)"/>
<path fill-rule="evenodd" clip-rule="evenodd" d="M7.98305 15.9607L7.98272 15.9602L4.78985 12.7674L4.7893 12.767L4.74611 12.7238C4.63984 12.6176 4.58701 12.4691 4.60224 12.3196C4.78259 10.5489 5.31649 8.80445 6.20303 7.20122C6.79996 6.1217 7.55694 5.1063 8.47338 4.18987C11.0979 1.56542 14.5337 0.25066 17.9592 0.25C18.6195 0.249884 19.2795 0.298599 19.9331 0.396179C20.1506 0.428645 20.3214 0.599391 20.3538 0.816876C20.9576 4.86147 19.6905 9.14629 16.5601 12.2767C15.279 13.5578 13.8044 14.5269 12.2319 15.1834C11.0088 15.6941 9.72658 16.0156 8.43025 16.1476C8.28073 16.1628 8.1323 16.11 8.02603 16.0037L7.98305 15.9607ZM15.2934 5.45696C14.1924 4.35599 12.4073 4.35599 11.3063 5.45696C10.2053 6.55794 10.2053 8.34297 11.3063 9.44395C12.4073 10.5449 14.1924 10.5449 15.2934 9.44395C16.3944 8.34297 16.3944 6.55794 15.2934 5.45696Z" fill="url(#paint1_linear_297_1814)"/>
<path d="M8.68239 17.1263L10.411 20.0072C10.4902 20.1393 10.6259 20.2274 10.7787 20.2463C10.9315 20.2651 11.0844 20.2124 11.1933 20.1035L14.4732 16.8237C14.6355 16.6614 14.6665 16.4096 14.5484 16.2129L14.0636 15.4048C13.5921 15.667 13.1091 15.9008 12.6171 16.1062C11.35 16.6353 10.0239 16.9754 8.68239 17.1263Z" fill="url(#paint2_linear_297_1814)"/>
<path d="M3.81348 14.3638C4.00875 14.1685 4.00875 13.8519 3.81348 13.6567C3.61822 13.4614 3.30163 13.4614 3.10637 13.6567L1.46641 15.2966C1.27115 15.4919 1.27115 15.8085 1.46641 16.0037C1.66167 16.199 1.97826 16.199 2.17353 16.0037L3.81348 14.3638Z" fill="url(#paint3_linear_297_1814)"/>
<path d="M5.04345 16.4137C5.23872 16.2184 5.23872 15.9019 5.04345 15.7066C4.84819 15.5113 4.5316 15.5113 4.33634 15.7066L1.46641 18.5765C1.27115 18.7718 1.27115 19.0883 1.46641 19.2836C1.66168 19.4789 1.97826 19.4789 2.17353 19.2836L5.04345 16.4137Z" fill="url(#paint4_linear_297_1814)"/>
<path d="M7.0934 17.6437C7.28867 17.4484 7.28867 17.1318 7.0934 16.9366C6.89814 16.7413 6.58155 16.7413 6.38629 16.9366L4.74633 18.5765C4.55106 18.7718 4.55106 19.0883 4.74633 19.2836C4.94159 19.4789 5.25818 19.4789 5.45344 19.2836L7.0934 17.6437Z" fill="url(#paint5_linear_297_1814)"/>
<defs>
<linearGradient id="paint0_linear_297_1814" x1="0.5" y1="0.25" x2="22.1472" y2="2.22857" gradientUnits="userSpaceOnUse">
<stop stop-color="#6936E6"/>
<stop offset="1" stop-color="#0094FF"/>
</linearGradient>
<linearGradient id="paint1_linear_297_1814" x1="0.5" y1="0.25" x2="22.1472" y2="2.22857" gradientUnits="userSpaceOnUse">
<stop stop-color="#6936E6"/>
<stop offset="1" stop-color="#0094FF"/>
</linearGradient>
<linearGradient id="paint2_linear_297_1814" x1="0.5" y1="0.25" x2="22.1472" y2="2.22857" gradientUnits="userSpaceOnUse">
<stop stop-color="#6936E6"/>
<stop offset="1" stop-color="#0094FF"/>
</linearGradient>
<linearGradient id="paint3_linear_297_1814" x1="0.5" y1="0.25" x2="22.1472" y2="2.22857" gradientUnits="userSpaceOnUse">
<stop stop-color="#6936E6"/>
<stop offset="1" stop-color="#0094FF"/>
</linearGradient>
<linearGradient id="paint4_linear_297_1814" x1="0.5" y1="0.25" x2="22.1472" y2="2.22857" gradientUnits="userSpaceOnUse">
<stop stop-color="#6936E6"/>
<stop offset="1" stop-color="#0094FF"/>
</linearGradient>
<linearGradient id="paint5_linear_297_1814" x1="0.5" y1="0.25" x2="22.1472" y2="2.22857" gradientUnits="userSpaceOnUse">
<stop stop-color="#6936E6"/>
<stop offset="1" stop-color="#0094FF"/>
</linearGradient>
</defs>
</svg>
