<svg width="24" height="24" viewBox="0 0 24 24" fill="none" xmlns="http://www.w3.org/2000/svg">
<path fill-rule="evenodd" clip-rule="evenodd" d="M5.61523 1.9624C4.25966 2.85248 3.09551 4.0096 2.19727 5.35928L3.86224 6.46737C4.61132 5.34181 5.58255 4.37646 6.71296 3.63422L5.61523 1.9624ZM18.5788 1.9624C19.9343 2.85248 21.0985 4.0096 21.9967 5.35928L20.3317 6.46737C19.5827 5.34181 18.6114 4.37646 17.481 3.63422L18.5788 1.9624ZM18.1536 19.5676C16.5441 21.0762 14.3799 21.9999 12.0001 21.9999C9.62019 21.9999 7.45598 21.0762 5.84653 19.5676L3.87866 21.5355L2.46444 20.1213L4.54385 18.0419C3.56933 16.6035 3.00007 14.8682 3.00007 12.9999C3.00007 8.0292 7.02972 3.99994 12.0001 3.99994C16.9704 3.99994 21.0001 8.0292 21.0001 12.9999C21.0001 14.8683 20.4308 16.6036 19.4563 18.0419L21.5356 20.1213L20.1214 21.5355L18.1536 19.5676ZM11.0001 7.99994V11.9999V13.9999H13.0001H17.0001V11.9999H13.0001V7.99994H11.0001Z" fill="black"/>
</svg>
