<svg width="113" height="30" viewBox="0 0 113 30" fill="none" xmlns="http://www.w3.org/2000/svg">
<g clip-path="url(#clip0_7107_10199)">
<path d="M22.7738 13.8594L15.5386 21.0946L17.6004 23.119L26.86 13.8594L17.6004 4.59985L15.5386 6.6617L22.7738 13.8594Z" fill="#C8C9D0"/>
<path d="M9.39598 23.1497L0.118042 13.8718L9.39598 4.59424L18.6735 13.8718L9.39598 23.1497Z" fill="#C8C9D0"/>
<path d="M39.9813 20.7571L38.9691 17.4956H33.9832L32.971 20.7571H29.822L34.6955 6.96146H38.2569L43.1303 20.7571H39.9813ZM38.2943 15.0589C37.3571 12.0973 36.8698 10.4104 36.7573 10.0355C36.6449 9.6606 36.5324 9.32321 36.4949 9.09828C36.27 9.88553 35.7077 11.8724 34.733 15.0589H38.2943ZM54.3018 20.7571H51.4527V14.6465C51.4527 13.8968 51.3027 13.3344 51.0403 12.9596C50.7779 12.5847 50.328 12.3972 49.7657 12.3972C48.9785 12.3972 48.3786 12.6597 48.0413 13.1845C47.7039 13.7093 47.5164 14.609 47.5164 15.8461V20.7946H44.6673V10.2979H46.8416L47.2165 11.6475H47.3665C47.7039 11.1226 48.1162 10.7478 48.6786 10.4853C49.2409 10.2229 49.8782 10.1105 50.5904 10.1105C51.8276 10.1105 52.7273 10.4479 53.3646 11.0852C54.0019 11.7224 54.3018 12.6971 54.3018 13.9342V20.7571ZM55.4639 10.2604H58.6129L60.5998 16.1835C60.7872 16.7084 60.8997 17.3082 60.9372 18.0205H61.0121C61.0871 17.3832 61.1996 16.7833 61.4245 16.1835L63.3739 10.2604H66.4479L61.9868 22.1067C61.5745 23.1938 61.0121 24.0186 60.2624 24.5809C59.5126 25.1432 58.6129 25.4056 57.6007 25.4056C57.1134 25.4056 56.626 25.3681 56.1387 25.2557V22.9689C56.4761 23.0439 56.851 23.0814 57.2633 23.0814C57.7882 23.0814 58.2005 22.9314 58.5754 22.6315C58.9503 22.3316 59.2502 21.8442 59.4751 21.2444L59.6626 20.7196L55.4639 10.2604ZM79.5313 13.7468C79.5313 15.9961 78.894 17.7205 77.6194 18.9577C76.3448 20.1948 74.4704 20.7571 72.0337 20.7571H68.1349V7.03643H72.446C74.6953 7.03643 76.4198 7.63624 77.6569 8.79838C78.894 9.998 79.5313 11.6475 79.5313 13.7468ZM76.4947 13.8218C76.4947 10.8602 75.1827 9.39819 72.596 9.39819H71.059V18.3204H72.2961C75.1077 18.3578 76.4947 16.8583 76.4947 13.8218ZM86.4291 20.9445C84.7421 20.9445 83.43 20.4947 82.4554 19.5575C81.5182 18.6203 81.0308 17.3082 81.0308 15.5837C81.0308 13.8218 81.4807 12.4722 82.3429 11.4975C83.2051 10.5228 84.4422 10.073 85.9792 10.073C87.4788 10.073 88.6034 10.4853 89.4281 11.3476C90.2529 12.2098 90.6653 13.3719 90.6653 14.834V16.221H83.8799C83.9174 17.0458 84.1423 17.6831 84.5922 18.1329C85.042 18.5828 85.6793 18.8077 86.5041 18.8077C87.1414 18.8077 87.7412 18.7327 88.3035 18.6203C88.8658 18.4703 89.4656 18.2829 90.0654 17.983V20.1948C89.5781 20.4572 89.0158 20.6446 88.4535 20.7571C87.9286 20.8696 87.2538 20.9445 86.4291 20.9445ZM86.0167 12.0973C85.4169 12.0973 84.9296 12.2848 84.5922 12.6597C84.2548 13.0345 84.0673 13.5969 83.9924 14.3091H88.0036C88.0036 13.5969 87.8162 13.072 87.4413 12.6597C87.1039 12.2848 86.6165 12.0973 86.0167 12.0973ZM100.375 17.6456C100.375 18.7327 99.9998 19.5575 99.25 20.1198C98.5003 20.6821 97.3756 20.982 95.8761 20.982C95.1263 20.982 94.4516 20.9445 93.9267 20.8321C93.4019 20.7196 92.8771 20.5696 92.4272 20.3822V18.0205C92.952 18.2829 93.5518 18.4703 94.2266 18.6578C94.9014 18.8452 95.4637 18.9202 95.9886 18.9202C97.0382 18.9202 97.5631 18.6203 97.5631 18.0205C97.5631 17.7955 97.4881 17.6081 97.3381 17.4581C97.1882 17.3082 96.9633 17.1582 96.6259 16.9708C96.2885 16.7833 95.8386 16.5959 95.2763 16.3335C94.4516 15.9961 93.8892 15.6962 93.5144 15.3963C93.1395 15.0964 92.8771 14.7965 92.6896 14.4216C92.5022 14.0467 92.4272 13.5969 92.4272 13.0345C92.4272 12.0973 92.8021 11.3851 93.5144 10.8602C94.2266 10.3354 95.2763 10.1105 96.5884 10.1105C97.863 10.1105 99.1001 10.3729 100.262 10.9352L99.4 12.997C98.8752 12.7721 98.3878 12.5847 97.938 12.4347C97.4881 12.2848 97.0007 12.2098 96.5509 12.2098C95.6887 12.2098 95.2763 12.4347 95.2763 12.8846C95.2763 13.147 95.4262 13.3719 95.6887 13.5594C95.9511 13.7468 96.5509 14.0092 97.4881 14.3841C98.3128 14.7215 98.9126 15.0214 99.2875 15.3213C99.6624 15.6212 99.9623 15.9586 100.15 16.3335C100.262 16.6709 100.375 17.1207 100.375 17.6456ZM104.911 15.0589L106.148 13.4469L109.072 10.2604H112.296L108.135 14.7965L112.596 20.7571H109.297L106.26 16.5209L105.023 17.4956V20.7571H102.174V6.13672H105.023V12.6597L104.873 15.0589H104.911Z" fill="#C8C9D0"/>
</g>
<defs>
<clipPath id="clip0_7107_10199">
<rect width="112.5" height="30" fill="white" transform="translate(0.118042)"/>
</clipPath>
</defs>
</svg>
