<svg width="24" height="24" viewBox="0 0 24 24" fill="none" xmlns="http://www.w3.org/2000/svg">
<path fill-rule="evenodd" clip-rule="evenodd" d="M19.0074 9.06432C19.0169 9.40638 19.0339 9.78852 19.0604 10.2004C19.1215 11.1495 19.2221 12.0977 19.3692 13H4.76847C4.92015 11.7821 5 10.334 5 8.64706C5 4.96198 8.14711 2 12 2C15.8529 2 19 4.96198 19 8.64706C19 8.71903 19.0018 8.86153 19.0074 9.06432ZM4.40586 15H19.802C20.3489 16.9345 21.1218 18 22 18V20H15.4649C14.7733 21.1956 13.4806 22 12 22C10.5194 22 9.22675 21.1956 8.53513 20H2V18C3.06164 18 3.89084 17.0288 4.40586 15Z" fill="black"/>
</svg>
