<svg width="30" height="30" viewBox="0 0 30 30" fill="none" xmlns="http://www.w3.org/2000/svg">
<path d="M7 11H9V21C9 21.5523 9.44772 22 10 22H20C20.5523 22 21 21.5523 21 21V11H23" stroke="#2F3037" stroke-width="1.5"/>
<path fill-rule="evenodd" clip-rule="evenodd" d="M13 12C13 12.5523 12.5523 13 12 13C11.4477 13 11 12.5523 11 12C11 11.4477 11.4477 11 12 11C12.5523 11 13 11.4477 13 12ZM15 15C15 15.5523 14.5523 16 14 16C13.4477 16 13 15.5523 13 15C13 14.4477 13.4477 14 14 14C14.5523 14 15 14.4477 15 15ZM16 13C16.5523 13 17 12.5523 17 12C17 11.4477 16.5523 11 16 11C15.4477 11 15 11.4477 15 12C15 12.5523 15.4477 13 16 13ZM19 16.5C19 17.3284 18.3284 18 17.5 18C16.6716 18 16 17.3284 16 16.5C16 15.6716 16.6716 15 17.5 15C18.3284 15 19 15.6716 19 16.5ZM15 20C15.5523 20 16 19.5523 16 19C16 18.4477 15.5523 18 15 18C14.4477 18 14 18.4477 14 19C14 19.5523 14.4477 20 15 20Z" fill="#2F3037"/>
</svg>
