<svg width="24" height="24" viewBox="0 0 24 24" fill="none" xmlns="http://www.w3.org/2000/svg">
<path fill-rule="evenodd" clip-rule="evenodd" d="M15.3303 3H8.6697L7.7697 4.88235H5C3.34315 4.88235 2 6.2255 2 7.88235V18C2 19.6569 3.34315 21 5 21H19C20.6569 21 22 19.6569 22 18V7.88235C22 6.2255 20.6569 4.88235 19 4.88235H16.2303L15.3303 3ZM12 8.48364C9.79091 8.48364 8 10.2746 8 12.4836C8 14.6927 9.79091 16.4836 12 16.4836C14.2091 16.4836 16 14.6927 16 12.4836C16 10.2746 14.2091 8.48364 12 8.48364Z" fill="black"/>
</svg>
