<svg width="24" height="24" viewBox="0 0 24 24" fill="none" xmlns="http://www.w3.org/2000/svg">
<path fill-rule="evenodd" clip-rule="evenodd" d="M4 4C2.89543 4 2 4.89543 2 6V18C2 19.1046 2.89543 20 4 20H20C21.1046 20 22 19.1046 22 18V6C22 4.89543 21.1046 4 20 4H4ZM18.8593 7.44682C18.5538 6.98673 17.9331 6.86142 17.473 7.16693L12.5556 10.4322C12.2198 10.6552 11.7829 10.6548 11.4476 10.4311L6.55485 7.16805C6.09538 6.86161 5.47449 6.98568 5.16805 7.44515C4.86162 7.90462 4.98568 8.52552 5.44516 8.83195L10.3379 12.095C11.3439 12.766 12.6545 12.7673 13.6619 12.0984L18.5794 8.83306C19.0395 8.52755 19.1648 7.90691 18.8593 7.44682Z" fill="black"/>
</svg>
