<svg width="50" height="50" viewBox="0 0 50 50" fill="none" xmlns="http://www.w3.org/2000/svg">
<circle cx="25" cy="25" r="24.5" fill="white" stroke="#E3E4E7"/>
<path d="M25 13C18.3727 13 13 18.4003 13 25.0617C13 31.109 17.4318 36.102 23.2065 36.9742V28.2586H20.2376V25.088H23.2065V22.9783C23.2065 19.4853 24.8996 17.9519 27.7878 17.9519C29.1711 17.9519 29.9025 18.0549 30.2489 18.1021V20.8697H28.2787C27.0525 20.8697 26.6244 22.038 26.6244 23.355V25.088H30.2178L29.7302 28.2586H26.6244V37C32.4815 36.2012 37 31.1676 37 25.0617C37 18.4003 31.6273 13 25 13Z" fill="#3876E9"/>
</svg>
