<svg width="50" height="50" viewBox="0 0 50 50" fill="none" xmlns="http://www.w3.org/2000/svg">
<circle cx="25" cy="25" r="24.5" fill="white" stroke="#E3E4E7"/>
<path d="M37 24.9886C37.0066 31.6156 31.6384 36.9934 25.0114 37C18.3844 37.0066 13.0066 31.6384 13 25.0114C12.9934 18.3844 18.3616 13.0066 24.9886 13C31.6156 12.9934 36.9934 18.3616 37 24.9886Z" fill="url(#paint0_linear_4542_3858)"/>
<path opacity="0.05" d="M33.2653 24.3808C33.2653 20.0872 29.8273 16.8496 25.2673 16.8496C19.4071 16.8496 16.7383 20.9248 16.7383 24.712C16.7383 26.6008 17.7133 29.0632 19.5205 29.905C19.8121 30.0412 20.0785 30.0514 20.3131 29.938C20.4697 29.8624 20.6749 29.6962 20.7583 29.341L21.0919 27.9796C21.1675 27.6622 21.0997 27.3712 20.8885 27.1144C20.5129 26.6584 20.1319 25.702 20.1319 24.7564C20.1319 22.5226 21.8203 20.1484 24.9499 20.1484C27.5479 20.1484 29.3623 21.9094 29.3623 24.4306C29.3623 27.2668 28.0279 29.3254 26.1901 29.3254C25.7809 29.3254 25.4161 29.161 25.1893 28.8742C24.9787 28.6078 24.9109 28.2604 24.9967 27.8956C25.1143 27.4 25.2757 26.8792 25.4311 26.3752C25.7275 25.4164 26.0071 24.511 26.0071 23.7622C26.0071 22.3924 25.1557 21.4726 23.8891 21.4726C22.3351 21.4726 21.1183 23.0158 21.1183 24.9862C21.1183 25.834 21.3241 26.4964 21.4483 26.8198C21.2293 27.7462 20.2789 31.7692 20.0863 32.596C19.8559 33.58 19.9021 34.8784 19.9975 35.8966C20.6539 36.1984 21.3415 36.4402 22.0555 36.6208C22.5187 35.8534 23.2381 34.5574 23.5207 33.4714C23.5999 33.1666 23.8135 32.3518 23.9923 31.6708C24.6511 32.1472 25.5433 32.4454 26.4379 32.4454C30.3307 32.4448 33.2653 28.978 33.2653 24.3808Z" fill="black"/>
<path opacity="0.07" d="M32.9651 24.3811C32.9651 20.2585 29.6555 17.1499 25.2671 17.1499C19.6133 17.1499 17.0381 21.0697 17.0381 24.7123C17.0381 26.5339 18.0137 28.8727 19.6475 29.6335C19.7237 29.6695 19.9571 29.7781 20.1827 29.6689C20.3255 29.5993 20.4215 29.4655 20.4671 29.2717L20.8001 27.9109C20.8535 27.6865 20.8073 27.4885 20.6567 27.3061C20.1713 26.7169 19.8317 25.6687 19.8317 24.7573C19.8317 22.3783 21.6257 19.8493 24.9497 19.8493C27.7241 19.8493 29.6621 21.7333 29.6621 24.4315C29.6621 27.4417 28.2017 29.6263 26.1899 29.6263C25.6889 29.6263 25.2383 29.4205 24.9539 29.0611C24.6851 28.7215 24.5969 28.2829 24.7049 27.8269C24.8249 27.3217 24.9875 26.7961 25.1447 26.2873C25.4339 25.3507 25.7075 24.4663 25.7075 23.7625C25.7075 22.5721 24.9767 21.7729 23.8895 21.7729C22.5041 21.7729 21.4187 23.1847 21.4187 24.9865C21.4187 25.8823 21.6581 26.5495 21.7625 26.7973C21.5951 27.5053 20.5787 31.8061 20.3789 32.6647C20.1443 33.6697 20.2097 35.0311 20.3147 36.0493C20.7785 36.2461 21.2609 36.4057 21.7523 36.5437C22.2035 35.8039 22.9481 34.4827 23.2307 33.3967C23.3291 33.0187 23.6333 31.8589 23.8223 31.1395C24.4307 31.7449 25.4309 32.1463 26.4383 32.1463C30.1595 32.1451 32.9651 28.8073 32.9651 24.3811Z" fill="black"/>
<path d="M25.2659 17.4494C20.0867 17.4494 17.3369 20.9264 17.3369 24.7112C17.3369 26.471 18.2741 28.6622 19.7729 29.36C19.9997 29.4662 20.1221 29.42 20.1737 29.1998C20.2139 29.033 20.4155 28.2176 20.5067 27.839C20.5355 27.7178 20.5217 27.614 20.4239 27.4952C19.9277 26.8934 19.5311 25.787 19.5311 24.7562C19.5311 22.109 21.5351 19.5482 24.9491 19.5482C27.8969 19.5482 29.9609 21.557 29.9609 24.4304C29.9609 27.6764 28.3217 29.9252 26.1887 29.9252C25.0109 29.9252 24.1289 28.9514 24.4115 27.7562C24.7505 26.33 25.4057 24.791 25.4057 23.7614C25.4057 22.8404 24.9119 22.0712 23.8877 22.0712C22.6835 22.0712 21.7169 23.3162 21.7169 24.9854C21.7169 26.0474 22.0757 26.7662 22.0757 26.7662C22.0757 26.7662 20.8865 31.7954 20.6687 32.7314C20.4275 33.7646 20.5211 35.216 20.6261 36.1652C20.8967 36.2714 21.1673 36.3776 21.4475 36.4646C21.9377 35.6678 22.6679 34.361 22.9391 33.3194C23.0849 32.7572 23.6873 30.4664 23.6873 30.4664C24.0785 31.2122 25.2215 31.8446 26.4371 31.8446C30.0563 31.8446 32.6639 28.5164 32.6639 24.3806C32.6639 20.4152 29.4293 17.4494 25.2659 17.4494Z" fill="white"/>
<defs>
<linearGradient id="paint0_linear_4542_3858" x1="19.6042" y1="14.5012" x2="30.7534" y2="36.1936" gradientUnits="userSpaceOnUse">
<stop stop-color="#F22543"/>
<stop offset="0.422" stop-color="#EB2239"/>
<stop offset="1" stop-color="#E52030"/>
</linearGradient>
</defs>
</svg>
