<svg width="24" height="24" viewBox="0 0 24 24" fill="none" xmlns="http://www.w3.org/2000/svg">
<path d="M21 18.1421V12.1421C21 7.17153 16.9706 3.14209 12 3.14209C7.02944 3.14209 3 7.17153 3 12.1421V18.1421M21 18.1421C21 19.7989 20.1046 21.1421 19 21.1421C17.8954 21.1421 17 19.7989 17 18.1421C17 16.4852 17.8954 15.1421 19 15.1421C20.1046 15.1421 21 16.4852 21 18.1421ZM3 18.1421C3 19.7989 3.89543 21.1421 5 21.1421C6.10457 21.1421 7 19.7989 7 18.1421C7 16.4852 6.10457 15.1421 5 15.1421C3.89543 15.1421 3 16.4852 3 18.1421Z" stroke="black" stroke-width="2"/>
</svg>
