<svg width="24" height="24" viewBox="0 0 24 24" fill="none" xmlns="http://www.w3.org/2000/svg">
<path fill-rule="evenodd" clip-rule="evenodd" d="M4.49676 14.6837C3.49569 11.8657 4.12287 8.59858 6.3783 6.34315C9.5025 3.21895 14.5678 3.21895 17.692 6.34315C19.9472 8.59838 20.5745 11.8651 19.5738 14.683C19.4881 14.5799 19.3916 14.4848 19.285 14.3995L18.0834 13.4383C17.7288 13.1546 17.2882 13 16.834 13H16.0356C14.931 13 14.0356 13.8954 14.0356 15V20C14.0356 21.1046 14.931 22 16.0356 22H16.834C17.2882 22 17.7288 21.8454 18.0834 21.5617L19.285 20.6005C19.7594 20.2209 20.0356 19.6463 20.0356 19.0387V18.0015C22.982 14.084 22.6722 8.49491 19.1062 4.92893C15.201 1.02369 8.86933 1.02369 4.96409 4.92893C1.39775 8.49527 1.08826 14.0851 4.0356 18.0027V19.0387C4.0356 19.6463 4.31178 20.2209 4.78621 20.6005L5.98777 21.5617C6.3424 21.8454 6.78302 22 7.23716 22H8.0356C9.14017 22 10.0356 21.1046 10.0356 20V15C10.0356 13.8954 9.14017 13 8.0356 13H7.23716C6.78302 13 6.3424 13.1546 5.98777 13.4383L4.78621 14.3995C4.67938 14.485 4.5826 14.5803 4.49676 14.6837Z" fill="black"/>
</svg>
