<svg width="24" height="24" viewBox="0 0 24 24" fill="none" xmlns="http://www.w3.org/2000/svg">
<path fill-rule="evenodd" clip-rule="evenodd" d="M15.002 4.00586H15.0049C16.1094 4.00586 17.0049 4.90129 17.0049 6.00586V7.99609H6.99902V6.00586C6.99902 4.90129 7.89445 4.00586 8.99902 4.00586H13.002V2H15.002V4.00586ZM17.0049 9.99609H6.99902V13.0036L4.79203 13.002C3.77461 13.0012 2.91878 13.7644 2.80347 14.7753L2.23286 19.7775C2.0975 20.9642 3.02561 22.0042 4.21998 22.0042H19.7597C20.9515 22.0042 21.8789 20.9683 21.7475 19.7837L21.1938 14.7919C21.0815 13.7794 20.2261 13.0131 19.2074 13.0124L17.0049 13.0108V9.99609ZM4.79059 15.002L6.99902 15.0036V16.0393C6.99902 17.1438 7.89445 18.0393 8.99902 18.0393H15.0049C16.1094 18.0393 17.0049 17.1438 17.0049 16.0393V15.0108L19.206 15.0124L19.7597 20.0042H4.21998L4.79059 15.002Z" fill="black"/>
</svg>
