<svg width="24" height="24" viewBox="0 0 24 24" fill="none" xmlns="http://www.w3.org/2000/svg">
<path d="M19 17.7994C20.2508 16.2537 21 14.2854 21 12.1421C21 7.17153 16.9706 3.14209 12 3.14209C7.02944 3.14209 3 7.17153 3 12.1421C3 14.2409 3.71843 16.1719 4.92279 17.7027M4.92279 17.7027C4.94902 17.8915 4.98733 18.0825 5.03832 18.2741C5.53302 20.1333 7.03338 21.3479 8.38945 20.9871C9.74553 20.6263 10.4438 18.8266 9.94911 16.9674C9.45441 15.1082 7.95405 13.8935 6.59798 14.2544C5.38165 14.578 4.69453 16.0592 4.92279 17.7027ZM18.9238 18.2604C18.4455 20.1569 16.9684 21.4195 15.6246 21.0806C14.2808 20.7416 13.5793 18.9295 14.0577 17.033C14.536 15.1365 16.0132 13.8739 17.3569 14.2128C18.7007 14.5518 19.4022 16.364 18.9238 18.2604Z" stroke="black" stroke-width="2"/>
</svg>
