<svg width="24" height="24" viewBox="0 0 24 24" fill="none" xmlns="http://www.w3.org/2000/svg">
<path d="M6 18V18C4.32454 18 2.96631 16.6418 2.96631 14.9663V12C2.96631 7.02944 6.99575 3 11.9663 3V3C16.9369 3 20.9663 7.02944 20.9663 12V15.0337C20.9663 16.6719 19.6382 18 18 18V18" stroke="black" stroke-width="2"/>
<path d="M5 17C5 15.3431 6.34315 14 8 14H9V20H8C6.34315 20 5 18.6569 5 17Z" stroke="black" stroke-width="2"/>
<path d="M19 17C19 15.3431 17.6569 14 16 14H15V20H16C17.6569 20 19 18.6569 19 17Z" stroke="black" stroke-width="2"/>
<path d="M9 12V22M15 12V22" stroke="black" stroke-width="2"/>
</svg>
