<svg width="24" height="24" viewBox="0 0 24 24" fill="none" xmlns="http://www.w3.org/2000/svg">
<path d="M10 10V7C10 4.79086 8.20914 3 6 3H5C3.89543 3 3 3.89543 3 5V8C3 9.10457 3.89543 10 5 10H10ZM10 10V21M14 10V7C14 4.79086 15.7909 3 18 3H19C20.1046 3 21 3.89543 21 5V8C21 9.10457 20.1046 10 19 10H14ZM14 10V21M6.5 7C6.5 7.27614 6.27614 7.5 6 7.5C5.72386 7.5 5.5 7.27614 5.5 7C5.5 6.72386 5.72386 6.5 6 6.5C6.27614 6.5 6.5 6.72386 6.5 7ZM17.5 7C17.5 7.27614 17.7239 7.5 18 7.5C18.2761 7.5 18.5 7.27614 18.5 7C18.5 6.72386 18.2761 6.5 18 6.5C17.7239 6.5 17.5 6.72386 17.5 7Z" stroke="black" stroke-width="2" stroke-linecap="round"/>
</svg>
