<svg width="24" height="24" viewBox="0 0 24 24" fill="none" xmlns="http://www.w3.org/2000/svg">
<path d="M18.0529 18.0355L19.9172 15.2677C19.9729 15.1841 20.0204 15.0954 20.059 15.0028C22.41 9.36042 18.193 3.14209 12.0804 3.14209C6.17068 3.14209 1.93087 8.93182 3.7997 14.5383L3.85721 14.7108C3.90688 14.8598 3.97393 15.0025 4.05697 15.1358L5.8882 18.0757M9 17.1421V21.1421H7.3L5.41881 19.9152C5.15754 19.7448 5 19.454 5 19.1421C5 18.8302 5.15754 18.5393 5.41881 18.369L7.3 17.1421H9ZM15 21.1421V17.1421H16.7L18.5812 18.369C18.8425 18.5393 19 18.8302 19 19.1421C19 19.454 18.8425 19.7448 18.5812 19.9152L16.7 21.1421H15Z" stroke="black" stroke-width="2"/>
</svg>
