<svg width="24" height="24" viewBox="0 0 24 24" fill="none" xmlns="http://www.w3.org/2000/svg">
<path d="M12 2.14209C6.47715 2.14209 2 6.61924 2 12.1421V18.1421C2 20.3512 3.34315 22.1421 5 22.1421C6.65685 22.1421 8 20.3512 8 18.1421C8 15.933 6.65685 14.1421 5 14.1421C4.64936 14.1421 4.31278 14.2223 4 14.3697V12.1421C4 7.72381 7.58172 4.14209 12 4.14209C16.4183 4.14209 20 7.72381 20 12.1421V14.3697C19.6872 14.2223 19.3506 14.1421 19 14.1421C17.3431 14.1421 16 15.933 16 18.1421C16 20.3512 17.3431 22.1421 19 22.1421C20.6569 22.1421 22 20.3512 22 18.1421V12.1421C22 6.61924 17.5228 2.14209 12 2.14209Z" fill="black"/>
</svg>
