<svg width="24" height="24" viewBox="0 0 24 24" fill="none" xmlns="http://www.w3.org/2000/svg">
<circle cx="17" cy="6" r="3" stroke="black" stroke-width="2"/>
<circle r="3" transform="matrix(-1 0 0 1 7 6)" stroke="black" stroke-width="2"/>
<path d="M10 6L10 14M14 6L14 14" stroke="black" stroke-width="2"/>
<path d="M4 13H20C20.5523 13 21 13.4477 21 14V18C21 19.6569 19.6569 21 18 21H6C4.34315 21 3 19.6569 3 18V14C3 13.4477 3.44772 13 4 13Z" stroke="black" stroke-width="2"/>
<path d="M6 7C6.55228 7 7 6.55228 7 6C7 5.44772 6.55228 5 6 5V7ZM18 5C17.4477 5 17 5.44772 17 6C17 6.55228 17.4477 7 18 7V5ZM4 7H6V5H4V7ZM20 5H18V7H20V5Z" fill="black"/>
</svg>
