<svg width="120" height="153" viewBox="0 0 120 153" fill="none" xmlns="http://www.w3.org/2000/svg">
<path d="M118.334 76.1841V17.8507C118.334 8.646 110.872 1.18408 101.667 1.18408H18.3337C9.12891 1.18408 1.66699 8.646 1.66699 17.8507V76.1841M118.334 76.1841V109.517C118.334 114.12 114.603 117.851 110 117.851H101.667M118.334 76.1841C118.334 71.5817 114.603 67.8507 110 67.8507H93.3337C88.7313 67.8507 85.0003 71.5817 85.0003 76.1841V109.517C85.0003 114.12 88.7313 117.851 93.3337 117.851H101.667M1.66699 76.1841V109.517C1.66699 114.12 5.39795 117.851 10.0003 117.851H26.667C31.2694 117.851 35.0003 114.12 35.0003 109.517V76.1841C35.0003 71.5817 31.2694 67.8507 26.667 67.8507H10.0003C5.39795 67.8507 1.66699 71.5817 1.66699 76.1841ZM101.667 117.851V134.517C101.667 143.722 94.2051 151.184 85.0003 151.184H60.0003" stroke="black" stroke-width="2" stroke-linecap="round"/>
</svg>
