<svg width="24" height="24" viewBox="0 0 24 24" fill="none" xmlns="http://www.w3.org/2000/svg">
<path d="M14 6.5C14 8.433 15.567 10 17.5 10C19.433 10 21 8.433 21 6.5C21 6.33024 20.9879 6.1633 20.9646 6M14 6.5C14 4.567 15.567 3 17.5 3C19.2632 3 20.7219 4.30385 20.9646 6M14 6.5V21.5M20.9646 6H19M10 6.5C10 8.433 8.433 10 6.5 10C4.567 10 3 8.433 3 6.5C3 6.33024 3.01209 6.1633 3.03544 6M10 6.5C10 4.567 8.433 3 6.5 3C4.73676 3 3.27806 4.30385 3.03544 6M10 6.5V21.5M3.03544 6H5" stroke="black" stroke-width="2" stroke-linecap="round"/>
</svg>
