<svg width="24" height="24" viewBox="0 0 24 24" fill="none" xmlns="http://www.w3.org/2000/svg">
<path d="M10.9637 16.9961C10.9874 17.1606 10.9997 17.3289 10.9997 17.5C10.9997 19.433 9.43269 21 7.49969 21C5.5667 21 3.99969 19.433 3.99969 17.5L3.99774 16.998M10.9637 16.9961H19.9997C20.552 16.9961 20.9997 16.5484 20.9997 15.9961V3.99805C20.9997 3.44576 20.552 2.99805 19.9997 2.99805H9.99969C9.44741 2.99805 8.99969 3.44576 8.99969 3.99805V15.9961C8.99969 16.5484 9.44741 16.9961 9.9997 16.9961H10.9637ZM11.9997 7.00391L17.9997 7.00391M3.99774 16.998C4.55003 16.998 4.99774 16.5503 4.99774 15.998V3.99805C4.99774 3.44576 4.55003 2.99805 3.99774 2.99805C3.44546 2.99805 2.99774 3.44576 2.99774 3.99805V15.998C2.99774 16.5503 3.44546 16.998 3.99774 16.998Z" stroke="black" stroke-width="2"/>
</svg>
