<svg width="24" height="24" viewBox="0 0 24 24" fill="none" xmlns="http://www.w3.org/2000/svg">
<path d="M19 12.1421V5.14209C19 4.03752 18.1046 3.14209 17 3.14209H7C5.89543 3.14209 5 4.03752 5 5.14209V12.1421M19 12.1421V16.1421C19 16.6944 18.5523 17.1421 18 17.1421H17M19 12.1421C19 11.5898 18.5523 11.1421 18 11.1421H16C15.4477 11.1421 15 11.5898 15 12.1421V16.1421C15 16.6944 15.4477 17.1421 16 17.1421H17M5 12.1421V16.1421C5 16.6944 5.44772 17.1421 6 17.1421H8C8.55228 17.1421 9 16.6944 9 16.1421V12.1421C9 11.5898 8.55228 11.1421 8 11.1421H6C5.44772 11.1421 5 11.5898 5 12.1421ZM17 17.1421V19.1421C17 20.2467 16.1046 21.1421 15 21.1421H12" stroke="black" stroke-width="2" stroke-linecap="round"/>
</svg>
