<svg width="24" height="24" viewBox="0 0 24 24" fill="none" xmlns="http://www.w3.org/2000/svg">
<path fill-rule="evenodd" clip-rule="evenodd" d="M12.0352 4C7.61688 4 4.03516 7.58172 4.03516 12V16C4.03516 16.5523 4.48287 17 5.03516 17H6.03516V19H5.03516C3.3783 19 2.03516 17.6569 2.03516 16V12C2.03516 6.47715 6.51231 2 12.0352 2C17.558 2 22.0352 6.47715 22.0352 12V16C22.0352 17.6569 20.692 19 19.0352 19H18.0352V17H19.0352C19.5874 17 20.0352 16.5523 20.0352 16V12C20.0352 7.58172 16.4534 4 12.0352 4Z" fill="black"/>
<path d="M8.03516 14C6.93059 14 6.03516 14.8954 6.03516 16V20C6.03516 21.1046 6.93059 22 8.03516 22C9.13973 22 10.0352 21.1046 10.0352 20V16C10.0352 14.8954 9.13973 14 8.03516 14Z" fill="black"/>
<path d="M16.0352 14C14.9306 14 14.0352 14.8954 14.0352 16V20C14.0352 21.1046 14.9306 22 16.0352 22C17.1397 22 18.0352 21.1046 18.0352 20V16C18.0352 14.8954 17.1397 14 16.0352 14Z" fill="black"/>
</svg>
