<svg width="24" height="24" viewBox="0 0 24 24" fill="none" xmlns="http://www.w3.org/2000/svg">
<path d="M18.002 11V5C18.002 3.89543 17.1065 3 16.002 3H8.0013C6.89699 3 6.00166 3.89503 6.0013 4.99935L5.99934 11M5.99934 11C4.89514 11 4 11.8951 4 12.9993V14.9974C4 16.1034 4.89659 17 6.00259 17C7.11114 17 8.00879 16.0994 8.00518 14.9909L7.99867 12.9928C7.99509 11.8912 7.10101 11 5.99934 11ZM16 12.9993V14.9974C16 16.1034 16.8966 17 18.0026 17C19.1111 17 20.0088 16.0994 20.0052 14.9909L19.9987 12.9928M16 12.9993C16 11.8951 16.8951 11 17.9993 11C19.101 11 19.9951 11.8912 19.9987 12.9928M16 12.9993V14.9941C16 16.1019 16.8981 17 18.0059 17H18.0352M19.9987 12.9928L20.0053 15.0234C20.0088 16.114 19.1257 17 18.0352 17M18.0352 17V19C18.0352 20.1046 17.1397 21 16.0352 21H13.0352" stroke="black" stroke-width="2"/>
</svg>
