<svg width="24" height="24" viewBox="0 0 24 24" fill="none" xmlns="http://www.w3.org/2000/svg">
<path fill-rule="evenodd" clip-rule="evenodd" d="M5 5C4.44772 5 4 5.44772 4 6V7H6.01179L6.00132 5H5ZM8.00134 5L8.02228 9H2V6C2 4.34315 3.34315 3 5 3H19C20.6569 3 22 4.34315 22 6V9H16.0019V5H8.00134ZM18.0019 7H20V6C20 5.44771 19.5523 5 19 5H18.0019V7ZM4.70179 12.6467C4.87447 11.6954 5.70285 11.0039 6.66963 11.0039H8.99902V9H10.999V11.0039H12.998V9H14.998V11.0039H17.331C18.2975 11.0039 19.1257 11.6951 19.2987 12.646L20.5711 19.6421C20.7944 20.8698 19.8513 22 18.6034 22H5.39965C4.15207 22 3.20898 20.8703 3.43181 19.6428L4.70179 12.6467ZM12 19.002C13.1046 19.002 14 18.1065 14 17.002C14 15.8974 13.1046 15.002 12 15.002C10.8954 15.002 10 15.8974 10 17.002C10 18.1065 10.8954 19.002 12 19.002Z" fill="black"/>
</svg>
