<svg width="24" height="24" viewBox="0 0 24 24" fill="none" xmlns="http://www.w3.org/2000/svg">
<path fill-rule="evenodd" clip-rule="evenodd" d="M1.9668 5.14209C1.9668 3.48524 3.30994 2.14209 4.9668 2.14209H18.9668C20.6237 2.14209 21.9668 3.48524 21.9668 5.14209V14.1421H19.9668V5.14209C19.9668 4.5898 19.5191 4.14209 18.9668 4.14209H4.9668C4.41451 4.14209 3.9668 4.58981 3.9668 5.14209V14.1421H1.9668V5.14209Z" fill="black"/>
<path d="M1.9668 14.1421H5.9668C7.07137 14.1421 7.9668 15.0375 7.9668 16.1421V20.1421C7.9668 21.2467 7.07137 22.1421 5.9668 22.1421H3.9668C2.86223 22.1421 1.9668 21.2467 1.9668 20.1421V14.1421Z" fill="black"/>
<path d="M21.9668 14.1421H17.9668C16.8622 14.1421 15.9668 15.0375 15.9668 16.1421V20.1421C15.9668 21.2467 16.8622 22.1421 17.9668 22.1421H19.9668C21.0714 22.1421 21.9668 21.2467 21.9668 20.1421V14.1421Z" fill="black"/>
</svg>
