<svg width="86" height="30" viewBox="0 0 86 30" fill="none" xmlns="http://www.w3.org/2000/svg">
<path d="M40.8486 22.412H43.421V11.2075H40.8486V22.412ZM50.2331 15.793C48.9216 15.366 47.7015 15.0305 47.7015 14.2171V14.1764C47.7015 13.5155 48.2708 13.0478 49.2774 13.0478C49.7654 13.0478 50.3043 13.1596 50.8737 13.3528C50.8737 13.3528 50.8839 13.3528 50.894 13.363C50.9449 13.3833 50.9957 13.4037 51.0364 13.4138C51.4431 13.546 52.5411 13.7188 53.4664 12.2751C52.2666 11.5023 50.7415 11.0143 49.3384 11.0143C47.1118 11.0143 45.3426 12.3056 45.3426 14.4306V14.4712C45.3426 16.6166 47.1931 17.2978 48.8504 17.7655C50.162 18.1722 51.3516 18.4671 51.3516 19.3313V19.372C51.3516 20.1142 50.711 20.5819 49.6129 20.5819C48.8809 20.5819 48.0777 20.3887 47.2744 20.0125C47.0406 19.9108 45.8408 19.5041 44.8241 20.9682C46.217 22.0562 47.976 22.6255 49.5519 22.6255C51.8904 22.6255 53.7104 21.4563 53.7104 19.0974V19.0669C53.7104 17.0436 51.8701 16.3014 50.2331 15.793ZM33.8433 19.4431L30.8236 11.2075H28.0682L32.674 22.5035H34.9922L39.5777 11.2075H36.8833L33.8433 19.4431ZM65.6469 10.9736C62.2103 10.9736 59.6583 13.6273 59.6583 16.8504C59.6583 20.0532 62.1798 22.6662 65.6063 22.6662C69.0632 22.6662 71.6152 20.0125 71.6152 16.8098C71.6152 13.5867 69.0835 10.9736 65.6469 10.9736ZM65.6469 20.4395C63.6541 20.4395 62.2307 18.8026 62.2307 16.8098C62.2307 14.8373 63.5423 13.2206 65.6063 13.2206C67.6194 13.2206 69.0428 14.8576 69.0428 16.8504C69.0428 18.8331 67.7211 20.4395 65.6469 20.4395ZM79.2306 10.9736C77.492 10.9736 76.4447 11.8887 75.7228 12.9461V11.2075H73.1505V22.4222H75.7228V16.098C75.7228 14.3594 76.7599 13.3121 78.2545 13.3121C79.7796 13.3121 80.654 14.3086 80.654 16.0472V22.412H83.2264V15.2745C83.2264 12.6716 81.7623 10.9736 79.2306 10.9736ZM55.4084 22.412H57.9807V11.2075H55.4084V22.412Z" fill="#C8C9D0"/>
<path fill-rule="evenodd" clip-rule="evenodd" d="M5.58791 1.57886H27.5698C28.9119 1.57886 29.9998 2.66678 29.9897 4.00888V25.9909C29.9897 27.333 28.9018 28.421 27.5597 28.421H5.58791C4.24581 28.421 3.1579 27.333 3.1579 25.9808V4.00888C3.1579 2.66678 4.24581 1.57886 5.58791 1.57886ZM13.7625 8.41154C13.7625 9.32662 13.0203 10.0282 12.1255 10.0282C11.241 10.0282 10.4886 9.32662 10.4886 8.41154C10.4886 7.49648 11.2308 6.79492 12.1255 6.79492C13.0101 6.79492 13.7625 7.49648 13.7625 8.41154ZM8.58727 19.8906C8.58727 19.5348 8.63811 19.0874 8.72962 18.6807L9.9497 13.658H8.0484L8.62794 11.5228H13.2134L11.4036 18.701C11.2816 19.1687 11.2308 19.5449 11.2308 19.8093C11.2308 20.2668 11.4545 20.399 11.8103 20.4803C12.0239 20.521 13.732 20.4905 14.6674 18.4163L15.857 13.658H13.9252L14.5047 11.5228H18.6327L18.104 13.9426C18.8258 12.5904 20.2696 11.3093 21.6931 11.3093C23.2182 11.3093 24.4688 12.387 24.4688 14.4612C24.4688 14.9899 24.3976 15.5694 24.2044 16.2202L23.4317 18.9959C23.3605 19.2907 23.3097 19.5348 23.3097 19.7483C23.3097 20.2261 23.5029 20.4702 23.8689 20.4702C24.2349 20.4702 24.6924 20.2058 25.2211 18.7315L26.2786 19.1382C25.6482 21.3344 24.5196 22.2495 23.0962 22.2495C21.4287 22.2495 20.6356 21.2632 20.6356 19.9109C20.6356 19.5246 20.6865 19.1077 20.8085 18.701L21.6015 15.8541C21.7032 15.5491 21.7236 15.2543 21.7236 14.9899C21.7236 14.0748 21.1745 13.5156 20.2798 13.5156C19.141 13.5156 18.3988 14.329 18.0125 15.8948L16.467 22.0868H13.7625L14.2505 20.1448C13.4575 21.4564 12.3594 22.2596 10.9969 22.2596C9.35999 22.2596 8.58727 21.3141 8.58727 19.8906Z" fill="#C8C9D0"/>
</svg>
