<svg width="24" height="24" viewBox="0 0 24 24" fill="none" xmlns="http://www.w3.org/2000/svg">
<path d="M13.6328 17.9777C13.1338 18.6707 12.5897 19.4263 11.9977 20.2629C11.4469 19.4885 10.9374 18.7827 10.4671 18.1312C9.27122 16.4745 8.32866 15.1688 7.60444 13.9777C6.49791 12.1579 6 10.7534 6 9C6 5.68629 8.68629 3 12 3C15.3137 3 18 5.68629 18 9C18 10.7551 17.5027 12.1489 16.3963 13.9631C15.6911 15.1194 14.7814 16.3827 13.6328 17.9777Z" stroke="black" stroke-width="2"/>
<path fill-rule="evenodd" clip-rule="evenodd" d="M12 11C13.1046 11 14 10.1046 14 9C14 7.89543 13.1046 7 12 7C10.8954 7 10 7.89543 10 9C10 10.1046 10.8954 11 12 11Z" fill="black"/>
</svg>
