<svg width="24" height="24" viewBox="0 0 24 24" fill="none" xmlns="http://www.w3.org/2000/svg">
<path fill-rule="evenodd" clip-rule="evenodd" d="M16.7726 19.0827C16.6856 18.5677 16.2305 16.0608 15.1098 12.9836C17.8675 12.5427 20.2559 13.2988 20.4323 13.3564C20.0524 15.7363 18.6895 17.7881 16.7726 19.0827ZM12.0007 20.5408C9.93328 20.5408 8.03759 19.8059 6.55937 18.583C6.67227 18.6747 6.75106 18.7323 6.75106 18.7323C6.75106 18.7323 8.38803 15.1625 13.453 13.3975C13.4718 13.3905 13.4918 13.3858 13.5106 13.3799C14.7125 16.5018 15.2076 19.1168 15.3346 19.8635C14.3103 20.2986 13.1825 20.5408 12.0007 20.5408ZM3.45938 11.9995C3.45938 11.9089 3.46408 11.8196 3.46643 11.7302C3.61813 11.7337 7.83757 11.829 12.2346 10.5132C12.4792 10.9918 12.7132 11.4797 12.9272 11.9654C12.8143 11.9959 12.7026 12.03 12.5909 12.0677C7.98222 13.5563 5.64436 17.7023 5.64436 17.7023C5.64436 17.7023 5.64789 17.7058 5.64789 17.707C4.28727 16.1937 3.45938 14.1936 3.45938 11.9995ZM8.35632 4.27764C8.47039 4.42932 10.0497 6.57054 11.528 9.19739C7.42729 10.2874 3.86758 10.2439 3.64297 10.2404C4.19686 7.5947 5.97377 5.40175 8.35632 4.27764ZM9.95439 3.7085C9.95439 3.70967 9.95322 3.71085 9.95322 3.71085C9.95322 3.71085 9.94263 3.7132 9.92734 3.71555C9.93675 3.7132 9.94498 3.71202 9.95439 3.7085ZM17.6404 5.59226C17.6193 5.62401 16.4033 7.47597 13.1787 8.68357C11.7193 6.00146 10.1153 3.87082 9.98711 3.7015C10.6327 3.54511 11.3066 3.46045 12.0004 3.46045C14.1619 3.46045 16.1363 4.26708 17.6404 5.59226ZM20.5383 11.9147C20.4148 11.8877 17.5242 11.2656 14.5901 11.6349C14.529 11.4891 14.469 11.3421 14.4055 11.1951C14.2279 10.7765 14.0362 10.3626 13.8375 9.95575C17.2102 8.57884 18.5791 6.59988 18.5955 6.57637C19.7927 8.03089 20.5183 9.88873 20.5383 11.9147ZM21.7977 9.98754C21.666 9.34552 21.4685 8.71174 21.2133 8.10736C20.964 7.51473 20.6523 6.94327 20.2913 6.40943C19.935 5.8803 19.5234 5.38174 19.0718 4.93021C18.619 4.47751 18.1216 4.06714 17.5912 3.70968C17.0573 3.34752 16.4858 3.03827 15.8931 2.78664C15.2886 2.53266 14.656 2.33512 14.0139 2.2046C13.3553 2.06938 12.678 2 12.0006 2C11.322 2 10.6447 2.06938 9.98612 2.2046C9.34404 2.33512 8.71135 2.53266 8.1069 2.78664C7.5142 3.03827 6.94267 3.34752 6.4076 3.70968C5.8784 4.06714 5.38096 4.47751 4.92821 4.93021C4.47663 5.38174 4.06621 5.8803 3.70871 6.40943C3.34768 6.94327 3.03604 7.51473 2.78673 8.10736C2.53037 8.71174 2.33398 9.34552 2.20227 9.98754C2.06821 10.6448 2 11.3221 2 11.9994C2 12.6791 2.06821 13.3563 2.20227 14.0148C2.33398 14.6568 2.53037 15.2894 2.78673 15.8926C3.03604 16.4853 3.34768 17.0591 3.70871 17.5929C4.06621 18.1221 4.47663 18.6183 4.92821 19.0721C5.38096 19.5237 5.8784 19.9329 6.4076 20.2915C6.94267 20.6525 7.5142 20.9629 8.1069 21.2134C8.71135 21.4697 9.34404 21.6649 9.98612 21.7954C10.6447 21.9318 11.322 22 12.0006 22C12.678 22 13.3553 21.9318 14.0139 21.7954C14.656 21.6649 15.2886 21.4697 15.8931 21.2134C16.4858 20.9629 17.0573 20.6525 17.5912 20.2915C18.1216 19.9329 18.619 19.5237 19.0718 19.0721C19.5234 18.6183 19.935 18.1221 20.2913 17.5929C20.6523 17.0591 20.964 16.4853 21.2133 15.8926C21.4685 15.2894 21.666 14.6568 21.7977 14.0148C21.9318 13.3563 22 12.6791 22 11.9994C22 11.3221 21.9318 10.6448 21.7977 9.98754Z" fill="#C8C9D0"/>
</svg>
