<svg width="136" height="30" viewBox="0 0 136 30" fill="none" xmlns="http://www.w3.org/2000/svg">
<path d="M26.247 15.0969C26.247 20.0565 22.2551 24.0969 17.2954 24.0969C12.3357 24.0969 8.34378 20.0565 8.34378 15.0969C8.34378 10.1372 12.3357 6.09687 17.2954 6.09687C22.2551 6.09687 26.247 10.1372 26.247 15.0969ZM36.0696 15.0969C36.0696 19.7662 34.0615 23.5646 31.5938 23.5646C29.126 23.5646 27.118 19.7662 27.118 15.0969C27.118 10.4275 29.126 6.62913 31.5938 6.62913C34.0615 6.62913 36.0696 10.4275 36.0696 15.0969ZM40.0857 15.0969C40.0857 19.2824 39.3841 22.6936 38.5131 22.6936C37.6422 22.6936 36.9406 19.2824 36.9406 15.0969C36.9406 10.9114 37.6422 7.5001 38.5131 7.5001C39.3841 7.5001 40.0857 10.9114 40.0857 15.0969ZM64.7389 6.87106H64.7631V6.67752H59.6825L54.9647 17.7824L50.247 6.67752H44.7793V6.87106H44.8035C45.7228 7.0888 46.2067 7.40332 46.2067 8.51622V21.7017C46.2067 22.8388 45.7228 23.1291 44.8035 23.3469H44.7793V23.5404H48.5051V23.3469H48.4809C47.5615 23.1291 47.0777 22.8146 47.0777 21.7017V9.26623L53.1502 23.5404H53.4889L59.7309 8.87913V22.0162C59.6583 22.9114 59.1744 23.1775 58.3518 23.3711H58.3277V23.5646H64.8115V23.3711H64.7873C63.9406 23.1775 63.4567 22.9114 63.3841 22.0162V8.49203C63.3599 7.40332 63.8196 7.0888 64.7389 6.87106ZM67.7147 15.6049C67.8115 13.234 68.6825 11.5162 70.1099 11.492C70.5454 11.492 70.9083 11.6372 71.1986 11.9275C71.8035 12.5082 72.0938 13.7662 72.0454 15.6049H67.7147ZM67.6422 16.2824H75.2389V16.2582C75.2147 14.4436 74.6825 13.0404 73.6906 12.0727C72.8196 11.2259 71.5131 10.7662 70.1583 10.7662H70.1341C69.4325 10.7662 68.5615 10.9356 67.9567 11.2501C67.2551 11.5646 66.626 12.0727 66.118 12.7017C65.2954 13.7178 64.7873 15.1211 64.6664 16.6694C64.6664 16.7178 64.6664 16.7662 64.6664 16.8146C64.6664 16.863 64.6664 16.9114 64.6664 16.9598C64.6664 17.1775 64.6422 17.3953 64.6664 17.613C64.7389 21.1453 66.6502 23.9759 70.0373 23.9759C73.0131 23.9759 74.7551 21.7985 75.1664 18.8711L74.9486 18.7985C74.1986 20.3711 72.8196 21.3146 71.2712 21.1936C69.118 21.0243 67.497 18.8711 67.6422 16.2824ZM83.8035 21.0727C83.5615 21.6533 83.0293 21.992 82.3277 21.992C81.626 21.992 80.997 21.5082 80.5373 20.6372C80.0535 19.6936 79.7873 18.3872 79.7873 16.8388C79.7873 13.5969 80.8035 11.492 82.3518 11.492C83.0051 11.492 83.5131 11.8065 83.7793 12.3872V21.0727H83.8035ZM88.8599 23.3953C87.9406 23.1775 87.4567 22.8388 87.4567 21.6533V5.90332L81.8196 7.57268V7.76623H81.8438C82.618 7.69365 83.1502 7.81461 83.4647 8.10493C83.7067 8.32268 83.8277 8.66139 83.8277 9.14526V11.2985C83.2712 10.9356 82.618 10.7662 81.8196 10.7662C80.1986 10.7662 78.6986 11.4436 77.6341 12.7017C76.5212 14.0082 75.9164 15.7743 75.9164 17.8307C75.9164 21.5082 77.7309 23.9759 80.4164 23.9759C81.9889 23.9759 83.247 23.1049 83.8277 21.6533V23.613H88.8841V23.4195L88.8599 23.3953ZM93.6744 8.03235C93.6744 6.89526 92.8035 6.02429 91.6664 6.02429C90.5293 6.02429 89.6341 6.91945 89.6341 8.03235C89.6341 9.16945 90.5293 10.0404 91.6664 10.0404C92.8276 10.0646 93.6744 9.19364 93.6744 8.03235ZM95.0051 23.3953C94.0857 23.1775 93.6018 22.8388 93.6018 21.6533V10.7904L88.5454 12.242V12.4356H88.5696C89.6583 12.5324 89.9728 12.9195 89.9728 14.1775V23.5646H95.0293V23.3711L95.0051 23.3953ZM107.973 23.3953C107.053 23.1775 106.57 22.8388 106.57 21.6533V10.7904L101.755 12.1936V12.3872H101.779C102.674 12.484 102.941 12.8711 102.941 14.1533V21.0485C102.65 21.6291 102.094 21.992 101.392 22.0162C100.303 22.0162 99.6986 21.2662 99.6986 19.9356V10.8146L94.6422 12.2662V12.4598H94.6664C95.7551 12.5565 96.0696 12.9436 96.0696 14.2017V20.0082C96.0696 20.4194 96.0938 20.8065 96.1664 21.2178L96.2631 21.6049C96.6986 23.1291 97.8115 23.9517 99.5777 23.9517C101.078 23.9517 102.384 23.0324 102.941 21.5807V23.5888H107.997L107.973 23.3953ZM127.642 23.5888V23.3953H127.618C126.602 23.1533 126.215 22.7178 126.215 21.8227V14.4436C126.215 12.1453 124.932 10.7662 122.755 10.7662C121.182 10.7662 119.852 11.6856 119.344 13.0888C118.932 11.5888 117.771 10.7662 116.029 10.7662C114.505 10.7662 113.32 11.5646 112.812 12.9194V10.7904L107.755 12.1936V12.3872H107.779C108.868 12.484 109.182 12.8711 109.182 14.1291V23.5888H113.9V23.3953H113.876C113.078 23.2017 112.812 22.863 112.812 21.9678V13.5001C113.029 12.992 113.441 12.4114 114.287 12.4114C115.328 12.4114 115.884 13.1372 115.884 14.5646V23.5646H120.602V23.3711H120.578C119.779 23.1775 119.513 22.8388 119.513 21.9436V14.4195C119.513 14.1291 119.489 13.863 119.441 13.5727C119.658 13.0404 120.118 12.3872 120.989 12.3872C122.053 12.3872 122.586 13.0888 122.586 14.5404V23.5404H127.642V23.5888Z" fill="#C8C9D0"/>
</svg>
