<svg width="80" height="30" viewBox="0 0 80 30" fill="none" xmlns="http://www.w3.org/2000/svg">
<path d="M37.186 20.1952V12.933H37.3141L42.5458 20.1952H44.1921V9.53055H42.3629V16.7744H42.2348L37.0031 9.53055H35.3568V20.1952H37.186ZM49.3689 20.3598C51.7836 20.3598 53.2653 18.7866 53.2653 16.1525C53.2653 13.5366 51.7836 11.9452 49.3689 11.9452C46.9726 11.9452 45.4726 13.5366 45.4726 16.1525C45.4909 18.7866 46.9543 20.3598 49.3689 20.3598ZM49.3689 18.8232C48.0885 18.8232 47.3568 17.8537 47.3568 16.1525C47.3568 14.4696 48.0885 13.4818 49.3689 13.4818C50.6494 13.4818 51.3811 14.4696 51.3811 16.1525C51.3811 17.8537 50.6494 18.8232 49.3689 18.8232ZM54.9299 10.1342V12.1647H53.6494V13.6281H54.9299V18.0366C54.9299 19.6098 55.6616 20.2318 57.5275 20.2318C57.875 20.2318 58.2226 20.1952 58.497 20.1403V18.7135C58.2775 18.7318 58.1311 18.7501 57.875 18.7501C57.1068 18.7501 56.7592 18.4025 56.7592 17.5976V13.6281H58.497V12.1647H56.7592V10.1342H54.9299ZM59.5946 20.1952H61.4238V12.1098H59.5946V20.1952ZM60.5092 10.7744C61.1129 10.7744 61.6068 10.2805 61.6068 9.67689C61.6068 9.05494 61.1129 8.56104 60.5092 8.56104C59.9055 8.56104 59.4116 9.05494 59.4116 9.67689C59.4116 10.2805 59.9055 10.7744 60.5092 10.7744ZM66.436 20.3598C68.8507 20.3598 70.3324 18.7866 70.3324 16.1525C70.3324 13.5366 68.8507 11.9452 66.436 11.9452C64.0397 11.9452 62.5397 13.5366 62.5397 16.1525C62.5397 18.7866 64.0031 20.3598 66.436 20.3598ZM66.436 18.8232C65.1555 18.8232 64.4238 17.8537 64.4238 16.1525C64.4238 14.4696 65.1555 13.4818 66.436 13.4818C67.6982 13.4818 68.4482 14.4696 68.4482 16.1525C68.4299 17.8537 67.6982 18.8232 66.436 18.8232ZM71.4116 20.1952H73.2409V15.494C73.2409 14.3049 73.936 13.5549 75.0153 13.5549C76.1311 13.5549 76.6433 14.1769 76.6433 15.4025V20.1952H78.4726V14.9635C78.4726 13.0245 77.4848 11.9452 75.6921 11.9452C74.4848 11.9452 73.6799 12.494 73.2958 13.4086H73.1677V12.1098H71.3933C71.4116 12.1098 71.4116 20.1952 71.4116 20.1952Z" fill="#C8C9D0"/>
<path fill-rule="evenodd" clip-rule="evenodd" d="M7.33239 6.2377C8.19215 6.93282 8.50312 6.87794 10.1129 6.76818L25.2775 5.85355C25.6068 5.85355 25.3324 5.52428 25.2226 5.4877L22.6982 3.67672C22.2226 3.31087 21.5641 2.87184 20.3385 2.9816L5.66776 4.06087C5.13727 4.11574 5.02751 4.39014 5.24702 4.59136L7.33239 6.2377ZM8.24702 9.76818V25.7194C8.24702 26.5792 8.66776 26.8901 9.63727 26.8353L26.3019 25.8657C27.2714 25.8109 27.3812 25.2255 27.3812 24.5304V8.68892C27.3812 7.99379 27.1068 7.60965 26.5214 7.66452L9.10678 8.68892C8.46654 8.74379 8.24702 9.07306 8.24702 9.76818ZM24.6921 10.6279C24.8019 11.1036 24.6921 11.5975 24.2165 11.6523L23.4117 11.817V23.5975C22.7165 23.9633 22.0763 24.1828 21.5275 24.1828C20.6678 24.1828 20.4482 23.9084 19.808 23.1035L14.558 14.8535V22.8292L16.2226 23.195C16.2226 23.195 16.2226 24.1645 14.8873 24.1645L11.1921 24.384C11.0824 24.1645 11.1921 23.634 11.558 23.5243L12.5275 23.2499V12.7133L11.1921 12.6035C11.0824 12.1279 11.3568 11.4328 12.1068 11.3779L16.0763 11.1035L21.5458 19.445V12.0731L20.1556 11.9084C20.0458 11.3231 20.4848 10.884 21.0153 10.8292L24.6921 10.6279ZM4.44215 2.59745L19.7165 1.4816C21.5824 1.31696 22.0763 1.42672 23.247 2.28648L28.1129 5.70721C28.9178 6.29257 29.1921 6.45721 29.1921 7.09745V25.884C29.1921 27.0548 28.7714 27.7499 27.2714 27.8596L9.54581 28.9389C8.41166 28.9938 7.88117 28.8292 7.29581 28.0792L3.69215 23.4145C3.0519 22.5548 2.77751 21.9145 2.77751 21.1645V4.4633C2.77751 3.49379 3.21654 2.70721 4.44215 2.59745Z" fill="#C8C9D0"/>
</svg>
