<svg width="24" height="24" viewBox="0 0 24 24" fill="none" xmlns="http://www.w3.org/2000/svg">
<line x1="14" y1="6" x2="14" y2="8" stroke="black" stroke-width="2"/>
<line x1="10" y1="6" x2="10" y2="8" stroke="black" stroke-width="2"/>
<line x1="6" y1="11" x2="18" y2="11" stroke="black" stroke-width="2"/>
<mask id="path-4-inside-1_2777_1522" fill="white">
<path fill-rule="evenodd" clip-rule="evenodd" d="M7 2C5.89543 2 5 2.89543 5 4V10C3.89543 10 3 10.8954 3 12V20C3 21.1046 3.89543 22 5 22H19C20.1046 22 21 21.1046 21 20V12C21 10.8954 20.1046 10 19 10V4C19 2.89543 18.1046 2 17 2H7Z"/>
</mask>
<path d="M5 10V12H7V10H5ZM19 10H17V12H19V10ZM7 4V4V0C4.79086 0 3 1.79086 3 4H7ZM7 10V4H3V10H7ZM5 12V8C2.79086 8 1 9.79086 1 12H5ZM5 20V12H1V20H5ZM5 20H5H1C1 22.2091 2.79086 24 5 24V20ZM19 20H5V24H19V20ZM19 20V24C21.2091 24 23 22.2091 23 20H19ZM19 12V20H23V12H19ZM19 12H23C23 9.79086 21.2091 8 19 8V12ZM17 4V10H21V4H17ZM17 4H21C21 1.79086 19.2091 0 17 0V4ZM7 4H17V0H7V4Z" fill="black" mask="url(#path-4-inside-1_2777_1522)"/>
</svg>
