<svg width="24" height="24" viewBox="0 0 24 24" fill="none" xmlns="http://www.w3.org/2000/svg">
<mask id="path-1-inside-1_2777_2008" fill="white">
<path fill-rule="evenodd" clip-rule="evenodd" d="M11 12H13V20L12.004 22L11 20V12Z"/>
</mask>
<path d="M11 12V10H9V12H11ZM13 12H15V10H13V12ZM13 20L14.7903 20.8915L15 20.4704V20H13ZM12.004 22L10.2166 22.8973L12.0112 26.4721L13.7943 22.8915L12.004 22ZM11 20H9V20.4738L9.21258 20.8973L11 20ZM11 14H13V10H11V14ZM11 12V20H15V12H11ZM11.2097 19.1085L10.2137 21.1085L13.7943 22.8915L14.7903 20.8915L11.2097 19.1085ZM13.7914 21.1027L12.7874 19.1027L9.21258 20.8973L10.2166 22.8973L13.7914 21.1027ZM13 20V12H9V20H13Z" fill="black" mask="url(#path-1-inside-1_2777_2008)"/>
<path d="M7.92021 3.07754C7.91396 3.06817 7.9119 3.06242 7.91121 3.06024C7.91045 3.05784 7.91015 3.05587 7.91008 3.0537C7.90994 3.04869 7.91121 3.03855 7.91774 3.02634C7.92427 3.01414 7.93201 3.00745 7.93626 3.0048C7.9381 3.00365 7.9399 3.00281 7.94232 3.00211C7.94452 3.00147 7.95045 3 7.96171 3H16.0383C16.0496 3 16.0555 3.00147 16.0577 3.00211C16.0601 3.00281 16.0619 3.00365 16.0637 3.0048C16.068 3.00745 16.0757 3.01414 16.0823 3.02634C16.0888 3.03855 16.0901 3.04869 16.0899 3.0537C16.0899 3.05587 16.0895 3.05784 16.0888 3.06024C16.0881 3.06242 16.086 3.06817 16.0798 3.07754C14.0926 6.05834 14.0926 9.94166 16.0798 12.9225C16.086 12.9318 16.0881 12.9376 16.0888 12.9398C16.0895 12.9422 16.0899 12.9441 16.0899 12.9463C16.0901 12.9513 16.0888 12.9615 16.0823 12.9737C16.0757 12.9859 16.068 12.9925 16.0637 12.9952C16.0619 12.9964 16.0601 12.9972 16.0577 12.9979C16.0555 12.9985 16.0496 13 16.0383 13H7.96171C7.95045 13 7.94452 12.9985 7.94232 12.9979C7.9399 12.9972 7.9381 12.9964 7.93626 12.9952C7.93201 12.9925 7.92427 12.9859 7.91774 12.9737C7.91121 12.9615 7.90994 12.9513 7.91008 12.9463C7.91015 12.9441 7.91045 12.9422 7.91121 12.9398C7.9119 12.9376 7.91396 12.9318 7.92021 12.9225C9.90741 9.94166 9.90741 6.05834 7.92021 3.07754Z" stroke="black" stroke-width="2"/>
</svg>
