<svg width="24" height="24" viewBox="0 0 24 24" fill="none" xmlns="http://www.w3.org/2000/svg">
<path fill-rule="evenodd" clip-rule="evenodd" d="M6 10H8V8V4L16 4V8V10H18H20V18H18V20H20C21.1046 20 22 19.1046 22 18V10C22 8.89543 21.1046 8 20 8H18V6V4C18 2.89543 17.1046 2 16 2H8C6.89543 2 6 2.89543 6 4V6V8H4C2.89543 8 2 8.89543 2 10V18C2 19.1046 2.89543 20 4 20H6V18H4V10H6Z" fill="black"/>
<path d="M7 18C7 17.4477 7.44772 17 8 17H16C16.5523 17 17 17.4477 17 18V20C17 20.5523 16.5523 21 16 21H8C7.44772 21 7 20.5523 7 20V18Z" stroke="black" stroke-width="2"/>
<circle cx="17" cy="13" r="1" fill="black"/>
<line x1="6" y1="9" x2="18" y2="9" stroke="black" stroke-width="2"/>
</svg>
