<svg width="24" height="24" viewBox="0 0 24 24" fill="none" xmlns="http://www.w3.org/2000/svg">
<g clip-path="url(#clip0_2777_1567)">
<path d="M3.37453 17.1644C3.27294 16.5549 3.74298 16 4.36092 16H19.6391C20.257 16 20.7271 16.5549 20.6255 17.1644L20.2921 19.1644C20.2118 19.6466 19.7946 20 19.3057 20H4.69425C4.20542 20 3.78822 19.6466 3.70786 19.1644L3.37453 17.1644Z" stroke="black" stroke-width="2"/>
<path d="M19.7783 7.2218C15.4825 2.92603 8.51769 2.92603 4.22192 7.2218" stroke="black" stroke-width="2"/>
<path d="M16.9498 10.0503C14.2161 7.31662 9.78396 7.31662 7.05029 10.0503" stroke="black" stroke-width="2"/>
<path d="M14.1213 12.8787C12.9497 11.7071 11.0502 11.7071 9.87866 12.8787" stroke="black" stroke-width="2"/>
</g>
<defs>
<clipPath id="clip0_2777_1567">
<rect width="24" height="24" fill="white"/>
</clipPath>
</defs>
</svg>
