<svg width="30" height="30" viewBox="0 0 30 30" fill="none" xmlns="http://www.w3.org/2000/svg">
<path d="M12.792 16C12.9258 15.6938 13 15.3556 13 15C13 14.6444 12.9258 14.3062 12.792 14M12.792 16C12.4062 16.883 11.5252 17.5 10.5 17.5C9.11929 17.5 8 16.3807 8 15C8 13.6193 9.11929 12.5 10.5 12.5C11.5252 12.5 12.4062 13.117 12.792 14M12.792 16L17.1702 18.5916M17.1702 18.5916C17.0603 18.8731 17 19.1795 17 19.5C17 20.8807 18.1193 22 19.5 22C20.8807 22 22 20.8807 22 19.5C22 18.1193 20.8807 17 19.5 17C18.4398 17 17.5337 17.66 17.1702 18.5916ZM12.792 14L17.1702 11.4084M17.1702 11.4084C17.5337 12.34 18.4398 13 19.5 13C20.8807 13 22 11.8807 22 10.5C22 9.11929 20.8807 8 19.5 8C18.1193 8 17 9.11929 17 10.5C17 10.8205 17.0603 11.1269 17.1702 11.4084Z" stroke="#2F3037" stroke-width="1.5"/>
</svg>
