<svg width="96" height="24" viewBox="0 0 96 24" fill="none" xmlns="http://www.w3.org/2000/svg">
<g clip-path="url(#clip0_7107_10203)">
<path fill-rule="evenodd" clip-rule="evenodd" d="M31.1148 18.8973L32.2985 16.1467C33.577 17.1028 35.2804 17.5998 36.9611 17.5998C38.2017 17.5998 38.987 17.1218 38.987 16.3971C38.9681 14.3712 31.5549 15.9571 31.498 10.8771C31.479 8.29723 33.7705 6.30925 37.018 6.30925C38.9491 6.30925 40.8764 6.78727 42.2536 7.87611L41.1458 10.6836C39.8862 9.87928 38.3193 9.3064 36.8283 9.3064C35.8154 9.3064 35.1476 9.78443 35.1476 10.3952C35.1666 12.3832 42.6367 11.2944 42.7126 16.1467C42.7126 18.7835 40.478 20.6387 37.2684 20.6387C34.9162 20.6349 32.7575 20.081 31.1148 18.8973ZM76.5691 15.1528C75.9772 16.1847 74.8694 16.8903 73.5871 16.8903C71.694 16.8903 70.1688 15.3614 70.1688 13.4721C70.1688 11.5827 71.6978 10.0538 73.5871 10.0538C74.8656 10.0538 75.9772 10.7595 76.5691 11.7914L79.8356 9.97792C78.614 7.80024 76.2618 6.30925 73.5871 6.30925C69.6301 6.30925 66.4205 9.51886 66.4205 13.4759C66.4205 17.4329 69.6301 20.6425 73.5871 20.6425C76.2808 20.6425 78.614 19.1705 79.8356 16.9738L76.5691 15.1528ZM44.3554 0.364258H48.4452V20.3693H44.3554V0.364258ZM81.4404 0.364258V20.3693H85.5302V14.3674L90.3825 20.3693H95.6181L89.4455 13.2406L95.159 6.58999H90.1511L85.5264 12.1101V0.364258H81.4404Z" fill="#C8C9D0"/>
<path d="M60.5969 15.1907C60.0051 16.1657 58.7834 16.8903 57.4063 16.8903C55.5131 16.8903 53.988 15.3614 53.988 13.472C53.988 11.5827 55.5169 10.0538 57.4063 10.0538C58.7834 10.0538 60.0051 10.8163 60.5969 11.8103V15.1907ZM60.5969 6.59375V8.21753C59.9292 7.09075 58.2675 6.30542 56.5261 6.30542C52.9333 6.30542 50.1069 9.47709 50.1069 13.4531C50.1069 17.429 52.9333 20.6386 56.5261 20.6386C58.2637 20.6386 59.9254 19.8571 60.5969 18.7265V20.3503H64.6867V6.59375H60.5969Z" fill="#C8C9D0"/>
<path fill-rule="evenodd" clip-rule="evenodd" d="M5.83624 15.1716C5.83624 16.5677 4.70946 17.6945 3.31332 17.6945C1.91717 17.6945 0.790394 16.564 0.790394 15.1716C0.790394 13.7793 1.91717 12.6487 3.31332 12.6487H5.83624V15.1716ZM7.0958 15.1716C7.0958 13.7755 8.22258 12.6487 9.61872 12.6487C11.0149 12.6487 12.1416 13.7755 12.1416 15.1716V21.477C12.1416 22.8732 11.0149 23.9999 9.61872 23.9999C8.22258 23.9999 7.0958 22.8732 7.0958 21.477V15.1716Z" fill="#C8C9D0"/>
<path fill-rule="evenodd" clip-rule="evenodd" d="M9.61872 5.04584C8.22258 5.04584 7.0958 3.91906 7.0958 2.52292C7.0958 1.12678 8.22258 0 9.61872 0C11.0149 0 12.1416 1.12678 12.1416 2.52292V5.04584H9.61872ZM9.61872 6.32438C11.0149 6.32438 12.1416 7.45115 12.1416 8.8473C12.1416 10.2434 11.0149 11.3702 9.61872 11.3702H3.29434C1.8982 11.3702 0.771423 10.2396 0.771423 8.8473C0.771423 7.45495 1.8982 6.32438 3.29434 6.32438H9.61872Z" fill="#C8C9D0"/>
<path fill-rule="evenodd" clip-rule="evenodd" d="M19.7256 8.8473C19.7256 7.45115 20.8524 6.32438 22.2485 6.32438C23.6446 6.32438 24.7714 7.45115 24.7714 8.8473C24.7714 10.2434 23.6446 11.3702 22.2485 11.3702H19.7256V8.8473ZM18.466 8.8473C18.466 10.2434 17.3392 11.3702 15.9431 11.3702C14.547 11.3702 13.4202 10.2434 13.4202 8.8473V2.52292C13.4202 1.12678 14.547 0 15.9431 0C17.3392 0 18.466 1.12678 18.466 2.52292V8.8473Z" fill="#C8C9D0"/>
<path fill-rule="evenodd" clip-rule="evenodd" d="M15.9431 18.9541C17.3392 18.9541 18.466 20.0809 18.466 21.477C18.466 22.8732 17.3392 23.9999 15.9431 23.9999C14.547 23.9999 13.4202 22.8732 13.4202 21.477V18.9541H15.9431ZM15.9431 17.6945C14.547 17.6945 13.4202 16.5677 13.4202 15.1716C13.4202 13.7755 14.547 12.6487 15.9431 12.6487H22.2675C23.6636 12.6487 24.7904 13.7755 24.7904 15.1716C24.7904 16.5677 23.6636 17.6945 22.2675 17.6945H15.9431Z" fill="#C8C9D0"/>
</g>
<defs>
<clipPath id="clip0_7107_10203">
<rect width="94.8467" height="24" fill="white" transform="translate(0.771423)"/>
</clipPath>
</defs>
</svg>
