<svg width="49" height="22" viewBox="0 0 49 22" fill="none" xmlns="http://www.w3.org/2000/svg">
<path fill-rule="evenodd" clip-rule="evenodd" d="M48.7308 11.2898C48.7308 7.8381 47.0615 5.1145 43.8712 5.1145C40.6673 5.1145 38.7289 7.8381 38.7289 11.2628C38.7289 15.3212 41.0173 17.3707 44.3019 17.3707C45.9039 17.3707 47.1154 17.0066 48.0308 16.4943V13.7976C47.1154 14.2561 46.0654 14.5392 44.7327 14.5392C43.4269 14.5392 42.2692 14.0808 42.1212 12.4898H48.7038C48.7038 12.3145 48.7308 11.6134 48.7308 11.2898ZM42.0808 10.0089C42.0808 8.48529 43.0096 7.85158 43.8577 7.85158C44.6788 7.85158 45.5538 8.48529 45.5538 10.0089H42.0808Z" fill="#C8C9D0"/>
<path fill-rule="evenodd" clip-rule="evenodd" d="M33.5327 5.1145C32.2135 5.1145 31.3654 5.73473 30.8942 6.16619L30.7192 5.33023H27.7577V21.0516L31.1231 20.337L31.1365 16.5212C31.6211 16.8718 32.3346 17.3707 33.5192 17.3707C35.9288 17.3707 38.1231 15.4291 38.1231 11.155C38.1096 7.24484 35.8885 5.1145 33.5327 5.1145ZM32.725 14.4044C31.9308 14.4044 31.4596 14.1212 31.1365 13.7707L31.1231 8.76843C31.4731 8.37742 31.9577 8.10776 32.725 8.10776C33.95 8.10776 34.7981 9.48304 34.7981 11.2493C34.7981 13.0561 33.9635 14.4044 32.725 14.4044Z" fill="#C8C9D0"/>
<path fill-rule="evenodd" clip-rule="evenodd" d="M23.1269 4.31905L26.5058 3.59096V0.853882L23.1269 1.56849V4.31905Z" fill="#C8C9D0"/>
<path d="M26.5058 5.34375H23.1269V17.1415H26.5058V5.34375Z" fill="#C8C9D0"/>
<path fill-rule="evenodd" clip-rule="evenodd" d="M19.5058 6.34147L19.2904 5.34372H16.3827V17.1415H19.7481V9.14596C20.5423 8.10776 21.8885 8.29652 22.3058 8.44484V5.34372C21.875 5.18192 20.3 4.88529 19.5058 6.34147Z" fill="#C8C9D0"/>
<path fill-rule="evenodd" clip-rule="evenodd" d="M12.775 2.41785L9.49039 3.11897L9.47693 13.919C9.47693 15.9145 10.9712 17.3841 12.9635 17.3841C14.0673 17.3841 14.875 17.1819 15.3192 16.9392V14.2021C14.8885 14.3774 12.7615 14.9976 12.7615 13.0021V8.2156H15.3192V5.34369H12.7615L12.775 2.41785Z" fill="#C8C9D0"/>
<path fill-rule="evenodd" clip-rule="evenodd" d="M3.675 8.76843C3.675 8.24259 4.10577 8.04035 4.81923 8.04035C5.8423 8.04035 7.13461 8.35046 8.15769 8.90327V5.73473C7.04038 5.28978 5.93653 5.1145 4.81923 5.1145C2.08653 5.1145 0.269226 6.54372 0.269226 8.93023C0.269226 12.6516 5.38461 12.0583 5.38461 13.6628C5.38461 14.283 4.84615 14.4853 4.0923 14.4853C2.975 14.4853 1.54807 14.0269 0.417303 13.4066V16.6156C1.66923 17.155 2.93461 17.3842 4.0923 17.3842C6.8923 17.3842 8.8173 15.9954 8.8173 13.5819C8.80384 9.56394 3.675 10.2785 3.675 8.76843Z" fill="#C8C9D0"/>
</svg>
