<svg width="99" height="24" viewBox="0 0 99 24" fill="none" xmlns="http://www.w3.org/2000/svg">
<rect width="99" height="24" rx="2" fill="#FAD338"/>
<path d="M14.728 16.144C13.896 16.144 13.168 15.96 12.544 15.592C11.92 15.224 11.432 14.716 11.08 14.068C10.728 13.412 10.552 12.656 10.552 11.8C10.552 10.944 10.728 10.192 11.08 9.544C11.432 8.888 11.92 8.376 12.544 8.008C13.168 7.64 13.896 7.456 14.728 7.456C15.56 7.456 16.288 7.64 16.912 8.008C17.536 8.376 18.02 8.888 18.364 9.544C18.716 10.192 18.892 10.944 18.892 11.8C18.892 12.656 18.716 13.412 18.364 14.068C18.02 14.716 17.536 15.224 16.912 15.592C16.288 15.96 15.56 16.144 14.728 16.144ZM14.728 15.004C15.304 15.004 15.804 14.876 16.228 14.62C16.66 14.364 16.996 13.996 17.236 13.516C17.476 13.036 17.596 12.464 17.596 11.8C17.596 11.136 17.476 10.564 17.236 10.084C16.996 9.604 16.66 9.236 16.228 8.98C15.804 8.724 15.304 8.596 14.728 8.596C14.152 8.596 13.648 8.724 13.216 8.98C12.784 9.236 12.448 9.604 12.208 10.084C11.976 10.564 11.86 11.136 11.86 11.8C11.86 12.464 11.976 13.036 12.208 13.516C12.448 13.996 12.784 14.364 13.216 14.62C13.648 14.876 14.152 15.004 14.728 15.004ZM20.261 16V10.048H21.389L21.485 11.092C21.669 10.724 21.937 10.436 22.289 10.228C22.649 10.012 23.061 9.904 23.525 9.904C24.245 9.904 24.809 10.128 25.217 10.576C25.633 11.024 25.841 11.692 25.841 12.58V16H24.581V12.712C24.581 11.56 24.109 10.984 23.165 10.984C22.693 10.984 22.301 11.152 21.989 11.488C21.685 11.824 21.533 12.304 21.533 12.928V16H20.261ZM30.1232 16.144C29.5392 16.144 29.0192 16.016 28.5632 15.76C28.1152 15.496 27.7632 15.132 27.5072 14.668C27.2512 14.204 27.1232 13.664 27.1232 13.048C27.1232 12.424 27.2472 11.876 27.4952 11.404C27.7512 10.932 28.1032 10.564 28.5512 10.3C29.0072 10.036 29.5352 9.904 30.1352 9.904C30.7192 9.904 31.2272 10.036 31.6592 10.3C32.0912 10.556 32.4272 10.9 32.6672 11.332C32.9072 11.764 33.0272 12.24 33.0272 12.76C33.0272 12.84 33.0232 12.928 33.0152 13.024C33.0152 13.112 33.0112 13.212 33.0032 13.324H28.3712C28.4112 13.9 28.5992 14.34 28.9352 14.644C29.2792 14.94 29.6752 15.088 30.1232 15.088C30.4832 15.088 30.7832 15.008 31.0232 14.848C31.2712 14.68 31.4552 14.456 31.5752 14.176H32.8472C32.6872 14.736 32.3672 15.204 31.8872 15.58C31.4152 15.956 30.8272 16.144 30.1232 16.144ZM30.1232 10.948C29.6992 10.948 29.3232 11.076 28.9952 11.332C28.6672 11.58 28.4672 11.956 28.3952 12.46H31.7552C31.7312 11.996 31.5672 11.628 31.2632 11.356C30.9592 11.084 30.5792 10.948 30.1232 10.948ZM37.167 16.144C36.551 16.144 36.011 16.036 35.547 15.82C35.083 15.604 34.719 15.296 34.455 14.896C34.199 14.496 34.067 14.02 34.059 13.468H35.403C35.411 13.916 35.567 14.296 35.871 14.608C36.175 14.92 36.603 15.076 37.155 15.076C37.643 15.076 38.023 14.96 38.295 14.728C38.575 14.488 38.715 14.184 38.715 13.816C38.715 13.52 38.647 13.28 38.511 13.096C38.383 12.912 38.203 12.76 37.971 12.64C37.747 12.52 37.487 12.412 37.191 12.316C36.895 12.22 36.583 12.116 36.255 12.004C35.607 11.788 35.119 11.508 34.791 11.164C34.471 10.82 34.311 10.368 34.311 9.808C34.303 9.336 34.411 8.924 34.635 8.572C34.867 8.22 35.187 7.948 35.595 7.756C36.011 7.556 36.495 7.456 37.047 7.456C37.591 7.456 38.067 7.556 38.475 7.756C38.891 7.956 39.215 8.236 39.447 8.596C39.679 8.948 39.799 9.36 39.807 9.832H38.463C38.463 9.616 38.407 9.412 38.295 9.22C38.183 9.02 38.019 8.856 37.803 8.728C37.587 8.6 37.323 8.536 37.011 8.536C36.611 8.528 36.279 8.628 36.015 8.836C35.759 9.044 35.631 9.332 35.631 9.7C35.631 10.028 35.727 10.28 35.919 10.456C36.111 10.632 36.375 10.78 36.711 10.9C37.047 11.012 37.431 11.144 37.863 11.296C38.279 11.432 38.651 11.596 38.979 11.788C39.307 11.98 39.567 12.232 39.759 12.544C39.959 12.856 40.059 13.252 40.059 13.732C40.059 14.156 39.951 14.552 39.735 14.92C39.519 15.28 39.195 15.576 38.763 15.808C38.331 16.032 37.799 16.144 37.167 16.144ZM43.8977 16C43.3137 16 42.8497 15.86 42.5057 15.58C42.1617 15.292 41.9897 14.784 41.9897 14.056V11.116H40.9697V10.048H41.9897L42.1457 8.536H43.2617V10.048H44.9417V11.116H43.2617V14.056C43.2617 14.384 43.3297 14.612 43.4657 14.74C43.6097 14.86 43.8537 14.92 44.1977 14.92H44.8817V16H43.8977ZM46.2532 16V10.048H47.3932L47.5012 11.176C47.7092 10.784 47.9972 10.476 48.3652 10.252C48.7412 10.02 49.1932 9.904 49.7212 9.904V11.236H49.3732C49.0212 11.236 48.7052 11.296 48.4252 11.416C48.1532 11.528 47.9332 11.724 47.7652 12.004C47.6052 12.276 47.5252 12.656 47.5252 13.144V16H46.2532ZM53.4318 16.144C52.8638 16.144 52.3518 16.016 51.8958 15.76C51.4478 15.496 51.0918 15.132 50.8278 14.668C50.5638 14.196 50.4318 13.648 50.4318 13.024C50.4318 12.4 50.5638 11.856 50.8278 11.392C51.0998 10.92 51.4638 10.556 51.9198 10.3C52.3758 10.036 52.8838 9.904 53.4438 9.904C54.0118 9.904 54.5198 10.036 54.9678 10.3C55.4238 10.556 55.7838 10.92 56.0478 11.392C56.3198 11.856 56.4557 12.4 56.4557 13.024C56.4557 13.648 56.3198 14.196 56.0478 14.668C55.7838 15.132 55.4238 15.496 54.9678 15.76C54.5118 16.016 53.9998 16.144 53.4318 16.144ZM53.4318 15.052C53.7358 15.052 54.0158 14.976 54.2718 14.824C54.5358 14.672 54.7478 14.448 54.9078 14.152C55.0678 13.848 55.1478 13.472 55.1478 13.024C55.1478 12.576 55.0678 12.204 54.9078 11.908C54.7558 11.604 54.5478 11.376 54.2838 11.224C54.0278 11.072 53.7478 10.996 53.4438 10.996C53.1398 10.996 52.8558 11.072 52.5918 11.224C52.3358 11.376 52.1278 11.604 51.9678 11.908C51.8078 12.204 51.7278 12.576 51.7278 13.024C51.7278 13.472 51.8078 13.848 51.9678 14.152C52.1278 14.448 52.3358 14.672 52.5918 14.824C52.8478 14.976 53.1278 15.052 53.4318 15.052ZM57.8313 16V7.36H59.1033V12.508L61.3833 10.048H62.9073L60.3753 12.748L63.2793 16H61.6713L59.1033 12.952V16H57.8313ZM66.5919 16.144C66.0079 16.144 65.4879 16.016 65.0319 15.76C64.5839 15.496 64.2319 15.132 63.9759 14.668C63.7199 14.204 63.5919 13.664 63.5919 13.048C63.5919 12.424 63.7159 11.876 63.9639 11.404C64.2199 10.932 64.5719 10.564 65.0199 10.3C65.4759 10.036 66.0039 9.904 66.6039 9.904C67.1879 9.904 67.6959 10.036 68.1279 10.3C68.5599 10.556 68.8959 10.9 69.1359 11.332C69.3759 11.764 69.4959 12.24 69.4959 12.76C69.4959 12.84 69.4919 12.928 69.4839 13.024C69.4839 13.112 69.4799 13.212 69.4719 13.324H64.8399C64.8799 13.9 65.0679 14.34 65.4039 14.644C65.7479 14.94 66.1439 15.088 66.5919 15.088C66.9519 15.088 67.2519 15.008 67.4919 14.848C67.7399 14.68 67.9239 14.456 68.0439 14.176H69.3159C69.1559 14.736 68.8359 15.204 68.3559 15.58C67.8839 15.956 67.2959 16.144 66.5919 16.144ZM66.5919 10.948C66.1679 10.948 65.7919 11.076 65.4639 11.332C65.1359 11.58 64.9359 11.956 64.8639 12.46H68.2239C68.1999 11.996 68.0359 11.628 67.7319 11.356C67.4279 11.084 67.0479 10.948 66.5919 10.948Z" fill="#2F3037"/>
<path fill-rule="evenodd" clip-rule="evenodd" d="M77 12.0344C77 8.70231 79.688 6 83.0005 6C86.3138 6 89 8.70231 89 12.0344C89 15.3662 86.3138 18 83.0005 18C79.688 18 77 15.3662 77 12.0344ZM83.6 9.6C83.6 9.9315 83.3312 10.2 82.9997 10.2C82.6688 10.2 82.4 9.9315 82.4 9.6C82.4 9.2685 82.6688 9 82.9997 9C83.3312 9 83.6 9.2685 83.6 9.6ZM82.4 15V11.4H83.6V15H82.4Z" fill="#2F3037"/>
</svg>
