<svg width="24" height="24" viewBox="0 0 24 24" fill="none" xmlns="http://www.w3.org/2000/svg">
<circle cx="9" cy="17" r="2" stroke="black" stroke-width="2"/>
<rect x="7" y="9" width="6" height="2" stroke="black" stroke-width="2"/>
<path fill-rule="evenodd" clip-rule="evenodd" d="M4 6H16V16H9H4V6ZM9 18C8.44771 18 8 17.5523 8 17C8 16.4477 8.44771 16 9 16C9.55228 16 10 16.4477 10 17C10 17.5523 9.55228 18 9 18ZM9 18H16H18V16V6C18 4.89543 17.1046 4 16 4H4C2.89543 4 2 4.89543 2 6V16C2 17.1046 2.89543 18 4 18H9Z" fill="black"/>
<path d="M15 17H21V20" stroke="black" stroke-width="2"/>
</svg>
