<svg width="50" height="50" viewBox="0 0 50 50" fill="none" xmlns="http://www.w3.org/2000/svg">
<circle cx="25" cy="25" r="24.5" fill="white" stroke="#E3E4E7"/>
<path d="M37 17.3669C36.1153 17.7697 35.1669 18.0402 34.17 18.1629C35.1875 17.5376 35.9694 16.5479 36.336 15.3702C35.3858 15.9475 34.329 16.3676 33.2086 16.5939C32.3107 15.6119 31.0313 15 29.6154 15C26.8957 15 24.6904 17.2595 24.6904 20.0484C24.6904 20.4436 24.7353 20.8291 24.8195 21.1993C20.7269 20.9883 17.1001 18.9781 14.6703 15.9226C14.2457 16.6707 14.0044 17.5376 14.0044 18.4622C14.0044 20.2134 14.8723 21.7594 16.1948 22.6666C15.3867 22.6398 14.6273 22.4115 13.9633 22.0337C13.9633 22.0548 13.9633 22.0759 13.9633 22.097C13.9633 24.5445 15.6617 26.5834 17.9119 27.0495C17.5004 27.1646 17.0645 27.226 16.6156 27.226C16.2976 27.226 15.989 27.1953 15.6879 27.1339C16.3163 29.1383 18.1344 30.6018 20.2874 30.6421C18.6039 31.9963 16.4809 32.8019 14.1728 32.8019C13.7744 32.8019 13.3834 32.7788 13 32.7309C15.1772 34.1656 17.766 35 20.5473 35C29.6042 35 34.5572 27.3065 34.5572 20.6354C34.5572 20.4167 34.5516 20.1961 34.5441 19.9813C35.5055 19.2697 36.3397 18.3797 37 17.3669Z" fill="#4E9FEA"/>
</svg>
