<svg width="250" height="172" viewBox="0 0 250 172" fill="none" xmlns="http://www.w3.org/2000/svg">
<rect width="250" height="172" fill="#F7F7F8"/>
<rect x="87" y="119" width="76" height="5" rx="2.5" fill="#E3E4E7"/>
<path d="M90.1973 81.6358C90.1973 80.6312 90.6344 79.6763 91.3947 79.0197L122.742 51.9516C124.039 50.8312 125.962 50.8312 127.26 51.9516L158.607 79.0197C159.367 79.6763 159.804 80.6312 159.804 81.6358V120.124H90.1973V81.6358Z" fill="white" stroke="#5E5F6E" stroke-width="1.5"/>
<path d="M100 65.1392C100 65.0623 100.062 65 100.139 65H149.861C149.938 65 150 65.0623 150 65.1392V120.861C150 120.938 149.938 121 149.861 121H100.139C100.062 121 100 120.938 100 120.861V65.1392Z" fill="white" stroke="#5E5F6E" stroke-width="1.5"/>
<path d="M118.01 75.0104L112 69" stroke="#7238FA" stroke-width="1.5"/>
<path d="M131.99 88.9896L138 95" stroke="#7238FA" stroke-width="1.5"/>
<path d="M121 73L121 68" stroke="#7238FA" stroke-width="1.5"/>
<path d="M129 91L129 96" stroke="#7238FA" stroke-width="1.5"/>
<path d="M111 78L116 78" stroke="#7238FA" stroke-width="1.5"/>
<path d="M139 86L134 86" stroke="#7238FA" stroke-width="1.5"/>
<path d="M122.75 84.251L127.25 79.751" stroke="#7238FA" stroke-width="1.5" stroke-linejoin="round"/>
<path d="M129.5 84.2502L133.016 80.7345C133.559 80.1908 133.559 79.3094 133.016 78.7657L128.234 73.9844C127.691 73.4407 126.809 73.4407 126.266 73.9844L122.75 77.5001" stroke="#7238FA" stroke-width="1.5"/>
<path d="M120.5 79.751L116.984 83.2667C116.441 83.8103 116.441 84.6918 116.984 85.2354L121.766 90.0168C122.309 90.5604 123.191 90.5604 123.734 90.0168L127.25 86.5011" stroke="#7238FA" stroke-width="1.5"/>
<path d="M125.001 110.093L90.1973 81.5564V120.124H159.804V81.5564L125.001 110.093Z" fill="white" stroke="#5E5F6E" stroke-width="1.5" stroke-linejoin="bevel"/>
<path d="M90.1973 121L123.435 98.3986C124.38 97.7561 125.622 97.7561 126.567 98.3986L159.804 121H90.1973Z" fill="white" stroke="#5E5F6E" stroke-width="1.5" stroke-linecap="round" stroke-linejoin="round"/>
</svg>
