<svg width="50" height="50" viewBox="0 0 50 50" fill="none" xmlns="http://www.w3.org/2000/svg">
<circle cx="25" cy="25" r="24.5" fill="white" stroke="#E3E4E7"/>
<path d="M28.6636 30.4546L28.6634 30.4547C28.1565 30.5289 27.4989 30.5632 26.7732 30.3353L26.773 30.3353C26.3599 30.2051 25.8249 30.0311 25.1402 29.739M28.6636 30.4546L23.0497 22.2988L23.2735 22.1873C23.2734 22.1871 23.2733 22.1869 23.2732 22.1867C23.2298 22.0991 22.9781 21.4939 22.7417 20.9254C22.6155 20.6221 22.4937 20.3292 22.4102 20.1309C22.2843 19.8319 22.1356 19.649 21.9467 19.5611C21.8013 19.4933 21.6339 19.4977 21.5753 19.4992C21.5664 19.4995 21.5599 19.4996 21.5565 19.4995L21.5557 19.4994C21.3851 19.4915 21.1928 19.4891 21.0028 19.4891C20.7579 19.4891 20.381 19.5791 20.0663 19.9182C20.05 19.9357 20.0317 19.955 20.0116 19.9761C19.71 20.2935 19.0109 21.0292 19.0109 22.4145C19.0109 23.1576 19.2834 23.8734 19.5623 24.4156C19.8396 24.9548 20.1345 25.3436 20.2121 25.4459L20.2148 25.4495L20.2151 25.4498C20.2233 25.4606 20.2387 25.4825 20.2611 25.5143C20.5892 25.98 22.4197 28.5788 25.1402 29.739M28.6636 30.4546C28.9812 30.4079 29.4323 30.2211 29.8292 29.97C30.2196 29.723 30.6215 29.3738 30.7687 28.9666M28.6636 30.4546L30.7687 28.9666M25.1402 29.739L25.2382 29.509L25.1402 29.739ZM30.7687 28.9666C30.8938 28.6204 30.9572 28.2968 30.9796 28.04M30.7687 28.9666L30.9796 28.04M26.5099 27.3914C26.6778 27.2011 27.207 26.5863 27.384 26.3237C27.5054 26.1437 27.6574 26.0281 27.8541 26.0057C28.0234 25.9865 28.1887 26.0444 28.3111 26.0884L26.5099 27.3914ZM26.5099 27.3914L26.6974 27.5568L26.5099 27.3914ZM29.2907 26.534C29.7064 26.732 30.1252 26.9361 30.2676 27.0065C30.3145 27.0298 30.3628 27.0529 30.4099 27.0754C30.4896 27.1135 30.5658 27.1499 30.6258 27.1824C30.7214 27.2343 30.8388 27.307 30.9114 27.4259L29.2907 26.534ZM29.2907 26.534C28.8834 26.3398 28.4567 26.1406 28.3115 26.0886L29.2907 26.534ZM30.9796 28.04C30.9908 27.9119 30.9922 27.7966 30.9845 27.7008M30.9796 28.04L30.9845 27.7008M30.9845 27.7008C30.978 27.6192 30.9626 27.5099 30.9116 27.4263L30.9845 27.7008ZM15.6579 30.467L15.6859 30.3671L15.6349 30.2767C14.7283 28.6709 14.2501 26.8509 14.2501 25C14.2501 19.0728 19.0728 14.25 25.0001 14.25C30.9273 14.25 35.7501 19.0728 35.7501 25C35.7501 30.9272 30.9273 35.75 25.0001 35.75C23.2286 35.75 21.4772 35.3097 19.9225 34.475L19.8376 34.4295L19.7441 34.4526L14.5347 35.7431C14.5344 35.7431 14.5341 35.7432 14.5339 35.7432C14.5146 35.7478 14.4957 35.75 14.4783 35.75C14.4173 35.75 14.358 35.7256 14.3144 35.6806L14.3142 35.6803C14.258 35.6225 14.2365 35.5387 14.2585 35.46L15.6579 30.467ZM14.0178 35.3926C13.9719 35.5567 14.0163 35.7327 14.1349 35.8546L14.0178 35.3926Z" fill="#0AC20A" stroke="#F7F7F8" stroke-width="0.5"/>
</svg>
