<svg width="94" height="30" viewBox="0 0 94 30" fill="none" xmlns="http://www.w3.org/2000/svg">
<g clip-path="url(#clip0_7107_10217)">
<path fill-rule="evenodd" clip-rule="evenodd" d="M26.868 15C26.868 21.9036 21.2716 27.5 14.368 27.5C7.46448 27.5 1.86804 21.9036 1.86804 15C1.86804 8.09644 7.46448 2.5 14.368 2.5C21.2716 2.5 26.868 8.09644 26.868 15ZM6.34783 16.9607V11.0865C6.34824 11.0289 6.36001 10.972 6.38246 10.9191C6.40491 10.8661 6.43761 10.8181 6.47866 10.7777C6.51972 10.7374 6.56833 10.7056 6.62171 10.6841C6.67508 10.6626 6.73218 10.6519 6.78972 10.6525H15.3497C15.9869 10.65 16.5989 10.9005 17.0514 11.3491C17.5039 11.7976 17.7599 12.4074 17.7629 13.0446V18.9188C17.7621 19.0346 17.7154 19.1453 17.633 19.2266C17.5507 19.308 17.4394 19.3533 17.3237 19.3528H8.76103C8.1239 19.3553 7.51183 19.1048 7.05932 18.6562C6.60682 18.2077 6.35091 17.5979 6.34783 16.9607ZM21.8432 10.7954L18.308 13.378V16.6326L21.8432 19.2094C22.0972 19.4004 22.3883 19.4639 22.3883 18.94V11.0653C22.3883 10.6049 22.1501 10.5409 21.8432 10.7954Z" fill="#C8C9D0"/>
<path fill-rule="evenodd" clip-rule="evenodd" d="M80.3661 12.2645C80.5987 12.6656 80.6747 13.122 80.6998 13.6351L80.7328 14.3189V19.101L80.7666 19.7856C80.834 20.9036 81.6585 21.7303 82.7852 21.8006L83.4662 21.8343V14.3189L83.4999 13.6351C83.5279 13.1277 83.6032 12.6627 83.8393 12.2587C84.0799 11.8443 84.4253 11.5005 84.8407 11.2618C85.2562 11.0231 85.7271 10.8979 86.2063 10.8988C86.6854 10.8997 87.1559 11.0266 87.5705 11.2668C87.9851 11.507 88.3292 11.8521 88.5683 12.2673C88.8008 12.6685 88.8733 13.1335 88.9013 13.6351L88.935 14.3168V19.101L88.9687 19.7856C89.039 20.9094 89.8571 21.736 90.9873 21.8006L91.6683 21.8343V13.6351C91.6683 12.1852 91.0925 10.7947 90.0675 9.76929C89.0425 8.74389 87.6522 8.16753 86.2024 8.16696C85.4264 8.16615 84.6591 8.33094 83.9519 8.65033C83.2447 8.96973 82.6138 9.43637 82.1013 10.0191C81.5886 9.4366 80.9577 8.97007 80.2505 8.65058C79.5433 8.33109 78.7762 8.16598 78.0002 8.16625C76.865 8.16625 75.8116 8.51069 74.939 9.10558C74.4065 8.51141 73.2153 8.16625 72.5314 8.16625V21.8343L73.2153 21.8006C74.3591 21.7253 75.1858 20.9208 75.2303 19.7856L75.2669 19.101V14.3189L75.3006 13.6351C75.3293 13.1191 75.4011 12.6656 75.6343 12.2616C75.8751 11.8474 76.2203 11.5037 76.6354 11.2647C77.0506 11.0257 77.5212 10.8998 78.0002 10.8996C78.4796 10.8997 78.9506 11.0258 79.3658 11.2654C79.7811 11.505 80.1261 11.8495 80.3661 12.2645ZM33.5766 21.8013L34.2605 21.8343H44.5114L44.4776 21.1526C44.3851 20.0289 43.5892 19.2079 42.4619 19.1347L41.778 19.101H35.6282L43.8275 10.8989L43.7938 10.2179C43.7407 9.08262 42.9111 8.2624 41.778 8.19997L41.0942 8.16912L30.8433 8.16625L30.877 8.85012C30.9667 9.96311 31.774 10.8013 32.892 10.8659L33.5766 10.8996H39.7264L31.5271 19.1017L31.5609 19.7856C31.6283 20.9122 32.4414 21.7281 33.5766 21.8006V21.8013ZM69.8483 10.1669C70.483 10.8015 70.9865 11.5549 71.33 12.3841C71.6736 13.2133 71.8504 14.102 71.8504 14.9996C71.8504 15.8971 71.6736 16.7859 71.33 17.6151C70.9865 18.4443 70.483 19.1977 69.8483 19.8322C68.566 21.1136 66.8274 21.8333 65.0146 21.8333C63.2018 21.8333 61.4632 21.1136 60.1808 19.8322C57.5121 17.1635 57.5121 12.8357 60.1808 10.1669C60.815 9.53254 61.5679 9.02928 62.3965 8.68588C63.2251 8.34249 64.1133 8.16567 65.0103 8.16553C65.9087 8.16491 66.7984 8.34141 67.6286 8.68495C68.4588 9.02849 69.213 9.53232 69.8483 10.1676V10.1669ZM67.9144 12.1023C68.6831 12.8716 69.1149 13.9146 69.1149 15.0021C69.1149 16.0896 68.6831 17.1326 67.9144 17.9019C67.1451 18.6706 66.1021 19.1024 65.0146 19.1024C63.9271 19.1024 62.884 18.6706 62.1148 17.9019C61.3461 17.1326 60.9143 16.0896 60.9143 15.0021C60.9143 13.9146 61.3461 12.8716 62.1148 12.1023C62.884 11.3336 63.9271 10.9018 65.0146 10.9018C66.1021 10.9018 67.1451 11.3336 67.9144 12.1023ZM50.6669 8.16553C51.5639 8.16576 52.4521 8.34269 53.2808 8.68622C54.1094 9.02974 54.8623 9.53312 55.4963 10.1676C58.1658 12.8357 58.1658 17.1642 55.4963 19.8322C54.214 21.1136 52.4754 21.8333 50.6626 21.8333C48.8498 21.8333 47.1112 21.1136 45.8289 19.8322C43.1601 17.1635 43.1601 12.8357 45.8289 10.1669C46.463 9.53254 47.2159 9.02928 48.0445 8.68588C48.8732 8.34249 49.7613 8.16567 50.6583 8.16553H50.6669ZM53.5624 12.1008C54.3313 12.8701 54.7633 13.9133 54.7633 15.001C54.7633 16.0887 54.3313 17.1319 53.5624 17.9012C52.7931 18.6699 51.7501 19.1017 50.6626 19.1017C49.5751 19.1017 48.5321 18.6699 47.7628 17.9012C46.9941 17.1319 46.5623 16.0889 46.5623 15.0014C46.5623 13.9139 46.9941 12.8708 47.7628 12.1016C48.5321 11.3329 49.5751 10.9011 50.6626 10.9011C51.7501 10.9011 52.7931 11.3321 53.5624 12.1008Z" fill="#C8C9D0"/>
</g>
<defs>
<clipPath id="clip0_7107_10217">
<rect width="92.5" height="30" fill="white" transform="translate(0.618042)"/>
</clipPath>
</defs>
</svg>
