<svg width="20" height="20" viewBox="0 0 20 20" fill="none" xmlns="http://www.w3.org/2000/svg">
<g id="Filter icons">
<path id="Subtract" fill-rule="evenodd" clip-rule="evenodd" d="M2 10C2 5.58176 5.58176 2 10 2C14.4182 2 18 5.58176 18 10C18 14.4182 14.4182 18 10 18C5.58176 18 2 14.4182 2 10ZM13.6002 11.0406C13.9536 11.0406 14.2402 10.7541 14.2402 10.4006C14.2402 10.0472 13.9536 9.76063 13.6002 9.76063H10.2402V6.40063C10.2402 6.04716 9.95362 5.76063 9.60016 5.76063C9.24669 5.76063 8.96016 6.04716 8.96016 6.40063V10.4006C8.96016 10.7541 9.24669 11.0406 9.60016 11.0406H13.6002Z" fill="#7238FA"/>
</g>
</svg>
