<svg width="20" height="20" viewBox="0 0 20 20" fill="none" xmlns="http://www.w3.org/2000/svg">
<g id="I/invoice-ticket/Paid/Classic/Standard">
<path id="Subtract" fill-rule="evenodd" clip-rule="evenodd" d="M1.66602 2.91699C1.66602 2.22664 2.22566 1.66699 2.91602 1.66699H17.0827C17.773 1.66699 18.3327 2.22664 18.3327 2.91699V17.8993C18.3375 18.0267 18.2841 18.1547 18.1769 18.2406C18.0073 18.3766 17.7639 18.3584 17.6162 18.2046L16.2185 16.8084L14.4262 18.241C14.274 18.3626 14.058 18.3626 13.9059 18.241L12.0828 16.7838L10.2596 18.2424C10.1075 18.3641 9.89123 18.3641 9.73906 18.2424L7.91602 16.7839L6.09297 18.2424C5.92718 18.375 5.68818 18.3617 5.53805 18.2116L4.13509 16.8087L2.34297 18.2424C2.2179 18.3424 2.04655 18.3619 1.90219 18.2925C1.75783 18.2232 1.66602 18.0772 1.66602 17.917V2.91699ZM5.41602 7.11699C4.97419 7.11699 4.61602 7.47516 4.61602 7.91699C4.61602 8.35882 4.97419 8.71699 5.41602 8.71699H14.5827C15.0245 8.71699 15.3827 8.35882 15.3827 7.91699C15.3827 7.47516 15.0245 7.11699 14.5827 7.11699H5.41602ZM4.61602 5.41699C4.61602 4.97516 4.97419 4.61699 5.41602 4.61699H12.4993C12.9412 4.61699 13.2993 4.97516 13.2993 5.41699C13.2993 5.85882 12.9412 6.21699 12.4993 6.21699H5.41602C4.97419 6.21699 4.61602 5.85882 4.61602 5.41699ZM5.41602 9.61699C4.97419 9.61699 4.61602 9.97516 4.61602 10.417C4.61602 10.8588 4.97419 11.217 5.41602 11.217H12.4993C12.9412 11.217 13.2993 10.8588 13.2993 10.417C13.2993 9.97516 12.9412 9.61699 12.4993 9.61699H5.41602Z" fill="#1E3050"/>
</g>
</svg>
