<svg width="20" height="20" viewBox="0 0 20 20" fill="none" xmlns="http://www.w3.org/2000/svg">
<g id="S/settings-gear/Paid/Classic/Standard">
<path id="Union" fill-rule="evenodd" clip-rule="evenodd" d="M8.20733 1.73951C8.3062 1.80698 8.37127 1.91371 8.38596 2.03249C8.48524 2.83482 9.17008 3.45612 9.9994 3.45612C10.8287 3.45612 11.5136 2.83483 11.6128 2.03251C11.6275 1.91373 11.6926 1.807 11.7915 1.73953C11.8903 1.67206 12.0134 1.65036 12.1294 1.67997C12.9293 1.88416 13.6842 2.2006 14.3763 2.61138C14.4791 2.67246 14.5508 2.77481 14.573 2.89238C14.5952 3.00995 14.5658 3.13139 14.4923 3.22577C13.9955 3.86329 14.0406 4.78654 14.6269 5.3728C15.2131 5.95906 16.1364 6.00413 16.7739 5.50741C16.8683 5.43387 16.9897 5.40445 17.1073 5.42665C17.2249 5.44885 17.3272 5.52052 17.3883 5.6234C17.7991 6.31549 18.1155 7.0704 18.3197 7.87033C18.3493 7.9863 18.3276 8.1094 18.2602 8.20826C18.1927 8.30712 18.086 8.37219 17.9672 8.38689C17.1649 8.48619 16.5436 9.17102 16.5436 10.0003C16.5436 10.8296 17.1649 11.5145 17.9672 11.6138C18.086 11.6285 18.1927 11.6935 18.2602 11.7924C18.3276 11.8913 18.3493 12.0144 18.3197 12.1303C18.1155 12.9303 17.7991 13.6852 17.3883 14.3773C17.3272 14.4801 17.2249 14.5518 17.1073 14.574C16.9897 14.5962 16.8683 14.5668 16.7739 14.4933C16.1364 13.9966 15.2132 14.0417 14.627 14.6279C14.0407 15.2142 13.9956 16.1374 14.4923 16.7749C14.5658 16.8693 14.5952 16.9907 14.573 17.1083C14.5508 17.2258 14.4792 17.3282 14.3763 17.3893C13.6842 17.8 12.9293 18.1165 12.1294 18.3207C12.0135 18.3503 11.8904 18.3286 11.7915 18.2611C11.6926 18.1936 11.6276 18.0869 11.6129 17.9681C11.5136 17.1658 10.8287 16.5445 9.99942 16.5445C9.17009 16.5445 8.48524 17.1658 8.38598 17.9681C8.37128 18.0869 8.30621 18.1937 8.20735 18.2611C8.10849 18.3286 7.98538 18.3503 7.86941 18.3207C7.06947 18.1165 6.31454 17.8001 5.62245 17.3893C5.51955 17.3282 5.44788 17.2258 5.42569 17.1083C5.40349 16.9907 5.43292 16.8692 5.50646 16.7749C6.00326 16.1373 5.95821 15.214 5.37192 14.6277C4.78563 14.0415 3.86233 13.9964 3.22481 14.4932C3.13043 14.5667 3.00899 14.5962 2.89141 14.574C2.77383 14.5518 2.67147 14.4801 2.6104 14.3772C2.19961 13.6852 1.88318 12.9303 1.67899 12.1304C1.64938 12.0144 1.67108 11.8913 1.73855 11.7924C1.80602 11.6936 1.91275 11.6285 2.03154 11.6138C2.83385 11.5145 3.45514 10.8297 3.45514 10.0004C3.45514 9.17105 2.83384 8.48621 2.03152 8.38693C1.91273 8.37224 1.806 8.30717 1.73853 8.2083C1.67106 8.10944 1.64936 7.98634 1.67896 7.87037C1.88316 7.07044 2.1996 6.31552 2.61041 5.62343C2.67148 5.52053 2.77385 5.44886 2.89143 5.42667C3.00901 5.40448 3.13046 5.43391 3.22484 5.50746C3.86235 6.00431 4.78571 5.95928 5.37202 5.37297C5.95833 4.78666 6.00335 3.86331 5.50651 3.2258C5.43296 3.13142 5.40353 3.00997 5.42572 2.89239C5.44791 2.77481 5.51959 2.67244 5.62248 2.61137C6.31456 2.20057 7.06948 1.88413 7.8694 1.67994C7.98537 1.65034 8.10847 1.67204 8.20733 1.73951ZM7.08203 10.0007C7.08203 8.38982 8.38787 7.08398 9.9987 7.08398C11.6095 7.08398 12.9154 8.38982 12.9154 10.0007C12.9154 11.6115 11.6095 12.9173 9.9987 12.9173C8.38787 12.9173 7.08203 11.6115 7.08203 10.0007Z" fill="#1E3050"/>
</g>
</svg>
