<svg width="48px" height="48px" viewBox="0 0 48 48" fill="none" xmlns="http://www.w3.org/2000/svg"><!--! OpenStrokeicons.com Free 1.0 by @openstroke - https://openstrokeicons.com License - https://openstrokeicons.com/pricing (Commercial License) Copyright 2023 Openstrokeicons.com -->
<path d="M43 24C43 34.4934 34.4934 43 24 43C13.5066 43 5 34.4934 5 24C5 13.5066 13.5066 5 24 5C34.4934 5 43 13.5066 43 24Z" stroke="#1E3050" stroke-width="2"/>
<path d="M29 17C29 19.7614 26.7614 22 24 22C21.2386 22 19 19.7614 19 17C19 14.2386 21.2386 12 24 12C26.7614 12 29 14.2386 29 17Z" stroke="#1E3050" stroke-width="2"/>
<path d="M34.4313 33.5C32.9693 29.1408 28.8514 26 23.9998 26C19.1483 26 15.0304 29.1408 13.5684 33.5" stroke="#1E3050" stroke-width="2" stroke-linecap="round"/>
</svg>
