<svg width="113" height="30" viewBox="0 0 113 30" fill="none" xmlns="http://www.w3.org/2000/svg">
<g clip-path="url(#clip0_7729_11766)">
<path d="M22.7738 13.8594L15.5386 21.0946L17.6004 23.119L26.86 13.8594L17.6004 4.59985L15.5386 6.6617L22.7738 13.8594Z" fill="#18181C"/>
<path d="M9.3961 23.1496L0.118164 13.8717L9.3961 4.59412L18.6737 13.8717L9.3961 23.1496Z" fill="#18181C"/>
<path d="M39.9815 20.7571L38.9694 17.4956H33.9834L32.9713 20.7571H29.8223L34.6957 6.96146H38.2571L43.1306 20.7571H39.9815ZM38.2946 15.0589C37.3574 12.0973 36.87 10.4104 36.7576 10.0355C36.6451 9.6606 36.5326 9.32321 36.4952 9.09828C36.2702 9.88553 35.7079 11.8724 34.7332 15.0589H38.2946ZM54.302 20.7571H51.4529V14.6465C51.4529 13.8968 51.303 13.3344 51.0406 12.9596C50.7781 12.5847 50.3283 12.3972 49.7659 12.3972C48.9787 12.3972 48.3789 12.6597 48.0415 13.1845C47.7041 13.7093 47.5167 14.609 47.5167 15.8461V20.7946H44.6676V10.2979H46.8419L47.2168 11.6475H47.3667C47.7041 11.1226 48.1165 10.7478 48.6788 10.4853C49.2411 10.2229 49.8784 10.1105 50.5907 10.1105C51.8278 10.1105 52.7275 10.4479 53.3648 11.0852C54.0021 11.7224 54.302 12.6971 54.302 13.9342V20.7571ZM55.4641 10.2604H58.6131L60.6 16.1835C60.7875 16.7084 60.8999 17.3082 60.9374 18.0205H61.0124C61.0874 17.3832 61.1998 16.7833 61.4248 16.1835L63.3741 10.2604H66.4482L61.9871 22.1067C61.5747 23.1938 61.0124 24.0186 60.2626 24.5809C59.5129 25.1432 58.6132 25.4056 57.601 25.4056C57.1136 25.4056 56.6263 25.3681 56.1389 25.2557V22.9689C56.4763 23.0439 56.8512 23.0814 57.2636 23.0814C57.7884 23.0814 58.2008 22.9314 58.5757 22.6315C58.9505 22.3316 59.2505 21.8442 59.4754 21.2444L59.6628 20.7196L55.4641 10.2604ZM79.5315 13.7468C79.5315 15.9961 78.8942 17.7205 77.6196 18.9577C76.345 20.1948 74.4706 20.7571 72.0339 20.7571H68.1351V7.03643H72.4463C74.6956 7.03643 76.42 7.63624 77.6571 8.79838C78.8942 9.998 79.5315 11.6475 79.5315 13.7468ZM76.495 13.8218C76.495 10.8602 75.1829 9.39819 72.5962 9.39819H71.0592V18.3204H72.2963C75.1079 18.3578 76.495 16.8583 76.495 13.8218ZM86.4293 20.9445C84.7424 20.9445 83.4303 20.4947 82.4556 19.5575C81.5184 18.6203 81.0311 17.3082 81.0311 15.5837C81.0311 13.8218 81.4809 12.4722 82.3431 11.4975C83.2054 10.5228 84.4425 10.073 85.9795 10.073C87.479 10.073 88.6037 10.4853 89.4284 11.3476C90.2531 12.2098 90.6655 13.3719 90.6655 14.834V16.221H83.8801C83.9176 17.0458 84.1426 17.6831 84.5924 18.1329C85.0423 18.5828 85.6796 18.8077 86.5043 18.8077C87.1416 18.8077 87.7414 18.7327 88.3037 18.6203C88.8661 18.4703 89.4659 18.2829 90.0657 17.983V20.1948C89.5783 20.4572 89.016 20.6446 88.4537 20.7571C87.9289 20.8696 87.2541 20.9445 86.4293 20.9445ZM86.017 12.0973C85.4172 12.0973 84.9298 12.2848 84.5924 12.6597C84.255 13.0345 84.0676 13.5969 83.9926 14.3091H88.0038C88.0038 13.5969 87.8164 13.072 87.4415 12.6597C87.1041 12.2848 86.6168 12.0973 86.017 12.0973ZM100.375 17.6456C100.375 18.7327 100 19.5575 99.2503 20.1198C98.5005 20.6821 97.3759 20.982 95.8764 20.982C95.1266 20.982 94.4518 20.9445 93.927 20.8321C93.4021 20.7196 92.8773 20.5696 92.4274 20.3822V18.0205C92.9523 18.2829 93.5521 18.4703 94.2269 18.6578C94.9017 18.8452 95.464 18.9202 95.9888 18.9202C97.0385 18.9202 97.5633 18.6203 97.5633 18.0205C97.5633 17.7955 97.4883 17.6081 97.3384 17.4581C97.1884 17.3082 96.9635 17.1582 96.6261 16.9708C96.2887 16.7833 95.8389 16.5959 95.2765 16.3335C94.4518 15.9961 93.8895 15.6962 93.5146 15.3963C93.1397 15.0964 92.8773 14.7965 92.6899 14.4216C92.5024 14.0467 92.4274 13.5969 92.4274 13.0345C92.4274 12.0973 92.8023 11.3851 93.5146 10.8602C94.2269 10.3354 95.2765 10.1105 96.5886 10.1105C97.8632 10.1105 99.1003 10.3729 100.262 10.9352L99.4002 12.997C98.8754 12.7721 98.3881 12.5847 97.9382 12.4347C97.4883 12.2848 97.001 12.2098 96.5511 12.2098C95.6889 12.2098 95.2765 12.4347 95.2765 12.8846C95.2765 13.147 95.4265 13.3719 95.6889 13.5594C95.9513 13.7468 96.5511 14.0092 97.4883 14.3841C98.3131 14.7215 98.9129 15.0214 99.2878 15.3213C99.6627 15.6212 99.9626 15.9586 100.15 16.3335C100.262 16.6709 100.375 17.1207 100.375 17.6456ZM104.911 15.0589L106.148 13.4469L109.072 10.2604H112.296L108.135 14.7965L112.596 20.7571H109.297L106.261 16.5209L105.023 17.4956V20.7571H102.174V6.13672H105.023V12.6597L104.873 15.0589H104.911Z" fill="#18181C"/>
</g>
<defs>
<clipPath id="clip0_7729_11766">
<rect width="112.5" height="30" fill="white" transform="translate(0.118164)"/>
</clipPath>
</defs>
</svg>
