<svg width="131" height="17" viewBox="0 0 131 17" fill="none" xmlns="http://www.w3.org/2000/svg">
<path d="M4.743 8.13007C4.64647 8.00287 4.49081 7.93575 4.33267 7.95315C4.17452 7.97055 4.03696 8.06992 3.97005 8.2151L0.049764 16.0994C-0.0232364 16.2457 -0.0155011 16.4197 0.0701963 16.5589C0.155894 16.6981 0.307274 16.7826 0.470054 16.7821H5.92899C6.10792 16.7869 6.27277 16.6849 6.34928 16.5221C7.52319 14.0682 6.81063 10.3508 4.743 8.13007Z" fill="#C8C9D0"/>
<path d="M7.62105 0.947889C5.62625 4.02407 5.39214 7.93043 7.00511 11.2254L9.65004 16.5221C9.72976 16.6819 9.89255 16.7826 10.0703 16.782H15.5293C15.6908 16.78 15.8398 16.6945 15.9238 16.5557C16.0077 16.417 16.0147 16.2445 15.9423 16.0993L8.41815 0.947889C8.34461 0.79367 8.18964 0.695557 8.0196 0.695557C7.84956 0.695557 7.69459 0.79367 7.62105 0.947889Z" fill="#C8C9D0"/>
<path fill-rule="evenodd" clip-rule="evenodd" d="M77.1323 8.72991C80.5768 9.47582 81.7966 10.5619 81.7966 12.8774L81.108 12.498L71.6506 7.27943C71.6506 7.28233 71.6506 7.28523 71.6506 7.28812L71.6348 7.2794C71.6348 4.84244 73.3956 3.35306 76.799 3.35306C78.2974 3.32508 79.7829 3.63474 81.1468 4.25932V7.29398C79.7241 6.65012 78.2241 6.18605 76.7024 6.18605C75.4512 6.18605 74.77 6.50677 74.77 7.27211C74.77 7.88439 75.2314 8.30715 77.1323 8.72991ZM71.6506 7.28812C71.6533 9.22782 72.5568 10.784 76.0733 11.4658C78.1747 11.908 78.6144 12.2505 78.6144 12.9551C78.6144 13.6597 78.1747 14.0825 76.682 14.0825C74.8928 14.05 73.1393 13.5725 71.5781 12.6927V15.8756C72.6385 16.398 74.0395 16.9835 76.6506 16.9835C80.3342 16.9835 81.7955 15.3338 81.7955 12.8774L81.108 12.498L71.6506 7.28812Z" fill="#C8C9D0"/>
<path d="M118.965 3.55493V16.782H121.767V6.69649L122.948 9.37399L126.912 16.782H130.433V3.55493H127.632V12.0928L126.571 9.61452L123.388 3.55493H118.965Z" fill="#C8C9D0"/>
<rect x="98.0801" y="3.55493" width="3.0628" height="13.2271" fill="#C8C9D0"/>
<path d="M94.5488 12.8774C94.5488 10.5619 93.3289 9.47582 89.8845 8.72991C87.9835 8.30715 87.5222 7.88439 87.5222 7.27211C87.5222 6.50677 88.2033 6.18605 89.4545 6.18605C90.9763 6.18605 92.4763 6.65012 93.899 7.29398V4.25932C92.5351 3.63474 91.0495 3.32508 89.5512 3.35306C86.1478 3.35306 84.3869 4.84244 84.3869 7.2794C84.3869 9.22313 85.2879 10.783 88.8096 11.4657C90.9111 11.9079 91.3507 12.2505 91.3507 12.9551C91.3507 13.6597 90.9111 14.0825 89.4183 14.0825C87.6291 14.05 85.8757 13.5725 84.3145 12.6927V15.8756C85.3748 16.3979 86.7758 16.9835 89.3869 16.9835C93.0705 16.9835 94.5318 15.3337 94.5318 12.8774" fill="#C8C9D0"/>
<path d="M47.8633 3.55493V16.782H54.158L55.1483 13.9248H50.9454V3.55493H47.8633Z" fill="#C8C9D0"/>
<path d="M35.4258 3.55493V6.41465H38.8292V16.782H41.9113V6.41465H45.5538V3.55493H35.4258Z" fill="#C8C9D0"/>
<path fill-rule="evenodd" clip-rule="evenodd" d="M26.9194 3.55493H30.9581L35.5523 16.782H32.0499L31.4001 14.554C29.7965 15.0291 28.0907 15.0291 26.4871 14.554L25.8446 16.782H22.3301L26.9194 3.55493ZM27.248 11.9274C27.7972 12.0894 28.3666 12.1712 28.9389 12.1704C29.5111 12.1712 30.0805 12.0894 30.6297 11.9274L28.9389 6.1521L27.248 11.9274Z" fill="#C8C9D0"/>
<path fill-rule="evenodd" clip-rule="evenodd" d="M60.9702 3.55493H65.0089L69.5934 16.782H66.091L65.4412 14.554C63.8406 15.0272 62.1385 15.0272 60.5379 14.554L59.8833 16.782H56.3809L60.9702 3.55493ZM61.2988 11.9274C61.848 12.0894 62.4174 12.1712 62.9896 12.1704C63.5619 12.1712 64.1313 12.0894 64.6805 11.9274L62.9896 6.1521L61.2988 11.9274Z" fill="#C8C9D0"/>
<path fill-rule="evenodd" clip-rule="evenodd" d="M108.138 3.55493H112.177L116.761 16.782H113.259L112.609 14.554C111.009 15.0272 109.306 15.0272 107.706 14.554L107.051 16.782H103.549L108.138 3.55493ZM108.469 11.9274C109.018 12.0894 109.587 12.1712 110.16 12.1704C110.732 12.1712 111.301 12.0894 111.85 11.9274L110.16 6.1521L108.469 11.9274Z" fill="#C8C9D0"/>
</svg>
