<svg width="48" height="48" viewBox="0 0 48 48" fill="none" xmlns="http://www.w3.org/2000/svg">
<path d="M9.8673 15.8575C9.94206 14.8109 10.8129 14 11.8622 14H36.119C37.1677 14 38.0383 14.8101 38.1138 15.8561L39.8453 39.8561C39.9289 41.0143 39.0117 42 37.8505 42H10.1479C8.98725 42 8.07032 41.0152 8.15301 39.8575L9.8673 15.8575Z" stroke="black" stroke-width="2" stroke-linecap="round"/>
<path d="M22 30L26 30L24 27.3L22 30Z" stroke="black" stroke-width="2" stroke-linecap="round" stroke-linejoin="round"/>
<path d="M24 34L24 30" stroke="black" stroke-width="2" stroke-linecap="round"/>
<path d="M18 18V12C18 8.68629 20.6863 6 24 6C27.3137 6 30 8.68629 30 12V18" stroke="black" stroke-width="2" stroke-linecap="round"/>
</svg>
