<svg width="60" height="60" viewBox="0 0 60 60" fill="none" xmlns="http://www.w3.org/2000/svg">
<g style="mix-blend-mode:multiply">
<path d="M39.0002 25.5C39.0002 28.8203 39.3236 31.9313 41.4002 34.7L41.7002 35.1C42.4418 36.0889 41.7362 37.5 40.5002 37.5H19.5002C18.2641 37.5 17.5585 36.0889 18.3002 35.1L18.6002 34.7C20.6767 31.9313 21.0002 28.8203 21.0002 25.5C21.0002 20.5294 24.7372 16.5 30.0002 16.5C35.2631 16.5 39.0002 20.5294 39.0002 25.5Z" stroke="black" stroke-width="2" stroke-linecap="round"/>
<path d="M30.0001 43.5C32.8013 43.5 35.1542 41.5804 35.815 38.9848C36.0194 38.182 35.3285 37.5 34.5001 37.5H25.5001C24.6717 37.5 23.9809 38.182 24.1853 38.9848C24.846 41.5804 27.1989 43.5 30.0001 43.5Z" stroke="black" stroke-width="2" stroke-linecap="round"/>
</g>
</svg>
