<svg width="40" height="40" viewBox="0 0 40 40" fill="none" xmlns="http://www.w3.org/2000/svg">
<path d="M28.334 31.6668H11.6673M8.33398 28.3335V11.6668M11.6673 8.3335H28.334M31.6673 11.6668V28.3335" stroke="black" stroke-width="2" stroke-linecap="round" stroke-linejoin="round"/>
<path d="M28.334 30.0002C28.334 29.0797 29.0802 28.3335 30.0007 28.3335H33.334C34.2545 28.3335 35.0007 29.0797 35.0007 30.0002V33.3335C35.0007 34.254 34.2545 35.0002 33.334 35.0002H30.0007C29.0802 35.0002 28.334 34.254 28.334 33.3335V30.0002Z" fill="#FAD338" stroke="black" stroke-width="2" stroke-linecap="round" stroke-linejoin="round"/>
<path d="M28.334 6.66667C28.334 5.74619 29.0802 5 30.0007 5H33.334C34.2545 5 35.0007 5.74619 35.0007 6.66667V10C35.0007 10.9205 34.2545 11.6667 33.334 11.6667H30.0007C29.0802 11.6667 28.334 10.9205 28.334 10V6.66667Z" fill="#FAD338" stroke="black" stroke-width="2" stroke-linecap="round" stroke-linejoin="round"/>
<path d="M5 6.66667C5 5.74619 5.74619 5 6.66667 5H10C10.9205 5 11.6667 5.74619 11.6667 6.66667V10C11.6667 10.9205 10.9205 11.6667 10 11.6667H6.66667C5.74619 11.6667 5 10.9205 5 10V6.66667Z" fill="#FAD338" stroke="black" stroke-width="2" stroke-linecap="round" stroke-linejoin="round"/>
<path d="M5 30C5 29.0795 5.74619 28.3333 6.66667 28.3333H10C10.9205 28.3333 11.6667 29.0795 11.6667 30V33.3333C11.6667 34.2538 10.9205 35 10 35H6.66667C5.74619 35 5 34.2538 5 33.3333V30Z" fill="#FAD338" stroke="black" stroke-width="2" stroke-linecap="round" stroke-linejoin="round"/>
</svg>
