<svg width="30" height="30" viewBox="0 0 30 30" fill="none" xmlns="http://www.w3.org/2000/svg">
<circle opacity="0.35" cx="18" cy="18" r="12" fill="#FBB631"/>
<path fill-rule="evenodd" clip-rule="evenodd" d="M15 5.18182C9.57757 5.18182 5.18182 9.57757 5.18182 15C5.18182 20.4224 9.57757 24.8182 15 24.8182C20.4224 24.8182 24.8182 20.4224 24.8182 15C24.8182 9.57757 20.4224 5.18182 15 5.18182ZM3 15C3 8.37258 8.37258 3 15 3C21.6274 3 27 8.37258 27 15C27 21.6274 21.6274 27 15 27C8.37258 27 3 21.6274 3 15Z" fill="#FAD338"/>
<path d="M25 15C25 20.5228 20.5228 25 15 25C9.47715 25 5 20.5228 5 15C5 9.47715 9.47715 5 15 5C20.5228 5 25 9.47715 25 15Z" stroke="#7238FA" stroke-width="0.5"/>
<path d="M27 15C27 21.6274 21.6274 27 15 27C8.37258 27 3 21.6274 3 15C3 8.37258 8.37258 3 15 3C21.6274 3 27 8.37258 27 15Z" stroke="#7238FA" stroke-width="0.5"/>
</svg>
