<svg width="392" height="335" viewBox="0 0 392 335" fill="none" xmlns="http://www.w3.org/2000/svg">
<rect x="1" y="1" width="390" height="333" rx="9" fill="white" stroke="#18181C" stroke-width="2"/>
<path fill-rule="evenodd" clip-rule="evenodd" d="M196 114C160.613 114 132 142.369 132 177.273V258C132 260.209 130.209 262 128 262C125.791 262 124 260.209 124 258V177.273C124 137.869 156.276 106 196 106C235.724 106 268 137.869 268 177.273V258C268 260.209 266.209 262 264 262C261.791 262 260 260.209 260 258V177.273C260 142.369 231.387 114 196 114Z" fill="black" stroke="#3F5AD3" stroke-linecap="round"/>
<path d="M124 256.5C123.172 256.5 122.5 257.172 122.5 258C122.5 258.828 123.172 259.5 124 259.5C124.828 259.5 125.5 258.828 125.5 258C125.5 257.172 124.828 256.5 124 256.5Z" fill="white" stroke="#3F5AD3"/>
<path d="M124 176.5C123.172 176.5 122.5 177.172 122.5 178C122.5 178.828 123.172 179.5 124 179.5C124.828 179.5 125.5 178.828 125.5 178C125.5 177.172 124.828 176.5 124 176.5Z" fill="white" stroke="#3F5AD3"/>
<path d="M197.5 106C197.5 105.172 196.828 104.5 196 104.5C195.172 104.5 194.5 105.172 194.5 106C194.5 106.828 195.172 107.5 196 107.5C196.828 107.5 197.5 106.828 197.5 106Z" fill="white" stroke="#3F5AD3"/>
<path d="M260 176.5C259.172 176.5 258.5 177.172 258.5 178C258.5 178.828 259.172 179.5 260 179.5C260.828 179.5 261.5 178.828 261.5 178C261.5 177.172 260.828 176.5 260 176.5Z" fill="white" stroke="#3F5AD3"/>
<path d="M260 256.5C259.172 256.5 258.5 257.172 258.5 258C258.5 258.828 259.172 259.5 260 259.5C260.828 259.5 261.5 258.828 261.5 258C261.5 257.172 260.828 256.5 260 256.5Z" fill="white" stroke="#3F5AD3"/>
<path d="M132 256.5C131.172 256.5 130.5 257.172 130.5 258C130.5 258.828 131.172 259.5 132 259.5C132.828 259.5 133.5 258.828 133.5 258C133.5 257.172 132.828 256.5 132 256.5Z" fill="white" stroke="#3F5AD3"/>
<path d="M132 176.5C131.172 176.5 130.5 177.172 130.5 178C130.5 178.828 131.172 179.5 132 179.5C132.828 179.5 133.5 178.828 133.5 178C133.5 177.172 132.828 176.5 132 176.5Z" fill="white" stroke="#3F5AD3"/>
<path d="M197.5 114C197.5 113.172 196.828 112.5 196 112.5C195.172 112.5 194.5 113.172 194.5 114C194.5 114.828 195.172 115.5 196 115.5C196.828 115.5 197.5 114.828 197.5 114Z" fill="white" stroke="#3F5AD3"/>
<path d="M268 176.5C267.172 176.5 266.5 177.172 266.5 178C266.5 178.828 267.172 179.5 268 179.5C268.828 179.5 269.5 178.828 269.5 178C269.5 177.172 268.828 176.5 268 176.5Z" fill="white" stroke="#3F5AD3"/>
<path d="M268 256.5C267.172 256.5 266.5 257.172 266.5 258C266.5 258.828 267.172 259.5 268 259.5C268.828 259.5 269.5 258.828 269.5 258C269.5 257.172 268.828 256.5 268 256.5Z" fill="white" stroke="#3F5AD3"/>
<path d="M128 260.5C127.172 260.5 126.5 261.172 126.5 262C126.5 262.828 127.172 263.5 128 263.5C128.828 263.5 129.5 262.828 129.5 262C129.5 261.172 128.828 260.5 128 260.5Z" fill="white" stroke="#3F5AD3"/>
<path d="M264 260.5C263.172 260.5 262.5 261.172 262.5 262C262.5 262.828 263.172 263.5 264 263.5C264.828 263.5 265.5 262.828 265.5 262C265.5 261.172 264.828 260.5 264 260.5Z" fill="white" stroke="#3F5AD3"/>
<path fill-rule="evenodd" clip-rule="evenodd" d="M196 143C198.209 143 200 144.791 200 147L200 282C200 284.209 198.209 286 196 286C193.791 286 192 284.209 192 282L192 147C192 144.791 193.791 143 196 143Z" fill="black" stroke="#3F5AD3" stroke-linecap="round"/>
<path fill-rule="evenodd" clip-rule="evenodd" d="M196 58C129.726 58 76 111.726 76 178C76 180.209 74.2091 182 72 182C69.7909 182 68 180.209 68 178C68 107.308 125.308 50 196 50C266.692 50 324 107.308 324 178C324 180.209 322.209 182 320 182C317.791 182 316 180.209 316 178C316 111.726 262.274 58 196 58Z" fill="black" stroke="#3F5AD3" stroke-linecap="round"/>
<path d="M68 176.5C67.1716 176.5 66.5 177.172 66.5 178C66.5 178.828 67.1716 179.5 68 179.5C68.8284 179.5 69.5 178.828 69.5 178C69.5 177.172 68.8284 176.5 68 176.5Z" fill="white" stroke="#3F5AD3"/>
<path d="M316 176.5C315.172 176.5 314.5 177.172 314.5 178C314.5 178.828 315.172 179.5 316 179.5C316.828 179.5 317.5 178.828 317.5 178C317.5 177.172 316.828 176.5 316 176.5Z" fill="white" stroke="#3F5AD3"/>
<path d="M76 176.5C75.1716 176.5 74.5 177.172 74.5 178C74.5 178.828 75.1716 179.5 76 179.5C76.8284 179.5 77.5 178.828 77.5 178C77.5 177.172 76.8284 176.5 76 176.5Z" fill="white" stroke="#3F5AD3"/>
<path d="M324 176.5C323.172 176.5 322.5 177.172 322.5 178C322.5 178.828 323.172 179.5 324 179.5C324.828 179.5 325.5 178.828 325.5 178C325.5 177.172 324.828 176.5 324 176.5Z" fill="white" stroke="#3F5AD3"/>
<path d="M72 180.5C71.1716 180.5 70.5 181.172 70.5 182C70.5 182.828 71.1716 183.5 72 183.5C72.8284 183.5 73.5 182.828 73.5 182C73.5 181.172 72.8284 180.5 72 180.5Z" fill="white" stroke="#3F5AD3"/>
<path d="M320 180.5C319.172 180.5 318.5 181.172 318.5 182C318.5 182.828 319.172 183.5 320 183.5C320.828 183.5 321.5 182.828 321.5 182C321.5 181.172 320.828 180.5 320 180.5Z" fill="white" stroke="#3F5AD3"/>
<path d="M192 148.5C191.172 148.5 190.5 147.828 190.5 147C190.5 146.172 191.172 145.5 192 145.5C192.828 145.5 193.5 146.172 193.5 147C193.5 147.828 192.828 148.5 192 148.5Z" fill="white" stroke="#3F5AD3"/>
<path d="M192 280.5C191.172 280.5 190.5 281.172 190.5 282C190.5 282.828 191.172 283.5 192 283.5C192.828 283.5 193.5 282.828 193.5 282C193.5 281.172 192.828 280.5 192 280.5Z" fill="white" stroke="#3F5AD3"/>
<path d="M200 148.5C199.172 148.5 198.5 147.828 198.5 147C198.5 146.172 199.172 145.5 200 145.5C200.828 145.5 201.5 146.172 201.5 147C201.5 147.828 200.828 148.5 200 148.5Z" fill="white" stroke="#3F5AD3"/>
<path d="M200 280.5C199.172 280.5 198.5 281.172 198.5 282C198.5 282.828 199.172 283.5 200 283.5C200.828 283.5 201.5 282.828 201.5 282C201.5 281.172 200.828 280.5 200 280.5Z" fill="white" stroke="#3F5AD3"/>
<path d="M196 144.5C195.172 144.5 194.5 143.828 194.5 143C194.5 142.172 195.172 141.5 196 141.5C196.828 141.5 197.5 142.172 197.5 143C197.5 143.828 196.828 144.5 196 144.5Z" fill="white" stroke="#3F5AD3"/>
<path d="M196 284.5C195.172 284.5 194.5 285.172 194.5 286C194.5 286.828 195.172 287.5 196 287.5C196.828 287.5 197.5 286.828 197.5 286C197.5 285.172 196.828 284.5 196 284.5Z" fill="white" stroke="#3F5AD3"/>
<path d="M197.5 50C197.5 49.1716 196.828 48.5 196 48.5C195.172 48.5 194.5 49.1716 194.5 50C194.5 50.8284 195.172 51.5 196 51.5C196.828 51.5 197.5 50.8284 197.5 50Z" fill="white" stroke="#3F5AD3"/>
<path d="M197.5 58C197.5 57.1716 196.828 56.5 196 56.5C195.172 56.5 194.5 57.1716 194.5 58C194.5 58.8284 195.172 59.5 196 59.5C196.828 59.5 197.5 58.8284 197.5 58Z" fill="white" stroke="#3F5AD3"/>
</svg>
