<svg width="30" height="30" viewBox="0 0 30 30" fill="none" xmlns="http://www.w3.org/2000/svg">
<path d="M5 7.5L5.94306 23.0605C5.97505 23.5883 6.41244 24 6.94123 24H23.0588C23.5876 24 24.025 23.5883 24.0569 23.0605L25 7.5" stroke="#7238FA" stroke-width="2"/>
<path d="M5.01802 7.81009C4.84719 6.31795 5.91279 5 7.29005 5H22.71C24.0872 5 25.1528 6.31795 24.982 7.81009C24.8388 9.06116 23.8647 10 22.71 10H7.29005C6.13529 10 5.16125 9.06116 5.01802 7.81009Z" stroke="#7238FA" stroke-width="2"/>
<path d="M15 14L15 20" stroke="#7238FA" stroke-width="2" stroke-linecap="round"/>
<path d="M18 17L12 17" stroke="#7238FA" stroke-width="2" stroke-linecap="round"/>
<path opacity="0.15" d="M27.0569 26.0605L28 10.5C28 8.98974 26.812 8.25165 26.1181 8.03344C26.0401 8.00892 25.9615 8 25.8797 8H10C8.4 8 8 9.66667 8 10.5L8.94306 26.0605C8.97505 26.5883 9.41244 27 9.94123 27H26.0588C26.5876 27 27.025 26.5883 27.0569 26.0605Z" fill="#7238FA"/>
</svg>
