<svg width="48" height="48" viewBox="0 0 48 48" fill="none" xmlns="http://www.w3.org/2000/svg">
<path d="M36 27.9824C36 34.0576 31.0751 38.9824 25 38.9824C18.9249 38.9824 14 34.0576 14 27.9824C14 21.9073 18.9249 16.9824 25 16.9824C31.0751 16.9824 36 21.9073 36 27.9824Z" stroke="black" stroke-width="2" stroke-linecap="round" stroke-linejoin="round"/>
<path d="M27 27.9824C27 29.087 26.1046 29.9824 25 29.9824C23.8954 29.9824 23 29.087 23 27.9824C23 26.8779 23.8954 25.9824 25 25.9824C26.1046 25.9824 27 26.8779 27 27.9824Z" stroke="black" stroke-width="2" stroke-linecap="round" stroke-linejoin="round"/>
<path d="M19.5378 18.5063V14.7056C19.5378 11.4292 22.1939 8.77313 25.4703 8.77313C28.7467 8.77313 31.4027 11.4292 31.4027 14.7056L31.4028 18.8462" stroke="black" stroke-width="2" stroke-linecap="round" stroke-linejoin="round"/>
</svg>
