<svg width="48" height="48" viewBox="0 0 48 48" fill="none" xmlns="http://www.w3.org/2000/svg">
<path d="M34.9999 12H13.0005C12.4482 12 12.0005 12.4477 12.0005 13L12 27C12 27.5523 12.4477 28 13 28H34.9982C35.5505 28 35.9982 27.5524 35.9982 27.0001L35.9999 13.0001C35.9999 12.4478 35.5522 12 34.9999 12Z" stroke="black" stroke-width="2" stroke-linecap="round" stroke-linejoin="round"/>
<path d="M39.2766 34.5529L36.2773 28.5529C36.108 28.214 35.7617 28 35.3829 28H12.6176C12.2388 28 11.8926 28.214 11.7232 28.5528L8.72351 34.5528C8.39109 35.2177 8.87459 36 9.61795 36H38.3821C39.1255 36 39.609 35.2178 39.2766 34.5529Z" stroke="black" stroke-width="2" stroke-linecap="round" stroke-linejoin="round"/>
<path d="M21.7071 34.2929C21.8946 34.1054 22.149 34 22.4142 34H25.5858C25.851 34 26.1054 34.1054 26.2929 34.2929V34.2929C26.9229 34.9229 26.4767 36 25.5858 36H22.4142C21.5233 36 21.0771 34.9229 21.7071 34.2929V34.2929Z" stroke="black" stroke-width="2" stroke-linecap="round" stroke-linejoin="round"/>
</svg>
