<svg width="48" height="48" viewBox="0 0 48 48" fill="none" xmlns="http://www.w3.org/2000/svg">
<path d="M16.285 24.8583C17.0618 23.5636 18.9382 23.5636 19.715 24.8583L30 42H9.53239C7.9778 42 7.01757 40.3041 7.8174 38.971L16.285 24.8583Z" stroke="black" stroke-width="2" stroke-linecap="round" stroke-linejoin="round"/>
<path d="M30.3044 28.7136C31.0878 27.4603 32.9131 27.4603 33.6964 28.7136L40.0879 38.94C40.9205 40.2721 39.9628 42 38.3919 42H30.0004L26.7123 36.5197C26.3255 35.8751 26.3329 35.0681 26.7312 34.4307L30.3044 28.7136Z" stroke="black" stroke-width="2" stroke-linecap="round" stroke-linejoin="round"/>
<circle cx="26" cy="16" r="2" stroke="black" stroke-width="2"/>
<path d="M26 6V8" stroke="black" stroke-width="2" stroke-linecap="round"/>
<path d="M34.6602 21L32.9281 20" stroke="black" stroke-width="2" stroke-linecap="round"/>
<path d="M19.0723 12L17.3402 11" stroke="black" stroke-width="2" stroke-linecap="round"/>
<path d="M34.6602 11L32.9281 12" stroke="black" stroke-width="2" stroke-linecap="round"/>
</svg>
