<svg width="48" height="48" viewBox="0 0 48 48" fill="none" xmlns="http://www.w3.org/2000/svg">
<path d="M12.544 6.32679C14.6358 5.7392 16.7642 5.93731 18.6097 6.74381C20.9794 7.7794 22.8826 9.81812 23.6427 12.4845C23.6842 12.6303 23.7219 12.7762 23.7557 12.9222C23.9035 13.5604 23.9779 14.2 23.9842 14.8318L23.9843 32.7389C23.9858 33.5378 24.094 34.3688 24.3239 35.1753C24.5005 35.795 24.7483 36.3865 25.0562 36.9437C26.4403 39.4483 29.0402 41.2593 31.8621 41.8113C33.2178 42.0765 34.6248 42.0512 35.9727 41.6725" stroke="black" stroke-width="2" stroke-linecap="round" stroke-linejoin="round"/>
<path d="M41.8594 31.5928L36.8608 36.7018L31.8623 41.8108" stroke="black" stroke-width="2" stroke-linecap="round" stroke-linejoin="round"/>
<path d="M18.6094 6.74414L6.76438 18.5157" stroke="black" stroke-width="2" stroke-linecap="round" stroke-linejoin="round"/>
<path d="M23.7578 12.9219L18.5013 18.2944L13.2447 23.667" stroke="black" stroke-width="2" stroke-linecap="round" stroke-linejoin="round"/>
<path d="M37.2812 24.9258L31.1685 30.9347L25.0558 36.9437" stroke="black" stroke-width="2" stroke-linecap="round" stroke-linejoin="round"/>
<path d="M6.03729 14.1025C5.93954 15.1629 6.03265 16.2587 6.34214 17.3444C6.45763 17.7496 6.59958 18.1402 6.76561 18.515C7.96654 21.2261 10.4271 23.1088 13.2435 23.6669C13.8145 23.7801 14.4001 23.8388 14.9929 23.8389L32.9737 23.8389C34.5003 23.8381 35.9792 24.2231 37.2826 24.9255C39.3285 26.0281 40.9416 27.9127 41.6263 30.3147C41.7221 30.6508 41.8002 31.1006 41.8602 31.5929C41.994 32.6912 42.0357 34.0013 41.9682 34.7334" stroke="black" stroke-width="2" stroke-linecap="round" stroke-linejoin="round"/>
</svg>
