<svg width="48" height="48" viewBox="0 0 48 48" fill="none" xmlns="http://www.w3.org/2000/svg">
<path d="M17.9985 9.99846C17.9985 14.4167 14.4167 17.9985 9.99846 17.9985C7.82987 17.9985 5.86281 17.1356 4.42188 15.7345C5.57977 19.3673 8.98184 21.9985 12.9985 21.9985C17.969 21.9985 21.9985 17.969 21.9985 12.9985C21.9985 8.98184 19.3673 5.57977 15.7345 4.42188C17.1356 5.86281 17.9985 7.82987 17.9985 9.99846Z" stroke="black" stroke-width="2" stroke-linecap="round" stroke-linejoin="round"/>
<path d="M6 37C6 39.7614 8.23858 42 11 42H36C39.3137 42 42 39.3137 42 36C42 33.8453 40.8642 31.9559 39.1587 30.8978C38.4811 30.4774 37.9581 29.8126 37.7847 29.0343C36.8879 25.0091 33.2954 22 29 22C26.3004 22 23.8785 23.1885 22.2289 25.0709C21.6064 25.7812 20.6357 26.1254 19.695 26.0404C16.7947 25.7786 13.9321 27.4124 12.6707 30.0302C12.1619 31.0862 11.0341 31.8657 9.89461 32.1406C7.73212 32.6623 6 34.6163 6 37Z" stroke="black" stroke-width="2" stroke-linecap="round"/>
</svg>
