<svg width="48" height="48" viewBox="0 0 48 48" fill="none" xmlns="http://www.w3.org/2000/svg">
<path d="M40 6H8C6.89543 6 6 6.89543 6 8V29.436C6 30.3548 6.62613 31.1555 7.51792 31.377L17.0083 33.734C17.7426 33.9164 18.3112 34.4977 18.4774 35.2359L19.6487 40.4392C19.8541 41.3517 20.6645 42 21.5998 42H26.4009C27.3359 42 28.1461 41.3522 28.3519 40.4401L29.4916 35.3884C29.6561 34.6593 30.2134 34.0827 30.9365 33.8936L40.5061 31.3907C41.3861 31.1606 42 30.3655 42 29.4558V8C42 6.89543 41.1046 6 40 6Z" stroke="black" stroke-width="2" stroke-linecap="round"/>
<path d="M12.0693 24H35.9312" stroke="black" stroke-width="2" stroke-linecap="round"/>
<path d="M19.7285 40.721L16 24M32 24L28.2795 40.721" stroke="black" stroke-width="2" stroke-linecap="round"/>
</svg>
