<svg width="48" height="48" viewBox="0 0 48 48" fill="none" xmlns="http://www.w3.org/2000/svg">
<path d="M18.2978 26.4772C20.1824 29.3341 22.2029 31.854 23.2599 33.1251C23.6482 33.5921 24.3522 33.5893 24.7374 33.1197C25.783 31.8447 27.7807 29.3232 29.6539 26.4777C29.8407 26.194 30.1567 26.0212 30.4963 26.0212H37.2195C37.6782 26.0212 38.0781 26.3333 38.1895 26.7783L41.6889 40.7572C41.8469 41.3884 41.3695 42 40.7188 42H7.28119C6.63049 42 6.15311 41.3884 6.31112 40.7572L9.81046 26.7783C9.92186 26.3333 10.3218 26.0212 10.7805 26.0212H17.4555C17.795 26.0212 18.1108 26.1939 18.2978 26.4772Z" stroke="black" stroke-width="2" stroke-linecap="round" stroke-linejoin="round"/>
<path d="M23.9989 6C18.4638 6 13.9978 10.1481 14 16.3704C13.9991 19.0642 15.8737 22.73 18 26.0212C19.9659 29.0641 22.147 31.7867 23.2599 33.1251C23.6482 33.5921 24.3522 33.5893 24.7374 33.1197C25.8386 31.7769 27.9959 29.0515 29.9515 26.0212C32.097 22.6968 34 19.0054 34 16.3704C34 10.3304 29.5341 6 23.9989 6Z" stroke="black" stroke-width="2" stroke-linecap="round" stroke-linejoin="round"/>
<path d="M24 18C25.1046 18 26 17.1046 26 16C26 14.8954 25.1046 14 24 14C22.8954 14 22 14.8954 22 16C22 17.1046 22.8954 18 24 18Z" stroke="black" stroke-width="2" stroke-linecap="round" stroke-linejoin="round"/>
</svg>
