<svg width="340" height="260" viewBox="0 0 340 260" fill="none" xmlns="http://www.w3.org/2000/svg">
<rect x="0.5" y="0.5" width="339" height="259" rx="7.5" fill="white" stroke="#E8E8E8"/>
<mask id="mask0_7592_12569" style="mask-type:luminance" maskUnits="userSpaceOnUse" x="180" y="179" width="50" height="38">
<rect x="180" y="179" width="50" height="37.5" fill="white"/>
</mask>
<g mask="url(#mask0_7592_12569)">
<path fill-rule="evenodd" clip-rule="evenodd" d="M180 179V216.5H230V179H180Z" fill="#F7FCFF"/>
<mask id="mask1_7592_12569" style="mask-type:luminance" maskUnits="userSpaceOnUse" x="180" y="179" width="50" height="38">
<path fill-rule="evenodd" clip-rule="evenodd" d="M180 179V216.5H230V179H180Z" fill="white"/>
</mask>
<g mask="url(#mask1_7592_12569)">
<path fill-rule="evenodd" clip-rule="evenodd" d="M180 179V191.5H230V179H180Z" fill="#C51918"/>
<path fill-rule="evenodd" clip-rule="evenodd" d="M180 204V216.5H230V204H180Z" fill="#C51918"/>
</g>
</g>
<mask id="mask2_7592_12569" style="mask-type:luminance" maskUnits="userSpaceOnUse" x="110" y="44" width="50" height="38">
<rect x="110" y="44" width="50" height="37.5" fill="white"/>
</mask>
<g mask="url(#mask2_7592_12569)">
<path fill-rule="evenodd" clip-rule="evenodd" d="M110 44H160V81.5H110V44Z" fill="#2E42A5"/>
<rect x="110" y="44" width="27.5" height="22.5" fill="#2E42A5"/>
<mask id="mask3_7592_12569" style="mask-type:luminance" maskUnits="userSpaceOnUse" x="110" y="44" width="28" height="23">
<rect x="110" y="44" width="27.5" height="22.5" fill="white"/>
</mask>
<g mask="url(#mask3_7592_12569)">
<path d="M106.869 64.3122L113.058 67.0266L138.266 46.9512L141.531 42.9175L134.913 42.0103L124.631 50.6614L116.355 56.4902L106.869 64.3122Z" fill="#F7FCFF"/>
<path d="M107.717 66.2139L110.87 67.7891L140.359 42.5426H135.932L107.717 66.2139Z" fill="#F50100"/>
<path d="M141.257 64.3123L135.764 67.8015L109.86 46.9512L106.595 42.9176L113.213 42.0103L123.495 50.6614L131.771 56.4902L141.257 64.3123Z" fill="#F7FCFF"/>
<path d="M141.046 65.677L137.893 67.2522L125.336 56.4429L121.613 55.2352L106.281 42.9312H110.708L126.032 54.9431L130.102 56.3913L141.046 65.677Z" fill="#F50100"/>
<mask id="path-15-outside-1_7592_12569" maskUnits="userSpaceOnUse" x="109" y="43" width="30" height="25" fill="black">
<rect fill="white" x="109" y="43" width="30" height="25"/>
<path fill-rule="evenodd" clip-rule="evenodd" d="M125 44H122.5V54H110V56.5H122.5V66.5H125V56.5H137.5V54H125V44Z"/>
</mask>
<path fill-rule="evenodd" clip-rule="evenodd" d="M125 44H122.5V54H110V56.5H122.5V66.5H125V56.5H137.5V54H125V44Z" fill="#F50100"/>
<path d="M122.5 44V43.0625H121.562V44H122.5ZM125 44H125.938V43.0625H125V44ZM122.5 54V54.9375H123.438V54H122.5ZM110 54V53.0625H109.062V54H110ZM110 56.5H109.062V57.4375H110V56.5ZM122.5 56.5H123.438V55.5625H122.5V56.5ZM122.5 66.5H121.562V67.4375H122.5V66.5ZM125 66.5V67.4375H125.938V66.5H125ZM125 56.5V55.5625H124.062V56.5H125ZM137.5 56.5V57.4375H138.438V56.5H137.5ZM137.5 54H138.438V53.0625H137.5V54ZM125 54H124.062V54.9375H125V54ZM122.5 44.9375H125V43.0625H122.5V44.9375ZM123.438 54V44H121.562V54H123.438ZM110 54.9375H122.5V53.0625H110V54.9375ZM110.938 56.5V54H109.062V56.5H110.938ZM122.5 55.5625H110V57.4375H122.5V55.5625ZM123.438 66.5V56.5H121.562V66.5H123.438ZM125 65.5625H122.5V67.4375H125V65.5625ZM124.062 56.5V66.5H125.938V56.5H124.062ZM137.5 55.5625H125V57.4375H137.5V55.5625ZM136.562 54V56.5H138.438V54H136.562ZM125 54.9375H137.5V53.0625H125V54.9375ZM124.062 44V54H125.938V44H124.062Z" fill="#F7FCFF" mask="url(#path-15-outside-1_7592_12569)"/>
</g>
</g>
<path d="M132.92 66.7784L132.1 67.5362L132.181 66.4226L131.078 66.2539L131.999 65.6231L131.443 64.655L132.51 64.9819L132.92 63.9434L133.33 64.9819L134.398 64.655L133.842 65.6231L134.763 66.2539L133.659 66.4226L133.74 67.5362L132.92 66.7784Z" fill="#F7FCFF"/>
<path d="M140.24 62.7967L139.694 63.302L139.748 62.5595L139.012 62.4471L139.626 62.0266L139.255 61.3811L139.967 61.5991L140.24 60.9067L140.514 61.5991L141.226 61.3811L140.855 62.0266L141.469 62.4471L140.733 62.5595L140.787 63.302L140.24 62.7967Z" fill="#F7FCFF"/>
<path d="M141.52 57.4632L140.973 57.9685L141.027 57.226L140.291 57.1136L140.906 56.6931L140.535 56.0476L141.246 56.2656L141.52 55.5732L141.793 56.2656L142.505 56.0476L142.134 56.6931L142.748 57.1136L142.012 57.226L142.066 57.9685L141.52 57.4632Z" fill="#F7FCFF"/>
<path d="M144.72 60.13L144.173 60.6352L144.227 59.8928L143.492 59.7804L144.106 59.3598L143.735 58.7144L144.447 58.9324L144.72 58.24L144.993 58.9324L145.705 58.7144L145.334 59.3598L145.948 59.7804L145.213 59.8928L145.267 60.6352L144.72 60.13Z" fill="#F7FCFF"/>
<path d="M142.16 67.7967L141.614 68.302L141.668 67.5595L140.932 67.4471L141.546 67.0266L141.175 66.3811L141.887 66.5991L142.16 65.9067L142.434 66.5991L143.145 66.3811L142.775 67.0266L143.389 67.4471L142.653 67.5595L142.707 68.302L142.16 67.7967Z" fill="#F7FCFF"/>
<path d="M144.4 63.6392L143.845 63.9312L143.951 63.3127L143.501 62.8747L144.122 62.7844L144.4 62.2217L144.678 62.7844L145.299 62.8747L144.849 63.3127L144.956 63.9312L144.4 63.6392Z" fill="#F7FCFF"/>
<mask id="mask4_7592_12569" style="mask-type:luminance" maskUnits="userSpaceOnUse" x="110" y="111" width="50" height="38">
<rect x="110" y="111.5" width="50" height="37.5" fill="white"/>
</mask>
<g mask="url(#mask4_7592_12569)">
<path fill-rule="evenodd" clip-rule="evenodd" d="M110 111.5H160V149H110V111.5Z" fill="#E31D1C"/>
<path fill-rule="evenodd" clip-rule="evenodd" d="M121.115 126.743L115.032 131.511L117.355 124.3L113.298 120.551L118.791 120.348L121.115 114.544L123.439 120.348H128.923L124.875 124.3L126.719 131.511L121.115 126.743Z" fill="#FECA00"/>
<path fill-rule="evenodd" clip-rule="evenodd" d="M133.462 121.144L130.91 122.685L131.492 119.677L129.366 117.427L132.245 117.305L133.462 114.497L134.68 117.305H137.554L135.433 119.677L136.071 122.685L133.462 121.144Z" fill="#FECA00"/>
<path fill-rule="evenodd" clip-rule="evenodd" d="M136.587 127.394L134.035 128.935L134.617 125.927L132.491 123.677L135.37 123.555L136.587 120.747L137.805 123.555H140.679L138.558 125.927L139.196 128.935L136.587 127.394Z" fill="#FECA00"/>
<path fill-rule="evenodd" clip-rule="evenodd" d="M133.462 133.644L130.91 135.185L131.492 132.177L129.366 129.927L132.245 129.805L133.462 126.997L134.68 129.805H137.554L135.433 132.177L136.071 135.185L133.462 133.644Z" fill="#FECA00"/>
<path fill-rule="evenodd" clip-rule="evenodd" d="M127.212 136.769L124.66 138.31L125.242 135.302L123.116 133.052L125.995 132.93L127.212 130.122L128.43 132.93H131.304L129.183 135.302L129.821 138.31L127.212 136.769Z" fill="#FECA00"/>
</g>
<mask id="mask5_7592_12569" style="mask-type:luminance" maskUnits="userSpaceOnUse" x="180" y="111" width="50" height="38">
<rect x="180" y="111.5" width="50" height="37.5" fill="white"/>
</mask>
<g mask="url(#mask5_7592_12569)">
<path fill-rule="evenodd" clip-rule="evenodd" d="M180 136.5H230V149H180V136.5Z" fill="#FFD018"/>
<path fill-rule="evenodd" clip-rule="evenodd" d="M180 124H230V136.5H180V124Z" fill="#E31D1C"/>
<path fill-rule="evenodd" clip-rule="evenodd" d="M180 111.5H230V124H180V111.5Z" fill="#272727"/>
</g>
<mask id="mask6_7592_12569" style="mask-type:luminance" maskUnits="userSpaceOnUse" x="110" y="179" width="50" height="38">
<rect x="110" y="179" width="50" height="37.5" fill="white"/>
</mask>
<g mask="url(#mask6_7592_12569)">
<path fill-rule="evenodd" clip-rule="evenodd" d="M145 179H160V216.5H145V179Z" fill="#F50100"/>
<path fill-rule="evenodd" clip-rule="evenodd" d="M110 179H127.5V216.5H110V179Z" fill="#2E42A5"/>
<path fill-rule="evenodd" clip-rule="evenodd" d="M125 179H145V216.5H125V179Z" fill="#F7FCFF"/>
</g>
<mask id="mask7_7592_12569" style="mask-type:luminance" maskUnits="userSpaceOnUse" x="40" y="179" width="50" height="38">
<rect x="40" y="179" width="50" height="37.5" fill="white"/>
</mask>
<g mask="url(#mask7_7592_12569)">
<rect x="40" y="179" width="50" height="37.5" fill="#F7FCFF"/>
<path fill-rule="evenodd" clip-rule="evenodd" d="M67.5 179H61.25V194.625H40V200.875H61.25V216.5H67.5V200.875H90V194.625H67.5V179Z" fill="#F50302"/>
</g>
<mask id="mask8_7592_12569" style="mask-type:luminance" maskUnits="userSpaceOnUse" x="180" y="44" width="50" height="38">
<rect x="180" y="44" width="50" height="37.5" fill="white"/>
</mask>
<g mask="url(#mask8_7592_12569)">
<path fill-rule="evenodd" clip-rule="evenodd" d="M180 44V81.5H230V44H180Z" fill="#2E42A5"/>
<mask id="mask9_7592_12569" style="mask-type:luminance" maskUnits="userSpaceOnUse" x="180" y="44" width="50" height="38">
<path fill-rule="evenodd" clip-rule="evenodd" d="M180 44V81.5H230V44H180Z" fill="white"/>
</mask>
<g mask="url(#mask9_7592_12569)">
<mask id="mask10_7592_12569" style="mask-type:luminance" maskUnits="userSpaceOnUse" x="180" y="44" width="50" height="38">
<rect x="180" y="44" width="50" height="37.5" fill="white"/>
</mask>
<g mask="url(#mask10_7592_12569)">
<path d="M174.433 78.8209L185.435 83.4741L230.25 49.0591L236.053 42.1443L224.288 40.589L206.009 55.4195L191.296 65.4117L174.433 78.8209Z" fill="white"/>
<path d="M175.938 82.0812L181.544 84.7815L233.969 41.5019H226.098L175.938 82.0812Z" fill="#F50100"/>
<path d="M235.567 78.8209L224.565 83.4741L179.75 49.0591L173.947 42.1443L185.712 40.589L203.991 55.4195L218.704 65.4117L235.567 78.8209Z" fill="white"/>
<path d="M235.192 81.1607L229.587 83.8611L207.264 65.3308L200.646 63.2605L173.389 42.168H181.259L208.501 62.7599L215.737 65.2424L235.192 81.1607Z" fill="#F50100"/>
<mask id="path-49-inside-2_7592_12569" fill="white">
<path fill-rule="evenodd" clip-rule="evenodd" d="M210.903 40.875H199.097V56.5H176.918V69H199.097V84.625H210.903V69H233.168V56.5H210.903V40.875Z"/>
</mask>
<path fill-rule="evenodd" clip-rule="evenodd" d="M210.903 40.875H199.097V56.5H176.918V69H199.097V84.625H210.903V69H233.168V56.5H210.903V40.875Z" fill="#F50100"/>
<path d="M199.097 40.875V39.625H197.847V40.875H199.097ZM210.903 40.875H212.153V39.625H210.903V40.875ZM199.097 56.5V57.75H200.347V56.5H199.097ZM176.918 56.5V55.25H175.668V56.5H176.918ZM176.918 69H175.668V70.25H176.918V69ZM199.097 69H200.347V67.75H199.097V69ZM199.097 84.625H197.847V85.875H199.097V84.625ZM210.903 84.625V85.875H212.153V84.625H210.903ZM210.903 69V67.75H209.653V69H210.903ZM233.168 69V70.25H234.418V69H233.168ZM233.168 56.5H234.418V55.25H233.168V56.5ZM210.903 56.5H209.653V57.75H210.903V56.5ZM199.097 42.125H210.903V39.625H199.097V42.125ZM200.347 56.5V40.875H197.847V56.5H200.347ZM176.918 57.75H199.097V55.25H176.918V57.75ZM178.168 69V56.5H175.668V69H178.168ZM199.097 67.75H176.918V70.25H199.097V67.75ZM200.347 84.625V69H197.847V84.625H200.347ZM210.903 83.375H199.097V85.875H210.903V83.375ZM209.653 69V84.625H212.153V69H209.653ZM233.168 67.75H210.903V70.25H233.168V67.75ZM231.918 56.5V69H234.418V56.5H231.918ZM210.903 57.75H233.168V55.25H210.903V57.75ZM209.653 40.875V56.5H212.153V40.875H209.653Z" fill="white" mask="url(#path-49-inside-2_7592_12569)"/>
</g>
</g>
</g>
<mask id="mask11_7592_12569" style="mask-type:luminance" maskUnits="userSpaceOnUse" x="250" y="44" width="50" height="38">
<rect x="250" y="44" width="50" height="37.5" fill="white"/>
</mask>
<g mask="url(#mask11_7592_12569)">
<path fill-rule="evenodd" clip-rule="evenodd" d="M250 44V81.5H300V44H250Z" fill="#F7FCFF"/>
<mask id="mask12_7592_12569" style="mask-type:luminance" maskUnits="userSpaceOnUse" x="250" y="44" width="50" height="38">
<path fill-rule="evenodd" clip-rule="evenodd" d="M250 44V81.5H300V44H250Z" fill="white"/>
</mask>
<g mask="url(#mask12_7592_12569)">
<path fill-rule="evenodd" clip-rule="evenodd" d="M250 44V56.5H300V44H250Z" fill="#FF8C1A"/>
<path fill-rule="evenodd" clip-rule="evenodd" d="M250 69V81.5H300V69H250Z" fill="#5EAA22"/>
<path fill-rule="evenodd" clip-rule="evenodd" d="M268.75 62.75C268.75 66.2018 271.548 69 275 69C278.452 69 281.25 66.2018 281.25 62.75C281.25 59.2982 278.452 56.5 275 56.5C271.548 56.5 268.75 59.2982 268.75 62.75ZM279.688 62.75C279.688 65.3388 277.589 67.4375 275 67.4375C272.411 67.4375 270.312 65.3388 270.312 62.75C270.312 60.1612 272.411 58.0625 275 58.0625C277.589 58.0625 279.688 60.1612 279.688 62.75Z" fill="#3D58DB"/>
<path fill-rule="evenodd" clip-rule="evenodd" d="M274.992 64.0949L273.689 68.8976L274.452 63.9801L271.308 67.8376L274.005 63.6556L269.564 65.9009L273.729 63.1775L268.759 63.4224L273.671 62.6285L269.031 60.8306L273.842 62.1035L270.334 58.5736L274.211 61.6932L272.443 57.0418L274.716 61.4687L274.992 56.5L275.268 61.4687L277.541 57.0418L275.772 61.6932L279.649 58.5736L276.141 62.1035L280.952 60.8306L276.312 62.6285L281.225 63.4224L276.254 63.1775L280.419 65.9009L275.978 63.6556L278.676 67.8376L275.532 63.9801L276.295 68.8976L274.992 64.0949Z" fill="#3D58DB"/>
</g>
</g>
<mask id="mask13_7592_12569" style="mask-type:luminance" maskUnits="userSpaceOnUse" x="250" y="111" width="50" height="38">
<rect x="250" y="111.5" width="50" height="37.5" fill="white"/>
</mask>
<g mask="url(#mask13_7592_12569)">
<path fill-rule="evenodd" clip-rule="evenodd" d="M285 111.5H300V149H285V111.5Z" fill="#C51918"/>
<path fill-rule="evenodd" clip-rule="evenodd" d="M250 111.5H265V149H250V111.5Z" fill="#5EAA22"/>
<path fill-rule="evenodd" clip-rule="evenodd" d="M265 111.5H285V149H265V111.5Z" fill="white"/>
</g>
<mask id="mask14_7592_12569" style="mask-type:luminance" maskUnits="userSpaceOnUse" x="40" y="111" width="50" height="38">
<rect x="40" y="111.5" width="50" height="37.5" fill="white"/>
</mask>
<g mask="url(#mask14_7592_12569)">
<path fill-rule="evenodd" clip-rule="evenodd" d="M40 111.5V149H90V111.5H40Z" fill="#F7FCFF"/>
<mask id="mask15_7592_12569" style="mask-type:luminance" maskUnits="userSpaceOnUse" x="40" y="111" width="50" height="38">
<path fill-rule="evenodd" clip-rule="evenodd" d="M40 111.5V149H90V111.5H40Z" fill="white"/>
</mask>
<g mask="url(#mask15_7592_12569)">
<path fill-rule="evenodd" clip-rule="evenodd" d="M65 141.969C71.4721 141.969 76.7188 136.722 76.7188 130.25C76.7188 123.778 71.4721 118.531 65 118.531C58.5279 118.531 53.2812 123.778 53.2812 130.25C53.2812 136.722 58.5279 141.969 65 141.969Z" fill="#E31D1C"/>
</g>
</g>
<mask id="mask16_7592_12569" style="mask-type:luminance" maskUnits="userSpaceOnUse" x="250" y="179" width="50" height="38">
<rect x="250" y="179" width="50" height="37.5" fill="white"/>
</mask>
<g mask="url(#mask16_7592_12569)">
<mask id="mask17_7592_12569" style="mask-type:luminance" maskUnits="userSpaceOnUse" x="250" y="179" width="50" height="38">
<path fill-rule="evenodd" clip-rule="evenodd" d="M250 179V216.5H300V179H250Z" fill="white"/>
</mask>
<g mask="url(#mask17_7592_12569)">
<rect x="250" y="191.5" width="50" height="12.5" fill="#3D58DB"/>
<path fill-rule="evenodd" clip-rule="evenodd" d="M250 179V191.5H300V179H250Z" fill="#F7FCFF"/>
<path fill-rule="evenodd" clip-rule="evenodd" d="M250 204V216.5H300V204H250Z" fill="#C51918"/>
</g>
</g>
<mask id="mask18_7592_12569" style="mask-type:luminance" maskUnits="userSpaceOnUse" x="40" y="44" width="50" height="38">
<rect x="40" y="44" width="50" height="37.5" fill="white"/>
</mask>
<g mask="url(#mask18_7592_12569)">
<path fill-rule="evenodd" clip-rule="evenodd" d="M40 44H90V81.5H40V44Z" fill="#E31D1C"/>
<path fill-rule="evenodd" clip-rule="evenodd" d="M40 47.125V50.25H90V47.125H40ZM40 53.375V56.5H90V53.375H40ZM40 62.75V59.625H90V62.75H40ZM40 65.875V69H90V65.875H40ZM40 75.25V72.125H90V75.25H40ZM40 81.5V78.375H90V81.5H40Z" fill="#F7FCFF"/>
<rect x="40" y="44" width="28.125" height="21.875" fill="#2E42A5"/>
<path fill-rule="evenodd" clip-rule="evenodd" d="M43.1895 50.25L44.4419 49.3898L45.6536 50.25L45.2769 48.7193L46.25 47.7492H45.0115L44.4401 46.5L43.9528 47.7492H42.5L43.6123 48.7193L43.1895 50.25ZM49.4395 50.25L50.6919 49.3898L51.9036 50.25L51.5269 48.7193L52.5 47.7492H51.2615L50.6901 46.5L50.2028 47.7492H48.75L49.8623 48.7193L49.4395 50.25ZM56.9419 49.3898L55.6895 50.25L56.1123 48.7193L55 47.7492H56.4528L56.9401 46.5L57.5115 47.7492H58.75L57.7769 48.7193L58.1536 50.25L56.9419 49.3898ZM61.9395 50.25L63.1919 49.3898L64.4036 50.25L64.0269 48.7193L65 47.7492H63.7615L63.1901 46.5L62.7028 47.7492H61.25L62.3623 48.7193L61.9395 50.25ZM44.4419 55.6398L43.1895 56.5L43.6123 54.9693L42.5 53.9992H43.9528L44.4401 52.75L45.0115 53.9992H46.25L45.2769 54.9693L45.6536 56.5L44.4419 55.6398ZM49.4395 56.5L50.6919 55.6398L51.9036 56.5L51.5269 54.9693L52.5 53.9992H51.2615L50.6901 52.75L50.2028 53.9992H48.75L49.8623 54.9693L49.4395 56.5ZM56.9419 55.6398L55.6895 56.5L56.1123 54.9693L55 53.9992H56.4528L56.9401 52.75L57.5115 53.9992H58.75L57.7769 54.9693L58.1536 56.5L56.9419 55.6398ZM61.9395 56.5L63.1919 55.6398L64.4036 56.5L64.0269 54.9693L65 53.9992H63.7615L63.1901 52.75L62.7028 53.9992H61.25L62.3623 54.9693L61.9395 56.5ZM44.4419 61.8898L43.1895 62.75L43.6123 61.2193L42.5 60.2492H43.9528L44.4401 59L45.0115 60.2492H46.25L45.2769 61.2193L45.6536 62.75L44.4419 61.8898ZM49.4395 62.75L50.6919 61.8898L51.9036 62.75L51.5269 61.2193L52.5 60.2492H51.2615L50.6901 59L50.2028 60.2492H48.75L49.8623 61.2193L49.4395 62.75ZM56.9419 61.8898L55.6895 62.75L56.1123 61.2193L55 60.2492H56.4528L56.9401 59L57.5115 60.2492H58.75L57.7769 61.2193L58.1536 62.75L56.9419 61.8898ZM61.9395 62.75L63.1919 61.8898L64.4036 62.75L64.0269 61.2193L65 60.2492H63.7615L63.1901 59L62.7028 60.2492H61.25L62.3623 61.2193L61.9395 62.75ZM47.5669 52.5148L46.3145 53.375L46.7373 51.8443L45.625 50.8742H47.0778L47.5651 49.625L48.1365 50.8742H49.375L48.4019 51.8443L48.7786 53.375L47.5669 52.5148ZM52.5645 53.375L53.8169 52.5148L55.0286 53.375L54.6519 51.8443L55.625 50.8742H54.3865L53.8151 49.625L53.3278 50.8742H51.875L52.9873 51.8443L52.5645 53.375ZM60.0669 52.5148L58.8145 53.375L59.2373 51.8443L58.125 50.8742H59.5778L60.0651 49.625L60.6365 50.8742H61.875L60.9019 51.8443L61.2786 53.375L60.0669 52.5148ZM46.3145 59.625L47.5669 58.7648L48.7786 59.625L48.4019 58.0943L49.375 57.1242H48.1365L47.5651 55.875L47.0778 57.1242H45.625L46.7373 58.0943L46.3145 59.625ZM53.8169 58.7648L52.5645 59.625L52.9873 58.0943L51.875 57.1242H53.3278L53.8151 55.875L54.3865 57.1242H55.625L54.6519 58.0943L55.0286 59.625L53.8169 58.7648ZM58.8145 59.625L60.0669 58.7648L61.2786 59.625L60.9019 58.0943L61.875 57.1242H60.6365L60.0651 55.875L59.5778 57.1242H58.125L59.2373 58.0943L58.8145 59.625Z" fill="#F7FCFF"/>
</g>
</svg>
