<svg width="392" height="335" viewBox="0 0 392 335" fill="none" xmlns="http://www.w3.org/2000/svg">
<rect x="1" y="1" width="390" height="333" rx="9" fill="white" stroke="#2F3037" stroke-width="2"/>
<path d="M196.796 79C128.978 79 74 133.978 74 201.796C74 221.587 78.6822 240.285 86.9993 256.842H90.7335C82.7462 241.414 78.2343 223.896 78.2343 205.324C78.2343 143.353 128.472 93.1145 190.444 93.1145C252.416 93.1145 302.654 143.353 302.654 205.324C302.654 223.896 298.142 241.414 290.155 256.842H306.592C314.909 240.285 319.592 221.587 319.592 201.796C319.592 133.978 264.614 79 196.796 79Z" fill="#F7F7F8"/>
<path d="M78.6445 205.325C78.6445 223.896 83.1563 241.414 91.1437 256.842H87.4094C79.0923 240.285 74.4102 221.587 74.4102 201.796C74.4102 186.383 77.2499 171.633 82.4346 158.041H89.0636C82.3775 172.41 78.6445 188.432 78.6445 205.325Z" fill="#7238FA"/>
<g filter="url(#filter0_d_7224_14347)">
<circle cx="84.2916" cy="163.687" r="11.2916" fill="white"/>
<circle cx="84.2916" cy="163.687" r="10.233" stroke="#7238FA" stroke-width="2.11717"/>
</g>
<path d="M172.25 174.932C172.25 174.379 172.698 173.932 173.25 173.932H215.25C215.802 173.932 216.25 174.379 216.25 174.932V200.432C216.25 200.984 215.802 201.432 215.25 201.432H173.25C172.698 201.432 172.25 200.984 172.25 200.432V174.932Z" stroke="#18181C" stroke-width="3" stroke-linecap="round" stroke-linejoin="round"/>
<path d="M216.25 182.182H220.75C221.302 182.182 221.75 182.629 221.75 183.182V192.182C221.75 192.734 221.302 193.182 220.75 193.182H216.25V182.182Z" stroke="#18181C" stroke-width="3" stroke-linecap="round" stroke-linejoin="round"/>
<rect x="180.5" y="182.182" width="5.5" height="11" stroke="#18181C" stroke-width="3" stroke-linecap="square" stroke-linejoin="round"/>
<rect x="191.5" y="182.182" width="5.5" height="11" stroke="#18181C" stroke-width="3" stroke-linecap="square" stroke-linejoin="round"/>
<rect x="202.5" y="182.182" width="5.5" height="11" stroke="#18181C" stroke-width="3" stroke-linecap="square" stroke-linejoin="round"/>
<g filter="url(#filter1_d_7224_14347)">
<path d="M116.755 183.918L94.1719 170.745L99.0813 196.151L104.973 186.741L116.755 183.918Z" fill="#2F3037"/>
<path d="M117.002 184.948C117.422 184.847 117.739 184.5 117.802 184.073C117.865 183.645 117.662 183.222 117.288 183.004L94.7053 169.83C94.3465 169.621 93.8984 169.641 93.5596 169.881C93.2207 170.121 93.0537 170.538 93.1325 170.945L98.0419 196.351C98.1244 196.779 98.4597 197.112 98.8873 197.191C99.3149 197.271 99.7477 197.081 99.9785 196.712L105.64 187.67L117.002 184.948Z" stroke="white" stroke-width="2.11717" stroke-linejoin="round"/>
</g>
<defs>
<filter id="filter0_d_7224_14347" x="60.297" y="139.692" width="47.989" height="47.9892" filterUnits="userSpaceOnUse" color-interpolation-filters="sRGB">
<feFlood flood-opacity="0" result="BackgroundImageFix"/>
<feColorMatrix in="SourceAlpha" type="matrix" values="0 0 0 0 0 0 0 0 0 0 0 0 0 0 0 0 0 0 127 0" result="hardAlpha"/>
<feMorphology radius="1.41145" operator="dilate" in="SourceAlpha" result="effect1_dropShadow_7224_14347"/>
<feOffset/>
<feGaussianBlur stdDeviation="5.64578"/>
<feComposite in2="hardAlpha" operator="out"/>
<feColorMatrix type="matrix" values="0 0 0 0 0.0921569 0 0 0 0 0.0941177 0 0 0 0 0.107843 0 0 0 0.2 0"/>
<feBlend mode="normal" in2="BackgroundImageFix" result="effect1_dropShadow_7224_14347"/>
<feBlend mode="normal" in="SourceGraphic" in2="effect1_dropShadow_7224_14347" result="shape"/>
</filter>
<filter id="filter1_d_7224_14347" x="87.8203" y="165.805" width="35.2861" height="38.1092" filterUnits="userSpaceOnUse" color-interpolation-filters="sRGB">
<feFlood flood-opacity="0" result="BackgroundImageFix"/>
<feColorMatrix in="SourceAlpha" type="matrix" values="0 0 0 0 0 0 0 0 0 0 0 0 0 0 0 0 0 0 127 0" result="hardAlpha"/>
<feOffset dy="1.41145"/>
<feGaussianBlur stdDeviation="2.11717"/>
<feColorMatrix type="matrix" values="0 0 0 0 0 0 0 0 0 0 0 0 0 0 0 0 0 0 0.2 0"/>
<feBlend mode="normal" in2="BackgroundImageFix" result="effect1_dropShadow_7224_14347"/>
<feBlend mode="normal" in="SourceGraphic" in2="effect1_dropShadow_7224_14347" result="shape"/>
</filter>
</defs>
</svg>
