<svg width="30" height="30" viewBox="0 0 30 30" fill="none" xmlns="http://www.w3.org/2000/svg">
<rect x="7" y="7" width="22" height="22" rx="4" fill="#900034" fill-opacity="0.15"/>
<path d="M14.0844 5.354L4.36217 15.0772C3.87405 15.5654 3.87407 16.3568 4.36221 16.845L11.4328 23.9156C11.9209 24.4037 12.7124 24.4037 13.2006 23.9156L22.0394 15.0767C22.5276 14.5886 22.5276 13.7971 22.0394 13.309L14.0844 5.354ZM14.0844 5.354L11.25 2.51953" stroke="#900034" stroke-width="2" stroke-linecap="round" stroke-linejoin="round"/>
<path d="M20.4815 16.6338L13.2003 23.915C12.7121 24.4032 11.9207 24.4032 11.4325 23.915L4.59449 17.1287C3.84512 16.3794 4.30975 15.096 5.36517 15L22.0002 14" stroke="#900034" stroke-width="2" stroke-linecap="round" stroke-linejoin="round"/>
<path d="M23.75 26.25C25.1307 26.25 26.25 24.9432 26.25 23.3311C26.25 21.3114 24.5732 19.1614 23.7503 17.5C22.9256 19.1679 21.25 21.3099 21.25 23.3311C21.25 24.9432 22.3693 26.25 23.75 26.25Z" stroke="#900034" stroke-width="2" stroke-linecap="round" stroke-linejoin="round"/>
</svg>
