<svg width="20" height="20" viewBox="0 0 20 20" fill="none" xmlns="http://www.w3.org/2000/svg">
<path fill-rule="evenodd" clip-rule="evenodd" d="M14.7726 17.0827C14.6856 16.5677 14.2305 14.0608 13.1098 10.9836C15.8675 10.5427 18.2559 11.2988 18.4323 11.3564C18.0524 13.7363 16.6895 15.7881 14.7726 17.0827ZM10.0007 18.5408C7.93328 18.5408 6.03759 17.8059 4.55937 16.583C4.67227 16.6747 4.75106 16.7323 4.75106 16.7323C4.75106 16.7323 6.38803 13.1625 11.453 11.3975C11.4718 11.3905 11.4918 11.3858 11.5106 11.3799C12.7125 14.5018 13.2076 17.1168 13.3346 17.8635C12.3103 18.2986 11.1825 18.5408 10.0007 18.5408ZM1.45938 9.99946C1.45938 9.90892 1.46408 9.81955 1.46643 9.73019C1.61813 9.73371 5.83757 9.82896 10.2346 8.51318C10.4792 8.99175 10.7132 9.47973 10.9272 9.96536C10.8143 9.99593 10.7026 10.03 10.5909 10.0677C5.98222 11.5563 3.64436 15.7023 3.64436 15.7023C3.64436 15.7023 3.64789 15.7058 3.64789 15.707C2.28727 14.1937 1.45938 12.1936 1.45938 9.99946ZM6.35632 2.27764C6.47039 2.42932 8.04974 4.57054 9.52796 7.19739C5.42729 8.2874 1.86758 8.24389 1.64297 8.24036C2.19686 5.5947 3.97377 3.40175 6.35632 2.27764ZM7.95439 1.7085C7.95439 1.70967 7.95322 1.71085 7.95322 1.71085C7.95322 1.71085 7.94263 1.7132 7.92734 1.71555C7.93675 1.7132 7.94498 1.71202 7.95439 1.7085ZM15.6404 3.59226C15.6193 3.62401 14.4033 5.47597 11.1787 6.68357C9.71934 4.00146 8.11529 1.87082 7.98711 1.7015C8.63273 1.54511 9.30657 1.46045 10.0004 1.46045C12.1619 1.46045 14.1363 2.26708 15.6404 3.59226ZM18.5383 9.91472C18.4148 9.88767 15.5242 9.26565 12.5901 9.63487C12.529 9.48906 12.469 9.34208 12.4055 9.1951C12.2279 8.7765 12.0362 8.3626 11.8375 7.95575C15.2102 6.57884 16.5791 4.59988 16.5955 4.57637C17.7927 6.03089 18.5183 7.88873 18.5383 9.91472ZM19.7977 7.98754C19.666 7.34552 19.4685 6.71174 19.2133 6.10736C18.964 5.51473 18.6523 4.94327 18.2913 4.40943C17.935 3.8803 17.5234 3.38174 17.0718 2.93021C16.619 2.47751 16.1216 2.06714 15.5912 1.70968C15.0573 1.34752 14.4858 1.03827 13.8931 0.786642C13.2886 0.532659 12.656 0.335117 12.0139 0.204598C11.3553 0.069375 10.678 0 10.0006 0C9.32204 0 8.64468 0.069375 7.98612 0.204598C7.34404 0.335117 6.71135 0.532659 6.1069 0.786642C5.5142 1.03827 4.94267 1.34752 4.4076 1.70968C3.8784 2.06714 3.38096 2.47751 2.92821 2.93021C2.47663 3.38174 2.06621 3.8803 1.70871 4.40943C1.34768 4.94327 1.03604 5.51473 0.786735 6.10736C0.53037 6.71174 0.33398 7.34552 0.20227 7.98754C0.0682072 8.64484 0 9.32212 0 9.99941C0 10.6791 0.0682072 11.3563 0.20227 12.0148C0.33398 12.6568 0.53037 13.2894 0.786735 13.8926C1.03604 14.4853 1.34768 15.0591 1.70871 15.5929C2.06621 16.1221 2.47663 16.6183 2.92821 17.0721C3.38096 17.5237 3.8784 17.9329 4.4076 18.2915C4.94267 18.6525 5.5142 18.9629 6.1069 19.2134C6.71135 19.4697 7.34404 19.6649 7.98612 19.7954C8.64468 19.9318 9.32204 20 10.0006 20C10.678 20 11.3553 19.9318 12.0139 19.7954C12.656 19.6649 13.2886 19.4697 13.8931 19.2134C14.4858 18.9629 15.0573 18.6525 15.5912 18.2915C16.1216 17.9329 16.619 17.5237 17.0718 17.0721C17.5234 16.6183 17.935 16.1221 18.2913 15.5929C18.6523 15.0591 18.964 14.4853 19.2133 13.8926C19.4685 13.2894 19.666 12.6568 19.7977 12.0148C19.9318 11.3563 20 10.6791 20 9.99941C20 9.32212 19.9318 8.64484 19.7977 7.98754Z" fill="#C8C9D0"/>
</svg>
