<svg width="48" height="48" viewBox="0 0 48 48" fill="none" xmlns="http://www.w3.org/2000/svg">
<path d="M24 40.0002H8C6.89543 40.0002 6 39.1048 6 38.0002V18.0002C6 16.8957 6.89543 16.0002 8 16.0002H12C13.1046 16.0002 14 16.8957 14 18.0002V32.8679C14 33.5704 14.3686 34.2214 14.971 34.5828L24 40.0002ZM24 40.0002H40C41.1046 40.0002 42 39.1048 42 38.0002V18.0002C42 16.8957 41.1046 16.0002 40 16.0002H36C34.8954 16.0002 34 16.8957 34 18.0002V32.8679C34 33.5704 33.6314 34.2214 33.029 34.5828L24 40.0002Z" stroke="black" stroke-width="2" stroke-linecap="round"/>
<path d="M14 10.9356C14 9.52561 15.4198 8.55831 16.7319 9.07429L23.2688 11.6449C23.7388 11.8297 24.2613 11.8299 24.7314 11.6454L31.2693 9.07948C32.5813 8.56459 34 9.53186 34 10.9412V32.8676C34 33.5701 33.6314 34.2211 33.029 34.5826L25.0287 39.3828C24.3955 39.7627 23.6045 39.7628 22.9712 39.383L14.9715 34.5861C14.3688 34.2247 14 33.5735 14 32.8708V10.9356Z" stroke="black" stroke-width="2" stroke-linecap="round"/>
<path d="M24 12V40" stroke="black" stroke-width="2" stroke-linecap="round"/>
</svg>
