<svg width="40" height="40" viewBox="0 0 40 40" fill="none" xmlns="http://www.w3.org/2000/svg">
<path d="M8.33366 35H31.6642C32.5858 35 33.3324 34.2521 33.3309 33.3305L33.2946 11.6667L26.6279 5H8.33366C7.41318 5 6.66699 5.74619 6.66699 6.66667V33.3333C6.66699 34.2538 7.41318 35 8.33366 35Z" stroke="black" stroke-width="2" stroke-linecap="round" stroke-linejoin="round"/>
<path d="M33.2946 11.6667L26.6279 5V11.6667H33.2946Z" fill="#FAD338" stroke="black" stroke-width="2" stroke-linecap="round" stroke-linejoin="round"/>
<path d="M14.2747 27.8239C14.2747 27.4859 14.1874 27.2314 14.0127 27.0605C13.8418 26.8858 13.5285 26.7055 13.0728 26.5194C12.241 26.2042 11.6429 25.8358 11.2783 25.4142C10.9137 24.9889 10.7314 24.4876 10.7314 23.9103C10.7314 23.2115 10.9783 22.6514 11.472 22.2298C11.9695 21.8045 12.5999 21.5918 13.3633 21.5918C13.8722 21.5918 14.326 21.7 14.7248 21.9165C15.1235 22.1292 15.4293 22.4311 15.6419 22.8223C15.8584 23.2134 15.9666 23.6578 15.9666 24.1553H14.2975C14.2975 23.7679 14.214 23.4736 14.0469 23.2723C13.8836 23.0672 13.6462 22.9647 13.3348 22.9647C13.0424 22.9647 12.8145 23.052 12.6512 23.2267C12.4879 23.3976 12.4062 23.6293 12.4062 23.9217C12.4062 24.1496 12.4974 24.3566 12.6797 24.5426C12.862 24.7249 13.1848 24.9148 13.6481 25.1123C14.457 25.4047 15.0438 25.7636 15.4084 26.189C15.7767 26.6143 15.9609 27.1555 15.9609 27.8125C15.9609 28.5341 15.7312 29.098 15.2716 29.5044C14.8121 29.9108 14.1874 30.1139 13.3975 30.1139C12.862 30.1139 12.374 30.0038 11.9334 29.7835C11.4929 29.5633 11.1473 29.248 10.8966 28.8379C10.6498 28.4277 10.5264 27.9435 10.5264 27.3853H12.2069C12.2069 27.8638 12.2999 28.2113 12.486 28.4277C12.6721 28.6442 12.9759 28.7524 13.3975 28.7524C13.9823 28.7524 14.2747 28.4429 14.2747 27.8239Z" fill="black"/>
<path d="M19.772 27.7214L21.1676 21.7057H23.0361L20.6436 30H18.9004L16.5249 21.7057H18.382L19.772 27.7214Z" fill="black"/>
<path d="M29.3765 29.0601C29.0537 29.4095 28.6568 29.6734 28.1859 29.8519C27.7188 30.0266 27.2061 30.1139 26.6478 30.1139C25.6946 30.1139 24.954 29.8196 24.4261 29.231C23.8982 28.6385 23.6267 27.7783 23.6115 26.6504V25.1579C23.6115 24.0148 23.8602 23.1356 24.3577 22.5203C24.859 21.9013 25.5882 21.5918 26.5452 21.5918C27.4453 21.5918 28.1232 21.814 28.5789 22.2583C29.0385 22.7026 29.3043 23.3995 29.3765 24.349H27.7472C27.7017 23.8211 27.5915 23.4622 27.4168 23.2723C27.2421 23.0786 26.9687 22.9818 26.5965 22.9818C26.1446 22.9818 25.8161 23.147 25.611 23.4774C25.4059 23.8078 25.2996 24.3338 25.292 25.0553V26.5592C25.292 27.315 25.404 27.8657 25.6281 28.2113C25.856 28.5531 26.2281 28.724 26.7446 28.724C27.075 28.724 27.3428 28.6575 27.5479 28.5246L27.696 28.422V26.901H26.5225V25.6364H29.3765V29.0601Z" fill="black"/>
</svg>
