<svg width="392" height="392" viewBox="0 0 392 392" fill="none" xmlns="http://www.w3.org/2000/svg">
<path d="M186.633 9.63477C186.633 9.08248 187.081 8.63477 187.633 8.63477L203.633 8.63477C204.185 8.63477 204.633 9.08248 204.633 9.63477V21.6348C204.633 22.1871 204.185 22.6348 203.633 22.6348H187.633C187.081 22.6348 186.633 22.1871 186.633 21.6348V9.63477Z" stroke="#5E5F6E" stroke-width="2" stroke-linecap="round"/>
<path d="M187.133 9.13477L195.025 15.1702C195.384 15.4444 195.882 15.4444 196.24 15.1702L204.133 9.13477" stroke="#5E5F6E" stroke-width="2" stroke-linecap="round"/>
<path d="M21.6327 192.635C21.6327 194.848 21.8483 196.922 23.2327 198.768L23.4327 199.035C23.9271 199.694 23.4567 200.635 22.6327 200.635H8.63267C7.80863 200.635 7.33825 199.694 7.83267 199.035L8.03267 198.768C9.41704 196.922 9.63267 194.848 9.63267 192.635C9.63267 189.321 12.124 186.635 15.6327 186.635C19.1413 186.635 21.6327 189.321 21.6327 192.635Z" stroke="#5E5F6E" stroke-width="2" stroke-linecap="round"/>
<path d="M15.6331 204.635C17.5006 204.635 19.0692 203.355 19.5097 201.625C19.646 201.089 19.1854 200.635 18.6331 200.635H12.6331C12.0809 200.635 11.6203 201.089 11.7566 201.625C12.1971 203.355 13.7657 204.635 15.6331 204.635Z" stroke="#5E5F6E" stroke-width="2" stroke-linecap="round"/>
<path d="M189.625 371.421L189.696 372.418L189.625 371.421ZM187.285 370.429L188.051 369.786C187.743 369.42 187.218 369.323 186.8 369.555C186.381 369.787 186.186 370.284 186.334 370.739L187.285 370.429ZM190.288 371.869L191.24 371.565L190.288 371.869ZM191.715 376.33L192.667 376.025L191.715 376.33ZM189.408 376.944L190.358 376.635L189.408 376.944ZM190.358 378.635H190.763V376.635H190.358V378.635ZM189.554 370.424C188.955 370.466 188.409 370.213 188.051 369.786L186.519 371.073C187.27 371.966 188.429 372.509 189.696 372.418L189.554 370.424ZM186.334 370.739L188.457 377.254L190.358 376.635L188.236 370.12L186.334 370.739ZM189.335 372.174L190.763 376.635L192.667 376.025L191.24 371.565L189.335 372.174ZM189.696 372.418C189.534 372.43 189.385 372.329 189.335 372.174L191.24 371.565C191.008 370.841 190.312 370.369 189.554 370.424L189.696 372.418ZM190.763 378.635C192.118 378.635 193.08 377.316 192.667 376.025L190.763 376.635L190.763 376.635V378.635ZM190.358 376.635H190.358L188.457 377.254C188.725 378.077 189.493 378.635 190.358 378.635V376.635Z" fill="#5E5F6E"/>
<path d="M201.64 378.421L201.569 379.419L201.64 378.421ZM203.98 377.43L204.931 377.739C205.079 377.284 204.884 376.788 204.465 376.555C204.047 376.323 203.522 376.42 203.214 376.787L203.98 377.43ZM200.978 378.87L200.025 378.565L200.978 378.87ZM199.55 383.33L200.503 383.635L199.55 383.33ZM201.858 383.945L200.907 383.635L201.858 383.945ZM200.907 383.635H200.503V385.635H200.907V383.635ZM201.569 379.419C202.837 379.509 203.995 378.967 204.746 378.073L203.214 376.787C202.856 377.213 202.31 377.466 201.712 377.424L201.569 379.419ZM203.029 377.12L200.907 383.635L202.808 384.254L204.931 377.739L203.029 377.12ZM200.025 378.565L198.598 383.025L200.503 383.635L201.93 379.174L200.025 378.565ZM201.712 377.424C200.954 377.37 200.257 377.841 200.025 378.565L201.93 379.174C201.88 379.329 201.731 379.43 201.569 379.419L201.712 377.424ZM200.503 383.635L200.503 383.635L198.598 383.025C198.185 384.316 199.148 385.635 200.503 385.635V383.635ZM200.907 385.635C201.773 385.635 202.54 385.078 202.808 384.254L200.907 383.635V385.635Z" fill="#5E5F6E"/>
<path d="M186.633 368.635C186.633 367.014 188.008 365.733 189.625 365.849L191.311 365.969C192.619 366.062 193.633 367.151 193.633 368.463V368.807C193.633 370.119 192.619 371.207 191.311 371.301L189.625 371.421C188.008 371.537 186.633 370.256 186.633 368.635Z" stroke="#5E5F6E" stroke-width="2" stroke-linecap="round"/>
<path d="M204.633 375.635C204.633 374.014 203.257 372.733 201.64 372.849L199.955 372.969C198.646 373.062 197.633 374.151 197.633 375.463V375.807C197.633 377.119 198.646 378.207 199.955 378.301L201.64 378.421C203.257 378.537 204.633 377.256 204.633 375.635Z" stroke="#5E5F6E" stroke-width="2" stroke-linecap="round"/>
<path d="M193.633 369.853V367.416C193.633 366.968 194.081 366.6 194.632 366.637C195.053 366.666 195.468 366.711 195.876 366.774C196.325 366.843 196.633 367.17 196.633 367.541V369.729C196.633 370.099 196.325 370.427 195.876 370.495C195.468 370.558 195.053 370.604 194.632 370.632C194.081 370.669 193.633 370.302 193.633 369.853Z" stroke="#5E5F6E" stroke-width="2" stroke-linecap="round"/>
<path d="M197.633 376.853V374.416C197.633 373.968 197.184 373.6 196.634 373.637C196.212 373.666 195.797 373.711 195.389 373.774C194.941 373.843 194.633 374.17 194.633 374.541V376.729C194.633 377.099 194.941 377.427 195.389 377.495C195.797 377.558 196.212 377.604 196.634 377.632C197.184 377.669 197.633 377.302 197.633 376.853Z" stroke="#5E5F6E" stroke-width="2" stroke-linecap="round"/>
<path d="M189.633 368.635L187.633 368.635" stroke="#5E5F6E" stroke-width="2" stroke-linecap="round"/>
<path d="M201.633 375.635L203.633 375.635" stroke="#5E5F6E" stroke-width="2" stroke-linecap="round"/>
<path d="M366.633 191.635C366.633 191.082 367.081 190.635 367.633 190.635H371.219C371.484 190.635 371.738 190.529 371.926 190.342L373.34 188.928C373.527 188.74 373.782 188.635 374.047 188.635H377.219C377.484 188.635 377.738 188.74 377.926 188.928L379.34 190.342C379.527 190.529 379.782 190.635 380.047 190.635H383.633C384.185 190.635 384.633 191.082 384.633 191.635V201.635C384.633 202.187 384.185 202.635 383.633 202.635H367.633C367.081 202.635 366.633 202.187 366.633 201.635V191.635Z" stroke="#5E5F6E" stroke-width="2" stroke-linecap="round"/>
<path d="M378.633 196.635C378.633 198.292 377.29 199.635 375.633 199.635C373.976 199.635 372.633 198.292 372.633 196.635C372.633 194.978 373.976 193.635 375.633 193.635C377.29 193.635 378.633 194.978 378.633 196.635Z" stroke="#5E5F6E" stroke-width="2" stroke-linecap="round"/>
<path d="M322.205 56.3345C322.596 55.944 323.229 55.944 323.619 56.3345L334.933 67.6483C335.323 68.0388 335.323 68.6719 334.933 69.0625L323.619 80.3762C323.229 80.7667 322.596 80.7667 322.205 80.3762L310.891 69.0625C310.501 68.6719 310.501 68.0388 310.891 67.6483L322.205 56.3345Z" stroke="#5E5F6E" stroke-width="2" stroke-linecap="round"/>
<path d="M326.447 64.8198L319.376 71.8909" stroke="#5E5F6E" stroke-width="2" stroke-linecap="round"/>
<path d="M326.448 71.8909L319.377 64.8198" stroke="#5E5F6E" stroke-width="2" stroke-linecap="round"/>
<g clip-path="url(#clip0_7224_14265)">
<path d="M69.0603 325.035L78.5594 322.517C79.3046 322.319 79.5554 321.388 79.0102 320.843L70.1946 312.027C69.6405 311.473 68.6933 311.743 68.514 312.506L66.2979 321.931C66.2553 322.112 66.163 322.277 66.0314 322.409L60.8111 327.628C60.3395 328.099 60.4526 328.891 61.0372 329.212L62.8637 330.214C63.2534 330.427 63.7374 330.358 64.0516 330.044L69.0603 325.035ZM69.0603 325.035L69.0612 325.036" stroke="#5E5F6E" stroke-width="2" stroke-linecap="round"/>
<path d="M66.2324 322.207L69.0608 325.035" stroke="#5E5F6E" stroke-width="2" stroke-linecap="round"/>
</g>
<path d="M68.3728 74.9411C70.4138 74.9362 72.4532 74.1552 74.0104 72.598C77.1346 69.4738 77.1346 64.4085 74.0104 61.2843C70.8862 58.1601 65.8209 58.1601 62.6967 61.2843C59.5725 64.4085 59.5725 69.4738 62.6967 72.598C64.2637 74.165 66.319 74.9461 68.3728 74.9411ZM68.3728 74.9411L68.3543 81.5023" stroke="#5E5F6E" stroke-width="2" stroke-linecap="round"/>
<path d="M322.896 322.907C320.944 320.954 317.778 320.954 315.826 322.907M322.896 322.907C324.849 324.859 324.849 328.026 322.897 329.978M322.896 322.907C320.945 320.955 317.777 320.956 315.826 322.907M322.896 322.907C324.848 324.858 324.848 328.027 322.897 329.978M315.826 322.907L313.704 325.028C313.314 325.419 313.314 326.052 313.704 326.443L319.361 332.1C319.752 332.49 320.385 332.49 320.776 332.1L322.897 329.978" stroke="#5E5F6E" stroke-width="2" stroke-linecap="round"/>
<path d="M329.968 322.907C328.016 324.86 324.85 324.86 322.897 322.907M329.968 322.907L332.09 320.786C332.48 320.395 332.48 319.762 332.09 319.372L326.433 313.715C326.042 313.324 325.409 313.324 325.018 313.715L322.897 315.836M329.968 322.907C328.017 324.859 324.849 324.859 322.897 322.907M322.897 322.907C320.945 320.954 320.945 317.789 322.897 315.836M322.897 322.907C320.946 320.955 320.946 317.788 322.897 315.836" stroke="#5E5F6E" stroke-width="2" stroke-linecap="round"/>
<path d="M311.599 324.328L321.498 334.228" stroke="#5E5F6E" stroke-width="2" stroke-linecap="round"/>
<path d="M324.326 311.6L334.226 321.5" stroke="#5E5F6E" stroke-width="2" stroke-linecap="round"/>
<path d="M351.652 273.287L362.577 278.038C363.1 278.265 363.715 278.01 363.848 277.456C364.406 275.134 363.727 273.042 361.965 271.462C361.617 271.15 361.476 270.654 361.662 270.226L362.939 267.29L359.271 265.695L358.001 268.615C357.812 269.051 357.342 269.285 356.869 269.238C354.528 269.003 352.517 269.976 351.21 271.966C350.898 272.441 351.131 273.061 351.652 273.287Z" stroke="#5E5F6E" stroke-width="2" stroke-linecap="round"/>
<path d="M363.098 261.907L361.104 266.493" stroke="#5E5F6E" stroke-width="2" stroke-linecap="round"/>
<path d="M363.895 260.073C364.115 259.567 364.705 259.335 365.211 259.555L369.796 261.549C370.303 261.769 370.535 262.358 370.315 262.865L369.517 264.699C369.297 265.205 368.708 265.437 368.201 265.217L363.616 263.223C363.11 263.003 362.877 262.414 363.098 261.907L363.895 260.073Z" stroke="#5E5F6E" stroke-width="2" stroke-linecap="round"/>
<path d="M363.855 267.689L358.353 265.297" stroke="#5E5F6E" stroke-width="2" stroke-linecap="round"/>
<path d="M118.148 366.115L115.986 360.479C115.79 359.969 116.039 359.398 116.544 359.193L117.689 358.731C118.207 358.521 118.797 358.777 118.997 359.3L119.984 361.871C120.192 362.415 120.82 362.666 121.346 362.417L131.85 357.434C132.377 357.184 133.004 357.436 133.213 357.979L133.649 359.117C133.838 359.609 133.612 360.163 133.134 360.383L119.5 366.665C118.975 366.907 118.355 366.655 118.148 366.115Z" stroke="#5E5F6E" stroke-width="2" stroke-linecap="round"/>
<path d="M260.933 25.2311C261.07 23.3956 261.513 21.5517 262.288 19.7686C262.315 19.7076 262.342 19.6464 262.369 19.5851C262.586 19.1026 263.156 18.9037 263.639 19.1174L265.861 20.0983C266.25 20.2703 266.488 20.6702 266.454 21.0946L266.204 24.1471C266.163 24.6514 265.751 25.0454 265.246 25.0649L260.933 25.2311ZM260.933 25.2311C260.558 30.3354 262.543 35.3922 266.303 38.8703M266.303 38.8703L269.624 36.0652C270.006 35.7431 270.566 35.7516 270.938 36.085L273.194 38.1108C273.515 38.3985 273.615 38.8591 273.443 39.254L272.459 41.5137C272.249 41.9966 271.699 42.2365 271.214 42.0318C271.156 42.0074 271.098 41.9827 271.041 41.9576C269.249 41.1785 267.66 40.126 266.303 38.8703Z" stroke="#5E5F6E" stroke-width="2" stroke-linecap="round"/>
<path d="M32.9591 132.536C35.4869 131.836 37.6884 130.042 38.8158 127.45C40.7978 122.891 38.7093 117.589 34.151 115.607C29.5927 113.625 24.2907 115.714 22.3087 120.272C21.1813 122.865 21.3709 125.698 22.5829 128.025" stroke="#5E5F6E" stroke-width="2" stroke-linecap="round"/>
<path d="M29.6328 124.228C29.8353 124.742 30.4159 124.994 30.9298 124.792C31.4436 124.589 31.6961 124.009 31.4937 123.495C31.2913 122.981 28.3643 118.279 28.3643 118.279C28.3643 118.279 29.4304 123.714 29.6328 124.228Z" stroke="#5E5F6E" stroke-width="2" stroke-linecap="round" stroke-linejoin="round"/>
<path d="M29.6452 123.462C29.425 123.969 29.657 124.558 30.1635 124.778C30.67 124.998 31.2591 124.766 31.4793 124.26C31.6995 123.753 31.4675 123.164 30.961 122.944C30.4545 122.724 29.8654 122.956 29.6452 123.462Z" stroke="#5E5F6E" stroke-width="2" stroke-linecap="round"/>
<path d="M259.333 363.121C259.113 362.615 259.345 362.026 259.852 361.805L270.856 357.02C271.363 356.8 271.952 357.032 272.172 357.539L275.362 364.875C275.582 365.382 275.35 365.971 274.844 366.191L263.839 370.976C263.333 371.196 262.744 370.964 262.523 370.458L259.333 363.121Z" stroke="#5E5F6E" stroke-width="2" stroke-linecap="round"/>
<path d="M268.264 363.6C268.484 364.106 268.252 364.695 267.746 364.915C267.239 365.136 266.65 364.904 266.43 364.397C266.21 363.891 266.442 363.301 266.948 363.081C267.455 362.861 268.044 363.093 268.264 363.6Z" stroke="#5E5F6E" stroke-width="2" stroke-linecap="round"/>
<path d="M259.173 357.739C258.292 355.713 259.631 353.178 262.163 352.077C264.696 350.975 267.463 351.725 268.344 353.751L269.939 357.419" stroke="#5E5F6E" stroke-width="2" stroke-linecap="round"/>
<circle cx="125.118" cy="30.0225" r="9" transform="rotate(-23.5 125.118 30.0225)" stroke="#5E5F6E" stroke-width="2"/>
<path d="M121.529 21.7689L124.719 29.1054C124.94 29.6119 125.529 29.8439 126.035 29.6237L133.372 26.4337" stroke="#5E5F6E" stroke-width="2" stroke-linecap="round"/>
<path d="M33.2117 273.488C37.77 271.506 40.037 266.615 38.2752 262.563C36.5134 258.511 31.39 256.833 26.8317 258.815C22.2734 260.797 20.0063 265.688 21.7681 269.74C22.2946 270.951 23.1213 271.95 24.1433 272.702C24.3697 272.869 24.5318 273.112 24.5771 273.389L25.1144 276.682L27.9183 274.512C28.1236 274.353 28.3823 274.282 28.6412 274.3C30.1317 274.399 31.7026 274.144 33.2117 273.488Z" stroke="#5E5F6E" stroke-width="2" stroke-linecap="round" stroke-linejoin="round"/>
<path fill-rule="evenodd" clip-rule="evenodd" d="M357.658 116.865C353.1 118.847 351.011 124.149 352.993 128.707C354.975 133.265 360.277 135.354 364.835 133.372C369.394 131.39 371.482 126.088 369.5 121.529C367.518 116.971 362.216 114.883 357.658 116.865Z" stroke="#5E5F6E" stroke-width="2" stroke-linecap="round"/>
<path d="M359.253 120.533L360.848 124.201C361.068 124.708 361.657 124.94 362.164 124.719L365.832 123.124" stroke="#5E5F6E" stroke-width="2" stroke-linecap="round"/>
<path d="M250.135 291.267C249.835 290.804 249.966 290.185 250.429 289.884L260.689 283.221C261.341 282.798 262.206 283.248 262.233 284.025L262.355 287.487C262.368 287.857 262.584 288.189 262.916 288.351L266.029 289.871C266.728 290.212 266.787 291.185 266.135 291.608L255.876 298.271C255.413 298.571 254.793 298.44 254.493 297.977L250.135 291.267Z" stroke="#5E5F6E" stroke-width="2" stroke-linecap="round"/>
<path d="M259.395 305.525L254.493 297.977" stroke="#5E5F6E" stroke-width="2" stroke-linecap="round"/>
<path d="M130.359 103.154L127.091 98.1224C125.587 95.8065 126.246 92.7099 128.562 91.2059C130.877 89.7019 133.974 90.3601 135.478 92.676L138.746 97.7081" stroke="#5E5F6E" stroke-width="2" stroke-linecap="round"/>
<path d="M130.195 93.7219L135.642 102.109" stroke="#5E5F6E" stroke-width="2" stroke-linecap="round"/>
<path d="M123.737 100.301C121.03 96.1324 122.214 90.5585 126.383 87.8513C130.552 85.1441 136.126 86.3289 138.833 90.4976" stroke="#5E5F6E" stroke-width="2" stroke-linecap="round"/>
<path d="M292.087 124.512C288.316 126.902 288.223 133.928 291.662 140.251C291.932 140.747 292.569 140.892 293.043 140.585L306.379 131.924C306.857 131.613 306.981 130.965 306.63 130.516C302.267 124.93 296.078 121.983 292.087 124.512Z" stroke="#5E5F6E" stroke-width="2" stroke-linecap="round"/>
<path d="M296.452 131.222C295.065 132.122 294.662 133.985 295.562 135.372L297.197 137.888L302.227 134.621L300.593 132.102C299.693 130.715 297.838 130.321 296.452 131.222Z" stroke="#5E5F6E" stroke-width="2" stroke-linecap="round"/>
<path d="M90.7316 264.614C91.765 259.752 96.5442 256.648 101.406 257.681" stroke="#5E5F6E" stroke-width="2" stroke-linecap="round"/>
<path d="M86.8199 263.782C88.3126 256.759 95.2158 252.276 102.239 253.769" stroke="#5E5F6E" stroke-width="2" stroke-linecap="round"/>
<path d="M94.6443 265.445C95.2184 262.744 97.8735 261.02 100.575 261.594" stroke="#5E5F6E" stroke-width="2" stroke-linecap="round"/>
<path d="M98.557 266.278C98.6718 265.737 99.2028 265.393 99.743 265.507" stroke="#5E5F6E" stroke-width="2" stroke-linecap="round"/>
<path d="M177.409 314.583C176.29 319.427 171.458 322.446 166.615 321.328C161.772 320.21 158.752 315.377 159.87 310.534C160.988 305.691 165.821 302.671 170.664 303.789C175.507 304.908 178.527 309.74 177.409 314.583Z" stroke="#5E5F6E" stroke-width="2" stroke-linecap="round"/>
<path d="M165.042 314.807L172.238 310.311" stroke="#5E5F6E" stroke-width="2" stroke-linecap="round"/>
<path d="M167.365 309.186C167.241 309.724 166.704 310.059 166.166 309.935C165.628 309.811 165.292 309.274 165.417 308.736C165.541 308.198 166.078 307.862 166.616 307.986C167.154 308.111 167.49 308.648 167.365 309.186Z" stroke="#5E5F6E" stroke-width="2" stroke-linecap="round"/>
<path d="M171.862 316.382C171.738 316.92 171.201 317.255 170.663 317.131C170.125 317.007 169.789 316.47 169.914 315.932C170.038 315.394 170.575 315.058 171.113 315.182C171.651 315.307 171.987 315.844 171.862 316.382Z" stroke="#5E5F6E" stroke-width="2" stroke-linecap="round"/>
<g clip-path="url(#clip1_7224_14265)">
<path d="M304.69 216.707C304.814 216.169 305.351 215.834 305.889 215.958L321.479 219.557C322.017 219.681 322.353 220.218 322.229 220.756L319.979 230.5C319.855 231.038 319.318 231.374 318.78 231.249L303.19 227.65C302.652 227.526 302.316 226.989 302.441 226.451L304.69 216.707Z" stroke="#5E5F6E" stroke-width="2" stroke-linecap="round"/>
<path d="M316.682 222.555C316.558 223.093 316.894 223.63 317.432 223.754C317.97 223.878 318.507 223.543 318.631 223.004C318.755 222.466 318.42 221.929 317.882 221.805C317.343 221.681 316.807 222.016 316.682 222.555Z" stroke="#5E5F6E" stroke-width="2" stroke-linecap="round"/>
<path d="M322.379 215.659L308.185 214.316C307.686 214.269 307.23 214.599 307.117 215.087L306.864 216.183" stroke="#5E5F6E" stroke-width="2" stroke-linecap="round"/>
<path d="M305.813 225.177L309.711 226.077" stroke="#5E5F6E" stroke-width="2" stroke-linecap="round"/>
<path d="M306.488 222.254L310.386 223.154" stroke="#5E5F6E" stroke-width="2" stroke-linecap="round"/>
</g>
<path d="M224.652 69.9409L220.603 87.4796" stroke="#5E5F6E" stroke-width="2" stroke-linecap="round"/>
<path d="M218.055 80.7336L217.943 81.2208C217.508 83.1042 218.9 85.0339 221.053 85.5309C223.205 86.0278 225.303 84.9038 225.738 83.0204C226.172 81.1369 224.352 79.6763 222.628 78.7103C220.81 77.692 219.083 76.2836 219.517 74.4002C219.952 72.5167 222.05 71.3927 224.202 71.8897C226.355 72.3866 227.747 74.3163 227.312 76.1998L227.2 76.687" stroke="#5E5F6E" stroke-width="2" stroke-linecap="round"/>
<path d="M71.7399 158.821C71.8641 158.283 72.4011 157.948 72.9392 158.072L88.5291 161.671C89.0673 161.795 89.4028 162.332 89.2786 162.871L85.6793 178.46C85.5551 178.999 85.0181 179.334 84.48 179.21L68.8901 175.611C68.352 175.486 68.0164 174.949 68.1407 174.411L71.7399 158.821Z" stroke="#5E5F6E" stroke-width="2" stroke-linecap="round"/>
<path d="M82.6075 169.541L77.6611 164.293L75.8615 172.088L82.6075 169.541Z" stroke="#5E5F6E" stroke-width="2" stroke-linecap="round" stroke-linejoin="round"/>
<path d="M187.025 251.027C187.025 250.475 187.473 250.027 188.025 250.027L204.025 250.027C204.578 250.027 205.025 250.475 205.025 251.027L205.025 253.027C205.025 253.58 204.578 254.027 204.025 254.027L188.025 254.027C187.473 254.027 187.025 253.58 187.025 253.027L187.025 251.027Z" stroke="#5E5F6E" stroke-width="2" stroke-linecap="round"/>
<path d="M198.339 242.37C196.839 240.87 194.804 240.027 192.682 240.027C190.561 240.027 188.526 240.87 187.025 242.37" stroke="#5E5F6E" stroke-width="2" stroke-linecap="round"/>
<path d="M203.025 250.027L203.025 240.027" stroke="#5E5F6E" stroke-width="2" stroke-linecap="round"/>
<path d="M196.218 245.492C195.28 244.554 194.008 244.027 192.682 244.027C191.356 244.027 190.084 244.554 189.146 245.492" stroke="#5E5F6E" stroke-width="2" stroke-linecap="round"/>
<path fill-rule="evenodd" clip-rule="evenodd" d="M65.1506 157.57C64.2929 154.369 66.1924 151.079 69.3932 150.221L128.315 134.434L151.845 148.834L174.88 234.801C175.738 238.002 173.838 241.292 170.638 242.15L99.1574 261.303C95.9566 262.161 92.6666 260.261 91.8089 257.06L65.1506 157.57Z" fill="white" stroke="black" stroke-width="2" stroke-linejoin="round"/>
<rect x="76.8672" y="205.159" width="88" height="40" transform="rotate(-15 76.8672 205.159)" fill="black"/>
<path d="M109.906 220.701L105.272 221.942L104.452 218.878L109.085 217.637C109.84 217.435 110.405 217.11 110.782 216.664C111.168 216.216 111.392 215.681 111.452 215.061C111.523 214.439 111.462 213.77 111.271 213.056C111.087 212.371 110.804 211.757 110.421 211.213C110.048 210.666 109.58 210.268 109.017 210.02C108.455 209.771 107.791 209.75 107.027 209.955L103.419 210.921L108.483 229.817L104.83 230.796L98.942 208.821L106.202 206.876C107.65 206.487 108.969 206.458 110.157 206.786C111.345 207.115 112.352 207.735 113.179 208.646C114.002 209.547 114.596 210.676 114.96 212.035C115.34 213.453 115.395 214.744 115.124 215.905C114.853 217.067 114.278 218.062 113.4 218.891C112.52 219.709 111.355 220.312 109.906 220.701ZM127.605 224.693L123.786 225.716L122.996 222.644L126.784 221.629C127.961 221.314 128.844 220.846 129.432 220.224C130.018 219.593 130.346 218.782 130.415 217.793C130.484 216.804 130.33 215.605 129.953 214.197L128.994 210.62C128.703 209.533 128.364 208.632 127.978 207.916C127.6 207.187 127.159 206.631 126.658 206.247C126.163 205.851 125.588 205.617 124.933 205.545C124.274 205.462 123.528 205.533 122.693 205.757L118.648 206.841L117.823 203.762L121.868 202.678C123.125 202.341 124.316 202.238 125.44 202.368C126.564 202.498 127.594 202.858 128.529 203.449C129.471 204.027 130.292 204.837 130.991 205.879C131.691 206.921 132.24 208.186 132.639 209.675L133.59 213.222C133.989 214.711 134.146 216.082 134.061 217.334C133.973 218.576 133.667 219.688 133.143 220.67C132.616 221.641 131.888 222.467 130.96 223.147C130.031 223.827 128.913 224.343 127.605 224.693ZM119.996 203.179L125.884 225.154L122.217 226.137L116.329 204.162L119.996 203.179ZM137.564 198.472L143.452 220.447L139.785 221.43L133.896 199.455L137.564 198.472ZM147.256 206.147L148.081 209.226L140.112 211.361L139.287 208.282L147.256 206.147ZM145.714 196.288L146.539 199.367L137.544 201.778L136.719 198.699L145.714 196.288Z" fill="white"/>
<path fill-rule="evenodd" clip-rule="evenodd" d="M128.639 135.643C128.522 135.207 128.997 134.851 129.383 135.087L150.852 148.226C151.226 148.455 151.144 149.022 150.72 149.136L133.974 153.623C133.707 153.694 133.433 153.536 133.361 153.269L128.639 135.643Z" fill="#FF2116" stroke="black" stroke-width="2" stroke-linejoin="round"/>
<circle cx="80.7447" cy="161.674" r="4" transform="rotate(-15 80.7447 161.674)" fill="#FF2116"/>
<path fill-rule="evenodd" clip-rule="evenodd" d="M242.593 135.311C243.45 132.11 246.74 130.211 249.941 131.069L308.863 146.857L322.04 171.093L299.006 257.06C298.148 260.261 294.858 262.161 291.657 261.303L220.177 242.15C216.976 241.292 215.077 238.002 215.934 234.802L242.593 135.311Z" fill="white" stroke="black" stroke-width="2" stroke-linejoin="round"/>
<rect x="228.946" y="182.383" width="88" height="40" transform="rotate(15 228.946 182.383)" fill="black"/>
<path d="M247.84 211.84L243.206 210.598L244.027 207.534L248.661 208.776C249.415 208.978 250.067 208.98 250.616 208.782C251.175 208.587 251.636 208.236 251.998 207.729C252.371 207.225 252.653 206.616 252.844 205.901C253.027 205.217 253.089 204.543 253.03 203.88C252.98 203.22 252.774 202.642 252.411 202.146C252.048 201.649 251.484 201.299 250.719 201.094L247.112 200.127L242.049 219.023L238.396 218.044L244.284 196.07L251.544 198.015C252.993 198.403 254.15 199.037 255.014 199.915C255.879 200.794 256.441 201.834 256.701 203.036C256.964 204.228 256.914 205.504 256.55 206.862C256.17 208.281 255.572 209.425 254.756 210.296C253.94 211.167 252.945 211.741 251.771 212.02C250.599 212.288 249.288 212.228 247.84 211.84ZM276.567 204.72L270.679 226.695L267.087 225.732L263.406 208.44L259.33 223.654L255.783 222.703L261.671 200.728L265.218 201.679L268.931 219.093L273.036 203.774L276.567 204.72ZM292.234 220.387L289.913 229.05C289.552 229.309 289.033 229.596 288.356 229.91C287.691 230.218 286.849 230.423 285.829 230.527C284.821 230.624 283.618 230.485 282.22 230.11C281.042 229.795 280.017 229.315 279.144 228.672C278.28 228.03 277.605 227.229 277.118 226.269C276.632 225.308 276.357 224.199 276.295 222.942C276.235 221.675 276.419 220.247 276.845 218.657L277.892 214.748C278.313 213.179 278.845 211.855 279.49 210.776C280.145 209.701 280.903 208.863 281.765 208.264C282.629 207.654 283.579 207.289 284.614 207.167C285.653 207.036 286.78 207.133 287.998 207.459C289.537 207.872 290.747 208.487 291.628 209.305C292.522 210.116 293.098 211.123 293.359 212.325C293.632 213.52 293.611 214.884 293.297 216.417L289.721 215.459C289.888 214.512 289.913 213.715 289.795 213.068C289.69 212.415 289.428 211.881 289.011 211.467C288.593 211.053 287.997 210.743 287.222 210.535C286.518 210.346 285.882 210.305 285.314 210.412C284.746 210.519 284.233 210.785 283.773 211.212C283.316 211.629 282.907 212.21 282.546 212.954C282.185 213.699 281.859 214.614 281.568 215.701L280.512 219.64C280.216 220.747 280.056 221.723 280.035 222.569C280.013 223.415 280.114 224.143 280.339 224.754C280.576 225.356 280.934 225.851 281.413 226.239C281.894 226.616 282.482 226.897 283.176 227.083C283.861 227.266 284.423 227.342 284.863 227.309C285.303 227.276 285.657 227.203 285.924 227.091C286.204 226.972 286.428 226.881 286.596 226.818L287.809 222.291L284.262 221.34L285.035 218.458L292.234 220.387Z" fill="white"/>
<path fill-rule="evenodd" clip-rule="evenodd" d="M308.538 148.066C308.655 147.63 309.245 147.56 309.46 147.957L321.484 170.07C321.694 170.456 321.34 170.905 320.915 170.792L304.169 166.304C303.902 166.233 303.744 165.959 303.815 165.692L308.538 148.066Z" fill="#FBB631" stroke="black" stroke-width="2" stroke-linejoin="round"/>
<circle cx="254.044" cy="146.662" r="4" transform="rotate(15 254.044 146.662)" fill="#FBB631"/>
<path fill-rule="evenodd" clip-rule="evenodd" d="M157.402 134.635C157.402 131.321 160.089 128.635 163.402 128.635H224.402L243.404 148.635V237.635C243.404 240.948 240.718 243.635 237.404 243.635H163.402C160.089 243.635 157.402 240.948 157.402 237.635V134.635Z" fill="white" stroke="black" stroke-width="2" stroke-linejoin="round"/>
<rect x="156.404" y="183.635" width="88" height="40" fill="black"/>
<path d="M185.404 209.76C185.404 209.291 185.352 208.874 185.248 208.51C185.154 208.135 184.972 207.796 184.701 207.494C184.43 207.192 184.045 206.895 183.545 206.604C183.055 206.312 182.42 206.015 181.639 205.713C180.743 205.369 179.904 204.994 179.123 204.588C178.352 204.171 177.67 203.702 177.076 203.182C176.493 202.65 176.035 202.031 175.701 201.322C175.368 200.614 175.201 199.791 175.201 198.854C175.201 197.926 175.363 197.083 175.686 196.322C176.019 195.551 176.488 194.89 177.092 194.338C177.706 193.775 178.436 193.343 179.279 193.041C180.123 192.729 181.055 192.572 182.076 192.572C183.545 192.572 184.8 192.885 185.842 193.51C186.894 194.135 187.696 194.973 188.248 196.025C188.811 197.077 189.092 198.244 189.092 199.525H185.311C185.311 198.786 185.196 198.13 184.967 197.557C184.738 196.984 184.383 196.536 183.904 196.213C183.425 195.89 182.805 195.729 182.045 195.729C181.347 195.729 180.769 195.864 180.311 196.135C179.863 196.406 179.529 196.775 179.311 197.244C179.102 197.713 178.998 198.249 178.998 198.854C178.998 199.27 179.087 199.65 179.264 199.994C179.441 200.327 179.696 200.635 180.029 200.916C180.363 201.197 180.769 201.463 181.248 201.713C181.727 201.963 182.279 202.202 182.904 202.432C183.967 202.817 184.894 203.244 185.686 203.713C186.477 204.182 187.128 204.708 187.639 205.291C188.16 205.864 188.545 206.515 188.795 207.244C189.055 207.973 189.186 208.801 189.186 209.729C189.186 210.666 189.024 211.52 188.701 212.291C188.389 213.051 187.93 213.702 187.326 214.244C186.722 214.786 185.993 215.208 185.139 215.51C184.285 215.801 183.326 215.947 182.264 215.947C181.285 215.947 180.342 215.801 179.436 215.51C178.54 215.218 177.738 214.775 177.029 214.182C176.321 213.577 175.758 212.822 175.342 211.916C174.936 211.01 174.732 209.947 174.732 208.729H178.529C178.529 209.458 178.618 210.083 178.795 210.604C178.972 211.114 179.227 211.536 179.561 211.869C179.904 212.192 180.305 212.432 180.764 212.588C181.232 212.734 181.753 212.807 182.326 212.807C183.035 212.807 183.613 212.682 184.061 212.432C184.519 212.171 184.857 211.812 185.076 211.354C185.295 210.895 185.404 210.364 185.404 209.76ZM199.279 211.416L204.123 192.885H208.232L201.436 215.635H198.623L199.279 211.416ZM195.045 192.885L199.857 211.416L200.561 215.635H197.748L190.951 192.885H195.045ZM225.514 203.963V212.932C225.232 213.275 224.805 213.687 224.232 214.166C223.67 214.635 222.91 215.051 221.951 215.416C221.003 215.77 219.805 215.947 218.357 215.947C217.139 215.947 216.024 215.749 215.014 215.354C214.014 214.958 213.154 214.359 212.436 213.557C211.717 212.755 211.165 211.755 210.779 210.557C210.394 209.348 210.201 207.921 210.201 206.275V202.229C210.201 200.604 210.373 199.187 210.717 197.979C211.071 196.77 211.587 195.765 212.264 194.963C212.941 194.15 213.764 193.551 214.732 193.166C215.701 192.77 216.816 192.572 218.076 192.572C219.67 192.572 220.998 192.854 222.061 193.416C223.133 193.968 223.951 194.791 224.514 195.885C225.087 196.968 225.42 198.291 225.514 199.854H221.811C221.727 198.895 221.545 198.119 221.264 197.525C220.993 196.921 220.602 196.473 220.092 196.182C219.581 195.89 218.925 195.744 218.123 195.744C217.394 195.744 216.769 195.869 216.248 196.119C215.727 196.369 215.3 196.76 214.967 197.291C214.633 197.812 214.389 198.479 214.232 199.291C214.076 200.104 213.998 201.072 213.998 202.197V206.275C213.998 207.421 214.097 208.406 214.295 209.229C214.493 210.051 214.779 210.729 215.154 211.26C215.54 211.781 216.014 212.166 216.576 212.416C217.139 212.656 217.779 212.775 218.498 212.775C219.206 212.775 219.769 212.702 220.186 212.557C220.602 212.411 220.925 212.249 221.154 212.072C221.394 211.885 221.587 211.739 221.732 211.635V206.947H218.061V203.963H225.514Z" fill="white"/>
<path fill-rule="evenodd" clip-rule="evenodd" d="M224.402 129.887C224.402 129.435 224.954 129.215 225.265 129.543L242.602 147.79C242.904 148.109 242.679 148.635 242.239 148.635H224.902C224.626 148.635 224.402 148.411 224.402 148.135V129.887Z" fill="#3F5AD3" stroke="black" stroke-width="2" stroke-linejoin="round"/>
<circle cx="171.402" cy="142.635" r="4" fill="#3F5AD3"/>
<defs>
<clipPath id="clip0_7224_14265">
<rect width="24" height="24" fill="white" transform="translate(68.3535 305.943) rotate(45)"/>
</clipPath>
<clipPath id="clip1_7224_14265">
<rect width="24" height="24" fill="white" transform="translate(303.566 208.237) rotate(13)"/>
</clipPath>
</defs>
</svg>
