<svg width="340" height="260" viewBox="0 0 340 260" fill="none" xmlns="http://www.w3.org/2000/svg">
<rect x="0.5" y="0.5" width="339" height="259" rx="7.5" fill="white" stroke="#E8E8E8"/>
<circle cx="65" cy="60.2131" r="22.5" fill="#FAD338"/>
<ellipse opacity="0.6" cx="56.75" cy="54.9631" rx="3.75" ry="5.25" fill="black"/>
<ellipse opacity="0.6" cx="73.25" cy="54.9631" rx="3.75" ry="5.25" fill="black"/>
<path opacity="0.6" d="M75.8198 68.5697C73.0068 71.3828 69.1915 72.9631 65.2132 72.9631C61.235 72.9631 57.4196 71.3828 54.6066 68.5697" stroke="black" stroke-width="2" stroke-linecap="round"/>
<g clip-path="url(#clip0_7592_12531)">
<circle cx="275" cy="200" r="22.5" fill="#FAD338"/>
<circle opacity="0.6" cx="266" cy="199.25" r="3.75" fill="black"/>
<circle opacity="0.4" cx="282.5" cy="199.25" r="3.75" fill="black"/>
<path opacity="0.6" d="M282.713 214.223C280.433 212.906 277.846 212.213 275.213 212.213C272.58 212.213 269.993 212.906 267.713 214.223" stroke="black" stroke-width="2" stroke-linecap="round"/>
<path opacity="0.6" d="M260.36 188.946C261.365 190.47 262.727 191.726 264.326 192.606C265.926 193.486 267.715 193.964 269.541 193.998" stroke="black" stroke-width="2"/>
<path opacity="0.4" fill-rule="evenodd" clip-rule="evenodd" d="M282.5 207.75C287.194 207.75 291 203.944 291 199.25C291 194.556 287.194 190.75 282.5 190.75C277.806 190.75 274 194.556 274 199.25C274 203.944 277.806 207.75 282.5 207.75ZM282.5 209.75C287.527 209.75 291.728 206.218 292.758 201.5H293.5C294.052 201.5 294.5 201.052 294.5 200.5V200.38C294.676 200.394 294.844 200.407 294.994 200.422C295.607 200.484 296.152 200.582 296.607 200.79C297.035 200.985 297.389 201.278 297.638 201.776C297.898 202.298 298.083 203.123 298.002 204.439C297.864 206.684 297.672 209.831 297.804 212.705C297.869 214.141 298.017 215.546 298.305 216.756C298.586 217.94 299.033 219.072 299.793 219.832C300.183 220.223 300.817 220.223 301.207 219.832C301.598 219.442 301.598 218.808 301.207 218.418C300.842 218.053 300.504 217.358 300.25 216.293C300.003 215.254 299.864 213.988 299.801 212.613C299.676 209.864 299.859 206.823 299.998 204.561C300.092 203.029 299.895 201.821 299.427 200.883C298.947 199.921 298.224 199.328 297.436 198.97C296.676 198.623 295.866 198.5 295.194 198.433C294.93 198.406 294.702 198.388 294.5 198.372V198C294.5 197.448 294.052 197 293.5 197H292.758C291.728 192.282 287.527 188.75 282.5 188.75C276.701 188.75 272 193.451 272 199.25C272 205.049 276.701 209.75 282.5 209.75Z" fill="black"/>
</g>
<circle cx="135" cy="200" r="22.5" fill="#FAD338"/>
<path d="M150.023 195.312L153.092 196.56C153.671 196.796 154.151 197.212 154.459 197.746C155.129 198.906 154.697 200.408 153.494 201.103L153.302 201.214C152.1 201.908 150.582 201.531 149.913 200.371C149.604 199.837 149.484 199.213 149.57 198.593L150.023 195.312Z" fill="#0F92BD"/>
<path d="M120.399 195.312L117.33 196.56C116.751 196.796 116.271 197.212 115.962 197.746C115.293 198.906 115.725 200.408 116.928 201.103L117.12 201.214C118.322 201.908 119.84 201.531 120.509 200.371C120.818 199.837 120.938 199.213 120.852 198.593L120.399 195.312Z" fill="#0F92BD"/>
<path opacity="0.6" d="M132.273 192.977C129.636 190.341 125.363 190.341 122.727 192.977" stroke="black" stroke-width="2"/>
<path opacity="0.6" d="M148.023 192.977C145.386 190.341 141.113 190.341 138.477 192.977" stroke="black" stroke-width="2"/>
<path opacity="0.6" d="M147.75 203V200.75H122.25V203C122.25 210.042 127.958 215.75 135 215.75C142.042 215.75 147.75 210.042 147.75 203Z" fill="black"/>
<path d="M140.025 211.55L140.25 211.25H129L129.225 211.55C130.5 213.25 132.5 214.25 134.625 214.25C136.75 214.25 138.75 213.25 140.025 211.55Z" fill="white"/>
<circle cx="135" cy="130" r="22.5" fill="#FAD338"/>
<path opacity="0.6" d="M129.998 125.125C129.668 124.327 129.195 123.664 128.625 123.203C128.055 122.743 127.408 122.5 126.75 122.5C126.092 122.5 125.445 122.743 124.875 123.203C124.305 123.664 123.832 124.327 123.502 125.125" stroke="black" stroke-width="2"/>
<path opacity="0.6" d="M146.498 125.125C146.168 124.327 145.695 123.664 145.125 123.203C144.555 122.743 143.908 122.5 143.25 122.5C142.592 122.5 141.945 122.743 141.375 123.203C140.805 123.664 140.332 124.327 140.002 125.125" stroke="black" stroke-width="2"/>
<mask id="mask0_7592_12531" style="mask-type:alpha" maskUnits="userSpaceOnUse" x="112" y="107" width="46" height="46">
<circle cx="135" cy="130" r="22.5" fill="#F0C542"/>
</mask>
<g mask="url(#mask0_7592_12531)">
<path opacity="0.6" d="M134.729 132.463L134.996 132.538L135.263 132.465L158.75 126.059V143.25H112V126.07L134.729 132.463Z" stroke="black" stroke-width="2"/>
</g>
<path opacity="0.6" d="M125.25 130.316L135 133.056L144.75 130.398V142.75H125.25V130.316Z" fill="black"/>
<circle cx="65" cy="200" r="22.5" fill="#FAD338"/>
<path fill-rule="evenodd" clip-rule="evenodd" d="M51.7091 192.384C52.4107 191.041 54.0161 190.611 55.2949 191.423L56.2541 192.032L56.7802 191.025C57.4818 189.682 59.0872 189.252 60.3661 190.064C61.6449 190.876 62.1129 192.623 61.4113 193.965L58.8484 198.87C58.5773 199.389 57.9204 199.565 57.4262 199.251L52.7544 196.285C51.4756 195.473 51.0076 193.726 51.7091 192.384Z" fill="#EC1313"/>
<path fill-rule="evenodd" clip-rule="evenodd" d="M69.5496 190.064C70.8284 189.252 72.4339 189.682 73.1354 191.025L73.6616 192.032L74.6207 191.423C75.8995 190.611 77.505 191.041 78.2065 192.384C78.9081 193.726 78.4401 195.473 77.1613 196.285L72.4895 199.251C71.9952 199.564 71.3384 199.388 71.0672 198.87L68.5043 193.965C67.8028 192.622 68.2708 190.876 69.5496 190.064Z" fill="#EC1313"/>
<path opacity="0.6" d="M80 203C80 204.97 79.612 206.92 78.8582 208.74C78.1044 210.56 76.9995 212.214 75.6066 213.607C74.2137 214.999 72.5601 216.104 70.7402 216.858C68.9204 217.612 66.9698 218 65 218C63.0302 218 61.0796 217.612 59.2597 216.858C57.4399 216.104 55.7863 214.999 54.3934 213.607C53.0005 212.214 51.8956 210.56 51.1418 208.74C50.388 206.92 50 204.97 50 203C59.7468 205.924 70.2532 205.924 80 203Z" fill="black"/>
<path d="M60.2711 211.055L69.7289 211.055C73.1579 211.055 77.75 209.429 77.75 206C69.5398 209.139 60.4602 209.139 52.25 206C52.25 209.429 56.8421 211.055 60.2711 211.055Z" fill="white"/>
<g clip-path="url(#clip1_7592_12531)">
<circle cx="275.32" cy="60.3198" r="22.5" transform="rotate(-45 275.32 60.3198)" fill="#FAD338"/>
<path opacity="0.6" d="M288.048 51.8347C289.441 53.2275 290.546 54.8811 291.3 56.701C292.054 58.5209 292.442 60.4714 292.442 62.4413C292.442 64.4111 292.054 66.3616 291.3 68.1815C290.546 70.0014 289.441 71.655 288.048 73.0479C286.655 74.4407 285.002 75.5456 283.182 76.2994C281.362 77.0533 279.411 77.4413 277.442 77.4413C275.472 77.4413 273.521 77.0533 271.701 76.2994C269.881 75.5456 268.228 74.4407 266.835 73.0479C275.795 68.2234 283.224 60.7943 288.048 51.8347Z" fill="black"/>
<path d="M280.265 71.0093L286.009 65.265C288.719 62.5548 290.758 57.7268 288.048 55.0166C284.462 63.0418 278.042 69.4621 270.017 73.0479C272.727 75.758 277.555 73.7195 280.265 71.0093Z" fill="white"/>
<path opacity="0.6" d="M267.011 61.3162L266.852 60.9229L266.459 60.7639L265.885 60.532L267.243 60.532L267.243 61.8899L267.011 61.3162Z" stroke="black" stroke-width="2"/>
<path opacity="0.6" d="M276.846 51.4815L276.452 51.3225L276.293 50.9291L276.062 50.3555L276.062 51.7134L277.419 51.7134L276.846 51.4815Z" stroke="black" stroke-width="2"/>
</g>
<circle cx="135" cy="60" r="22.5" fill="#FAD338"/>
<path opacity="0.6" d="M129.5 54.75C129.5 55.3471 129.416 55.934 129.256 56.4754C129.095 57.0173 128.865 57.4933 128.588 57.8811C128.311 58.2689 127.999 58.5521 127.683 58.7353C127.37 58.917 127.054 59 126.75 59C126.446 59 126.13 58.917 125.817 58.7353C125.501 58.5521 125.189 58.2689 124.912 57.8811C124.635 57.4933 124.405 57.0173 124.244 56.4754C124.084 55.934 124 55.3471 124 54.75" stroke="black" stroke-width="2"/>
<path opacity="0.6" d="M146 54.75C146 55.3471 145.916 55.934 145.756 56.4754C145.595 57.0173 145.365 57.4933 145.088 57.8811C144.811 58.2689 144.499 58.5521 144.183 58.7353C143.87 58.917 143.554 59 143.25 59C142.946 59 142.63 58.917 142.317 58.7353C142.001 58.5521 141.689 58.2689 141.412 57.8811C141.135 57.4933 140.905 57.0173 140.744 56.4754C140.584 55.934 140.5 55.3471 140.5 54.75" stroke="black" stroke-width="2"/>
<path opacity="0.6" d="M123.706 67.2107L123.466 66.9974C122.779 66.3865 123.211 65.25 124.13 65.25H127.146C128.864 65.25 130.564 64.901 132.144 64.2241C133.968 63.4424 136.032 63.4424 137.856 64.2241C139.436 64.901 141.136 65.25 142.854 65.25H145.87C146.789 65.25 147.221 66.3865 146.534 66.9974L146.294 67.2107C139.853 72.9361 130.147 72.9361 123.706 67.2107Z" fill="#EC1313"/>
<circle cx="205" cy="130" r="22.5" fill="#FAD338"/>
<path d="M226.502 111.982C226.502 111.982 226.502 111.983 226.501 111.987C226.501 111.983 226.502 111.982 226.502 111.982ZM226.344 111.808C226.445 111.907 226.483 111.971 226.496 112C226.483 112.029 226.445 112.093 226.344 112.192C226.155 112.376 225.823 112.603 225.304 112.848C224.273 113.335 222.717 113.801 220.714 114.201C216.724 114.999 211.168 115.5 205 115.5C198.832 115.5 193.276 114.999 189.286 114.201C187.283 113.801 185.727 113.335 184.696 112.848C184.177 112.603 183.845 112.376 183.656 112.192C183.555 112.093 183.517 112.029 183.504 112C183.517 111.971 183.555 111.907 183.656 111.808C183.845 111.624 184.177 111.397 184.696 111.152C185.727 110.665 187.283 110.199 189.286 109.799C193.276 109.001 198.832 108.5 205 108.5C211.168 108.5 216.724 109.001 220.714 109.799C222.717 110.199 224.273 110.665 225.304 111.152C225.823 111.397 226.155 111.624 226.344 111.808ZM183.498 111.982C183.498 111.982 183.499 111.983 183.499 111.987C183.498 111.983 183.498 111.982 183.498 111.982ZM183.498 112.018C183.498 112.018 183.498 112.017 183.499 112.013C183.499 112.017 183.498 112.018 183.498 112.018ZM226.501 112.013C226.502 112.017 226.502 112.018 226.502 112.018C226.502 112.018 226.501 112.017 226.501 112.013Z" stroke="#0F92BD" stroke-width="2"/>
<path opacity="0.6" d="M202 130C202 129.311 201.903 128.628 201.715 127.991C201.526 127.354 201.25 126.775 200.902 126.288C200.553 125.8 200.14 125.413 199.685 125.15C199.23 124.886 198.742 124.75 198.25 124.75C197.758 124.75 197.27 124.886 196.815 125.15C196.36 125.413 195.947 125.8 195.598 126.288C195.25 126.775 194.974 127.354 194.785 127.991C194.597 128.628 194.5 129.311 194.5 130L198.25 130H202Z" fill="black"/>
<path opacity="0.6" d="M215.5 130C215.5 129.311 215.403 128.628 215.215 127.991C215.026 127.354 214.75 126.775 214.402 126.288C214.053 125.8 213.64 125.413 213.185 125.15C212.73 124.886 212.242 124.75 211.75 124.75C211.258 124.75 210.77 124.886 210.315 125.15C209.86 125.413 209.447 125.8 209.098 126.288C208.75 126.775 208.474 127.354 208.285 127.991C208.097 128.628 208 129.311 208 130L211.75 130H215.5Z" fill="black"/>
<path opacity="0.6" d="M219.987 134.076C219.09 137.425 217.113 140.385 214.362 142.495C211.611 144.606 208.241 145.75 204.774 145.75C201.307 145.75 197.937 144.606 195.186 142.495C192.435 140.385 190.458 137.425 189.561 134.076" stroke="black" stroke-width="2" stroke-linecap="round"/>
<circle cx="205" cy="60" r="22.5" fill="#FAD338"/>
<path opacity="0.6" d="M200.5 57.75C200.5 57.0606 200.403 56.3779 200.215 55.7409C200.026 55.104 199.75 54.5252 199.402 54.0377C199.053 53.5502 198.64 53.1635 198.185 52.8996C197.73 52.6358 197.242 52.5 196.75 52.5C196.258 52.5 195.77 52.6358 195.315 52.8996C194.86 53.1635 194.447 53.5502 194.098 54.0377C193.75 54.5252 193.474 55.104 193.285 55.7409C193.097 56.3779 193 57.0606 193 57.75L196.75 57.75H200.5Z" fill="black"/>
<path opacity="0.6" d="M217 57.75C217 57.0606 216.903 56.3779 216.715 55.7409C216.526 55.104 216.25 54.5252 215.902 54.0377C215.553 53.5502 215.14 53.1635 214.685 52.8996C214.23 52.6358 213.742 52.5 213.25 52.5C212.758 52.5 212.27 52.6358 211.815 52.8996C211.36 53.1635 210.947 53.5502 210.598 54.0377C210.25 54.5252 209.974 55.104 209.785 55.7409C209.597 56.3779 209.5 57.0606 209.5 57.75L213.25 57.75H217Z" fill="black"/>
<g opacity="0.6">
<path d="M204.773 68.9999C207.538 68.9999 210.254 68.2722 212.648 66.8898C213.303 66.5121 213.926 66.0891 214.516 65.625L216.363 67.6587C218.132 69.607 217.897 72.6431 215.848 74.2951C214.028 75.7623 211.395 75.6216 209.742 73.9686L204.773 68.9999Z" fill="white"/>
<path d="M218.413 61.1249C217.409 62.865 216.084 64.3906 214.516 65.625M204.773 68.9999C207.538 68.9999 210.254 68.2722 212.648 66.8898C213.303 66.5121 213.926 66.0891 214.516 65.625M204.773 68.9999C202.009 68.9999 199.293 68.2722 196.898 66.8898C194.504 65.5075 192.516 63.5192 191.133 61.1249M204.773 68.9999L209.742 73.9686C211.395 75.6216 214.028 75.7623 215.848 74.2951V74.2951C217.897 72.6431 218.132 69.607 216.363 67.6587L214.516 65.625" stroke="black" stroke-width="2" stroke-linecap="round"/>
</g>
<circle cx="275" cy="130" r="22.5" fill="#FAD338"/>
<circle opacity="0.6" cx="266.75" cy="124.75" r="3.75" fill="black"/>
<circle opacity="0.6" cx="283.25" cy="124.75" r="3.75" fill="black"/>
<ellipse opacity="0.6" cx="275" cy="139" rx="5.25" ry="6" fill="black"/>
<circle cx="65" cy="130" r="22.5" fill="#FAD338"/>
<path opacity="0.6" d="M76.0021 138.624L76.6147 139.411C76.7866 139.632 76.5035 139.918 76.2811 139.748C69.584 134.626 60.3218 134.5 53.4871 139.436L52.9198 139.846C52.6849 140.015 52.3973 139.717 52.5752 139.489L53.1283 138.778C55.4653 135.773 58.7745 133.51 62.5602 133.113C64.0533 132.956 65.342 132.962 66.8818 133.136C70.5399 133.548 73.742 135.718 76.0021 138.624Z" fill="black"/>
<path opacity="0.6" d="M62.2942 121.75C61.5043 120.382 60.3682 119.246 59 118.456C57.6318 117.666 56.0798 117.25 54.5 117.25" stroke="black" stroke-width="2"/>
<path opacity="0.6" d="M67.7058 121.75C68.4957 120.382 69.6318 119.246 71 118.456C72.3682 117.666 73.9202 117.25 75.5 117.25" stroke="black" stroke-width="2"/>
<path d="M55.4446 142.207L61.625 132.25L58.5249 143.617C58.8226 143.999 59 144.479 59 145C59.8284 145 60.5 145.672 60.5 146.5C60.5 146.883 60.3563 147.233 60.1198 147.498C60.3599 147.856 60.5 148.287 60.5 148.75C60.5 149.765 59.8275 150.624 58.9036 150.904C58.6236 151.827 57.7653 152.5 56.75 152.5C56.1737 152.5 55.6481 152.283 55.25 151.927C54.8519 152.283 54.3263 152.5 53.75 152.5C53.0433 152.5 52.4127 152.174 52.0002 151.665C51.8438 151.72 51.6754 151.75 51.5 151.75C50.6716 151.75 50 151.078 50 150.25C50 150.075 50.0301 149.906 50.0854 149.75C49.5758 149.337 49.25 148.707 49.25 148C49.25 147.203 49.6641 146.503 50.2887 146.104C50.1049 145.777 50 145.401 50 145C50 143.757 51.0074 142.75 52.25 142.75C52.4292 142.75 52.6035 142.771 52.7706 142.811C53.1834 142.315 53.8049 142 54.5 142C54.8374 142 55.1574 142.074 55.4446 142.207Z" fill="white"/>
<path d="M74.1804 142.207L68 132.25L71.1001 143.617C70.8024 143.999 70.625 144.479 70.625 145C69.7966 145 69.125 145.672 69.125 146.5C69.125 146.883 69.2687 147.233 69.5052 147.498C69.2651 147.856 69.125 148.287 69.125 148.75C69.125 149.765 69.7975 150.624 70.7214 150.904C71.0014 151.827 71.8597 152.5 72.875 152.5C73.4513 152.5 73.9769 152.283 74.375 151.927C74.7731 152.283 75.2987 152.5 75.875 152.5C76.5817 152.5 77.2123 152.174 77.6248 151.665C77.7812 151.72 77.9496 151.75 78.125 151.75C78.9534 151.75 79.625 151.078 79.625 150.25C79.625 150.075 79.5949 149.906 79.5396 149.75C80.0492 149.337 80.375 148.707 80.375 148C80.375 147.203 79.9609 146.503 79.3363 146.104C79.5201 145.777 79.625 145.401 79.625 145C79.625 143.757 78.6176 142.75 77.375 142.75C77.1958 142.75 77.0215 142.771 76.8544 142.811C76.4416 142.315 75.8201 142 75.125 142C74.7876 142 74.4676 142.074 74.1804 142.207Z" fill="white"/>
<path opacity="0.6" d="M60.4623 125.462C59.8929 126.032 59.2001 126.463 58.4376 126.721C57.675 126.98 56.8631 127.06 56.0647 126.955C55.2663 126.85 54.5028 126.563 53.8333 126.115C53.1637 125.668 52.606 125.072 52.2034 124.375" stroke="black" stroke-width="2"/>
<path opacity="0.6" d="M69.5377 125.462C70.1071 126.032 70.7999 126.463 71.5624 126.721C72.325 126.98 73.1369 127.06 73.9353 126.955C74.7337 126.85 75.4972 126.563 76.1667 126.115C76.8363 125.668 77.394 125.072 77.7966 124.375" stroke="black" stroke-width="2"/>
<circle cx="205" cy="200" r="22.5" fill="#FAD338"/>
<path opacity="0.6" d="M220 203C220 204.97 219.612 206.92 218.858 208.74C218.104 210.56 216.999 212.214 215.607 213.607C214.214 214.999 212.56 216.104 210.74 216.858C208.92 217.612 206.97 218 205 218C203.03 218 201.08 217.612 199.26 216.858C197.44 216.104 195.786 214.999 194.393 213.607C193.001 212.214 191.896 210.56 191.142 208.74C190.388 206.92 190 204.97 190 203C199.747 205.924 210.253 205.924 220 203Z" fill="black"/>
<path d="M200.874 211.055L209.126 211.055C212.92 211.055 216.55 208.849 217.75 205.25C209.54 208.389 200.46 208.389 192.25 205.25C193.45 208.849 197.08 211.055 200.874 211.055Z" fill="white"/>
<path opacity="0.6" d="M202.596 199.625C202.003 198.599 201.151 197.747 200.125 197.154C199.099 196.562 197.935 196.25 196.75 196.25C195.565 196.25 194.401 196.562 193.375 197.154C192.349 197.747 191.497 198.599 190.904 199.625" stroke="black" stroke-width="2"/>
<path opacity="0.6" d="M219.096 199.625C218.503 198.599 217.651 197.747 216.625 197.154C215.599 196.562 214.435 196.25 213.25 196.25C212.065 196.25 210.901 196.562 209.875 197.154C208.849 197.747 207.997 198.599 207.404 199.625" stroke="black" stroke-width="2"/>
<path opacity="0.6" d="M196.785 190.088C193.861 190.871 191.194 192.411 189.052 194.552" stroke="black" stroke-width="2"/>
<path opacity="0.6" d="M213.215 190.088C216.139 190.871 218.806 192.411 220.948 194.552" stroke="black" stroke-width="2"/>
<path d="M217.437 198.005L216.82 205.07C216.703 206.404 217.011 207.767 217.696 208.955C219.184 211.531 222.34 212.495 224.745 211.106L225.129 210.884C227.534 209.496 228.277 206.281 226.79 203.705C226.104 202.517 225.077 201.569 223.864 201.003L217.437 198.005Z" fill="#0F92BD"/>
<path d="M192.682 198.005L193.299 205.07C193.416 206.404 193.108 207.767 192.423 208.955C190.935 211.531 187.779 212.495 185.374 211.106L184.99 210.884C182.585 209.496 181.842 206.281 183.329 203.705C184.015 202.517 185.042 201.569 186.255 201.003L192.682 198.005Z" fill="#0F92BD"/>
<defs>
<clipPath id="clip0_7592_12531">
<rect width="60" height="60" fill="white" transform="translate(245 170)"/>
</clipPath>
<clipPath id="clip1_7592_12531">
<rect width="60" height="60" fill="white" transform="translate(245 30)"/>
</clipPath>
</defs>
</svg>
