<svg width="40" height="40" viewBox="0 0 40 40" fill="none" xmlns="http://www.w3.org/2000/svg">
<path fill-rule="evenodd" clip-rule="evenodd" d="M20 36.9231C23.3987 36.9231 26.1538 34.1679 26.1538 30.7692L26.1538 29.2308L13.8462 29.2308L13.8462 30.7692C13.8462 34.1679 16.6013 36.9231 20 36.9231ZM10.7692 29.2308L10.7692 30.7692C10.7692 35.8672 14.902 40 20 40C25.098 40 29.2308 35.8672 29.2308 30.7692L29.2308 29.2308L30.7692 29.2308C35.8672 29.2308 40 25.098 40 20C40 14.902 35.8672 10.7692 30.7692 10.7692L29.2308 10.7692L29.2308 9.23077C29.2308 4.13275 25.098 2.51192e-06 20 2.06624e-06C14.902 1.62056e-06 10.7692 4.13276 10.7692 9.23077L10.7692 10.7692L9.23077 10.7692C4.13276 10.7692 6.00884e-06 14.902 5.56315e-06 20C5.11747e-06 25.098 4.13276 29.2308 9.23077 29.2308L10.7692 29.2308ZM13.8462 26.1538L26.1538 26.1538L26.1538 13.8462L13.8462 13.8462L13.8462 26.1538ZM10.7692 13.8462L10.7692 26.1538L9.23077 26.1538C5.8321 26.1538 3.07692 23.3987 3.07693 20C3.07693 16.6013 5.8321 13.8462 9.23077 13.8462L10.7692 13.8462ZM13.8462 10.7692L26.1538 10.7692L26.1538 9.23077C26.1538 5.83209 23.3987 3.07693 20 3.07693C16.6013 3.07693 13.8462 5.83209 13.8462 9.23077L13.8462 10.7692ZM29.2308 13.8462L29.2308 26.1538L30.7692 26.1538C34.1679 26.1538 36.9231 23.3987 36.9231 20C36.9231 16.6013 34.1679 13.8462 30.7692 13.8462L29.2308 13.8462Z" fill="white"/>
<path fill-rule="evenodd" clip-rule="evenodd" d="M12.3077 10.7692C13.1574 10.7692 13.8461 11.458 13.8461 12.3077C13.8461 13.1574 13.1574 13.8461 12.3077 13.8461C11.458 13.8461 10.7692 13.1574 10.7692 12.3077C10.7692 11.458 11.458 10.7692 12.3077 10.7692ZM12.3077 26.1538C13.1574 26.1538 13.8461 26.8426 13.8461 27.6923C13.8461 28.542 13.1574 29.2308 12.3077 29.2308C11.458 29.2308 10.7692 28.542 10.7692 27.6923C10.7692 26.8426 11.458 26.1538 12.3077 26.1538ZM29.2308 12.3077C29.2308 11.458 28.542 10.7692 27.6923 10.7692C26.8426 10.7692 26.1538 11.458 26.1538 12.3077C26.1538 13.1574 26.8426 13.8461 27.6923 13.8461C28.542 13.8461 29.2308 13.1574 29.2308 12.3077ZM27.6923 26.1538C28.542 26.1538 29.2308 26.8426 29.2308 27.6923C29.2308 28.542 28.542 29.2308 27.6923 29.2308C26.8426 29.2308 26.1538 28.542 26.1538 27.6923C26.1538 26.8426 26.8426 26.1538 27.6923 26.1538Z" fill="black"/>
</svg>
