<svg width="340" height="260" viewBox="0 0 340 260" fill="none" xmlns="http://www.w3.org/2000/svg">
<rect x="0.5" y="0.5" width="339" height="259" rx="7.5" fill="white" stroke="#E8E8E8"/>
<path d="M74.9957 42.1842C73.9286 47.6029 68.6707 51.1306 63.252 50.0635C64.3191 44.6447 69.577 41.117 74.9957 42.1842Z" fill="#138643"/>
<path d="M60.0215 46.1238C61.5215 46.1238 64.0215 48.1231 64.5216 51.1237C64.9458 53.6692 64.6332 56.2647 64.0215 58.6238" stroke="#5E3108" stroke-width="2"/>
<mask id="path-4-inside-1_7592_12493" fill="white">
<path fill-rule="evenodd" clip-rule="evenodd" d="M64.9513 54.0264C62.3027 50.9893 58.8492 49.4786 55.6222 50.3639C50.3462 51.8112 47.6736 59.1149 49.6528 66.6771C51.632 74.2393 57.5135 79.1964 62.7895 77.7491C63.6206 77.5211 64.3871 77.1478 65.081 76.651C65.7316 77.0917 66.4435 77.4259 67.2105 77.6363C72.4865 79.0836 78.368 74.1265 80.3472 66.5643C82.3264 59.0021 79.6538 51.6984 74.3778 50.2511C71.1111 49.355 67.6123 50.914 64.9513 54.0264Z"/>
</mask>
<path fill-rule="evenodd" clip-rule="evenodd" d="M64.9513 54.0264C62.3027 50.9893 58.8492 49.4786 55.6222 50.3639C50.3462 51.8112 47.6736 59.1149 49.6528 66.6771C51.632 74.2393 57.5135 79.1964 62.7895 77.7491C63.6206 77.5211 64.3871 77.1478 65.081 76.651C65.7316 77.0917 66.4435 77.4259 67.2105 77.6363C72.4865 79.0836 78.368 74.1265 80.3472 66.5643C82.3264 59.0021 79.6538 51.6984 74.3778 50.2511C71.1111 49.355 67.6123 50.914 64.9513 54.0264Z" fill="#F04242"/>
<path d="M55.6222 50.3639L56.1514 52.2926L55.6222 50.3639ZM64.9513 54.0264L63.4439 55.3409L64.9663 57.0866L66.4715 55.3261L64.9513 54.0264ZM49.6528 66.6771L51.5876 66.1707L49.6528 66.6771ZM62.7895 77.7491L62.2604 75.8203L62.7895 77.7491ZM65.081 76.651L66.2026 74.9951L65.0494 74.214L63.9168 75.0248L65.081 76.651ZM67.2105 77.6363L67.7396 75.7075L67.2105 77.6363ZM80.3472 66.5643L78.4124 66.0579L80.3472 66.5643ZM74.3778 50.2511L74.9069 48.3224L74.3778 50.2511ZM56.1514 52.2926C58.3804 51.6812 61.0969 52.6495 63.4439 55.3409L66.4587 52.7119C63.5086 49.329 59.3181 47.2761 55.0931 48.4351L56.1514 52.2926ZM51.5876 66.1707C50.6893 62.7381 50.8703 59.4418 51.795 56.9147C52.7233 54.3779 54.3118 52.7973 56.1514 52.2926L55.0931 48.4351C51.6567 49.3778 49.2709 52.1727 48.0386 55.5402C46.8028 58.9173 46.6372 63.0539 47.718 67.1835L51.5876 66.1707ZM62.2604 75.8203C60.4284 76.3229 58.3007 75.7707 56.2738 74.0624C54.2507 72.3573 52.4862 69.6039 51.5876 66.1707L47.718 67.1835C48.7986 71.3125 50.9645 74.8188 53.6959 77.121C56.4236 79.4199 59.8746 80.6226 63.3186 79.6778L62.2604 75.8203ZM63.9168 75.0248C63.4063 75.3902 62.8534 75.6576 62.2604 75.8203L63.3186 79.6778C64.3878 79.3845 65.3679 78.9053 66.2452 78.2773L63.9168 75.0248ZM63.9594 78.3069C64.7841 78.8655 65.6952 79.2945 66.6814 79.565L67.7396 75.7075C67.1919 75.5573 66.6791 75.3179 66.2026 74.9951L63.9594 78.3069ZM66.6814 79.565C70.1254 80.5098 73.5764 79.3071 76.3041 77.0082C79.0355 74.706 81.2014 71.1997 82.282 67.0707L78.4124 66.0579C77.5138 69.4911 75.7493 72.2445 73.7262 73.9496C71.6993 75.6579 69.5716 76.2101 67.7396 75.7075L66.6814 79.565ZM82.282 67.0707C83.3628 62.9411 83.1972 58.8046 81.9614 55.4274C80.7291 52.0599 78.3433 49.265 74.9069 48.3224L73.8486 52.1798C75.6882 52.6845 77.2767 54.2651 78.205 56.8019C79.1297 59.329 79.3107 62.6253 78.4124 66.0579L82.282 67.0707ZM74.9069 48.3224C70.6293 47.1489 66.3897 49.2662 63.4311 52.7268L66.4715 55.3261C68.8348 52.5618 71.5928 51.561 73.8486 52.1798L74.9069 48.3224Z" fill="#BD0F0F" mask="url(#path-4-inside-1_7592_12493)"/>
<mask id="path-6-inside-2_7592_12493" fill="white">
<path d="M155 50C155 52.6264 154.483 55.2272 153.478 57.6537C152.472 60.0802 150.999 62.285 149.142 64.1421C147.285 65.9993 145.08 67.4725 142.654 68.4776C140.227 69.4827 137.626 70 135 70C132.374 70 129.773 69.4827 127.346 68.4776C124.92 67.4725 122.715 65.9993 120.858 64.1421C119.001 62.285 117.528 60.0802 116.522 57.6537C115.517 55.2272 115 52.6264 115 50L135 50H155Z"/>
</mask>
<path d="M155 50C155 52.6264 154.483 55.2272 153.478 57.6537C152.472 60.0802 150.999 62.285 149.142 64.1421C147.285 65.9993 145.08 67.4725 142.654 68.4776C140.227 69.4827 137.626 70 135 70C132.374 70 129.773 69.4827 127.346 68.4776C124.92 67.4725 122.715 65.9993 120.858 64.1421C119.001 62.285 117.528 60.0802 116.522 57.6537C115.517 55.2272 115 52.6264 115 50L135 50H155Z" fill="#FBF1D0" stroke="#138643" stroke-width="4" mask="url(#path-6-inside-2_7592_12493)"/>
<path d="M135 66C139.277 66 143.379 64.3143 146.403 61.3137C148.948 58.7885 150.555 55.506 151 52H119C119.445 55.506 121.052 58.7885 123.597 61.3137C126.621 64.3143 130.723 66 135 66Z" fill="#EC1313"/>
<path d="M135 59L135.831 60.3847C135.942 60.5692 136 60.7814 136 60.9966C136 61.5489 135.552 62 135 62C134.448 62 134 61.5489 134 60.9966C134 60.7814 134.058 60.5692 134.169 60.3847L135 59Z" fill="black"/>
<path d="M142.795 54.4999L144.41 54.4728C144.625 54.4692 144.838 54.5246 145.024 54.6322C145.502 54.9084 145.669 55.5216 145.393 55.9999C145.117 56.4782 144.502 56.6404 144.024 56.3643C143.838 56.2567 143.683 56.0999 143.579 55.9118L142.795 54.4999Z" fill="black"/>
<path d="M127.205 54.5001L126.421 55.9119C126.317 56.1 126.162 56.2568 125.976 56.3644C125.498 56.6405 124.883 56.4784 124.607 56.0001C124.331 55.5218 124.498 54.9085 124.976 54.6323C125.162 54.5248 125.375 54.4693 125.59 54.4729L127.205 54.5001Z" fill="black"/>
<path d="M139.5 57.7942L140.912 58.578C141.1 58.6824 141.257 58.837 141.364 59.0233C141.64 59.5016 141.478 60.1161 141 60.3923C140.522 60.6684 139.908 60.5016 139.632 60.0233C139.525 59.837 139.469 59.6239 139.473 59.4088L139.5 57.7942Z" fill="black"/>
<path d="M130.5 57.7942L130.527 59.4088C130.531 59.6239 130.475 59.837 130.368 60.0233C130.091 60.5016 129.478 60.6684 129 60.3923C128.522 60.1161 128.359 59.5016 128.635 59.0233C128.743 58.837 128.9 58.6824 129.088 58.578L130.5 57.7942Z" fill="black"/>
<circle cx="199" cy="65" r="13" fill="#F09442" stroke="#EC7913" stroke-width="2"/>
<circle cx="213" cy="67" r="11" fill="#F8CAA1" stroke="#EC7913" stroke-width="2"/>
<circle cx="213" cy="67" r="4" fill="#FDF2E7" stroke="#F09442" stroke-width="8" stroke-dasharray="6 2"/>
<circle cx="213" cy="67" r="1" fill="#FDF2E7"/>
<path d="M202.146 44.6235C200.145 52.092 192.469 56.5241 185 54.5229C187.001 47.0544 194.678 42.6223 202.146 44.6235Z" fill="#138643"/>
<path d="M194.5 72.7942C193.132 72.0043 191.996 70.8682 191.206 69.5C190.416 68.1318 190 66.5798 190 65" stroke="#F4AF71" stroke-width="2"/>
<path d="M205 43L203.564 43.8617C201.303 45.2184 199.75 47.4985 199.317 50.0996L199 52" stroke="#5E4908" stroke-width="2"/>
<path d="M268 42C268 41.4477 267.552 41 267 41C266.448 41 266 41.4477 266 42L268 42ZM266 42L266 46L268 46L268 42L266 42Z" fill="#5E4908"/>
<path d="M268.111 45C270.32 45 272.111 46.7909 272.111 49V50.1983C272.111 53.1076 273.682 55.6632 275.101 57.7849C276.293 59.5684 277 61.7648 277 64.1481C277 70.213 272.454 75 267 75C261.546 75 257 70.213 257 64.1481C257 61.7648 257.707 59.5684 258.899 57.7849C260.318 55.6632 261.889 53.1076 261.889 50.1983V49C261.889 46.7909 263.68 45 265.889 45H268.111Z" fill="#A0D338" stroke="#7CA628" stroke-width="2"/>
<path d="M293.332 60.3614C294.734 61.7632 294.734 64.0358 293.332 65.4376C291.465 67.3042 290.821 69.9642 290.287 72.1714C290.275 72.2218 290.263 72.2719 290.251 72.3217C289.877 73.8651 289.07 75.3565 287.83 76.5964C284.414 80.0123 279.151 80.1215 276.071 77.0416C272.991 73.9617 273.1 68.6986 276.516 65.2827C277.756 64.0428 279.248 63.2359 280.791 62.8618C280.841 62.8498 280.891 62.8376 280.941 62.8254C283.148 62.2912 285.808 61.6473 287.675 59.7807C289.077 58.379 291.35 58.379 292.751 59.7807L293.332 60.3614Z" fill="#EC7913" stroke="#F09442" stroke-width="2"/>
<path d="M264 70.1292C263.203 69.6307 262.522 68.9402 262.011 68.1112C261.5 67.2822 261.171 66.3369 261.051 65.3484C260.931 64.3599 261.023 63.3548 261.318 62.4106C261.614 61.4665 262.107 60.6088 262.757 59.9038" stroke="#6E9226" stroke-width="2"/>
<path d="M287.385 65.7281C287.956 70.4833 284.336 74.7086 279.549 74.8737L278.193 74.9205L278.24 73.5644C278.405 68.7778 282.63 65.1574 287.385 65.7281Z" fill="black"/>
<path d="M62.0021 127.929L66.0294 127.82C66.1024 125.642 66.398 122.001 67.0052 118.53C67.3601 116.501 67.8283 114.49 68.4375 112.849C68.5174 112.634 68.6004 112.423 68.6868 112.218C65.7999 113.819 64.1824 116.19 63.2531 118.766C62.15 121.825 62.0179 125.171 62.0021 127.929Z" stroke="#138643" stroke-width="2"/>
<path d="M60.0662 129.927L64.1018 129.818C64.2639 128.863 64.6303 127.763 65.0955 126.641C65.7441 125.077 66.6378 123.348 67.6325 121.688C68.6273 120.029 69.7355 118.418 70.8204 117.094C70.8341 117.078 70.8478 117.061 70.8616 117.044C68.0761 118.176 65.734 119.969 63.9404 122.023C61.6931 124.595 60.3677 127.503 60.0662 129.927Z" stroke="#138643" stroke-width="2"/>
<path d="M67.4328 129.927L63.3972 129.818C63.2351 128.863 62.8687 127.763 62.4035 126.641C61.755 125.077 60.8612 123.348 59.8665 121.688C58.8718 120.029 57.7636 118.418 56.6787 117.094C56.6649 117.078 56.6512 117.061 56.6374 117.044C59.4229 118.176 61.7651 119.969 63.5587 122.023C65.8059 124.595 67.1313 127.503 67.4328 129.927Z" stroke="#138643" stroke-width="2"/>
<path d="M61.0703 131.927L65.1061 131.818C65.2729 130.901 65.6456 129.901 66.1154 128.908C66.7722 127.521 67.6746 126.036 68.6742 124.624C69.5898 123.332 70.5987 122.084 71.5956 121.016C65.3998 123.228 61.6222 127.825 61.0703 131.927Z" stroke="#138643" stroke-width="2"/>
<path d="M67.4287 131.927L63.3929 131.818C63.2262 130.901 62.8535 129.901 62.3836 128.908C61.7268 127.521 60.8244 126.036 59.8249 124.624C58.9092 123.332 57.9003 122.084 56.9034 121.016C63.0992 123.228 66.8769 127.825 67.4287 131.927Z" stroke="#138643" stroke-width="2"/>
<path d="M58.4277 129.973C59.178 128.173 60.9373 127 62.8879 127H66.1121C68.0627 127 69.822 128.173 70.5723 129.973C72.7127 135.11 72.7127 140.89 70.5723 146.027L70.4361 146.353C69.7683 147.956 68.2023 149 66.466 149H62.534C60.7977 149 59.2317 147.956 58.5639 146.353L58.4277 146.027C56.2873 140.89 56.2873 135.11 58.4277 129.973Z" fill="#ECB713" stroke="#BD920F" stroke-width="2"/>
<path d="M61.1429 135V135C60.4036 137.587 60.5787 140.35 61.6387 142.824L62.1429 144" stroke="#BD920F" stroke-width="2"/>
<path d="M136.61 114.966L137.182 115.524L137.853 115.088L139.769 113.843V118.525C139.769 119.762 140.524 120.802 141.534 121.322C145.985 123.612 149 128.158 149 133.375C149 140.876 142.756 147 135 147C127.244 147 121 140.876 121 133.375C121 128.158 124.015 123.612 128.466 121.322C129.476 120.802 130.231 119.762 130.231 118.525V113.843L132.147 115.088L132.818 115.524L133.39 114.966L135 113.397L136.61 114.966Z" fill="#BD0F0F" stroke="#8E0B0B" stroke-width="2"/>
<path d="M145 133C145 135.201 144.274 137.341 142.934 139.088C141.593 140.834 139.715 142.09 137.588 142.659" stroke="#8E0B0B" stroke-width="2"/>
<path d="M202.5 122L204 121M205.5 121H204M204 121C203.167 119.167 201.6 117 202 111" stroke="#5E4908" stroke-width="2" stroke-linecap="round"/>
<path d="M203.133 114.696C208.32 113.819 213.425 116.766 215.259 121.697C210.072 122.574 204.967 119.626 203.133 114.696Z" stroke="#138643" stroke-width="2"/>
<path d="M198.956 124.254L198.984 124.178L199 124.099C199.228 122.961 199.818 122.225 200.638 121.746C201.493 121.247 202.651 121 204 121C205.349 121 206.507 121.247 207.362 121.746C208.182 122.225 208.772 122.961 209 124.099L209.016 124.178L209.044 124.254L210.459 128.028C211 129.47 211.941 130.676 212.79 131.729C214.173 133.444 215 135.624 215 138C215 143.415 209.637 148 204 148C198.363 148 193 143.415 193 138C193 135.624 193.827 133.444 195.21 131.729C196.059 130.676 197 129.47 197.541 128.028L198.956 124.254Z" fill="#CDE456" stroke="#A4B93B" stroke-width="2"/>
<path d="M201 143.196C199.856 142.536 198.962 141.516 198.457 140.296C197.951 139.076 197.863 137.723 198.204 136.447" stroke="#A4B93B" stroke-width="2"/>
<path d="M286.392 112C283.079 117.74 275.74 119.706 270 116.392C273.314 110.653 280.653 108.686 286.392 112Z" fill="#138643"/>
<path d="M268.707 110.293C268.317 109.902 267.683 109.902 267.293 110.293C266.902 110.683 266.902 111.317 267.293 111.707L268.707 110.293ZM270 116.485L270 122L272 122L272 116.485L270 116.485ZM269.95 111.536L268.707 110.293L267.293 111.707L268.536 112.95L269.95 111.536ZM272 116.485C272 114.629 271.263 112.848 269.95 111.536L268.536 112.95C269.473 113.887 270 115.159 270 116.485L272 116.485Z" fill="#9A532E"/>
<path d="M286 135C286 143.168 279.37 149 271 149C262.63 149 256 143.168 256 135C256 126.832 262.63 121 271 121C279.37 121 286 126.832 286 135Z" fill="#544358" stroke="#180F10" stroke-width="2"/>
<path d="M294 138C294 144.394 288.728 149 282 149C275.272 149 270 144.394 270 138C270 131.606 275.272 127 282 127C288.728 127 294 131.606 294 138Z" fill="#E6D1C9" stroke="#180F10" stroke-width="2"/>
<path d="M285.5 131.938L282 138M278.5 144.062L282 138M282 138L275.938 134.5M282 138L288.062 141.5M282 138L288.83 136.17M282 138L275.17 139.83M282 138L283.83 144.83M282 138L280.17 131.17" stroke="#B89B8B" stroke-width="2" stroke-linecap="round"/>
<path d="M57.5 202L64.475 184.562C64.8223 183.694 66.0649 183.735 66.3544 184.624L72.5 203.5" stroke="#138643" stroke-width="2"/>
<path d="M55.6567 199.332C56.6453 200.594 58.1311 201.433 59.7244 201.624C61.1889 201.8 62.3683 202.413 63.1134 203.389C64.0084 204.562 64.2038 206.172 63.6472 207.921C63.0902 209.671 61.7926 211.486 59.8434 212.9C57.4239 214.655 54.6881 215.294 52.5437 214.926C50.8698 214.64 49.2519 213.779 48.1122 212.542C46.6051 210.906 45.6758 208.14 45.9538 205.046C46.1694 202.647 47.0637 200.602 48.2806 199.227C49.4966 197.853 50.9778 197.198 52.4417 197.367C53.645 197.506 54.7615 198.19 55.6567 199.332Z" fill="#EC1313" stroke="#BD0F0F" stroke-width="2"/>
<path d="M70.188 203.732C71.7751 203.506 73.2446 202.639 74.2068 201.355C75.0913 200.174 76.212 199.46 77.4298 199.302C78.8928 199.114 80.3846 199.749 81.6208 201.106C82.8579 202.463 83.7816 204.495 84.0312 206.89C84.3411 209.862 83.5267 212.551 82.1363 214.225C81.051 215.531 79.497 216.502 77.8558 216.87C75.6853 217.357 72.8253 216.779 70.2851 214.992C68.3146 213.605 66.9907 211.808 66.4087 210.067C65.8271 208.327 65.9999 206.716 66.8783 205.533C67.6004 204.56 68.7508 203.936 70.188 203.732Z" fill="#EC1313" stroke="#BD0F0F" stroke-width="2"/>
<path d="M57.5355 209.536C56.7572 210.314 55.7439 210.814 54.6526 210.957C53.5614 211.101 52.4532 210.88 51.5 210.33" stroke="#BD0F0F" stroke-width="2"/>
<path d="M131 186C131 184.343 132.343 183 134 183H136C137.657 183 139 184.343 139 186V187.473C139 188.971 139.845 190.233 140.909 191.036C143.941 193.326 146 197.356 146 202C146 207.445 143.175 212.028 139.278 213.978C138.25 214.493 137.24 215.285 136.658 216.447C136.489 216.786 136.143 217 135.764 217H134.236C133.857 217 133.511 216.786 133.342 216.447C132.76 215.285 131.75 214.493 130.722 213.978C126.825 212.028 124 207.445 124 202C124 197.356 126.059 193.326 129.091 191.036C130.155 190.233 131 188.971 131 187.473V186Z" fill="#F4D471" stroke="#BD920F" stroke-width="2"/>
<path d="M133.188 210.693C132.3 210.387 131.468 209.86 130.739 209.14C130.009 208.421 129.397 207.524 128.938 206.5C128.478 205.476 128.18 204.347 128.06 203.175C127.94 202.003 128.001 200.812 128.239 199.671" stroke="#BD920F" stroke-width="2"/>
<path d="M196.141 197.484C205.843 200.083 215.769 195.783 218.528 187.461C219.786 190.207 220.132 193.209 219.352 196.12C217.344 203.613 208.427 208.011 199.174 205.532C192.562 203.76 187.806 198.988 186.413 193.674C186.354 193.447 186.396 193.336 186.424 193.287C186.458 193.225 186.537 193.141 186.698 193.079C187.039 192.949 187.579 192.988 188.016 193.348C190.278 195.206 193.034 196.651 196.141 197.484Z" fill="#F8E2A1" stroke="#F0C542" stroke-width="2"/>
<path d="M198.651 203.011C209.223 203.011 218.215 196.276 218.69 187.432C220.792 189.785 222 192.636 222 195.686C222 203.398 214.13 210 203.942 210C196.599 210 190.376 206.529 187.544 201.68C187.426 201.479 187.437 201.363 187.45 201.311C187.464 201.247 187.513 201.152 187.643 201.055C187.917 200.851 188.425 200.746 188.933 200.975C191.817 202.275 195.132 203.011 198.651 203.011Z" fill="#F8E2A1" stroke="#ECB713" stroke-width="2"/>
<path d="M201.542 208.031C207.085 206.545 211.681 203.477 214.616 199.671C217.414 196.044 218.729 191.7 217.814 187.448C220.632 189.154 222.639 191.605 223.437 194.581C224.434 198.301 223.381 202.265 220.738 205.692C218.094 209.119 213.888 211.958 208.73 213.34C201.158 215.369 193.848 213.65 189.732 209.661C189.566 209.5 189.546 209.387 189.544 209.337C189.541 209.276 189.56 209.179 189.652 209.058C189.848 208.803 190.292 208.572 190.834 208.658C194.184 209.19 197.854 209.019 201.542 208.031Z" fill="#F4D471" stroke="#ECB713" stroke-width="2"/>
<rect x="215" y="185" width="8" height="4" rx="1" fill="#5E4908"/>
<path d="M275 190.477C273.02 187.83 273.02 184.17 275 181.523C276.98 184.17 276.98 187.83 275 190.477Z" stroke="#138643" stroke-width="2"/>
<path d="M276.74 190.573C277.205 187.575 279.574 185.206 282.573 184.74C282.107 187.739 279.738 190.108 276.74 190.573Z" stroke="#138643" stroke-width="2"/>
<path d="M273.573 190.573C270.574 190.108 268.205 187.739 267.74 184.74C270.738 185.206 273.107 187.575 273.573 190.573Z" stroke="#138643" stroke-width="2"/>
<path d="M263 200.434C263 195.224 267.224 191 272.434 191H277.566C282.776 191 287 195.224 287 200.434C287 203.233 286.22 205.976 284.746 208.356L279.819 216.316C278.786 217.984 276.963 219 275 219C273.037 219 271.214 217.984 270.181 216.316L265.254 208.356C263.78 205.976 263 203.233 263 200.434Z" fill="#EC1313" stroke="#8E0B0B" stroke-width="2"/>
<mask id="path-57-inside-3_7592_12493" fill="white">
<ellipse cx="268" cy="197" rx="1" ry="2"/>
</mask>
<path d="M267 197C267 197.143 266.985 197.267 266.965 197.365C266.955 197.413 266.944 197.451 266.934 197.478C266.93 197.492 266.926 197.502 266.923 197.509C266.92 197.517 266.918 197.52 266.918 197.52C266.918 197.52 266.921 197.515 266.926 197.507C266.931 197.499 266.939 197.486 266.952 197.469C266.975 197.436 267.022 197.38 267.098 197.316C267.254 197.184 267.564 197 268 197V201C269.442 201 270.209 199.883 270.496 199.309C270.843 198.614 271 197.795 271 197H267ZM268 197C268.436 197 268.746 197.184 268.902 197.316C268.978 197.38 269.025 197.436 269.048 197.469C269.061 197.486 269.069 197.499 269.074 197.507C269.079 197.515 269.082 197.52 269.082 197.52C269.082 197.52 269.08 197.517 269.077 197.509C269.074 197.502 269.07 197.492 269.066 197.478C269.056 197.451 269.045 197.413 269.035 197.365C269.015 197.267 269 197.143 269 197H265C265 197.795 265.157 198.614 265.504 199.309C265.791 199.883 266.558 201 268 201V197ZM269 197C269 196.857 269.015 196.733 269.035 196.635C269.045 196.587 269.056 196.549 269.066 196.522C269.07 196.508 269.074 196.498 269.077 196.491C269.08 196.483 269.082 196.48 269.082 196.48C269.082 196.48 269.079 196.485 269.074 196.493C269.069 196.501 269.061 196.514 269.048 196.531C269.025 196.564 268.978 196.62 268.902 196.684C268.746 196.816 268.436 197 268 197V193C266.558 193 265.791 194.117 265.504 194.691C265.157 195.386 265 196.205 265 197H269ZM268 197C267.564 197 267.254 196.816 267.098 196.684C267.022 196.62 266.975 196.564 266.952 196.531C266.939 196.514 266.931 196.501 266.926 196.493C266.921 196.485 266.918 196.48 266.918 196.48C266.918 196.48 266.92 196.483 266.923 196.491C266.926 196.498 266.93 196.508 266.934 196.522C266.944 196.549 266.955 196.587 266.965 196.635C266.985 196.733 267 196.857 267 197H271C271 196.205 270.843 195.386 270.496 194.691C270.209 194.117 269.442 193 268 193V197Z" fill="#F47171" mask="url(#path-57-inside-3_7592_12493)"/>
<mask id="path-59-inside-4_7592_12493" fill="white">
<ellipse cx="268" cy="204" rx="1" ry="2"/>
</mask>
<path d="M267 204C267 204.143 266.985 204.267 266.965 204.365C266.955 204.413 266.944 204.451 266.934 204.478C266.93 204.492 266.926 204.502 266.923 204.509C266.92 204.517 266.918 204.52 266.918 204.52C266.918 204.52 266.921 204.515 266.926 204.507C266.931 204.499 266.939 204.486 266.952 204.469C266.975 204.436 267.022 204.38 267.098 204.316C267.254 204.184 267.564 204 268 204V208C269.442 208 270.209 206.883 270.496 206.309C270.843 205.614 271 204.795 271 204H267ZM268 204C268.436 204 268.746 204.184 268.902 204.316C268.978 204.38 269.025 204.436 269.048 204.469C269.061 204.486 269.069 204.499 269.074 204.507C269.079 204.515 269.082 204.52 269.082 204.52C269.082 204.52 269.08 204.517 269.077 204.509C269.074 204.502 269.07 204.492 269.066 204.478C269.056 204.451 269.045 204.413 269.035 204.365C269.015 204.267 269 204.143 269 204H265C265 204.795 265.157 205.614 265.504 206.309C265.791 206.883 266.558 208 268 208V204ZM269 204C269 203.857 269.015 203.733 269.035 203.635C269.045 203.587 269.056 203.549 269.066 203.522C269.07 203.508 269.074 203.498 269.077 203.491C269.08 203.483 269.082 203.48 269.082 203.48C269.082 203.48 269.079 203.485 269.074 203.493C269.069 203.501 269.061 203.514 269.048 203.531C269.025 203.564 268.978 203.62 268.902 203.684C268.746 203.816 268.436 204 268 204V200C266.558 200 265.791 201.117 265.504 201.691C265.157 202.386 265 203.205 265 204H269ZM268 204C267.564 204 267.254 203.816 267.098 203.684C267.022 203.62 266.975 203.564 266.952 203.531C266.939 203.514 266.931 203.501 266.926 203.493C266.921 203.485 266.918 203.48 266.918 203.48C266.918 203.48 266.92 203.483 266.923 203.491C266.926 203.498 266.93 203.508 266.934 203.522C266.944 203.549 266.955 203.587 266.965 203.635C266.985 203.733 267 203.857 267 204H271C271 203.205 270.843 202.386 270.496 201.691C270.209 201.117 269.442 200 268 200V204Z" fill="#F47171" mask="url(#path-59-inside-4_7592_12493)"/>
<mask id="path-61-inside-5_7592_12493" fill="white">
<ellipse cx="273" cy="198" rx="1" ry="2"/>
</mask>
<path d="M272 198C272 198.143 271.985 198.267 271.965 198.365C271.955 198.413 271.944 198.451 271.934 198.478C271.93 198.492 271.926 198.502 271.923 198.509C271.92 198.517 271.918 198.52 271.918 198.52C271.918 198.52 271.921 198.515 271.926 198.507C271.931 198.499 271.939 198.486 271.952 198.469C271.975 198.436 272.022 198.38 272.098 198.316C272.254 198.184 272.564 198 273 198V202C274.442 202 275.209 200.883 275.496 200.309C275.843 199.614 276 198.795 276 198H272ZM273 198C273.436 198 273.746 198.184 273.902 198.316C273.978 198.38 274.025 198.436 274.048 198.469C274.061 198.486 274.069 198.499 274.074 198.507C274.079 198.515 274.082 198.52 274.082 198.52C274.082 198.52 274.08 198.517 274.077 198.509C274.074 198.502 274.07 198.492 274.066 198.478C274.056 198.451 274.045 198.413 274.035 198.365C274.015 198.267 274 198.143 274 198H270C270 198.795 270.157 199.614 270.504 200.309C270.791 200.883 271.558 202 273 202V198ZM274 198C274 197.857 274.015 197.733 274.035 197.635C274.045 197.587 274.056 197.549 274.066 197.522C274.07 197.508 274.074 197.498 274.077 197.491C274.08 197.483 274.082 197.48 274.082 197.48C274.082 197.48 274.079 197.485 274.074 197.493C274.069 197.501 274.061 197.514 274.048 197.531C274.025 197.564 273.978 197.62 273.902 197.684C273.746 197.816 273.436 198 273 198V194C271.558 194 270.791 195.117 270.504 195.691C270.157 196.386 270 197.205 270 198H274ZM273 198C272.564 198 272.254 197.816 272.098 197.684C272.022 197.62 271.975 197.564 271.952 197.531C271.939 197.514 271.931 197.501 271.926 197.493C271.921 197.485 271.918 197.48 271.918 197.48C271.918 197.48 271.92 197.483 271.923 197.491C271.926 197.498 271.93 197.508 271.934 197.522C271.944 197.549 271.955 197.587 271.965 197.635C271.985 197.733 272 197.857 272 198H276C276 197.205 275.843 196.386 275.496 195.691C275.209 195.117 274.442 194 273 194V198Z" fill="#F47171" mask="url(#path-61-inside-5_7592_12493)"/>
<mask id="path-63-inside-6_7592_12493" fill="white">
<ellipse cx="272" cy="206" rx="1" ry="2"/>
</mask>
<path d="M271 206C271 206.143 270.985 206.267 270.965 206.365C270.955 206.413 270.944 206.451 270.934 206.478C270.93 206.492 270.926 206.502 270.923 206.509C270.92 206.517 270.918 206.52 270.918 206.52C270.918 206.52 270.921 206.515 270.926 206.507C270.931 206.499 270.939 206.486 270.952 206.469C270.975 206.436 271.022 206.38 271.098 206.316C271.254 206.184 271.564 206 272 206V210C273.442 210 274.209 208.883 274.496 208.309C274.843 207.614 275 206.795 275 206H271ZM272 206C272.436 206 272.746 206.184 272.902 206.316C272.978 206.38 273.025 206.436 273.048 206.469C273.061 206.486 273.069 206.499 273.074 206.507C273.079 206.515 273.082 206.52 273.082 206.52C273.082 206.52 273.08 206.517 273.077 206.509C273.074 206.502 273.07 206.492 273.066 206.478C273.056 206.451 273.045 206.413 273.035 206.365C273.015 206.267 273 206.143 273 206H269C269 206.795 269.157 207.614 269.504 208.309C269.791 208.883 270.558 210 272 210V206ZM273 206C273 205.857 273.015 205.733 273.035 205.635C273.045 205.587 273.056 205.549 273.066 205.522C273.07 205.508 273.074 205.498 273.077 205.491C273.08 205.483 273.082 205.48 273.082 205.48C273.082 205.48 273.079 205.485 273.074 205.493C273.069 205.501 273.061 205.514 273.048 205.531C273.025 205.564 272.978 205.62 272.902 205.684C272.746 205.816 272.436 206 272 206V202C270.558 202 269.791 203.117 269.504 203.691C269.157 204.386 269 205.205 269 206H273ZM272 206C271.564 206 271.254 205.816 271.098 205.684C271.022 205.62 270.975 205.564 270.952 205.531C270.939 205.514 270.931 205.501 270.926 205.493C270.921 205.485 270.918 205.48 270.918 205.48C270.918 205.48 270.92 205.483 270.923 205.491C270.926 205.498 270.93 205.508 270.934 205.522C270.944 205.549 270.955 205.587 270.965 205.635C270.985 205.733 271 205.857 271 206H275C275 205.205 274.843 204.386 274.496 203.691C274.209 203.117 273.442 202 272 202V206Z" fill="#F47171" mask="url(#path-63-inside-6_7592_12493)"/>
<mask id="path-65-inside-7_7592_12493" fill="white">
<ellipse cx="278" cy="196" rx="1" ry="2"/>
</mask>
<path d="M277 196C277 196.143 276.985 196.267 276.965 196.365C276.955 196.413 276.944 196.451 276.934 196.478C276.93 196.492 276.926 196.502 276.923 196.509C276.92 196.517 276.918 196.52 276.918 196.52C276.918 196.52 276.921 196.515 276.926 196.507C276.931 196.499 276.939 196.486 276.952 196.469C276.975 196.436 277.022 196.38 277.098 196.316C277.254 196.184 277.564 196 278 196V200C279.442 200 280.209 198.883 280.496 198.309C280.843 197.614 281 196.795 281 196H277ZM278 196C278.436 196 278.746 196.184 278.902 196.316C278.978 196.38 279.025 196.436 279.048 196.469C279.061 196.486 279.069 196.499 279.074 196.507C279.079 196.515 279.082 196.52 279.082 196.52C279.082 196.52 279.08 196.517 279.077 196.509C279.074 196.502 279.07 196.492 279.066 196.478C279.056 196.451 279.045 196.413 279.035 196.365C279.015 196.267 279 196.143 279 196H275C275 196.795 275.157 197.614 275.504 198.309C275.791 198.883 276.558 200 278 200V196ZM279 196C279 195.857 279.015 195.733 279.035 195.635C279.045 195.587 279.056 195.549 279.066 195.522C279.07 195.508 279.074 195.498 279.077 195.491C279.08 195.483 279.082 195.48 279.082 195.48C279.082 195.48 279.079 195.485 279.074 195.493C279.069 195.501 279.061 195.514 279.048 195.531C279.025 195.564 278.978 195.62 278.902 195.684C278.746 195.816 278.436 196 278 196V192C276.558 192 275.791 193.117 275.504 193.691C275.157 194.386 275 195.205 275 196H279ZM278 196C277.564 196 277.254 195.816 277.098 195.684C277.022 195.62 276.975 195.564 276.952 195.531C276.939 195.514 276.931 195.501 276.926 195.493C276.921 195.485 276.918 195.48 276.918 195.48C276.918 195.48 276.92 195.483 276.923 195.491C276.926 195.498 276.93 195.508 276.934 195.522C276.944 195.549 276.955 195.587 276.965 195.635C276.985 195.733 277 195.857 277 196H281C281 195.205 280.843 194.386 280.496 193.691C280.209 193.117 279.442 192 278 192V196Z" fill="#F47171" mask="url(#path-65-inside-7_7592_12493)"/>
<mask id="path-67-inside-8_7592_12493" fill="white">
<ellipse cx="277" cy="203" rx="1" ry="2"/>
</mask>
<path d="M276 203C276 203.143 275.985 203.267 275.965 203.365C275.955 203.413 275.944 203.451 275.934 203.478C275.93 203.492 275.926 203.502 275.923 203.509C275.92 203.517 275.918 203.52 275.918 203.52C275.918 203.52 275.921 203.515 275.926 203.507C275.931 203.499 275.939 203.486 275.952 203.469C275.975 203.436 276.022 203.38 276.098 203.316C276.254 203.184 276.564 203 277 203V207C278.442 207 279.209 205.883 279.496 205.309C279.843 204.614 280 203.795 280 203H276ZM277 203C277.436 203 277.746 203.184 277.902 203.316C277.978 203.38 278.025 203.436 278.048 203.469C278.061 203.486 278.069 203.499 278.074 203.507C278.079 203.515 278.082 203.52 278.082 203.52C278.082 203.52 278.08 203.517 278.077 203.509C278.074 203.502 278.07 203.492 278.066 203.478C278.056 203.451 278.045 203.413 278.035 203.365C278.015 203.267 278 203.143 278 203H274C274 203.795 274.157 204.614 274.504 205.309C274.791 205.883 275.558 207 277 207V203ZM278 203C278 202.857 278.015 202.733 278.035 202.635C278.045 202.587 278.056 202.549 278.066 202.522C278.07 202.508 278.074 202.498 278.077 202.491C278.08 202.483 278.082 202.48 278.082 202.48C278.082 202.48 278.079 202.485 278.074 202.493C278.069 202.501 278.061 202.514 278.048 202.531C278.025 202.564 277.978 202.62 277.902 202.684C277.746 202.816 277.436 203 277 203V199C275.558 199 274.791 200.117 274.504 200.691C274.157 201.386 274 202.205 274 203H278ZM277 203C276.564 203 276.254 202.816 276.098 202.684C276.022 202.62 275.975 202.564 275.952 202.531C275.939 202.514 275.931 202.501 275.926 202.493C275.921 202.485 275.918 202.48 275.918 202.48C275.918 202.48 275.92 202.483 275.923 202.491C275.926 202.498 275.93 202.508 275.934 202.522C275.944 202.549 275.955 202.587 275.965 202.635C275.985 202.733 276 202.857 276 203H280C280 202.205 279.843 201.386 279.496 200.691C279.209 200.117 278.442 199 277 199V203Z" fill="#F47171" mask="url(#path-67-inside-8_7592_12493)"/>
<mask id="path-69-inside-9_7592_12493" fill="white">
<ellipse cx="282" cy="200" rx="1" ry="2"/>
</mask>
<path d="M281 200C281 200.143 280.985 200.267 280.965 200.365C280.955 200.413 280.944 200.451 280.934 200.478C280.93 200.492 280.926 200.502 280.923 200.509C280.92 200.517 280.918 200.52 280.918 200.52C280.918 200.52 280.921 200.515 280.926 200.507C280.931 200.499 280.939 200.486 280.952 200.469C280.975 200.436 281.022 200.38 281.098 200.316C281.254 200.184 281.564 200 282 200V204C283.442 204 284.209 202.883 284.496 202.309C284.843 201.614 285 200.795 285 200H281ZM282 200C282.436 200 282.746 200.184 282.902 200.316C282.978 200.38 283.025 200.436 283.048 200.469C283.061 200.486 283.069 200.499 283.074 200.507C283.079 200.515 283.082 200.52 283.082 200.52C283.082 200.52 283.08 200.517 283.077 200.509C283.074 200.502 283.07 200.492 283.066 200.478C283.056 200.451 283.045 200.413 283.035 200.365C283.015 200.267 283 200.143 283 200H279C279 200.795 279.157 201.614 279.504 202.309C279.791 202.883 280.558 204 282 204V200ZM283 200C283 199.857 283.015 199.733 283.035 199.635C283.045 199.587 283.056 199.549 283.066 199.522C283.07 199.508 283.074 199.498 283.077 199.491C283.08 199.483 283.082 199.48 283.082 199.48C283.082 199.48 283.079 199.485 283.074 199.493C283.069 199.501 283.061 199.514 283.048 199.531C283.025 199.564 282.978 199.62 282.902 199.684C282.746 199.816 282.436 200 282 200V196C280.558 196 279.791 197.117 279.504 197.691C279.157 198.386 279 199.205 279 200H283ZM282 200C281.564 200 281.254 199.816 281.098 199.684C281.022 199.62 280.975 199.564 280.952 199.531C280.939 199.514 280.931 199.501 280.926 199.493C280.921 199.485 280.918 199.48 280.918 199.48C280.918 199.48 280.92 199.483 280.923 199.491C280.926 199.498 280.93 199.508 280.934 199.522C280.944 199.549 280.955 199.587 280.965 199.635C280.985 199.733 281 199.857 281 200H285C285 199.205 284.843 198.386 284.496 197.691C284.209 197.117 283.442 196 282 196V200Z" fill="#F47171" mask="url(#path-69-inside-9_7592_12493)"/>
<mask id="path-71-inside-10_7592_12493" fill="white">
<ellipse cx="281" cy="207" rx="1" ry="2"/>
</mask>
<path d="M280 207C280 207.143 279.985 207.267 279.965 207.365C279.955 207.413 279.944 207.451 279.934 207.478C279.93 207.492 279.926 207.502 279.923 207.509C279.92 207.517 279.918 207.52 279.918 207.52C279.918 207.52 279.921 207.515 279.926 207.507C279.931 207.499 279.939 207.486 279.952 207.469C279.975 207.436 280.022 207.38 280.098 207.316C280.254 207.184 280.564 207 281 207V211C282.442 211 283.209 209.883 283.496 209.309C283.843 208.614 284 207.795 284 207H280ZM281 207C281.436 207 281.746 207.184 281.902 207.316C281.978 207.38 282.025 207.436 282.048 207.469C282.061 207.486 282.069 207.499 282.074 207.507C282.079 207.515 282.082 207.52 282.082 207.52C282.082 207.52 282.08 207.517 282.077 207.509C282.074 207.502 282.07 207.492 282.066 207.478C282.056 207.451 282.045 207.413 282.035 207.365C282.015 207.267 282 207.143 282 207H278C278 207.795 278.157 208.614 278.504 209.309C278.791 209.883 279.558 211 281 211V207ZM282 207C282 206.857 282.015 206.733 282.035 206.635C282.045 206.587 282.056 206.549 282.066 206.522C282.07 206.508 282.074 206.498 282.077 206.491C282.08 206.483 282.082 206.48 282.082 206.48C282.082 206.48 282.079 206.485 282.074 206.493C282.069 206.501 282.061 206.514 282.048 206.531C282.025 206.564 281.978 206.62 281.902 206.684C281.746 206.816 281.436 207 281 207V203C279.558 203 278.791 204.117 278.504 204.691C278.157 205.386 278 206.205 278 207H282ZM281 207C280.564 207 280.254 206.816 280.098 206.684C280.022 206.62 279.975 206.564 279.952 206.531C279.939 206.514 279.931 206.501 279.926 206.493C279.921 206.485 279.918 206.48 279.918 206.48C279.918 206.48 279.92 206.483 279.923 206.491C279.926 206.498 279.93 206.508 279.934 206.522C279.944 206.549 279.955 206.587 279.965 206.635C279.985 206.733 280 206.857 280 207H284C284 206.205 283.843 205.386 283.496 204.691C283.209 204.117 282.442 203 281 203V207Z" fill="#F47171" mask="url(#path-71-inside-10_7592_12493)"/>
<mask id="path-73-inside-11_7592_12493" fill="white">
<ellipse cx="277" cy="210" rx="1" ry="2"/>
</mask>
<path d="M276 210C276 210.143 275.985 210.267 275.965 210.365C275.955 210.413 275.944 210.451 275.934 210.478C275.93 210.492 275.926 210.502 275.923 210.509C275.92 210.517 275.918 210.52 275.918 210.52C275.918 210.52 275.921 210.515 275.926 210.507C275.931 210.499 275.939 210.486 275.952 210.469C275.975 210.436 276.022 210.38 276.098 210.316C276.254 210.184 276.564 210 277 210V214C278.442 214 279.209 212.883 279.496 212.309C279.843 211.614 280 210.795 280 210H276ZM277 210C277.436 210 277.746 210.184 277.902 210.316C277.978 210.38 278.025 210.436 278.048 210.469C278.061 210.486 278.069 210.499 278.074 210.507C278.079 210.515 278.082 210.52 278.082 210.52C278.082 210.52 278.08 210.517 278.077 210.509C278.074 210.502 278.07 210.492 278.066 210.478C278.056 210.451 278.045 210.413 278.035 210.365C278.015 210.267 278 210.143 278 210H274C274 210.795 274.157 211.614 274.504 212.309C274.791 212.883 275.558 214 277 214V210ZM278 210C278 209.857 278.015 209.733 278.035 209.635C278.045 209.587 278.056 209.549 278.066 209.522C278.07 209.508 278.074 209.498 278.077 209.491C278.08 209.483 278.082 209.48 278.082 209.48C278.082 209.48 278.079 209.485 278.074 209.493C278.069 209.501 278.061 209.514 278.048 209.531C278.025 209.564 277.978 209.62 277.902 209.684C277.746 209.816 277.436 210 277 210V206C275.558 206 274.791 207.117 274.504 207.691C274.157 208.386 274 209.205 274 210H278ZM277 210C276.564 210 276.254 209.816 276.098 209.684C276.022 209.62 275.975 209.564 275.952 209.531C275.939 209.514 275.931 209.501 275.926 209.493C275.921 209.485 275.918 209.48 275.918 209.48C275.918 209.48 275.92 209.483 275.923 209.491C275.926 209.498 275.93 209.508 275.934 209.522C275.944 209.549 275.955 209.587 275.965 209.635C275.985 209.733 276 209.857 276 210H280C280 209.205 279.843 208.386 279.496 207.691C279.209 207.117 278.442 206 277 206V210Z" fill="#F47171" mask="url(#path-73-inside-11_7592_12493)"/>
<mask id="path-75-inside-12_7592_12493" fill="white">
<ellipse cx="273" cy="213" rx="1" ry="2"/>
</mask>
<path d="M272 213C272 213.143 271.985 213.267 271.965 213.365C271.955 213.413 271.944 213.451 271.934 213.478C271.93 213.492 271.926 213.502 271.923 213.509C271.92 213.517 271.918 213.52 271.918 213.52C271.918 213.52 271.921 213.515 271.926 213.507C271.931 213.499 271.939 213.486 271.952 213.469C271.975 213.436 272.022 213.38 272.098 213.316C272.254 213.184 272.564 213 273 213V217C274.442 217 275.209 215.883 275.496 215.309C275.843 214.614 276 213.795 276 213H272ZM273 213C273.436 213 273.746 213.184 273.902 213.316C273.978 213.38 274.025 213.436 274.048 213.469C274.061 213.486 274.069 213.499 274.074 213.507C274.079 213.515 274.082 213.52 274.082 213.52C274.082 213.52 274.08 213.517 274.077 213.509C274.074 213.502 274.07 213.492 274.066 213.478C274.056 213.451 274.045 213.413 274.035 213.365C274.015 213.267 274 213.143 274 213H270C270 213.795 270.157 214.614 270.504 215.309C270.791 215.883 271.558 217 273 217V213ZM274 213C274 212.857 274.015 212.733 274.035 212.635C274.045 212.587 274.056 212.549 274.066 212.522C274.07 212.508 274.074 212.498 274.077 212.491C274.08 212.483 274.082 212.48 274.082 212.48C274.082 212.48 274.079 212.485 274.074 212.493C274.069 212.501 274.061 212.514 274.048 212.531C274.025 212.564 273.978 212.62 273.902 212.684C273.746 212.816 273.436 213 273 213V209C271.558 209 270.791 210.117 270.504 210.691C270.157 211.386 270 212.205 270 213H274ZM273 213C272.564 213 272.254 212.816 272.098 212.684C272.022 212.62 271.975 212.564 271.952 212.531C271.939 212.514 271.931 212.501 271.926 212.493C271.921 212.485 271.918 212.48 271.918 212.48C271.918 212.48 271.92 212.483 271.923 212.491C271.926 212.498 271.93 212.508 271.934 212.522C271.944 212.549 271.955 212.587 271.965 212.635C271.985 212.733 272 212.857 272 213H276C276 212.205 275.843 211.386 275.496 210.691C275.209 210.117 274.442 209 273 209V213Z" fill="#F47171" mask="url(#path-75-inside-12_7592_12493)"/>
</svg>
