<svg width="340" height="260" viewBox="0 0 340 260" fill="none" xmlns="http://www.w3.org/2000/svg">
<rect x="0.5" y="0.5" width="339" height="259" rx="7.5" fill="white" stroke="#E8E8E8"/>
<path d="M137.107 116.976C136.895 117.335 136.687 117.747 136.552 118.2H133.447C133.312 117.747 133.104 117.335 132.892 116.976C132.622 116.521 132.288 116.067 132.011 115.689C131.923 115.569 131.84 115.456 131.767 115.354L129.93 112.783C129.704 112.466 129.737 112.113 129.939 111.841C130.282 111.378 130.618 110.713 130.6 109.954C130.6 109.936 130.6 109.918 130.6 109.9C130.6 109.148 130.959 108.481 131.52 108.059C131.98 107.714 132.356 107.185 132.454 106.534C132.577 105.725 132.879 105.09 133.292 104.668C133.688 104.263 134.238 104 135 104C135.706 104 136.206 104.226 136.577 104.573C136.966 104.937 137.274 105.492 137.462 106.226C137.601 106.77 137.937 107.208 138.339 107.505C138.984 107.98 139.4 108.741 139.4 109.6C139.4 109.666 139.397 109.732 139.392 109.797C139.331 110.623 139.703 111.355 140.062 111.843C140.262 112.116 140.294 112.467 140.069 112.783L138.232 115.354C138.159 115.456 138.076 115.569 137.988 115.689C137.71 116.067 137.377 116.521 137.107 116.976Z" fill="#D0E75D" stroke="#9DAE45" stroke-width="2"/>
<path d="M128.2 125.2C128.2 121.444 131.245 118.4 135 118.4C138.756 118.4 141.8 121.444 141.8 125.2V125.987C141.8 127.39 141.656 128.789 141.37 130.162L136.188 155.034C136.071 155.597 135.575 156 135 156C134.425 156 133.929 155.597 133.812 155.034L128.63 130.162C128.344 128.789 128.2 127.39 128.2 125.987V125.2Z" fill="#F09442" stroke="#BD610F" stroke-width="2"/>
<line x1="130.8" y1="123.6" x2="134.4" y2="123.6" stroke="#BD610F" stroke-width="2"/>
<line x1="136.2" y1="129" x2="139.8" y2="129" stroke="#BD610F" stroke-width="2"/>
<line x1="131.4" y1="136.8" x2="135" y2="136.8" stroke="#BD610F" stroke-width="2"/>
<line x1="136.2" y1="143.4" x2="139.2" y2="143.4" stroke="#BD610F" stroke-width="2"/>
<path d="M222.622 183.485C222.296 184.049 222.134 184.776 222.334 185.5C222.587 186.416 222.5 187.296 222.081 188.022C222.025 188.118 221.965 188.209 221.901 188.296C221.161 189.297 220.674 190.621 220.731 191.936C220.753 192.449 220.647 192.906 220.42 193.299C219.976 194.067 219.046 194.599 217.698 194.686C216.358 194.772 214.725 194.399 213.15 193.49C211.576 192.581 210.436 191.353 209.841 190.15C209.242 188.938 209.238 187.867 209.681 187.099C209.908 186.706 210.251 186.386 210.706 186.148C211.873 185.54 212.776 184.456 213.273 183.315C213.316 183.216 213.365 183.118 213.42 183.022C213.84 182.296 214.559 181.781 215.478 181.542C216.205 181.353 216.754 180.849 217.079 180.285C217.728 179.162 219.49 178.675 221.15 179.634C222.811 180.592 223.27 182.362 222.622 183.485Z" fill="#1AB25A" stroke="#138643" stroke-width="2"/>
<path d="M220.117 183.425C220.393 182.946 220.229 182.335 219.751 182.058C219.272 181.782 218.661 181.946 218.385 182.425L220.117 183.425ZM220.633 187.067C221.11 186.788 221.271 186.176 220.993 185.699C220.715 185.222 220.102 185.061 219.625 185.339L220.633 187.067ZM213.279 187.176C213.035 186.681 212.435 186.479 211.94 186.723C211.445 186.968 211.242 187.568 211.487 188.063L213.279 187.176ZM218.385 182.425L215.085 188.14L216.817 189.14L220.117 183.425L218.385 182.425ZM216.454 189.504L220.633 187.067L219.625 185.339L215.447 187.776L216.454 189.504ZM215.085 188.14L213.435 190.998L215.167 191.998L216.817 189.14L215.085 188.14ZM213.435 190.998L209.085 198.533L210.817 199.533L215.167 191.998L213.435 190.998ZM215.197 191.055L213.279 187.176L211.487 188.063L213.404 191.941L215.197 191.055Z" fill="#138643"/>
<path d="M188.266 185.5L187.303 185.234L188.266 185.5C188.014 186.416 188.1 187.296 188.52 188.022C188.575 188.118 188.635 188.209 188.699 188.296C189.439 189.297 189.927 190.621 189.87 191.936C189.848 192.449 189.954 192.906 190.181 193.299C190.624 194.067 191.554 194.599 192.902 194.686C194.242 194.772 195.875 194.399 197.45 193.49C199.025 192.581 200.165 191.353 200.76 190.15C201.359 188.938 201.363 187.867 200.92 187.099C200.693 186.706 200.35 186.386 199.894 186.148C198.727 185.54 197.824 184.456 197.328 183.315C197.285 183.216 197.235 183.118 197.18 183.022C196.761 182.296 196.042 181.781 195.123 181.542C194.396 181.353 193.847 180.849 193.521 180.285C192.873 179.162 191.111 178.675 189.45 179.634C187.79 180.592 187.33 182.362 187.979 183.485C188.304 184.049 188.466 184.776 188.266 185.5Z" fill="#1AB25A" stroke="#138643" stroke-width="2"/>
<path d="M190.484 183.425C190.208 182.946 190.372 182.335 190.85 182.058C191.328 181.782 191.94 181.946 192.216 182.425L190.484 183.425ZM189.968 187.067C189.491 186.788 189.329 186.176 189.608 185.699C189.886 185.222 190.498 185.061 190.975 185.339L189.968 187.067ZM197.321 187.176C197.566 186.681 198.166 186.479 198.661 186.723C199.156 186.968 199.359 187.568 199.114 188.063L197.321 187.176ZM192.216 182.425L195.516 188.14L193.784 189.14L190.484 183.425L192.216 182.425ZM194.146 189.504L189.968 187.067L190.975 185.339L195.154 187.776L194.146 189.504ZM195.516 188.14L197.166 190.998L195.434 191.998L193.784 189.14L195.516 188.14ZM197.166 190.998L201.516 198.533L199.784 199.533L195.434 191.998L197.166 190.998ZM195.404 191.055L197.321 187.176L199.114 188.063L197.196 191.941L195.404 191.055Z" fill="#138643"/>
<path d="M208.2 176.6C208.2 177.251 208.423 177.962 208.958 178.489C209.635 179.155 210 179.961 210 180.8C210 180.91 209.994 181.019 209.981 181.127C209.841 182.363 210.081 183.754 210.787 184.864C211.063 185.297 211.2 185.746 211.2 186.2C211.2 187.087 210.66 188.013 209.536 188.762C208.419 189.507 206.818 190 205 190C203.181 190 201.581 189.507 200.463 188.762C199.339 188.013 198.8 187.087 198.8 186.2C198.8 185.746 198.936 185.297 199.212 184.864C199.919 183.754 200.159 182.363 200.018 181.127C200.006 181.019 200 180.91 200 180.8C200 179.961 200.365 179.155 201.041 178.489C201.576 177.962 201.8 177.251 201.8 176.6C201.8 175.303 203.082 174 205 174C206.917 174 208.2 175.303 208.2 176.6Z" fill="#1AB25A" stroke="#138643" stroke-width="2"/>
<path d="M205.999 177.8C205.999 177.248 205.552 176.8 204.999 176.8C204.447 176.8 203.999 177.248 203.999 177.8L205.999 177.8ZM208.268 180.696C208.542 180.217 208.375 179.606 207.896 179.332C207.416 179.058 206.805 179.224 206.531 179.704L208.268 180.696ZM201.954 184.468C201.495 184.162 200.874 184.286 200.567 184.745C200.261 185.205 200.385 185.826 200.845 186.132L201.954 184.468ZM203.999 177.8L203.999 184.4L205.999 184.4L205.999 177.8L203.999 177.8ZM205.868 184.896L208.268 180.696L206.531 179.704L204.131 183.904L205.868 184.896ZM203.999 184.4L203.999 187.7L205.999 187.7L205.999 184.4L203.999 184.4ZM203.999 187.7L203.999 196.4L205.999 196.4L205.999 187.7L203.999 187.7ZM205.554 186.868L201.954 184.468L200.845 186.132L204.445 188.532L205.554 186.868Z" fill="#138643"/>
<path d="M210.604 217.767C208.433 218.52 206.419 220.184 205.852 222.631L205.088 225.93C205.079 225.971 205.042 226 205 226C204.958 226 204.922 225.971 204.912 225.93L204.149 222.631C203.582 220.184 201.568 218.52 199.397 217.767C194.025 215.905 190.4 211.516 190.4 206.548C190.4 199.992 196.77 194.4 205 194.4C213.231 194.4 219.6 199.992 219.6 206.548C219.6 211.516 215.976 215.905 210.604 217.767Z" fill="#8E0B4C" stroke="#5E0808" stroke-width="2"/>
<path d="M198.468 213.976C197.241 213.299 196.195 212.438 195.389 211.441C194.584 210.445 194.035 209.333 193.774 208.169" stroke="#5E0808" stroke-width="2"/>
<path d="M132.705 190.243C132.784 191.344 133.741 192.174 134.842 192.095C135.944 192.016 136.773 191.059 136.695 189.958L132.705 190.243ZM136.695 189.958C136.609 188.762 136.717 186.827 137.303 185.06C137.893 183.283 138.845 182.001 140.225 181.464L138.775 177.736C135.835 178.88 134.287 181.447 133.507 183.8C132.723 186.163 132.59 188.639 132.705 190.243L136.695 189.958Z" fill="#138643"/>
<path d="M151.047 200.406L148.978 211.271C148.122 215.765 143.709 218.654 139.247 217.64C136.451 217.004 133.548 217.004 130.752 217.64C126.291 218.654 121.878 215.765 121.022 211.271L118.952 200.406C117.552 193.058 124.421 186.831 131.597 188.942L131.896 189.029C133.922 189.625 136.077 189.625 138.103 189.029L138.402 188.942C145.578 186.831 152.447 193.058 151.047 200.406Z" fill="#BD0F0F" stroke="#8E0B0B" stroke-width="2"/>
<path d="M144.142 194.731L141.503 214.025C141.058 217.277 138.281 219.7 135 219.7C131.718 219.7 128.941 217.277 128.496 214.025L125.858 194.731C125.36 191.089 128.774 188.139 132.306 189.161C134.066 189.671 135.934 189.671 137.694 189.161C141.225 188.139 144.64 191.089 144.142 194.731Z" fill="#BD0F0F" stroke="#8E0B0B" stroke-width="2"/>
<path d="M82 63C82 71.6622 74.4549 78.7999 65 78.7999C55.5451 78.7999 48 71.6622 48 63C48 54.3377 55.5451 47.2 65 47.2C74.4549 47.2 82 54.3377 82 63Z" fill="white" stroke="#8E0B0B" stroke-width="2"/>
<path d="M82 63C82 71.6622 74.4549 78.7999 65 78.7999C55.5451 78.7999 48 71.6622 48 63C48 54.3377 55.5451 47.2 65 47.2C74.4549 47.2 82 54.3377 82 63Z" fill="#BD0F0F" stroke="#8E0B0B" stroke-width="2"/>
<path d="M59.9003 50.4C58.2203 49.2 56.2547 49.1407 54.8408 49.8512L56.7884 48.7005L58.7295 47.8763C58.9067 47.801 59.0891 47.7386 59.2753 47.6897L61.2772 47.163L61.4659 47.1378C62.459 47.0047 63.2003 46.1574 63.2003 45.1555V41.4C63.2003 40.7372 63.7376 40.2 64.4003 40.2H65.6003C66.2631 40.2 66.8003 40.7372 66.8003 41.4V45.285C66.8003 46.2206 67.5042 47.0064 68.4342 47.109C68.6486 47.1327 68.8605 47.1752 69.0674 47.236L71.6303 47.9898L73.9708 49.1098C73.9987 49.1226 74.0266 49.136 74.0544 49.1498L73.9708 49.1098C72.0672 48.2392 69.7917 49.9115 69.2003 50.7C72.8003 52.38 72.5004 55.5 72.2003 56.9997C71.0004 55.2 68.4003 53.5 66.8003 53.4C66.8003 55.8 65.9003 58.2997 65.0003 59.0997C63.8003 58.1397 62.4003 54.8 62.3003 53.4C60.8603 53.4 57.8004 55.5 56.9004 56.1C57.8004 52.8 59.2003 51.7 59.9003 50.4Z" fill="#138643" stroke="#0D592D" stroke-width="2"/>
<path d="M115.556 57.294L115.575 57.2302L115.586 57.1643L117.247 47.2H125.761L126.341 50.4856C127.064 54.5872 128.089 58.6299 129.406 62.5811L132.073 70.5821C132.554 72.0261 132.8 73.5382 132.8 75.0603C132.8 81.0988 127.875 86 121.83 86C115.76 86 110.8 81.0035 110.8 74.9234C110.8 73.4916 111.014 72.0541 111.435 70.6874L115.556 57.294Z" fill="#690FBD" stroke="#25085E" stroke-width="2"/>
<path d="M116.374 49.7107L116.374 49.7107L115.268 51.7643C114.993 52.2752 114.545 52.657 114.018 52.8528L114.71 48.9311C115.032 47.1072 116.318 45.6595 117.99 45.0772C119.109 44.6874 120.318 43.7467 120.496 42.2612L121.487 34L122.113 34L123.104 42.2612C123.282 43.7467 124.491 44.6874 125.61 45.0772C127.282 45.6595 128.568 47.1072 128.89 48.9311L129.578 52.8272C129.186 52.6601 128.846 52.3783 128.609 52.0093L126.892 49.3382L126.051 49.8789L126.892 49.3381C126.474 48.6873 125.521 48.6895 125.106 49.3423C125.106 49.3423 125.106 49.3423 125.106 49.3423L121.911 54.3624C121.835 54.482 121.662 54.4867 121.58 54.3713L118.17 49.5971L117.362 50.1742L118.17 49.5971C117.714 48.9586 116.746 49.0198 116.374 49.7107Z" fill="#138643" stroke="#0D592D" stroke-width="2"/>
<path d="M153.837 57.1502L153.833 57.1745L153.83 57.199L153.277 62.0737L149.77 61.1341L151.624 57.2974C151.924 56.6755 152.165 56.0267 152.344 55.3596L153.326 51.6948L154.912 50.5765L153.837 57.1502Z" fill="#138643" stroke="#0D592D" stroke-width="2"/>
<path d="M158.492 75.6874C156.614 82.6966 150.517 86.802 145.134 85.3595C139.75 83.917 136.523 77.3132 138.401 70.3039C140.279 63.2947 146.376 59.1893 151.76 60.6318C157.143 62.0743 160.37 68.6781 158.492 75.6874Z" fill="#690FBD" stroke="#25085E" stroke-width="2"/>
<path d="M141.25 63.9237L142.301 63.6857C145.254 63.0169 148.226 64.7313 149.125 67.6231V67.6231C149.324 68.2632 150.098 68.5117 150.633 68.1071L150.715 68.045C153.149 66.2023 156.579 66.4814 158.683 68.6934L159.351 69.3949" stroke="#25085E" stroke-width="2"/>
<path d="M114 74.9999C114 76.3691 114.36 77.7142 115.045 78.8999C115.73 80.0857 116.714 81.0704 117.9 81.7549" stroke="#25085E" stroke-width="2"/>
<path d="M155.155 76.8635C154.91 77.7768 154.488 78.633 153.912 79.3831C153.337 80.1333 152.619 80.7627 151.8 81.2354" stroke="#25085E" stroke-width="2"/>
<path d="M74.1438 186.597C74.9397 184.777 76.7381 183.6 78.7251 183.6H78.8745C80.8615 183.6 82.6599 184.777 83.4558 186.597L87.7934 196.519C89.1167 199.547 89.7998 202.815 89.7998 206.118V206.6C89.7998 212.675 84.8749 217.6 78.7998 217.6C72.7247 217.6 67.7998 212.675 67.7998 206.6V206.118C67.7998 202.815 68.4829 199.547 69.8062 196.519L74.1438 186.597Z" fill="#BCCD75" stroke="#0D592D" stroke-width="2"/>
<path d="M83.7998 205.4C83.7998 209.003 81.3983 211.6 78.7998 211.6C76.2014 211.6 73.7998 209.003 73.7998 205.4C73.7998 201.798 76.2014 199.2 78.7998 199.2C81.3983 199.2 83.7998 201.798 83.7998 205.4Z" fill="#FAD338" stroke="#0D592D" stroke-width="2"/>
<ellipse cx="51.2002" cy="183.2" rx="3" ry="1.8" fill="#0D592D"/>
<path d="M46.5442 186.597C47.3401 184.776 49.1385 183.6 51.1255 183.6H51.2749C53.2619 183.6 55.0603 184.776 55.8562 186.597L60.1938 196.519C61.5171 199.546 62.2002 202.814 62.2002 206.118V206.6C62.2002 212.675 57.2753 217.6 51.2002 217.6C45.1251 217.6 40.2002 212.675 40.2002 206.6V206.118C40.2002 202.814 40.8833 199.546 42.2066 196.519L46.5442 186.597Z" fill="#138643" stroke="#0D592D" stroke-width="2"/>
<path d="M43.6662 204.581C43.2218 206.24 43.337 207.998 43.9941 209.585C44.6512 211.171 45.8134 212.496 47.3004 213.355" stroke="#0D592D" stroke-width="2"/>
<path d="M201.869 37.6103C201.596 35.7048 203.075 34 205 34C206.925 34 208.403 35.7048 208.131 37.6103L207.889 39.3024C207.674 40.8114 208.043 42.3457 208.922 43.591C210.301 45.5441 210.713 48.0195 210.042 50.3139L208.188 56.6481C207.787 58.0181 207.684 59.4581 207.886 60.8713L208.321 63.9172C208.493 65.122 207.558 66.2 206.341 66.2H203.659C202.442 66.2 201.507 65.122 201.679 63.9172L202.041 61.3796C202.295 59.6061 202.067 57.7972 201.382 56.1419L201.255 55.8353C199.736 52.1628 199.736 48.0372 201.255 44.3647L201.64 43.4347C202.156 42.1875 202.328 40.8245 202.137 39.4884L201.869 37.6103Z" fill="#9FCE6E" stroke="#7C9C5E" stroke-width="2"/>
<path d="M206 41.3999C206 40.8476 205.552 40.3999 205 40.3999C204.448 40.3999 204 40.8476 204 41.3999L206 41.3999ZM208.255 48.532C208.714 48.2256 208.839 47.6047 208.532 47.1452C208.226 46.6857 207.605 46.5615 207.145 46.8679L208.255 48.532ZM203.518 50.903C203.299 50.3961 202.71 50.1628 202.203 50.382C201.696 50.6013 201.463 51.1899 201.682 51.6968L203.518 50.903ZM204 41.3999L204 49.4999L206 49.4999L206 41.3999L204 41.3999ZM205.555 50.332L208.255 48.532L207.145 46.8679L204.445 48.6679L205.555 50.332ZM204 49.4999L204 56.8499L206 56.8499L206 49.4999L204 49.4999ZM204 56.8499L204 66.5999L206 66.5999L206 56.8499L204 56.8499ZM205.918 56.453L203.518 50.903L201.682 51.6968L204.082 57.2468L205.918 56.453Z" fill="#7C9C5E"/>
<path d="M209.253 79.6578C207.655 80.2067 206.167 81.3822 205.584 83.143L204.712 85.7744C204.668 85.9091 204.542 86 204.4 86C204.258 86 204.132 85.9091 204.088 85.7744L203.216 83.143C202.633 81.3822 201.145 80.2067 199.547 79.6578C194.484 77.919 191 73.5894 191 68.629C191 62.2015 196.888 56.8 204.4 56.8C211.912 56.8 217.8 62.2015 217.8 68.629C217.8 73.5894 214.316 77.919 209.253 79.6578Z" fill="#BD0F0F" stroke="#8E0B0B" stroke-width="2"/>
<path d="M193.6 68.0999C193.6 69.4 193.894 70.6874 194.467 71.8885C195.04 73.0896 195.88 74.181 196.939 75.1003" stroke="#8E0B0B" stroke-width="2"/>
<path d="M274.858 156.3H272.075C270.34 156.3 268.967 154.832 269.082 153.1L271.359 118.947C271.638 114.756 272.825 110.676 274.836 106.989L275.48 105.809C275.791 105.239 276.609 105.239 276.92 105.809C279.312 110.194 280.406 115.171 280.074 120.155L277.851 153.499C277.746 155.075 276.437 156.3 274.858 156.3Z" fill="#7CAB47" stroke="#0D592D" stroke-width="2"/>
<mask id="path-39-inside-1_7592_12512" fill="white">
<ellipse cx="270.8" cy="123.7" rx="1.8" ry="3.6"/>
</mask>
<ellipse cx="270.8" cy="123.7" rx="1.8" ry="3.6" fill="#BBEF66"/>
<path d="M270.6 123.7C270.6 124.451 270.444 125.032 270.284 125.351C270.204 125.51 270.161 125.53 270.209 125.49C270.269 125.439 270.475 125.3 270.8 125.3V129.3C272.463 129.3 273.43 128.004 273.862 127.14C274.354 126.156 274.6 124.937 274.6 123.7H270.6ZM270.8 125.3C271.125 125.3 271.331 125.439 271.391 125.49C271.439 125.53 271.396 125.51 271.316 125.351C271.156 125.032 271 124.451 271 123.7H267C267 124.937 267.246 126.156 267.738 127.14C268.17 128.004 269.137 129.3 270.8 129.3V125.3ZM271 123.7C271 122.949 271.156 122.368 271.316 122.049C271.396 121.89 271.439 121.869 271.391 121.91C271.331 121.961 271.125 122.1 270.8 122.1V118.1C269.137 118.1 268.17 119.396 267.738 120.26C267.246 121.244 267 122.463 267 123.7H271ZM270.8 122.1C270.475 122.1 270.269 121.961 270.209 121.91C270.161 121.869 270.204 121.89 270.284 122.049C270.444 122.368 270.6 122.949 270.6 123.7H274.6C274.6 122.463 274.354 121.244 273.862 120.26C273.43 119.396 272.463 118.1 270.8 118.1V122.1Z" fill="#0D592D" mask="url(#path-39-inside-1_7592_12512)"/>
<path d="M277.6 108.1C277.6 109.118 277.362 109.99 277.029 110.574C276.679 111.185 276.349 111.3 276.2 111.3C276.051 111.3 275.72 111.185 275.371 110.574C275.038 109.99 274.8 109.118 274.8 108.1C274.8 107.082 275.038 106.209 275.371 105.626C275.72 105.015 276.051 104.9 276.2 104.9C276.349 104.9 276.679 105.015 277.029 105.626C277.362 106.209 277.6 107.082 277.6 108.1Z" fill="#BBEF66" stroke="#0D592D" stroke-width="2"/>
<mask id="path-42-inside-2_7592_12512" fill="white">
<ellipse cx="280.4" cy="117.1" rx="1.8" ry="4.2"/>
</mask>
<ellipse cx="280.4" cy="117.1" rx="1.8" ry="4.2" fill="#BBEF66"/>
<path d="M280.2 117.1C280.2 118.055 280.03 118.825 279.834 119.282C279.735 119.514 279.668 119.574 279.695 119.546C279.732 119.511 279.972 119.3 280.4 119.3V123.3C281.324 123.3 282.038 122.854 282.505 122.393C282.963 121.941 283.284 121.386 283.511 120.858C283.967 119.794 284.2 118.464 284.2 117.1H280.2ZM280.4 119.3C280.827 119.3 281.068 119.511 281.104 119.546C281.131 119.574 281.064 119.514 280.965 119.282C280.769 118.825 280.6 118.055 280.6 117.1H276.6C276.6 118.464 276.833 119.794 277.289 120.858C277.515 121.386 277.836 121.941 278.294 122.393C278.761 122.854 279.475 123.3 280.4 123.3V119.3ZM280.6 117.1C280.6 116.144 280.769 115.374 280.965 114.918C281.064 114.686 281.131 114.626 281.104 114.653C281.068 114.689 280.827 114.9 280.4 114.9V110.9C279.475 110.9 278.761 111.346 278.294 111.806C277.836 112.259 277.515 112.814 277.289 113.342C276.833 114.406 276.6 115.736 276.6 117.1H280.6ZM280.4 114.9C279.972 114.9 279.732 114.689 279.695 114.653C279.668 114.626 279.735 114.686 279.834 114.918C280.03 115.374 280.2 116.144 280.2 117.1H284.2C284.2 115.736 283.967 114.406 283.511 113.342C283.284 112.814 282.963 112.259 282.505 111.806C282.038 111.346 281.324 110.9 280.4 110.9V114.9Z" fill="#0D592D" mask="url(#path-42-inside-2_7592_12512)"/>
<mask id="path-44-inside-3_7592_12512" fill="white">
<ellipse cx="279.199" cy="132.7" rx="1.8" ry="3.6"/>
</mask>
<ellipse cx="279.199" cy="132.7" rx="1.8" ry="3.6" fill="#BBEF66"/>
<path d="M278.999 132.7C278.999 133.451 278.843 134.032 278.683 134.351C278.604 134.51 278.561 134.53 278.608 134.49C278.669 134.439 278.874 134.3 279.199 134.3V138.3C280.862 138.3 281.829 137.004 282.261 136.14C282.753 135.156 282.999 133.937 282.999 132.7H278.999ZM279.199 134.3C279.525 134.3 279.73 134.439 279.79 134.49C279.838 134.53 279.795 134.51 279.715 134.351C279.556 134.032 279.399 133.451 279.399 132.7H275.399C275.399 133.937 275.646 135.156 276.138 136.14C276.57 137.004 277.537 138.3 279.199 138.3V134.3ZM279.399 132.7C279.399 131.949 279.556 131.368 279.715 131.049C279.795 130.89 279.838 130.869 279.79 130.91C279.73 130.961 279.525 131.1 279.199 131.1V127.1C277.537 127.1 276.57 128.396 276.138 129.26C275.646 130.244 275.399 131.463 275.399 132.7H279.399ZM279.199 131.1C278.874 131.1 278.669 130.961 278.608 130.91C278.561 130.869 278.604 130.89 278.683 131.049C278.843 131.368 278.999 131.949 278.999 132.7H282.999C282.999 131.463 282.753 130.244 282.261 129.26C281.829 128.396 280.862 127.1 279.199 127.1V131.1Z" fill="#0D592D" mask="url(#path-44-inside-3_7592_12512)"/>
<mask id="path-46-inside-4_7592_12512" fill="white">
<ellipse cx="269.6" cy="139.9" rx="1.8" ry="3.6"/>
</mask>
<ellipse cx="269.6" cy="139.9" rx="1.8" ry="3.6" fill="#BBEF66"/>
<path d="M269.4 139.9C269.4 140.651 269.243 141.232 269.084 141.551C269.004 141.71 268.961 141.73 269.009 141.69C269.069 141.639 269.275 141.5 269.6 141.5V145.5C271.263 145.5 272.229 144.204 272.661 143.34C273.153 142.356 273.4 141.137 273.4 139.9H269.4ZM269.6 141.5C269.925 141.5 270.13 141.639 270.191 141.69C270.238 141.73 270.195 141.71 270.116 141.551C269.956 141.232 269.8 140.651 269.8 139.9H265.8C265.8 141.137 266.046 142.356 266.538 143.34C266.97 144.204 267.937 145.5 269.6 145.5V141.5ZM269.8 139.9C269.8 139.149 269.956 138.568 270.116 138.249C270.195 138.09 270.238 138.069 270.191 138.11C270.13 138.161 269.925 138.3 269.6 138.3V134.3C267.937 134.3 266.97 135.596 266.538 136.46C266.046 137.444 265.8 138.663 265.8 139.9H269.8ZM269.6 138.3C269.275 138.3 269.069 138.161 269.009 138.11C268.961 138.069 269.004 138.09 269.084 138.249C269.243 138.568 269.4 139.149 269.4 139.9H273.4C273.4 138.663 273.153 137.444 272.661 136.46C272.229 135.596 271.263 134.3 269.6 134.3V138.3Z" fill="#0D592D" mask="url(#path-46-inside-4_7592_12512)"/>
<path d="M260.678 148.71C260.728 150.402 259.371 151.8 257.679 151.8H257.283C255.661 151.8 254.332 150.511 254.284 148.889L253.387 118.828C253.268 114.849 254.011 110.892 255.566 107.227C255.878 106.491 256.922 106.491 257.235 107.227L258.155 106.837L257.235 107.227L257.479 107.802C258.885 111.117 259.661 114.664 259.769 118.263L260.678 148.71Z" fill="#7CAB47" stroke="#0D592D" stroke-width="2"/>
<path d="M256.6 112.3C256.6 113.318 256.362 114.19 256.029 114.774C255.679 115.385 255.349 115.5 255.2 115.5C255.051 115.5 254.72 115.385 254.371 114.774C254.038 114.19 253.8 113.318 253.8 112.3C253.8 111.282 254.038 110.409 254.371 109.826C254.72 109.215 255.051 109.1 255.2 109.1C255.349 109.1 255.679 109.215 256.029 109.826C256.362 110.409 256.6 111.282 256.6 112.3Z" fill="#BBEF66" stroke="#0D592D" stroke-width="2"/>
<mask id="path-50-inside-5_7592_12512" fill="white">
<ellipse cx="260" cy="123.1" rx="1.8" ry="3.6"/>
</mask>
<ellipse cx="260" cy="123.1" rx="1.8" ry="3.6" fill="#BBEF66"/>
<path d="M259.8 123.1C259.8 123.851 259.644 124.432 259.484 124.751C259.405 124.91 259.362 124.93 259.409 124.89C259.47 124.839 259.675 124.7 260 124.7V128.7C261.663 128.7 262.63 127.404 263.062 126.54C263.554 125.556 263.8 124.337 263.8 123.1H259.8ZM260 124.7C260.325 124.7 260.531 124.839 260.591 124.89C260.639 124.93 260.596 124.91 260.516 124.751C260.357 124.432 260.2 123.851 260.2 123.1H256.2C256.2 124.337 256.447 125.556 256.939 126.54C257.371 127.404 258.337 128.7 260 128.7V124.7ZM260.2 123.1C260.2 122.349 260.357 121.768 260.516 121.449C260.596 121.29 260.639 121.27 260.591 121.31C260.531 121.361 260.325 121.5 260 121.5V117.5C258.337 117.5 257.371 118.796 256.939 119.66C256.447 120.644 256.2 121.863 256.2 123.1H260.2ZM260 121.5C259.675 121.5 259.47 121.361 259.409 121.31C259.362 121.27 259.405 121.29 259.484 121.449C259.644 121.768 259.8 122.349 259.8 123.1H263.8C263.8 121.863 263.554 120.644 263.062 119.66C262.63 118.796 261.663 117.5 260 117.5V121.5Z" fill="#0D592D" mask="url(#path-50-inside-5_7592_12512)"/>
<mask id="path-52-inside-6_7592_12512" fill="white">
<ellipse cx="254" cy="133.9" rx="1.8" ry="3.6"/>
</mask>
<ellipse cx="254" cy="133.9" rx="1.8" ry="3.6" fill="#BBEF66"/>
<path d="M253.8 133.9C253.8 134.651 253.644 135.232 253.484 135.551C253.405 135.71 253.362 135.73 253.409 135.69C253.47 135.639 253.675 135.5 254 135.5V139.5C255.663 139.5 256.63 138.204 257.062 137.34C257.554 136.356 257.8 135.137 257.8 133.9H253.8ZM254 135.5C254.325 135.5 254.531 135.639 254.591 135.69C254.639 135.73 254.596 135.71 254.516 135.551C254.357 135.232 254.2 134.651 254.2 133.9H250.2C250.2 135.137 250.447 136.356 250.939 137.34C251.371 138.204 252.337 139.5 254 139.5V135.5ZM254.2 133.9C254.2 133.149 254.357 132.568 254.516 132.249C254.596 132.09 254.639 132.07 254.591 132.11C254.531 132.161 254.325 132.3 254 132.3V128.3C252.337 128.3 251.371 129.596 250.939 130.46C250.447 131.444 250.2 132.663 250.2 133.9H254.2ZM254 132.3C253.675 132.3 253.47 132.161 253.409 132.11C253.362 132.07 253.405 132.09 253.484 132.249C253.644 132.568 253.8 133.149 253.8 133.9H257.8C257.8 132.663 257.554 131.444 257.062 130.46C256.63 129.596 255.663 128.3 254 128.3V132.3Z" fill="#0D592D" mask="url(#path-52-inside-6_7592_12512)"/>
<path d="M292.18 109.082L291.989 109.607C290.933 112.511 290.348 115.564 290.256 118.652L289.311 150.324C289.267 151.789 290.443 153 291.908 153C293.313 153 294.463 151.883 294.505 150.479L295.44 119.151C295.543 115.723 294.993 112.306 293.821 109.082C293.542 108.316 292.459 108.316 292.18 109.082Z" fill="#7CAB47" stroke="#0D592D" stroke-width="2"/>
<mask id="path-55-inside-7_7592_12512" fill="white">
<ellipse cx="1.8" cy="3" rx="1.8" ry="3" transform="matrix(-1 0 0 1 293.601 111.7)"/>
</mask>
<ellipse cx="1.8" cy="3" rx="1.8" ry="3" transform="matrix(-1 0 0 1 293.601 111.7)" fill="#BBEF66"/>
<path d="M292.001 114.7C292.001 115.228 292.133 115.61 292.243 115.792C292.295 115.88 292.312 115.872 292.252 115.83C292.182 115.78 292.023 115.7 291.801 115.7V119.7C290.325 119.7 289.331 118.714 288.813 117.85C288.271 116.947 288.001 115.829 288.001 114.7H292.001ZM291.801 115.7C291.578 115.7 291.42 115.78 291.349 115.83C291.289 115.872 291.306 115.88 291.358 115.792C291.468 115.61 291.601 115.228 291.601 114.7H295.601C295.601 115.829 295.33 116.947 294.788 117.85C294.27 118.714 293.276 119.7 291.801 119.7V115.7ZM291.601 114.7C291.601 114.172 291.468 113.79 291.358 113.608C291.306 113.52 291.289 113.528 291.349 113.57C291.42 113.62 291.578 113.7 291.801 113.7V109.7C293.276 109.7 294.27 110.686 294.788 111.55C295.33 112.453 295.601 113.571 295.601 114.7H291.601ZM291.801 113.7C292.023 113.7 292.182 113.62 292.252 113.57C292.312 113.528 292.295 113.52 292.243 113.608C292.133 113.79 292.001 114.172 292.001 114.7H288.001C288.001 113.571 288.271 112.453 288.813 111.55C289.331 110.686 290.325 109.7 291.801 109.7V113.7Z" fill="#0D592D" mask="url(#path-55-inside-7_7592_12512)"/>
<mask id="path-57-inside-8_7592_12512" fill="white">
<ellipse cx="1.5" cy="2.7" rx="1.5" ry="2.7" transform="matrix(-1 0 0 1 291.8 125.5)"/>
</mask>
<ellipse cx="1.5" cy="2.7" rx="1.5" ry="2.7" transform="matrix(-1 0 0 1 291.8 125.5)" fill="#BBEF66"/>
<path d="M290.8 128.2C290.8 128.671 290.91 128.999 290.987 129.138C291.025 129.205 291.02 129.167 290.927 129.097C290.823 129.017 290.605 128.9 290.3 128.9V132.9C288.829 132.9 287.919 131.851 287.491 131.08C287.025 130.242 286.8 129.22 286.8 128.2H290.8ZM290.3 128.9C289.995 128.9 289.777 129.017 289.672 129.097C289.58 129.167 289.575 129.205 289.612 129.138C289.689 128.999 289.8 128.671 289.8 128.2H293.8C293.8 129.22 293.574 130.242 293.109 131.08C292.681 131.851 291.77 132.9 290.3 132.9V128.9ZM289.8 128.2C289.8 127.729 289.689 127.401 289.612 127.262C289.575 127.195 289.58 127.233 289.672 127.303C289.777 127.383 289.995 127.5 290.3 127.5V123.5C291.77 123.5 292.681 124.549 293.109 125.32C293.574 126.158 293.8 127.18 293.8 128.2H289.8ZM290.3 127.5C290.605 127.5 290.823 127.383 290.927 127.303C291.02 127.233 291.025 127.195 290.987 127.262C290.91 127.401 290.8 127.729 290.8 128.2H286.8C286.8 127.18 287.025 126.158 287.491 125.32C287.919 124.549 288.829 123.5 290.3 123.5V127.5Z" fill="#0D592D" mask="url(#path-57-inside-8_7592_12512)"/>
<mask id="path-59-inside-9_7592_12512" fill="white">
<ellipse cx="1.5" cy="2.7" rx="1.5" ry="2.7" transform="matrix(-1 0 0 1 297.2 121.3)"/>
</mask>
<ellipse cx="1.5" cy="2.7" rx="1.5" ry="2.7" transform="matrix(-1 0 0 1 297.2 121.3)" fill="#BBEF66"/>
<path d="M296.2 124C296.2 124.471 296.311 124.799 296.388 124.938C296.425 125.005 296.42 124.966 296.328 124.896C296.223 124.817 296.005 124.7 295.7 124.7V128.7C294.23 128.7 293.319 127.651 292.891 126.88C292.426 126.042 292.2 125.02 292.2 124H296.2ZM295.7 124.7C295.395 124.7 295.177 124.817 295.073 124.896C294.98 124.966 294.975 125.005 295.013 124.938C295.09 124.799 295.2 124.471 295.2 124H299.2C299.2 125.02 298.975 126.042 298.509 126.88C298.081 127.651 297.171 128.7 295.7 128.7V124.7ZM295.2 124C295.2 123.529 295.09 123.201 295.013 123.062C294.975 122.995 294.98 123.033 295.073 123.103C295.177 123.183 295.395 123.3 295.7 123.3V119.3C297.171 119.3 298.081 120.349 298.509 121.119C298.975 121.957 299.2 122.98 299.2 124H295.2ZM295.7 123.3C296.005 123.3 296.223 123.183 296.328 123.103C296.42 123.033 296.425 122.995 296.388 123.062C296.311 123.201 296.2 123.529 296.2 124H292.2C292.2 122.98 292.426 121.957 292.891 121.119C293.319 120.349 294.23 119.3 295.7 119.3V123.3Z" fill="#0D592D" mask="url(#path-59-inside-9_7592_12512)"/>
<mask id="path-61-inside-10_7592_12512" fill="white">
<ellipse cx="1.8" cy="3" rx="1.8" ry="3" transform="matrix(-1 0 0 1 297.2 132.7)"/>
</mask>
<ellipse cx="1.8" cy="3" rx="1.8" ry="3" transform="matrix(-1 0 0 1 297.2 132.7)" fill="#BBEF66"/>
<path d="M295.6 135.7C295.6 136.228 295.733 136.61 295.842 136.792C295.895 136.88 295.911 136.872 295.852 136.83C295.781 136.78 295.623 136.7 295.4 136.7V140.7C293.925 140.7 292.93 139.714 292.412 138.85C291.871 137.947 291.6 136.829 291.6 135.7H295.6ZM295.4 136.7C295.178 136.7 295.019 136.78 294.948 136.83C294.889 136.872 294.905 136.88 294.958 136.792C295.068 136.61 295.2 136.228 295.2 135.7H299.2C299.2 136.829 298.93 137.947 298.388 138.85C297.87 139.714 296.876 140.7 295.4 140.7V136.7ZM295.2 135.7C295.2 135.172 295.068 134.79 294.958 134.608C294.905 134.52 294.889 134.528 294.948 134.57C295.019 134.62 295.178 134.7 295.4 134.7V130.7C296.876 130.7 297.87 131.686 298.388 132.55C298.93 133.453 299.2 134.571 299.2 135.7H295.2ZM295.4 134.7C295.623 134.7 295.781 134.62 295.852 134.57C295.911 134.528 295.895 134.52 295.842 134.608C295.733 134.79 295.6 135.172 295.6 135.7H291.6C291.6 134.571 291.871 133.453 292.412 132.55C292.93 131.686 293.925 130.7 295.4 130.7V134.7Z" fill="#0D592D" mask="url(#path-61-inside-10_7592_12512)"/>
<path d="M276.702 194C276.702 193.4 274.504 191.9 275.202 187.7C275.9 183.5 279.702 182.9 279.702 176.6" stroke="#8E6E0B" stroke-width="4"/>
<path d="M271 205.7C271 210.535 269.92 214.863 268.224 217.946C266.509 221.065 264.301 222.7 262.1 222.7C259.9 222.7 257.692 221.065 255.976 217.946C254.28 214.863 253.2 210.535 253.2 205.7C253.2 200.865 254.28 196.537 255.976 193.454C257.692 190.335 259.9 188.7 262.1 188.7C264.301 188.7 266.509 190.335 268.224 193.454C269.92 196.537 271 200.865 271 205.7Z" fill="#F09442" stroke="#BD610F" stroke-width="2"/>
<path d="M296.8 205.7C296.8 210.535 295.72 214.863 294.024 217.946C292.308 221.065 290.101 222.7 287.9 222.7C285.699 222.7 283.492 221.065 281.776 217.946C280.08 214.863 279 210.535 279 205.7C279 200.865 280.08 196.537 281.776 193.454C283.492 190.335 285.699 188.7 287.9 188.7C290.101 188.7 292.308 190.335 294.024 193.454C295.72 196.537 296.8 200.865 296.8 205.7Z" fill="#F09442" stroke="#BD610F" stroke-width="2"/>
<path d="M277 205.7C277 210.54 275.951 214.871 274.306 217.957C272.637 221.086 270.502 222.7 268.4 222.7C266.298 222.7 264.163 221.086 262.494 217.957C260.848 214.871 259.8 210.54 259.8 205.7C259.8 200.86 260.848 196.528 262.494 193.443C264.163 190.314 266.298 188.7 268.4 188.7C270.502 188.7 272.637 190.314 274.306 193.443C275.951 196.528 277 200.86 277 205.7Z" fill="#F09442" stroke="#BD610F" stroke-width="2"/>
<path d="M290.2 205.7C290.2 210.54 289.152 214.871 287.506 217.957C285.837 221.086 283.702 222.7 281.6 222.7C279.498 222.7 277.363 221.086 275.694 217.957C274.048 214.871 273 210.54 273 205.7C273 200.86 274.048 196.528 275.694 193.443C277.363 190.314 279.498 188.7 281.6 188.7C283.702 188.7 285.837 190.314 287.506 193.443C289.152 196.528 290.2 200.86 290.2 205.7Z" fill="#F09442" stroke="#BD610F" stroke-width="2"/>
<path d="M283.6 205.7C283.6 210.54 282.552 214.871 280.906 217.957C279.238 221.086 277.102 222.7 275 222.7C272.899 222.7 270.763 221.086 269.095 217.957C267.449 214.871 266.4 210.54 266.4 205.7C266.4 200.86 267.449 196.528 269.095 193.443C270.763 190.314 272.899 188.7 275 188.7C277.102 188.7 279.238 190.314 280.906 193.443C282.552 196.528 283.6 200.86 283.6 205.7Z" fill="#F09442" stroke="#BD610F" stroke-width="2"/>
<path d="M272.601 217.871C271.918 216.925 271.32 215.666 270.84 214.166C270.361 212.666 270.009 210.954 269.805 209.127" stroke="#BD610F" stroke-width="2"/>
<path d="M49.8931 146.724L49.8554 146.744L49.8195 146.767L47.2464 148.432C47.0396 148.566 46.7676 148.537 46.5934 148.363C46.4262 148.196 46.3922 147.937 46.5108 147.732L48.2583 144.714L48.2627 144.706L48.267 144.698C51.752 138.425 55.9652 132.586 60.8192 127.3L70.9004 116.323C71.7692 115.377 72.9688 114.801 74.2505 114.716L77.4687 114.501C78.1938 114.453 78.8767 114.143 79.3905 113.629L81.6875 111.332C82.0781 110.942 82.7112 110.942 83.1018 111.332L83.6674 111.898C84.058 112.289 84.058 112.922 83.6674 113.312L81.3704 115.609C80.8566 116.123 80.5467 116.806 80.4984 117.531L80.2838 120.749C80.1984 122.031 79.623 123.231 78.6769 124.099L67.9741 133.929C62.5139 138.943 56.4382 143.243 49.8931 146.724Z" fill="#A9C97D" stroke="#138643" stroke-width="2"/>
<path d="M71.7881 114.727L76.0307 118.969M80.2734 123.212L76.0307 118.969M76.0307 118.969L46.3322 148.668" stroke="#138643" stroke-width="2"/>
<path d="M215.386 117.369C215.828 116.63 216.87 116.504 217.266 117.268C217.67 118.05 217.866 118.931 218.047 120.095C218.339 121.965 218.59 123.679 217.959 125.964C217.329 128.249 216.255 130.636 214.798 132.988C213.341 135.34 211.53 137.612 209.469 139.673C207.407 141.735 205.136 143.546 202.783 145.003C200.431 146.459 198.044 147.534 195.759 148.164C193.474 148.794 191.76 148.544 189.89 148.252C188.726 148.07 187.845 147.874 187.064 147.47C186.299 147.075 186.426 146.033 187.164 145.591C198.753 138.653 208.448 128.958 215.386 117.369Z" fill="#91D45B" stroke="#639924" stroke-width="2"/>
<circle cx="205.651" cy="135.855" r="2.6" transform="rotate(-45 205.651 135.855)" fill="#B2D157" stroke="#639924" stroke-width="2"/>
<circle cx="210.317" cy="130.34" r="2.6" transform="rotate(-45 210.317 130.34)" fill="#B2D157" stroke="#639924" stroke-width="2"/>
<circle cx="214.984" cy="124.824" r="2.6" transform="rotate(-45 214.984 124.824)" fill="#B2D157" stroke="#639924" stroke-width="2"/>
<circle cx="200.135" cy="140.522" r="2.6" transform="rotate(-45 200.135 140.522)" fill="#B2D157" stroke="#639924" stroke-width="2"/>
<circle cx="194.195" cy="144.765" r="2.6" transform="rotate(-45 194.195 144.765)" fill="#B2D157" stroke="#639924" stroke-width="2"/>
<path d="M207.206 137.411C212.947 131.67 215.447 124.148 216.505 119.528C216.612 119.06 216.944 118.792 217.219 118.725C217.35 118.692 217.444 118.71 217.505 118.738C217.556 118.762 217.648 118.824 217.73 119.014C217.964 119.558 218.16 120.132 218.315 120.732C218.824 122.703 218.886 124.93 218.474 127.292C218.062 129.654 217.184 132.093 215.881 134.467C214.578 136.839 212.88 139.09 210.883 141.088C208.886 143.085 206.635 144.783 204.262 146.086C201.888 147.389 199.449 148.266 197.087 148.679C194.725 149.091 192.498 149.029 190.528 148.52C189.927 148.365 189.353 148.169 188.81 147.935C188.62 147.853 188.557 147.761 188.533 147.709C188.505 147.649 188.487 147.555 188.52 147.423C188.587 147.149 188.855 146.817 189.324 146.71C193.944 145.652 201.465 143.152 207.206 137.411Z" fill="#84B502" stroke="#639924" stroke-width="2"/>
<path d="M216.469 117.4C216.399 115.915 217.021 112.266 221.773 107.854" stroke="#639924" stroke-width="2" stroke-linecap="round"/>
<circle cx="223.6" cy="143.2" r="2.6" fill="#B2D157" stroke="#639924" stroke-width="2"/>
<circle cx="216.4" cy="146.8" r="2" fill="#B2D157" stroke="#639924" stroke-width="2"/>
<path d="M268.543 74.9245C270.25 68.159 271.632 62.2154 270.2 53.8H279.804C278.391 62.2116 279.716 68.1419 281.414 74.8737C282.468 79.0504 279.322 83 274.971 83C270.634 83 267.495 79.0779 268.543 74.9245Z" fill="#FBF1D0" stroke="#8E6E0B" stroke-width="2"/>
<path d="M253.8 58.0626C253.8 46.4381 263.359 37 275 37C286.64 37 296.2 46.4381 296.2 58.0626C296.2 60.8455 293.594 62.8937 290.89 62.2359L286.086 61.0674C278.801 59.2955 271.198 59.2955 263.914 61.0674L259.11 62.2359C256.406 62.8937 253.8 60.8455 253.8 58.0626Z" fill="#FFFDF8" stroke="#8E6E0B" stroke-width="2"/>
<path d="M273.2 40.2C271.467 40.2 269.75 40.5414 268.149 41.2047C266.547 41.8681 265.092 42.8404 263.866 44.0661" stroke="#5E4908" stroke-width="2"/>
</svg>
