<svg width="105" height="17" viewBox="0 0 105 17" fill="none" xmlns="http://www.w3.org/2000/svg">
<path fill-rule="evenodd" clip-rule="evenodd" d="M17.3376 8.77599C17.3376 9.20989 17.3029 9.6438 17.2508 10.0443C17.1987 10.4449 17.1119 10.8454 16.9903 11.2292C16.8862 11.6131 16.7299 11.9802 16.5563 12.3307C16.3826 12.6811 16.1743 13.0316 15.9486 13.3487C15.5493 13.8827 15.0978 14.3667 14.5943 14.8006C14.0908 15.2345 13.5352 15.6016 12.9275 15.902C12.3199 16.2024 11.6948 16.4361 11.035 16.5863C10.3753 16.7365 9.69814 16.8199 9.00364 16.8199C8.41332 16.8199 7.823 16.7698 7.26741 16.6697C6.71181 16.5696 6.19094 16.4194 5.67007 16.2024C5.16656 15.9855 4.68041 15.7351 4.24635 15.4181C3.79493 15.1177 3.37824 14.7505 2.96154 14.3333C2.57957 13.9662 2.23232 13.5489 1.95452 13.115C1.67672 12.6811 1.43365 12.2138 1.2253 11.7299C1.03432 11.2459 0.878055 10.7286 0.791243 10.2112C0.704431 9.67717 0.652344 9.12645 0.652344 8.52566C0.652344 7.99162 0.704431 7.47428 0.808605 6.95693C0.912779 6.43958 1.06904 5.95561 1.27739 5.47164C1.48574 4.98767 1.74617 4.53708 2.0587 4.10317C2.37122 3.65258 2.73583 3.25205 3.13516 2.8849C3.51713 2.51775 3.95119 2.18398 4.40262 1.90028C4.85404 1.61657 5.32282 1.36624 5.82633 1.16598C6.32984 0.965713 6.85071 0.815515 7.37158 0.715383C7.92718 0.615251 8.48277 0.565186 9.03837 0.565186C9.90649 0.565186 10.7399 0.698695 11.5385 0.949024C12.3372 1.19935 13.0838 1.5665 13.7609 2.0171C14.4381 2.48438 15.0457 3.05179 15.584 3.71934C16.1222 4.38688 16.5563 5.13787 16.8688 5.98899H12.3546C12.0941 5.72197 11.8511 5.50502 11.5733 5.30476C11.3128 5.12118 11.0524 4.97098 10.7572 4.82079C10.4968 4.68728 10.2016 4.60383 9.92385 4.53708C9.62869 4.48701 9.31617 4.45364 9.02101 4.45364C8.43069 4.45364 7.87509 4.55377 7.35422 4.77072C6.85071 4.97098 6.38193 5.27138 5.99995 5.63853C5.61798 6.00568 5.30546 6.45627 5.09711 6.95693C4.88876 7.45759 4.76723 7.99162 4.76723 8.54235C4.76723 9.15983 4.88876 9.74393 5.11447 10.278C5.34018 10.812 5.65271 11.2793 6.05204 11.6798C6.45137 12.0803 6.9028 12.3807 7.4063 12.5977C7.90981 12.8146 8.44805 12.9315 9.02101 12.9315C9.38562 12.9315 9.75022 12.8814 10.0975 12.7979C10.4447 12.7145 10.792 12.581 11.1045 12.3974C11.4344 12.2138 11.7295 11.9969 11.9726 11.7299C12.233 11.4629 12.4588 11.1625 12.6497 10.812H8.03135V7.70792H17.3029C17.3029 7.79136 17.3029 7.89149 17.3202 7.97494C17.3376 8.05838 17.3376 8.15851 17.3376 8.24195V8.77599ZM18.3789 16.5363V0.915771H23.7786C24.1953 0.915771 24.5946 0.915771 24.9766 0.93246C25.3586 0.949149 25.7232 0.982526 26.0531 1.04928C26.383 1.11603 26.7128 1.19948 27.008 1.3163C27.3205 1.43312 27.6157 1.58332 27.8761 1.78358C28.206 2.01722 28.5185 2.28424 28.7963 2.58463C29.0741 2.88503 29.2998 3.2188 29.4908 3.58595C29.6818 3.96979 29.8207 4.37032 29.9249 4.77084C30.0291 5.18806 30.0811 5.63865 30.0811 6.12262C30.0811 6.75679 29.9943 7.35758 29.8207 7.89162C29.6471 8.42565 29.404 8.92631 29.0741 9.36022C28.7616 9.79412 28.3623 10.178 27.9282 10.4784C27.4768 10.7787 26.9559 11.0124 26.3656 11.1793L30.3589 16.5363H25.4454L22.3202 11.513V16.5363H18.3789ZM24.4214 8.00831C24.0568 8.07506 23.6227 8.10844 23.1192 8.10844H22.3379V4.40356H23.4317C23.8831 4.40356 24.2825 4.43694 24.595 4.5037C24.9075 4.57045 25.168 4.67058 25.3937 4.82078C25.6194 4.97098 25.7756 5.15455 25.8798 5.38819C25.984 5.60515 26.0361 5.88885 26.0361 6.22262C26.0361 6.57309 25.984 6.85679 25.8625 7.10712C25.7409 7.35745 25.5673 7.54103 25.3242 7.69122C25.0985 7.84142 24.786 7.94155 24.4214 8.00831ZM33.1551 2.88473C33.5545 2.51758 33.9885 2.18381 34.4399 1.9001C34.8914 1.61639 35.3601 1.38275 35.8637 1.18249C36.3672 0.998916 36.888 0.848718 37.4263 0.748586C37.9819 0.648455 38.5375 0.598389 39.0931 0.598389C39.6487 0.598389 40.1869 0.648455 40.7078 0.748586C41.2286 0.848718 41.7495 0.998916 42.2356 1.19918C42.7218 1.39944 43.2079 1.63308 43.642 1.93348C44.0934 2.21719 44.5101 2.55096 44.8921 2.91811C45.2914 3.30195 45.656 3.71916 45.9859 4.16975C46.2984 4.60366 46.5589 5.07094 46.7846 5.55491C46.9929 6.03888 47.1492 6.53954 47.2534 7.0402C47.3575 7.54086 47.4096 8.0582 47.4096 8.59224C47.4096 9.15965 47.3575 9.71038 47.2707 10.2444C47.1839 10.7618 47.0277 11.2791 46.8193 11.7631C46.611 12.247 46.3679 12.7143 46.0727 13.1482C45.7776 13.5988 45.4477 13.9994 45.0657 14.3665C44.6837 14.767 44.2497 15.1175 43.7809 15.4179C43.3295 15.7183 42.826 15.9686 42.3225 16.1856C41.8189 16.3858 41.2807 16.536 40.7425 16.6528C40.1869 16.7697 39.6313 16.8197 39.0583 16.8197C38.468 16.8197 37.8777 16.7697 37.3221 16.6528C36.7839 16.5527 36.2456 16.3858 35.7248 16.1856C35.2212 15.9853 34.7351 15.735 34.2837 15.4179C33.8323 15.1175 33.3982 14.7503 33.0162 14.3331C32.6343 13.966 32.287 13.5488 32.0092 13.1149C31.7314 12.681 31.4883 12.2137 31.28 11.7297C31.089 11.2457 30.9327 10.7284 30.8459 10.211C30.7591 9.677 30.707 9.12628 30.707 8.52549C30.707 7.99145 30.7591 7.4741 30.8633 6.95676C30.9675 6.43941 31.1237 5.95544 31.3321 5.47147C31.5404 4.9875 31.8009 4.5369 32.1134 4.103C32.4085 3.6691 32.7558 3.26857 33.1551 2.88473ZM40.7253 12.6311C40.2044 12.8481 39.6488 12.9649 39.0585 12.9649C38.5029 12.9649 37.982 12.8481 37.4611 12.6144C36.9576 12.3975 36.4888 12.0804 36.0895 11.6966C35.6902 11.3127 35.3776 10.8621 35.1519 10.3281C34.9262 9.79405 34.8047 9.22664 34.8047 8.60916C34.8047 8.04175 34.9089 7.49102 35.1346 6.99037C35.3429 6.48971 35.6554 6.0558 36.0374 5.68865C36.4194 5.33819 36.8882 5.0378 37.409 4.82084C37.9299 4.60389 38.5029 4.48707 39.1279 4.48707C39.7009 4.48707 40.2391 4.60389 40.7426 4.82084C41.2461 5.0378 41.6802 5.3215 42.0622 5.68865C42.4268 6.0558 42.7393 6.48971 42.965 6.99037C43.1907 7.49102 43.3122 8.04175 43.3122 8.60916C43.3122 9.24333 43.1907 9.82743 42.965 10.3615C42.7393 10.8955 42.4441 11.3461 42.0622 11.7299C41.6802 12.1138 41.2461 12.4142 40.7253 12.6311ZM52.4621 0.915771V10.5284C52.4621 10.9623 52.4968 11.3629 52.5663 11.6966C52.6357 12.0304 52.7573 12.3141 52.9135 12.5311C53.0698 12.748 53.2781 12.9149 53.5212 13.0317C53.7643 13.1485 54.0594 13.1986 54.3893 13.1986C54.7366 13.1986 55.0317 13.1485 55.2922 13.0317C55.5526 12.9316 55.7783 12.748 55.9519 12.5311C56.1256 12.3141 56.2471 12.0304 56.3339 11.7133C56.4207 11.3795 56.4554 10.979 56.4554 10.5284V0.915771H60.4488V10.6953C60.4488 11.6466 60.2925 12.4977 59.9974 13.2487C59.7022 14.0163 59.2855 14.6505 58.7646 15.1679C58.2438 15.6852 57.6014 16.0857 56.8548 16.3694C56.1082 16.6531 55.2748 16.8033 54.372 16.8033C53.4517 16.8033 52.6357 16.6698 51.9065 16.3861C51.1773 16.1024 50.5522 15.7186 50.0487 15.2012C49.5452 14.6839 49.1632 14.0497 48.8854 13.2987C48.6077 12.5477 48.4688 11.6799 48.4688 10.6953V0.915771H52.4621ZM61.5586 0.915771V16.5196H65.5346V11.4964H66.6631C67.0972 11.4964 67.4965 11.4797 67.8611 11.463C68.2257 11.4463 68.573 11.3962 68.9029 11.3462C69.2154 11.2961 69.5279 11.2127 69.8404 11.1292C70.1356 11.0458 70.4134 10.9123 70.6738 10.7621C71.0732 10.5451 71.4551 10.2781 71.7677 9.94432C72.0975 9.62723 72.358 9.26008 72.5837 8.85956C72.8094 8.45903 72.983 8.02513 73.0872 7.59122C73.2087 7.14063 73.2608 6.65666 73.2608 6.156C73.2608 5.67203 73.2087 5.22144 73.1219 4.78753C73.0178 4.37032 72.8962 3.9531 72.7052 3.58595C72.5142 3.2188 72.2885 2.88503 72.0107 2.58463C71.7503 2.30093 71.4204 2.03391 71.0558 1.78358C70.7954 1.58332 70.5002 1.43312 70.2051 1.3163C69.9099 1.19948 69.5974 1.11603 69.2501 1.04928C68.9029 0.982526 68.5383 0.949149 68.1737 0.93246C67.7917 0.915771 67.3923 0.915771 66.9583 0.915771H61.5586ZM66.3343 8.10844C66.8204 8.10844 67.2371 8.07506 67.6017 8.00831C67.9663 7.94155 68.2788 7.84142 68.5046 7.69122C68.7476 7.55771 68.9386 7.35745 69.0602 7.10712C69.1817 6.85679 69.2511 6.57309 69.2511 6.22262C69.2511 5.88885 69.1991 5.60515 69.0949 5.38819C68.9907 5.15455 68.8344 4.97098 68.6087 4.82078C68.383 4.67058 68.1226 4.57045 67.7753 4.5037C67.4454 4.43694 67.0635 4.40356 66.6294 4.40356H65.5703V8.10844H66.3343ZM77.5508 1.9001C77.0994 2.18381 76.6654 2.51758 76.266 2.88473C75.884 3.26857 75.5194 3.6691 75.2243 4.103C74.9118 4.5369 74.6513 4.9875 74.443 5.47147C74.2346 5.95544 74.061 6.4561 73.9568 6.95676C73.8353 7.4741 73.7832 7.99145 73.7832 8.52549C73.7832 9.12628 73.8353 9.677 73.9395 10.211C74.0436 10.7284 74.1999 11.2457 74.3909 11.7297C74.5992 12.2137 74.8423 12.681 75.1201 13.1149C75.3979 13.5488 75.7451 13.966 76.1271 14.3331C76.5091 14.7503 76.9432 15.1175 77.3946 15.4179C77.846 15.735 78.3321 15.9853 78.8357 16.1856C79.3565 16.3858 79.8948 16.5527 80.433 16.6528C80.9886 16.7697 81.5789 16.8197 82.1692 16.8197C82.7422 16.8197 83.2978 16.7697 83.8534 16.6528C84.3916 16.536 84.9298 16.3858 85.4333 16.1856C85.9369 15.9686 86.423 15.7183 86.8744 15.4179C87.3432 15.1008 87.7773 14.7503 88.1766 14.3665C88.5412 13.9994 88.8711 13.5821 89.1663 13.1482C89.4614 12.7143 89.7219 12.247 89.9128 11.7631C90.1212 11.2791 90.2601 10.7618 90.3643 10.2444C90.4684 9.71038 90.5205 9.15965 90.5205 8.59224C90.5205 8.0582 90.4684 7.54086 90.3643 7.0402C90.2601 6.52285 90.0865 6.03888 89.8781 5.55491C89.6524 5.07094 89.392 4.60366 89.0794 4.16975C88.7669 3.71916 88.4023 3.30195 88.003 2.91811C87.621 2.55096 87.187 2.21719 86.7355 1.93348C86.2841 1.64977 85.8153 1.39944 85.3118 1.19918C84.8257 0.998916 84.3222 0.848718 83.8013 0.748586C83.2804 0.648455 82.7595 0.598389 82.2039 0.598389C81.6484 0.598389 81.0928 0.648455 80.5372 0.748586C79.9989 0.848718 79.4781 0.998916 78.9745 1.18249C78.471 1.38275 78.0023 1.61639 77.5508 1.9001ZM82.1678 12.9649C82.7582 12.9649 83.3138 12.8481 83.8346 12.6311C84.3555 12.4142 84.7896 12.1138 85.1715 11.7299C85.5535 11.3461 85.8487 10.8955 86.057 10.3615C86.2827 9.82742 86.3869 9.24332 86.3869 8.60915C86.3869 8.04174 86.2827 7.49101 86.057 6.99035C85.8313 6.4897 85.5361 6.05579 85.1715 5.68864C84.7896 5.32149 84.3555 5.03779 83.8346 4.82083C83.3138 4.60388 82.7755 4.48706 82.2026 4.48706C81.6122 4.48706 81.0393 4.60388 80.5184 4.82083C79.9975 5.03779 79.5288 5.33818 79.1468 5.68864C78.7648 6.05579 78.4523 6.4897 78.2439 6.99035C78.0182 7.49101 77.9141 8.04174 77.9141 8.60915C77.9141 9.22663 78.0356 9.79404 78.2613 10.3281C78.487 10.8621 78.7995 11.3127 79.1989 11.6965C79.5982 12.0804 80.067 12.3975 80.5705 12.6144C81.0914 12.8481 81.6296 12.9649 82.1678 12.9649ZM91.3184 0.915771V16.5363H95.3117V7.82486L101.354 16.5363H104.861V0.915771H100.868V9.59386L94.895 0.915771H91.3184Z" fill="#C8C9D0"/>
</svg>
