<svg width="394" height="320" viewBox="0 0 394 320" fill="none" xmlns="http://www.w3.org/2000/svg">
<g style="mix-blend-mode:multiply">
<path d="M3 6C3 5.44772 3.44772 5 4 5H20C20.5523 5 21 5.44772 21 6V18C21 18.5523 20.5523 19 20 19H4C3.44772 19 3 18.5523 3 18V6Z" stroke="black" stroke-width="2" stroke-linecap="round"/>
<path d="M3.5 5.5L11.3926 11.5355C11.7511 11.8097 12.2489 11.8097 12.6075 11.5355L20.5 5.5" stroke="black" stroke-width="2" stroke-linecap="round"/>
</g>
<g style="mix-blend-mode:multiply">
<path d="M92.0001 9C92.0001 11.2136 92.2157 13.2875 93.6001 15.1333L93.8001 15.4C94.2945 16.0592 93.8242 17 93.0001 17H79.0001C78.1761 17 77.7057 16.0592 78.2001 15.4L78.4001 15.1333C79.7845 13.2875 80.0001 11.2136 80.0001 9C80.0001 5.68629 82.4915 3 86.0001 3C89.5087 3 92.0001 5.68629 92.0001 9Z" stroke="black" stroke-width="2" stroke-linecap="round"/>
<path d="M86.0001 21C87.8676 21 89.4361 19.7202 89.8767 17.9899C90.0129 17.4547 89.5524 17 89.0001 17H83.0001C82.4478 17 81.9873 17.4547 82.1235 17.9899C82.564 19.7202 84.1326 21 86.0001 21Z" stroke="black" stroke-width="2" stroke-linecap="round"/>
</g>
<g style="mix-blend-mode:multiply">
<path fill-rule="evenodd" clip-rule="evenodd" d="M160 3C155.029 3 151 7.02948 151 12C151 16.9705 155.029 21 160 21C164.971 21 169 16.9705 169 12C169 7.02948 164.971 3 160 3Z" stroke="black" stroke-width="2" stroke-linecap="round"/>
<path d="M160 7V11C160 11.5523 160.448 12 161 12H165" stroke="black" stroke-width="2" stroke-linecap="round"/>
</g>
<g style="mix-blend-mode:multiply">
<path d="M228.042 21H239.954C240.524 21 240.987 20.5216 240.888 19.9603C240.474 17.6076 239.016 15.9603 236.771 15.2136C236.327 15.0662 236 14.6681 236 14.2008V11H232.001V14.1839C232.001 14.6589 231.663 15.0608 231.211 15.2058C228.97 15.9245 227.514 17.6184 227.109 19.9645C227.012 20.5244 227.474 21 228.042 21Z" stroke="black" stroke-width="2" stroke-linecap="round"/>
<path d="M234 6V11" stroke="black" stroke-width="2" stroke-linecap="round"/>
<path d="M234 4C234 3.44772 234.448 3 235 3H240C240.552 3 241 3.44772 241 4V6C241 6.55228 240.552 7 240 7H235C234.448 7 234 6.55228 234 6V4Z" stroke="black" stroke-width="2" stroke-linecap="round"/>
<path d="M237 11H231" stroke="black" stroke-width="2" stroke-linecap="round"/>
</g>
<g style="mix-blend-mode:multiply">
<path d="M299 8C299 7.44772 299.448 7 300 7H303.586C303.851 7 304.105 6.89464 304.293 6.70711L305.707 5.29289C305.895 5.10536 306.149 5 306.414 5H309.586C309.851 5 310.105 5.10536 310.293 5.29289L311.707 6.70711C311.895 6.89464 312.149 7 312.414 7H316C316.552 7 317 7.44772 317 8V18C317 18.5523 316.552 19 316 19H300C299.448 19 299 18.5523 299 18V8Z" stroke="black" stroke-width="2" stroke-linecap="round"/>
<path d="M311 13C311 14.6569 309.657 16 308 16C306.343 16 305 14.6569 305 13C305 11.3431 306.343 10 308 10C309.657 10 311 11.3431 311 13Z" stroke="black" stroke-width="2" stroke-linecap="round"/>
</g>
<g style="mix-blend-mode:multiply">
<path d="M373 4C373 3.44772 373.448 3 374 3H390C390.552 3 391 3.44772 391 4V20C391 20.5523 390.552 21 390 21H374C373.448 21 373 20.5523 373 20V4Z" stroke="black" stroke-width="2" stroke-linecap="round"/>
<path d="M382 7V17" stroke="black" stroke-width="2" stroke-linecap="round"/>
<path d="M387 12H377" stroke="black" stroke-width="2" stroke-linecap="round"/>
</g>
<g style="mix-blend-mode:multiply">
<path d="M14.0001 87L18.936 78.5023C19.3233 77.8356 18.8423 77 18.0713 77H5.60413C4.82055 77 4.3414 77.8603 4.75394 78.5265L9.85141 86.758C9.94937 86.9162 10.0013 87.0986 10.0012 87.2847L10.0003 94.6664C10.0002 95.3331 10.6402 95.8133 11.2803 95.6266L13.2801 95.0433C13.7067 94.9189 14.0001 94.5278 14.0001 94.0833V87ZM14.0001 87L14.0013 87" stroke="black" stroke-width="2" stroke-linecap="round"/>
<path d="M10 87H14" stroke="black" stroke-width="2" stroke-linecap="round"/>
</g>
<g style="mix-blend-mode:multiply">
<path d="M90.6705 90.6432C92.1102 89.1966 93 87.2022 93 85C93 80.5817 89.4183 77 85 77C80.5817 77 77 80.5817 77 85C77 89.4183 80.5817 93 85 93C87.2161 93 89.2217 92.0989 90.6705 90.6432ZM90.6705 90.6432L95.2969 95.2957" stroke="black" stroke-width="2" stroke-linecap="round"/>
</g>
<g style="mix-blend-mode:multiply">
<path d="M159.984 86.0059C157.222 86.0059 154.984 88.2444 154.984 91.0059M159.984 86.0059C162.745 86.0059 164.984 88.2444 164.984 91.0059M159.984 86.0059C157.224 86.0059 154.984 88.2459 154.984 91.0059M159.984 86.0059C162.744 86.0059 164.984 88.2459 164.984 91.0059M154.984 91.0059V94.0059C154.984 94.5581 155.432 95.0059 155.984 95.0059H163.984C164.537 95.0059 164.984 94.5581 164.984 94.0059V91.0059" stroke="black" stroke-width="2" stroke-linecap="round"/>
<path d="M164.984 81.0059C164.984 83.7673 162.746 86.0059 159.984 86.0059M164.984 81.0059V78.0059C164.984 77.4536 164.537 77.0059 163.984 77.0059H155.984C155.432 77.0059 154.984 77.4536 154.984 78.0059V81.0059M164.984 81.0059C164.984 83.7659 162.744 86.0059 159.984 86.0059M159.984 86.0059C157.223 86.0059 154.984 83.7673 154.984 81.0059M159.984 86.0059C157.224 86.0059 154.984 83.7659 154.984 81.0059" stroke="black" stroke-width="2" stroke-linecap="round"/>
<path d="M153 95H167" stroke="black" stroke-width="2" stroke-linecap="round"/>
<path d="M153 77H167" stroke="black" stroke-width="2" stroke-linecap="round"/>
</g>
<g style="mix-blend-mode:multiply">
<path d="M230.918 93.2382L226.688 88.9314C226.306 88.5424 226.306 87.919 226.688 87.53L227.553 86.6493C227.945 86.2503 228.588 86.2503 228.98 86.6493L230.91 88.6142C231.318 89.0298 231.994 89.01 232.377 88.5712L240.023 79.8133C240.406 79.3745 241.082 79.3547 241.49 79.7702L242.344 80.6394C242.713 81.0153 242.727 81.6132 242.376 82.0062L232.378 93.2035C231.993 93.6347 231.324 93.6506 230.918 93.2382Z" stroke="black" stroke-width="2" stroke-linecap="round"/>
</g>
<g style="mix-blend-mode:multiply">
<path d="M299.936 83.6911C299.329 81.9532 299 80.0858 299 78.1415C299 78.075 299 78.008 299.001 77.9408C299.008 77.4119 299.451 77.0023 299.98 77.0054L302.408 77.0192C302.834 77.0216 303.211 77.2934 303.349 77.6965L304.337 80.5954C304.5 81.0743 304.28 81.5996 303.824 81.8191L299.936 83.6911ZM299.936 83.6911C301.627 88.5217 305.464 92.3675 310.299 94.0579M310.299 94.0579L312.226 90.161C312.447 89.7136 312.965 89.4979 313.438 89.6556L316.316 90.6135C316.724 90.7495 317 91.132 317 91.5627L316.999 94.0271C316.998 94.5538 316.59 94.9932 316.063 94.999C316 94.9997 315.938 95 315.875 95C313.921 95 312.044 94.6682 310.299 94.0579Z" stroke="black" stroke-width="2" stroke-linecap="round"/>
</g>
<g style="mix-blend-mode:multiply">
<path d="M387.657 93C389.696 91.35 391 88.8273 391 86C391 81.0294 386.971 77 382 77C377.029 77 373 81.0294 373 86C373 88.8273 374.304 91.35 376.343 93" stroke="black" stroke-width="2" stroke-linecap="round"/>
<path d="M381.293 86.7071C381.684 87.0976 382.317 87.0976 382.707 86.7071C383.098 86.3165 383.098 85.6834 382.707 85.2929C382.317 84.9023 377.758 81.7573 377.758 81.7573C377.758 81.7573 380.903 86.3165 381.293 86.7071Z" stroke="black" stroke-width="2" stroke-linecap="round" stroke-linejoin="round"/>
<path d="M381 86C381 86.5523 381.448 87 382 87C382.552 87 383 86.5523 383 86C383 85.4477 382.552 85 382 85C381.448 85 381 85.4477 381 86Z" stroke="black" stroke-width="2" stroke-linecap="round"/>
</g>
<g style="mix-blend-mode:multiply">
<path d="M5 159C5 158.448 5.44772 158 6 158H18C18.5523 158 19 158.448 19 159V167C19 167.552 18.5523 168 18 168H6C5.44772 168 5 167.552 5 167V159Z" stroke="black" stroke-width="2" stroke-linecap="round"/>
<path d="M13 163C13 163.552 12.5523 164 12 164C11.4477 164 11 163.552 11 163C11 162.448 11.4477 162 12 162C12.5523 162 13 162.448 13 163Z" stroke="black" stroke-width="2" stroke-linecap="round"/>
<path d="M7 154C7 151.791 9.23858 150 12 150C14.7614 150 17 151.791 17 154V158" stroke="black" stroke-width="2" stroke-linecap="round"/>
</g>
<g style="mix-blend-mode:multiply">
<circle cx="86" cy="160" r="9" stroke="black" stroke-width="2"/>
<path d="M86 151L86 159C86 159.552 86.4477 160 87 160L95 160" stroke="black" stroke-width="2" stroke-linecap="round"/>
</g>
<g style="mix-blend-mode:multiply">
<path d="M160 168C164.971 168 169 164.418 169 160C169 155.582 164.971 152 160 152C155.029 152 151 155.582 151 160C151 161.32 151.36 162.566 151.997 163.664C152.138 163.907 152.19 164.194 152.121 164.466L151.301 167.7L154.738 166.828C154.989 166.764 155.254 166.803 155.485 166.922C156.812 167.607 158.354 168 160 168Z" stroke="black" stroke-width="2" stroke-linecap="round" stroke-linejoin="round"/>
</g>
<g style="mix-blend-mode:multiply">
<path d="M229 152C229 151.448 229.448 151 230 151H238C238.552 151 239 151.448 239 152V159H229V152Z" stroke="black" stroke-width="2" stroke-linecap="round"/>
<path d="M240 159H228M227 169H241C241.552 169 242 168.552 242 168V160C242 159.448 241.552 159 241 159H227C226.448 159 226 159.448 226 160V168C226 168.552 226.448 169 227 169Z" stroke="black" stroke-width="2" stroke-linecap="round"/>
<path d="M236 154L236 156" stroke="black" stroke-width="2" stroke-linecap="round"/>
<path d="M232 154L232 156" stroke="black" stroke-width="2" stroke-linecap="round"/>
</g>
<g style="mix-blend-mode:multiply">
<path d="M299 164C299 163.448 299.448 163 300 163H316C316.552 163 317 163.448 317 164V166C317 166.552 316.552 167 316 167H300C299.448 167 299 166.552 299 166V164Z" stroke="black" stroke-width="2" stroke-linecap="round"/>
<path d="M310.314 155.343C308.813 153.843 306.779 153 304.657 153C302.535 153 300.5 153.843 299 155.343" stroke="black" stroke-width="2" stroke-linecap="round"/>
<path d="M315 163V153" stroke="black" stroke-width="2" stroke-linecap="round"/>
<path d="M308.192 158.464C307.254 157.527 305.983 157 304.657 157C303.331 157 302.059 157.527 301.121 158.464" stroke="black" stroke-width="2" stroke-linecap="round"/>
</g>
<path d="M386.243 160L389.778 156.464C390.169 156.074 390.169 155.441 389.778 155.05L386.95 152.222C386.559 151.831 385.926 151.831 385.536 152.222L382 155.757" stroke="black" stroke-width="2" stroke-linecap="round"/>
<path d="M382.001 164.242L378.465 167.778C378.075 168.168 377.442 168.168 377.051 167.778L374.223 164.949C373.832 164.559 373.832 163.926 374.223 163.535L377.758 160" stroke="black" stroke-width="2" stroke-linecap="round"/>
<path d="M377.049 155.051L386.948 164.95" stroke="black" stroke-width="2" stroke-linecap="round"/>
<path d="M385.535 156.464L384.121 157.879" stroke="black" stroke-width="2" stroke-linecap="round"/>
<path d="M379.879 162.121L378.465 163.535" stroke="black" stroke-width="2" stroke-linecap="round"/>
<g style="mix-blend-mode:multiply">
<path d="M5 226C5 225.448 5.44772 225 6 225H18.2331C19.0105 225 19.4906 225.848 19.0904 226.515L17.3068 229.485C17.1165 229.802 17.1165 230.198 17.3068 230.515L19.0904 233.485C19.4906 234.152 19.0105 235 18.2331 235H6C5.44772 235 5 234.552 5 234V226Z" stroke="black" stroke-width="2" stroke-linecap="round"/>
<path d="M5 243V234" stroke="black" stroke-width="2" stroke-linecap="round"/>
</g>
<g style="mix-blend-mode:multiply">
<path d="M81 241V235C81 232.239 83.2386 230 86 230C88.7614 230 91 232.239 91 235V241" stroke="black" stroke-width="2" stroke-linecap="round"/>
<path d="M86 233V243" stroke="black" stroke-width="2" stroke-linecap="round"/>
<path d="M77 235C77 230.029 81.0294 226 86 226C90.9706 226 95 230.029 95 235" stroke="black" stroke-width="2" stroke-linecap="round"/>
</g>
<g style="mix-blend-mode:multiply">
<path d="M160.004 226.996C155.54 226.946 151.635 232.788 151.076 239.964C151.032 240.527 151.487 240.996 152.052 240.996L167.954 240.996C168.524 240.996 168.981 240.519 168.931 239.952C168.315 232.89 164.729 227.049 160.004 226.996Z" stroke="black" stroke-width="2" stroke-linecap="round"/>
<path d="M160.01 235C158.356 235 157.004 236.342 157.004 237.996V240.996L163.002 240.996L163.004 237.994C163.004 236.34 161.663 235 160.01 235Z" stroke="black" stroke-width="2" stroke-linecap="round"/>
</g>
<g style="mix-blend-mode:multiply">
<path d="M227.828 234.828C231.343 231.313 237.041 231.313 240.556 234.828" stroke="black" stroke-width="2" stroke-linecap="round"/>
<path d="M225 232C230.077 226.923 238.308 226.923 243.385 232" stroke="black" stroke-width="2" stroke-linecap="round"/>
<path d="M230.656 237.656C232.609 235.704 235.775 235.704 237.727 237.656" stroke="black" stroke-width="2" stroke-linecap="round"/>
<path d="M233.484 240.485C233.875 240.095 234.508 240.095 234.899 240.485" stroke="black" stroke-width="2" stroke-linecap="round"/>
</g>
<g style="mix-blend-mode:multiply">
<path d="M299 234H302.246C302.692 234 303.085 233.704 303.207 233.275L305 227L311 241L312.793 234.725C312.915 234.296 313.308 234 313.754 234H317" stroke="black" stroke-width="2" stroke-linecap="round" stroke-linejoin="round"/>
</g>
<g style="mix-blend-mode:multiply">
<path d="M374 240H390C390.552 240 391 239.552 391 239V229C391 228.448 390.552 228 390 228H374C373.448 228 373 228.448 373 229V239C373 239.552 373.448 240 374 240Z" stroke="black" stroke-width="2" stroke-linecap="round"/>
<path d="M382 231.764C381.469 231.289 380.768 231 380 231C378.343 231 377 232.343 377 234C377 236.563 380.135 237.905 382 236.236M382 231.764C383.315 232.941 383.314 235.06 382 236.236M382 231.764C383.314 232.94 383.314 235.06 382 236.236" stroke="black" stroke-width="2" stroke-linecap="round"/>
<path d="M382 231.764C382.612 232.312 383 233.111 383 234M382 231.764C382.614 232.313 383 233.111 383 234M382 231.764C383.865 230.095 387 231.437 387 234C387 236.563 383.865 237.905 382 236.236M382 236.236C382.624 235.677 383 234.888 383 234M382 236.236C382.614 235.687 383 234.888 383 234" stroke="black" stroke-width="2" stroke-linecap="round"/>
</g>
<g style="mix-blend-mode:multiply">
<path d="M21 308C21 312.971 16.9706 317 12 317C7.02944 317 3 312.971 3 308C3 303.029 7.02944 299 12 299C16.9706 299 21 303.029 21 308Z" stroke="black" stroke-width="2" stroke-linecap="round"/>
<path d="M9 311L15 305" stroke="black" stroke-width="2" stroke-linecap="round"/>
<path d="M10 305C10 305.552 9.55228 306 9 306C8.44772 306 8 305.552 8 305C8 304.448 8.44772 304 9 304C9.55228 304 10 304.448 10 305Z" stroke="black" stroke-width="2" stroke-linecap="round"/>
<path d="M16 311C16 311.552 15.5523 312 15 312C14.4477 312 14 311.552 14 311C14 310.448 14.4477 310 15 310C15.5523 310 16 310.448 16 311Z" stroke="black" stroke-width="2" stroke-linecap="round"/>
</g>
<g style="mix-blend-mode:multiply">
<path d="M77 304C77 303.448 77.4477 303 78 303H94C94.5523 303 95 303.448 95 304V314C95 314.552 94.5523 315 94 315H78C77.4477 315 77 314.552 77 314V304Z" stroke="black" stroke-width="2" stroke-linecap="round"/>
<path d="M90 307C90 307.552 90.4477 308 91 308C91.5523 308 92 307.552 92 307C92 306.448 91.5523 306 91 306C90.4477 306 90 306.448 90 307Z" stroke="black" stroke-width="2" stroke-linecap="round"/>
<path d="M94 299L79.8678 300.884C79.371 300.951 79 301.374 79 301.876V303" stroke="black" stroke-width="2" stroke-linecap="round"/>
<path d="M80 312H84" stroke="black" stroke-width="2" stroke-linecap="round"/>
<path d="M80 309H84" stroke="black" stroke-width="2" stroke-linecap="round"/>
</g>
<g style="mix-blend-mode:multiply">
<path d="M160 299V317" stroke="black" stroke-width="2" stroke-linecap="round"/>
<path d="M156 311V311.5C156 313.433 157.791 315 160 315C162.209 315 164 313.433 164 311.5C164 309.567 161.897 308.553 160 308C158 307.417 156 306.433 156 304.5C156 302.567 157.791 301 160 301C162.209 301 164 302.567 164 304.5V305" stroke="black" stroke-width="2" stroke-linecap="round"/>
</g>
<g style="mix-blend-mode:multiply">
<path d="M225 300C225 299.448 225.448 299 226 299H242C242.552 299 243 299.448 243 300V316C243 316.552 242.552 317 242 317H226C225.448 317 225 316.552 225 316V300Z" stroke="black" stroke-width="2" stroke-linecap="round"/>
<path d="M238 308L232 304V312L238 308Z" stroke="black" stroke-width="2" stroke-linecap="round" stroke-linejoin="round"/>
</g>
<g style="mix-blend-mode:multiply">
<path d="M311.456 299L310.709 304.037C310.612 304.694 311.078 305.309 311.773 305.439L316 306.236L304.492 317L305.288 311.91C305.392 311.247 304.921 310.625 304.219 310.496L300 309.725L311.456 299Z" stroke="black" stroke-width="2" stroke-linecap="round" stroke-linejoin="round"/>
</g>
<g style="mix-blend-mode:multiply">
<path d="M375 300C375 299.448 375.448 299 376 299H388C388.552 299 389 299.448 389 300V317L382.275 315.078C382.095 315.027 381.905 315.027 381.725 315.078L375 317V300Z" stroke="black" stroke-width="2" stroke-linecap="round" stroke-linejoin="round"/>
</g>
</svg>
