<svg width="40" height="40" viewBox="0 0 40 40" fill="none" xmlns="http://www.w3.org/2000/svg">
<path d="M31.6667 18.3333C31.6667 22.0037 30.1837 25.3276 27.7842 27.7386C25.3695 30.1649 22.0268 31.6667 18.3333 31.6667C10.9695 31.6667 5 25.6971 5 18.3333C5 10.9695 10.9695 5 18.3333 5C25.6971 5 31.6667 10.9695 31.6667 18.3333Z" fill="#FAD338"/>
<path d="M27.7842 27.7386C30.1837 25.3276 31.6667 22.0037 31.6667 18.3333C31.6667 10.9695 25.6971 5 18.3333 5C10.9695 5 5 10.9695 5 18.3333C5 25.6971 10.9695 31.6667 18.3333 31.6667C22.0268 31.6667 25.3695 30.1649 27.7842 27.7386ZM27.7842 27.7386L35.4948 35.4929" stroke="black" stroke-width="2" stroke-linecap="round"/>
</svg>
