<svg width="396" height="337" viewBox="0 0 396 337" fill="none" xmlns="http://www.w3.org/2000/svg">
<rect x="3" y="1" width="390" height="58" rx="9" fill="white"/>
<path d="M23.136 35V23.8H25.136L28.928 31.256L32.704 23.8H34.704V35H33.008V26.728L29.584 33.4H28.272L24.832 26.744V35H23.136ZM39.6038 35.192C38.9318 35.192 38.3771 35.08 37.9398 34.856C37.5024 34.632 37.1771 34.3387 36.9638 33.976C36.7504 33.6027 36.6438 33.1973 36.6438 32.76C36.6438 31.992 36.9424 31.384 37.5398 30.936C38.1371 30.488 38.9904 30.264 40.0998 30.264H42.1798V30.12C42.1798 29.5013 42.0091 29.0373 41.6678 28.728C41.3371 28.4187 40.9051 28.264 40.3718 28.264C39.9024 28.264 39.4918 28.3813 39.1398 28.616C38.7984 28.84 38.5904 29.176 38.5158 29.624H36.8198C36.8731 29.048 37.0651 28.5573 37.3958 28.152C37.7371 27.736 38.1638 27.4213 38.6758 27.208C39.1984 26.984 39.7691 26.872 40.3878 26.872C41.4971 26.872 42.3558 27.1653 42.9638 27.752C43.5718 28.328 43.8758 29.1173 43.8758 30.12V35H42.4038L42.2598 33.64C42.0358 34.0773 41.7104 34.4453 41.2838 34.744C40.8571 35.0427 40.2971 35.192 39.6038 35.192ZM39.9398 33.816C40.3984 33.816 40.7824 33.7093 41.0918 33.496C41.4118 33.272 41.6571 32.9787 41.8278 32.616C42.0091 32.2533 42.1211 31.8533 42.1638 31.416H40.2758C39.6038 31.416 39.1238 31.5333 38.8358 31.768C38.5584 32.0027 38.4198 32.296 38.4198 32.648C38.4198 33.0107 38.5531 33.2987 38.8198 33.512C39.0971 33.7147 39.4704 33.816 39.9398 33.816ZM46.8133 25.56C46.4933 25.56 46.2266 25.464 46.0133 25.272C45.8106 25.0693 45.7093 24.8187 45.7093 24.52C45.7093 24.2213 45.8106 23.976 46.0133 23.784C46.2266 23.5813 46.4933 23.48 46.8133 23.48C47.1333 23.48 47.3946 23.5813 47.5973 23.784C47.8106 23.976 47.9173 24.2213 47.9173 24.52C47.9173 24.8187 47.8106 25.0693 47.5973 25.272C47.3946 25.464 47.1333 25.56 46.8133 25.56ZM45.9653 35V27.064H47.6613V35H45.9653ZM49.9001 35V23.48H51.5961V35H49.9001ZM53.8079 36.6V23.48H55.5039V36.6H53.8079Z" fill="black"/>
<path d="M366.67 34.6432C368.11 33.1966 369 31.2022 369 29C369 24.5817 365.418 21 361 21C356.582 21 353 24.5817 353 29C353 33.4183 356.582 37 361 37C363.216 37 365.222 36.0989 366.67 34.6432ZM366.67 34.6432L371.297 39.2957" stroke="black" stroke-width="2" stroke-linecap="round"/>
<rect x="3" y="1" width="390" height="58" rx="9" stroke="black" stroke-width="2"/>
<path d="M2 75C2 69.4772 6.47715 65 12 65H384C389.523 65 394 69.4772 394 75V110H2V75Z" fill="white"/>
<path d="M25.796 92.156C25.1807 92.156 24.6347 92.0173 24.158 91.74C23.6813 91.454 23.3043 91.0597 23.027 90.557C22.7583 90.0543 22.624 89.4607 22.624 88.776C22.624 88.1 22.7583 87.5107 23.027 87.008C23.2957 86.4967 23.6683 86.1023 24.145 85.825C24.6303 85.539 25.1893 85.396 25.822 85.396C26.446 85.396 26.9833 85.539 27.434 85.825C27.8933 86.1023 28.2443 86.4707 28.487 86.93C28.7297 87.3893 28.851 87.8833 28.851 88.412C28.851 88.5073 28.8467 88.6027 28.838 88.698C28.838 88.7933 28.838 88.9017 28.838 89.023H23.703C23.729 89.517 23.8417 89.9287 24.041 90.258C24.249 90.5787 24.5047 90.8213 24.808 90.986C25.12 91.1507 25.4493 91.233 25.796 91.233C26.2467 91.233 26.6237 91.129 26.927 90.921C27.2303 90.713 27.4513 90.4313 27.59 90.076H28.669C28.4957 90.674 28.162 91.1723 27.668 91.571C27.1827 91.961 26.5587 92.156 25.796 92.156ZM25.796 86.319C25.276 86.319 24.8123 86.4793 24.405 86.8C24.0063 87.112 23.7767 87.5713 23.716 88.178H27.772C27.746 87.5973 27.5467 87.1423 27.174 86.813C26.8013 86.4837 26.342 86.319 25.796 86.319ZM30.2464 92V85.552H31.7154L31.8584 86.423C32.0664 86.111 32.3394 85.864 32.6774 85.682C33.024 85.4913 33.4227 85.396 33.8734 85.396C34.87 85.396 35.5764 85.7817 35.9924 86.553C36.2264 86.1977 36.5384 85.916 36.9284 85.708C37.327 85.5 37.7604 85.396 38.2284 85.396C39.069 85.396 39.7147 85.6473 40.1654 86.15C40.616 86.6527 40.8414 87.3893 40.8414 88.36V92H39.1774V88.516C39.1774 87.9613 39.069 87.5367 38.8524 87.242C38.6444 86.9473 38.3194 86.8 37.8774 86.8C37.4267 86.8 37.0627 86.9647 36.7854 87.294C36.5167 87.6233 36.3824 88.0827 36.3824 88.672V92H34.7184V88.516C34.7184 87.9613 34.61 87.5367 34.3934 87.242C34.1767 86.9473 33.843 86.8 33.3924 86.8C32.9504 86.8 32.5907 86.9647 32.3134 87.294C32.0447 87.6233 31.9104 88.0827 31.9104 88.672V92H30.2464ZM44.6442 92.156C44.0895 92.156 43.6345 92.0693 43.2792 91.896C42.9238 91.714 42.6595 91.4757 42.4862 91.181C42.3128 90.8863 42.2262 90.5613 42.2262 90.206C42.2262 89.608 42.4602 89.1227 42.9282 88.75C43.3962 88.3773 44.0982 88.191 45.0342 88.191H46.6722V88.035C46.6722 87.593 46.5465 87.268 46.2952 87.06C46.0438 86.852 45.7318 86.748 45.3592 86.748C45.0212 86.748 44.7265 86.8303 44.4752 86.995C44.2238 87.151 44.0678 87.385 44.0072 87.697H42.3822C42.4255 87.229 42.5815 86.8217 42.8502 86.475C43.1275 86.1283 43.4828 85.864 43.9162 85.682C44.3495 85.4913 44.8348 85.396 45.3722 85.396C46.2908 85.396 47.0145 85.6257 47.5432 86.085C48.0718 86.5443 48.3362 87.1943 48.3362 88.035V92H46.9192L46.7632 90.96C46.5725 91.3067 46.3038 91.5927 45.9572 91.818C45.6192 92.0433 45.1815 92.156 44.6442 92.156ZM45.0212 90.856C45.4978 90.856 45.8662 90.7 46.1262 90.388C46.3948 90.076 46.5638 89.6903 46.6332 89.231H45.2162C44.7742 89.231 44.4578 89.3133 44.2672 89.478C44.0765 89.634 43.9812 89.829 43.9812 90.063C43.9812 90.3143 44.0765 90.5093 44.2672 90.648C44.4578 90.7867 44.7092 90.856 45.0212 90.856ZM50.8211 84.551C50.5178 84.551 50.2664 84.46 50.0671 84.278C49.8764 84.096 49.7811 83.8663 49.7811 83.589C49.7811 83.3117 49.8764 83.0863 50.0671 82.913C50.2664 82.731 50.5178 82.64 50.8211 82.64C51.1244 82.64 51.3714 82.731 51.5621 82.913C51.7614 83.0863 51.8611 83.3117 51.8611 83.589C51.8611 83.8663 51.7614 84.096 51.5621 84.278C51.3714 84.46 51.1244 84.551 50.8211 84.551ZM49.9891 92V85.552H51.6531V92H49.9891ZM53.3899 92V82.64H55.0539V92H53.3899Z" fill="black"/>
<rect width="392" height="45" transform="translate(2 110)" fill="white"/>
<path d="M22.845 137V130.552H24.314L24.457 131.423C24.665 131.111 24.938 130.864 25.276 130.682C25.6227 130.491 26.0213 130.396 26.472 130.396C27.4687 130.396 28.175 130.782 28.591 131.553C28.825 131.198 29.137 130.916 29.527 130.708C29.9257 130.5 30.359 130.396 30.827 130.396C31.6677 130.396 32.3133 130.647 32.764 131.15C33.2147 131.653 33.44 132.389 33.44 133.36V137H31.776V133.516C31.776 132.961 31.6677 132.537 31.451 132.242C31.243 131.947 30.918 131.8 30.476 131.8C30.0253 131.8 29.6613 131.965 29.384 132.294C29.1153 132.623 28.981 133.083 28.981 133.672V137H27.317V133.516C27.317 132.961 27.2087 132.537 26.992 132.242C26.7753 131.947 26.4417 131.8 25.991 131.8C25.549 131.8 25.1893 131.965 24.912 132.294C24.6433 132.623 24.509 133.083 24.509 133.672V137H22.845ZM37.2428 137.156C36.6881 137.156 36.2331 137.069 35.8778 136.896C35.5225 136.714 35.2581 136.476 35.0848 136.181C34.9115 135.886 34.8248 135.561 34.8248 135.206C34.8248 134.608 35.0588 134.123 35.5268 133.75C35.9948 133.377 36.6968 133.191 37.6328 133.191H39.2708V133.035C39.2708 132.593 39.1451 132.268 38.8938 132.06C38.6425 131.852 38.3305 131.748 37.9578 131.748C37.6198 131.748 37.3251 131.83 37.0738 131.995C36.8225 132.151 36.6665 132.385 36.6058 132.697H34.9808C35.0241 132.229 35.1801 131.822 35.4488 131.475C35.7261 131.128 36.0815 130.864 36.5148 130.682C36.9481 130.491 37.4335 130.396 37.9708 130.396C38.8895 130.396 39.6131 130.626 40.1418 131.085C40.6705 131.544 40.9348 132.194 40.9348 133.035V137H39.5178L39.3618 135.96C39.1711 136.307 38.9025 136.593 38.5558 136.818C38.2178 137.043 37.7801 137.156 37.2428 137.156ZM37.6198 135.856C38.0965 135.856 38.4648 135.7 38.7248 135.388C38.9935 135.076 39.1625 134.69 39.2318 134.231H37.8148C37.3728 134.231 37.0565 134.313 36.8658 134.478C36.6751 134.634 36.5798 134.829 36.5798 135.063C36.5798 135.314 36.6751 135.509 36.8658 135.648C37.0565 135.787 37.3078 135.856 37.6198 135.856ZM43.4197 129.551C43.1164 129.551 42.8651 129.46 42.6657 129.278C42.4751 129.096 42.3797 128.866 42.3797 128.589C42.3797 128.312 42.4751 128.086 42.6657 127.913C42.8651 127.731 43.1164 127.64 43.4197 127.64C43.7231 127.64 43.9701 127.731 44.1607 127.913C44.3601 128.086 44.4597 128.312 44.4597 128.589C44.4597 128.866 44.3601 129.096 44.1607 129.278C43.9701 129.46 43.7231 129.551 43.4197 129.551ZM42.5877 137V130.552H44.2517V137H42.5877ZM45.9886 137V127.64H47.6526V137H45.9886Z" fill="black"/>
<rect width="392" height="45" transform="translate(2 155)" fill="white"/>
<path d="M25.835 182.156C25.2283 182.156 24.6823 182.017 24.197 181.74C23.7117 181.463 23.326 181.073 23.04 180.57C22.7627 180.059 22.624 179.461 22.624 178.776C22.624 178.091 22.767 177.498 23.053 176.995C23.339 176.484 23.7247 176.089 24.21 175.812C24.704 175.535 25.2543 175.396 25.861 175.396C26.4677 175.396 27.0137 175.535 27.499 175.812C27.9843 176.089 28.3657 176.484 28.643 176.995C28.929 177.498 29.072 178.091 29.072 178.776C29.072 179.461 28.929 180.059 28.643 180.57C28.357 181.073 27.967 181.463 27.473 181.74C26.9877 182.017 26.4417 182.156 25.835 182.156ZM25.835 181.22C26.2077 181.22 26.5543 181.129 26.875 180.947C27.1957 180.765 27.4557 180.492 27.655 180.128C27.8543 179.764 27.954 179.313 27.954 178.776C27.954 178.239 27.8543 177.788 27.655 177.424C27.4643 177.06 27.2087 176.787 26.888 176.605C26.5673 176.423 26.225 176.332 25.861 176.332C25.4883 176.332 25.1417 176.423 24.821 176.605C24.5003 176.787 24.2403 177.06 24.041 177.424C23.8417 177.788 23.742 178.239 23.742 178.776C23.742 179.313 23.8417 179.764 24.041 180.128C24.2403 180.492 24.496 180.765 24.808 180.947C25.1287 181.129 25.471 181.22 25.835 181.22ZM30.5904 184.86V175.552H31.5784L31.6824 176.618C31.8904 176.306 32.185 176.024 32.5664 175.773C32.9564 175.522 33.4504 175.396 34.0484 175.396C34.6897 175.396 35.2487 175.543 35.7254 175.838C36.202 176.133 36.5704 176.536 36.8304 177.047C37.099 177.558 37.2334 178.139 37.2334 178.789C37.2334 179.439 37.099 180.02 36.8304 180.531C36.5704 181.034 36.1977 181.432 35.7124 181.727C35.2357 182.013 34.6767 182.156 34.0354 182.156C33.5067 182.156 33.0344 182.048 32.6184 181.831C32.211 181.614 31.899 181.311 31.6824 180.921V184.86H30.5904ZM33.9184 181.207C34.3517 181.207 34.733 181.107 35.0624 180.908C35.3917 180.7 35.6517 180.414 35.8424 180.05C36.033 179.686 36.1284 179.261 36.1284 178.776C36.1284 178.291 36.033 177.866 35.8424 177.502C35.6517 177.138 35.3917 176.856 35.0624 176.657C34.733 176.449 34.3517 176.345 33.9184 176.345C33.485 176.345 33.1037 176.449 32.7744 176.657C32.445 176.856 32.185 177.138 31.9944 177.502C31.8037 177.866 31.7084 178.291 31.7084 178.776C31.7084 179.261 31.8037 179.686 31.9944 180.05C32.185 180.414 32.445 180.7 32.7744 180.908C33.1037 181.107 33.485 181.207 33.9184 181.207ZM41.6524 182.156C41.0371 182.156 40.4911 182.017 40.0144 181.74C39.5378 181.454 39.1608 181.06 38.8834 180.557C38.6148 180.054 38.4804 179.461 38.4804 178.776C38.4804 178.1 38.6148 177.511 38.8834 177.008C39.1521 176.497 39.5248 176.102 40.0014 175.825C40.4868 175.539 41.0458 175.396 41.6784 175.396C42.3024 175.396 42.8398 175.539 43.2904 175.825C43.7498 176.102 44.1008 176.471 44.3434 176.93C44.5861 177.389 44.7074 177.883 44.7074 178.412C44.7074 178.507 44.7031 178.603 44.6944 178.698C44.6944 178.793 44.6944 178.902 44.6944 179.023H39.5594C39.5854 179.517 39.6981 179.929 39.8974 180.258C40.1054 180.579 40.3611 180.821 40.6644 180.986C40.9764 181.151 41.3058 181.233 41.6524 181.233C42.1031 181.233 42.4801 181.129 42.7834 180.921C43.0868 180.713 43.3078 180.431 43.4464 180.076H44.5254C44.3521 180.674 44.0184 181.172 43.5244 181.571C43.0391 181.961 42.4151 182.156 41.6524 182.156ZM41.6524 176.319C41.1324 176.319 40.6688 176.479 40.2614 176.8C39.8628 177.112 39.6331 177.571 39.5724 178.178H43.6284C43.6024 177.597 43.4031 177.142 43.0304 176.813C42.6578 176.484 42.1984 176.319 41.6524 176.319ZM46.1548 182V175.552H47.1428L47.2078 176.709C47.4158 176.302 47.7148 175.981 48.1048 175.747C48.4948 175.513 48.9368 175.396 49.4308 175.396C50.1935 175.396 50.8001 175.63 51.2508 176.098C51.7101 176.557 51.9398 177.268 51.9398 178.23V182H50.8478V178.347C50.8478 177.004 50.2931 176.332 49.1838 176.332C48.6291 176.332 48.1655 176.536 47.7928 176.943C47.4288 177.342 47.2468 177.914 47.2468 178.659V182H46.1548ZM56.9827 182V175.552H58.4517L58.5947 176.423C58.8027 176.111 59.0757 175.864 59.4137 175.682C59.7604 175.491 60.159 175.396 60.6097 175.396C61.6064 175.396 62.3127 175.782 62.7287 176.553C62.9627 176.198 63.2747 175.916 63.6647 175.708C64.0634 175.5 64.4967 175.396 64.9647 175.396C65.8054 175.396 66.451 175.647 66.9017 176.15C67.3524 176.653 67.5777 177.389 67.5777 178.36V182H65.9137V178.516C65.9137 177.961 65.8054 177.537 65.5887 177.242C65.3807 176.947 65.0557 176.8 64.6137 176.8C64.163 176.8 63.799 176.965 63.5217 177.294C63.253 177.623 63.1187 178.083 63.1187 178.672V182H61.4547V178.516C61.4547 177.961 61.3464 177.537 61.1297 177.242C60.913 176.947 60.5794 176.8 60.1287 176.8C59.6867 176.8 59.327 176.965 59.0497 177.294C58.781 177.623 58.6467 178.083 58.6467 178.672V182H56.9827ZM71.3805 182.156C70.8258 182.156 70.3708 182.069 70.0155 181.896C69.6602 181.714 69.3958 181.476 69.2225 181.181C69.0492 180.886 68.9625 180.561 68.9625 180.206C68.9625 179.608 69.1965 179.123 69.6645 178.75C70.1325 178.377 70.8345 178.191 71.7705 178.191H73.4085V178.035C73.4085 177.593 73.2828 177.268 73.0315 177.06C72.7802 176.852 72.4682 176.748 72.0955 176.748C71.7575 176.748 71.4628 176.83 71.2115 176.995C70.9602 177.151 70.8042 177.385 70.7435 177.697H69.1185C69.1618 177.229 69.3178 176.822 69.5865 176.475C69.8638 176.128 70.2192 175.864 70.6525 175.682C71.0858 175.491 71.5712 175.396 72.1085 175.396C73.0272 175.396 73.7508 175.626 74.2795 176.085C74.8082 176.544 75.0725 177.194 75.0725 178.035V182H73.6555L73.4995 180.96C73.3088 181.307 73.0402 181.593 72.6935 181.818C72.3555 182.043 71.9178 182.156 71.3805 182.156ZM71.7575 180.856C72.2342 180.856 72.6025 180.7 72.8625 180.388C73.1312 180.076 73.3002 179.69 73.3695 179.231H71.9525C71.5105 179.231 71.1942 179.313 71.0035 179.478C70.8128 179.634 70.7175 179.829 70.7175 180.063C70.7175 180.314 70.8128 180.509 71.0035 180.648C71.1942 180.787 71.4455 180.856 71.7575 180.856ZM77.5574 174.551C77.2541 174.551 77.0028 174.46 76.8034 174.278C76.6128 174.096 76.5174 173.866 76.5174 173.589C76.5174 173.312 76.6128 173.086 76.8034 172.913C77.0028 172.731 77.2541 172.64 77.5574 172.64C77.8608 172.64 78.1078 172.731 78.2984 172.913C78.4978 173.086 78.5974 173.312 78.5974 173.589C78.5974 173.866 78.4978 174.096 78.2984 174.278C78.1078 174.46 77.8608 174.551 77.5574 174.551ZM76.7254 182V175.552H78.3894V182H76.7254ZM80.1263 182V172.64H81.7903V182H80.1263Z" fill="black"/>
<rect width="392" height="45" transform="translate(2 200)" fill="white"/>
<path d="M25.887 227.156C25.2543 227.156 24.691 227.017 24.197 226.74C23.7117 226.454 23.3303 226.06 23.053 225.557C22.7757 225.054 22.637 224.469 22.637 223.802C22.637 223.126 22.7713 222.532 23.04 222.021C23.3173 221.51 23.6987 221.111 24.184 220.825C24.678 220.539 25.25 220.396 25.9 220.396C26.5327 220.396 27.083 220.539 27.551 220.825C28.019 221.102 28.383 221.475 28.643 221.943C28.903 222.411 29.033 222.927 29.033 223.49C29.033 223.577 29.0287 223.672 29.02 223.776C29.02 223.871 29.0157 223.98 29.007 224.101H23.989C24.0323 224.725 24.236 225.202 24.6 225.531C24.9727 225.852 25.4017 226.012 25.887 226.012C26.277 226.012 26.602 225.925 26.862 225.752C27.1307 225.57 27.33 225.327 27.46 225.024H28.838C28.6647 225.631 28.318 226.138 27.798 226.545C27.2867 226.952 26.6497 227.156 25.887 227.156ZM25.887 221.527C25.4277 221.527 25.0203 221.666 24.665 221.943C24.3097 222.212 24.093 222.619 24.015 223.165H27.655C27.629 222.662 27.4513 222.264 27.122 221.969C26.7927 221.674 26.381 221.527 25.887 221.527ZM30.4368 227V220.552H31.9058L32.0488 221.423C32.2568 221.111 32.5298 220.864 32.8678 220.682C33.2145 220.491 33.6131 220.396 34.0638 220.396C35.0605 220.396 35.7668 220.782 36.1828 221.553C36.4168 221.198 36.7288 220.916 37.1188 220.708C37.5175 220.5 37.9508 220.396 38.4188 220.396C39.2595 220.396 39.9051 220.647 40.3558 221.15C40.8065 221.653 41.0318 222.389 41.0318 223.36V227H39.3678V223.516C39.3678 222.961 39.2595 222.537 39.0428 222.242C38.8348 221.947 38.5098 221.8 38.0678 221.8C37.6171 221.8 37.2531 221.965 36.9758 222.294C36.7071 222.623 36.5728 223.083 36.5728 223.672V227H34.9088V223.516C34.9088 222.961 34.8005 222.537 34.5838 222.242C34.3671 221.947 34.0335 221.8 33.5828 221.8C33.1408 221.8 32.7811 221.965 32.5038 222.294C32.2351 222.623 32.1008 223.083 32.1008 223.672V227H30.4368ZM44.8346 227.156C44.2799 227.156 43.8249 227.069 43.4696 226.896C43.1143 226.714 42.8499 226.476 42.6766 226.181C42.5033 225.886 42.4166 225.561 42.4166 225.206C42.4166 224.608 42.6506 224.123 43.1186 223.75C43.5866 223.377 44.2886 223.191 45.2246 223.191H46.8626V223.035C46.8626 222.593 46.7369 222.268 46.4856 222.06C46.2343 221.852 45.9223 221.748 45.5496 221.748C45.2116 221.748 44.9169 221.83 44.6656 221.995C44.4143 222.151 44.2583 222.385 44.1976 222.697H42.5726C42.6159 222.229 42.7719 221.822 43.0406 221.475C43.3179 221.128 43.6733 220.864 44.1066 220.682C44.5399 220.491 45.0253 220.396 45.5626 220.396C46.4813 220.396 47.2049 220.626 47.7336 221.085C48.2623 221.544 48.5266 222.194 48.5266 223.035V227H47.1096L46.9536 225.96C46.7629 226.307 46.4943 226.593 46.1476 226.818C45.8096 227.043 45.3719 227.156 44.8346 227.156ZM45.2116 225.856C45.6883 225.856 46.0566 225.7 46.3166 225.388C46.5853 225.076 46.7543 224.69 46.8236 224.231H45.4066C44.9646 224.231 44.6483 224.313 44.4576 224.478C44.2669 224.634 44.1716 224.829 44.1716 225.063C44.1716 225.314 44.2669 225.509 44.4576 225.648C44.6483 225.787 44.8996 225.856 45.2116 225.856ZM51.0115 219.551C50.7082 219.551 50.4569 219.46 50.2575 219.278C50.0669 219.096 49.9715 218.866 49.9715 218.589C49.9715 218.312 50.0669 218.086 50.2575 217.913C50.4569 217.731 50.7082 217.64 51.0115 217.64C51.3149 217.64 51.5619 217.731 51.7525 217.913C51.9519 218.086 52.0515 218.312 52.0515 218.589C52.0515 218.866 51.9519 219.096 51.7525 219.278C51.5619 219.46 51.3149 219.551 51.0115 219.551ZM50.1795 227V220.552H51.8435V227H50.1795ZM53.5804 227V217.64H55.2444V227H53.5804ZM62.43 227.156C61.884 227.156 61.4333 227.065 61.078 226.883C60.7227 226.701 60.4583 226.463 60.285 226.168C60.1117 225.865 60.025 225.535 60.025 225.18C60.025 224.556 60.2677 224.062 60.753 223.698C61.2383 223.334 61.9317 223.152 62.833 223.152H64.523V223.035C64.523 222.532 64.3843 222.155 64.107 221.904C63.8383 221.653 63.4873 221.527 63.054 221.527C62.6727 221.527 62.339 221.622 62.053 221.813C61.7757 221.995 61.6067 222.268 61.546 222.632H60.168C60.2113 222.164 60.3673 221.765 60.636 221.436C60.9133 221.098 61.26 220.842 61.676 220.669C62.1007 220.487 62.5643 220.396 63.067 220.396C63.9683 220.396 64.666 220.634 65.16 221.111C65.654 221.579 65.901 222.22 65.901 223.035V227H64.705L64.588 225.895C64.406 226.25 64.1417 226.549 63.795 226.792C63.4483 227.035 62.9933 227.156 62.43 227.156ZM62.703 226.038C63.0757 226.038 63.3877 225.951 63.639 225.778C63.899 225.596 64.0983 225.358 64.237 225.063C64.3843 224.768 64.4753 224.443 64.51 224.088H62.976C62.43 224.088 62.04 224.183 61.806 224.374C61.5807 224.565 61.468 224.803 61.468 225.089C61.468 225.384 61.5763 225.618 61.793 225.791C62.0183 225.956 62.3217 226.038 62.703 226.038ZM70.5627 227.156C69.9301 227.156 69.3624 227.013 68.8597 226.727C68.3657 226.441 67.9757 226.047 67.6897 225.544C67.4124 225.033 67.2737 224.443 67.2737 223.776C67.2737 223.109 67.4124 222.524 67.6897 222.021C67.9757 221.51 68.3657 221.111 68.8597 220.825C69.3624 220.539 69.9301 220.396 70.5627 220.396C71.3601 220.396 72.0274 220.604 72.5647 221.02C73.1107 221.436 73.4617 221.999 73.6177 222.71H72.1747C72.0881 222.355 71.8974 222.077 71.6027 221.878C71.3081 221.679 70.9614 221.579 70.5627 221.579C70.2247 221.579 69.9127 221.666 69.6267 221.839C69.3407 222.004 69.1111 222.251 68.9377 222.58C68.7644 222.901 68.6777 223.299 68.6777 223.776C68.6777 224.253 68.7644 224.656 68.9377 224.985C69.1111 225.306 69.3407 225.553 69.6267 225.726C69.9127 225.899 70.2247 225.986 70.5627 225.986C70.9614 225.986 71.3081 225.886 71.6027 225.687C71.8974 225.488 72.0881 225.206 72.1747 224.842H73.6177C73.4704 225.535 73.1237 226.094 72.5777 226.519C72.0317 226.944 71.3601 227.156 70.5627 227.156ZM77.6893 227C77.0566 227 76.5539 226.848 76.1813 226.545C75.8086 226.233 75.6223 225.683 75.6223 224.894V221.709H74.5173V220.552H75.6223L75.7913 218.914H77.0003V220.552H78.8203V221.709H77.0003V224.894C77.0003 225.249 77.0739 225.496 77.2213 225.635C77.3773 225.765 77.6416 225.83 78.0143 225.83H78.7553V227H77.6893ZM81.0211 219.33C80.7611 219.33 80.5445 219.252 80.3711 219.096C80.2065 218.931 80.1241 218.728 80.1241 218.485C80.1241 218.242 80.2065 218.043 80.3711 217.887C80.5445 217.722 80.7611 217.64 81.0211 217.64C81.2811 217.64 81.4935 217.722 81.6581 217.887C81.8315 218.043 81.9181 218.242 81.9181 218.485C81.9181 218.728 81.8315 218.931 81.6581 219.096C81.4935 219.252 81.2811 219.33 81.0211 219.33ZM80.3321 227V220.552H81.7101V227H80.3321ZM86.5452 227.156C85.9299 227.156 85.3752 227.017 84.8812 226.74C84.3959 226.454 84.0102 226.06 83.7242 225.557C83.4382 225.046 83.2952 224.452 83.2952 223.776C83.2952 223.1 83.4382 222.511 83.7242 222.008C84.0189 221.497 84.4132 221.102 84.9072 220.825C85.4012 220.539 85.9515 220.396 86.5582 220.396C87.1735 220.396 87.7239 220.539 88.2092 220.825C88.7032 221.102 89.0932 221.497 89.3792 222.008C89.6739 222.511 89.8212 223.1 89.8212 223.776C89.8212 224.452 89.6739 225.046 89.3792 225.557C89.0932 226.06 88.7032 226.454 88.2092 226.74C87.7152 227.017 87.1605 227.156 86.5452 227.156ZM86.5452 225.973C86.8745 225.973 87.1779 225.891 87.4552 225.726C87.7412 225.561 87.9709 225.319 88.1442 224.998C88.3175 224.669 88.4042 224.261 88.4042 223.776C88.4042 223.291 88.3175 222.888 88.1442 222.567C87.9795 222.238 87.7542 221.991 87.4682 221.826C87.1909 221.661 86.8875 221.579 86.5582 221.579C86.2289 221.579 85.9212 221.661 85.6352 221.826C85.3579 221.991 85.1325 222.238 84.9592 222.567C84.7859 222.888 84.6992 223.291 84.6992 223.776C84.6992 224.261 84.7859 224.669 84.9592 224.998C85.1325 225.319 85.3579 225.561 85.6352 225.726C85.9125 225.891 86.2159 225.973 86.5452 225.973ZM91.3114 227V220.552H92.5334L92.6374 221.683C92.8368 221.284 93.1271 220.972 93.5084 220.747C93.8984 220.513 94.3448 220.396 94.8474 220.396C95.6274 220.396 96.2384 220.639 96.6804 221.124C97.1311 221.609 97.3564 222.333 97.3564 223.295V227H95.9914V223.438C95.9914 222.19 95.4801 221.566 94.4574 221.566C93.9461 221.566 93.5214 221.748 93.1834 222.112C92.8541 222.476 92.6894 222.996 92.6894 223.672V227H91.3114ZM101.553 227.156C100.739 227.156 100.067 226.957 99.5384 226.558C99.0097 226.159 98.7064 225.631 98.6284 224.972H100.019C100.089 225.267 100.253 225.522 100.513 225.739C100.773 225.947 101.116 226.051 101.54 226.051C101.956 226.051 102.26 225.964 102.45 225.791C102.641 225.618 102.736 225.418 102.736 225.193C102.736 224.864 102.602 224.643 102.333 224.53C102.073 224.409 101.709 224.3 101.241 224.205C100.877 224.127 100.513 224.023 100.149 223.893C99.7941 223.763 99.4951 223.581 99.2524 223.347C99.0184 223.104 98.9014 222.779 98.9014 222.372C98.9014 221.809 99.1181 221.341 99.5514 220.968C99.9847 220.587 100.591 220.396 101.371 220.396C102.091 220.396 102.671 220.569 103.113 220.916C103.564 221.263 103.828 221.752 103.906 222.385H102.58C102.537 222.108 102.407 221.891 102.19 221.735C101.982 221.579 101.701 221.501 101.345 221.501C100.999 221.501 100.73 221.575 100.539 221.722C100.349 221.861 100.253 222.043 100.253 222.268C100.253 222.493 100.383 222.671 100.643 222.801C100.912 222.931 101.263 223.048 101.696 223.152C102.13 223.247 102.528 223.36 102.892 223.49C103.265 223.611 103.564 223.793 103.789 224.036C104.015 224.279 104.127 224.634 104.127 225.102C104.136 225.691 103.906 226.181 103.438 226.571C102.979 226.961 102.351 227.156 101.553 227.156Z" fill="black"/>
<rect width="392" height="45" transform="translate(2 245)" fill="white"/>
<path d="M22.845 272V265.552H24.314L24.457 266.423C24.665 266.111 24.938 265.864 25.276 265.682C25.6227 265.491 26.0213 265.396 26.472 265.396C27.4687 265.396 28.175 265.782 28.591 266.553C28.825 266.198 29.137 265.916 29.527 265.708C29.9257 265.5 30.359 265.396 30.827 265.396C31.6677 265.396 32.3133 265.647 32.764 266.15C33.2147 266.653 33.44 267.389 33.44 268.36V272H31.776V268.516C31.776 267.961 31.6677 267.537 31.451 267.242C31.243 266.947 30.918 266.8 30.476 266.8C30.0253 266.8 29.6613 266.965 29.384 267.294C29.1153 267.623 28.981 268.083 28.981 268.672V272H27.317V268.516C27.317 267.961 27.2087 267.537 26.992 267.242C26.7753 266.947 26.4417 266.8 25.991 266.8C25.549 266.8 25.1893 266.965 24.912 267.294C24.6433 267.623 24.509 268.083 24.509 268.672V272H22.845ZM37.2428 272.156C36.6881 272.156 36.2331 272.069 35.8778 271.896C35.5225 271.714 35.2581 271.476 35.0848 271.181C34.9115 270.886 34.8248 270.561 34.8248 270.206C34.8248 269.608 35.0588 269.123 35.5268 268.75C35.9948 268.377 36.6968 268.191 37.6328 268.191H39.2708V268.035C39.2708 267.593 39.1451 267.268 38.8938 267.06C38.6425 266.852 38.3305 266.748 37.9578 266.748C37.6198 266.748 37.3251 266.83 37.0738 266.995C36.8225 267.151 36.6665 267.385 36.6058 267.697H34.9808C35.0241 267.229 35.1801 266.822 35.4488 266.475C35.7261 266.128 36.0815 265.864 36.5148 265.682C36.9481 265.491 37.4335 265.396 37.9708 265.396C38.8895 265.396 39.6131 265.626 40.1418 266.085C40.6705 266.544 40.9348 267.194 40.9348 268.035V272H39.5178L39.3618 270.96C39.1711 271.307 38.9025 271.593 38.5558 271.818C38.2178 272.043 37.7801 272.156 37.2428 272.156ZM37.6198 270.856C38.0965 270.856 38.4648 270.7 38.7248 270.388C38.9935 270.076 39.1625 269.69 39.2318 269.231H37.8148C37.3728 269.231 37.0565 269.313 36.8658 269.478C36.6751 269.634 36.5798 269.829 36.5798 270.063C36.5798 270.314 36.6751 270.509 36.8658 270.648C37.0565 270.787 37.3078 270.856 37.6198 270.856ZM43.4197 264.551C43.1164 264.551 42.8651 264.46 42.6657 264.278C42.4751 264.096 42.3797 263.866 42.3797 263.589C42.3797 263.312 42.4751 263.086 42.6657 262.913C42.8651 262.731 43.1164 262.64 43.4197 262.64C43.7231 262.64 43.9701 262.731 44.1607 262.913C44.3601 263.086 44.4597 263.312 44.4597 263.589C44.4597 263.866 44.3601 264.096 44.1607 264.278C43.9701 264.46 43.7231 264.551 43.4197 264.551ZM42.5877 272V265.552H44.2517V272H42.5877ZM46.0146 272V262.64H47.3926V272H46.0146ZM52.7646 272.156C52.2619 272.156 51.8156 272.056 51.4256 271.857C51.0443 271.658 50.7409 271.376 50.5156 271.012L50.3726 272H49.1376V262.64H50.5156V266.553C50.7236 266.25 51.0096 265.981 51.3736 265.747C51.7376 265.513 52.2056 265.396 52.7776 265.396C53.4016 265.396 53.9519 265.543 54.4286 265.838C54.9053 266.133 55.2779 266.536 55.5466 267.047C55.8239 267.558 55.9626 268.139 55.9626 268.789C55.9626 269.439 55.8239 270.02 55.5466 270.531C55.2779 271.034 54.9053 271.432 54.4286 271.727C53.9519 272.013 53.3973 272.156 52.7646 272.156ZM52.5306 270.96C53.1199 270.96 53.6053 270.761 53.9866 270.362C54.3679 269.955 54.5586 269.426 54.5586 268.776C54.5586 268.351 54.4719 267.974 54.2986 267.645C54.1253 267.316 53.8869 267.06 53.5836 266.878C53.2803 266.687 52.9293 266.592 52.5306 266.592C51.9413 266.592 51.4559 266.796 51.0746 267.203C50.7019 267.61 50.5156 268.135 50.5156 268.776C50.5156 269.426 50.7019 269.955 51.0746 270.362C51.4559 270.761 51.9413 270.96 52.5306 270.96ZM60.469 272.156C59.8537 272.156 59.299 272.017 58.805 271.74C58.3197 271.454 57.934 271.06 57.648 270.557C57.362 270.046 57.219 269.452 57.219 268.776C57.219 268.1 57.362 267.511 57.648 267.008C57.9427 266.497 58.337 266.102 58.831 265.825C59.325 265.539 59.8754 265.396 60.482 265.396C61.0974 265.396 61.6477 265.539 62.133 265.825C62.627 266.102 63.017 266.497 63.303 267.008C63.5977 267.511 63.745 268.1 63.745 268.776C63.745 269.452 63.5977 270.046 63.303 270.557C63.017 271.06 62.627 271.454 62.133 271.74C61.639 272.017 61.0844 272.156 60.469 272.156ZM60.469 270.973C60.7984 270.973 61.1017 270.891 61.379 270.726C61.665 270.561 61.8947 270.319 62.068 269.998C62.2414 269.669 62.328 269.261 62.328 268.776C62.328 268.291 62.2414 267.888 62.068 267.567C61.9034 267.238 61.678 266.991 61.392 266.826C61.1147 266.661 60.8114 266.579 60.482 266.579C60.1527 266.579 59.845 266.661 59.559 266.826C59.2817 266.991 59.0564 267.238 58.883 267.567C58.7097 267.888 58.623 268.291 58.623 268.776C58.623 269.261 58.7097 269.669 58.883 269.998C59.0564 270.319 59.2817 270.561 59.559 270.726C59.8364 270.891 60.1397 270.973 60.469 270.973ZM64.2939 272L66.5819 268.776L64.2939 265.552H65.7629L67.4919 268.022L69.2079 265.552H70.6899L68.4019 268.776L70.6899 272H69.2079L67.4919 269.53L65.7629 272H64.2939Z" fill="black"/>
<path d="M2 290H394V325C394 330.523 389.523 335 384 335H12C6.47715 335 2 330.523 2 325V290Z" fill="white"/>
<path d="M22.923 317V307.9H26.108C26.8187 307.9 27.408 308.021 27.876 308.264C28.344 308.498 28.6907 308.823 28.916 309.239C29.15 309.646 29.267 310.11 29.267 310.63C29.267 311.124 29.1543 311.579 28.929 311.995C28.7123 312.402 28.37 312.727 27.902 312.97C27.434 313.213 26.836 313.334 26.108 313.334H24.301V317H22.923ZM24.301 312.203H26.043C26.693 312.203 27.1567 312.064 27.434 311.787C27.72 311.501 27.863 311.115 27.863 310.63C27.863 310.127 27.72 309.737 27.434 309.46C27.1567 309.174 26.693 309.031 26.043 309.031H24.301V312.203ZM33.2376 317.156C32.6223 317.156 32.0676 317.017 31.5736 316.74C31.0883 316.454 30.7026 316.06 30.4166 315.557C30.1306 315.046 29.9876 314.452 29.9876 313.776C29.9876 313.1 30.1306 312.511 30.4166 312.008C30.7113 311.497 31.1056 311.102 31.5996 310.825C32.0936 310.539 32.6439 310.396 33.2506 310.396C33.8659 310.396 34.4163 310.539 34.9016 310.825C35.3956 311.102 35.7856 311.497 36.0716 312.008C36.3663 312.511 36.5136 313.1 36.5136 313.776C36.5136 314.452 36.3663 315.046 36.0716 315.557C35.7856 316.06 35.3956 316.454 34.9016 316.74C34.4076 317.017 33.8529 317.156 33.2376 317.156ZM33.2376 315.973C33.5669 315.973 33.8703 315.891 34.1476 315.726C34.4336 315.561 34.6633 315.319 34.8366 314.998C35.0099 314.669 35.0966 314.261 35.0966 313.776C35.0966 313.291 35.0099 312.888 34.8366 312.567C34.6719 312.238 34.4466 311.991 34.1606 311.826C33.8833 311.661 33.5799 311.579 33.2506 311.579C32.9213 311.579 32.6136 311.661 32.3276 311.826C32.0503 311.991 31.8249 312.238 31.6516 312.567C31.4783 312.888 31.3916 313.291 31.3916 313.776C31.3916 314.261 31.4783 314.669 31.6516 314.998C31.8249 315.319 32.0503 315.561 32.3276 315.726C32.6049 315.891 32.9083 315.973 33.2376 315.973ZM40.5778 317.156C39.7631 317.156 39.0915 316.957 38.5628 316.558C38.0341 316.159 37.7308 315.631 37.6528 314.972H39.0438C39.1131 315.267 39.2778 315.522 39.5378 315.739C39.7978 315.947 40.1401 316.051 40.5648 316.051C40.9808 316.051 41.2841 315.964 41.4748 315.791C41.6655 315.618 41.7608 315.418 41.7608 315.193C41.7608 314.864 41.6265 314.643 41.3578 314.53C41.0978 314.409 40.7338 314.3 40.2658 314.205C39.9018 314.127 39.5378 314.023 39.1738 313.893C38.8185 313.763 38.5195 313.581 38.2768 313.347C38.0428 313.104 37.9258 312.779 37.9258 312.372C37.9258 311.809 38.1425 311.341 38.5758 310.968C39.0091 310.587 39.6158 310.396 40.3958 310.396C41.1151 310.396 41.6958 310.569 42.1378 310.916C42.5885 311.263 42.8528 311.752 42.9308 312.385H41.6048C41.5615 312.108 41.4315 311.891 41.2148 311.735C41.0068 311.579 40.7251 311.501 40.3698 311.501C40.0231 311.501 39.7545 311.575 39.5638 311.722C39.3731 311.861 39.2778 312.043 39.2778 312.268C39.2778 312.493 39.4078 312.671 39.6678 312.801C39.9365 312.931 40.2875 313.048 40.7208 313.152C41.1541 313.247 41.5528 313.36 41.9168 313.49C42.2895 313.611 42.5885 313.793 42.8138 314.036C43.0391 314.279 43.1518 314.634 43.1518 315.102C43.1605 315.691 42.9308 316.181 42.4628 316.571C42.0035 316.961 41.3751 317.156 40.5778 317.156ZM47.1189 317C46.4863 317 45.9836 316.848 45.6109 316.545C45.2383 316.233 45.0519 315.683 45.0519 314.894V311.709H43.9469V310.552H45.0519L45.2209 308.914H46.4299V310.552H48.2499V311.709H46.4299V314.894C46.4299 315.249 46.5036 315.496 46.6509 315.635C46.8069 315.765 47.0713 315.83 47.4439 315.83H48.1849V317H47.1189ZM49.5408 313.802V312.645H54.8318V313.802H49.5408ZM56.4247 317V310.552H57.6467L57.7637 311.462C57.9717 311.133 58.2447 310.873 58.5827 310.682C58.9294 310.491 59.328 310.396 59.7787 310.396C60.8014 310.396 61.512 310.799 61.9107 311.605C62.1447 311.232 62.4567 310.938 62.8467 310.721C63.2454 310.504 63.6744 310.396 64.1337 310.396C64.9397 310.396 65.5724 310.639 66.0317 311.124C66.491 311.609 66.7207 312.333 66.7207 313.295V317H65.3427V313.438C65.3427 312.19 64.866 311.566 63.9127 311.566C63.4274 311.566 63.0287 311.748 62.7167 312.112C62.4134 312.476 62.2617 312.996 62.2617 313.672V317H60.8837V313.438C60.8837 312.19 60.4027 311.566 59.4407 311.566C58.964 311.566 58.5697 311.748 58.2577 312.112C57.9544 312.476 57.8027 312.996 57.8027 313.672V317H56.4247ZM71.3489 317.156C70.7336 317.156 70.1789 317.017 69.6849 316.74C69.1996 316.454 68.8139 316.06 68.5279 315.557C68.2419 315.046 68.0989 314.452 68.0989 313.776C68.0989 313.1 68.2419 312.511 68.5279 312.008C68.8226 311.497 69.2169 311.102 69.7109 310.825C70.2049 310.539 70.7552 310.396 71.3619 310.396C71.9772 310.396 72.5276 310.539 73.0129 310.825C73.5069 311.102 73.8969 311.497 74.1829 312.008C74.4776 312.511 74.6249 313.1 74.6249 313.776C74.6249 314.452 74.4776 315.046 74.1829 315.557C73.8969 316.06 73.5069 316.454 73.0129 316.74C72.5189 317.017 71.9642 317.156 71.3489 317.156ZM71.3489 315.973C71.6782 315.973 71.9816 315.891 72.2589 315.726C72.5449 315.561 72.7746 315.319 72.9479 314.998C73.1212 314.669 73.2079 314.261 73.2079 313.776C73.2079 313.291 73.1212 312.888 72.9479 312.567C72.7832 312.238 72.5579 311.991 72.2719 311.826C71.9946 311.661 71.6912 311.579 71.3619 311.579C71.0326 311.579 70.7249 311.661 70.4389 311.826C70.1616 311.991 69.9362 312.238 69.7629 312.567C69.5896 312.888 69.5029 313.291 69.5029 313.776C69.5029 314.261 69.5896 314.669 69.7629 314.998C69.9362 315.319 70.1616 315.561 70.4389 315.726C70.7162 315.891 71.0196 315.973 71.3489 315.973ZM78.4941 317.156C77.7141 317.156 77.0988 316.913 76.6481 316.428C76.2061 315.943 75.9851 315.219 75.9851 314.257V310.552H77.3631V314.114C77.3631 315.362 77.8745 315.986 78.8971 315.986C79.4085 315.986 79.8288 315.804 80.1581 315.44C80.4875 315.076 80.6521 314.556 80.6521 313.88V310.552H82.0301V317H80.8081L80.7041 315.869C80.5048 316.268 80.2101 316.584 79.8201 316.818C79.4388 317.043 78.9968 317.156 78.4941 317.156ZM83.7831 317V310.552H85.0051L85.1091 311.683C85.3084 311.284 85.5988 310.972 85.9801 310.747C86.3701 310.513 86.8164 310.396 87.3191 310.396C88.0991 310.396 88.7101 310.639 89.1521 311.124C89.6028 311.609 89.8281 312.333 89.8281 313.295V317H88.4631V313.438C88.4631 312.19 87.9518 311.566 86.9291 311.566C86.4178 311.566 85.9931 311.748 85.6551 312.112C85.3258 312.476 85.1611 312.996 85.1611 313.672V317H83.7831ZM94.1551 317C93.5224 317 93.0197 316.848 92.6471 316.545C92.2744 316.233 92.0881 315.683 92.0881 314.894V311.709H90.9831V310.552H92.0881L92.2571 308.914H93.4661V310.552H95.2861V311.709H93.4661V314.894C93.4661 315.249 93.5397 315.496 93.6871 315.635C93.8431 315.765 94.1074 315.83 94.4801 315.83H95.2211V317H94.1551ZM99.5579 317.156C98.9252 317.156 98.3619 317.017 97.8679 316.74C97.3826 316.454 97.0012 316.06 96.7239 315.557C96.4466 315.054 96.3079 314.469 96.3079 313.802C96.3079 313.126 96.4422 312.532 96.7109 312.021C96.9882 311.51 97.3696 311.111 97.8549 310.825C98.3489 310.539 98.9209 310.396 99.5709 310.396C100.204 310.396 100.754 310.539 101.222 310.825C101.69 311.102 102.054 311.475 102.314 311.943C102.574 312.411 102.704 312.927 102.704 313.49C102.704 313.577 102.7 313.672 102.691 313.776C102.691 313.871 102.687 313.98 102.678 314.101H97.6599C97.7032 314.725 97.9069 315.202 98.2709 315.531C98.6436 315.852 99.0726 316.012 99.5579 316.012C99.9479 316.012 100.273 315.925 100.533 315.752C100.802 315.57 101.001 315.327 101.131 315.024H102.509C102.336 315.631 101.989 316.138 101.469 316.545C100.958 316.952 100.321 317.156 99.5579 317.156ZM99.5579 311.527C99.0986 311.527 98.6912 311.666 98.3359 311.943C97.9806 312.212 97.7639 312.619 97.6859 313.165H101.326C101.3 312.662 101.122 312.264 100.793 311.969C100.464 311.674 100.052 311.527 99.5579 311.527ZM107.072 317.156C106.448 317.156 105.897 317.009 105.421 316.714C104.944 316.419 104.571 316.016 104.303 315.505C104.034 314.994 103.9 314.413 103.9 313.763C103.9 313.113 104.034 312.537 104.303 312.034C104.571 311.523 104.944 311.124 105.421 310.838C105.906 310.543 106.461 310.396 107.085 310.396C107.596 310.396 108.042 310.496 108.424 310.695C108.814 310.894 109.117 311.176 109.334 311.54V307.64H110.712V317H109.477L109.334 315.999C109.126 316.302 108.84 316.571 108.476 316.805C108.112 317.039 107.644 317.156 107.072 317.156ZM107.319 315.96C107.908 315.96 108.389 315.756 108.762 315.349C109.143 314.942 109.334 314.417 109.334 313.776C109.334 313.126 109.143 312.602 108.762 312.203C108.389 311.796 107.908 311.592 107.319 311.592C106.729 311.592 106.244 311.796 105.863 312.203C105.481 312.602 105.291 313.126 105.291 313.776C105.291 314.201 105.377 314.578 105.551 314.907C105.724 315.236 105.962 315.496 106.266 315.687C106.578 315.869 106.929 315.96 107.319 315.96ZM115.699 317V310.552H117.168L117.311 311.423C117.519 311.111 117.792 310.864 118.13 310.682C118.476 310.491 118.875 310.396 119.326 310.396C120.322 310.396 121.029 310.782 121.445 311.553C121.679 311.198 121.991 310.916 122.381 310.708C122.779 310.5 123.213 310.396 123.681 310.396C124.521 310.396 125.167 310.647 125.618 311.15C126.068 311.653 126.294 312.389 126.294 313.36V317H124.63V313.516C124.63 312.961 124.521 312.537 124.305 312.242C124.097 311.947 123.772 311.8 123.33 311.8C122.879 311.8 122.515 311.965 122.238 312.294C121.969 312.623 121.835 313.083 121.835 313.672V317H120.171V313.516C120.171 312.961 120.062 312.537 119.846 312.242C119.629 311.947 119.295 311.8 118.845 311.8C118.403 311.8 118.043 311.965 117.766 312.294C117.497 312.623 117.363 313.083 117.363 313.672V317H115.699ZM130.096 317.156C129.542 317.156 129.087 317.069 128.731 316.896C128.376 316.714 128.112 316.476 127.938 316.181C127.765 315.886 127.678 315.561 127.678 315.206C127.678 314.608 127.912 314.123 128.38 313.75C128.848 313.377 129.55 313.191 130.486 313.191H132.124V313.035C132.124 312.593 131.999 312.268 131.747 312.06C131.496 311.852 131.184 311.748 130.811 311.748C130.473 311.748 130.179 311.83 129.927 311.995C129.676 312.151 129.52 312.385 129.459 312.697H127.834C127.878 312.229 128.034 311.822 128.302 311.475C128.58 311.128 128.935 310.864 129.368 310.682C129.802 310.491 130.287 310.396 130.824 310.396C131.743 310.396 132.467 310.626 132.995 311.085C133.524 311.544 133.788 312.194 133.788 313.035V317H132.371L132.215 315.96C132.025 316.307 131.756 316.593 131.409 316.818C131.071 317.043 130.634 317.156 130.096 317.156ZM130.473 315.856C130.95 315.856 131.318 315.7 131.578 315.388C131.847 315.076 132.016 314.69 132.085 314.231H130.668C130.226 314.231 129.91 314.313 129.719 314.478C129.529 314.634 129.433 314.829 129.433 315.063C129.433 315.314 129.529 315.509 129.719 315.648C129.91 315.787 130.161 315.856 130.473 315.856ZM136.273 309.551C135.97 309.551 135.719 309.46 135.519 309.278C135.329 309.096 135.233 308.866 135.233 308.589C135.233 308.312 135.329 308.086 135.519 307.913C135.719 307.731 135.97 307.64 136.273 307.64C136.577 307.64 136.824 307.731 137.014 307.913C137.214 308.086 137.313 308.312 137.313 308.589C137.313 308.866 137.214 309.096 137.014 309.278C136.824 309.46 136.577 309.551 136.273 309.551ZM135.441 317V310.552H137.105V317H135.441ZM138.868 317V307.64H140.246V317H138.868ZM145.618 317.156C145.115 317.156 144.669 317.056 144.279 316.857C143.898 316.658 143.594 316.376 143.369 316.012L143.226 317H141.991V307.64H143.369V311.553C143.577 311.25 143.863 310.981 144.227 310.747C144.591 310.513 145.059 310.396 145.631 310.396C146.255 310.396 146.805 310.543 147.282 310.838C147.759 311.133 148.131 311.536 148.4 312.047C148.677 312.558 148.816 313.139 148.816 313.789C148.816 314.439 148.677 315.02 148.4 315.531C148.131 316.034 147.759 316.432 147.282 316.727C146.805 317.013 146.251 317.156 145.618 317.156ZM145.384 315.96C145.973 315.96 146.459 315.761 146.84 315.362C147.221 314.955 147.412 314.426 147.412 313.776C147.412 313.351 147.325 312.974 147.152 312.645C146.979 312.316 146.74 312.06 146.437 311.878C146.134 311.687 145.783 311.592 145.384 311.592C144.795 311.592 144.309 311.796 143.928 312.203C143.555 312.61 143.369 313.135 143.369 313.776C143.369 314.426 143.555 314.955 143.928 315.362C144.309 315.761 144.795 315.96 145.384 315.96ZM153.323 317.156C152.707 317.156 152.153 317.017 151.659 316.74C151.173 316.454 150.788 316.06 150.502 315.557C150.216 315.046 150.073 314.452 150.073 313.776C150.073 313.1 150.216 312.511 150.502 312.008C150.796 311.497 151.191 311.102 151.685 310.825C152.179 310.539 152.729 310.396 153.336 310.396C153.951 310.396 154.501 310.539 154.987 310.825C155.481 311.102 155.871 311.497 156.157 312.008C156.451 312.511 156.599 313.1 156.599 313.776C156.599 314.452 156.451 315.046 156.157 315.557C155.871 316.06 155.481 316.454 154.987 316.74C154.493 317.017 153.938 317.156 153.323 317.156ZM153.323 315.973C153.652 315.973 153.955 315.891 154.233 315.726C154.519 315.561 154.748 315.319 154.922 314.998C155.095 314.669 155.182 314.261 155.182 313.776C155.182 313.291 155.095 312.888 154.922 312.567C154.757 312.238 154.532 311.991 154.246 311.826C153.968 311.661 153.665 311.579 153.336 311.579C153.006 311.579 152.699 311.661 152.413 311.826C152.135 311.991 151.91 312.238 151.737 312.567C151.563 312.888 151.477 313.291 151.477 313.776C151.477 314.261 151.563 314.669 151.737 314.998C151.91 315.319 152.135 315.561 152.413 315.726C152.69 315.891 152.993 315.973 153.323 315.973ZM157.147 317L159.435 313.776L157.147 310.552H158.616L160.345 313.022L162.061 310.552H163.543L161.255 313.776L163.543 317H162.061L160.345 314.53L158.616 317H157.147Z" fill="black"/>
<rect x="2" y="65" width="392" height="270" rx="10" stroke="#18181C" stroke-width="4"/>
</svg>
