<svg width="54" height="35" viewBox="0 0 54 35" fill="none" xmlns="http://www.w3.org/2000/svg">
<mask id="mask0_7224_14224" style="mask-type:luminance" maskUnits="userSpaceOnUse" x="0" y="0" width="54" height="35">
<path fill-rule="evenodd" clip-rule="evenodd" d="M0.869141 0H53.0341V34.5136H0.869141V0Z" fill="white"/>
</mask>
<g mask="url(#mask0_7224_14224)">
<path fill-rule="evenodd" clip-rule="evenodd" d="M25.6447 30.7684C15.3366 31.7225 4.59593 30.2207 3.09228 22.1342C2.34559 18.1523 4.16348 13.9261 6.56139 11.304V9.8999C2.23752 13.7058 -0.111203 18.5196 1.24502 24.2035C2.97436 31.4974 12.1919 35.6261 26.2639 34.2514C31.8355 33.7134 39.1272 31.9133 44.1876 29.1205V25.1526C39.5888 27.9066 31.9828 30.1818 25.6447 30.7684ZM52.8053 9.80201C50.3487 -2.1731 27.1769 -2.93156 12.2404 6.19187V7.19957C27.1574 -0.500255 48.3239 -0.451062 50.25 10.5798C50.899 14.2341 48.8549 18.0348 45.1896 20.2216V23.0834C49.6017 21.4645 54.1118 16.2249 52.8053 9.80201Z" fill="#C8C9D0"/>
</g>
<path fill-rule="evenodd" clip-rule="evenodd" d="M43.47 7.75586H40.8613V19.7179C40.8613 21.1229 41.5161 22.3448 43.47 22.5385" fill="#C8C9D0"/>
<path fill-rule="evenodd" clip-rule="evenodd" d="M11.2962 12.9731H8.6875V20.6402C8.6875 22.0194 9.34223 23.218 11.2962 23.4079" fill="#C8C9D0"/>
<path fill-rule="evenodd" clip-rule="evenodd" d="M8.6875 11.2342H11.2962V8.62549H8.6875V11.2342Z" fill="#C8C9D0"/>
<path fill-rule="evenodd" clip-rule="evenodd" d="M27.2232 23.4082C25.1949 23.4082 24.3398 21.8358 24.3398 20.2837V9.49512H26.8141V12.4832H28.6877V14.7206H26.8141V20.1175C26.8141 20.7523 27.0869 21.1002 27.6779 21.1002H28.6877V23.4082H27.2232Z" fill="#C8C9D0"/>
<path fill-rule="evenodd" clip-rule="evenodd" d="M32.2487 18.6181C32.2487 20.0351 33.1222 21.0782 34.6521 21.0782C35.8542 21.0782 36.4501 20.7354 37.1454 20.0352L38.8142 21.6738C37.7415 22.7524 36.6191 23.4081 34.6325 23.4081C32.0402 23.4081 29.5566 21.9611 29.5566 17.7456C29.5566 14.1407 31.7219 12.1038 34.5728 12.1038C37.4633 12.1038 39.1219 14.4886 39.1219 17.6199V18.6183H32.2487M34.4527 14.3928C33.5291 14.3928 32.8142 14.8817 32.516 15.5423C32.3372 15.9405 32.2774 16.2431 32.248 16.7325H36.4297C36.3701 15.5373 35.8433 14.3928 34.4527 14.3928Z" fill="#C8C9D0"/>
<path fill-rule="evenodd" clip-rule="evenodd" d="M18.8029 15.1073C19.5897 15.1073 19.9144 15.4871 19.9144 16.1071V23.4079H22.5999V16.0975C22.5999 14.6123 21.7933 12.9731 19.4425 12.9731H13.9043V23.4078H16.58V15.1072" fill="#C8C9D0"/>
</svg>
