<svg width="340" height="260" viewBox="0 0 340 260" fill="none" xmlns="http://www.w3.org/2000/svg">
<rect x="0.5" y="0.5" width="339" height="259" rx="9.5" fill="white" stroke="#E8E8E8"/>
<g filter="url(#filter0_d_7592_12469)">
<mask id="path-2-outside-1_7592_12469" maskUnits="userSpaceOnUse" x="262.333" y="47.3333" width="24" height="26" fill="black">
<rect fill="white" x="262.333" y="47.3333" width="24" height="26"/>
<path fill-rule="evenodd" clip-rule="evenodd" d="M280 71.6666L278.333 68.3333L276.666 71.6666H270V69.9391C270 68.5745 264.666 64.7723 264.666 64.7723C263.93 64.2252 263.333 63.0462 263.333 62.1172V56.111C263.333 54.202 264.826 52.6542 266.666 52.6542V57.8394H268.333V49.7739C268.333 48.9779 268.955 48.3333 269.722 48.3333C271.256 48.3333 272.5 49.6226 272.5 51.2136V50.6381C272.5 49.8421 273.121 49.1974 273.889 49.1974C275.423 49.1974 276.666 50.4868 276.666 52.0778V51.5023C276.666 50.7063 277.288 50.0616 278.056 49.9999C279.59 50.0616 280.833 51.351 280.833 52.942V52.3665C280.833 51.5705 281.455 50.9258 282.222 50.9258C283.756 50.9258 285 52.2152 285 53.8062V61.6738C285 62.5903 284.604 63.9686 284.124 64.7621C284.124 64.7621 281.666 68.5745 281.666 69.9391V71.6666H280ZM273.333 58.3333L275 58.3333V64.9999H273.333V58.3333ZM276.666 58.3333L278.333 58.3333V64.9999H276.666V58.3333ZM280 58.3333L281.666 58.3333V64.9999H280V58.3333Z"/>
</mask>
<path fill-rule="evenodd" clip-rule="evenodd" d="M280 71.6666L278.333 68.3333L276.666 71.6666H270V69.9391C270 68.5745 264.666 64.7723 264.666 64.7723C263.93 64.2252 263.333 63.0462 263.333 62.1172V56.111C263.333 54.202 264.826 52.6542 266.666 52.6542V57.8394H268.333V49.7739C268.333 48.9779 268.955 48.3333 269.722 48.3333C271.256 48.3333 272.5 49.6226 272.5 51.2136V50.6381C272.5 49.8421 273.121 49.1974 273.889 49.1974C275.423 49.1974 276.666 50.4868 276.666 52.0778V51.5023C276.666 50.7063 277.288 50.0616 278.056 49.9999C279.59 50.0616 280.833 51.351 280.833 52.942V52.3665C280.833 51.5705 281.455 50.9258 282.222 50.9258C283.756 50.9258 285 52.2152 285 53.8062V61.6738C285 62.5903 284.604 63.9686 284.124 64.7621C284.124 64.7621 281.666 68.5745 281.666 69.9391V71.6666H280ZM273.333 58.3333L275 58.3333V64.9999H273.333V58.3333ZM276.666 58.3333L278.333 58.3333V64.9999H276.666V58.3333ZM280 58.3333L281.666 58.3333V64.9999H280V58.3333Z" fill="white"/>
<path d="M280 71.6666L279.105 72.1138L279.382 72.6666H280V71.6666ZM278.333 68.3333L279.227 67.886L278.333 66.0972L277.439 67.886L278.333 68.3333ZM276.666 71.6666V72.6666H277.284L277.561 72.1138L276.666 71.6666ZM270 71.6666H269V72.6666H270V71.6666ZM264.666 64.7723L264.07 65.575L264.078 65.5809L264.086 65.5866L264.666 64.7723ZM266.666 52.6542H267.666V51.6542H266.666V52.6542ZM266.666 57.8394H265.666V58.8394H266.666V57.8394ZM268.333 57.8394V58.8394H269.333V57.8394H268.333ZM278.056 49.9999L278.096 49.0007L278.035 48.9983L277.975 49.0031L278.056 49.9999ZM284.124 64.7621L284.964 65.3039L284.972 65.292L284.979 65.2799L284.124 64.7621ZM281.666 71.6666V72.6666H282.666V71.6666H281.666ZM275 58.3333H276V57.3333H275V58.3333ZM275 64.9999V65.9999H276V64.9999H275ZM273.333 64.9999H272.333V65.9999H273.333V64.9999ZM273.333 58.3333V57.3333H272.333V58.3333H273.333ZM278.333 58.3333H279.333V57.3333H278.333V58.3333ZM278.333 64.9999V65.9999H279.333V64.9999H278.333ZM276.666 64.9999H275.666V65.9999H276.666V64.9999ZM276.666 58.3333V57.3333H275.666V58.3333H276.666ZM281.666 58.3333H282.666V57.3333H281.666V58.3333ZM281.666 64.9999V65.9999H282.666V64.9999H281.666ZM280 64.9999H279V65.9999H280V64.9999ZM280 58.3333V57.3333H279V58.3333H280ZM280.894 71.2194L279.227 67.886L277.439 68.7805L279.105 72.1138L280.894 71.2194ZM277.439 67.886L275.772 71.2194L277.561 72.1138L279.227 68.7805L277.439 67.886ZM276.666 70.6666H270V72.6666H276.666V70.6666ZM271 71.6666V69.9391H269V71.6666H271ZM271 69.9391C271 69.4817 270.793 69.0754 270.62 68.7972C270.429 68.4903 270.176 68.1793 269.905 67.8823C269.361 67.2858 268.656 66.6497 267.976 66.0786C267.292 65.5032 266.611 64.974 266.102 64.5898C265.848 64.3974 265.635 64.2404 265.485 64.1311C265.411 64.0765 265.352 64.0337 265.311 64.0044C265.291 63.9897 265.275 63.9784 265.264 63.9706C265.259 63.9667 265.254 63.9637 265.252 63.9616C265.25 63.9605 265.249 63.9597 265.248 63.9591C265.248 63.9588 265.247 63.9586 265.247 63.9584C265.247 63.9583 265.247 63.9582 265.247 63.9582C265.247 63.9581 265.247 63.958 264.666 64.7723C264.086 65.5866 264.086 65.5866 264.086 65.5865C264.086 65.5866 264.086 65.5866 264.086 65.5866C264.086 65.5866 264.086 65.5867 264.086 65.5869C264.087 65.5872 264.087 65.5878 264.088 65.5886C264.091 65.5902 264.094 65.5926 264.099 65.596C264.108 65.6027 264.122 65.6128 264.141 65.6264C264.178 65.6534 264.234 65.6936 264.305 65.7456C264.447 65.8496 264.651 66.0003 264.897 66.1856C265.388 66.557 266.04 67.0637 266.689 67.6094C267.343 68.1594 267.971 68.7297 268.427 69.2299C268.657 69.4812 268.82 69.6911 268.921 69.8533C269.04 70.0442 269 70.0553 269 69.9391H271ZM265.263 63.9697C265.051 63.8125 264.808 63.5184 264.617 63.1383C264.426 62.7586 264.333 62.3862 264.333 62.1172H262.333C262.333 62.7772 262.539 63.4588 262.83 64.0376C263.121 64.6161 263.545 65.185 264.07 65.575L265.263 63.9697ZM264.333 62.1172V56.111H262.333V62.1172H264.333ZM264.333 56.111C264.333 54.7197 265.412 53.6542 266.666 53.6542V51.6542C264.239 51.6542 262.333 53.6843 262.333 56.111H264.333ZM265.666 52.6542V57.8394H267.666V52.6542H265.666ZM266.666 58.8394H268.333V56.8394H266.666V58.8394ZM269.333 57.8394V49.7739H267.333V57.8394H269.333ZM269.333 49.7739C269.333 49.4956 269.541 49.3333 269.722 49.3333V47.3333C268.368 47.3333 267.333 48.4602 267.333 49.7739H269.333ZM269.722 49.3333C270.67 49.3333 271.5 50.1403 271.5 51.2136H273.5C273.5 49.1049 271.843 47.3333 269.722 47.3333V49.3333ZM273.5 51.2136V50.6381H271.5V51.2136H273.5ZM273.5 50.6381C273.5 50.3598 273.708 50.1974 273.889 50.1974V48.1974C272.535 48.1974 271.5 49.3244 271.5 50.6381H273.5ZM273.889 50.1974C274.837 50.1974 275.666 51.0045 275.666 52.0778H277.666C277.666 49.9691 276.009 48.1974 273.889 48.1974V50.1974ZM277.666 52.0778V51.5023H275.666V52.0778H277.666ZM277.666 51.5023C277.666 51.2409 277.874 51.0177 278.136 50.9967L277.975 49.0031C276.702 49.1056 275.666 50.1718 275.666 51.5023H277.666ZM278.015 50.9991C279.003 51.0389 279.833 51.8776 279.833 52.942H281.833C281.833 50.8244 280.176 49.0844 278.096 49.0007L278.015 50.9991ZM281.833 52.942V52.3665H279.833V52.942H281.833ZM281.833 52.3665C281.833 52.0882 282.041 51.9258 282.222 51.9258V49.9258C280.868 49.9258 279.833 51.0528 279.833 52.3665H281.833ZM282.222 51.9258C283.17 51.9258 284 52.7329 284 53.8062H286C286 51.6975 284.343 49.9258 282.222 49.9258V51.9258ZM284 53.8062V61.6738H286V53.8062H284ZM284 61.6738C284 62.0091 283.924 62.4862 283.78 62.9903C283.637 63.4932 283.449 63.9466 283.268 64.2442L284.979 65.2799C285.28 64.784 285.529 64.1516 285.704 63.5378C285.878 62.9252 286 62.2549 286 61.6738H284ZM284.124 64.7621C283.283 64.2203 283.283 64.2203 283.283 64.2204C283.283 64.2205 283.283 64.2206 283.283 64.2207C283.283 64.2209 283.283 64.2212 283.283 64.2215C283.282 64.2221 283.282 64.223 283.281 64.2241C283.279 64.2263 283.277 64.2294 283.275 64.2334C283.27 64.2414 283.262 64.253 283.253 64.2679C283.234 64.2978 283.206 64.3411 283.172 64.3964C283.102 64.5069 283.004 64.6653 282.886 64.8594C282.65 65.2467 282.334 65.7798 282.018 66.3591C281.703 66.9353 281.377 67.5735 281.128 68.1677C280.897 68.7191 280.666 69.3779 280.666 69.9391H282.666C282.666 69.8179 282.743 69.4885 282.973 68.9413C283.184 68.4368 283.473 67.8661 283.773 67.3186C284.07 66.7742 284.369 66.269 284.594 65.8988C284.707 65.7141 284.8 65.564 284.865 65.4607C284.897 65.409 284.923 65.3691 284.94 65.3425C284.948 65.3291 284.955 65.3191 284.959 65.3126C284.961 65.3094 284.962 65.307 284.963 65.3055C284.964 65.3048 284.964 65.3043 284.964 65.304C284.964 65.3039 284.964 65.3038 284.964 65.3038C284.964 65.3038 284.964 65.3038 284.964 65.3038C284.964 65.3038 284.964 65.3039 284.124 64.7621ZM280.666 69.9391V71.6666H282.666V69.9391H280.666ZM281.666 70.6666H280V72.6666H281.666V70.6666ZM273.333 59.3333H275V57.3333H273.333V59.3333ZM274 58.3333V64.9999H276V58.3333H274ZM275 63.9999H273.333V65.9999H275V63.9999ZM274.333 64.9999V58.3333H272.333V64.9999H274.333ZM276.666 59.3333H278.333V57.3333H276.666V59.3333ZM277.333 58.3333V64.9999H279.333V58.3333H277.333ZM278.333 63.9999H276.666V65.9999H278.333V63.9999ZM277.666 64.9999V58.3333H275.666V64.9999H277.666ZM280 59.3333H281.666V57.3333H280V59.3333ZM280.666 58.3333V64.9999H282.666V58.3333H280.666ZM281.666 63.9999H280V65.9999H281.666V63.9999ZM281 64.9999V58.3333H279V64.9999H281Z" fill="black" fill-opacity="0.8" mask="url(#path-2-outside-1_7592_12469)"/>
</g>
<g filter="url(#filter1_d_7592_12469)">
<path fill-rule="evenodd" clip-rule="evenodd" d="M148.2 60.1025L139.138 63.3229L144.18 69.7764L139.096 73.7485L134.054 67.2949L128.737 75.3081L120.729 44.9993L148.2 60.1025ZM133.944 64.4466L139.383 71.409L141.841 69.4891L136.401 62.5268L144.144 59.7749L123.333 48.3333L129.4 71.294L133.944 64.4466Z" fill="black" fill-opacity="0.8"/>
</g>
<g filter="url(#filter2_d_7592_12469)">
<path fill-rule="evenodd" clip-rule="evenodd" d="M136.401 62.5267L144.144 59.7748L123.333 48.3333L129.4 71.294L133.943 64.4466L139.383 71.4089L141.84 69.4891L136.401 62.5267Z" fill="white"/>
</g>
<g filter="url(#filter3_d_7592_12469)">
<path fill-rule="evenodd" clip-rule="evenodd" d="M68.0678 62.5267L75.8109 59.7748L55 48.3333L61.0671 71.294L65.6105 64.4466L71.0501 71.4089L73.5074 69.4891L68.0678 62.5267V62.5267Z" fill="black"/>
</g>
<g filter="url(#filter4_d_7592_12469)">
<path fill-rule="evenodd" clip-rule="evenodd" d="M79.8665 60.1025L70.8051 63.3229L75.8472 69.7764L70.7632 73.7485L65.7211 67.2949L60.4042 75.3081L52.3955 44.9993L79.8665 60.1025ZM65.6108 64.4466L71.0504 71.409L73.5077 69.4891L68.0681 62.5268L75.8113 59.7749L55.0004 48.3333L61.0674 71.294L65.6108 64.4466Z" fill="white" fill-opacity="0.8"/>
</g>
<g filter="url(#filter5_d_7592_12469)">
<path fill-rule="evenodd" clip-rule="evenodd" d="M66.6663 206.667V191.667H71.6663L64.9997 183.333L58.333 191.667H63.333V206.667H58.333L64.9997 215L71.6663 206.667H66.6663V206.667Z" fill="black"/>
<path d="M58.333 192.167H62.833V206.167H58.333H57.2927L57.9426 206.979L64.6092 215.312L64.9997 215.8L65.3901 215.312L72.0568 206.979L72.7067 206.167H71.6663H67.1663V192.167H71.6663H72.7067L72.0568 191.354L65.3901 183.021L64.9997 182.533L64.6092 183.021L57.9426 191.354L57.2927 192.167H58.333Z" stroke="white" stroke-opacity="0.8"/>
</g>
<g filter="url(#filter6_d_7592_12469)">
<mask id="path-10-outside-2_7592_12469" maskUnits="userSpaceOnUse" x="260.667" y="115.667" width="29" height="29" fill="black">
<rect fill="white" x="260.667" y="115.667" width="29" height="29"/>
<path fill-rule="evenodd" clip-rule="evenodd" d="M280.795 138.151C279.16 139.315 277.16 140 275 140C269.477 140 265 135.523 265 130C265 127.84 265.685 125.841 266.849 124.206L280.795 138.151ZM283.152 135.794C284.316 134.16 285 132.16 285 130C285 124.477 280.523 120 275 120C272.841 120 270.841 120.685 269.206 121.849L283.152 135.794ZM275 143.333C282.364 143.333 288.334 137.364 288.334 130C288.334 122.636 282.364 116.667 275 116.667C267.637 116.667 261.667 122.636 261.667 130C261.667 137.364 267.637 143.333 275 143.333Z"/>
</mask>
<path fill-rule="evenodd" clip-rule="evenodd" d="M280.795 138.151C279.16 139.315 277.16 140 275 140C269.477 140 265 135.523 265 130C265 127.84 265.685 125.841 266.849 124.206L280.795 138.151ZM283.152 135.794C284.316 134.16 285 132.16 285 130C285 124.477 280.523 120 275 120C272.841 120 270.841 120.685 269.206 121.849L283.152 135.794ZM275 143.333C282.364 143.333 288.334 137.364 288.334 130C288.334 122.636 282.364 116.667 275 116.667C267.637 116.667 261.667 122.636 261.667 130C261.667 137.364 267.637 143.333 275 143.333Z" fill="black"/>
<path d="M266.849 124.206L267.556 123.499L266.72 122.663L266.035 123.626L266.849 124.206ZM269.206 121.849L268.626 121.034L267.663 121.72L268.499 122.556L269.206 121.849ZM280.214 137.337C278.744 138.384 276.945 139 275 139V141C277.375 141 279.576 140.247 281.375 138.966L280.214 137.337ZM275 139C270.03 139 266 134.971 266 130H264C264 136.075 268.925 141 275 141V139ZM266 130C266 128.055 266.616 126.257 267.664 124.786L266.035 123.626C264.754 125.424 264 127.626 264 130H266ZM266.142 124.913L280.087 138.858L281.502 137.444L267.556 123.499L266.142 124.913ZM283.966 136.374C285.247 134.576 286 132.374 286 130H284C284 131.945 283.384 133.743 282.337 135.214L283.966 136.374ZM286 130C286 123.925 281.075 119 275 119V121C279.971 121 284 125.03 284 130H286ZM275 119C272.626 119 270.425 119.754 268.626 121.034L269.786 122.663C271.257 121.616 273.055 121 275 121V119ZM268.499 122.556L282.444 136.501L283.859 135.087L269.913 121.142L268.499 122.556ZM275 144.333C282.916 144.333 289.334 137.916 289.334 130H287.334C287.334 136.812 281.812 142.333 275 142.333V144.333ZM289.334 130C289.334 122.084 282.916 115.667 275 115.667V117.667C281.812 117.667 287.334 123.189 287.334 130H289.334ZM275 115.667C267.084 115.667 260.667 122.084 260.667 130H262.667C262.667 123.189 268.189 117.667 275 117.667V115.667ZM260.667 130C260.667 137.916 267.084 144.333 275 144.333V142.333C268.189 142.333 262.667 136.812 262.667 130H260.667Z" fill="white" fill-opacity="0.8" mask="url(#path-10-outside-2_7592_12469)"/>
</g>
<g filter="url(#filter7_d_7592_12469)">
<mask id="path-12-outside-3_7592_12469" maskUnits="userSpaceOnUse" x="120.667" y="115.667" width="30" height="30" fill="black">
<rect fill="white" x="120.667" y="115.667" width="30" height="30"/>
<path fill-rule="evenodd" clip-rule="evenodd" d="M133.334 116.667C139.777 116.667 145 121.89 145 128.333C145 130.947 144.141 133.361 142.689 135.306L148.334 140.951L145.951 143.333L140.306 137.688C138.361 139.14 135.948 140 133.334 140C126.89 140 121.667 134.777 121.667 128.333C121.667 121.89 126.89 116.667 133.334 116.667Z"/>
</mask>
<path fill-rule="evenodd" clip-rule="evenodd" d="M133.334 116.667C139.777 116.667 145 121.89 145 128.333C145 130.947 144.141 133.361 142.689 135.306L148.334 140.951L145.951 143.333L140.306 137.688C138.361 139.14 135.948 140 133.334 140C126.89 140 121.667 134.777 121.667 128.333C121.667 121.89 126.89 116.667 133.334 116.667Z" fill="black"/>
<path d="M142.689 135.306L141.887 134.708L141.37 135.401L141.981 136.013L142.689 135.306ZM148.334 140.951L149.041 141.658L149.748 140.951L149.041 140.244L148.334 140.951ZM145.951 143.333L145.244 144.041L145.951 144.748L146.658 144.041L145.951 143.333ZM140.306 137.688L141.013 136.981L140.401 136.369L139.708 136.887L140.306 137.688ZM146 128.333C146 121.338 140.329 115.667 133.334 115.667V117.667C139.225 117.667 144 122.442 144 128.333H146ZM143.49 135.904C145.067 133.792 146 131.17 146 128.333H144C144 130.725 143.215 132.929 141.887 134.708L143.49 135.904ZM141.981 136.013L147.627 141.658L149.041 140.244L143.396 134.599L141.981 136.013ZM147.627 140.244L145.244 142.626L146.658 144.041L149.041 141.658L147.627 140.244ZM146.658 142.626L141.013 136.981L139.599 138.395L145.244 144.041L146.658 142.626ZM133.334 141C136.171 141 138.792 140.066 140.904 138.49L139.708 136.887C137.93 138.215 135.725 139 133.334 139V141ZM120.667 128.333C120.667 135.329 126.338 141 133.334 141V139C127.443 139 122.667 134.224 122.667 128.333H120.667ZM133.334 115.667C126.338 115.667 120.667 121.338 120.667 128.333H122.667C122.667 122.442 127.443 117.667 133.334 117.667V115.667Z" fill="white" fill-opacity="0.8" mask="url(#path-12-outside-3_7592_12469)"/>
</g>
<path fill-rule="evenodd" clip-rule="evenodd" d="M133.351 136.667C137.944 136.667 141.667 132.944 141.667 128.351C141.667 123.759 137.944 120.036 133.351 120.036C128.759 120.036 125.036 123.759 125.036 128.351C125.036 132.944 128.759 136.667 133.351 136.667ZM131.667 123.333H135V126.667H138.333V130H135V133.333H131.667V130H128.333V126.667H131.667V123.333Z" fill="white"/>
<g filter="url(#filter8_d_7592_12469)">
<mask id="path-15-outside-4_7592_12469" maskUnits="userSpaceOnUse" x="190.667" y="115.667" width="30" height="30" fill="black">
<rect fill="white" x="190.667" y="115.667" width="30" height="30"/>
<path fill-rule="evenodd" clip-rule="evenodd" d="M203.334 116.667C209.777 116.667 215 121.89 215 128.333C215 130.947 214.141 133.361 212.689 135.306L218.334 140.951L215.951 143.333L210.306 137.688C208.361 139.14 205.948 140 203.334 140C196.89 140 191.667 134.777 191.667 128.333C191.667 121.89 196.89 116.667 203.334 116.667Z"/>
</mask>
<path fill-rule="evenodd" clip-rule="evenodd" d="M203.334 116.667C209.777 116.667 215 121.89 215 128.333C215 130.947 214.141 133.361 212.689 135.306L218.334 140.951L215.951 143.333L210.306 137.688C208.361 139.14 205.948 140 203.334 140C196.89 140 191.667 134.777 191.667 128.333C191.667 121.89 196.89 116.667 203.334 116.667Z" fill="black"/>
<path d="M212.689 135.306L211.887 134.708L211.37 135.401L211.981 136.013L212.689 135.306ZM218.334 140.951L219.041 141.658L219.748 140.951L219.041 140.244L218.334 140.951ZM215.951 143.333L215.244 144.041L215.951 144.748L216.658 144.041L215.951 143.333ZM210.306 137.688L211.013 136.981L210.401 136.369L209.708 136.887L210.306 137.688ZM216 128.333C216 121.338 210.329 115.667 203.334 115.667V117.667C209.225 117.667 214 122.442 214 128.333H216ZM213.49 135.904C215.067 133.792 216 131.17 216 128.333H214C214 130.725 213.215 132.929 211.887 134.708L213.49 135.904ZM211.981 136.013L217.627 141.658L219.041 140.244L213.396 134.599L211.981 136.013ZM217.627 140.244L215.244 142.626L216.658 144.041L219.041 141.658L217.627 140.244ZM216.658 142.626L211.013 136.981L209.599 138.395L215.244 144.041L216.658 142.626ZM203.334 141C206.171 141 208.792 140.066 210.904 138.49L209.708 136.887C207.93 138.215 205.725 139 203.334 139V141ZM190.667 128.333C190.667 135.329 196.338 141 203.334 141V139C197.443 139 192.667 134.224 192.667 128.333H190.667ZM203.334 115.667C196.338 115.667 190.667 121.338 190.667 128.333H192.667C192.667 122.442 197.443 117.667 203.334 117.667V115.667Z" fill="white" fill-opacity="0.8" mask="url(#path-15-outside-4_7592_12469)"/>
</g>
<path fill-rule="evenodd" clip-rule="evenodd" d="M211.667 128.351C211.667 132.944 207.944 136.667 203.351 136.667C198.759 136.667 195.036 132.944 195.036 128.351C195.036 123.759 198.759 120.036 203.351 120.036C207.944 120.036 211.667 123.759 211.667 128.351ZM208.333 130V126.667H198.333V130H208.333Z" fill="white"/>
<g filter="url(#filter9_d_7592_12469)">
<path fill-rule="evenodd" clip-rule="evenodd" d="M126.666 201.667H141.666V206.667L150 200L141.666 193.333V198.333H126.666V193.333L118.333 200L126.666 206.667V201.667V201.667Z" fill="black"/>
<path d="M141.166 193.333V197.833H127.166V193.333V192.293L126.354 192.943L118.021 199.609L117.533 200L118.021 200.39L126.354 207.057L127.166 207.707V206.667V202.167H141.166V206.667V207.707L141.979 207.057L150.312 200.39L150.8 200L150.312 199.609L141.979 192.943L141.166 192.293V193.333Z" stroke="white" stroke-opacity="0.8"/>
</g>
<g filter="url(#filter10_d_7592_12469)">
<mask id="path-20-outside-5_7592_12469" maskUnits="userSpaceOnUse" x="192.333" y="44" width="26" height="31" fill="black">
<rect fill="white" x="192.333" y="44" width="26" height="31"/>
<path fill-rule="evenodd" clip-rule="evenodd" d="M199.726 61.6667L198.248 59.4089C197.239 57.8672 195.09 57.3048 193.446 58.1499L193.829 57.953C193.421 58.1628 193.225 58.6856 193.393 59.1202L195.439 64.4124C195.763 65.2513 196.591 66.4378 197.277 67.0339C197.277 67.0339 201.392 70.4398 201.392 71.7167V73.3333H208.059L209.726 70L211.392 73.3333H213.059V71.7167C213.059 70.4398 215.574 66.4178 215.574 66.4178C216.037 65.636 216.422 64.2587 216.422 63.3443V56.6197C216.392 55.1308 215.127 53.9242 213.565 53.9242C212.784 53.9242 212.151 54.5275 212.151 55.2724V55.811C212.151 54.3221 210.886 53.1155 209.324 53.1155C208.543 53.1155 207.91 53.7188 207.91 54.4636V55.0022C207.91 53.5134 206.644 52.3068 205.083 52.3068C204.302 52.3068 203.669 52.9101 203.669 53.6549V54.1935C203.669 53.9543 203.643 53.7641 203.594 53.6133L203.163 46.6687C203.104 45.7296 202.313 45 201.392 45C200.465 45 199.726 45.746 199.726 46.6663V53.3333V61.6667ZM211.422 60L213.089 60V66.6667H211.422V60ZM208.089 60L209.756 60V66.6667H208.089V60ZM204.756 60L206.422 60V66.6667H204.756V60Z"/>
</mask>
<path fill-rule="evenodd" clip-rule="evenodd" d="M199.726 61.6667L198.248 59.4089C197.239 57.8672 195.09 57.3048 193.446 58.1499L193.829 57.953C193.421 58.1628 193.225 58.6856 193.393 59.1202L195.439 64.4124C195.763 65.2513 196.591 66.4378 197.277 67.0339C197.277 67.0339 201.392 70.4398 201.392 71.7167V73.3333H208.059L209.726 70L211.392 73.3333H213.059V71.7167C213.059 70.4398 215.574 66.4178 215.574 66.4178C216.037 65.636 216.422 64.2587 216.422 63.3443V56.6197C216.392 55.1308 215.127 53.9242 213.565 53.9242C212.784 53.9242 212.151 54.5275 212.151 55.2724V55.811C212.151 54.3221 210.886 53.1155 209.324 53.1155C208.543 53.1155 207.91 53.7188 207.91 54.4636V55.0022C207.91 53.5134 206.644 52.3068 205.083 52.3068C204.302 52.3068 203.669 52.9101 203.669 53.6549V54.1935C203.669 53.9543 203.643 53.7641 203.594 53.6133L203.163 46.6687C203.104 45.7296 202.313 45 201.392 45C200.465 45 199.726 45.746 199.726 46.6663V53.3333V61.6667ZM211.422 60L213.089 60V66.6667H211.422V60ZM208.089 60L209.756 60V66.6667H208.089V60ZM204.756 60L206.422 60V66.6667H204.756V60Z" fill="white"/>
<path d="M199.726 61.6667L198.889 62.2143L200.726 65.0207V61.6667H199.726ZM198.248 59.4089L199.085 58.8613L198.248 59.4089ZM193.393 59.1202L192.46 59.4808L193.393 59.1202ZM195.439 64.4124L196.371 64.0518L195.439 64.4124ZM197.277 67.0339L196.622 67.7889L196.631 67.7966L196.64 67.8042L197.277 67.0339ZM201.392 73.3333H200.392V74.3333H201.392V73.3333ZM208.059 73.3333V74.3333H208.677L208.953 73.7805L208.059 73.3333ZM209.726 70L210.62 69.5528L209.726 67.7639L208.831 69.5528L209.726 70ZM211.392 73.3333L210.498 73.7805L210.774 74.3333H211.392V73.3333ZM213.059 73.3333V74.3333H214.059V73.3333H213.059ZM215.574 66.4178L216.422 66.9479L216.428 66.9377L216.434 66.9273L215.574 66.4178ZM216.422 56.6197H217.422V56.6095L217.422 56.5994L216.422 56.6197ZM203.594 53.6133L202.596 53.6753L202.604 53.8031L202.644 53.9248L203.594 53.6133ZM203.163 46.6687L202.164 46.7307L203.163 46.6687ZM199.726 46.6663H198.726H199.726ZM213.089 60H214.089V59H213.089V60ZM213.089 66.6667V67.6667H214.089V66.6667H213.089ZM211.422 66.6667H210.422V67.6667H211.422V66.6667ZM211.422 60V59H210.422V60H211.422ZM209.756 60H210.756V59H209.756L209.756 60ZM209.756 66.6667V67.6667H210.756V66.6667H209.756ZM208.089 66.6667H207.089V67.6667H208.089V66.6667ZM208.089 60V59H207.089V60H208.089ZM206.422 60H207.422V59H206.422V60ZM206.422 66.6667V67.6667H207.422V66.6667H206.422ZM204.756 66.6667H203.756V67.6667H204.756V66.6667ZM204.756 60V59H203.756V60H204.756ZM200.562 61.119L199.085 58.8613L197.411 59.9565L198.889 62.2143L200.562 61.119ZM199.085 58.8613C197.793 56.8884 195.085 56.183 192.989 57.2606L193.903 59.0393C195.095 58.4266 196.684 58.8461 197.411 59.9565L199.085 58.8613ZM193.903 59.0393L194.286 58.8424L193.372 57.0637L192.989 57.2606L193.903 59.0393ZM193.372 57.0637C192.499 57.5122 192.112 58.5795 192.46 59.4808L194.326 58.7597C194.332 58.7754 194.333 58.7874 194.333 58.7936C194.333 58.7993 194.332 58.8016 194.332 58.8022C194.332 58.8027 194.33 58.8067 194.324 58.8134C194.318 58.8206 194.306 58.8321 194.286 58.8424L193.372 57.0637ZM192.46 59.4808L194.506 64.7729L196.371 64.0518L194.326 58.7597L192.46 59.4808ZM194.506 64.7729C194.888 65.7623 195.811 67.0847 196.622 67.7889L197.933 66.2789C197.371 65.7909 196.638 64.7403 196.371 64.0518L194.506 64.7729ZM197.277 67.0339C196.64 67.8042 196.64 67.8042 196.64 67.8041C196.64 67.8041 196.64 67.8041 196.64 67.8041C196.64 67.8042 196.64 67.8042 196.64 67.8044C196.64 67.8046 196.641 67.8051 196.642 67.8058C196.643 67.8071 196.646 67.8092 196.649 67.8121C196.656 67.818 196.667 67.8269 196.681 67.8389C196.71 67.8627 196.752 67.8985 196.807 67.9447C196.915 68.0372 197.072 68.1715 197.26 68.3369C197.637 68.6686 198.137 69.1212 198.634 69.6096C199.135 70.1024 199.613 70.6114 199.958 71.058C200.131 71.282 200.254 71.4682 200.329 71.612C200.415 71.7757 200.392 71.7969 200.392 71.7167H202.392C202.392 71.3173 202.241 70.9527 202.102 70.6858C201.952 70.3989 201.753 70.1095 201.54 69.8346C201.114 69.2834 200.563 68.7015 200.036 68.1832C199.504 67.6606 198.975 67.1819 198.581 66.8351C198.383 66.6612 198.218 66.5195 198.102 66.4207C198.044 66.3713 197.998 66.3326 197.966 66.306C197.95 66.2927 197.938 66.2823 197.929 66.2752C197.925 66.2716 197.921 66.2689 197.919 66.2669C197.918 66.2659 197.917 66.2652 197.916 66.2646C197.916 66.2643 197.916 66.2641 197.915 66.2639C197.915 66.2638 197.915 66.2637 197.915 66.2637C197.915 66.2636 197.915 66.2635 197.277 67.0339ZM200.392 71.7167V73.3333H202.392V71.7167H200.392ZM201.392 74.3333H208.059V72.3333H201.392V74.3333ZM208.953 73.7805L210.62 70.4472L208.831 69.5528L207.164 72.8861L208.953 73.7805ZM208.831 70.4472L210.498 73.7805L212.287 72.8861L210.62 69.5528L208.831 70.4472ZM211.392 74.3333H213.059V72.3333H211.392V74.3333ZM214.059 73.3333V71.7167H212.059V73.3333H214.059ZM214.059 71.7167C214.059 71.7172 214.059 71.7101 214.061 71.6942C214.062 71.6784 214.065 71.6567 214.07 71.6286C214.081 71.5714 214.099 71.4977 214.126 71.4064C214.18 71.2224 214.263 70.9978 214.373 70.74C214.591 70.2247 214.889 69.6333 215.196 69.0633C215.502 68.4964 215.809 67.9662 216.041 67.5768C216.156 67.3824 216.252 67.224 216.319 67.1147C216.352 67.0601 216.378 67.0178 216.396 66.9894C216.405 66.9752 216.411 66.9646 216.416 66.9576C216.418 66.9541 216.419 66.9515 216.42 66.9499C216.421 66.9491 216.421 66.9485 216.421 66.9482C216.422 66.948 216.422 66.9479 216.422 66.9479C216.422 66.9479 216.422 66.9479 216.422 66.9479C216.422 66.9479 216.422 66.9479 215.574 66.4178C214.726 65.8876 214.726 65.8877 214.726 65.8878C214.726 65.8879 214.726 65.888 214.725 65.8881C214.725 65.8883 214.725 65.8885 214.725 65.8888C214.725 65.8895 214.724 65.8904 214.723 65.8915C214.722 65.8938 214.72 65.897 214.717 65.9012C214.712 65.9095 214.705 65.9215 214.695 65.9371C214.676 65.9683 214.648 66.0137 214.612 66.0715C214.542 66.1871 214.441 66.3529 214.321 66.5556C214.081 66.9602 213.759 67.5153 213.436 68.1135C213.115 68.7086 212.784 69.3621 212.531 69.96C212.299 70.5068 212.059 71.1701 212.059 71.7167H214.059ZM216.434 66.9273C216.725 66.4369 216.966 65.808 217.135 65.1981C217.304 64.5888 217.422 63.9215 217.422 63.3443H215.422C215.422 63.6816 215.348 64.1601 215.208 64.6635C215.069 65.1663 214.886 65.6169 214.713 65.9083L216.434 66.9273ZM217.422 63.3443V56.6197H215.422V63.3443H217.422ZM217.422 56.5994C217.38 54.5341 215.638 52.9242 213.565 52.9242V54.9242C214.615 54.9242 215.404 55.7275 215.423 56.6399L217.422 56.5994ZM213.565 52.9242C212.277 52.9242 211.151 53.9308 211.151 55.2724H213.151C213.151 55.1242 213.291 54.9242 213.565 54.9242V52.9242ZM211.151 55.2724V55.811H213.151V55.2724H211.151ZM213.151 55.811C213.151 53.7254 211.392 52.1155 209.324 52.1155V54.1155C210.379 54.1155 211.151 54.9188 211.151 55.811H213.151ZM209.324 52.1155C208.036 52.1155 206.91 53.1221 206.91 54.4636H208.91C208.91 54.3155 209.05 54.1155 209.324 54.1155V52.1155ZM206.91 54.4636V55.0022H208.91V54.4636H206.91ZM208.91 55.0022C208.91 52.9167 207.151 51.3068 205.083 51.3068V53.3068C206.138 53.3068 206.91 54.1101 206.91 55.0022H208.91ZM205.083 51.3068C203.795 51.3068 202.669 52.3134 202.669 53.6549H204.669C204.669 53.5068 204.808 53.3068 205.083 53.3068V51.3068ZM202.669 53.6549V54.1935H204.669V53.6549H202.669ZM204.669 54.1935C204.669 53.8905 204.637 53.5865 204.544 53.3018L202.644 53.9248C202.649 53.9416 202.669 54.018 202.669 54.1935H204.669ZM204.592 53.5513L204.161 46.6067L202.164 46.7307L202.596 53.6753L204.592 53.5513ZM204.161 46.6067C204.069 45.1369 202.837 44 201.392 44V46C201.788 46 202.139 46.3223 202.164 46.7307L204.161 46.6067ZM201.392 44C199.911 44 198.726 45.1961 198.726 46.6663H200.726C200.726 46.296 201.02 46 201.392 46V44ZM198.726 46.6663V53.3333H200.726V46.6663H198.726ZM198.726 53.3333V61.6667H200.726V53.3333H198.726ZM211.422 61H213.089V59H211.422V61ZM212.089 60V66.6667H214.089V60H212.089ZM213.089 65.6667H211.422V67.6667H213.089V65.6667ZM212.422 66.6667V60H210.422V66.6667H212.422ZM208.089 61H209.756L209.756 59H208.089V61ZM208.756 60V66.6667H210.756V60H208.756ZM209.756 65.6667H208.089V67.6667H209.756V65.6667ZM209.089 66.6667V60H207.089V66.6667H209.089ZM204.756 61H206.422V59H204.756V61ZM205.422 60V66.6667H207.422V60H205.422ZM206.422 65.6667H204.756V67.6667H206.422V65.6667ZM205.756 66.6667V60H203.756V66.6667H205.756Z" fill="black" fill-opacity="0.8" mask="url(#path-20-outside-5_7592_12469)"/>
</g>
<g filter="url(#filter11_d_7592_12469)">
<mask id="path-22-outside-6_7592_12469" maskUnits="userSpaceOnUse" x="54" y="115.667" width="21" height="29" fill="black">
<rect fill="white" x="54" y="115.667" width="21" height="29"/>
<path fill-rule="evenodd" clip-rule="evenodd" d="M66.6667 128.333L71.6667 123.333V120H56.6667V123.333L61.6667 128.333V130L56.6667 135V140H71.6667V135L66.6667 130V128.333ZM55 116.667H73.3333V118.333H55V116.667ZM55 141.667H73.3333V143.333H55V141.667ZM58.3333 136.667H60V138.333H58.3333V136.667ZM61.6667 136.667H63.3333V138.333H61.6667V136.667ZM60 135H61.6667V136.667H60V135ZM63.3333 135H65V136.667H63.3333V135ZM66.6667 135H68.3333V136.667H66.6667V135ZM65 133.333H66.6667V135H65V133.333ZM61.6667 133.333H63.3333V135H61.6667V133.333ZM63.3333 131.667H65V133.333H63.3333V131.667ZM63.3333 128.333H65V130H63.3333V128.333ZM65 125H66.6667V126.667H65V125ZM63.3333 123.333H65V125H63.3333V123.333ZM60 123.333H61.6667V125H60V123.333ZM66.6667 123.333H68.3333V125H66.6667V123.333ZM61.6667 125H63.3333V126.667H61.6667V125ZM65 136.667H66.6667V138.333H65V136.667ZM68.3333 136.667H70V138.333H68.3333V136.667Z"/>
</mask>
<path fill-rule="evenodd" clip-rule="evenodd" d="M66.6667 128.333L71.6667 123.333V120H56.6667V123.333L61.6667 128.333V130L56.6667 135V140H71.6667V135L66.6667 130V128.333ZM55 116.667H73.3333V118.333H55V116.667ZM55 141.667H73.3333V143.333H55V141.667ZM58.3333 136.667H60V138.333H58.3333V136.667ZM61.6667 136.667H63.3333V138.333H61.6667V136.667ZM60 135H61.6667V136.667H60V135ZM63.3333 135H65V136.667H63.3333V135ZM66.6667 135H68.3333V136.667H66.6667V135ZM65 133.333H66.6667V135H65V133.333ZM61.6667 133.333H63.3333V135H61.6667V133.333ZM63.3333 131.667H65V133.333H63.3333V131.667ZM63.3333 128.333H65V130H63.3333V128.333ZM65 125H66.6667V126.667H65V125ZM63.3333 123.333H65V125H63.3333V123.333ZM60 123.333H61.6667V125H60V123.333ZM66.6667 123.333H68.3333V125H66.6667V123.333ZM61.6667 125H63.3333V126.667H61.6667V125ZM65 136.667H66.6667V138.333H65V136.667ZM68.3333 136.667H70V138.333H68.3333V136.667Z" fill="white"/>
<path d="M71.6667 123.333L72.3738 124.041L72.6667 123.748V123.333H71.6667ZM71.6667 120H72.6667V119H71.6667V120ZM56.6667 120V119H55.6667V120H56.6667ZM56.6667 123.333H55.6667V123.748L55.9596 124.041L56.6667 123.333ZM61.6667 128.333H62.6667V127.919L62.3738 127.626L61.6667 128.333ZM61.6667 130L62.3738 130.707L62.6667 130.414V130H61.6667ZM56.6667 135L55.9596 134.293L55.6667 134.586V135H56.6667ZM56.6667 140H55.6667V141H56.6667V140ZM71.6667 140V141H72.6667V140H71.6667ZM71.6667 135H72.6667V134.586L72.3738 134.293L71.6667 135ZM66.6667 130H65.6667V130.414L65.9596 130.707L66.6667 130ZM66.6667 128.333L65.9596 127.626L65.6667 127.919V128.333H66.6667ZM73.3333 116.667H74.3333V115.667H73.3333V116.667ZM73.3333 118.333V119.333H74.3333V118.333H73.3333ZM55 118.333H54V119.333H55V118.333ZM55 116.667V115.667H54V116.667H55ZM73.3333 141.667H74.3333V140.667H73.3333V141.667ZM73.3333 143.333V144.333H74.3333V143.333H73.3333ZM55 143.333H54V144.333H55V143.333ZM55 141.667V140.667H54V141.667H55ZM58.3333 136.667V135.667H57.3333V136.667H58.3333ZM60 138.333V139.333H61V138.333H60ZM58.3333 138.333H57.3333V139.333H58.3333V138.333ZM63.3333 138.333V139.333H64.3333V138.333H63.3333ZM61.6667 138.333H60.6667V139.333H61.6667V138.333ZM60 135V134H59V135H60ZM68.3333 135H69.3333V134H68.3333V135ZM66.6667 133.333H67.6667V132.333H66.6667V133.333ZM61.6667 133.333V132.333H60.6667V133.333H61.6667ZM63.3333 131.667V130.667H62.3333V131.667H63.3333ZM65 131.667H66V130.667H65V131.667ZM63.3333 128.333V127.333H62.3333V128.333H63.3333ZM65 128.333H66V127.333H65V128.333ZM65 130V131H66V130H65ZM63.3333 130H62.3333V131H63.3333V130ZM66.6667 126.667V127.667H67.6667V126.667H66.6667ZM65 126.667H64V127.667H65V126.667ZM63.3333 123.333V122.333H62.3333V123.333H63.3333ZM65 123.333H66V122.333H65V123.333ZM60 123.333V122.333H59V123.333H60ZM61.6667 123.333H62.6667V122.333H61.6667V123.333ZM60 125H59V126H60V125ZM66.6667 123.333V122.333H65.6667V123.333H66.6667ZM68.3333 123.333H69.3333V122.333H68.3333V123.333ZM68.3333 125V126H69.3333V125H68.3333ZM63.3333 126.667V127.667H64.3333V126.667H63.3333ZM61.6667 126.667H60.6667V127.667H61.6667V126.667ZM66.6667 138.333V139.333H67.6667V138.333H66.6667ZM65 138.333H64V139.333H65V138.333ZM70 136.667H71V135.667H70V136.667ZM70 138.333V139.333H71V138.333H70ZM68.3333 138.333H67.3333V139.333H68.3333V138.333ZM67.3738 129.041L72.3738 124.041L70.9596 122.626L65.9596 127.626L67.3738 129.041ZM72.6667 123.333V120H70.6667V123.333H72.6667ZM71.6667 119H56.6667V121H71.6667V119ZM55.6667 120V123.333H57.6667V120H55.6667ZM55.9596 124.041L60.9596 129.041L62.3738 127.626L57.3738 122.626L55.9596 124.041ZM60.6667 128.333V130H62.6667V128.333H60.6667ZM60.9596 129.293L55.9596 134.293L57.3738 135.707L62.3738 130.707L60.9596 129.293ZM55.6667 135V140H57.6667V135H55.6667ZM56.6667 141H71.6667V139H56.6667V141ZM72.6667 140V135H70.6667V140H72.6667ZM72.3738 134.293L67.3738 129.293L65.9596 130.707L70.9596 135.707L72.3738 134.293ZM67.6667 130V128.333H65.6667V130H67.6667ZM55 117.667H73.3333V115.667H55V117.667ZM72.3333 116.667V118.333H74.3333V116.667H72.3333ZM73.3333 117.333H55V119.333H73.3333V117.333ZM56 118.333V116.667H54V118.333H56ZM55 142.667H73.3333V140.667H55V142.667ZM72.3333 141.667V143.333H74.3333V141.667H72.3333ZM73.3333 142.333H55V144.333H73.3333V142.333ZM56 143.333V141.667H54V143.333H56ZM58.3333 137.667H60V135.667H58.3333V137.667ZM59 136.667V138.333H61V136.667H59ZM60 137.333H58.3333V139.333H60V137.333ZM59.3333 138.333V136.667H57.3333V138.333H59.3333ZM61.6667 137.667H63.3333V135.667H61.6667V137.667ZM62.3333 136.667V138.333H64.3333V136.667H62.3333ZM63.3333 137.333H61.6667V139.333H63.3333V137.333ZM62.6667 138.333V136.667H60.6667V138.333H62.6667ZM60 136H61.6667V134H60V136ZM60.6667 135V136.667H62.6667V135H60.6667ZM61.6667 135.667H60V137.667H61.6667V135.667ZM61 136.667V135H59V136.667H61ZM63.3333 136H65V134H63.3333V136ZM64 135V136.667H66V135H64ZM65 135.667H63.3333V137.667H65V135.667ZM64.3333 136.667V135H62.3333V136.667H64.3333ZM66.6667 136H68.3333V134H66.6667V136ZM67.3333 135V136.667H69.3333V135H67.3333ZM68.3333 135.667H66.6667V137.667H68.3333V135.667ZM67.6667 136.667V135H65.6667V136.667H67.6667ZM65 134.333H66.6667V132.333H65V134.333ZM65.6667 133.333V135H67.6667V133.333H65.6667ZM66.6667 134H65V136H66.6667V134ZM66 135V133.333H64V135H66ZM61.6667 134.333H63.3333V132.333H61.6667V134.333ZM62.3333 133.333V135H64.3333V133.333H62.3333ZM63.3333 134H61.6667V136H63.3333V134ZM62.6667 135V133.333H60.6667V135H62.6667ZM63.3333 132.667H65V130.667H63.3333V132.667ZM64 131.667V133.333H66V131.667H64ZM65 132.333H63.3333V134.333H65V132.333ZM64.3333 133.333V131.667H62.3333V133.333H64.3333ZM63.3333 129.333H65V127.333H63.3333V129.333ZM64 128.333V130H66V128.333H64ZM65 129H63.3333V131H65V129ZM64.3333 130V128.333H62.3333V130H64.3333ZM65 126H66.6667V124H65V126ZM65.6667 125V126.667H67.6667V125H65.6667ZM66.6667 125.667H65V127.667H66.6667V125.667ZM66 126.667V125H64V126.667H66ZM63.3333 124.333H65V122.333H63.3333V124.333ZM64 123.333V125H66V123.333H64ZM65 124H63.3333V126H65V124ZM64.3333 125V123.333H62.3333V125H64.3333ZM60 124.333H61.6667V122.333H60V124.333ZM60.6667 123.333V125H62.6667V123.333H60.6667ZM61.6667 124H60V126H61.6667V124ZM61 125V123.333H59V125H61ZM66.6667 124.333H68.3333V122.333H66.6667V124.333ZM67.3333 123.333V125H69.3333V123.333H67.3333ZM68.3333 124H66.6667V126H68.3333V124ZM67.6667 125V123.333H65.6667V125H67.6667ZM61.6667 126H63.3333V124H61.6667V126ZM62.3333 125V126.667H64.3333V125H62.3333ZM63.3333 125.667H61.6667V127.667H63.3333V125.667ZM62.6667 126.667V125H60.6667V126.667H62.6667ZM65 137.667H66.6667V135.667H65V137.667ZM65.6667 136.667V138.333H67.6667V136.667H65.6667ZM66.6667 137.333H65V139.333H66.6667V137.333ZM66 138.333V136.667H64V138.333H66ZM68.3333 137.667H70V135.667H68.3333V137.667ZM69 136.667V138.333H71V136.667H69ZM70 137.333H68.3333V139.333H70V137.333ZM69.3333 138.333V136.667H67.3333V138.333H69.3333Z" fill="black" fill-opacity="0.8" mask="url(#path-22-outside-6_7592_12469)"/>
</g>
<g filter="url(#filter12_d_7592_12469)">
<path fill-rule="evenodd" clip-rule="evenodd" d="M275.298 187.708L258.333 180L262.345 198.197L267.248 191.01L275.298 187.708Z" fill="black"/>
<path d="M275.488 188.171L276.558 187.732L275.505 187.253L258.54 179.545L257.629 179.131L257.845 180.108L261.857 198.304L262.106 199.435L262.759 198.479L267.577 191.415L275.488 188.171Z" stroke="white" stroke-opacity="0.8"/>
</g>
<g filter="url(#filter13_d_7592_12469)">
<path fill-rule="evenodd" clip-rule="evenodd" d="M279.311 219.238C286.675 219.238 292.644 213.269 292.644 205.905C292.644 198.541 286.675 192.572 279.311 192.572C271.947 192.572 265.978 198.541 265.978 205.905C265.978 213.269 271.947 219.238 279.311 219.238Z" fill="url(#paint0_linear_7592_12469)"/>
<path d="M279.311 219.738C286.951 219.738 293.144 213.545 293.144 205.905C293.144 198.265 286.951 192.072 279.311 192.072C271.671 192.072 265.478 198.265 265.478 205.905C265.478 213.545 271.671 219.738 279.311 219.738Z" stroke="white" stroke-opacity="0.8"/>
</g>
<path fill-rule="evenodd" clip-rule="evenodd" d="M280.978 204.238V197.572H277.644V204.238H270.978V207.572H277.644V214.238H280.978V207.572H287.644V204.238H280.978V204.238Z" fill="white"/>
<g filter="url(#filter14_d_7592_12469)">
<path fill-rule="evenodd" clip-rule="evenodd" d="M204.321 188.47L187.356 180.762L191.369 198.958L196.272 191.771L204.321 188.47Z" fill="black"/>
<path d="M204.511 188.932L205.582 188.493L204.528 188.015L187.563 180.307L186.653 179.893L186.868 180.869L190.881 199.066L191.13 200.196L191.782 199.24L196.6 192.177L204.511 188.932Z" stroke="white" stroke-opacity="0.8"/>
</g>
<g filter="url(#filter15_d_7592_12469)">
<path fill-rule="evenodd" clip-rule="evenodd" d="M208.333 220C215.697 220 221.667 214.03 221.667 206.667C221.667 199.303 215.697 193.333 208.333 193.333C200.97 193.333 195 199.303 195 206.667C195 214.03 200.97 220 208.333 220Z" fill="url(#paint1_linear_7592_12469)"/>
<path d="M208.333 220.5C215.973 220.5 222.167 214.307 222.167 206.667C222.167 199.027 215.973 192.833 208.333 192.833C200.693 192.833 194.5 199.027 194.5 206.667C194.5 214.307 200.693 220.5 208.333 220.5Z" stroke="white" stroke-opacity="0.8"/>
</g>
<path fill-rule="evenodd" clip-rule="evenodd" d="M221.667 206.667H208.333V193.333C215.697 193.333 221.667 199.303 221.667 206.667ZM208.333 220V206.667H195C195 214.03 200.97 220 208.333 220Z" fill="url(#paint2_linear_7592_12469)"/>
<defs>
<filter id="filter0_d_7592_12469" x="259.333" y="45.3333" width="29.667" height="31.3333" filterUnits="userSpaceOnUse" color-interpolation-filters="sRGB">
<feFlood flood-opacity="0" result="BackgroundImageFix"/>
<feColorMatrix in="SourceAlpha" type="matrix" values="0 0 0 0 0 0 0 0 0 0 0 0 0 0 0 0 0 0 127 0" result="hardAlpha"/>
<feOffset dy="1"/>
<feGaussianBlur stdDeviation="1.5"/>
<feColorMatrix type="matrix" values="0 0 0 0 0 0 0 0 0 0 0 0 0 0 0 0 0 0 0.2 0"/>
<feBlend mode="normal" in2="BackgroundImageFix" result="effect1_dropShadow_7592_12469"/>
<feBlend mode="normal" in="SourceGraphic" in2="effect1_dropShadow_7592_12469" result="shape"/>
</filter>
<filter id="filter1_d_7592_12469" x="117.729" y="42.9993" width="33.4707" height="36.3088" filterUnits="userSpaceOnUse" color-interpolation-filters="sRGB">
<feFlood flood-opacity="0" result="BackgroundImageFix"/>
<feColorMatrix in="SourceAlpha" type="matrix" values="0 0 0 0 0 0 0 0 0 0 0 0 0 0 0 0 0 0 127 0" result="hardAlpha"/>
<feOffset dy="1"/>
<feGaussianBlur stdDeviation="1.5"/>
<feColorMatrix type="matrix" values="0 0 0 0 0 0 0 0 0 0 0 0 0 0 0 0 0 0 0.2 0"/>
<feBlend mode="normal" in2="BackgroundImageFix" result="effect1_dropShadow_7592_12469"/>
<feBlend mode="normal" in="SourceGraphic" in2="effect1_dropShadow_7592_12469" result="shape"/>
</filter>
<filter id="filter2_d_7592_12469" x="120.333" y="46.3333" width="26.8105" height="29.0757" filterUnits="userSpaceOnUse" color-interpolation-filters="sRGB">
<feFlood flood-opacity="0" result="BackgroundImageFix"/>
<feColorMatrix in="SourceAlpha" type="matrix" values="0 0 0 0 0 0 0 0 0 0 0 0 0 0 0 0 0 0 127 0" result="hardAlpha"/>
<feOffset dy="1"/>
<feGaussianBlur stdDeviation="1.5"/>
<feColorMatrix type="matrix" values="0 0 0 0 0 0 0 0 0 0 0 0 0 0 0 0 0 0 0.2 0"/>
<feBlend mode="normal" in2="BackgroundImageFix" result="effect1_dropShadow_7592_12469"/>
<feBlend mode="normal" in="SourceGraphic" in2="effect1_dropShadow_7592_12469" result="shape"/>
</filter>
<filter id="filter3_d_7592_12469" x="52" y="46.3333" width="26.8105" height="29.0757" filterUnits="userSpaceOnUse" color-interpolation-filters="sRGB">
<feFlood flood-opacity="0" result="BackgroundImageFix"/>
<feColorMatrix in="SourceAlpha" type="matrix" values="0 0 0 0 0 0 0 0 0 0 0 0 0 0 0 0 0 0 127 0" result="hardAlpha"/>
<feOffset dy="1"/>
<feGaussianBlur stdDeviation="1.5"/>
<feColorMatrix type="matrix" values="0 0 0 0 0 0 0 0 0 0 0 0 0 0 0 0 0 0 0.25 0"/>
<feBlend mode="normal" in2="BackgroundImageFix" result="effect1_dropShadow_7592_12469"/>
<feBlend mode="normal" in="SourceGraphic" in2="effect1_dropShadow_7592_12469" result="shape"/>
</filter>
<filter id="filter4_d_7592_12469" x="49.3955" y="42.9993" width="33.4707" height="36.3088" filterUnits="userSpaceOnUse" color-interpolation-filters="sRGB">
<feFlood flood-opacity="0" result="BackgroundImageFix"/>
<feColorMatrix in="SourceAlpha" type="matrix" values="0 0 0 0 0 0 0 0 0 0 0 0 0 0 0 0 0 0 127 0" result="hardAlpha"/>
<feOffset dy="1"/>
<feGaussianBlur stdDeviation="1.5"/>
<feColorMatrix type="matrix" values="0 0 0 0 0 0 0 0 0 0 0 0 0 0 0 0 0 0 0.25 0"/>
<feBlend mode="normal" in2="BackgroundImageFix" result="effect1_dropShadow_7592_12469"/>
<feBlend mode="normal" in="SourceGraphic" in2="effect1_dropShadow_7592_12469" result="shape"/>
</filter>
<filter id="filter5_d_7592_12469" x="53.252" y="179.732" width="23.4951" height="40.8682" filterUnits="userSpaceOnUse" color-interpolation-filters="sRGB">
<feFlood flood-opacity="0" result="BackgroundImageFix"/>
<feColorMatrix in="SourceAlpha" type="matrix" values="0 0 0 0 0 0 0 0 0 0 0 0 0 0 0 0 0 0 127 0" result="hardAlpha"/>
<feOffset dy="1"/>
<feGaussianBlur stdDeviation="1.5"/>
<feColorMatrix type="matrix" values="0 0 0 0 0 0 0 0 0 0 0 0 0 0 0 0 0 0 0.25 0"/>
<feBlend mode="normal" in2="BackgroundImageFix" result="effect1_dropShadow_7592_12469"/>
<feBlend mode="normal" in="SourceGraphic" in2="effect1_dropShadow_7592_12469" result="shape"/>
</filter>
<filter id="filter6_d_7592_12469" x="257.667" y="113.667" width="34.667" height="34.6667" filterUnits="userSpaceOnUse" color-interpolation-filters="sRGB">
<feFlood flood-opacity="0" result="BackgroundImageFix"/>
<feColorMatrix in="SourceAlpha" type="matrix" values="0 0 0 0 0 0 0 0 0 0 0 0 0 0 0 0 0 0 127 0" result="hardAlpha"/>
<feOffset dy="1"/>
<feGaussianBlur stdDeviation="1.5"/>
<feColorMatrix type="matrix" values="0 0 0 0 0 0 0 0 0 0 0 0 0 0 0 0 0 0 0.25 0"/>
<feBlend mode="normal" in2="BackgroundImageFix" result="effect1_dropShadow_7592_12469"/>
<feBlend mode="normal" in="SourceGraphic" in2="effect1_dropShadow_7592_12469" result="shape"/>
</filter>
<filter id="filter7_d_7592_12469" x="117.667" y="113.667" width="35.0811" height="35.0808" filterUnits="userSpaceOnUse" color-interpolation-filters="sRGB">
<feFlood flood-opacity="0" result="BackgroundImageFix"/>
<feColorMatrix in="SourceAlpha" type="matrix" values="0 0 0 0 0 0 0 0 0 0 0 0 0 0 0 0 0 0 127 0" result="hardAlpha"/>
<feOffset dy="1"/>
<feGaussianBlur stdDeviation="1.5"/>
<feColorMatrix type="matrix" values="0 0 0 0 0 0 0 0 0 0 0 0 0 0 0 0 0 0 0.25 0"/>
<feBlend mode="normal" in2="BackgroundImageFix" result="effect1_dropShadow_7592_12469"/>
<feBlend mode="normal" in="SourceGraphic" in2="effect1_dropShadow_7592_12469" result="shape"/>
</filter>
<filter id="filter8_d_7592_12469" x="187.667" y="113.667" width="35.0811" height="35.0808" filterUnits="userSpaceOnUse" color-interpolation-filters="sRGB">
<feFlood flood-opacity="0" result="BackgroundImageFix"/>
<feColorMatrix in="SourceAlpha" type="matrix" values="0 0 0 0 0 0 0 0 0 0 0 0 0 0 0 0 0 0 127 0" result="hardAlpha"/>
<feOffset dy="1"/>
<feGaussianBlur stdDeviation="1.5"/>
<feColorMatrix type="matrix" values="0 0 0 0 0 0 0 0 0 0 0 0 0 0 0 0 0 0 0.25 0"/>
<feBlend mode="normal" in2="BackgroundImageFix" result="effect1_dropShadow_7592_12469"/>
<feBlend mode="normal" in="SourceGraphic" in2="effect1_dropShadow_7592_12469" result="shape"/>
</filter>
<filter id="filter9_d_7592_12469" x="113.732" y="189.253" width="40.8682" height="23.4946" filterUnits="userSpaceOnUse" color-interpolation-filters="sRGB">
<feFlood flood-opacity="0" result="BackgroundImageFix"/>
<feColorMatrix in="SourceAlpha" type="matrix" values="0 0 0 0 0 0 0 0 0 0 0 0 0 0 0 0 0 0 127 0" result="hardAlpha"/>
<feOffset dy="1"/>
<feGaussianBlur stdDeviation="1.5"/>
<feColorMatrix type="matrix" values="0 0 0 0 0 0 0 0 0 0 0 0 0 0 0 0 0 0 0.25 0"/>
<feBlend mode="normal" in2="BackgroundImageFix" result="effect1_dropShadow_7592_12469"/>
<feBlend mode="normal" in="SourceGraphic" in2="effect1_dropShadow_7592_12469" result="shape"/>
</filter>
<filter id="filter10_d_7592_12469" x="189.333" y="42" width="31.0898" height="36.3333" filterUnits="userSpaceOnUse" color-interpolation-filters="sRGB">
<feFlood flood-opacity="0" result="BackgroundImageFix"/>
<feColorMatrix in="SourceAlpha" type="matrix" values="0 0 0 0 0 0 0 0 0 0 0 0 0 0 0 0 0 0 127 0" result="hardAlpha"/>
<feOffset dy="1"/>
<feGaussianBlur stdDeviation="1.5"/>
<feColorMatrix type="matrix" values="0 0 0 0 0 0 0 0 0 0 0 0 0 0 0 0 0 0 0.2 0"/>
<feBlend mode="normal" in2="BackgroundImageFix" result="effect1_dropShadow_7592_12469"/>
<feBlend mode="normal" in="SourceGraphic" in2="effect1_dropShadow_7592_12469" result="shape"/>
</filter>
<filter id="filter11_d_7592_12469" x="51" y="113.667" width="26.333" height="34.6667" filterUnits="userSpaceOnUse" color-interpolation-filters="sRGB">
<feFlood flood-opacity="0" result="BackgroundImageFix"/>
<feColorMatrix in="SourceAlpha" type="matrix" values="0 0 0 0 0 0 0 0 0 0 0 0 0 0 0 0 0 0 127 0" result="hardAlpha"/>
<feOffset dy="1"/>
<feGaussianBlur stdDeviation="1.5"/>
<feColorMatrix type="matrix" values="0 0 0 0 0 0 0 0 0 0 0 0 0 0 0 0 0 0 0.2 0"/>
<feBlend mode="normal" in2="BackgroundImageFix" result="effect1_dropShadow_7592_12469"/>
<feBlend mode="normal" in="SourceGraphic" in2="effect1_dropShadow_7592_12469" result="shape"/>
</filter>
<filter id="filter12_d_7592_12469" x="253.926" y="176.262" width="26.8926" height="28.4099" filterUnits="userSpaceOnUse" color-interpolation-filters="sRGB">
<feFlood flood-opacity="0" result="BackgroundImageFix"/>
<feColorMatrix in="SourceAlpha" type="matrix" values="0 0 0 0 0 0 0 0 0 0 0 0 0 0 0 0 0 0 127 0" result="hardAlpha"/>
<feOffset dy="1"/>
<feGaussianBlur stdDeviation="1.5"/>
<feColorMatrix type="matrix" values="0 0 0 0 0 0 0 0 0 0 0 0 0 0 0 0 0 0 0.25 0"/>
<feBlend mode="normal" in2="BackgroundImageFix" result="effect1_dropShadow_7592_12469"/>
<feBlend mode="normal" in="SourceGraphic" in2="effect1_dropShadow_7592_12469" result="shape"/>
</filter>
<filter id="filter13_d_7592_12469" x="261.978" y="189.572" width="34.667" height="34.6667" filterUnits="userSpaceOnUse" color-interpolation-filters="sRGB">
<feFlood flood-opacity="0" result="BackgroundImageFix"/>
<feColorMatrix in="SourceAlpha" type="matrix" values="0 0 0 0 0 0 0 0 0 0 0 0 0 0 0 0 0 0 127 0" result="hardAlpha"/>
<feOffset dy="1"/>
<feGaussianBlur stdDeviation="1.5"/>
<feColorMatrix type="matrix" values="0 0 0 0 0 0 0 0 0 0 0 0 0 0 0 0 0 0 0.25 0"/>
<feBlend mode="normal" in2="BackgroundImageFix" result="effect1_dropShadow_7592_12469"/>
<feBlend mode="normal" in="SourceGraphic" in2="effect1_dropShadow_7592_12469" result="shape"/>
</filter>
<filter id="filter14_d_7592_12469" x="182.949" y="177.024" width="26.8926" height="28.4099" filterUnits="userSpaceOnUse" color-interpolation-filters="sRGB">
<feFlood flood-opacity="0" result="BackgroundImageFix"/>
<feColorMatrix in="SourceAlpha" type="matrix" values="0 0 0 0 0 0 0 0 0 0 0 0 0 0 0 0 0 0 127 0" result="hardAlpha"/>
<feOffset dy="1"/>
<feGaussianBlur stdDeviation="1.5"/>
<feColorMatrix type="matrix" values="0 0 0 0 0 0 0 0 0 0 0 0 0 0 0 0 0 0 0.25 0"/>
<feBlend mode="normal" in2="BackgroundImageFix" result="effect1_dropShadow_7592_12469"/>
<feBlend mode="normal" in="SourceGraphic" in2="effect1_dropShadow_7592_12469" result="shape"/>
</filter>
<filter id="filter15_d_7592_12469" x="191" y="190.333" width="34.667" height="34.6667" filterUnits="userSpaceOnUse" color-interpolation-filters="sRGB">
<feFlood flood-opacity="0" result="BackgroundImageFix"/>
<feColorMatrix in="SourceAlpha" type="matrix" values="0 0 0 0 0 0 0 0 0 0 0 0 0 0 0 0 0 0 127 0" result="hardAlpha"/>
<feOffset dy="1"/>
<feGaussianBlur stdDeviation="1.5"/>
<feColorMatrix type="matrix" values="0 0 0 0 0 0 0 0 0 0 0 0 0 0 0 0 0 0 0.25 0"/>
<feBlend mode="normal" in2="BackgroundImageFix" result="effect1_dropShadow_7592_12469"/>
<feBlend mode="normal" in="SourceGraphic" in2="effect1_dropShadow_7592_12469" result="shape"/>
</filter>
<linearGradient id="paint0_linear_7592_12469" x1="265.978" y1="192.572" x2="265.978" y2="219.238" gradientUnits="userSpaceOnUse">
<stop stop-color="#B4EC51"/>
<stop offset="1" stop-color="#429321"/>
</linearGradient>
<linearGradient id="paint1_linear_7592_12469" x1="195.269" y1="193.333" x2="195.269" y2="219.461" gradientUnits="userSpaceOnUse">
<stop stop-color="#50B3FF"/>
<stop offset="1" stop-color="#006BBF"/>
</linearGradient>
<linearGradient id="paint2_linear_7592_12469" x1="195.269" y1="193.333" x2="195.269" y2="219.461" gradientUnits="userSpaceOnUse">
<stop stop-color="#086EBD"/>
<stop offset="1" stop-color="#003D6D"/>
</linearGradient>
</defs>
</svg>
