<svg width="86" height="30" viewBox="0 0 86 30" fill="none" xmlns="http://www.w3.org/2000/svg">
<path d="M40.8488 22.4122H43.4211V11.2076H40.8488V22.4122ZM50.2333 15.7931C48.9217 15.3661 47.7016 15.0306 47.7016 14.2172V14.1765C47.7016 13.5156 48.271 13.0479 49.2776 13.0479C49.7656 13.0479 50.3045 13.1598 50.8738 13.3529C50.8738 13.3529 50.884 13.3529 50.8942 13.3631C50.945 13.3834 50.9959 13.4038 51.0365 13.4139C51.4432 13.5461 52.5413 13.719 53.4665 12.2752C52.2668 11.5025 50.7417 11.0144 49.3386 11.0144C47.1119 11.0144 45.3428 12.3057 45.3428 14.4307V14.4714C45.3428 16.6167 47.1932 17.2979 48.8505 17.7656C50.1621 18.1723 51.3517 18.4672 51.3517 19.3314V19.3721C51.3517 20.1143 50.7112 20.582 49.6131 20.582C48.881 20.582 48.0778 20.3888 47.2746 20.0126C47.0407 19.911 45.841 19.5043 44.8242 20.9684C46.2172 22.0563 47.9761 22.6257 49.5521 22.6257C51.8906 22.6257 53.7106 21.4564 53.7106 19.0976V19.0671C53.7106 17.0437 51.8703 16.3015 50.2333 15.7931ZM33.8434 19.4433L30.8237 11.2076H28.0684L32.6742 22.5037H34.9924L39.5779 11.2076H36.8835L33.8434 19.4433ZM65.6471 10.9738C62.2105 10.9738 59.6585 13.6275 59.6585 16.8505C59.6585 20.0533 62.18 22.6663 65.6064 22.6663C69.0633 22.6663 71.6153 20.0126 71.6153 16.8099C71.6153 13.5868 69.0837 10.9738 65.6471 10.9738ZM65.6471 20.4397C63.6543 20.4397 62.2308 18.8027 62.2308 16.8099C62.2308 14.8374 63.5424 13.2208 65.6064 13.2208C67.6196 13.2208 69.043 14.8577 69.043 16.8505C69.043 18.8332 67.7212 20.4397 65.6471 20.4397ZM79.2307 10.9738C77.4921 10.9738 76.4449 11.8888 75.723 12.9462V11.2076H73.1506V22.4223H75.723V16.0982C75.723 14.3595 76.7601 13.3123 78.2547 13.3123C79.7798 13.3123 80.6542 14.3087 80.6542 16.0473V22.4122H83.2265V15.2746C83.2265 12.6717 81.7624 10.9738 79.2307 10.9738ZM55.4085 22.4122H57.9809V11.2076H55.4085V22.4122Z" fill="#18181C"/>
<path fill-rule="evenodd" clip-rule="evenodd" d="M5.58797 1.57898H27.5699C28.912 1.57898 29.9999 2.6669 29.9897 4.009V25.9911C29.9897 27.3332 28.9018 28.4211 27.5597 28.4211H5.58797C4.24587 28.4211 3.15796 27.3332 3.15796 25.9809V4.009C3.15796 2.6669 4.24587 1.57898 5.58797 1.57898ZM13.7625 8.41166C13.7625 9.32674 13.0203 10.0283 12.1256 10.0283C11.241 10.0283 10.4886 9.32674 10.4886 8.41166C10.4886 7.4966 11.2309 6.79504 12.1256 6.79504C13.0102 6.79504 13.7625 7.4966 13.7625 8.41166ZM8.58733 19.8907C8.58733 19.5349 8.63817 19.0875 8.72968 18.6808L9.94977 13.6581H8.04846L8.628 11.5229H13.2135L11.4037 18.7011C11.2817 19.1688 11.2309 19.545 11.2309 19.8094C11.2309 20.2669 11.4545 20.3991 11.8104 20.4804C12.0239 20.5211 13.732 20.4906 14.6674 18.4165L15.857 13.6581H13.9252L14.5048 11.5229H18.6327L18.104 13.9428C18.8259 12.5905 20.2697 11.3094 21.6931 11.3094C23.2182 11.3094 24.4688 12.3871 24.4688 14.4613C24.4688 14.99 24.3976 15.5696 24.2045 16.2203L23.4317 18.996C23.3606 19.2909 23.3097 19.5349 23.3097 19.7484C23.3097 20.2263 23.5029 20.4703 23.8689 20.4703C24.235 20.4703 24.6925 20.2059 25.2212 18.7316L26.2786 19.1383C25.6482 21.3345 24.5197 22.2496 23.0962 22.2496C21.4288 22.2496 20.6357 21.2633 20.6357 19.9111C20.6357 19.5247 20.6865 19.1078 20.8086 18.7011L21.6016 15.8542C21.7033 15.5492 21.7236 15.2544 21.7236 14.99C21.7236 14.0749 21.1746 13.5157 20.2798 13.5157C19.1411 13.5157 18.3989 14.3291 18.0125 15.8949L16.4671 22.0869H13.7625L14.2506 20.1449C13.4575 21.4565 12.3594 22.2598 10.997 22.2598C9.36006 22.2598 8.58733 21.3142 8.58733 19.8907Z" fill="#18181C"/>
</svg>
