<svg width="136" height="30" viewBox="0 0 136 30" fill="none" xmlns="http://www.w3.org/2000/svg">
<path d="M26.247 15.0967C26.247 20.0564 22.255 24.0967 17.2954 24.0967C12.3357 24.0967 8.34375 20.0564 8.34375 15.0967C8.34375 10.1371 12.3357 6.09675 17.2954 6.09675C22.255 6.09675 26.247 10.1371 26.247 15.0967ZM36.0696 15.0967C36.0696 19.7661 34.0615 23.5645 31.5937 23.5645C29.126 23.5645 27.1179 19.7661 27.1179 15.0967C27.1179 10.4274 29.126 6.629 31.5937 6.629C34.0615 6.629 36.0696 10.4274 36.0696 15.0967ZM40.0857 15.0967C40.0857 19.2822 39.3841 22.6935 38.5131 22.6935C37.6421 22.6935 36.9405 19.2822 36.9405 15.0967C36.9405 10.9113 37.6421 7.49997 38.5131 7.49997C39.3841 7.49997 40.0857 10.9113 40.0857 15.0967ZM64.7389 6.87094H64.7631V6.67739H59.6825L54.9647 17.7822L50.247 6.67739H44.7792V6.87094H44.8034C45.7228 7.08868 46.2067 7.4032 46.2067 8.5161V21.7016C46.2067 22.8387 45.7228 23.129 44.8034 23.3467H44.7792V23.5403H48.505V23.3467H48.4808C47.5615 23.129 47.0776 22.8145 47.0776 21.7016V9.2661L53.1502 23.5403H53.4889L59.7308 8.87901V22.0161C59.6583 22.9113 59.1744 23.1774 58.3518 23.3709H58.3276V23.5645H64.8115V23.3709H64.7873C63.9405 23.1774 63.4566 22.9113 63.3841 22.0161V8.49191C63.3599 7.4032 63.8196 7.08868 64.7389 6.87094ZM67.7147 15.6048C67.8115 13.2338 68.6825 11.5161 70.1099 11.4919C70.5454 11.4919 70.9083 11.6371 71.1986 11.9274C71.8034 12.508 72.0938 13.7661 72.0454 15.6048H67.7147ZM67.6421 16.2822H75.2389V16.258C75.2147 14.4435 74.6825 13.0403 73.6905 12.0726C72.8196 11.2258 71.5131 10.7661 70.1583 10.7661H70.1341C69.4325 10.7661 68.5615 10.9355 67.9566 11.25C67.255 11.5645 66.626 12.0726 66.1179 12.7016C65.2954 13.7177 64.7873 15.1209 64.6663 16.6693C64.6663 16.7177 64.6663 16.7661 64.6663 16.8145C64.6663 16.8629 64.6663 16.9113 64.6663 16.9597C64.6663 17.1774 64.6421 17.3951 64.6663 17.6129C64.7389 21.1451 66.6502 23.9758 70.0373 23.9758C73.0131 23.9758 74.755 21.7984 75.1663 18.8709L74.9486 18.7984C74.1986 20.3709 72.8196 21.3145 71.2712 21.1935C69.1179 21.0242 67.497 18.8709 67.6421 16.2822ZM83.8034 21.0726C83.5615 21.6532 83.0292 21.9919 82.3276 21.9919C81.626 21.9919 80.997 21.508 80.5373 20.6371C80.0534 19.6935 79.7873 18.3871 79.7873 16.8387C79.7873 13.5967 80.8034 11.4919 82.3518 11.4919C83.005 11.4919 83.5131 11.8064 83.7792 12.3871V21.0726H83.8034ZM88.8599 23.3951C87.9405 23.1774 87.4566 22.8387 87.4566 21.6532V5.9032L81.8196 7.57256V7.7661H81.8438C82.6179 7.69352 83.1502 7.81449 83.4647 8.10481C83.7066 8.32255 83.8276 8.66126 83.8276 9.14514V11.2984C83.2712 10.9355 82.6179 10.7661 81.8196 10.7661C80.1986 10.7661 78.6986 11.4435 77.6341 12.7016C76.5212 14.008 75.9163 15.7742 75.9163 17.8306C75.9163 21.508 77.7308 23.9758 80.4163 23.9758C81.9889 23.9758 83.247 23.1048 83.8276 21.6532V23.6129H88.8841V23.4193L88.8599 23.3951ZM93.6744 8.03223C93.6744 6.89513 92.8034 6.02417 91.6663 6.02417C90.5292 6.02417 89.6341 6.91933 89.6341 8.03223C89.6341 9.16933 90.5292 10.0403 91.6663 10.0403C92.8276 10.0645 93.6744 9.19352 93.6744 8.03223ZM95.005 23.3951C94.0857 23.1774 93.6018 22.8387 93.6018 21.6532V10.7903L88.5454 12.2419V12.4355H88.5696C89.6583 12.5322 89.9728 12.9193 89.9728 14.1774V23.5645H95.0292V23.3709L95.005 23.3951ZM107.973 23.3951C107.053 23.1774 106.57 22.8387 106.57 21.6532V10.7903L101.755 12.1935V12.3871H101.779C102.674 12.4838 102.941 12.8709 102.941 14.1532V21.0484C102.65 21.629 102.094 21.9919 101.392 22.0161C100.303 22.0161 99.6986 21.2661 99.6986 19.9355V10.8145L94.6421 12.2661V12.4597H94.6663C95.755 12.5564 96.0696 12.9435 96.0696 14.2016V20.008C96.0696 20.4193 96.0938 20.8064 96.1663 21.2177L96.2631 21.6048C96.6986 23.129 97.8115 23.9516 99.5776 23.9516C101.078 23.9516 102.384 23.0322 102.941 21.5806V23.5887H107.997L107.973 23.3951ZM127.642 23.5887V23.3951H127.618C126.602 23.1532 126.215 22.7177 126.215 21.8226V14.4435C126.215 12.1451 124.932 10.7661 122.755 10.7661C121.182 10.7661 119.852 11.6855 119.344 13.0887C118.932 11.5887 117.771 10.7661 116.029 10.7661C114.505 10.7661 113.32 11.5645 112.811 12.9193V10.7903L107.755 12.1935V12.3871H107.779C108.868 12.4838 109.182 12.8709 109.182 14.129V23.5887H113.9V23.3951H113.876C113.078 23.2016 112.811 22.8629 112.811 21.9677V13.5C113.029 12.9919 113.441 12.4113 114.287 12.4113C115.328 12.4113 115.884 13.1371 115.884 14.5645V23.5645H120.602V23.3709H120.578C119.779 23.1774 119.513 22.8387 119.513 21.9435V14.4193C119.513 14.129 119.489 13.8629 119.441 13.5726C119.658 13.0403 120.118 12.3871 120.989 12.3871C122.053 12.3871 122.586 13.0887 122.586 14.5403V23.5403H127.642V23.5887Z" fill="#18181C"/>
</svg>
