<svg width="80" height="30" viewBox="0 0 80 30" fill="none" xmlns="http://www.w3.org/2000/svg">
<path d="M37.1862 20.1952V12.933H37.3142L42.546 20.1952H44.1923V9.53055H42.363V16.7744H42.235L37.0033 9.53055H35.3569V20.1952H37.1862ZM49.3691 20.3598C51.7838 20.3598 53.2655 18.7866 53.2655 16.1525C53.2655 13.5366 51.7838 11.9452 49.3691 11.9452C46.9728 11.9452 45.4728 13.5366 45.4728 16.1525C45.4911 18.7866 46.9545 20.3598 49.3691 20.3598ZM49.3691 18.8232C48.0886 18.8232 47.3569 17.8537 47.3569 16.1525C47.3569 14.4696 48.0886 13.4818 49.3691 13.4818C50.6496 13.4818 51.3813 14.4696 51.3813 16.1525C51.3813 17.8537 50.6496 18.8232 49.3691 18.8232ZM54.9301 10.1342V12.1647H53.6496V13.6281H54.9301V18.0366C54.9301 19.6098 55.6618 20.2318 57.5277 20.2318C57.8752 20.2318 58.2228 20.1952 58.4972 20.1403V18.7135C58.2777 18.7318 58.1313 18.7501 57.8752 18.7501C57.1069 18.7501 56.7594 18.4025 56.7594 17.5976V13.6281H58.4972V12.1647H56.7594V10.1342H54.9301ZM59.5947 20.1952H61.424V12.1098H59.5947V20.1952ZM60.5094 10.7744C61.113 10.7744 61.6069 10.2805 61.6069 9.67689C61.6069 9.05494 61.113 8.56104 60.5094 8.56104C59.9057 8.56104 59.4118 9.05494 59.4118 9.67689C59.4118 10.2805 59.9057 10.7744 60.5094 10.7744ZM66.4362 20.3598C68.8508 20.3598 70.3325 18.7866 70.3325 16.1525C70.3325 13.5366 68.8508 11.9452 66.4362 11.9452C64.0399 11.9452 62.5399 13.5366 62.5399 16.1525C62.5399 18.7866 64.0033 20.3598 66.4362 20.3598ZM66.4362 18.8232C65.1557 18.8232 64.424 17.8537 64.424 16.1525C64.424 14.4696 65.1557 13.4818 66.4362 13.4818C67.6984 13.4818 68.4484 14.4696 68.4484 16.1525C68.4301 17.8537 67.6984 18.8232 66.4362 18.8232ZM71.4118 20.1952H73.2411V15.494C73.2411 14.3049 73.9362 13.5549 75.0155 13.5549C76.1313 13.5549 76.6435 14.1769 76.6435 15.4025V20.1952H78.4728V14.9635C78.4728 13.0245 77.485 11.9452 75.6923 11.9452C74.485 11.9452 73.6801 12.494 73.296 13.4086H73.1679V12.1098H71.3935C71.4118 12.1098 71.4118 20.1952 71.4118 20.1952Z" fill="#18181C"/>
<path fill-rule="evenodd" clip-rule="evenodd" d="M7.33247 6.23782C8.19222 6.93294 8.5032 6.87806 10.113 6.76831L25.2776 5.85367C25.6069 5.85367 25.3325 5.5244 25.2227 5.48782L22.6983 3.67684C22.2227 3.31099 21.5642 2.87196 20.3386 2.98172L5.66783 4.06099C5.13734 4.11587 5.02759 4.39026 5.2471 4.59148L7.33247 6.23782ZM8.2471 9.7683V25.7195C8.2471 26.5793 8.66783 26.8903 9.63735 26.8354L26.302 25.8659C27.2715 25.811 27.3812 25.2256 27.3812 24.5305V8.68904C27.3812 7.99392 27.1069 7.60977 26.5215 7.66465L9.10686 8.68904C8.46661 8.74392 8.2471 9.07318 8.2471 9.7683ZM24.6922 10.6281C24.802 11.1037 24.6922 11.5976 24.2166 11.6525L23.4117 11.8171V23.5976C22.7166 23.9634 22.0764 24.1829 21.5276 24.1829C20.6678 24.1829 20.4483 23.9086 19.8081 23.1037L14.5581 14.8537V22.8293L16.2227 23.1951C16.2227 23.1951 16.2227 24.1646 14.8873 24.1646L11.1922 24.3842C11.0825 24.1646 11.1922 23.6342 11.5581 23.5244L12.5276 23.25V12.7134L11.1922 12.6037C11.0825 12.1281 11.3569 11.4329 12.1069 11.3781L16.0764 11.1037L21.5459 19.4451V12.0732L20.1556 11.9086C20.0459 11.3232 20.4849 10.8842 21.0154 10.8293L24.6922 10.6281ZM4.44222 2.59757L19.7166 1.48172C21.5825 1.31709 22.0764 1.42684 23.2471 2.2866L28.113 5.70733C28.9178 6.2927 29.1922 6.45733 29.1922 7.09758V25.8842C29.1922 27.0549 28.7715 27.75 27.2715 27.8598L9.54588 28.939C8.41174 28.9939 7.88125 28.8293 7.29588 28.0793L3.69222 23.4146C3.05198 22.5549 2.77759 21.9146 2.77759 21.1646V4.46343C2.77759 3.49391 3.21661 2.70733 4.44222 2.59757Z" fill="#18181C"/>
</svg>
