<svg width="31" height="31" viewBox="0 0 31 31" fill="none" xmlns="http://www.w3.org/2000/svg">
<rect opacity="0.25" x="5" y="5" width="26" height="26" fill="#FBB631"/>
<path d="M25 15C25 20.5228 20.5228 25 15 25C9.47715 25 5 20.5228 5 15C5 9.47715 9.47715 5 15 5C20.5228 5 25 9.47715 25 15Z" stroke="#7238FA" stroke-width="4"/>
<path d="M25 15C25 20.5228 20.5228 25 15 25C9.47715 25 5 20.5228 5 15C5 9.47715 9.47715 5 15 5C20.5228 5 25 9.47715 25 15Z" stroke="#FAD338" stroke-width="0.5"/>
<rect x="3" y="3" width="24" height="24" stroke="#7238FA" stroke-width="0.5"/>
<rect x="4" y="4" width="2" height="2" transform="rotate(180 4 4)" fill="white" stroke="#7238FA" stroke-width="0.5"/>
<rect x="4" y="28" width="2" height="2" transform="rotate(180 4 28)" fill="white" stroke="#7238FA" stroke-width="0.5"/>
<rect x="28" y="4" width="2" height="2" transform="rotate(180 28 4)" fill="white" stroke="#7238FA" stroke-width="0.5"/>
<rect x="28" y="28" width="2" height="2" transform="rotate(180 28 28)" fill="white" stroke="#7238FA" stroke-width="0.5"/>
</svg>
