<svg width="392" height="335" viewBox="0 0 392 335" fill="none" xmlns="http://www.w3.org/2000/svg">
<rect x="1" y="1" width="390" height="333" rx="9" fill="white" stroke="#18181C" stroke-width="2"/>
<path d="M128 258V177.273C128 140.119 158.445 110 196 110C233.555 110 264 140.119 264 177.273V258" stroke="black" stroke-width="8" stroke-linecap="round"/>
<path d="M128 258V177.273C128 140.119 158.445 110 196 110C233.555 110 264 140.119 264 177.273V258" stroke="#3F5AD3" stroke-width="2" stroke-linecap="round"/>
<path d="M196 147L196 282" stroke="black" stroke-width="8" stroke-linecap="round"/>
<path d="M196 147L196 282" stroke="#3F5AD3" stroke-width="2" stroke-linecap="round"/>
<path d="M72 178C72 109.517 127.517 54 196 54C264.483 54 320 109.517 320 178" stroke="black" stroke-width="8" stroke-linecap="round"/>
<path d="M72 178C72 109.517 127.517 54 196 54C264.483 54 320 109.517 320 178" stroke="#3F5AD3" stroke-width="2" stroke-linecap="round"/>
<path d="M196 149.5C194.619 149.5 193.5 148.381 193.5 147C193.5 145.619 194.619 144.5 196 144.5C197.381 144.5 198.5 145.619 198.5 147C198.5 148.381 197.381 149.5 196 149.5Z" fill="white" stroke="#3F5AD3"/>
<path d="M128 259.5C126.619 259.5 125.5 258.381 125.5 257C125.5 255.619 126.619 254.5 128 254.5C129.381 254.5 130.5 255.619 130.5 257C130.5 258.381 129.381 259.5 128 259.5Z" fill="white" stroke="#3F5AD3"/>
<path d="M264 259.5C262.619 259.5 261.5 258.381 261.5 257C261.5 255.619 262.619 254.5 264 254.5C265.381 254.5 266.5 255.619 266.5 257C266.5 258.381 265.381 259.5 264 259.5Z" fill="white" stroke="#3F5AD3"/>
<path d="M128 179.5C126.619 179.5 125.5 178.381 125.5 177C125.5 175.619 126.619 174.5 128 174.5C129.381 174.5 130.5 175.619 130.5 177C130.5 178.381 129.381 179.5 128 179.5Z" fill="white" stroke="#3F5AD3"/>
<path d="M72 179.5C70.6193 179.5 69.5 178.381 69.5 177C69.5 175.619 70.6193 174.5 72 174.5C73.3807 174.5 74.5 175.619 74.5 177C74.5 178.381 73.3807 179.5 72 179.5Z" fill="white" stroke="#3F5AD3"/>
<path d="M264 179.5C262.619 179.5 261.5 178.381 261.5 177C261.5 175.619 262.619 174.5 264 174.5C265.381 174.5 266.5 175.619 266.5 177C266.5 178.381 265.381 179.5 264 179.5Z" fill="white" stroke="#3F5AD3"/>
<path d="M320 179.5C318.619 179.5 317.5 178.381 317.5 177C317.5 175.619 318.619 174.5 320 174.5C321.381 174.5 322.5 175.619 322.5 177C322.5 178.381 321.381 179.5 320 179.5Z" fill="white" stroke="#3F5AD3"/>
<path d="M196 112.5C194.619 112.5 193.5 111.381 193.5 110C193.5 108.619 194.619 107.5 196 107.5C197.381 107.5 198.5 108.619 198.5 110C198.5 111.381 197.381 112.5 196 112.5Z" fill="white" stroke="#3F5AD3"/>
<path d="M196 56.5C194.619 56.5 193.5 55.3807 193.5 54C193.5 52.6193 194.619 51.5 196 51.5C197.381 51.5 198.5 52.6193 198.5 54C198.5 55.3807 197.381 56.5 196 56.5Z" fill="white" stroke="#3F5AD3"/>
<path d="M196 284.5C194.619 284.5 193.5 283.381 193.5 282C193.5 280.619 194.619 279.5 196 279.5C197.381 279.5 198.5 280.619 198.5 282C198.5 283.381 197.381 284.5 196 284.5Z" fill="white" stroke="#3F5AD3"/>
</svg>
