<svg width="48" height="48" viewBox="0 0 48 48" fill="none" xmlns="http://www.w3.org/2000/svg">
<path d="M23.9995 6C15.1176 6 7.73825 12.433 6.26653 20.8939C6.16442 21.4808 6.63022 22 7.22601 22H14.1772C14.5747 22 14.9304 21.7623 15.1132 21.4093C16.7765 18.196 20.1316 16 23.9995 16C27.8675 16 31.2225 18.196 32.8859 21.4093C33.0686 21.7623 33.4243 22 33.8218 22H40.773C41.3688 22 41.8346 21.4808 41.7325 20.8939C40.2608 12.433 32.8814 6 23.9995 6Z" stroke="black" stroke-width="2" stroke-linejoin="round"/>
<path d="M10 41C10 41.5523 10.4477 42 11 42H37C37.5523 42 38 41.5523 38 41V36.1677C38 36.0567 37.9815 35.9464 37.9453 35.8415L33.1679 22C31.6248 18.4682 28.1006 16 24 16C19.8994 16 16.3752 18.4682 14.8321 22L10.0547 35.8415C10.0185 35.9464 10 36.0567 10 36.1677V41Z" stroke="black" stroke-width="2" stroke-linejoin="round"/>
<path d="M27.998 29.999C27.998 32.2082 26.2072 33.999 23.998 33.999C21.7889 33.999 19.998 32.2082 19.998 29.999C19.998 27.7899 21.7889 25.999 23.998 25.999C26.2072 25.999 27.998 27.7899 27.998 29.999Z" stroke="black" stroke-width="2" stroke-linejoin="round"/>
</svg>
