<svg width="48" height="48" viewBox="0 0 48 48" fill="none" xmlns="http://www.w3.org/2000/svg">
<path d="M41.9856 33.0001C42.0016 33.5521 41.5523 34.0001 41.0001 34.0001L22.0001 34.0002L14.0001 34.0002L6.60454 34.0002C5.74348 34.0002 5.285 32.9844 5.85462 32.3387L18.035 18.5308L22.0317 14.0001L27.7799 7.48394C28.125 7.09271 28.714 7.03131 29.1226 7.35567C36.7254 13.3909 41.6856 22.6115 41.9856 33.0001Z" stroke="black" stroke-width="2" stroke-linecap="round" stroke-linejoin="round"/>
<path d="M32 25C32 25.5523 31.5523 26 31 26C30.4477 26 30 25.5523 30 25C30 24.4477 30.4477 24 31 24C31.5523 24 32 24.4477 32 25Z" stroke="black" stroke-width="2" stroke-linecap="round" stroke-linejoin="round"/>
<path d="M26 30V37.9998" stroke="black" stroke-width="2" stroke-linecap="round" stroke-linejoin="round"/>
<path d="M18 30V33.9998" stroke="black" stroke-width="2" stroke-linecap="round" stroke-linejoin="round"/>
<path d="M26.0002 17.9999C26.0002 20.209 24.2094 21.9999 22.0002 21.9999C20.1285 21.9999 18.557 20.7143 18.1207 18.9779C18.0502 18.6973 18.145 18.4061 18.3364 18.1892L21.7302 14.342C21.9218 14.1247 22.1993 13.9943 22.4869 14.0292C24.4665 14.2693 26.0002 15.9555 26.0002 17.9999Z" stroke="black" stroke-width="2" stroke-linecap="round" stroke-linejoin="round"/>
</svg>
