<svg width="103" height="34" viewBox="0 0 103 34" fill="none" xmlns="http://www.w3.org/2000/svg">
<path d="M33.3916 16.9565C33.3916 25.7691 26.2476 32.913 17.435 32.913C8.62249 32.913 1.47852 25.7691 1.47852 16.9565C1.47852 8.14398 8.62249 1 17.435 1C26.2476 1 33.3916 8.14398 33.3916 16.9565Z" stroke="white" stroke-width="2"/>
<path fill-rule="evenodd" clip-rule="evenodd" d="M29.2697 25.9896C29.9618 25.9896 30.6468 26.083 31.2923 26.2336C32.9927 23.597 33.9807 20.4586 33.9807 17.0851C33.9807 7.78864 26.4803 0.253906 17.2302 0.253906C7.97812 0.253906 0.478516 7.78864 0.478516 17.0851C0.478516 18.9659 0.784698 20.7756 1.35189 22.4647H2.5183C3.55034 22.4647 4.51006 22.2149 5.31568 21.7919C5.51866 21.689 5.74908 21.6229 5.99408 21.6229C6.50782 21.6229 6.94922 21.8249 7.23054 22.2868C7.47096 22.7064 7.69796 22.9538 7.97469 23.1294C8.21398 23.2846 8.54074 23.4111 9.00702 23.3895C9.22801 23.3792 9.56164 23.3257 9.64569 23.0952C9.74089 22.8305 9.62167 22.6311 9.29948 22.4977C8.88494 22.3227 8.74693 22.0728 8.54162 21.7011C8.52336 21.6681 8.50456 21.634 8.485 21.599C8.40671 21.4597 8.29912 21.3417 8.18666 21.2183C7.9521 20.961 7.69633 20.6804 7.64107 20.1347C7.56045 19.3386 8.1811 18.3373 9.4064 18.6566C10.2432 18.8754 10.7994 19.8672 11.0393 20.2948C11.0534 20.3199 11.0664 20.3431 11.0783 20.3641C11.1895 20.5612 11.5866 20.7929 11.9076 20.4986C12.2275 20.202 12.5225 20.202 12.7641 20.5796C12.9694 20.9001 14.476 22.9173 16.1072 22.971C17.102 23.0031 17.8181 22.8611 18.3879 22.748C18.7674 22.6727 19.082 22.6103 19.3709 22.6207C19.6787 22.6326 19.8904 22.7322 20.074 22.8187C20.1923 22.8743 20.2989 22.9245 20.4121 22.9423C20.6732 22.9844 20.8956 22.8833 21.126 22.7786C21.345 22.679 21.5713 22.5761 21.8449 22.59C22.0568 22.5996 22.2778 22.6714 22.505 22.7451C22.7643 22.8293 23.0317 22.9162 23.3027 22.9162C23.5396 22.9162 23.8989 22.7821 24.2134 22.6647C24.5735 22.5302 24.875 22.4177 24.867 22.5535C24.8505 22.8404 24.705 23.2669 24.5798 23.6337C24.5085 23.8429 24.4438 24.0327 24.4133 24.1661C24.3911 24.2619 24.3845 24.4092 24.3768 24.582C24.364 24.8679 24.348 25.2235 24.2532 25.5312C24.1327 25.9766 23.7532 26.5284 23.5838 26.7748C23.5619 26.8066 23.5435 26.8333 23.5297 26.8541C23.3586 27.1121 23.207 27.2948 23.064 27.4671C22.8644 27.7076 22.6816 27.9279 22.4859 28.3046C22.1924 28.8754 21.7491 29.4128 21.4949 29.7211C21.426 29.8046 21.371 29.8712 21.3366 29.9172C21.1314 30.1931 22.4973 29.9091 22.9816 29.4461C23.0761 29.3564 23.1869 29.225 23.3152 29.0728C23.7462 28.5613 24.3755 27.8145 25.255 27.6203C26.024 27.4493 26.1784 27.1527 26.0855 26.8779L26.0615 26.7696C26.0615 26.6647 26.1229 26.5736 26.2113 26.529C27.0066 26.1971 28.0841 25.9896 29.2697 25.9896ZM25.2327 14.4212C26.281 13.8806 26.5157 13.1656 26.6813 12.6069C29.5275 13.2512 31.2145 14.7405 30.8503 16.7535C30.0481 21.184 22.8335 22.6745 15.8182 20.5408C9.13338 18.5063 3.26274 14.4531 3.94229 12.0812C4.3371 10.6977 6.5184 10.1082 9.4247 10.4241C8.98472 11.3274 9.01645 12.3902 10.9405 13.5717C13.293 14.9138 17.2691 16.06 18.3434 15.947C18.744 15.9071 19.1047 15.7065 18.744 15.4648C18.3832 15.2231 18.0633 14.7394 17.8626 13.8944C17.8612 13.8885 17.8597 13.8826 17.8583 13.8767C17.7455 13.407 17.5903 12.7603 15.0969 12.2841C9.67542 11.2452 9.88526 9.70559 10.0454 8.81839C10.0454 8.81839 10.5262 6.64364 10.7283 5.8783C10.9279 5.11325 11.445 3.35695 14.9357 4.1473C16.6325 4.53101 17.6719 4.18998 18.29 3.98718C18.4066 3.94892 18.5082 3.91558 18.5964 3.89295C20.1073 3.50295 21.7772 3.77196 22.6995 4.72555C23.6537 5.7119 24.9697 8.75804 25.5992 11.0354C25.9202 12.1919 25.8339 12.7471 25.6741 13.1383C25.6695 13.1487 25.6651 13.159 25.6607 13.1691C25.5524 13.4181 25.4735 13.5994 25.092 14.2502C25.0228 14.3712 25.0794 14.5 25.2327 14.4212ZM17.9476 5.05583H17.9568C18.0645 5.03887 18.1746 5.02393 18.2893 5.01272C19.3282 4.90782 20.203 5.08112 20.2458 5.39927C20.2779 5.63982 19.825 5.89532 19.1569 6.05052L19.098 6.12122L19.1558 6.19192C19.4359 6.27383 19.7627 6.32412 20.1086 6.33332C21.1841 6.35602 22.0632 5.96717 22.0769 5.46307C22.0895 4.95898 21.2307 4.53018 20.1564 4.50517H20.06C19.8796 4.50517 19.6912 4.51667 19.4997 4.53708C18.8599 4.60088 18.3004 4.76067 17.925 4.95898L17.8944 5.00582L17.9476 5.05583ZM13.4259 9.00574C13.7876 8.61919 13.9897 8.40939 15.9237 8.26885C16.8448 8.20045 16.9403 7.98605 16.9117 7.75929C16.8811 7.49115 16.3254 7.18104 15.4972 7.18104C15.0063 7.18104 14.5992 7.21966 14.2422 7.25352C14.0045 7.27608 13.789 7.29652 13.5858 7.30204C13.0774 7.31555 12.6861 6.94049 12.5037 6.71115C12.3539 6.5229 11.8727 6.3427 11.612 6.94739C11.3476 7.55725 11.8364 8.21194 12.2415 8.29759C12.2415 8.29759 12.9154 9.55409 13.4259 9.00574Z" fill="#C8C9D0"/>
<path fill-rule="evenodd" clip-rule="evenodd" d="M20.9185 24.6901C21.0045 24.7734 21.1532 25.0574 20.9716 25.4189C20.8696 25.6106 20.7595 25.744 20.5645 25.9012C20.3272 26.0917 19.8678 26.3107 19.2372 25.9069C18.897 25.6914 18.8752 25.6184 18.407 25.6802C18.0722 25.7233 17.9395 25.3824 18.0585 25.1008C18.18 24.8191 18.6734 24.5909 19.2895 24.9536C19.5674 25.1166 19.9985 25.4635 20.375 25.1554C20.5328 25.0312 20.6269 24.9467 20.8436 24.6935L20.8833 24.6777L20.9185 24.6901" fill="white"/>
<path fill-rule="evenodd" clip-rule="evenodd" d="M42.5198 18.1461C42.5198 16.6019 42.487 15.4672 42.4258 14.4406H44.9373L45.0462 16.6315H45.128C45.6929 15.0074 47.0314 14.1797 48.269 14.1797C48.5517 14.1797 48.7172 14.1897 48.9508 14.2435V16.9896C48.6786 16.9347 48.4245 16.9062 48.0751 16.9062C46.6935 16.9062 45.7338 17.79 45.4739 19.1117C45.4264 19.3684 45.399 19.6776 45.399 19.9912V25.9702H42.4961L42.5198 18.1461" fill="#C8C9D0"/>
<path fill-rule="evenodd" clip-rule="evenodd" d="M57.5 18.9588C57.5137 17.8903 57.0509 16.1489 55.1074 16.1489C53.3209 16.1489 52.5779 17.7785 52.4473 18.9588H57.5ZM52.4551 20.9901C52.5312 23.0795 54.141 23.994 55.999 23.994C57.3332 23.994 58.2895 23.783 59.1651 23.4603L59.5951 25.4663C58.614 25.8848 57.2514 26.196 55.5862 26.196C51.8597 26.196 49.6758 23.8845 49.6758 20.3515C49.6758 17.1685 51.5964 14.1592 55.2877 14.1592C59.0199 14.1592 60.2338 17.2415 60.2338 19.7655C60.2338 20.3081 60.186 20.7415 60.1317 21.0131L52.4551 20.9901V20.9901Z" fill="#C8C9D0"/>
<path fill-rule="evenodd" clip-rule="evenodd" d="M72.7349 9.99949L69.8352 9.17725V15.6822H69.7877C69.2737 14.8301 68.1416 14.1803 66.5704 14.1803C63.8104 14.1803 61.4079 16.4746 61.4259 20.3372C61.4259 23.8817 63.596 26.2298 66.3368 26.2298C67.9918 26.2298 69.378 25.4371 70.0633 24.145H70.1145L70.2448 25.9708H72.8312C72.7781 25.1862 72.7349 23.9182 72.7349 22.7379V9.99949ZM69.8359 20.9712C69.8359 21.277 69.8133 21.5621 69.7476 21.8222C69.456 23.0844 68.4282 23.8963 67.2415 23.8963C65.4153 23.8963 64.3692 22.349 64.3692 20.2311C64.3692 18.0917 65.405 16.4346 67.2735 16.4346C68.5792 16.4346 69.5137 17.3609 69.769 18.4829C69.819 18.7188 69.8359 19.0108 69.8359 19.2436V20.9712V20.9712Z" fill="#C8C9D0"/>
<path fill-rule="evenodd" clip-rule="evenodd" d="M80.4082 14.167C79.5334 14.167 78.7495 14.4202 78.0929 14.8283C77.4099 15.2298 76.8553 15.8514 76.5239 16.4923H76.4776V11.097L75.3418 10.7593V25.9713H76.4776V18.9145C76.4776 18.4458 76.5125 18.1207 76.6329 17.7776C77.1229 16.3406 78.4694 15.1637 80.0975 15.1637C82.4477 15.1637 83.2622 17.0579 83.2622 19.1358V25.9713H84.3978V19.0114C84.3978 14.7133 81.496 14.167 80.4082 14.167" fill="#C8C9D0"/>
<path fill-rule="evenodd" clip-rule="evenodd" d="M93.4568 19.8028C90.9544 19.7309 87.6522 20.1117 87.6522 22.882C87.6522 24.54 88.7411 25.2858 89.9378 25.2858C91.8515 25.2858 92.9408 24.0954 93.3378 22.9719C93.4193 22.7268 93.4568 22.4782 93.4568 22.2799V19.8028ZM94.5916 23.2298C94.5916 24.1432 94.6279 25.0864 94.7597 25.9702H93.7137L93.5459 24.3179H93.4924C92.9355 25.2074 91.6559 26.2337 89.8305 26.2337C87.52 26.2337 86.4434 24.5996 86.4434 23.0623C86.4434 20.3992 88.7848 18.7935 93.4572 18.8438V18.536C93.4572 17.3933 93.236 15.1168 90.5181 15.1341C89.5129 15.1341 88.466 15.4042 87.6344 15.994L87.2736 15.1648C88.3242 14.4498 89.605 14.167 90.6439 14.167C93.9575 14.167 94.5916 16.6668 94.5916 18.7286V23.2298V23.2298Z" fill="#C8C9D0"/>
<path fill-rule="evenodd" clip-rule="evenodd" d="M99.1159 11.8882V14.4299H102.391V15.3559H99.1159V22.8565C99.1159 24.3242 99.5685 25.2433 100.804 25.2433C101.395 25.2433 101.815 25.166 102.109 25.0623L102.246 25.946C101.875 26.1032 101.354 26.2231 100.661 26.2231C99.8226 26.2231 99.1274 25.9584 98.678 25.4066C98.1585 24.7999 97.9804 23.8316 97.9804 22.6536V15.3559H96.043V14.4299H97.9804V12.3089L99.1159 11.8882" fill="#C8C9D0"/>
</svg>
