<svg width="392" height="335" viewBox="0 0 392 335" fill="none" xmlns="http://www.w3.org/2000/svg">
<rect x="1" y="1" width="272" height="272" rx="9" fill="white" stroke="#18181C" stroke-width="2"/>
<path d="M113.453 129.151L160.547 207.641H66.3594L113.453 129.151Z" fill="#FAD338" stroke="black" stroke-width="6" stroke-linecap="round" stroke-linejoin="round"/>
<path d="M168.397 144.849L207.642 207.641H160.548L145.171 182.011L168.397 144.849Z" fill="#FAD338" stroke="black" stroke-width="6" stroke-linecap="round" stroke-linejoin="round"/>
<path d="M152.698 105.604C152.698 109.939 149.184 113.453 144.849 113.453C140.514 113.453 137 109.939 137 105.604C137 101.269 140.514 97.7552 144.849 97.7552C149.184 97.7552 152.698 101.269 152.698 105.604Z" fill="#FAD338" stroke="black" stroke-width="6" stroke-linejoin="round"/>
<path d="M144.849 66.3594V74.2083" stroke="black" stroke-width="6" stroke-linecap="round" stroke-linejoin="round"/>
<path d="M178.841 125.227L172.044 121.302" stroke="black" stroke-width="6" stroke-linecap="round" stroke-linejoin="round"/>
<path d="M117.66 89.9063L110.862 85.9818" stroke="black" stroke-width="6" stroke-linecap="round" stroke-linejoin="round"/>
<path d="M178.841 85.9818L172.044 89.9063" stroke="black" stroke-width="6" stroke-linecap="round" stroke-linejoin="round"/>
<rect x="203" y="147" width="158" height="158" rx="9" fill="white" stroke="#18181C" stroke-width="2"/>
<path d="M269.5 221.833L294.5 263.5H244.5L269.5 221.833Z" fill="#FAD338" stroke="black" stroke-width="3" stroke-linecap="round" stroke-linejoin="round"/>
<path d="M298.668 230.167L319.501 263.5H294.501L286.338 249.895L298.668 230.167Z" fill="#FAD338" stroke="black" stroke-width="3" stroke-linecap="round" stroke-linejoin="round"/>
<path d="M290.333 209.333C290.333 211.634 288.468 213.5 286.167 213.5C283.865 213.5 282 211.634 282 209.333C282 207.032 283.865 205.167 286.167 205.167C288.468 205.167 290.333 207.032 290.333 209.333Z" fill="#FAD338" stroke="black" stroke-width="3" stroke-linejoin="round"/>
<path d="M286.167 188.5V192.667" stroke="black" stroke-width="3" stroke-linecap="round" stroke-linejoin="round"/>
<path d="M304.212 219.75L300.604 217.667" stroke="black" stroke-width="3" stroke-linecap="round" stroke-linejoin="round"/>
<path d="M271.733 201L268.125 198.917" stroke="black" stroke-width="3" stroke-linecap="round" stroke-linejoin="round"/>
<path d="M304.212 198.917L300.604 201" stroke="black" stroke-width="3" stroke-linecap="round" stroke-linejoin="round"/>
<rect x="333" y="276" width="58" height="58" rx="9" fill="white" stroke="#18181C" stroke-width="2"/>
<path d="M359 304L365 314H353L359 304Z" fill="#FAD338" stroke="black" stroke-width="2" stroke-linecap="round" stroke-linejoin="round"/>
<path d="M366 306L371 314H365L363.041 310.735L366 306Z" fill="#FAD338" stroke="black" stroke-width="2" stroke-linecap="round" stroke-linejoin="round"/>
<path d="M364 301C364 301.552 363.552 302 363 302C362.448 302 362 301.552 362 301C362 300.448 362.448 300 363 300C363.552 300 364 300.448 364 301Z" fill="#FAD338" stroke="black" stroke-width="2" stroke-linejoin="round"/>
<path d="M363 296V297" stroke="black" stroke-width="2" stroke-linecap="round" stroke-linejoin="round"/>
<path d="M367.331 303.5L366.465 303" stroke="black" stroke-width="2" stroke-linecap="round" stroke-linejoin="round"/>
<path d="M359.536 299L358.67 298.5" stroke="black" stroke-width="2" stroke-linecap="round" stroke-linejoin="round"/>
<path d="M367.331 298.5L366.465 299" stroke="black" stroke-width="2" stroke-linecap="round" stroke-linejoin="round"/>
</svg>
