<svg width="60" height="60" viewBox="0 0 60 60" fill="none" xmlns="http://www.w3.org/2000/svg">
<g style="mix-blend-mode:multiply">
<path d="M29.9755 30.0088C25.8334 30.0088 22.4766 33.3667 22.4766 37.5088M29.9755 30.0088C34.1177 30.0088 37.4766 33.3667 37.4766 37.5088M29.9755 30.0088C25.8355 30.0088 22.4766 33.3688 22.4766 37.5088M29.9755 30.0088C34.1155 30.0088 37.4766 33.3688 37.4766 37.5088M22.4766 37.5088V42.5088C22.4766 43.0611 22.9243 43.5088 23.4766 43.5088H36.4766C37.0288 43.5088 37.4766 43.0611 37.4766 42.5088V37.5088" stroke="black" stroke-width="2" stroke-linecap="round"/>
<path d="M37.4766 22.5088C37.4766 26.6509 34.1187 30.0088 29.9766 30.0088M37.4766 22.5088V17.5088C37.4766 16.9565 37.0288 16.5088 36.4766 16.5088H23.4766C22.9243 16.5088 22.4766 16.9565 22.4766 17.5088V22.5088M37.4766 22.5088C37.4766 26.6488 34.1166 30.0088 29.9766 30.0088M29.9766 30.0088C25.8344 30.0088 22.4766 26.6509 22.4766 22.5088M29.9766 30.0088C25.8366 30.0088 22.4766 26.6488 22.4766 22.5088" stroke="black" stroke-width="2" stroke-linecap="round"/>
<path d="M19.5 43.5H40.5" stroke="black" stroke-width="2" stroke-linecap="round"/>
<path d="M19.5 16.5H40.5" stroke="black" stroke-width="2" stroke-linecap="round"/>
</g>
</svg>
