<svg width="96" height="24" viewBox="0 0 96 24" fill="none" xmlns="http://www.w3.org/2000/svg">
<g clip-path="url(#clip0_7729_11770)">
<path fill-rule="evenodd" clip-rule="evenodd" d="M31.1147 18.8973L32.2984 16.1467C33.577 17.1028 35.2804 17.5998 36.9611 17.5998C38.2017 17.5998 38.987 17.1218 38.987 16.3971C38.9681 14.3712 31.5548 15.9571 31.4979 10.8771C31.479 8.29723 33.7705 6.30925 37.018 6.30925C38.9491 6.30925 40.8764 6.78727 42.2535 7.87611L41.1457 10.6836C39.8862 9.87928 38.3193 9.3064 36.8283 9.3064C35.8153 9.3064 35.1476 9.78443 35.1476 10.3952C35.1666 12.3832 42.6367 11.2944 42.7126 16.1467C42.7126 18.7835 40.478 20.6387 37.2684 20.6387C34.9162 20.6349 32.7575 20.081 31.1147 18.8973ZM76.5691 15.1528C75.9772 16.1847 74.8694 16.8903 73.5871 16.8903C71.6939 16.8903 70.1688 15.3614 70.1688 13.4721C70.1688 11.5827 71.6977 10.0538 73.5871 10.0538C74.8656 10.0538 75.9772 10.7595 76.5691 11.7914L79.8356 9.97792C78.614 7.80024 76.2618 6.30925 73.5871 6.30925C69.6301 6.30925 66.4205 9.51886 66.4205 13.4759C66.4205 17.4329 69.6301 20.6425 73.5871 20.6425C76.2807 20.6425 78.614 19.1705 79.8356 16.9738L76.5691 15.1528ZM44.3553 0.364258H48.4451V20.3693H44.3553V0.364258ZM81.4404 0.364258V20.3693H85.5302V14.3674L90.3825 20.3693H95.6181L89.4454 13.2406L95.159 6.58999H90.1511L85.5264 12.1101V0.364258H81.4404Z" fill="#18181C"/>
<path d="M60.597 15.1907C60.0051 16.1657 58.7835 16.8903 57.4063 16.8903C55.5132 16.8903 53.9881 15.3614 53.9881 13.472C53.9881 11.5827 55.517 10.0538 57.4063 10.0538C58.7835 10.0538 60.0051 10.8163 60.597 11.8103V15.1907ZM60.597 6.59375V8.21753C59.9293 7.09075 58.2675 6.30542 56.5262 6.30542C52.9334 6.30542 50.1069 9.47709 50.1069 13.4531C50.1069 17.429 52.9334 20.6386 56.5262 20.6386C58.2637 20.6386 59.9255 19.8571 60.597 18.7265V20.3503H64.6868V6.59375H60.597Z" fill="#18181C"/>
<path fill-rule="evenodd" clip-rule="evenodd" d="M5.83637 15.1717C5.83637 16.5679 4.70959 17.6946 3.31345 17.6946C1.91731 17.6946 0.790527 16.5641 0.790527 15.1717C0.790527 13.7794 1.91731 12.6488 3.31345 12.6488H5.83637V15.1717ZM7.09593 15.1717C7.09593 13.7756 8.22271 12.6488 9.61885 12.6488C11.015 12.6488 12.1418 13.7756 12.1418 15.1717V21.4771C12.1418 22.8733 11.015 24.0001 9.61885 24.0001C8.22271 24.0001 7.09593 22.8733 7.09593 21.4771V15.1717Z" fill="#18181C"/>
<path fill-rule="evenodd" clip-rule="evenodd" d="M9.61878 5.04584C8.22264 5.04584 7.09586 3.91906 7.09586 2.52292C7.09586 1.12678 8.22264 0 9.61878 0C11.0149 0 12.1417 1.12678 12.1417 2.52292V5.04584H9.61878ZM9.61878 6.32438C11.0149 6.32438 12.1417 7.45115 12.1417 8.8473C12.1417 10.2434 11.0149 11.3702 9.61878 11.3702H3.29441C1.89826 11.3702 0.771484 10.2396 0.771484 8.8473C0.771484 7.45495 1.89826 6.32438 3.29441 6.32438H9.61878Z" fill="#18181C"/>
<path fill-rule="evenodd" clip-rule="evenodd" d="M19.7256 8.8473C19.7256 7.45115 20.8523 6.32438 22.2485 6.32438C23.6446 6.32438 24.7714 7.45115 24.7714 8.8473C24.7714 10.2434 23.6446 11.3702 22.2485 11.3702H19.7256V8.8473ZM18.466 8.8473C18.466 10.2434 17.3392 11.3702 15.9431 11.3702C14.5469 11.3702 13.4202 10.2434 13.4202 8.8473V2.52292C13.4202 1.12678 14.5469 0 15.9431 0C17.3392 0 18.466 1.12678 18.466 2.52292V8.8473Z" fill="#18181C"/>
<path fill-rule="evenodd" clip-rule="evenodd" d="M15.9431 18.9542C17.3392 18.9542 18.466 20.081 18.466 21.4771C18.466 22.8733 17.3392 24.0001 15.9431 24.0001C14.5469 24.0001 13.4202 22.8733 13.4202 21.4771V18.9542H15.9431ZM15.9431 17.6946C14.5469 17.6946 13.4202 16.5679 13.4202 15.1717C13.4202 13.7756 14.5469 12.6488 15.9431 12.6488H22.2675C23.6636 12.6488 24.7904 13.7756 24.7904 15.1717C24.7904 16.5679 23.6636 17.6946 22.2675 17.6946H15.9431Z" fill="#18181C"/>
</g>
<defs>
<clipPath id="clip0_7729_11770">
<rect width="94.8467" height="24" fill="white" transform="translate(0.771484)"/>
</clipPath>
</defs>
</svg>
