<svg width="340" height="260" viewBox="0 0 340 260" fill="none" xmlns="http://www.w3.org/2000/svg">
<rect x="0.5" y="0.5" width="339" height="259" rx="7.5" fill="white" stroke="#E8E8E8"/>
<path fill-rule="evenodd" clip-rule="evenodd" d="M136.423 80.8334H116.467C115.196 80.8334 114.167 79.8035 114.167 78.5336V41.4664C114.167 40.1961 115.196 39.1667 116.467 39.1667H153.534C154.804 39.1667 155.834 40.1961 155.834 41.4664V78.5336C155.834 79.8037 154.804 80.8334 153.534 80.8334H142.916V64.6978H148.332L149.143 58.4094H142.916V54.3947C142.916 52.5741 143.422 51.3334 146.033 51.3334L149.363 51.332V45.7076C148.787 45.631 146.81 45.4598 144.51 45.4598C139.709 45.4598 136.423 48.3903 136.423 53.772V58.4094H130.993V64.6978H136.423V80.8334Z" fill="#4267B2"/>
<path d="M149.432 183.287C148.388 182.323 144.179 179.241 134.806 179.197C134.806 179.197 123.748 178.525 118.357 183.509C115.356 186.534 114.299 190.961 114.192 196.452C114.079 201.944 113.934 212.223 123.773 215.014H123.779L123.773 219.269C123.773 219.269 123.71 220.994 124.836 221.342C126.195 221.767 126.993 220.461 128.296 219.047C129.006 218.273 129.994 217.132 130.736 216.263C137.461 216.834 142.638 215.527 143.223 215.337C144.582 214.893 152.269 213.898 153.515 203.618C154.804 193.021 152.885 186.312 149.432 183.287Z" fill="white"/>
<path d="M150.569 202.857C149.513 211.444 143.279 211.989 142.134 212.357C141.643 212.515 137.101 213.657 131.389 213.276C131.389 213.276 127.131 218.451 125.803 219.802C125.596 220.011 125.351 220.1 125.187 220.055C124.961 219.998 124.898 219.726 124.898 219.326C124.904 218.755 124.935 212.255 124.935 212.255C124.929 212.255 124.929 212.255 124.935 212.255C116.619 209.928 117.104 201.171 117.198 196.586C117.292 192.001 118.148 188.247 120.683 185.723C125.244 181.563 134.635 182.184 134.635 182.184C142.568 182.222 146.367 184.626 147.248 185.431C150.167 187.961 151.658 194.005 150.569 202.857Z" fill="#665CAC"/>
<path d="M138.661 196.218C138.56 194.119 137.503 193.022 135.49 192.914" stroke="white" stroke-width="0.513086" stroke-linecap="round" stroke-linejoin="round"/>
<path d="M141.379 197.137C141.423 195.184 140.851 193.554 139.656 192.242C138.46 190.929 136.806 190.2 134.68 190.048" stroke="white" stroke-width="0.513086" stroke-linecap="round" stroke-linejoin="round"/>
<path d="M144.165 198.234C144.14 194.842 143.134 192.178 141.152 190.225C139.171 188.278 136.698 187.289 133.748 187.27" stroke="white" stroke-width="0.513086" stroke-linecap="round" stroke-linejoin="round"/>
<path fill-rule="evenodd" clip-rule="evenodd" d="M135.597 203.377C135.597 203.377 136.345 203.441 136.742 202.94L137.522 201.95C137.899 201.456 138.811 201.145 139.705 201.646C140.202 201.931 141.095 202.483 141.648 202.895C142.24 203.333 143.454 204.354 143.454 204.354C144.033 204.842 144.165 205.565 143.775 206.326C143.775 206.332 143.768 206.339 143.768 206.339C143.366 207.055 142.825 207.734 142.139 208.362C142.133 208.368 142.133 208.368 142.127 208.374C141.567 208.844 141.013 209.116 140.472 209.18C140.409 209.192 140.327 209.199 140.233 209.192C139.994 209.192 139.761 209.161 139.529 209.085L139.51 209.059C138.673 208.825 137.283 208.229 134.962 206.941C133.452 206.104 132.2 205.248 131.143 204.398C130.583 203.954 130.011 203.447 129.426 202.864C129.407 202.845 129.388 202.826 129.369 202.807C129.35 202.788 129.332 202.769 129.313 202.749C129.294 202.73 129.275 202.711 129.256 202.692C129.237 202.673 129.218 202.654 129.199 202.635C128.621 202.046 128.117 201.469 127.677 200.904C126.834 199.839 125.985 198.57 125.155 197.055C123.878 194.715 123.286 193.313 123.054 192.47L123.028 192.451C122.953 192.216 122.915 191.982 122.921 191.741C122.915 191.646 122.921 191.563 122.934 191.5C122.997 190.954 123.267 190.396 123.733 189.832C123.739 189.826 123.739 189.826 123.745 189.819C124.368 189.128 125.035 188.583 125.752 188.177C125.758 188.177 125.765 188.17 125.765 188.17C126.52 187.777 127.237 187.91 127.721 188.494C127.727 188.5 128.734 189.718 129.168 190.314C129.577 190.878 130.13 191.772 130.407 192.273C130.904 193.174 130.596 194.093 130.105 194.474L129.124 195.26C128.627 195.666 128.69 196.414 128.69 196.414C128.69 196.414 130.149 201.976 135.597 203.377Z" fill="white"/>
<path fill-rule="evenodd" clip-rule="evenodd" d="M44.167 130C44.167 118.512 53.5092 109.167 64.9943 109.167V109.167H65.0064C76.4914 109.167 85.8337 118.512 85.8337 130C85.8337 141.488 76.4914 150.833 65.0064 150.833C60.7698 150.833 56.8394 149.572 53.5459 147.392L45.5382 149.951L48.134 142.211C45.6363 138.781 44.167 134.556 44.167 130ZM57.8566 118.72C58.4686 118.745 58.7748 118.781 59.1787 119.749C59.3092 120.064 59.4885 120.499 59.6849 120.976C60.2444 122.333 60.9433 124.029 61.052 124.256C61.1989 124.562 61.3461 124.979 61.1377 125.383C60.9554 125.77 60.7944 125.956 60.5264 126.266C60.5063 126.29 60.4856 126.314 60.4642 126.338C60.3332 126.49 60.2044 126.627 60.076 126.763C59.9044 126.944 59.7333 127.125 59.5581 127.343C59.5532 127.348 59.5483 127.354 59.5434 127.36C59.266 127.686 58.9644 128.04 59.3135 128.641C59.6684 129.241 60.8927 131.237 62.6927 132.841C64.829 134.742 66.5932 135.455 67.389 135.777C67.4599 135.806 67.5231 135.832 67.5783 135.855C68.08 136.063 68.6803 136.014 69.0476 135.622C69.4458 135.193 69.9243 134.521 70.4223 133.822C70.5065 133.704 70.5912 133.585 70.6762 133.466C71.0923 132.878 71.6186 132.805 72.1697 133.013C72.733 133.209 75.7086 134.679 76.3206 134.985C76.4456 135.048 76.5619 135.103 76.6692 135.155C77.087 135.356 77.3669 135.491 77.4838 135.695C77.631 135.952 77.631 137.165 77.1289 138.586C76.6268 140.006 74.6308 141.183 73.0392 141.525C71.9496 141.758 70.529 141.942 65.7416 139.958C60.0712 137.609 56.2702 132.098 55.4971 130.977C55.4356 130.888 55.3932 130.826 55.3706 130.797C55.362 130.785 55.3518 130.771 55.3401 130.755C54.9511 130.223 52.8975 127.414 52.8975 124.513C52.8975 121.608 54.3319 120.15 54.9743 119.497C54.9928 119.478 55.0107 119.46 55.0278 119.443C55.5299 118.928 56.3624 118.696 57.1586 118.696C57.416 118.696 57.6482 118.708 57.8566 118.72Z" fill="#4FCE5D"/>
<path d="M64.9943 109.167H65.4943V108.667H64.9943V109.167ZM64.9943 109.167H64.4943V109.667H64.9943V109.167ZM53.5459 147.392L53.8218 146.975L53.622 146.843L53.3936 146.916L53.5459 147.392ZM45.5382 149.951L45.0641 149.792L44.7503 150.728L45.6904 150.428L45.5382 149.951ZM48.134 142.211L48.6081 142.37L48.6901 142.125L48.5382 141.917L48.134 142.211ZM59.1787 119.749L59.6407 119.558L59.6401 119.556L59.1787 119.749ZM57.8566 118.72L57.8276 119.219L57.8363 119.22L57.8566 118.72ZM59.6849 120.976L60.1472 120.785L59.6849 120.976ZM61.052 124.256L61.5028 124.04V124.04L61.052 124.256ZM61.1377 125.383L60.6933 125.154L60.6891 125.162L60.6853 125.17L61.1377 125.383ZM60.5264 126.266L60.1482 125.939L60.1482 125.939L60.5264 126.266ZM60.4642 126.338L60.0856 126.012L60.0854 126.012L60.4642 126.338ZM60.076 126.763L60.4395 127.106V127.106L60.076 126.763ZM59.5581 127.343L59.939 127.667L59.9474 127.657L59.5581 127.343ZM59.5434 127.36L59.924 127.684L59.924 127.684L59.5434 127.36ZM59.3135 128.641L58.881 128.892L58.8831 128.896L59.3135 128.641ZM62.6927 132.841L62.3601 133.215L62.3604 133.215L62.6927 132.841ZM67.389 135.777L67.2015 136.241L67.2015 136.241L67.389 135.777ZM67.5783 135.855L67.3855 136.316L67.3864 136.316L67.5783 135.855ZM69.0476 135.622L69.4124 135.964L69.4142 135.962L69.0476 135.622ZM70.4223 133.822L70.8295 134.112L70.8295 134.112L70.4223 133.822ZM70.6762 133.466L71.0827 133.758L71.0844 133.755L70.6762 133.466ZM72.1697 133.013L71.9931 133.481L72.0054 133.485L72.1697 133.013ZM76.3206 134.985L76.5446 134.538L76.5444 134.538L76.3206 134.985ZM76.6692 135.155L76.4525 135.606L76.4525 135.606L76.6692 135.155ZM77.4838 135.695L77.0496 135.943L77.0498 135.944L77.4838 135.695ZM77.1289 138.586L77.6003 138.753L77.6003 138.753L77.1289 138.586ZM73.0392 141.525L73.1436 142.014L73.1445 142.014L73.0392 141.525ZM65.7416 139.958L65.933 139.496L65.9329 139.496L65.7416 139.958ZM55.4971 130.977L55.0855 131.261L55.0855 131.261L55.4971 130.977ZM55.3706 130.797L54.966 131.09L54.9722 131.099L55.3706 130.797ZM55.3401 130.755L55.7437 130.46L55.7437 130.46L55.3401 130.755ZM54.9743 119.497L55.3307 119.848L55.3307 119.848L54.9743 119.497ZM55.0278 119.443L55.385 119.793L55.3856 119.792L55.0278 119.443ZM64.9943 108.667C53.2329 108.667 43.667 118.236 43.667 130H44.667C44.667 118.788 53.7855 109.667 64.9943 109.667V108.667ZM65.4943 109.167V109.167H64.4943V109.167H65.4943ZM65.0064 108.667H64.9943V109.667H65.0064V108.667ZM86.3337 130C86.3337 118.236 76.7677 108.667 65.0064 108.667V109.667C76.2151 109.667 85.3337 118.788 85.3337 130H86.3337ZM65.0064 151.333C76.7677 151.333 86.3337 141.764 86.3337 130H85.3337C85.3337 141.212 76.2151 150.333 65.0064 150.333V151.333ZM53.2699 147.809C56.6428 150.042 60.6688 151.333 65.0064 151.333V150.333C60.8708 150.333 57.036 149.103 53.8218 146.975L53.2699 147.809ZM45.6904 150.428L53.6981 147.868L53.3936 146.916L45.386 149.475L45.6904 150.428ZM47.66 142.052L45.0641 149.792L46.0122 150.11L48.6081 142.37L47.66 142.052ZM43.667 130C43.667 134.665 45.1718 138.993 47.7299 142.505L48.5382 141.917C46.1008 138.57 44.667 134.447 44.667 130H43.667ZM59.6401 119.556C59.4295 119.052 59.2041 118.682 58.8695 118.463C58.533 118.242 58.1626 118.232 57.8769 118.22L57.8363 119.22C58.1626 119.233 58.2512 119.253 58.3219 119.299C58.3943 119.347 58.5239 119.478 58.7173 119.942L59.6401 119.556ZM60.1472 120.785C59.9508 120.309 59.7714 119.873 59.6407 119.558L58.7168 119.94C58.847 120.255 59.0261 120.689 59.2226 121.166L60.1472 120.785ZM61.5028 124.04C61.4022 123.83 60.7125 122.157 60.1472 120.785L59.2226 121.166C59.7763 122.51 60.4844 124.229 60.6012 124.472L61.5028 124.04ZM61.5821 125.612C61.9088 124.978 61.6561 124.359 61.5028 124.04L60.6012 124.472C60.7416 124.765 60.7833 124.979 60.6933 125.154L61.5821 125.612ZM60.9045 126.593C61.177 126.278 61.3769 126.049 61.5901 125.596L60.6853 125.17C60.534 125.492 60.4118 125.635 60.1482 125.939L60.9045 126.593ZM60.8428 126.665C60.8639 126.64 60.8844 126.617 60.9045 126.593L60.1482 125.939C60.1282 125.962 60.1072 125.987 60.0856 126.012L60.8428 126.665ZM60.4395 127.106C60.567 126.971 60.7034 126.827 60.843 126.665L60.0854 126.012C59.963 126.154 59.8418 126.282 59.7125 126.419L60.4395 127.106ZM59.9474 127.657C60.1086 127.457 60.2667 127.289 60.4395 127.106L59.7125 126.419C59.542 126.6 59.358 126.794 59.1688 127.029L59.9474 127.657ZM59.924 127.684C59.9289 127.679 59.9339 127.673 59.9389 127.667L59.1774 127.019C59.1726 127.024 59.1678 127.03 59.1628 127.036L59.924 127.684ZM59.7459 128.39C59.6323 128.194 59.6526 128.102 59.669 128.052C59.6995 127.958 59.7722 127.862 59.924 127.684L59.1628 127.036C59.0371 127.183 58.8204 127.428 58.718 127.743C58.6016 128.101 58.6456 128.486 58.881 128.892L59.7459 128.39ZM63.0254 132.468C61.2848 130.917 60.0922 128.976 59.7439 128.387L58.8831 128.896C59.2446 129.507 60.5006 131.558 62.3601 133.215L63.0254 132.468ZM67.5765 135.314C66.8046 135.002 65.1001 134.314 63.0251 132.468L62.3604 133.215C64.5579 135.17 66.3818 135.909 67.2015 136.241L67.5765 135.314ZM67.771 135.393C67.7127 135.369 67.6466 135.342 67.5764 135.314L67.2015 136.241C67.2732 136.27 67.3336 136.294 67.3855 136.316L67.771 135.393ZM68.6827 135.28C68.4981 135.477 68.1401 135.547 67.7701 135.393L67.3864 136.316C68.02 136.579 68.8625 136.551 69.4124 135.964L68.6827 135.28ZM70.0151 133.532C69.5093 134.242 69.052 134.882 68.681 135.282L69.4142 135.962C69.8395 135.503 70.3394 134.8 70.8295 134.112L70.0151 133.532ZM70.2697 133.175C70.1843 133.294 70.0992 133.414 70.0151 133.532L70.8295 134.112C70.9138 133.994 70.9981 133.876 71.0827 133.758L70.2697 133.175ZM72.3463 132.545C72.0059 132.417 71.6273 132.358 71.246 132.457C70.8581 132.559 70.5301 132.807 70.2681 133.178L71.0844 133.755C71.2384 133.538 71.3816 133.455 71.4986 133.425C71.6222 133.393 71.7824 133.401 71.9931 133.481L72.3463 132.545ZM76.5444 134.538C76.2364 134.384 75.3374 133.939 74.4443 133.507C73.5696 133.085 72.6504 132.651 72.334 132.541L72.0054 133.485C72.2523 133.571 73.1025 133.97 74.0094 134.408C74.898 134.837 75.7928 135.28 76.0968 135.432L76.5444 134.538ZM76.8859 134.704C76.7783 134.653 76.6654 134.598 76.5446 134.538L76.0966 135.432C76.2257 135.497 76.3455 135.554 76.4525 135.606L76.8859 134.704ZM77.9179 135.447C77.7983 135.238 77.6157 135.099 77.4517 134.998C77.2878 134.897 77.0866 134.801 76.8859 134.704L76.4525 135.606C76.6696 135.71 76.8172 135.782 76.9269 135.849C77.0365 135.917 77.0524 135.948 77.0496 135.943L77.9179 135.447ZM77.6003 138.753C77.8657 138.002 78 137.302 78.0479 136.747C78.0719 136.471 78.0749 136.223 78.0596 136.018C78.0463 135.84 78.0147 135.616 77.9177 135.447L77.0498 135.944C77.0264 135.903 77.05 135.927 77.0624 136.093C77.0728 136.232 77.0721 136.425 77.0517 136.661C77.0109 137.133 76.8942 137.749 76.6574 138.419L77.6003 138.753ZM73.1445 142.014C74.0054 141.829 74.9612 141.423 75.7727 140.874C76.5751 140.331 77.2985 139.606 77.6003 138.753L76.6575 138.419C76.4572 138.986 75.9315 139.559 75.2125 140.046C74.5025 140.526 73.6646 140.879 72.9339 141.037L73.1445 142.014ZM65.5502 140.42C67.9603 141.419 69.5534 141.885 70.6987 142.067C71.8653 142.252 72.5571 142.14 73.1436 142.014L72.9348 141.036C72.4317 141.144 71.8683 141.24 70.8554 141.079C69.8212 140.915 68.3103 140.481 65.933 139.496L65.5502 140.42ZM55.0855 131.261C55.8558 132.378 59.7291 138.009 65.5503 140.42L65.9329 139.496C60.4132 137.21 56.6846 131.818 55.9087 130.693L55.0855 131.261ZM54.9722 131.099C54.986 131.117 55.0195 131.165 55.0855 131.261L55.9087 130.693C55.8517 130.61 55.8004 130.536 55.769 130.494L54.9722 131.099ZM54.9364 131.05C54.9483 131.066 54.958 131.079 54.9661 131.09L55.7752 130.503C55.766 130.49 55.7553 130.475 55.7437 130.46L54.9364 131.05ZM52.3975 124.513C52.3975 126.073 52.947 127.581 53.5251 128.745C54.1064 129.915 54.7373 130.777 54.9365 131.05L55.7437 130.46C55.5539 130.2 54.9634 129.392 54.4207 128.3C53.8747 127.201 53.3975 125.854 53.3975 124.513H52.3975ZM54.6178 119.147C53.9453 119.83 52.3975 121.41 52.3975 124.513H53.3975C53.3975 121.807 54.7185 120.47 55.3307 119.848L54.6178 119.147ZM54.6707 119.093C54.6539 119.11 54.6364 119.128 54.6178 119.147L55.3307 119.848C55.3492 119.829 55.3674 119.811 55.385 119.793L54.6707 119.093ZM57.1586 118.196C56.2905 118.196 55.3026 118.446 54.6701 119.093L55.3856 119.792C55.7573 119.411 56.4343 119.196 57.1586 119.196V118.196ZM57.8856 118.221C57.6754 118.209 57.4312 118.196 57.1586 118.196V119.196C57.4008 119.196 57.6211 119.207 57.8276 119.219L57.8856 118.221Z" fill="white"/>
<path d="M185.167 51.6667C185.167 45.3155 190.316 40.1667 196.667 40.1667H213.334C219.685 40.1667 224.834 45.3155 224.834 51.6667V68.3334C224.834 74.6847 219.685 79.8334 213.334 79.8334H196.667C190.316 79.8334 185.167 74.6847 185.167 68.3334V51.6667Z" fill="white" stroke="url(#paint0_linear_7592_12550)" stroke-width="2"/>
<path d="M195.583 59.9999C195.583 54.7652 199.765 50.5833 205 50.5833C210.234 50.5833 214.416 54.7652 214.416 59.9999C214.416 65.2347 210.234 69.4166 205 69.4166C199.765 69.4166 195.583 65.2347 195.583 59.9999Z" fill="white" stroke="url(#paint1_linear_7592_12550)" stroke-width="2"/>
<path d="M217.5 47.5001C217.5 48.6219 216.538 49.5834 215.416 49.5834C214.295 49.5834 213.333 48.6219 213.333 47.5001C213.333 46.3783 214.295 45.4167 215.416 45.4167C216.698 45.4167 217.5 46.3783 217.5 47.5001Z" fill="#C13584"/>
<path fill-rule="evenodd" clip-rule="evenodd" d="M275 220.833C286.506 220.833 295.834 211.506 295.834 200C295.834 188.494 286.506 179.167 275 179.167C263.494 179.167 254.167 188.494 254.167 200C254.167 211.506 263.494 220.833 275 220.833Z" fill="#00B900"/>
<path fill-rule="evenodd" clip-rule="evenodd" d="M275.39 189.881C281.524 189.881 286.495 193.862 286.495 198.773C286.495 200.489 285.888 202.091 284.838 203.449C284.786 203.526 284.718 203.612 284.632 203.706L284.625 203.713C284.266 204.143 283.862 204.546 283.418 204.918C280.347 207.757 275.292 211.136 274.625 210.615C274.407 210.444 274.488 210.025 274.579 209.549C274.732 208.757 274.915 207.806 273.809 207.576C273.685 207.562 273.562 207.546 273.44 207.529L273.438 207.529V207.529C268.236 206.79 264.285 203.151 264.285 198.773C264.285 193.862 269.257 189.881 275.39 189.881ZM268.946 201.61H268.983H268.994H271.185C271.504 201.61 271.764 201.349 271.764 201.031V200.982C271.764 200.664 271.504 200.403 271.185 200.403H269.573V196.735C269.573 196.416 269.312 196.156 268.994 196.156H268.946C268.627 196.156 268.366 196.416 268.366 196.735V201.031C268.366 201.349 268.627 201.61 268.946 201.61ZM282.824 198.869V198.917C282.824 199.236 282.563 199.497 282.245 199.496H280.633V200.413H282.245C282.563 200.413 282.824 200.674 282.824 200.993V201.041C282.824 201.36 282.563 201.62 282.245 201.62H280.053H280.042H280.005C279.687 201.62 279.426 201.36 279.426 201.041V196.745C279.426 196.427 279.687 196.166 280.005 196.166H280.042H280.053H282.245C282.563 196.166 282.824 196.427 282.824 196.745V196.794C282.824 197.112 282.563 197.373 282.245 197.373H280.633V198.29H282.245C282.563 198.29 282.824 198.55 282.824 198.869ZM278.518 201.437L278.518 201.437C278.622 201.332 278.686 201.189 278.686 201.031V196.735C278.686 196.417 278.425 196.156 278.106 196.156H278.058C277.74 196.156 277.479 196.417 277.479 196.735V199.257L275.385 196.449C275.285 196.274 275.097 196.156 274.883 196.156H274.834C274.516 196.156 274.255 196.417 274.255 196.735V201.031C274.255 201.349 274.516 201.61 274.834 201.61H274.883C275.201 201.61 275.462 201.349 275.462 201.031V198.462L277.57 201.342C277.583 201.362 277.597 201.381 277.613 201.4L277.613 201.4C277.671 201.479 277.75 201.533 277.838 201.566C277.906 201.594 277.98 201.61 278.058 201.61H278.106C278.204 201.61 278.296 201.585 278.377 201.542C278.435 201.515 278.484 201.479 278.518 201.437ZM272.859 201.61H272.811C272.493 201.61 272.232 201.349 272.232 201.031V196.735C272.232 196.417 272.493 196.156 272.811 196.156H272.859C273.178 196.156 273.439 196.417 273.439 196.735V201.031C273.439 201.349 273.178 201.61 272.859 201.61Z" fill="white"/>
<path d="M205.403 109.167C207.127 109.167 212.965 109.677 215.714 116.236C216.639 118.443 216.418 122.192 216.239 125.204L216.232 125.332C216.212 125.66 216.194 125.975 216.178 126.28C216.306 126.356 216.532 126.448 216.877 126.465C217.398 126.44 218.002 126.258 218.673 125.923C218.959 125.781 219.265 125.751 219.471 125.751C219.773 125.751 220.08 125.814 220.34 125.929L220.342 125.929C221.113 126.222 221.599 126.814 221.611 127.477C221.626 128.321 220.917 129.049 219.505 129.643C219.333 129.715 219.123 129.786 218.9 129.861C218.103 130.13 216.898 130.537 216.571 131.357C216.402 131.781 216.469 132.327 216.771 132.98C216.778 132.995 216.785 133.01 216.791 133.025C216.897 133.287 219.445 139.472 225.11 140.465C225.545 140.541 225.857 140.954 225.832 141.423C225.825 141.564 225.793 141.704 225.739 141.838C225.315 142.891 223.522 143.664 220.257 144.204C220.149 144.359 220.036 144.909 219.967 145.246L219.967 145.249C219.897 145.588 219.826 145.923 219.728 146.278C219.592 146.773 219.25 147.046 218.764 147.046H218.741L218.717 147.045C218.485 147.045 218.169 147.004 217.776 146.922C217.148 146.791 216.444 146.671 215.555 146.671C215.038 146.671 214.502 146.719 213.963 146.814C212.911 147 212.018 147.671 210.981 148.45L210.977 148.453C209.494 149.569 207.814 150.833 205.258 150.833C205.144 150.833 205.036 150.83 204.953 150.826C204.883 150.831 204.813 150.833 204.742 150.833C202.188 150.833 200.507 149.569 199.023 148.453C197.987 147.674 197.092 147.001 196.038 146.814C195.499 146.719 194.963 146.671 194.446 146.671C193.514 146.671 192.769 146.826 192.225 146.939C191.863 147.014 191.55 147.08 191.284 147.08C190.627 147.08 190.372 146.653 190.273 146.297C190.173 145.934 190.103 145.59 190.034 145.257L190.033 145.248C189.963 144.91 189.851 144.363 189.743 144.208C186.478 143.669 184.685 142.894 184.26 141.837C184.207 141.702 184.176 141.563 184.168 141.424C184.144 140.955 184.455 140.542 184.891 140.466C190.553 139.474 193.104 133.288 193.21 133.025C193.215 133.013 193.22 133.001 193.225 132.989C193.227 132.986 193.228 132.983 193.229 132.981C193.531 132.328 193.599 131.781 193.43 131.357C193.103 130.538 191.899 130.131 191.102 129.861C190.881 129.787 190.67 129.716 190.496 129.643C188.566 128.832 188.297 127.9 188.411 127.261C188.57 126.374 189.586 125.779 190.437 125.779C190.682 125.779 190.904 125.827 191.097 125.923C191.823 126.285 192.468 126.469 193.013 126.469C193.422 126.469 193.682 126.364 193.824 126.281C193.808 125.996 193.791 125.703 193.774 125.416C193.77 125.344 193.766 125.272 193.761 125.201L193.761 125.197C193.584 122.187 193.363 118.444 194.286 116.24C197.035 109.684 202.86 109.175 204.579 109.175C204.632 109.175 205.3 109.167 205.3 109.167C205.332 109.167 205.367 109.167 205.403 109.167Z" fill="#FFFC00" stroke="black"/>
<path fill-rule="evenodd" clip-rule="evenodd" d="M275 80.8334C286.506 80.8334 295.834 71.506 295.834 60.0001C295.834 48.4941 286.506 39.1667 275 39.1667C263.494 39.1667 254.167 48.4941 254.167 60.0001C254.167 71.506 263.494 80.8334 275 80.8334Z" fill="#0088CC"/>
<path fill-rule="evenodd" clip-rule="evenodd" d="M271.181 69.5487C270.506 69.5487 270.621 69.2939 270.388 68.6512L268.403 62.1192L283.681 53.0557" fill="#C8DAEA"/>
<path fill-rule="evenodd" clip-rule="evenodd" d="M271.18 69.5486C271.701 69.5486 271.931 69.3104 272.221 69.0278L274.999 66.3267L271.534 64.2373" fill="#A9C9DD"/>
<path fill-rule="evenodd" clip-rule="evenodd" d="M271.534 64.2379L279.93 70.4408C280.888 70.9695 281.58 70.6958 281.818 69.5513L285.236 53.4467C285.586 52.0438 284.701 51.4076 283.785 51.8237L263.717 59.5617C262.347 60.1111 262.355 60.8754 263.467 61.2159L268.617 62.8232L280.54 55.3015C281.102 54.9602 281.619 55.1437 281.195 55.52" fill="#F3F9FD"/>
<path d="M44.167 72.8282C47.8616 75.2524 52.3772 76.6666 57.3033 76.6666C73.1079 76.6666 82.1391 63.5353 81.5234 51.6161C83.1654 50.4039 84.6021 48.9898 85.8337 47.1716C84.3969 47.7777 82.7548 48.3837 80.9076 48.5858C82.7548 47.5757 83.9864 45.9595 84.6022 43.9393C82.9601 44.9494 81.1128 45.5555 79.2655 45.9595C77.6235 44.3434 75.571 43.3333 73.1079 43.3333C67.566 43.3333 63.4609 48.3837 64.6925 53.6363C57.5085 53.2322 51.3509 49.9999 47.0405 44.9494C44.7827 48.7878 45.8091 53.6363 49.7089 56.2625C48.2721 56.2625 47.0405 55.8585 45.809 55.2524C45.809 59.0908 48.4774 62.7272 52.5824 63.5353C51.3509 63.9393 50.1194 63.9393 48.6826 63.7373C49.7089 67.1716 52.993 69.5959 56.6875 69.5959C53.1982 72.2221 48.6826 73.4342 44.167 72.8282Z" fill="#1DA1F2"/>
<path fill-rule="evenodd" clip-rule="evenodd" d="M135 109.167C123.263 109.167 114.167 117.764 114.167 129.376C114.167 135.45 116.657 140.698 120.71 144.324C121.05 144.63 121.255 145.053 121.272 145.51L121.385 149.216C121.423 150.398 122.643 151.165 123.724 150.691L127.857 148.868C128.21 148.713 128.599 148.684 128.968 148.784C130.867 149.308 132.892 149.585 135 149.585C146.737 149.585 155.834 140.987 155.834 129.376C155.834 117.764 146.737 109.167 135 109.167Z" fill="url(#paint2_linear_7592_12550)"/>
<path fill-rule="evenodd" clip-rule="evenodd" d="M122.491 135.287L128.611 125.578C129.584 124.036 131.671 123.65 133.13 124.744L137.997 128.395C138.445 128.73 139.057 128.726 139.502 128.391L146.075 123.403C146.951 122.736 148.099 123.788 147.508 124.719L141.392 134.423C140.42 135.966 138.332 136.351 136.874 135.257L132.007 131.606C131.558 131.271 130.946 131.275 130.502 131.61L123.925 136.603C123.049 137.269 121.9 136.217 122.491 135.287Z" fill="white"/>
<path fill-rule="evenodd" clip-rule="evenodd" d="M283.297 145.418C284.737 145.418 286.13 145.233 287.383 144.863C287.476 144.817 287.615 144.817 287.755 144.817C287.987 144.817 288.219 144.91 288.405 145.002L291.144 146.575C291.237 146.621 291.283 146.667 291.376 146.667C291.608 146.667 291.794 146.482 291.794 146.251C291.794 146.158 291.748 146.066 291.748 145.927C291.748 145.881 291.376 144.632 291.191 143.846C291.144 143.753 291.144 143.661 291.144 143.568C291.144 143.291 291.283 143.059 291.516 142.874C294.162 140.978 295.834 138.157 295.834 135.011C295.834 129.276 290.216 124.604 283.297 124.604C276.379 124.604 270.761 129.23 270.761 135.011C270.761 140.747 276.379 145.418 283.297 145.418Z" fill="#2E3233"/>
<path fill-rule="evenodd" clip-rule="evenodd" d="M259.38 135.094C256.215 132.844 254.167 129.447 254.167 125.728C254.167 118.888 260.916 113.333 269.247 113.333C276.69 113.333 282.871 117.767 284.104 123.59C283.849 123.578 283.592 123.572 283.333 123.572C275.828 123.572 269.734 128.666 269.734 135.034C269.734 136.094 269.905 137.122 270.227 138.098C269.903 138.115 269.576 138.124 269.247 138.124C267.525 138.124 265.849 137.894 264.314 137.435C264.174 137.389 263.988 137.389 263.848 137.389H263.848C263.569 137.389 263.29 137.481 263.057 137.619L259.752 139.501C259.659 139.547 259.566 139.593 259.473 139.593C259.194 139.593 258.961 139.363 258.961 139.088C258.961 138.979 258.99 138.898 259.025 138.801C259.035 138.776 259.044 138.749 259.054 138.72C259.101 138.674 259.52 137.159 259.752 136.241C259.752 136.195 259.764 136.138 259.776 136.081C259.787 136.023 259.799 135.966 259.799 135.92C259.799 135.553 259.659 135.277 259.38 135.094Z" fill="#9DE60B"/>
<path fill-rule="evenodd" clip-rule="evenodd" d="M266.158 121.727C266.158 122.798 265.302 123.645 264.22 123.645C263.139 123.645 262.282 122.798 262.282 121.727C262.282 120.656 263.139 119.808 264.22 119.808C265.302 119.808 266.158 120.656 266.158 121.727Z" fill="white"/>
<path fill-rule="evenodd" clip-rule="evenodd" d="M276.212 121.727C276.212 122.798 275.356 123.645 274.274 123.645C273.192 123.645 272.336 122.798 272.336 121.727C272.336 120.656 273.192 119.808 274.274 119.808C275.356 119.808 276.212 120.656 276.212 121.727Z" fill="white"/>
<path fill-rule="evenodd" clip-rule="evenodd" d="M285.902 131.799C285.902 132.731 286.656 133.477 287.598 133.477C288.54 133.477 289.294 132.731 289.294 131.799C289.294 130.866 288.54 130.12 287.598 130.12C286.656 130.12 285.902 130.866 285.902 131.799Z" fill="white"/>
<path fill-rule="evenodd" clip-rule="evenodd" d="M277.544 131.799C277.544 132.731 278.298 133.477 279.24 133.477C280.182 133.477 280.935 132.731 280.935 131.799C280.935 130.866 280.182 130.12 279.24 130.12C278.298 130.12 277.544 130.866 277.544 131.799Z" fill="white"/>
<path fill-rule="evenodd" clip-rule="evenodd" d="M83.7497 199.88C82.7094 200.128 81.702 200.237 80.7968 200.237C75.6991 200.237 71.7754 196.565 71.7754 190.181C71.7754 187.052 72.9482 185.425 74.607 185.425C76.1851 185.425 77.2367 186.886 77.2367 189.848C77.2367 191.533 76.7986 193.378 76.4767 194.47C76.4767 194.47 78.0472 197.296 82.342 196.429C83.2535 194.341 83.7497 191.636 83.7497 189.263C83.7497 182.88 80.5936 179.167 74.809 179.167C68.8629 179.167 65.3836 183.882 65.3836 190.098C65.3836 196.257 68.1749 201.544 72.7778 203.953C70.8424 207.946 68.3794 211.464 65.8103 214.115C61.1506 208.304 56.9378 200.552 55.2083 185.425H48.333C51.5093 210.619 60.9764 218.641 63.4786 220.181C64.895 221.058 66.1146 221.016 67.4086 220.265C69.4411 219.072 75.5438 212.78 78.9259 205.409C80.3449 205.405 82.0504 205.237 83.7497 204.84V199.88Z" fill="#00B687"/>
<path fill-rule="evenodd" clip-rule="evenodd" d="M214.885 185.692L213.943 190.346C213.836 190.841 213.378 191.282 212.813 191.282H204.631C203.716 191.282 202.963 192.053 202.963 192.989V194.008C202.963 194.944 203.716 195.715 204.631 195.715H211.548C212.194 195.715 212.732 196.349 212.598 197.037C212.463 197.753 211.736 201.388 211.656 201.774C211.602 202.187 211.171 202.71 210.525 202.71H204.873C203.689 202.738 203.447 202.765 202.747 203.646C202.048 204.528 195.858 212.458 195.858 212.458C195.804 212.541 195.75 212.513 195.75 212.431V185.471C195.75 184.838 196.261 184.315 196.88 184.315H213.862C214.455 184.315 215.047 184.921 214.885 185.692ZM216.123 179.881C216.123 179.881 198.064 179.881 195.158 179.881C192.278 179.881 191.417 182.111 191.417 183.516V217.608C191.417 219.287 192.251 219.783 192.709 219.976C193.166 220.168 194.377 220.306 195.239 219.425C195.239 219.425 205.196 207.556 205.358 207.363C205.519 207.171 205.6 207.171 205.708 207.171C205.815 207.171 209.933 207.171 212.005 207.171C214.697 207.171 215.208 205.271 215.504 204.114C215.746 203.15 218.518 189.381 219.379 185.03C220.025 181.671 219.191 179.881 216.123 179.881Z" fill="#FA4778"/>
<defs>
<linearGradient id="paint0_linear_7592_12550" x1="222.709" y1="39.1667" x2="195.72" y2="81.7603" gradientUnits="userSpaceOnUse">
<stop stop-color="#405DE6"/>
<stop offset="0.0989583" stop-color="#5851DB"/>
<stop offset="0.234375" stop-color="#833AB4"/>
<stop offset="0.354167" stop-color="#C13584"/>
<stop offset="0.458333" stop-color="#E1306C"/>
<stop offset="0.602519" stop-color="#FD1D1D"/>
<stop offset="0.719374" stop-color="#F56040"/>
<stop offset="0.835801" stop-color="#F77737"/>
<stop offset="0.905863" stop-color="#FCAF45"/>
<stop offset="1" stop-color="#FFDC80"/>
</linearGradient>
<linearGradient id="paint1_linear_7592_12550" x1="210.208" y1="51.6666" x2="198.75" y2="71.4583" gradientUnits="userSpaceOnUse">
<stop offset="0.0759208" stop-color="#C13584"/>
<stop offset="0.37476" stop-color="#E1306C"/>
<stop offset="0.528309" stop-color="#FF3939"/>
<stop offset="0.659894" stop-color="#F56040"/>
<stop offset="0.834588" stop-color="#F77737"/>
<stop offset="1" stop-color="#FCAF45"/>
</linearGradient>
<linearGradient id="paint2_linear_7592_12550" x1="135" y1="109.167" x2="135" y2="150.833" gradientUnits="userSpaceOnUse">
<stop offset="0.166667" stop-color="#00B2FF"/>
<stop offset="1" stop-color="#006AFF"/>
</linearGradient>
</defs>
</svg>
