<svg width="48" height="48" viewBox="0 0 48 48" fill="none" xmlns="http://www.w3.org/2000/svg">
<path d="M36.0821 22.4889C34.8413 23.1681 34 24.4858 34 26V28C34 29.1046 33.1046 30 32 30H16C14.8954 30 14 29.1046 14 28V26C14 24.4858 13.1587 23.1681 11.9179 22.4889C10.949 21.9586 10 21.1046 10 20V12C10 10.8954 10.8954 10 12 10H36C37.1046 10 38 10.8954 38 12V20C38 21.1046 37.051 21.9586 36.0821 22.4889Z" stroke="black" stroke-width="2" stroke-linecap="round"/>
<path d="M40 38H8C6.89543 38 6 37.1046 6 36V26C6 23.7909 7.79086 22 10 22C12.2091 22 14 23.7909 14 26V28C14 29.1046 14.8954 30 16 30H32C33.1046 30 34 29.1046 34 28V26C34 23.7909 35.7909 22 38 22C40.2091 22 42 23.7909 42 26V36C42 37.1046 41.1046 38 40 38Z" stroke="black" stroke-width="2" stroke-linecap="round"/>
</svg>
