<svg width="71" height="25" viewBox="0 0 71 25" fill="none" xmlns="http://www.w3.org/2000/svg">
<path d="M4.72703 17.6062C5.02632 18.3927 5.44068 19.0653 5.97019 19.6238C6.4997 20.1823 7.12701 20.6098 7.85212 20.9062C8.57731 21.2026 9.36576 21.3507 10.2176 21.3507C11.0464 21.3507 11.8233 21.1968 12.5485 20.889C13.2737 20.5812 13.9067 20.1481 14.4477 19.5896C14.9886 19.031 15.4088 18.3642 15.7081 17.5891C16.0074 16.814 16.157 15.9477 16.157 14.9902V0.217285H19.7828V24.1548H16.1915V21.932C15.3858 22.7754 14.4361 23.4252 13.3426 23.8812C12.2491 24.3371 11.0694 24.5651 9.8032 24.5651C8.51397 24.5651 7.31115 24.3428 6.1946 23.8983C5.07813 23.4537 4.11118 22.8211 3.294 22.0004C2.47681 21.1796 1.83216 20.1938 1.36026 19.0424C0.888292 17.8912 0.652344 16.6088 0.652344 15.1953V0.217285H4.27813V14.9902C4.27813 15.9477 4.42774 16.8196 4.72703 17.6062Z" fill="#C8C9D0"/>
<path fill-rule="evenodd" clip-rule="evenodd" d="M25.744 8.93738V0.217285H22.3906V24.1548H25.7108V21.9662C26.4855 22.7641 27.3875 23.3967 28.4167 23.8641C29.446 24.3314 30.5582 24.5651 31.7535 24.5651C32.993 24.5651 34.155 24.3258 35.2396 23.847C36.3242 23.3683 37.2649 22.7185 38.0618 21.8978C38.8586 21.0772 39.4895 20.1139 39.9543 19.0082C40.4191 17.9026 40.6515 16.7228 40.6515 15.469C40.6515 14.2151 40.4191 13.0296 39.9543 11.9125C39.4895 10.7954 38.8586 9.82654 38.0618 9.00578C37.2649 8.18502 36.3242 7.53527 35.2396 7.05652C34.155 6.57778 32.9931 6.33844 31.7535 6.33844C30.5583 6.33844 29.4515 6.5721 28.4333 7.0395C27.4152 7.50689 26.5187 8.13947 25.744 8.93738ZM27.3709 19.7435C26.8397 19.1963 26.4246 18.558 26.1258 17.8284C25.827 17.0989 25.6776 16.3124 25.6776 15.4689C25.6776 14.6254 25.8326 13.8331 26.1425 13.0922C26.4523 12.3513 26.8729 11.7073 27.4041 11.1601C27.9354 10.613 28.5552 10.1856 29.2634 9.87778C29.9717 9.56997 30.7243 9.41606 31.5211 9.41606C32.3179 9.41606 33.0704 9.57005 33.7788 9.87778C34.4871 10.1855 35.1013 10.613 35.6215 11.1601C36.1417 11.7073 36.5567 12.3513 36.8666 13.0922C37.1764 13.8331 37.3314 14.6254 37.3314 15.4689C37.3314 16.3124 37.1764 17.0989 36.8666 17.8284C36.5567 18.558 36.1417 19.1964 35.6215 19.7435C35.1012 20.2907 34.4871 20.7238 33.7788 21.043C33.0705 21.3621 32.318 21.5217 31.5211 21.5217C30.7021 21.5217 29.9385 21.3621 29.2302 21.043C28.5219 20.7238 27.9021 20.2906 27.3709 19.7435Z" fill="#C8C9D0"/>
<path fill-rule="evenodd" clip-rule="evenodd" d="M44.9134 9.00373C44.1286 9.84054 43.5117 10.8091 43.0633 11.9096C42.6148 13.0101 42.3905 14.1794 42.3906 15.4174C42.3906 16.7241 42.6261 17.9336 43.0971 19.0455C43.568 20.1574 44.2128 21.126 45.0313 21.9514C45.8499 22.7768 46.8141 23.4188 47.9243 23.8773C49.0344 24.3357 50.2285 24.5651 51.5068 24.5651C53.0766 24.5651 54.4895 24.2326 55.7454 23.5678C57.0012 22.9029 58.0552 21.9858 58.9074 20.8166L56.4518 18.9596C55.1959 20.6791 53.5476 21.5389 51.5068 21.5389C50.7891 21.5389 50.1107 21.4127 49.4716 21.1605C48.8324 20.9084 48.2605 20.5588 47.756 20.1116C47.2514 19.6646 46.831 19.1372 46.4945 18.5297C46.1582 17.9222 45.9339 17.2631 45.8217 16.5524H59.7819V15.4175C59.7819 14.1107 59.5689 12.9013 59.1428 11.7893C58.7168 10.6774 58.1224 9.71445 57.3599 8.90062C56.5974 8.08671 55.6892 7.45049 54.6352 6.99194C53.5811 6.53347 52.4374 6.3042 51.204 6.3042C49.9481 6.3042 48.782 6.54489 47.7055 7.02634C46.629 7.50779 45.6982 8.16692 44.9134 9.00373ZM45.8906 13.8012C46.2046 12.4485 46.8381 11.3653 47.7912 10.5514C48.7443 9.73752 49.86 9.33057 51.1384 9.33057C52.4166 9.33057 53.5323 9.73752 54.4854 10.5514C55.4385 11.3653 56.0609 12.4485 56.3524 13.8012H45.8906Z" fill="#C8C9D0"/>
<path d="M66.0216 10.6689C65.2998 11.4584 64.9389 12.5298 64.9389 13.8833V23.6955H61.5215V6.43963H64.905V8.57125C65.3336 7.87199 65.8919 7.31932 66.5798 6.91332C67.2678 6.50724 68.0855 6.3042 69.033 6.3042H70.2171V9.4847H68.7961C67.6683 9.48477 66.7434 9.87947 66.0216 10.6689Z" fill="#C8C9D0"/>
</svg>
