<svg width="48" height="48" viewBox="0 0 48 48" fill="none" xmlns="http://www.w3.org/2000/svg">
<path d="M26.0002 32.002C26.0002 30.8974 25.1048 30.002 24.0002 30.002C22.8956 30.002 22.0002 30.8974 22.0002 32.002M26.0002 32.002V42.002M26.0002 32.002C26.0002 32.641 26 39.002 26.0002 42.002M22 42.002C22 41.002 22.0002 33.1065 22.0002 32.002M22 42.002H26.0002M22 42.002L22.0002 32.002M22 42.002C22.4655 42.002 24 42.002 26.0002 42.002M34 20.002V15.8831C34 15.2901 33.7368 14.7276 33.2815 14.3476L25.2807 7.67036C24.5389 7.05135 23.4608 7.05101 22.7187 7.66955L14.7195 14.3368C14.2636 14.7168 14 15.2796 14 15.8731V20.002M34 20.002H40C41.1046 20.002 42 20.8974 42 22.002V40.002C42 41.1065 41.1046 42.002 40 42.002H8C6.89543 42.002 6 41.1065 6 40.002V22.002C6 20.8974 6.89543 20.002 8 20.002H14M34 20.002V40.0023C34 41.1069 33.1046 42.0023 32 42.0023H16C14.8954 42.0023 14 41.1069 14 40.0023V20.002M26 20.002C26 21.1065 25.1046 22.002 24 22.002C22.8954 22.002 22 21.1065 22 20.002C22 18.8974 22.8954 18.002 24 18.002C25.1046 18.002 26 18.8974 26 20.002Z" stroke="black" stroke-width="2" stroke-linecap="round"/>
<path d="M34 42.0023H14M34 42.0023C31.9998 42.0023 14.4655 42.0023 14 42.0023M34 42.0023V15.8831C34 15.2901 33.7368 14.7276 33.2815 14.3476L25.2807 7.67036C24.5389 7.05135 23.4608 7.05101 22.7187 7.66955L14.7195 14.3368C14.2636 14.7168 14 15.2796 14 15.8731V42.0023" stroke="black" stroke-width="2" stroke-linecap="round"/>
<path d="M26 20C26 21.1046 25.1046 22 24 22C22.8954 22 22 21.1046 22 20C22 18.8954 22.8954 18 24 18C25.1046 18 26 18.8954 26 20Z" stroke="black" stroke-width="2" stroke-linecap="round"/>
<path d="M42 40.0001V22C42 20.8954 41.1046 20 40 20H36C34.8954 20 34 20.8954 34 22V40.0003C34 41.1049 34.8955 42.0003 36.0001 42.0003L40.0001 42.0001C41.1046 42 42 41.1046 42 40.0001Z" stroke="black" stroke-width="2" stroke-linecap="round"/>
<path d="M6 22V40.0001C6 41.1046 6.89537 42 7.9999 42.0001L11.9999 42.0003C13.1045 42.0003 14 41.1049 14 40.0003V22C14 20.8954 13.1046 20 12 20H8C6.89543 20 6 20.8954 6 22Z" stroke="black" stroke-width="2" stroke-linecap="round"/>
<path d="M26.0002 32C26.0002 30.8954 25.1048 30 24.0002 30C22.8956 30 22.0002 30.8954 22.0002 32M26.0002 32V42M26.0002 32C26.0002 32.639 26 39 26.0002 42M22 42C22 41 22.0002 33.1046 22.0002 32M22 42H26.0002M22 42L22.0002 32M22 42C22.4655 42 24 42 26.0002 42" stroke="black" stroke-width="2" stroke-linecap="round"/>
</svg>
