<svg width="392" height="335" viewBox="0 0 392 335" fill="none" xmlns="http://www.w3.org/2000/svg">
<rect x="1" y="54" width="390" height="280" rx="9" fill="white" stroke="#18181C" stroke-width="2"/>
<path d="M326.25 215.583C326.25 215.031 326.698 214.583 327.25 214.583H358.583C359.136 214.583 359.583 215.031 359.583 215.583V234.417C359.583 234.969 359.136 235.417 358.583 235.417H327.25C326.698 235.417 326.25 234.969 326.25 234.417V215.583Z" stroke="black" stroke-width="2" stroke-linecap="round" stroke-linejoin="round"/>
<path d="M359.583 220.833H362.75C363.302 220.833 363.75 221.281 363.75 221.833V228.167C363.75 228.719 363.302 229.167 362.75 229.167H359.583V220.833Z" stroke="black" stroke-width="2" stroke-linecap="round" stroke-linejoin="round"/>
<path d="M101.25 215.583C101.25 215.031 101.698 214.583 102.25 214.583H133.583C134.136 214.583 134.583 215.031 134.583 215.583V234.417C134.583 234.969 134.136 235.417 133.583 235.417H102.25C101.698 235.417 101.25 234.969 101.25 234.417V215.583Z" stroke="black" stroke-width="2" stroke-linecap="round" stroke-linejoin="round"/>
<path d="M134.583 220.833H137.75C138.302 220.833 138.75 221.281 138.75 221.833V228.167C138.75 228.719 138.302 229.167 137.75 229.167H134.583V220.833Z" stroke="black" stroke-width="2" stroke-linecap="round" stroke-linejoin="round"/>
<path d="M122.083 225L113.75 225" stroke="black" stroke-width="2" stroke-linecap="round" stroke-linejoin="round"/>
<path d="M117.917 220.833V229.167" stroke="black" stroke-width="2" stroke-linecap="round" stroke-linejoin="round"/>
<path d="M176.25 215.583C176.25 215.031 176.698 214.583 177.25 214.583H208.583C209.136 214.583 209.583 215.031 209.583 215.583V234.417C209.583 234.969 209.136 235.417 208.583 235.417H177.25C176.698 235.417 176.25 234.969 176.25 234.417V215.583Z" stroke="black" stroke-width="2" stroke-linecap="round" stroke-linejoin="round"/>
<path d="M209.583 220.833H212.75C213.302 220.833 213.75 221.281 213.75 221.833V228.167C213.75 228.719 213.302 229.167 212.75 229.167H209.583V220.833Z" stroke="black" stroke-width="2" stroke-linecap="round" stroke-linejoin="round"/>
<path d="M197.083 225L188.75 225" stroke="black" stroke-width="2" stroke-linecap="round" stroke-linejoin="round"/>
<path d="M251.25 215.583C251.25 215.031 251.698 214.583 252.25 214.583H283.583C284.136 214.583 284.583 215.031 284.583 215.583V234.417C284.583 234.969 284.136 235.417 283.583 235.417H252.25C251.698 235.417 251.25 234.969 251.25 234.417V215.583Z" stroke="black" stroke-width="2" stroke-linecap="round" stroke-linejoin="round"/>
<path d="M284.583 220.833H287.75C288.302 220.833 288.75 221.281 288.75 221.833V228.167C288.75 228.719 288.302 229.167 287.75 229.167H284.583V220.833Z" stroke="black" stroke-width="2" stroke-linecap="round" stroke-linejoin="round"/>
<path d="M267.916 220.833L265.833 225H270L267.916 229.167" stroke="black" stroke-width="2" stroke-linecap="round" stroke-linejoin="round"/>
<path d="M326.25 285.583C326.25 285.031 326.698 284.583 327.25 284.583H358.583C359.136 284.583 359.583 285.031 359.583 285.583V304.417C359.583 304.969 359.136 305.417 358.583 305.417H327.25C326.698 305.417 326.25 304.969 326.25 304.417V285.583Z" stroke="black" stroke-width="2" stroke-linecap="round" stroke-linejoin="round"/>
<path d="M359.583 290.833H362.75C363.302 290.833 363.75 291.281 363.75 291.833V298.167C363.75 298.719 363.302 299.167 362.75 299.167H359.583V290.833Z" stroke="black" stroke-width="2" stroke-linecap="round" stroke-linejoin="round"/>
<rect x="332.5" y="290.833" width="2.08333" height="8.33333" stroke="black" stroke-width="2" stroke-linecap="square" stroke-linejoin="round"/>
<path d="M26.25 285.583C26.25 285.031 26.6977 284.583 27.25 284.583H58.5833C59.1356 284.583 59.5833 285.031 59.5833 285.583V304.417C59.5833 304.969 59.1356 305.417 58.5833 305.417H27.25C26.6977 305.417 26.25 304.969 26.25 304.417V285.583Z" stroke="black" stroke-width="2" stroke-linecap="round" stroke-linejoin="round"/>
<path d="M59.583 290.833H62.7497C63.302 290.833 63.7497 291.281 63.7497 291.833V298.167C63.7497 298.719 63.302 299.167 62.7497 299.167H59.583V290.833Z" stroke="black" stroke-width="2" stroke-linecap="round" stroke-linejoin="round"/>
<rect x="32.5" y="290.833" width="4.16667" height="8.33333" stroke="black" stroke-width="2" stroke-linecap="square" stroke-linejoin="round"/>
<rect x="40.833" y="290.833" width="4.16667" height="8.33333" stroke="black" stroke-width="2" stroke-linecap="square" stroke-linejoin="round"/>
<path d="M101.25 285.583C101.25 285.031 101.698 284.583 102.25 284.583H133.583C134.136 284.583 134.583 285.031 134.583 285.583V304.417C134.583 304.969 134.136 305.417 133.583 305.417H102.25C101.698 305.417 101.25 304.969 101.25 304.417V285.583Z" stroke="black" stroke-width="2" stroke-linecap="round" stroke-linejoin="round"/>
<path d="M134.583 290.833H137.75C138.302 290.833 138.75 291.281 138.75 291.833V298.167C138.75 298.719 138.302 299.167 137.75 299.167H134.583V290.833Z" stroke="black" stroke-width="2" stroke-linecap="round" stroke-linejoin="round"/>
<rect x="107.5" y="290.833" width="4.16667" height="8.33333" stroke="black" stroke-width="2" stroke-linecap="square" stroke-linejoin="round"/>
<rect x="115.833" y="290.833" width="4.16667" height="8.33333" stroke="black" stroke-width="2" stroke-linecap="square" stroke-linejoin="round"/>
<path d="M209.583 290.833H212.75C213.302 290.833 213.75 291.281 213.75 291.833V298.167C213.75 298.719 213.302 299.167 212.75 299.167H209.583V290.833Z" stroke="black" stroke-width="2" stroke-linecap="round" stroke-linejoin="round"/>
<path d="M189.792 284.583H208.583C209.136 284.583 209.583 285.031 209.583 285.583V304.417C209.583 304.969 209.136 305.417 208.583 305.417H200.208M191.354 305.417H177.25C176.698 305.417 176.25 304.969 176.25 304.417V285.583C176.25 285.031 176.698 284.583 177.25 284.583H179.896" stroke="black" stroke-width="2" stroke-linecap="round" stroke-linejoin="round"/>
<path d="M186.667 278.333L203.334 311.667" stroke="black" stroke-width="2" stroke-linecap="round" stroke-linejoin="round"/>
<path d="M284.583 290.833H287.75C288.302 290.833 288.75 291.281 288.75 291.833V298.167C288.75 298.719 288.302 299.167 287.75 299.167H284.583V290.833Z" stroke="black" stroke-width="2" stroke-linecap="round" stroke-linejoin="round"/>
<path d="M259.583 284.583H252.25C251.698 284.583 251.25 285.031 251.25 285.583V304.417C251.25 304.969 251.698 305.417 252.25 305.417H259.583M276.25 284.583H283.583C284.136 284.583 284.583 285.031 284.583 285.583V304.417C284.583 304.969 284.136 305.417 283.583 305.417H276.25" stroke="black" stroke-width="2" stroke-linecap="round" stroke-linejoin="round"/>
<path d="M267.916 280.417C269.067 280.417 270 281.742 270 282.981L269.043 295.806C268.995 296.527 268.505 297.083 267.916 297.083C267.328 297.083 266.838 296.527 266.79 295.806L265.833 282.981C265.833 281.742 266.766 280.417 267.916 280.417Z" stroke="black" stroke-width="2" stroke-linecap="round" stroke-linejoin="round"/>
<path fill-rule="evenodd" clip-rule="evenodd" d="M267.916 307.5C269.067 307.5 270 306.567 270 305.417C270 304.266 269.067 303.333 267.916 303.333C266.766 303.333 265.833 304.266 265.833 305.417C265.833 306.567 266.766 307.5 267.916 307.5Z" stroke="black" stroke-width="2" stroke-linecap="round" stroke-linejoin="round"/>
<path d="M26.25 215.583C26.25 215.031 26.6977 214.583 27.25 214.583H58.5833C59.1356 214.583 59.5833 215.031 59.5833 215.583V234.417C59.5833 234.969 59.1356 235.417 58.5833 235.417H27.25C26.6977 235.417 26.25 234.969 26.25 234.417V215.583Z" fill="#FAD338" stroke="black" stroke-width="2" stroke-linecap="round" stroke-linejoin="round"/>
<path d="M59.583 220.833H62.7497C63.302 220.833 63.7497 221.281 63.7497 221.833V228.167C63.7497 228.719 63.302 229.167 62.7497 229.167H59.583V220.833Z" fill="#FAD338" stroke="black" stroke-width="2" stroke-linecap="round" stroke-linejoin="round"/>
<rect x="32.5" y="220.833" width="4.16667" height="8.33333" stroke="black" stroke-width="2" stroke-linecap="square" stroke-linejoin="round"/>
<rect x="40.833" y="220.833" width="4.16667" height="8.33333" stroke="black" stroke-width="2" stroke-linecap="square" stroke-linejoin="round"/>
<rect x="49.167" y="220.833" width="4.16667" height="8.33333" stroke="black" stroke-width="2" stroke-linecap="square" stroke-linejoin="round"/>
<rect x="19" y="1" width="176" height="176" rx="9" fill="white" stroke="#18181C" stroke-width="2"/>
<path d="M77 73.3333C77 72.7811 77.4477 72.3333 78 72.3333H129.333C129.886 72.3333 130.333 72.7811 130.333 73.3333V104.667C130.333 105.219 129.886 105.667 129.333 105.667H78C77.4477 105.667 77 105.219 77 104.667V73.3333Z" stroke="black" stroke-width="2" stroke-linecap="round" stroke-linejoin="round"/>
<path d="M130.333 82.3333H136C136.552 82.3333 137 82.7811 137 83.3333V94.6667C137 95.219 136.552 95.6667 136 95.6667H130.333V82.3333Z" stroke="black" stroke-width="2" stroke-linecap="round" stroke-linejoin="round"/>
<rect x="87" y="82.3333" width="6.66667" height="13.3333" stroke="black" stroke-width="2" stroke-linecap="square" stroke-linejoin="round"/>
<rect x="100.333" y="82.3333" width="6.66667" height="13.3333" stroke="black" stroke-width="2" stroke-linecap="square" stroke-linejoin="round"/>
<rect x="113.667" y="82.3333" width="6.66666" height="13.3333" stroke="black" stroke-width="2" stroke-linecap="square" stroke-linejoin="round"/>
<rect x="216" y="80" width="156" height="14" fill="#E3E4E7"/>
<rect x="216" y="108" width="98" height="14" fill="#E3E4E7"/>
<rect x="216" y="137" width="78" height="14" fill="#E3E4E7"/>
<rect x="216" y="166" width="26" height="14" fill="#E3E4E7"/>
<rect x="252" y="166" width="69" height="14" fill="#E3E4E7"/>
<rect x="331" y="166" width="29" height="14" fill="#E3E4E7"/>
</svg>
