<svg width="121" height="27" viewBox="0 0 121 27" fill="none" xmlns="http://www.w3.org/2000/svg">
<path fill-rule="evenodd" clip-rule="evenodd" d="M5.96702 0H0L8.50471 19.2728C8.5733 19.3414 8.64189 19.4099 8.77906 19.3414C8.84764 19.3414 8.84764 19.2728 8.84764 19.2728L11.6597 12.6199L5.96702 0ZM9.6698 26.2H15.1567C17.4886 26.2 19.2033 24.211 20.1635 22.4963C21.1923 20.5759 30.1085 0 30.1085 0H24.0729C24.0729 0 14.9509 20.9188 13.7164 22.8393C12.2761 25.034 11.3845 25.9257 9.6698 26.2ZM106.898 14.5606H102.92L102.948 12.6402H109.052V19.396H106.885V17.8734C106.428 18.4324 105.851 18.8812 105.196 19.1864C104.542 19.4916 103.827 19.6453 103.106 19.636C99.3196 19.636 96.8848 17.1875 96.8848 13.1203C96.8848 9.05316 99.3196 6.56348 103.106 6.56348C105.959 6.56348 108.503 8.1341 108.908 10.8776H106.603C106.309 9.30007 104.916 8.61421 103.243 8.61421C100.595 8.61421 99.1275 10.0065 99.1275 13.1203C99.1275 16.0078 100.712 17.6127 103.126 17.6127C105.06 17.6127 106.898 16.5085 106.898 14.5606ZM89.6883 6.70801C89.2843 6.74184 88.8979 6.88832 88.5729 7.13081C88.248 7.37329 87.9976 7.70205 87.8502 8.07974C87.473 8.7656 82.9531 19.3828 82.9531 19.3828H85.2713L86.5676 16.3444H92.809L94.1121 19.3828H96.4304C96.4304 19.3828 91.9037 8.80675 91.5333 8.09345C91.3867 7.71267 91.136 7.38081 90.8097 7.13581C90.4835 6.89081 90.0949 6.74256 89.6883 6.70801ZM87.473 14.2525L89.6609 9.12911H89.7226L91.9036 14.2525H87.473ZM120.711 8.95031V6.85156H111.691V19.396H120.711V17.2973H113.914V13.9983H120.182V11.8995H113.914V8.95031H120.711ZM47.9064 16.7488H47.8447L43.318 6.85864H40.7735C40.7735 6.85864 45.4373 17.3661 45.9037 18.148C46.0723 18.5367 46.3457 18.8709 46.6933 19.1131C47.0409 19.3554 47.4491 19.4961 47.8722 19.5197C48.8392 19.5197 49.3879 18.8887 49.8406 18.148C50.2932 17.4072 54.9708 6.85864 54.9708 6.85864H52.4331L47.9064 16.7488ZM55.6445 13.1203C55.6445 9.05316 58.1205 6.56348 61.9682 6.56348C65.8433 6.56348 68.2919 9.0463 68.2919 13.1203C68.2919 17.1944 65.8159 19.6841 61.9682 19.6841C58.1205 19.6841 55.6445 17.1875 55.6445 13.1203ZM57.901 13.1203C57.901 16.0078 59.5059 17.6127 61.9682 17.6127C64.4167 17.6127 66.0354 16.0078 66.0354 13.1203C66.0354 10.2328 64.4305 8.63479 61.9682 8.63479C59.5059 8.63479 57.901 10.2328 57.901 13.1203ZM81.2548 6.8584V19.396H78.6486L72.5718 10.226V19.396H70.3496V6.8584H72.9696L79.0395 16.0901V6.8584H81.2548Z" fill="#C8C9D0"/>
</svg>
