<svg width="94" height="30" viewBox="0 0 94 30" fill="none" xmlns="http://www.w3.org/2000/svg">
<g clip-path="url(#clip0_7729_11789)">
<path fill-rule="evenodd" clip-rule="evenodd" d="M26.8682 15C26.8682 21.9036 21.2717 27.5 14.3682 27.5C7.4646 27.5 1.86816 21.9036 1.86816 15C1.86816 8.09644 7.4646 2.5 14.3682 2.5C21.2717 2.5 26.8682 8.09644 26.8682 15ZM6.34795 16.9607V11.0865C6.34836 11.0289 6.36013 10.972 6.38259 10.9191C6.40504 10.8661 6.43773 10.8181 6.47878 10.7777C6.51984 10.7374 6.56845 10.7056 6.62183 10.6841C6.67521 10.6626 6.7323 10.6519 6.78984 10.6525H15.3499C15.987 10.65 16.5991 10.9005 17.0516 11.3491C17.5041 11.7976 17.76 12.4074 17.7631 13.0446V18.9188C17.7622 19.0346 17.7155 19.1453 17.6332 19.2266C17.5508 19.308 17.4396 19.3533 17.3238 19.3528H8.76116C8.12402 19.3553 7.51195 19.1048 7.05945 18.6562C6.60694 18.2077 6.35103 17.5979 6.34795 16.9607ZM21.8433 10.7954L18.3082 13.378V16.6326L21.8433 19.2094C22.0973 19.4004 22.3884 19.4639 22.3884 18.94V11.0653C22.3884 10.6049 22.1502 10.5409 21.8433 10.7954Z" fill="#18181C"/>
<path fill-rule="evenodd" clip-rule="evenodd" d="M80.3664 12.2645C80.5989 12.6656 80.675 13.122 80.7001 13.6351L80.7331 14.3189V19.101L80.7668 19.7856C80.8343 20.9036 81.6588 21.7303 82.7854 21.8006L83.4664 21.8343V14.3189L83.5001 13.6351C83.5281 13.1277 83.6035 12.6627 83.8396 12.2587C84.0801 11.8443 84.4255 11.5005 84.841 11.2618C85.2564 11.0231 85.7274 10.8979 86.2065 10.8988C86.6857 10.8997 87.1562 11.0266 87.5708 11.2668C87.9854 11.507 88.3295 11.8521 88.5685 12.2673C88.801 12.6685 88.8735 13.1335 88.9015 13.6351L88.9352 14.3168V19.101L88.969 19.7856C89.0393 20.9094 89.8573 21.736 90.9876 21.8006L91.6686 21.8343V13.6351C91.6686 12.1852 91.0928 10.7947 90.0678 9.76929C89.0428 8.74389 87.6525 8.16753 86.2026 8.16696C85.4266 8.16615 84.6594 8.33094 83.9522 8.65033C83.2449 8.96973 82.614 9.43637 82.1015 10.0191C81.5888 9.4366 80.9579 8.97007 80.2507 8.65058C79.5436 8.33109 78.7765 8.16598 78.0005 8.16625C76.8652 8.16625 75.8118 8.51069 74.9392 9.10558C74.4067 8.51141 73.2155 8.16625 72.5317 8.16625V21.8343L73.2155 21.8006C74.3594 21.7253 75.1861 20.9208 75.2305 19.7856L75.2671 19.101V14.3189L75.3009 13.6351C75.3296 13.1191 75.4013 12.6656 75.6345 12.2616C75.8753 11.8474 76.2205 11.5037 76.6357 11.2647C77.0508 11.0257 77.5214 10.8998 78.0005 10.8996C78.4799 10.8997 78.9508 11.0258 79.3661 11.2654C79.7813 11.505 80.1263 11.8495 80.3664 12.2645ZM33.5768 21.8013L34.2607 21.8343H44.5116L44.4779 21.1526C44.3853 20.0289 43.5895 19.2079 42.4621 19.1347L41.7783 19.101H35.6285L43.8277 10.8989L43.794 10.2179C43.7409 9.08262 42.9114 8.2624 41.7783 8.19997L41.0944 8.16912L30.8435 8.16625L30.8772 8.85012C30.9669 9.96311 31.7742 10.8013 32.8922 10.8659L33.5768 10.8996H39.7267L31.5274 19.1017L31.5611 19.7856C31.6286 20.9122 32.4416 21.7281 33.5768 21.8006V21.8013ZM69.8486 10.1669C70.4833 10.8015 70.9868 11.5549 71.3303 12.3841C71.6738 13.2133 71.8506 14.102 71.8506 14.9996C71.8506 15.8971 71.6738 16.7859 71.3303 17.6151C70.9868 18.4443 70.4833 19.1977 69.8486 19.8322C68.5662 21.1136 66.8276 21.8333 65.0148 21.8333C63.202 21.8333 61.4634 21.1136 60.1811 19.8322C57.5123 17.1635 57.5123 12.8357 60.1811 10.1669C60.8152 9.53254 61.5681 9.02928 62.3967 8.68588C63.2254 8.34249 64.1135 8.16567 65.0105 8.16553C65.9089 8.16491 66.7987 8.34141 67.6288 8.68495C68.459 9.02849 69.2133 9.53232 69.8486 10.1676V10.1669ZM67.9146 12.1023C68.6833 12.8716 69.1151 13.9146 69.1151 15.0021C69.1151 16.0896 68.6833 17.1326 67.9146 17.9019C67.1453 18.6706 66.1023 19.1024 65.0148 19.1024C63.9273 19.1024 62.8843 18.6706 62.115 17.9019C61.3463 17.1326 60.9145 16.0896 60.9145 15.0021C60.9145 13.9146 61.3463 12.8716 62.115 12.1023C62.8843 11.3336 63.9273 10.9018 65.0148 10.9018C66.1023 10.9018 67.1453 11.3336 67.9146 12.1023ZM50.6672 8.16553C51.5642 8.16576 52.4524 8.34269 53.281 8.68622C54.1097 9.02974 54.8625 9.53312 55.4966 10.1676C58.1661 12.8357 58.1661 17.1642 55.4966 19.8322C54.2142 21.1136 52.4756 21.8333 50.6628 21.8333C48.8501 21.8333 47.1115 21.1136 45.8291 19.8322C43.1604 17.1635 43.1604 12.8357 45.8291 10.1669C46.4632 9.53254 47.2161 9.02928 48.0448 8.68588C48.8734 8.34249 49.7616 8.16567 50.6585 8.16553H50.6672ZM53.5627 12.1008C54.3316 12.8701 54.7635 13.9133 54.7635 15.001C54.7635 16.0887 54.3316 17.1319 53.5627 17.9012C52.7934 18.6699 51.7504 19.1017 50.6628 19.1017C49.5753 19.1017 48.5323 18.6699 47.763 17.9012C46.9943 17.1319 46.5625 16.0889 46.5625 15.0014C46.5625 13.9139 46.9943 12.8708 47.763 12.1016C48.5323 11.3329 49.5753 10.9011 50.6628 10.9011C51.7504 10.9011 52.7934 11.3321 53.5627 12.1008Z" fill="#18181C"/>
</g>
<defs>
<clipPath id="clip0_7729_11789">
<rect width="92.5" height="30" fill="white" transform="translate(0.618164)"/>
</clipPath>
</defs>
</svg>
