<svg width="236" height="40" viewBox="0 0 236 40" fill="none" xmlns="http://www.w3.org/2000/svg">
<g clip-path="url(#clip0_13177_1958)">
<rect x="12.3335" y="1.66699" width="15.3334" height="36.6669" rx="7.66671" stroke="url(#paint0_linear_13177_1958)" stroke-width="3.33335"/>
<rect x="38.3335" y="12.333" width="15.3334" height="36.6669" rx="7.66671" transform="rotate(90 38.3335 12.333)" stroke="url(#paint1_linear_13177_1958)" stroke-width="3.33335"/>
<path fill-rule="evenodd" clip-rule="evenodd" d="M12.3332 10.667C13.2537 10.667 13.9999 11.4132 13.9999 12.3337C13.9999 13.2541 13.2537 14.0003 12.3332 14.0003C11.4127 14.0003 10.6665 13.2541 10.6665 12.3337C10.6665 11.4132 11.4127 10.667 12.3332 10.667ZM12.3332 26.0004C13.2537 26.0004 13.9999 26.7466 13.9999 27.6671C13.9999 28.5876 13.2537 29.3338 12.3332 29.3338C11.4127 29.3338 10.6665 28.5876 10.6665 27.6671C10.6665 26.7466 11.4127 26.0004 12.3332 26.0004ZM29.3333 12.3337C29.3333 11.4132 28.5871 10.667 27.6666 10.667C26.7461 10.667 25.9999 11.4132 25.9999 12.3337C25.9999 13.2541 26.7461 14.0003 27.6666 14.0003C28.5871 14.0003 29.3333 13.2541 29.3333 12.3337ZM27.6666 26.0004C28.5871 26.0004 29.3333 26.7466 29.3333 27.6671C29.3333 28.5876 28.5871 29.3338 27.6666 29.3338C26.7461 29.3338 25.9999 28.5876 25.9999 27.6671C25.9999 26.7466 26.7461 26.0004 27.6666 26.0004Z" fill="white"/>
<path fill-rule="evenodd" clip-rule="evenodd" d="M12.308 10.833C13.1577 10.833 13.8465 11.5218 13.8465 12.3715C13.8465 13.2212 13.1577 13.91 12.308 13.91C11.4583 13.91 10.7695 13.2212 10.7695 12.3715C10.7695 11.5218 11.4583 10.833 12.308 10.833ZM12.308 26.2177C13.1577 26.2177 13.8465 26.9065 13.8465 27.7562C13.8465 28.6059 13.1577 29.2947 12.308 29.2947C11.4583 29.2947 10.7695 28.6059 10.7695 27.7562C10.7695 26.9065 11.4583 26.2177 12.308 26.2177ZM29.2312 12.3715C29.2312 11.5218 28.5424 10.833 27.6927 10.833C26.843 10.833 26.1542 11.5218 26.1542 12.3715C26.1542 13.2212 26.843 13.91 27.6927 13.91C28.5424 13.91 29.2312 13.2212 29.2312 12.3715ZM27.6927 26.2177C28.5424 26.2177 29.2312 26.9065 29.2312 27.7562C29.2312 28.6059 28.5424 29.2947 27.6927 29.2947C26.843 29.2947 26.1542 28.6059 26.1542 27.7562C26.1542 26.9065 26.843 26.2177 27.6927 26.2177Z" fill="white"/>
<path d="M229.301 27.6337C227.617 27.6337 225.981 27.1835 224.741 26.399C224.22 26.0694 224.127 25.3796 224.444 24.8506C224.871 24.1361 225.87 23.9898 226.611 24.3696C227.48 24.8149 228.518 25.1337 229.451 25.1337C230.826 25.1337 231.476 24.6087 231.476 23.8587C231.476 21.8837 224.326 23.5087 224.326 18.7586C224.326 16.7336 226.076 14.9586 229.276 14.9586C230.866 14.9586 232.21 15.3905 233.295 16.0362C233.794 16.3334 233.914 16.9815 233.628 17.4871C233.24 18.172 232.272 18.3034 231.558 17.9713C230.892 17.6615 230.1 17.4586 229.276 17.4586C228.126 17.4586 227.376 17.9586 227.376 18.6336C227.376 20.4087 234.551 18.9086 234.551 23.7837C234.551 26.0087 232.651 27.6337 229.301 27.6337Z" fill="url(#paint2_linear_13177_1958)"/>
<path d="M221.823 25.7337C221.823 26.6174 221.107 27.3337 220.223 27.3337C219.339 27.3337 218.623 26.6174 218.623 25.7337V20.0337C218.623 18.3586 217.748 17.7836 216.398 17.7836C216.008 17.7836 215.647 17.8518 215.319 17.9668C214.038 18.4151 213.648 19.9212 213.648 21.2781V25.7462C213.648 26.623 212.937 27.3337 212.061 27.3337C211.184 27.3337 210.473 26.623 210.473 25.7462V16.8461C210.473 15.9694 211.184 15.2586 212.061 15.2586H213.228C213.46 15.2586 213.648 15.4465 213.648 15.6783C213.648 16.0674 214.167 16.278 214.482 16.0494C215.316 15.4439 216.479 14.9586 217.873 14.9586C220.548 14.9586 221.823 16.4586 221.823 18.8087V25.7337Z" fill="url(#paint3_linear_13177_1958)"/>
<path d="M201.693 27.6337C197.718 27.6337 195.318 24.7087 195.318 21.2837C195.318 17.8586 197.718 14.9586 201.693 14.9586C205.693 14.9586 208.093 17.8586 208.093 21.2837C208.093 24.7087 205.693 27.6337 201.693 27.6337ZM201.693 24.8087C203.693 24.8087 204.793 23.1837 204.793 21.2837C204.793 19.4087 203.693 17.7836 201.693 17.7836C199.718 17.7836 198.618 19.4087 198.618 21.2837C198.618 23.1837 199.718 24.8087 201.693 24.8087Z" fill="url(#paint4_linear_13177_1958)"/>
<path d="M189.242 27.6337C185.542 27.6337 182.842 25.0087 182.842 21.2837C182.842 17.5836 185.542 14.9586 189.242 14.9586C191.03 14.9586 192.309 15.5196 193.183 16.2457C193.72 16.6918 193.636 17.4921 193.127 17.9701C192.506 18.5542 191.499 18.3897 190.719 18.0458C190.326 17.8725 189.881 17.7836 189.392 17.7836C187.467 17.7836 186.117 19.1837 186.117 21.2837C186.117 23.3837 187.467 24.8087 189.392 24.8087C189.886 24.8087 190.333 24.7082 190.729 24.5231C191.501 24.1622 192.499 24.0071 193.12 24.5905C193.633 25.0724 193.718 25.8789 193.178 26.3305C192.305 27.0619 191.027 27.6337 189.242 27.6337Z" fill="url(#paint5_linear_13177_1958)"/>
<path d="M178.869 13.9586C177.844 13.9586 176.994 13.1086 176.994 12.0586C176.994 11.0086 177.844 10.1836 178.869 10.1836C179.919 10.1836 180.769 11.0086 180.769 12.0586C180.769 13.1086 179.919 13.9586 178.869 13.9586ZM180.469 25.7462C180.469 26.6229 179.758 27.3337 178.882 27.3337C178.005 27.3337 177.294 26.623 177.294 25.7462V16.8461C177.294 15.9694 178.005 15.2586 178.882 15.2586C179.758 15.2586 180.469 15.9694 180.469 16.8461V25.7462Z" fill="url(#paint6_linear_13177_1958)"/>
<path d="M169.151 27.6333C165.476 27.6333 162.701 25.1583 162.701 21.2833C162.701 17.7832 165.301 14.9582 168.951 14.9582C172.576 14.9582 175.001 17.6582 175.001 21.5833C175.001 21.9975 174.665 22.3333 174.251 22.3333H167.19C166.578 22.3333 166.1 22.8959 166.404 23.4276C166.941 24.368 167.99 25.0333 169.501 25.0333C170.172 25.0333 171.003 24.8512 171.715 24.5151C172.277 24.2499 173.02 24.3288 173.369 24.8427L173.641 25.2434C173.919 25.654 173.858 26.2147 173.441 26.4835C172.267 27.2406 170.7 27.6333 169.151 27.6333ZM170.86 20.1333C171.447 20.1333 171.92 19.6147 171.664 19.0872C171.266 18.2664 170.431 17.5582 168.951 17.5582C167.554 17.5582 166.72 18.2459 166.307 19.073C166.042 19.6038 166.517 20.1333 167.111 20.1333H170.86Z" fill="white"/>
<path d="M160.851 25.7352C161.343 26.3948 160.872 27.3333 160.05 27.3333H158.594C158.265 27.3333 157.957 27.1714 157.77 26.9002L155.573 23.7074C155.211 23.1813 154.455 23.1248 154.019 23.5911L153.688 23.945C153.515 24.1302 153.418 24.3744 153.418 24.6281V26.3333C153.418 26.8856 152.971 27.3333 152.418 27.3333H151.243C150.691 27.3333 150.243 26.8856 150.243 26.3333V11.6582C150.243 11.1059 150.691 10.6582 151.243 10.6582H152.418C152.971 10.6582 153.418 11.1059 153.418 11.6582V17.9156C153.418 18.8457 154.577 19.272 155.18 18.5637L157.694 15.6101C157.884 15.3869 158.162 15.2582 158.455 15.2582H159.694C160.553 15.2582 161.012 16.2686 160.448 16.9155L157.649 20.1249C157.339 20.4799 157.32 21.0027 157.601 21.3802L160.851 25.7352Z" fill="white"/>
<path d="M141.463 27.6333C137.488 27.6333 135.088 24.7083 135.088 21.2833C135.088 17.8583 137.488 14.9582 141.463 14.9582C145.464 14.9582 147.864 17.8583 147.864 21.2833C147.864 24.7083 145.464 27.6333 141.463 27.6333ZM141.463 24.8083C143.463 24.8083 144.563 23.1833 144.563 21.2833C144.563 19.4083 143.463 17.7832 141.463 17.7832C139.488 17.7832 138.388 19.4083 138.388 21.2833C138.388 23.1833 139.488 24.8083 141.463 24.8083Z" fill="white"/>
<path d="M130.03 26.3333C130.03 26.8856 129.582 27.3333 129.03 27.3333H127.855C127.302 27.3333 126.855 26.8856 126.855 26.3333V16.2582C126.855 15.706 127.302 15.2582 127.855 15.2582H129.598C129.836 15.2582 130.03 15.4516 130.03 15.6902C130.03 16.0942 130.57 16.3067 130.89 16.0602C131.471 15.6125 132.161 15.2569 132.889 15.0802C133.426 14.95 133.88 15.406 133.88 15.9582V17.1783C133.88 17.6299 133.456 17.9833 133.005 17.9833C132.065 17.9833 130.845 18.4639 130.223 19.1204C130.085 19.2655 130.03 19.4651 130.03 19.6651V26.3333Z" fill="white"/>
<path d="M122.457 27.6333C120.232 27.6333 119.057 26.4833 119.057 24.3083V19.0333C119.057 18.481 118.61 18.0333 118.057 18.0333C117.505 18.0333 117.057 17.5855 117.057 17.0332V16.2582C117.057 15.706 117.505 15.2582 118.057 15.2582C118.61 15.2582 119.057 14.8105 119.057 14.2582V12.9582C119.057 12.4059 119.505 11.9582 120.057 11.9582H121.232C121.785 11.9582 122.232 12.4059 122.232 12.9582V14.2582C122.232 14.8105 122.68 15.2582 123.232 15.2582H123.682C124.235 15.2582 124.682 15.706 124.682 16.2582V17.0332C124.682 17.5855 124.235 18.0333 123.682 18.0333H123.232C122.68 18.0333 122.232 18.481 122.232 19.0333V23.4583C122.232 24.2333 122.632 24.8083 123.332 24.8083C123.844 24.8083 124.614 25.0876 124.752 25.5801L124.941 26.2594C125.043 26.6261 124.932 27.0316 124.593 27.2044C124.096 27.4578 123.396 27.6333 122.457 27.6333Z" fill="white"/>
<path d="M110.843 27.6333C109.065 27.6333 107.34 27.1312 106.079 26.2636C105.689 25.9952 105.617 25.4671 105.86 25.0606L106.179 24.5276C106.507 23.9787 107.27 23.8685 107.823 24.1892C108.75 24.7261 109.939 25.1333 110.993 25.1333C112.368 25.1333 113.018 24.6083 113.018 23.8583C113.018 21.8833 105.868 23.5083 105.868 18.7583C105.868 16.7332 107.618 14.9582 110.818 14.9582C112.473 14.9582 113.861 15.4258 114.968 16.1154C115.387 16.376 115.489 16.9246 115.246 17.3536L115.053 17.6946C114.723 18.2757 113.907 18.3854 113.315 18.0765C112.608 17.708 111.732 17.4582 110.818 17.4582C109.668 17.4582 108.918 17.9583 108.918 18.6333C108.918 20.4083 116.093 18.9083 116.093 23.7833C116.093 26.0083 114.193 27.6333 110.843 27.6333Z" fill="white"/>
<path d="M103.366 26.3333C103.366 26.8856 102.918 27.3333 102.366 27.3333H101.166C100.613 27.3333 100.166 26.8856 100.166 26.3333V20.0333C100.166 18.3583 99.2906 17.7832 97.9405 17.7832C96.8473 17.7832 95.9835 18.3187 95.4161 18.9213C95.2625 19.0844 95.1905 19.3051 95.1905 19.5291V26.3333C95.1905 26.8856 94.7428 27.3333 94.1905 27.3333H93.0155C92.4632 27.3333 92.0155 26.8856 92.0155 26.3333V16.2582C92.0155 15.706 92.4632 15.2582 93.0155 15.2582H94.7709C95.0027 15.2582 95.1905 15.4461 95.1905 15.6779C95.1905 16.067 95.7096 16.2776 96.0245 16.049C96.858 15.4435 98.0219 14.9582 99.4156 14.9582C102.091 14.9582 103.366 16.4582 103.366 18.8083V26.3333Z" fill="white"/>
<path d="M83.8721 27.6333C80.1971 27.6333 77.4221 25.1583 77.4221 21.2833C77.4221 17.7832 80.0221 14.9582 83.6721 14.9582C87.2971 14.9582 89.7221 17.6582 89.7221 21.5833C89.7221 21.9975 89.3863 22.3333 88.9721 22.3333H81.9112C81.2988 22.3333 80.8209 22.8959 81.1247 23.4276C81.6622 24.368 82.7113 25.0333 84.2221 25.0333C84.893 25.0333 85.7246 24.8512 86.4364 24.5151C86.998 24.2499 87.7414 24.3288 88.0901 24.8427L88.362 25.2434C88.6406 25.654 88.5796 26.2147 88.1626 26.4835C86.9881 27.2406 85.4216 27.6333 83.8721 27.6333ZM85.5814 20.1333C86.1679 20.1333 86.6415 19.6147 86.3854 19.0872C85.9868 18.2664 85.1525 17.5582 83.6721 17.5582C82.2754 17.5582 81.4414 18.2459 81.0284 19.073C80.7634 19.6038 81.2384 20.1333 81.8317 20.1333H85.5814Z" fill="white"/>
<path d="M70.5218 27.6333C70.0255 27.6333 69.5443 27.5605 69.0857 27.4128C68.1859 27.123 66.7968 27.6888 66.7968 28.6341V30.9333C66.7968 31.4856 66.3491 31.9333 65.7968 31.9333H64.6218C64.0695 31.9333 63.6218 31.4856 63.6218 30.9333V16.2582C63.6218 15.706 64.0695 15.2582 64.6218 15.2582H66.4045C66.6211 15.2582 66.7968 15.4339 66.7968 15.6506C66.7968 16.023 67.3004 16.2119 67.5908 15.9788C68.4175 15.3154 69.4285 14.9582 70.5218 14.9582C73.6218 14.9582 75.8719 17.2582 75.8719 21.2833C75.8719 25.3083 73.6218 27.6333 70.5218 27.6333ZM69.5218 24.8083C71.3468 24.8083 72.5968 23.3833 72.5968 21.2833C72.5968 19.2083 71.3468 17.7832 69.5218 17.7832C68.6043 17.7832 67.5866 18.244 66.9887 18.9144C66.8541 19.0654 66.7968 19.2666 66.7968 19.4689V23.1015C66.7968 23.3014 66.8527 23.5003 66.9854 23.6499C67.57 24.3091 68.6058 24.8083 69.5218 24.8083Z" fill="white"/>
<path d="M54.8418 27.6333C50.8668 27.6333 48.4668 24.7083 48.4668 21.2833C48.4668 17.8583 50.8668 14.9582 54.8418 14.9582C58.8419 14.9582 61.2419 17.8583 61.2419 21.2833C61.2419 24.7083 58.8419 27.6333 54.8418 27.6333ZM54.8418 24.8083C56.8419 24.8083 57.9419 23.1833 57.9419 21.2833C57.9419 19.4083 56.8419 17.7832 54.8418 17.7832C52.8668 17.7832 51.7668 19.4083 51.7668 21.2833C51.7668 23.1833 52.8668 24.8083 54.8418 24.8083Z" fill="white"/>
</g>
<defs>
<linearGradient id="paint0_linear_13177_1958" x1="20.0002" y1="-8.49973" x2="39.1541" y2="1.20765" gradientUnits="userSpaceOnUse">
<stop stop-color="#4CC3F9"/>
<stop offset="1" stop-color="#7638FA"/>
</linearGradient>
<linearGradient id="paint1_linear_13177_1958" x1="35.0001" y1="4.99963" x2="62.6539" y2="6.93577" gradientUnits="userSpaceOnUse">
<stop stop-color="#FFC109"/>
<stop offset="1" stop-color="#FF0AE6"/>
</linearGradient>
<linearGradient id="paint2_linear_13177_1958" x1="163.167" y1="-5.49983" x2="232.008" y2="63.1924" gradientUnits="userSpaceOnUse">
<stop stop-color="#FFC109"/>
<stop offset="1" stop-color="#FF0AE6"/>
</linearGradient>
<linearGradient id="paint3_linear_13177_1958" x1="163.167" y1="-5.49983" x2="232.008" y2="63.1924" gradientUnits="userSpaceOnUse">
<stop stop-color="#FFC109"/>
<stop offset="1" stop-color="#FF0AE6"/>
</linearGradient>
<linearGradient id="paint4_linear_13177_1958" x1="163.167" y1="-5.49983" x2="232.008" y2="63.1924" gradientUnits="userSpaceOnUse">
<stop stop-color="#FFC109"/>
<stop offset="1" stop-color="#FF0AE6"/>
</linearGradient>
<linearGradient id="paint5_linear_13177_1958" x1="163.167" y1="-5.49983" x2="232.008" y2="63.1924" gradientUnits="userSpaceOnUse">
<stop stop-color="#FFC109"/>
<stop offset="1" stop-color="#FF0AE6"/>
</linearGradient>
<linearGradient id="paint6_linear_13177_1958" x1="163.167" y1="-5.49983" x2="232.008" y2="63.1924" gradientUnits="userSpaceOnUse">
<stop stop-color="#FFC109"/>
<stop offset="1" stop-color="#FF0AE6"/>
</linearGradient>
<clipPath id="clip0_13177_1958">
<rect width="235.335" height="40.0003" fill="white"/>
</clipPath>
</defs>
</svg>
