<svg width="240" height="80" viewBox="0 0 240 80" fill="none" xmlns="http://www.w3.org/2000/svg">
<path d="M80 40H160" stroke="#A05AF4" stroke-width="4" stroke-dasharray="8 8"/>
<circle cx="120" cy="40" r="16" fill="#1EC24D"/>
<path d="M112.8 39.1998L116.571 44.7998L128 36.7998" stroke="white" stroke-width="3"/>
<rect x="160" width="80" height="80" rx="20" fill="black"/>
<path fill-rule="evenodd" clip-rule="evenodd" d="M206.328 20H193.672C191.593 20 189.599 20.8059 188.129 22.2404C186.659 23.6749 185.833 25.6204 185.833 27.6491C185.833 29.6778 186.659 31.6234 188.129 33.0579C188.416 33.3378 188.723 33.5938 189.047 33.8246C188.723 34.0553 188.416 34.3113 188.129 34.5913C186.659 36.0258 185.833 37.9713 185.833 40C185.833 42.0287 186.659 43.9743 188.129 45.4088C188.416 45.6887 188.723 45.9447 189.046 46.1754C188.723 46.4062 188.416 46.6622 188.129 46.9421C186.659 48.3766 185.833 50.3222 185.833 52.3509C185.833 54.3796 186.659 56.3251 188.129 57.7596C189.599 59.1941 191.593 60 193.672 60C195.751 60 197.745 59.1941 199.214 57.7596C200.684 56.3251 201.51 54.3796 201.51 52.3509V46.0335C202.88 47.0751 204.574 47.6491 206.328 47.6491C208.407 47.6491 210.401 46.8432 211.871 45.4088C213.341 43.9743 214.167 42.0287 214.167 40C214.167 37.9713 213.341 36.0258 211.871 34.5913C211.584 34.3113 211.277 34.0553 210.954 33.8246C211.277 33.5938 211.584 33.3378 211.871 33.0579C213.341 31.6234 214.167 29.6778 214.167 27.6491C214.167 25.6204 213.341 23.6749 211.871 22.2404C210.401 20.8059 208.407 20 206.328 20ZM201.51 40.0068C201.512 41.2513 202.02 42.4445 202.922 43.3247C203.825 44.2064 205.051 44.7018 206.328 44.7018C207.606 44.7018 208.832 44.2064 209.735 43.3247C210.639 42.4429 211.147 41.247 211.147 40C211.147 38.753 210.639 37.5571 209.735 36.6754C208.832 35.7936 207.606 35.2983 206.328 35.2983C205.051 35.2983 203.825 35.7936 202.922 36.6754C202.02 37.5555 201.512 38.7487 201.51 39.9933V40.0068ZM198.49 47.6491H193.672C193.67 47.6491 193.668 47.6491 193.666 47.6491C192.39 47.6507 191.167 48.1459 190.265 49.0262C189.361 49.908 188.854 51.1039 188.854 52.3509C188.854 53.5979 189.361 54.7938 190.265 55.6755C191.169 56.5573 192.394 57.0526 193.672 57.0526C194.95 57.0526 196.175 56.5573 197.079 55.6755C197.982 54.7938 198.49 53.5979 198.49 52.3509V47.6491ZM193.665 44.7018C193.667 44.7018 193.67 44.7018 193.672 44.7018L198.49 44.7018V40.0086C198.49 40.0057 198.49 40.0029 198.49 40C198.49 39.9972 198.49 39.9943 198.49 39.9914V35.2983H193.672C192.394 35.2983 191.169 35.7936 190.265 36.6754C189.361 37.5571 188.854 38.753 188.854 40C188.854 41.247 189.361 42.4429 190.265 43.3247C191.167 44.2048 192.39 44.7 193.665 44.7018ZM206.328 32.3509H201.51V22.9474H206.328C207.606 22.9474 208.832 23.4427 209.735 24.3245C210.639 25.2062 211.147 26.4021 211.147 27.6491C211.147 28.8961 210.639 30.092 209.735 30.9738C208.832 31.8555 207.606 32.3509 206.328 32.3509ZM193.672 22.9474H198.49V32.3509H193.672C192.394 32.3509 191.169 31.8555 190.265 30.9738C189.361 30.092 188.854 28.8961 188.854 27.6491C188.854 26.4021 189.361 25.2062 190.265 24.3245C191.169 23.4427 192.394 22.9474 193.672 22.9474Z" fill="#EEF1F6"/>
<rect width="80" height="80" rx="20" fill="#7238FA"/>
<path fill-rule="evenodd" clip-rule="evenodd" d="M40 56.9231C43.3987 56.9231 46.1538 54.1679 46.1538 50.7692L46.1538 49.2308L33.8462 49.2308L33.8462 50.7692C33.8462 54.1679 36.6013 56.9231 40 56.9231ZM30.7692 49.2308L30.7692 50.7692C30.7692 55.8672 34.902 60 40 60C45.098 60 49.2308 55.8672 49.2308 50.7692L49.2308 49.2308L50.7692 49.2308C55.8672 49.2308 60 45.098 60 40C60 34.902 55.8672 30.7692 50.7692 30.7692L49.2308 30.7692L49.2308 29.2308C49.2308 24.1328 45.098 20 40 20C34.902 20 30.7692 24.1328 30.7692 29.2308L30.7692 30.7692L29.2308 30.7692C24.1328 30.7692 20 34.902 20 40C20 45.098 24.1328 49.2308 29.2308 49.2308L30.7692 49.2308ZM33.8462 46.1538L46.1538 46.1538L46.1538 33.8462L33.8462 33.8462L33.8462 46.1538ZM30.7692 33.8462L30.7692 46.1538L29.2308 46.1538C25.8321 46.1538 23.0769 43.3987 23.0769 40C23.0769 36.6013 25.8321 33.8462 29.2308 33.8462L30.7692 33.8462ZM33.8462 30.7692L46.1538 30.7692L46.1538 29.2308C46.1538 25.8321 43.3987 23.0769 40 23.0769C36.6013 23.0769 33.8462 25.8321 33.8462 29.2308L33.8462 30.7692ZM49.2308 33.8462L49.2308 46.1538L50.7692 46.1538C54.1679 46.1538 56.9231 43.3987 56.9231 40C56.9231 36.6013 54.1679 33.8462 50.7692 33.8462L49.2308 33.8462Z" fill="white"/>
<path fill-rule="evenodd" clip-rule="evenodd" d="M32.3075 30.7686C33.1572 30.7686 33.846 31.4573 33.846 32.307C33.846 33.1567 33.1572 33.8455 32.3075 33.8455C31.4578 33.8455 30.769 33.1567 30.769 32.307C30.769 31.4573 31.4578 30.7686 32.3075 30.7686ZM32.3075 46.1531C33.1572 46.1531 33.846 46.8419 33.846 47.6915C33.846 48.5412 33.1572 49.23 32.3075 49.23C31.4578 49.23 30.769 48.5412 30.769 47.6915C30.769 46.8419 31.4578 46.1531 32.3075 46.1531ZM49.2306 32.307C49.2306 31.4573 48.5418 30.7686 47.6921 30.7686C46.8425 30.7686 46.1537 31.4573 46.1537 32.307C46.1537 33.1567 46.8425 33.8455 47.6921 33.8455C48.5418 33.8455 49.2306 33.1567 49.2306 32.307ZM47.6921 46.1531C48.5418 46.1531 49.2306 46.8419 49.2306 47.6915C49.2306 48.5412 48.5418 49.23 47.6921 49.23C46.8425 49.23 46.1537 48.5412 46.1537 47.6915C46.1537 46.8419 46.8425 46.1531 47.6921 46.1531Z" fill="black"/>
</svg>
