<svg width="1504" height="264" viewBox="0 0 1504 264" fill="none" xmlns="http://www.w3.org/2000/svg">
<path d="M41.6001 36.0002L46.3962 42.3135M41.6001 36.0002L31.9972 23.1846L22.3962 35.9986M41.6001 36.0002L41.6005 50.4002L22.397 50.4002L22.3962 35.9986M22.3962 35.9986L17.6001 42.3133" stroke="#F6B823" stroke-width="2" stroke-linecap="round" stroke-linejoin="round"/>
<path d="M17.6001 50.4004L46.4001 50.4004" stroke="#F6B823" stroke-width="2" stroke-linecap="round" stroke-linejoin="round"/>
<path d="M31.9999 40.7996C31.1162 40.7996 30.3999 40.0833 30.3999 39.1996C30.3999 38.316 31.1162 37.5996 31.9999 37.5996C32.8836 37.5996 33.5999 38.316 33.5999 39.1996C33.5999 40.0833 32.8836 40.7996 31.9999 40.7996Z" stroke="#F6B823" stroke-width="2" stroke-linejoin="round"/>
<path d="M141.667 37.3337C141.667 44.8816 135.548 51.0003 128 51.0003C120.452 51.0003 114.333 44.8816 114.333 37.3337C114.333 29.7858 120.452 23.667 128 23.667C135.548 23.667 141.667 29.7858 141.667 37.3337Z" stroke="#F6B823" stroke-width="2" stroke-linecap="round" stroke-linejoin="round"/>
<path d="M124.667 20.667H131.333" stroke="#F6B823" stroke-width="2" stroke-linecap="round" stroke-linejoin="round"/>
<path d="M128 28.667V38.0003H137.333" stroke="#F6B823" stroke-width="2" stroke-linecap="round" stroke-linejoin="round"/>
<path d="M128 20.667V22.667" stroke="#F6B823" stroke-width="2" stroke-linejoin="round"/>
<path d="M209.6 29.5998C209.6 28.7161 210.316 27.9998 211.2 27.9998H216.937C217.362 27.9998 217.769 27.8312 218.069 27.5312L220.331 25.2684C220.632 24.9684 221.038 24.7998 221.463 24.7998H226.537C226.962 24.7998 227.369 24.9684 227.669 25.2684L229.931 27.5312C230.232 27.8312 230.638 27.9998 231.063 27.9998H236.8C237.684 27.9998 238.4 28.7161 238.4 29.5998V45.5998C238.4 46.4835 237.684 47.1998 236.8 47.1998H211.2C210.316 47.1998 209.6 46.4835 209.6 45.5998V29.5998Z" stroke="#F6B823" stroke-width="2" stroke-linecap="round" stroke-linejoin="round"/>
<path d="M228.8 37.5998C228.8 40.2508 226.651 42.3998 224 42.3998C221.349 42.3998 219.2 40.2508 219.2 37.5998C219.2 34.9488 221.349 32.7998 224 32.7998C226.651 32.7998 228.8 34.9488 228.8 37.5998Z" stroke="#F6B823" stroke-width="2" stroke-linecap="round" stroke-linejoin="round"/>
<path d="M328 34.4004V37.6004C328 39.6148 328.948 41.5117 330.56 42.7204C331.79 43.643 331.138 45.6004 329.6 45.6004H310.4C308.862 45.6004 308.21 43.643 309.44 42.7204C311.052 41.5117 312 39.6148 312 37.6004V34.4004C312 29.9821 315.582 26.4004 320 26.4004C324.418 26.4004 328 29.9821 328 34.4004Z" stroke="#F6B823" stroke-width="2" stroke-linecap="round" stroke-linejoin="round"/>
<path d="M320 26.4002L320 23.2002" stroke="#F6B823" stroke-width="2" stroke-linecap="round" stroke-linejoin="round"/>
<path d="M320 50.3996C322.651 50.3996 324.8 48.2506 324.8 45.5996H315.2C315.2 48.2506 317.349 50.3996 320 50.3996Z" stroke="#F6B823" stroke-width="2" stroke-linecap="round" stroke-linejoin="round"/>
<path d="M416 26.4532C420.01 23.7687 425.972 25.2 429.24 26.1212C429.929 26.3152 430.4 26.9466 430.4 27.6615V45.8727C430.4 47.1379 428.996 47.904 427.888 47.2938C422.885 44.54 419.469 44.3601 416 47.2537C411.542 44.185 408.626 45.0495 403.979 47.5067C402.904 48.0755 401.6 47.3111 401.6 46.0941V27.6716C401.6 26.9511 402.078 26.3171 402.774 26.1287C406.232 25.1922 412.418 23.7588 416 26.4532Z" stroke="#F6B823" stroke-width="2" stroke-linecap="round" stroke-linejoin="round"/>
<path d="M416 26.4531V47.2536" stroke="#F6B823" stroke-width="2" stroke-linecap="round" stroke-linejoin="round"/>
<path d="M512 23.3871L514.604 31.8134C514.863 32.6514 515.638 33.2229 516.515 33.2229H525.044L518.059 38.559C517.393 39.0678 517.115 39.938 517.362 40.7388L520.009 49.3061L513.214 44.1149C512.497 43.5673 511.503 43.5673 510.786 44.1149L503.991 49.3061L506.638 40.7388C506.885 39.938 506.607 39.0678 505.941 38.559L498.956 33.2229L507.485 33.2229C508.362 33.2229 509.137 32.6514 509.396 31.8134L512 23.3871Z" stroke="#F6B823" stroke-width="2" stroke-linecap="round" stroke-linejoin="round"/>
<path fill-rule="evenodd" clip-rule="evenodd" d="M595.2 23.3209C595.2 22.6166 595.661 22.0037 596.356 21.8879C598.124 21.593 601.859 21.2649 607.147 22.3443C611.155 23.1625 614.751 23.2944 617.246 23.2378C618.626 23.2064 619.602 24.8155 618.844 25.97L616.039 30.2445C615.713 30.7408 615.689 31.3767 615.976 31.8963L619.582 38.4203C620.076 39.3148 619.608 40.4041 618.597 40.5496C616.322 40.8768 612.244 41.1023 607.377 39.7585C601.707 38.1931 597.661 38.7596 596.016 39.0974C595.502 39.203 595.2 38.9616 595.2 38.4367V23.3209Z" stroke="#F6B823" stroke-width="2" stroke-linecap="round" stroke-linejoin="round"/>
<path d="M595.2 50.4L595.2 36" stroke="#F6B823" stroke-width="2" stroke-linecap="round" stroke-linejoin="round"/>
<path d="M689.64 42.4003C689.198 41.635 689.46 40.6565 690.225 40.2146C690.991 39.7728 691.969 40.035 692.411 40.8003L697.211 49.1141C697.653 49.8794 697.391 50.8579 696.625 51.2998C695.86 51.7416 694.882 51.4794 694.44 50.7141L689.64 42.4003Z" stroke="#F6B823" stroke-width="2" stroke-linecap="round" stroke-linejoin="round"/>
<path d="M692.737 41.3671C692.295 40.6018 692.557 39.6233 693.322 39.1814C694.088 38.7396 695.066 39.0018 695.508 39.7671L699.653 46.9468C700.095 47.7121 699.833 48.6906 699.067 49.1325C698.302 49.5743 697.324 49.3121 696.882 48.5468L692.737 41.3671Z" stroke="#F6B823" stroke-width="2" stroke-linecap="round" stroke-linejoin="round"/>
<path d="M718.435 42.4014C718.877 41.6361 718.615 40.6576 717.85 40.2157C717.084 39.7739 716.106 40.0361 715.664 40.8014L710.864 49.1152C710.422 49.8805 710.684 50.859 711.45 51.3009C712.215 51.7427 713.194 51.4805 713.635 50.7152L718.435 42.4014Z" stroke="#F6B823" stroke-width="2" stroke-linecap="round" stroke-linejoin="round"/>
<path d="M715.34 41.3632C715.782 40.5979 715.519 39.6193 714.754 39.1775C713.989 38.7357 713.01 38.9979 712.569 39.7632L708.418 46.9525C707.976 47.7178 708.238 48.6963 709.003 49.1381C709.769 49.58 710.747 49.3178 711.189 48.5525L715.34 41.3632Z" stroke="#F6B823" stroke-width="2" stroke-linecap="round" stroke-linejoin="round"/>
<path d="M690.226 40.214C689.819 38.8811 689.6 37.4662 689.6 36" stroke="#F6B823" stroke-width="2" stroke-linecap="round" stroke-linejoin="round"/>
<path d="M718.401 36C718.401 37.4662 718.182 38.8811 717.775 40.214" stroke="#F6B823" stroke-width="2" stroke-linecap="round" stroke-linejoin="round"/>
<path d="M689.6 35.9996C689.6 28.0467 696.047 21.5996 704 21.5996C711.953 21.5996 718.4 28.0467 718.4 35.9996" stroke="#F6B823" stroke-width="2" stroke-linecap="round" stroke-linejoin="round"/>
<path d="M788.8 36.0004C788.8 35.1167 789.516 34.4004 790.4 34.4004H809.6C810.484 34.4004 811.2 35.1167 811.2 36.0004V48.8004C811.2 49.684 810.484 50.4004 809.6 50.4004H790.4C789.516 50.4004 788.8 49.684 788.8 48.8004V36.0004Z" stroke="#F6B823" stroke-width="2" stroke-linecap="round" stroke-linejoin="round"/>
<path d="M801.6 42.3998C801.6 43.2835 800.884 43.9998 800 43.9998C799.116 43.9998 798.4 43.2835 798.4 42.3998C798.4 41.5161 799.116 40.7998 800 40.7998C800.884 40.7998 801.6 41.5161 801.6 42.3998Z" stroke="#F6B823" stroke-width="2" stroke-linecap="round" stroke-linejoin="round"/>
<path d="M792 34.3996V29.5996C792 25.1813 795.582 21.5996 800 21.5996C804.418 21.5996 808 25.1813 808 29.5996V34.3996" stroke="#F6B823" stroke-width="2" stroke-linecap="round" stroke-linejoin="round"/>
<path d="M890.4 40.7999H886.4L882.644 29.2715C883.531 30.3276 884.895 30.9646 886.387 30.8579L887.2 30.7999L890.4 40.7999Z" stroke="#F6B823" stroke-width="2" stroke-linecap="round" stroke-linejoin="round"/>
<path d="M901.601 52H905.601L909.357 40.4717C908.47 41.5278 907.106 42.1648 905.613 42.0581L904.801 42.0001L901.601 52Z" stroke="#F6B823" stroke-width="2" stroke-linecap="round" stroke-linejoin="round"/>
<path d="M881.6 26.4012C881.6 23.8075 883.801 21.7584 886.388 21.9432L889.085 22.1359C891.178 22.2854 892.8 24.0272 892.8 26.1257V26.6768C892.8 28.7753 891.178 30.5171 889.085 30.6666L886.388 30.8593C883.801 31.0441 881.6 28.995 881.6 26.4012Z" stroke="#F6B823" stroke-width="2" stroke-linecap="round" stroke-linejoin="round"/>
<path d="M910.4 37.6005C910.4 35.0067 908.199 32.9576 905.612 33.1424L902.915 33.3351C900.822 33.4846 899.2 35.2264 899.2 37.3249V37.876C899.2 39.9745 900.822 41.7163 902.915 41.8658L905.612 42.0585C908.199 42.2433 910.4 40.1942 910.4 37.6005Z" stroke="#F6B823" stroke-width="2" stroke-linecap="round" stroke-linejoin="round"/>
<path d="M892.8 28.3497V24.4507C892.8 23.7329 893.518 23.1453 894.398 23.2043C895.073 23.2494 895.737 23.3228 896.39 23.4231C897.107 23.5333 897.6 24.0569 897.6 24.6499V28.1505C897.6 28.7435 897.107 29.2671 896.39 29.3773C895.737 29.4775 895.073 29.551 894.398 29.5961C893.518 29.6551 892.8 29.0675 892.8 28.3497Z" stroke="#F6B823" stroke-width="2" stroke-linecap="round" stroke-linejoin="round"/>
<path d="M899.2 39.5499V35.6509C899.2 34.9331 898.482 34.3455 897.602 34.4045C896.927 34.4496 896.263 34.523 895.61 34.6233C894.893 34.7335 894.4 35.2571 894.4 35.8501V39.3507C894.4 39.9437 894.893 40.4673 895.61 40.5775C896.263 40.6777 896.927 40.7512 897.602 40.7963C898.482 40.8553 899.2 40.2677 899.2 39.5499Z" stroke="#F6B823" stroke-width="2" stroke-linecap="round" stroke-linejoin="round"/>
<path d="M886.4 26.4004L883.2 26.4004" stroke="#F6B823" stroke-width="2" stroke-linecap="round" stroke-linejoin="round"/>
<path d="M905.6 37.5996L908.8 37.5996" stroke="#F6B823" stroke-width="2" stroke-linecap="round" stroke-linejoin="round"/>
<path d="M977.6 31.1996C977.6 30.316 978.316 29.5996 979.2 29.5996H1004.8C1005.68 29.5996 1006.4 30.316 1006.4 31.1996V47.1996C1006.4 48.0833 1005.68 48.7996 1004.8 48.7996H979.2C978.316 48.7996 977.6 48.0833 977.6 47.1996V31.1996Z" stroke="#F6B823" stroke-width="2" stroke-linecap="round" stroke-linejoin="round"/>
<path d="M982.4 39.2004C982.4 41.8514 984.549 44.0004 987.2 44.0004C989.851 44.0004 992 41.8514 992 39.2004C992 36.5494 989.851 34.4004 987.2 34.4004C984.549 34.4004 982.4 36.5494 982.4 39.2004Z" stroke="#F6B823" stroke-width="2" stroke-linecap="round" stroke-linejoin="round"/>
<path d="M1004.8 23.2002L982.189 26.2151C981.394 26.321 980.8 26.9991 980.8 27.801V29.6002" stroke="#F6B823" stroke-width="2" stroke-linecap="round" stroke-linejoin="round"/>
<path d="M996.8 44L1001.6 44" stroke="#F6B823" stroke-width="2" stroke-linecap="round" stroke-linejoin="round"/>
<path d="M998.4 39.2002L1001.6 39.2002" stroke="#F6B823" stroke-width="2" stroke-linecap="round" stroke-linejoin="round"/>
<path d="M996.8 34.4004L1001.6 34.4004" stroke="#F6B823" stroke-width="2" stroke-linecap="round" stroke-linejoin="round"/>
<path d="M1073.6 23.1996C1073.6 22.316 1074.32 21.5996 1075.2 21.5996H1100.8C1101.68 21.5996 1102.4 22.316 1102.4 23.1996V48.7996C1102.4 49.6833 1101.68 50.3996 1100.8 50.3996H1075.2C1074.32 50.3996 1073.6 49.6833 1073.6 48.7996V23.1996Z" stroke="#F6B823" stroke-width="2" stroke-linecap="round" stroke-linejoin="round"/>
<path d="M1086.4 31.2C1086.4 32.9673 1084.97 34.4 1083.2 34.4C1081.43 34.4 1080 32.9673 1080 31.2C1080 29.4327 1081.43 28 1083.2 28C1084.97 28 1086.4 29.4327 1086.4 31.2Z" stroke="#F6B823" stroke-width="2" stroke-linecap="round" stroke-linejoin="round"/>
<path d="M1086.4 50.4004C1086.4 41.5638 1093.56 34.4004 1102.4 34.4004" stroke="#F6B823" stroke-width="2" stroke-linecap="round" stroke-linejoin="round"/>
<path d="M1174.13 22.8644C1174.29 22.1267 1174.94 21.5996 1175.69 21.5996H1192.31C1193.06 21.5996 1193.71 22.1266 1193.87 22.8644L1198.4 43.9996V48.7996C1198.4 49.6833 1197.68 50.3996 1196.8 50.3996H1171.2C1170.32 50.3996 1169.6 49.6833 1169.6 48.7996V43.9996L1174.13 22.8644Z" stroke="#F6B823" stroke-width="2" stroke-linecap="round" stroke-linejoin="round"/>
<path d="M1169.6 44H1198.4" stroke="#F6B823" stroke-width="2" stroke-linecap="round" stroke-linejoin="round"/>
<path d="M1179.2 32.7998L1184 37.5998L1188.8 32.7998" stroke="#F6B823" stroke-width="2" stroke-linecap="round" stroke-linejoin="round"/>
<path d="M1184 37.6L1184 28" stroke="#F6B823" stroke-width="2" stroke-linecap="round" stroke-linejoin="round"/>
<path d="M1289.6 21.5996H1270.4C1269.52 21.5996 1268.8 22.316 1268.8 23.1996V39.1996C1268.8 40.0833 1269.52 40.7996 1270.4 40.7996H1289.6C1290.48 40.7996 1291.2 40.0833 1291.2 39.1996V23.1996C1291.2 22.316 1290.48 21.5996 1289.6 21.5996Z" stroke="#F6B823" stroke-width="2" stroke-linecap="round" stroke-linejoin="round"/>
<path d="M1268.8 34.4004H1291.2" stroke="#F6B823" stroke-width="2" stroke-linecap="round" stroke-linejoin="round"/>
<path d="M1280 50.3998C1282.21 50.3998 1284 48.6089 1284 46.3998L1283.4 40.7998H1276.66L1276 46.3998C1276 48.6089 1277.79 50.3998 1280 50.3998Z" stroke="#F6B823" stroke-width="2" stroke-linecap="round" stroke-linejoin="round"/>
<path d="M1275.2 21.5996V27.9996" stroke="#F6B823" stroke-width="2" stroke-linecap="round" stroke-linejoin="round"/>
<path d="M1363.56 48.9132C1364.81 50.1628 1366.83 50.1628 1368.08 48.9132L1372.61 44.3877C1373.23 43.7628 1373.23 42.7498 1372.61 42.1249L1370.34 39.8622C1369.72 39.2373 1368.71 39.2373 1368.08 39.8622L1363.56 44.3877C1362.31 45.6373 1362.31 47.6635 1363.56 48.9132Z" stroke="#F6B823" stroke-width="2" stroke-linecap="round" stroke-linejoin="round"/>
<path d="M1371.48 40.9941L1387.48 24.9941" stroke="#F6B823" stroke-width="2" stroke-linecap="round" stroke-linejoin="round"/>
<path d="M1370.34 30.3438L1381.66 41.6575" stroke="#F6B823" stroke-width="2" stroke-linecap="round" stroke-linejoin="round"/>
<path d="M1370.34 23.5563C1372.22 25.4308 1372.22 28.47 1370.34 30.3445C1368.47 32.219 1365.43 32.219 1363.56 30.3445C1361.68 28.47 1361.68 25.4308 1363.56 23.5563C1365.43 21.6818 1368.47 21.6818 1370.34 23.5563Z" stroke="#F6B823" stroke-width="2" stroke-linecap="round" stroke-linejoin="round"/>
<path d="M1388.44 41.6559C1390.32 43.5304 1390.32 46.5696 1388.44 48.4441C1386.57 50.3186 1383.53 50.3186 1381.66 48.4441C1379.78 46.5696 1379.78 43.5304 1381.66 41.6559C1383.53 39.7814 1386.57 39.7814 1388.44 41.6559Z" stroke="#F6B823" stroke-width="2" stroke-linecap="round" stroke-linejoin="round"/>
<path d="M1363.56 23.5547L1365.82 25.8174" stroke="#F6B823" stroke-width="2" stroke-linecap="round" stroke-linejoin="round"/>
<path d="M1386.18 46.1816L1388.44 48.4444" stroke="#F6B823" stroke-width="2" stroke-linecap="round" stroke-linejoin="round"/>
<path d="M1457.6 39.1998C1457.6 43.6181 1461.18 47.1998 1465.6 47.1998H1479.2C1483.18 47.1998 1486.4 43.9763 1486.4 39.9998C1486.4 36.8364 1484.36 34.1495 1481.52 33.183C1480.93 28.4556 1476.89 24.7998 1472 24.7998C1467.63 24.7998 1463.94 27.7174 1462.78 31.7103C1459.75 32.8502 1457.6 35.7734 1457.6 39.1998Z" stroke="#F6B823" stroke-width="2" stroke-linecap="round" stroke-linejoin="round"/>
<path d="M65.6001 99.9998L94.4001 88.7998" stroke="#F6B823" stroke-width="2" stroke-linecap="round" stroke-linejoin="round"/>
<path d="M94.4001 99.9998L65.6001 88.7998" stroke="#F6B823" stroke-width="2" stroke-linecap="round" stroke-linejoin="round"/>
<path d="M72.375 83.3062C72.375 89.6275 76.9379 92.9709 79.69 94.4008C88.0753 88.4923 88.1937 80.6723 87.2048 77.5009C85.5019 81.1389 81.6576 83.618 79.9482 84.4028C84.0506 78.8555 81.034 71.6419 79.0129 68.7285C79.69 74.437 72.375 75.7916 72.375 83.3062Z" stroke="#F6B823" stroke-width="2" stroke-linecap="round" stroke-linejoin="round"/>
<path d="M161.6 81.6568C161.6 81.1218 161.867 80.6222 162.313 80.3255L175.113 71.7922C175.65 71.4339 176.35 71.4339 176.888 71.7922L189.688 80.3255C190.133 80.6222 190.4 81.1218 190.4 81.6568V96.8005C190.4 97.6841 189.684 98.4005 188.8 98.4005H163.2C162.316 98.4005 161.6 97.6841 161.6 96.8005V81.6568Z" stroke="#F6B823" stroke-width="2" stroke-linecap="round" stroke-linejoin="round"/>
<path d="M162.4 81.5996L175.131 89.8372C175.66 90.1794 176.34 90.1794 176.869 89.8372L189.6 81.5996" stroke="#F6B823" stroke-width="2" stroke-linecap="round" stroke-linejoin="round"/>
<path fill-rule="evenodd" clip-rule="evenodd" d="M272 94.3998C265.6 85.8722 262.4 82.8647 262.4 77.7598C262.4 72.8113 266.698 68.7998 272 68.7998C277.302 68.7998 281.6 72.8113 281.6 77.7598C281.6 82.8712 278.4 85.8197 272 94.3998Z" stroke="#F6B823" stroke-width="2" stroke-linecap="round" stroke-linejoin="round"/>
<path d="M280.199 91.2002C282.061 92.0499 283.2 93.1894 283.2 94.4419C283.2 97.0701 278.186 99.2006 272 99.2006C265.814 99.2006 260.8 97.0701 260.8 94.4419C260.8 93.1894 261.939 92.0499 263.801 91.2002" stroke="#F6B823" stroke-width="2" stroke-linecap="round" stroke-linejoin="round"/>
<path d="M275.2 78.4002C275.2 80.1675 273.767 81.6002 272 81.6002C270.233 81.6002 268.8 80.1675 268.8 78.4002C268.8 76.6329 270.233 75.2002 272 75.2002C273.767 75.2002 275.2 76.6329 275.2 78.4002Z" stroke="#F6B823" stroke-width="2" stroke-linejoin="round"/>
<path d="M353.6 74.3998C353.6 73.5161 354.316 72.7998 355.2 72.7998H360.937C361.362 72.7998 361.769 72.9684 362.069 73.2684L364.331 75.5312C364.632 75.8312 365.038 75.9998 365.463 75.9998H380.8C381.684 75.9998 382.4 76.7161 382.4 77.5998V93.5998C382.4 94.4835 381.684 95.1998 380.8 95.1998H355.2C354.316 95.1998 353.6 94.4835 353.6 93.5998V74.3998Z" stroke="#F6B823" stroke-width="2" stroke-linecap="round" stroke-linejoin="round"/>
<path d="M470.4 69.5996H452.8C451.916 69.5996 451.2 70.316 451.2 71.1996V96.7996C451.2 97.6833 451.916 98.3996 452.8 98.3996H472V71.1996C472 70.316 471.284 69.5996 470.4 69.5996Z" stroke="#F6B823" stroke-width="2" stroke-linecap="round" stroke-linejoin="round"/>
<path d="M472 98.4V84H475.2C476.084 84 476.8 84.7163 476.8 85.6V96.8C476.8 97.6837 476.084 98.4 475.2 98.4H472Z" stroke="#F6B823" stroke-width="2" stroke-linecap="round" stroke-linejoin="round"/>
<path d="M456 93.5996H467.2" stroke="#F6B823" stroke-width="2" stroke-linecap="round" stroke-linejoin="round"/>
<path d="M456 88.7998H467.2" stroke="#F6B823" stroke-width="2" stroke-linecap="round" stroke-linejoin="round"/>
<path d="M456 84H467.2" stroke="#F6B823" stroke-width="2" stroke-linecap="round" stroke-linejoin="round"/>
<path d="M556.952 90.4002H563.048M548.8 90.4002H571.2C572.084 90.4002 572.8 89.6839 572.8 88.8002V72.8002C572.8 71.9165 572.084 71.2002 571.2 71.2002H548.8C547.916 71.2002 547.2 71.9165 547.2 72.8002V88.8002C547.2 89.6838 547.916 90.4002 548.8 90.4002Z" stroke="#F6B823" stroke-width="2" stroke-linecap="round" stroke-linejoin="round"/>
<path d="M547.2 85.5996H572.8" stroke="#F6B823" stroke-width="2" stroke-linecap="round" stroke-linejoin="round"/>
<path d="M556.8 90.4004H563.2L568 96.8004H552L556.8 90.4004Z" stroke="#F6B823" stroke-width="2" stroke-linecap="round" stroke-linejoin="round"/>
<path d="M668.8 77.5996H643.2C642.316 77.5996 641.6 78.316 641.6 79.1996V93.5996C641.6 94.4833 642.316 95.1996 643.2 95.1996H648V93.5996C648 92.716 648.716 91.9996 649.6 91.9996H662.4C663.284 91.9996 664 92.716 664 93.5996V95.1996H668.8C669.684 95.1996 670.4 94.4833 670.4 93.5996V79.1996C670.4 78.316 669.684 77.5996 668.8 77.5996Z" stroke="#F6B823" stroke-width="2" stroke-linecap="round" stroke-linejoin="round"/>
<path d="M665.6 83.2004C665.6 83.6422 665.242 84.0004 664.8 84.0004C664.358 84.0004 664 83.6422 664 83.2004C664 82.7586 664.358 82.4004 664.8 82.4004C665.242 82.4004 665.6 82.7586 665.6 83.2004Z" stroke="#F6B823" stroke-width="2" stroke-linecap="round" stroke-linejoin="round"/>
<path d="M648 93.6V96.8C648 97.6837 648.716 98.4 649.6 98.4H662.4C663.284 98.4 664 97.6837 664 96.8V93.6C664 92.7163 663.284 92 662.4 92H649.6C648.716 92 648 92.7163 648 93.6Z" stroke="#F6B823" stroke-width="2" stroke-linecap="round" stroke-linejoin="round"/>
<path d="M648 77.5996H664V71.1996C664 70.316 663.284 69.5996 662.4 69.5996H649.6C648.716 69.5996 648 70.316 648 71.1996V77.5996Z" stroke="#F6B823" stroke-width="2" stroke-linecap="round" stroke-linejoin="round"/>
<path d="M766.4 83.9996C766.4 91.9525 759.953 98.3996 752 98.3996C744.047 98.3996 737.6 91.9525 737.6 83.9996C737.6 76.0467 744.047 69.5996 752 69.5996C759.953 69.5996 766.4 76.0467 766.4 83.9996Z" stroke="#F6B823" stroke-width="2" stroke-linecap="round" stroke-linejoin="round"/>
<path d="M746.4 83.9998L749.44 88.7998L758.4 80.7998" stroke="#F6B823" stroke-width="2" stroke-linecap="round" stroke-linejoin="round"/>
<path d="M862.4 83.9996C862.4 91.9525 855.953 98.3996 848 98.3996C840.047 98.3996 833.6 91.9525 833.6 83.9996C833.6 76.0467 840.047 69.5996 848 69.5996C855.953 69.5996 862.4 76.0467 862.4 83.9996Z" stroke="#F6B823" stroke-width="2" stroke-linecap="round" stroke-linejoin="round"/>
<path d="M862.4 83.9996L848 83.9996V69.5996" stroke="#F6B823" stroke-width="2" stroke-linecap="round" stroke-linejoin="round"/>
<path d="M955.2 77.5996C954.4 71.1996 951.618 69.5996 947.2 69.5996H932.8C931.916 69.5996 931.2 70.316 931.2 71.1996V77.5996C931.2 78.4833 931.916 79.1996 932.8 79.1996H942.847C943.535 79.1996 944.147 79.6403 944.365 80.2936L950.035 97.3056C950.253 97.9589 950.864 98.3996 951.553 98.3996H955.072C956.004 98.3996 956.739 97.6062 956.667 96.6769L955.2 77.5996Z" stroke="#F6B823" stroke-width="2" stroke-linecap="round" stroke-linejoin="round"/>
<path d="M945.6 85.5996L940.8 85.5996" stroke="#F6B823" stroke-width="2" stroke-linecap="round" stroke-linejoin="round"/>
<path d="M937.6 79.1996V69.5996" stroke="#F6B823" stroke-width="2" stroke-linecap="round" stroke-linejoin="round"/>
<path d="M1046.4 85.5996L1054.4 98.3996H1048L1043.37 90.4548L1046.4 85.5996Z" stroke="#F6B823" stroke-width="2" stroke-linecap="round" stroke-linejoin="round"/>
<path d="M1036.8 79.2002L1048 98.4002H1025.6L1036.8 79.2002Z" stroke="#F6B823" stroke-width="2" stroke-linecap="round" stroke-linejoin="round"/>
<path d="M1048 77.6C1048 78.4837 1047.28 79.2 1046.4 79.2C1045.52 79.2 1044.8 78.4837 1044.8 77.6C1044.8 76.7163 1045.52 76 1046.4 76C1047.28 76 1048 76.7163 1048 77.6Z" stroke="#F6B823" stroke-width="2" stroke-linejoin="round"/>
<path d="M1046.4 69.5996V71.1996" stroke="#F6B823" stroke-width="2" stroke-linecap="round" stroke-linejoin="round"/>
<path d="M1053.33 81.5998L1051.94 80.7998" stroke="#F6B823" stroke-width="2" stroke-linecap="round" stroke-linejoin="round"/>
<path d="M1040.86 74.3996L1039.47 73.5996" stroke="#F6B823" stroke-width="2" stroke-linecap="round" stroke-linejoin="round"/>
<path d="M1053.33 73.5996L1051.94 74.3996" stroke="#F6B823" stroke-width="2" stroke-linecap="round" stroke-linejoin="round"/>
<path d="M1126.47 98.4004H1145.53C1146.44 98.4004 1147.18 97.6349 1147.02 96.7369C1146.36 92.9725 1144.03 90.3369 1140.43 89.1422C1139.72 88.9063 1139.2 88.2694 1139.2 87.5216V82.4004H1132.8V87.4946C1132.8 88.2546 1132.26 88.8976 1131.54 89.1297C1127.95 90.2796 1125.62 92.9898 1124.97 96.7436C1124.82 97.6394 1125.56 98.4004 1126.47 98.4004Z" stroke="#F6B823" stroke-width="2" stroke-linecap="round" stroke-linejoin="round"/>
<path d="M1136 75.9996H1145.6C1146.48 75.9996 1147.2 75.2833 1147.2 74.3996V71.1996C1147.2 70.316 1146.48 69.5996 1145.6 69.5996H1137.6C1136.72 69.5996 1136 70.316 1136 71.1996V75.9996ZM1136 75.9996V82.3996" stroke="#F6B823" stroke-width="2" stroke-linecap="round" stroke-linejoin="round"/>
<path d="M1140.8 82.4004H1131.2" stroke="#F6B823" stroke-width="2" stroke-linecap="round" stroke-linejoin="round"/>
<path d="M1220.8 98.3996H1243.2C1244.08 98.3996 1244.8 97.6816 1244.8 96.7969L1244.76 75.9996L1238.36 69.5996H1220.8C1219.92 69.5996 1219.2 70.316 1219.2 71.1996V96.7996C1219.2 97.6833 1219.92 98.3996 1220.8 98.3996Z" stroke="#F6B823" stroke-width="2" stroke-linecap="round" stroke-linejoin="round"/>
<path d="M1244.76 75.9996L1238.36 69.5996V75.9996H1244.76Z" stroke="#F6B823" stroke-width="2" stroke-linecap="round" stroke-linejoin="round"/>
<path d="M1236.8 87.2002H1227.2" stroke="#F6B823" stroke-width="2" stroke-linecap="round" stroke-linejoin="round"/>
<path d="M1232 82.4004V92.0004" stroke="#F6B823" stroke-width="2" stroke-linecap="round" stroke-linejoin="round"/>
<path d="M1320 72.7998H1316.8C1315.92 72.7998 1315.2 73.5161 1315.2 74.3998V96.7998C1315.2 97.6835 1315.92 98.3998 1316.8 98.3998H1336C1336.88 98.3998 1337.6 97.6835 1337.6 96.7998V93.5998" stroke="#F6B823" stroke-width="2" stroke-linecap="round" stroke-linejoin="round"/>
<path d="M1321.6 93.5996H1339.2C1340.08 93.5996 1340.8 92.8812 1340.8 91.9962L1340.76 75.9996L1334.36 69.5996H1321.6C1320.72 69.5996 1320 70.316 1320 71.1996V91.9996C1320 92.8833 1320.72 93.5996 1321.6 93.5996Z" stroke="#F6B823" stroke-width="2" stroke-linecap="round" stroke-linejoin="round"/>
<path d="M1340.76 75.9996L1334.36 69.5996V75.9996H1340.76Z" stroke="#F6B823" stroke-width="2" stroke-linecap="round" stroke-linejoin="round"/>
<path d="M1435.3 81.4757L1419.58 97.164L1420.64 89.9347C1420.8 88.878 1420.09 87.886 1419.04 87.6816L1412.7 86.4449L1428.36 70.8115L1427.37 77.9635C1427.22 79.0112 1427.92 79.9911 1428.95 80.1995L1435.3 81.4757Z" stroke="#F6B823" stroke-width="2" stroke-linecap="round" stroke-linejoin="round"/>
<path d="M17.6001 119.2C17.6001 118.316 18.3164 117.6 19.2001 117.6H44.8001C45.6838 117.6 46.4001 118.316 46.4001 119.2V144.8C46.4001 145.683 45.6838 146.4 44.8001 146.4H19.2001C18.3164 146.4 17.6001 145.683 17.6001 144.8V119.2Z" stroke="#F6B823" stroke-width="2" stroke-linecap="round" stroke-linejoin="round"/>
<path d="M17.6001 124H46.4001" stroke="#F6B823" stroke-width="2" stroke-linecap="round" stroke-linejoin="round"/>
<path d="M35.2 130.4H38.4V140" stroke="#F6B823" stroke-width="2" stroke-linecap="round" stroke-linejoin="round"/>
<path d="M25.6001 130.4H28.8001V140" stroke="#F6B823" stroke-width="2" stroke-linecap="round" stroke-linejoin="round"/>
<path d="M132.8 138.4L128.381 125.6H127.581L123.2 138.4" stroke="#F6B823" stroke-width="2" stroke-linecap="round" stroke-linejoin="round"/>
<path d="M131.419 134.4H124.569" stroke="#F6B823" stroke-width="2" stroke-linecap="round" stroke-linejoin="round"/>
<path d="M116.8 124V140M120 120.8H136M139.2 124V140M136 143.2H120" stroke="#F6B823" stroke-width="2" stroke-linecap="round" stroke-linejoin="round"/>
<path d="M120 120.8C120 122.567 118.567 124 116.8 124C115.033 124 113.6 122.567 113.6 120.8C113.6 119.032 115.033 117.6 116.8 117.6C118.567 117.6 120 119.032 120 120.8Z" stroke="#F6B823" stroke-width="2" stroke-linecap="round" stroke-linejoin="round"/>
<path d="M120 143.2C120 144.967 118.567 146.4 116.8 146.4C115.033 146.4 113.6 144.967 113.6 143.2C113.6 141.433 115.033 140 116.8 140C118.567 140 120 141.433 120 143.2Z" stroke="#F6B823" stroke-width="2" stroke-linecap="round" stroke-linejoin="round"/>
<path d="M142.4 120.8C142.4 122.567 140.967 124 139.2 124C137.433 124 136 122.567 136 120.8C136 119.032 137.433 117.6 139.2 117.6C140.967 117.6 142.4 119.032 142.4 120.8Z" stroke="#F6B823" stroke-width="2" stroke-linecap="round" stroke-linejoin="round"/>
<path d="M142.4 143.2C142.4 144.967 140.967 146.4 139.2 146.4C137.433 146.4 136 144.967 136 143.2C136 141.433 137.433 140 139.2 140C140.967 140 142.4 141.433 142.4 143.2Z" stroke="#F6B823" stroke-width="2" stroke-linecap="round" stroke-linejoin="round"/>
<path fill-rule="evenodd" clip-rule="evenodd" d="M211.313 122.649C214.927 118.518 220.099 119.708 223.733 122.887C227.367 119.708 232.539 118.518 236.154 122.649C239.063 125.975 238.726 131.029 235.401 133.938L223.733 144.148L212.065 133.938C208.74 131.029 208.403 125.975 211.313 122.649Z" stroke="#F6B823" stroke-width="2" stroke-linecap="round" stroke-linejoin="round"/>
<path d="M316.8 136.8H323.2" stroke="#F6B823" stroke-width="2" stroke-linecap="round" stroke-linejoin="round"/>
<path d="M305.6 135.2L307.056 120.641C307.138 119.823 307.826 119.2 308.648 119.2H310.4" stroke="#F6B823" stroke-width="2" stroke-linecap="round" stroke-linejoin="round"/>
<path d="M334.4 135.2L332.944 120.641C332.862 119.823 332.174 119.2 331.352 119.2H329.6" stroke="#F6B823" stroke-width="2" stroke-linecap="round" stroke-linejoin="round"/>
<path d="M305.6 135.2C305.6 134.316 306.316 133.6 307.2 133.6H315.2C316.084 133.6 316.8 134.316 316.8 135.2V141.6C316.8 142.483 316.084 143.2 315.2 143.2H307.2C306.316 143.2 305.6 142.483 305.6 141.6V135.2Z" stroke="#F6B823" stroke-width="2" stroke-linecap="round" stroke-linejoin="round"/>
<path d="M323.181 135.199C323.181 134.316 323.898 133.6 324.781 133.6H332.782C333.665 133.6 334.382 134.316 334.382 135.2V141.6C334.382 142.483 333.665 143.2 332.782 143.2H324.781C323.898 143.2 323.182 142.483 323.181 141.6L323.181 135.199Z" stroke="#F6B823" stroke-width="2" stroke-linecap="round" stroke-linejoin="round"/>
<path d="M401.6 119.2C401.6 118.316 402.316 117.6 403.2 117.6H428.8C429.684 117.6 430.4 118.316 430.4 119.2V144.8C430.4 145.683 429.684 146.4 428.8 146.4H403.2C402.316 146.4 401.6 145.683 401.6 144.8V119.2Z" stroke="#F6B823" stroke-width="2" stroke-linecap="round" stroke-linejoin="round"/>
<path d="M424 124H420.8V122.4H417.6" stroke="#F6B823" stroke-width="2" stroke-linecap="round" stroke-linejoin="round"/>
<path d="M424 128.8H420.8V127.2H417.6" stroke="#F6B823" stroke-width="2" stroke-linecap="round" stroke-linejoin="round"/>
<path d="M424 133.6H420.8V132H417.6" stroke="#F6B823" stroke-width="2" stroke-linecap="round" stroke-linejoin="round"/>
<path d="M420.8 117.6V138.4" stroke="#F6B823" stroke-width="2" stroke-linecap="round" stroke-linejoin="round"/>
<path d="M417.6 140L420.8 141.6L424 140V138.4H417.6V140Z" stroke="#F6B823" stroke-width="2" stroke-linecap="round" stroke-linejoin="round"/>
<path fill-rule="evenodd" clip-rule="evenodd" d="M497.6 119.699C497.6 118.643 498.606 117.876 499.624 118.156L507.2 120.239L516.8 117.6L525.306 120.435C525.959 120.653 526.4 121.264 526.4 121.953V142.911C526.4 143.9 525.512 144.652 524.537 144.489L516.8 143.2L507.2 145.839L498.812 143.742C498.1 143.564 497.6 142.924 497.6 142.19V119.699Z" stroke="#F6B823" stroke-width="2" stroke-linecap="round" stroke-linejoin="round"/>
<path d="M507.2 145.839V120.239M516.8 143.2V117.6" stroke="#F6B823" stroke-width="2" stroke-linecap="round" stroke-linejoin="round"/>
<path d="M593.6 124C593.6 123.117 594.316 122.4 595.2 122.4H616C616.884 122.4 617.6 123.117 617.6 124V144.8C617.6 145.684 616.884 146.4 616 146.4H595.2C594.316 146.4 593.6 145.684 593.6 144.8V124Z" stroke="#F6B823" stroke-width="2" stroke-linecap="round" stroke-linejoin="round"/>
<path d="M596.8 117.6H620.8C621.684 117.6 622.4 118.316 622.4 119.2V143.2" stroke="#F6B823" stroke-width="2" stroke-linecap="round" stroke-linejoin="round"/>
<path d="M611.2 136.8V129.151C611.2 128.142 610.276 127.384 609.286 127.582L604.486 128.542C603.738 128.692 603.2 129.349 603.2 130.111V140" stroke="#F6B823" stroke-width="2" stroke-linecap="round" stroke-linejoin="round"/>
<path d="M603.2 140C603.2 140.884 602.484 141.6 601.6 141.6C600.716 141.6 600 140.884 600 140C600 139.117 600.716 138.4 601.6 138.4C602.484 138.4 603.2 139.117 603.2 140Z" stroke="#F6B823" stroke-width="2" stroke-linecap="round" stroke-linejoin="round"/>
<path d="M611.2 136.8C611.2 137.684 610.484 138.4 609.6 138.4C608.716 138.4 608 137.684 608 136.8C608 135.917 608.716 135.2 609.6 135.2C610.484 135.2 611.2 135.917 611.2 136.8Z" stroke="#F6B823" stroke-width="2" stroke-linecap="round" stroke-linejoin="round"/>
<path d="M689.6 128.8V135.2C689.6 136.083 690.316 136.8 691.2 136.8H694.4L704 143.2V120.8L694.4 127.2H691.2C690.316 127.2 689.6 127.916 689.6 128.8Z" stroke="#F6B823" stroke-width="2" stroke-linecap="round" stroke-linejoin="round"/>
<path d="M693.733 127.2V136.8" stroke="#F6B823" stroke-width="2" stroke-linecap="round" stroke-linejoin="round"/>
<path d="M714.15 122.4C719.738 127.955 719.738 137.273 714.15 142.828" stroke="#F6B823" stroke-width="2" stroke-linecap="round" stroke-linejoin="round"/>
<path d="M709.662 126.964C712.739 130.047 712.736 135.192 709.656 138.271" stroke="#F6B823" stroke-width="2" stroke-linecap="round" stroke-linejoin="round"/>
<path d="M798.72 124.107C799.36 123.253 800.64 123.253 801.28 124.107L809.6 135.2H790.4L798.72 124.107Z" stroke="#F6B823" stroke-width="2" stroke-linecap="round" stroke-linejoin="round"/>
<path d="M800 122.4V117.6" stroke="#F6B823" stroke-width="2" stroke-linecap="round" stroke-linejoin="round"/>
<path d="M800 146.4V143.2" stroke="#F6B823" stroke-width="2" stroke-linecap="round" stroke-linejoin="round"/>
<path d="M793.6 141.6L792 143.2" stroke="#F6B823" stroke-width="2" stroke-linecap="round" stroke-linejoin="round"/>
<path d="M808 143.2L806.4 141.6" stroke="#F6B823" stroke-width="2" stroke-linecap="round" stroke-linejoin="round"/>
<path d="M801.6 136.8C801.6 137.684 800.884 138.4 800 138.4C799.116 138.4 798.4 137.684 798.4 136.8C798.4 135.917 799.116 135.2 800 135.2C800.884 135.2 801.6 135.917 801.6 136.8Z" stroke="#F6B823" stroke-width="2" stroke-linecap="round" stroke-linejoin="round"/>
<path d="M889.6 144.8C889.6 145.684 890.316 146.4 891.2 146.4H900.8C901.684 146.4 902.4 145.684 902.4 144.8V138.4C902.4 134.865 899.535 132 896 132C892.465 132 889.6 134.865 889.6 138.4V144.8Z" stroke="#F6B823" stroke-width="2" stroke-linecap="round" stroke-linejoin="round"/>
<path d="M889.6 119.2C889.6 118.316 890.316 117.6 891.2 117.6H900.8C901.684 117.6 902.4 118.316 902.4 119.2V125.6C902.4 129.134 899.535 132 896 132C892.465 132 889.6 129.134 889.6 125.6V119.2Z" stroke="#F6B823" stroke-width="2" stroke-linecap="round" stroke-linejoin="round"/>
<path d="M1006.4 120.8H977.6" stroke="#F6B823" stroke-width="2" stroke-linecap="round" stroke-linejoin="round"/>
<path d="M996.8 120.8V119.2C996.8 118.316 996.084 117.6 995.2 117.6H988.8C987.916 117.6 987.2 118.316 987.2 119.2V120.8" stroke="#F6B823" stroke-width="2" stroke-linecap="round" stroke-linejoin="round"/>
<path d="M1001.69 144.9L1003.2 120.8H980.8L982.306 144.9C982.359 145.743 983.058 146.4 983.903 146.4H1000.1C1000.94 146.4 1001.64 145.743 1001.69 144.9Z" stroke="#F6B823" stroke-width="2" stroke-linecap="round" stroke-linejoin="round"/>
<path d="M988.8 125.6V141.6" stroke="#F6B823" stroke-width="2" stroke-linecap="round" stroke-linejoin="round"/>
<path d="M995.2 125.6V141.6" stroke="#F6B823" stroke-width="2" stroke-linecap="round" stroke-linejoin="round"/>
<path d="M1102.4 132L1073.6 146.4L1079.36 132L1073.6 117.6L1102.4 132Z" stroke="#F6B823" stroke-width="2" stroke-linecap="round" stroke-linejoin="round"/>
<path d="M1079.36 132L1088 132" stroke="#F6B823" stroke-width="2" stroke-linecap="round" stroke-linejoin="round"/>
<path fill-rule="evenodd" clip-rule="evenodd" d="M1184 120.854C1185.9 120.854 1187.46 119.434 1187.69 117.6C1189.07 117.953 1190.38 118.5 1191.57 119.211C1190.44 120.669 1190.54 122.778 1191.88 124.118C1193.22 125.458 1195.33 125.561 1196.79 124.425C1197.5 125.623 1198.05 126.929 1198.4 128.313C1196.57 128.54 1195.15 130.104 1195.15 132C1195.15 133.895 1196.57 135.459 1198.4 135.687C1198.05 137.07 1197.5 138.376 1196.79 139.574C1195.33 138.439 1193.22 138.541 1191.88 139.881C1190.54 141.221 1190.44 143.33 1191.57 144.788C1190.38 145.499 1189.07 146.046 1187.69 146.4C1187.46 144.565 1185.9 143.145 1184 143.145C1182.1 143.145 1180.54 144.565 1180.31 146.4C1178.93 146.046 1177.62 145.499 1176.43 144.788C1177.56 143.33 1177.46 141.221 1176.12 139.881C1174.78 138.54 1172.67 138.438 1171.21 139.574C1170.5 138.376 1169.95 137.07 1169.6 135.687C1171.43 135.46 1172.85 133.895 1172.85 132C1172.85 130.104 1171.43 128.54 1169.6 128.313C1169.95 126.929 1170.5 125.623 1171.21 124.425C1172.67 125.561 1174.78 125.459 1176.12 124.119C1177.46 122.778 1177.56 120.669 1176.43 119.211C1177.62 118.5 1178.93 117.953 1180.31 117.6C1180.54 119.434 1182.1 120.854 1184 120.854Z" stroke="#F6B823" stroke-width="2" stroke-linecap="round" stroke-linejoin="round"/>
<path d="M1195.2 132C1195.2 138.185 1190.19 143.2 1184 143.2C1177.81 143.2 1172.8 138.185 1172.8 132C1172.8 125.814 1177.81 120.8 1184 120.8C1190.19 120.8 1195.2 125.814 1195.2 132Z" stroke="#F6B823" stroke-width="2" stroke-linejoin="round"/>
<path d="M1188.8 132C1188.8 134.651 1186.65 136.8 1184 136.8C1181.35 136.8 1179.2 134.651 1179.2 132C1179.2 129.349 1181.35 127.2 1184 127.2C1186.65 127.2 1188.8 129.349 1188.8 132Z" stroke="#F6B823" stroke-width="2" stroke-linejoin="round"/>
<path d="M1280 117.6L1284.3 121.623L1290.18 121.817L1290.38 127.701L1294.4 132L1290.38 136.298L1290.18 142.182L1284.3 142.377L1280 146.4L1275.7 142.377L1269.82 142.182L1269.62 136.298L1265.6 132L1269.62 127.701L1269.82 121.817L1275.7 121.623L1280 117.6Z" stroke="#F6B823" stroke-width="2" stroke-linecap="round" stroke-linejoin="round"/>
<path d="M1284.8 132C1284.8 134.651 1282.65 136.8 1280 136.8C1277.35 136.8 1275.2 134.651 1275.2 132C1275.2 129.349 1277.35 127.2 1280 127.2C1282.65 127.2 1284.8 129.349 1284.8 132Z" stroke="#F6B823" stroke-width="2" stroke-linejoin="round"/>
<path d="M1361.33 120.267C1361.33 119.383 1362.05 118.667 1362.93 118.667H1388.53C1389.42 118.667 1390.13 119.383 1390.13 120.267V143.467C1390.13 144.351 1389.42 145.067 1388.53 145.067H1380.05C1379.38 145.067 1378.78 144.646 1378.55 144.014L1375.73 136.267L1372.92 144.014C1372.69 144.646 1372.09 145.067 1371.41 145.067H1362.93C1362.05 145.067 1361.33 144.351 1361.33 143.467V120.267Z" stroke="#F6B823" stroke-width="2" stroke-linecap="round" stroke-linejoin="round"/>
<path d="M1361.33 125.867H1390.13" stroke="#F6B823" stroke-width="2" stroke-linecap="round" stroke-linejoin="round"/>
<path d="M1466.04 118.779C1466.62 118.162 1467.57 118.098 1468.22 118.632L1475.51 124.59C1475.74 124.781 1475.91 125.036 1476.01 125.323L1479.61 136.151C1480.03 137.412 1480.96 138.442 1482.16 138.997L1484.4 140.026C1485.54 140.548 1486.26 141.684 1486.26 142.934C1486.26 144.793 1485.08 146.483 1483.06 146.483H1473.99C1473.14 146.483 1472.33 146.146 1471.73 145.546L1459.14 132.962C1457.31 131.133 1457.26 128.184 1459.03 126.293L1466.04 118.779Z" stroke="#F6B823" stroke-width="2" stroke-linecap="round" stroke-linejoin="round"/>
<path d="M1477.14 128.771L1469.6 129.6" stroke="#F6B823" stroke-width="2" stroke-linecap="round" stroke-linejoin="round"/>
<path d="M1471.96 135.568L1479.12 134.755" stroke="#F6B823" stroke-width="2" stroke-linecap="round" stroke-linejoin="round"/>
<path d="M92.8 182.534C92.8 189.604 87.0692 195.334 80 195.334C72.9307 195.334 67.2 189.604 67.2 182.534C67.2 175.465 72.9307 169.734 80 169.734C87.0692 169.734 92.8 175.465 92.8 182.534Z" stroke="#F6B823" stroke-width="2" stroke-linecap="round" stroke-linejoin="round"/>
<path d="M80 176.133V182.533H86.4" stroke="#F6B823" stroke-width="2" stroke-linecap="round" stroke-linejoin="round"/>
<path d="M91.2 168.956C92.4141 169.959 93.4915 171.121 94.4 172.411" stroke="#F6B823" stroke-width="2" stroke-linecap="round" stroke-linejoin="round"/>
<path d="M83.2 164.933H76.8" stroke="#F6B823" stroke-width="2" stroke-linecap="round" stroke-linejoin="round"/>
<path d="M80 169.733V164.933" stroke="#F6B823" stroke-width="2" stroke-linecap="round" stroke-linejoin="round"/>
<path d="M182.4 180C182.4 183.534 179.535 186.4 176 186.4C172.465 186.4 169.6 183.534 169.6 180C169.6 176.465 172.465 173.6 176 173.6C179.535 173.6 182.4 176.465 182.4 180Z" stroke="#F6B823" stroke-width="2" stroke-linecap="round" stroke-linejoin="round"/>
<path d="M176 168.8V165.6M176 194.4V191.2M187.2 180H190.4M161.6 180H164.8M183.92 172.08L186.182 169.817M165.818 190.182L168.081 187.919M183.92 187.919L186.182 190.182M165.818 169.817L168.081 172.08" stroke="#F6B823" stroke-width="2" stroke-linecap="round" stroke-linejoin="round"/>
<path d="M283.045 188H260.955C259.814 181.342 265.279 175.2 272 175.2C278.721 175.2 284.185 181.342 283.045 188Z" stroke="#F6B823" stroke-width="2" stroke-linecap="round" stroke-linejoin="round"/>
<path d="M286.4 188H257.6" stroke="#F6B823" stroke-width="2" stroke-linecap="round" stroke-linejoin="round"/>
<path d="M259.2 194.4H284.8" stroke="#F6B823" stroke-width="2" stroke-linecap="round" stroke-linejoin="round"/>
<path d="M272 165.6V168.8" stroke="#F6B823" stroke-width="2" stroke-linecap="round" stroke-linejoin="round"/>
<path d="M261.6 168.388L263.2 171.159" stroke="#F6B823" stroke-width="2" stroke-linecap="round" stroke-linejoin="round"/>
<path d="M282.4 168.388L280.8 171.159" stroke="#F6B823" stroke-width="2" stroke-linecap="round" stroke-linejoin="round"/>
<path d="M376.667 180.333C376.114 180.333 375.667 180.781 375.667 181.333C375.667 181.885 376.114 182.333 376.667 182.333V180.333ZM376.667 182.333H382.333V180.333H376.667V182.333Z" fill="#F6B823"/>
<path d="M376.667 187C376.114 187 375.667 187.448 375.667 188C375.667 188.552 376.114 189 376.667 189L376.667 187ZM376.667 189L382.667 189L382.667 187L376.667 187L376.667 189Z" fill="#F6B823"/>
<path d="M360 176L360 190.667" stroke="#F6B823" stroke-width="2" stroke-linejoin="round"/>
<path d="M353.6 177.697V188.94C353.6 189.819 354.31 190.534 355.19 190.54L359.581 190.568C359.856 190.57 360.126 190.643 360.364 190.779L365.231 193.56C365.473 193.698 365.746 193.771 366.024 193.771H366.025L380.805 193.741C381.688 193.739 382.4 193.023 382.4 192.141V176.143C382.4 175.257 381.681 174.54 380.795 174.543L373.934 174.565C372.931 174.568 372.172 173.657 372.357 172.67L372.733 170.662C372.988 168.913 373.6 166.529 371.2 165.729C368 164.93 366.656 167.989 366.4 169.737C366.169 170.668 366.088 171.856 365.613 172.7C363.541 176.387 359.044 176.177 355.168 176.129C354.297 176.119 353.6 176.826 353.6 177.697Z" stroke="#F6B823" stroke-width="2" stroke-linecap="round" stroke-linejoin="round"/>
<path d="M464 173.6C459.582 173.6 456 177.181 456 181.6C456 184.88 457.975 187.699 460.8 188.934V192.8C460.8 193.683 461.516 194.4 462.4 194.4H465.6C466.484 194.4 467.2 193.683 467.2 192.8V188.934C470.025 187.699 472 184.88 472 181.6C472 177.181 468.418 173.6 464 173.6Z" stroke="#F6B823" stroke-width="2" stroke-linecap="round" stroke-linejoin="round"/>
<path d="M460.8 188.935H467.2" stroke="#F6B823" stroke-width="2" stroke-linecap="round" stroke-linejoin="round"/>
<path d="M449.6 180H452.8" stroke="#F6B823" stroke-width="2" stroke-linecap="round" stroke-linejoin="round"/>
<path d="M452.7 168.699L456.082 172.081" stroke="#F6B823" stroke-width="2" stroke-linecap="round" stroke-linejoin="round"/>
<path d="M464 165.6V168.8" stroke="#F6B823" stroke-width="2" stroke-linecap="round" stroke-linejoin="round"/>
<path d="M475.322 168.678L471.931 172.069" stroke="#F6B823" stroke-width="2" stroke-linecap="round" stroke-linejoin="round"/>
<path d="M475.2 180H478.4" stroke="#F6B823" stroke-width="2" stroke-linecap="round" stroke-linejoin="round"/>
<path d="M550.835 165.862C552.509 165.392 554.211 165.551 555.688 166.196C557.584 167.024 559.106 168.655 559.714 170.789C559.747 170.905 559.777 171.022 559.805 171.139C559.923 171.649 559.982 172.161 559.987 172.666L559.987 186.992C559.989 187.631 560.075 188.296 560.259 188.941C560.4 189.437 560.599 189.91 560.845 190.356C561.952 192.36 564.032 193.808 566.29 194.25C567.374 194.462 568.5 194.442 569.578 194.139" stroke="#F6B823" stroke-width="2" stroke-linecap="round" stroke-linejoin="round"/>
<path d="M574.287 186.075L566.29 194.25" stroke="#F6B823" stroke-width="2" stroke-linecap="round" stroke-linejoin="round"/>
<path d="M555.688 166.195L546.212 175.613" stroke="#F6B823" stroke-width="2" stroke-linecap="round" stroke-linejoin="round"/>
<path d="M559.806 171.138L551.396 179.734" stroke="#F6B823" stroke-width="2" stroke-linecap="round" stroke-linejoin="round"/>
<path d="M570.625 180.74L560.845 190.355" stroke="#F6B823" stroke-width="2" stroke-linecap="round" stroke-linejoin="round"/>
<path d="M545.63 172.081C545.552 172.929 545.626 173.806 545.874 174.675C545.966 174.999 546.08 175.311 546.212 175.611C547.173 177.78 549.142 179.286 551.395 179.733C551.852 179.823 552.32 179.87 552.794 179.87L567.179 179.87C568.4 179.87 569.583 180.178 570.626 180.739C572.263 181.621 573.553 183.129 574.101 185.051C574.178 185.32 574.24 185.679 574.288 186.073C574.395 186.952 574.429 188 574.375 188.586" stroke="#F6B823" stroke-width="2" stroke-linecap="round" stroke-linejoin="round"/>
<path d="M643.2 167.2C643.2 166.316 643.916 165.6 644.8 165.6H667.2C668.084 165.6 668.8 166.316 668.8 167.2V189.6C668.8 190.483 668.084 191.2 667.2 191.2H644.8C643.916 191.2 643.2 190.483 643.2 189.6V167.2Z" stroke="#F6B823" stroke-width="2" stroke-linecap="round" stroke-linejoin="round"/>
<path d="M664 191.2V196M648 191.2V196" stroke="#F6B823" stroke-width="2" stroke-linecap="round" stroke-linejoin="round"/>
<path d="M649.6 183.2V186.4M662.4 183.2V186.4" stroke="#F6B823" stroke-width="2" stroke-linecap="round" stroke-linejoin="round"/>
<path d="M643.2 175.2H668.8" stroke="#F6B823" stroke-width="2" stroke-linecap="round" stroke-linejoin="round"/>
<path d="M745.6 165.938H742.4C741.516 165.938 740.8 166.654 740.8 167.538V193.138C740.8 194.021 741.516 194.738 742.4 194.738H745.6C746.484 194.738 747.2 194.021 747.2 193.138V167.538C747.2 166.654 746.484 165.938 745.6 165.938Z" stroke="#F6B823" stroke-width="2" stroke-linecap="round" stroke-linejoin="round"/>
<path d="M740.8 189.938H747.2" stroke="#F6B823" stroke-width="2" stroke-linecap="round" stroke-linejoin="round"/>
<path d="M753.018 166.014L749.927 166.842C749.073 167.071 748.567 167.948 748.796 168.802L755.421 193.529C755.65 194.383 756.527 194.889 757.381 194.661L760.472 193.833C761.326 193.604 761.832 192.727 761.603 191.873L754.978 167.145C754.749 166.292 753.872 165.785 753.018 166.014Z" stroke="#F6B823" stroke-width="2" stroke-linecap="round" stroke-linejoin="round"/>
<path d="M754.594 190.438L760.776 188.781" stroke="#F6B823" stroke-width="2" stroke-linecap="round" stroke-linejoin="round"/>
<path d="M835.2 188.534C835.2 176.751 844.751 167.2 856.533 167.2H859.2C860.084 167.2 860.8 167.917 860.8 168.8V171.467C860.8 183.249 851.249 192.8 839.467 192.8H836.8C835.916 192.8 835.2 192.084 835.2 191.2V188.534Z" stroke="#F6B823" stroke-width="2" stroke-linecap="round" stroke-linejoin="round"/>
<path d="M859.586 178.577L849.294 168.459" stroke="#F6B823" stroke-width="2" stroke-linecap="round" stroke-linejoin="round"/>
<path d="M836.131 182.284L845.637 191.895" stroke="#F6B823" stroke-width="2" stroke-linecap="round" stroke-linejoin="round"/>
<path d="M844.444 183.556L850.844 177.156" stroke="#F6B823" stroke-width="2" stroke-linecap="round" stroke-linejoin="round"/>
<path d="M953.6 178.4H934.4C933.516 178.4 932.788 179.121 932.912 179.996C933.687 185.426 938.356 189.6 944 189.6C949.644 189.6 954.313 185.426 955.087 179.996C955.212 179.121 954.483 178.4 953.6 178.4Z" stroke="#F6B823" stroke-width="2" stroke-linecap="round" stroke-linejoin="round"/>
<path d="M938.624 188.229L935.2 194.401" stroke="#F6B823" stroke-width="2" stroke-linecap="round" stroke-linejoin="round"/>
<path d="M949.387 188.222L952.799 194.401" stroke="#F6B823" stroke-width="2" stroke-linecap="round" stroke-linejoin="round"/>
<path d="M937.6 168.8V172" stroke="#F6B823" stroke-width="2" stroke-linecap="round" stroke-linejoin="round"/>
<path d="M944 165.6L944 172" stroke="#F6B823" stroke-width="2" stroke-linecap="round" stroke-linejoin="round"/>
<path d="M950.4 168.8V172" stroke="#F6B823" stroke-width="2" stroke-linecap="round" stroke-linejoin="round"/>
<path d="M1044.8 175.199L1041.6 165.6H1038.4L1035.2 175.199" stroke="#F6B823" stroke-width="2" stroke-linecap="round" stroke-linejoin="round"/>
<path d="M1026.1 177.188C1025.84 176.178 1026.61 175.2 1027.65 175.2H1052.35C1053.39 175.2 1054.16 176.178 1053.9 177.188L1049.9 193.188C1049.72 193.901 1049.08 194.4 1048.35 194.4H1031.65C1030.91 194.4 1030.27 193.901 1030.1 193.188L1026.1 177.188Z" stroke="#F6B823" stroke-width="2" stroke-linecap="round" stroke-linejoin="round"/>
<path d="M1043.2 181.6V188" stroke="#F6B823" stroke-width="2" stroke-linecap="round" stroke-linejoin="round"/>
<path d="M1036.8 181.6V188" stroke="#F6B823" stroke-width="2" stroke-linecap="round" stroke-linejoin="round"/>
<path d="M1123.2 192.8H1148.8C1149.68 192.8 1150.4 192.084 1150.4 191.2V173.6C1150.4 172.716 1149.68 172 1148.8 172H1123.2C1122.32 172 1121.6 172.716 1121.6 173.6V191.2C1121.6 192.084 1122.32 192.8 1123.2 192.8Z" stroke="#F6B823" stroke-width="2" stroke-linecap="round" stroke-linejoin="round"/>
<path d="M1121.6 178.4H1150.4" stroke="#F6B823" stroke-width="2" stroke-linecap="round" stroke-linejoin="round"/>
<path d="M1144 178.4V183.2" stroke="#F6B823" stroke-width="2" stroke-linecap="round" stroke-linejoin="round"/>
<path d="M1131.2 172V168.8C1131.2 167.917 1131.92 167.2 1132.8 167.2H1139.2C1140.08 167.2 1140.8 167.917 1140.8 168.8V172" stroke="#F6B823" stroke-width="2" stroke-linecap="round" stroke-linejoin="round"/>
<path d="M1128 178.4V183.2" stroke="#F6B823" stroke-width="2" stroke-linecap="round" stroke-linejoin="round"/>
<path d="M1243.2 176.8C1243.2 174.149 1241.05 172 1238.4 172H1225.6C1222.95 172 1220.8 174.149 1220.8 176.8V192.8C1220.8 193.684 1221.52 194.4 1222.4 194.4H1241.6C1242.48 194.4 1243.2 193.684 1243.2 192.8V176.8Z" stroke="#F6B823" stroke-width="2" stroke-linecap="round" stroke-linejoin="round"/>
<path d="M1227.2 181.6V184.8" stroke="#F6B823" stroke-width="2" stroke-linecap="round" stroke-linejoin="round"/>
<path d="M1236.8 181.6V184.8" stroke="#F6B823" stroke-width="2" stroke-linecap="round" stroke-linejoin="round"/>
<path d="M1228.8 172V168.8C1228.8 167.032 1230.23 165.6 1232 165.6C1233.77 165.6 1235.2 167.032 1235.2 168.8V172" stroke="#F6B823" stroke-width="2" stroke-linecap="round" stroke-linejoin="round"/>
<path d="M1243.2 176.8C1243.2 179.451 1241.05 181.6 1238.4 181.6M1243.2 176.8C1243.2 174.149 1241.05 172 1238.4 172H1225.6C1222.95 172 1220.8 174.149 1220.8 176.8M1243.2 176.8C1243.2 179.451 1241.06 181.6 1238.4 181.6M1238.4 181.6H1225.61M1225.61 181.6C1222.96 181.6 1220.8 179.451 1220.8 176.8M1225.61 181.6C1223 181.6 1220.8 179.451 1220.8 176.8" stroke="#F6B823" stroke-width="2" stroke-linecap="round" stroke-linejoin="round"/>
<path d="M1328.33 168.686C1331.14 165.874 1335.7 165.874 1338.51 168.686C1341.32 171.498 1341.32 176.057 1338.51 178.868L1326.07 191.313C1323.26 194.125 1318.7 194.125 1315.89 191.313C1313.07 188.502 1313.07 183.943 1315.89 181.131L1328.33 168.686Z" stroke="#F6B823" stroke-width="2" stroke-linecap="round" stroke-linejoin="round"/>
<path d="M1327.77 169.252L1337.95 179.434" stroke="#F6B823" stroke-width="2" stroke-linecap="round" stroke-linejoin="round"/>
<path d="M1316.45 180.565L1326.63 190.748" stroke="#F6B823" stroke-width="2" stroke-linecap="round" stroke-linejoin="round"/>
<path d="M1329.58 178.986C1329.27 179.298 1328.77 179.298 1328.45 178.986C1328.14 178.673 1328.14 178.167 1328.45 177.854C1328.77 177.542 1329.27 177.542 1329.58 177.854C1329.9 178.167 1329.9 178.673 1329.58 178.986Z" stroke="#F6B823" stroke-width="2" stroke-linecap="round" stroke-linejoin="round"/>
<path d="M1326.19 182.383C1325.88 182.696 1325.37 182.696 1325.06 182.383C1324.74 182.071 1324.74 181.564 1325.06 181.252C1325.37 180.939 1325.88 180.939 1326.19 181.252C1326.5 181.564 1326.5 182.071 1326.19 182.383Z" stroke="#F6B823" stroke-width="2" stroke-linecap="round" stroke-linejoin="round"/>
<path d="M1438.4 180C1438.4 172.047 1431.95 165.6 1424 165.6C1416.05 165.6 1409.6 172.047 1409.6 180C1409.6 187.953 1416.05 194.4 1424 194.4C1431.95 194.4 1438.4 187.953 1438.4 180Z" stroke="#F6B823" stroke-width="2" stroke-linecap="round" stroke-linejoin="round"/>
<path d="M1414.4 190.733C1419.42 185.041 1428.58 185.041 1433.6 190.733" stroke="#F6B823" stroke-width="2" stroke-linecap="round" stroke-linejoin="round"/>
<path d="M1433.6 169.268C1428.58 174.96 1419.42 174.96 1414.4 169.268" stroke="#F6B823" stroke-width="2" stroke-linecap="round" stroke-linejoin="round"/>
<path d="M1438.4 180H1409.6" stroke="#F6B823" stroke-width="2" stroke-linecap="round" stroke-linejoin="round"/>
<path d="M1424 194.4V165.6" stroke="#F6B823" stroke-width="2" stroke-linecap="round" stroke-linejoin="round"/>
<path d="M46.4001 228C46.4001 235.953 39.953 242.4 32.0001 242.4C24.0472 242.4 17.6001 235.953 17.6001 228C17.6001 220.047 24.0472 213.6 32.0001 213.6C39.953 213.6 46.4001 220.047 46.4001 228Z" stroke="#F6B823" stroke-width="2" stroke-linecap="round" stroke-linejoin="round"/>
<path d="M46.4 242.4H32" stroke="#F6B823" stroke-width="2" stroke-linecap="round" stroke-linejoin="round"/>
<path d="M33.5999 221.6C33.5999 222.484 32.8836 223.2 31.9999 223.2C31.1162 223.2 30.3999 222.484 30.3999 221.6C30.3999 220.716 31.1162 220 31.9999 220C32.8836 220 33.5999 220.716 33.5999 221.6Z" stroke="#F6B823" stroke-width="2" stroke-linecap="round" stroke-linejoin="round"/>
<path d="M27.2 228C27.2 228.884 26.4837 229.6 25.6 229.6C24.7163 229.6 24 228.884 24 228C24 227.117 24.7163 226.4 25.6 226.4C26.4837 226.4 27.2 227.117 27.2 228Z" stroke="#F6B823" stroke-width="2" stroke-linecap="round" stroke-linejoin="round"/>
<path d="M40 228C40 228.884 39.2837 229.6 38.4 229.6C37.5164 229.6 36.8 228.884 36.8 228C36.8 227.117 37.5164 226.4 38.4 226.4C39.2837 226.4 40 227.117 40 228Z" stroke="#F6B823" stroke-width="2" stroke-linecap="round" stroke-linejoin="round"/>
<path d="M33.5999 234.4C33.5999 235.283 32.8836 236 31.9999 236C31.1162 236 30.3999 235.283 30.3999 234.4C30.3999 233.516 31.1162 232.8 31.9999 232.8C32.8836 232.8 33.5999 233.516 33.5999 234.4Z" stroke="#F6B823" stroke-width="2" stroke-linecap="round" stroke-linejoin="round"/>
<path d="M117.896 242.4H138.105C139.319 242.4 140.091 241.1 139.509 240.034L131.2 224.8V213.6H124.8L124.8 224.811L116.492 240.033C115.91 241.1 116.681 242.4 117.896 242.4Z" stroke="#F6B823" stroke-width="2" stroke-linecap="round" stroke-linejoin="round"/>
<path d="M121.6 213.6H134.4" stroke="#F6B823" stroke-width="2" stroke-linecap="round" stroke-linejoin="round"/>
<path d="M124.8 224.811L131.2 224.8" stroke="#F6B823" stroke-width="2" stroke-linecap="round" stroke-linejoin="round"/>
<path d="M129.6 236C129.6 236.884 128.884 237.6 128 237.6C127.116 237.6 126.4 236.884 126.4 236C126.4 235.117 127.116 234.4 128 234.4C128.884 234.4 129.6 235.117 129.6 236Z" stroke="#F6B823" stroke-width="2" stroke-linecap="round" stroke-linejoin="round"/>
<path d="M220.316 229.6H227.692C228.475 229.6 229.143 229.034 229.271 228.261L230.371 221.603C230.479 221.131 230.536 220.64 230.536 220.136C230.536 216.576 227.561 213.599 224 213.599C220.439 213.598 217.464 216.576 217.464 220.136C217.464 220.64 217.521 221.131 217.629 221.603L218.738 228.263C218.866 229.035 219.534 229.6 220.316 229.6Z" stroke="#F6B823" stroke-width="2" stroke-linecap="round" stroke-linejoin="round"/>
<path d="M224 213.6V236" stroke="#F6B823" stroke-width="2" stroke-linecap="round" stroke-linejoin="round"/>
<path d="M224 242.4C224.884 242.4 225.6 241.684 225.6 240.8V237.6C225.6 236.716 224.884 236 224 236C223.116 236 222.4 236.716 222.4 237.6V240.8C222.4 241.684 223.116 242.4 224 242.4Z" stroke="#F6B823" stroke-width="2" stroke-linecap="round" stroke-linejoin="round"/>
<path d="M336 242.4H304" stroke="#F6B823" stroke-width="2" stroke-linecap="round" stroke-linejoin="round"/>
<path d="M305.6 215.2C305.6 214.316 306.316 213.6 307.2 213.6H315.673C316.349 213.6 316.952 214.025 317.179 214.661L319.662 221.614C320.345 223.524 322.154 224.8 324.183 224.8H328C331.535 224.8 334.4 227.665 334.4 231.2C334.4 233.38 334.04 236 331.2 236H310.4C307.749 236 305.6 233.851 305.6 231.2V215.2Z" stroke="#F6B823" stroke-width="2" stroke-linecap="round" stroke-linejoin="round"/>
<path d="M311.988 242.39V236.031" stroke="#F6B823" stroke-width="2" stroke-linecap="round" stroke-linejoin="round"/>
<path d="M328.006 236.029V242.4" stroke="#F6B823" stroke-width="2" stroke-linecap="round" stroke-linejoin="round"/>
<path d="M405.167 223.282C405.046 222.678 405.283 222.058 405.775 221.688L415.045 214.728C415.614 214.301 416.397 214.3 416.966 214.727L426.224 221.671C426.717 222.04 426.954 222.66 426.833 223.264L424.549 234.714C424.4 235.463 423.743 236.001 422.98 236.001H409.025C408.262 236.001 407.606 235.463 407.456 234.715L405.167 223.282Z" stroke="#F6B823" stroke-width="2" stroke-linejoin="round"/>
<path d="M416 236L416 242.4" stroke="#F6B823" stroke-width="2" stroke-linecap="round" stroke-linejoin="round"/>
<path d="M419.2 226.4C419.2 228.168 417.767 229.6 416 229.6C414.233 229.6 412.8 228.168 412.8 226.4C412.8 224.633 414.233 223.2 416 223.2C417.767 223.2 419.2 224.633 419.2 226.4Z" stroke="#F6B823" stroke-width="2" stroke-linejoin="round"/>
<path d="M497.556 218.407C497.556 217.523 498.272 216.807 499.156 216.807H524.756C525.64 216.807 526.356 217.523 526.356 218.407V234.407C526.356 235.29 525.64 236.007 524.756 236.007H499.156C498.272 236.007 497.556 235.29 497.556 234.407V218.407Z" stroke="#F6B823" stroke-width="2" stroke-linecap="round" stroke-linejoin="round"/>
<path d="M515.2 216.8L513.6 213.6H508.8L507.2 216.8" stroke="#F6B823" stroke-width="2" stroke-linecap="round" stroke-linejoin="round"/>
<path d="M500.756 244.006L503.286 236.006" stroke="#F6B823" stroke-width="2" stroke-linecap="round" stroke-linejoin="round"/>
<path d="M520.625 236.006L523.156 244.006" stroke="#F6B823" stroke-width="2" stroke-linecap="round" stroke-linejoin="round"/>
<path d="M617.6 213.6H598.4C597.516 213.6 596.8 214.316 596.8 215.2V240.8C596.8 241.683 597.516 242.4 598.4 242.4H617.6C618.484 242.4 619.2 241.683 619.2 240.8V215.2C619.2 214.316 618.484 213.6 617.6 213.6Z" stroke="#F6B823" stroke-width="2" stroke-linecap="round" stroke-linejoin="round"/>
<path d="M596.8 218.4H619.2" stroke="#F6B823" stroke-width="2" stroke-linecap="round" stroke-linejoin="round"/>
<path d="M608 228C608.442 228 608.8 227.642 608.8 227.2C608.8 226.759 608.442 226.4 608 226.4C607.558 226.4 607.2 226.759 607.2 227.2C607.2 227.642 607.558 228 608 228Z" stroke="#F6B823" stroke-width="2" stroke-linecap="round" stroke-linejoin="round"/>
<path d="M604.8 234.4C605.242 234.4 605.6 234.042 605.6 233.6C605.6 233.158 605.242 232.8 604.8 232.8C604.358 232.8 604 233.158 604 233.6C604 234.042 604.358 234.4 604.8 234.4Z" stroke="#F6B823" stroke-width="2" stroke-linecap="round" stroke-linejoin="round"/>
<path d="M611.2 234.4C611.642 234.4 612 234.042 612 233.6C612 233.158 611.642 232.8 611.2 232.8C610.758 232.8 610.4 233.158 610.4 233.6C610.4 234.042 610.758 234.4 611.2 234.4Z" stroke="#F6B823" stroke-width="2" stroke-linecap="round" stroke-linejoin="round"/>
<path d="M704 236V242.4" stroke="#F6B823" stroke-width="2" stroke-linecap="round" stroke-linejoin="round"/>
<path d="M693.103 219.516L697.277 234.82C697.467 235.517 698.099 235.999 698.821 235.999H709.177C709.898 235.999 710.53 235.517 710.72 234.82L714.894 219.516C711.898 224.907 696.099 224.907 693.103 219.516Z" stroke="#F6B823" stroke-width="2" stroke-linecap="round" stroke-linejoin="round"/>
<path d="M715.2 218.4C715.2 221.051 710.186 223.2 704 223.2C697.814 223.2 692.8 221.051 692.8 218.4C692.8 215.749 697.814 213.6 704 213.6C710.186 213.6 715.2 215.749 715.2 218.4Z" stroke="#F6B823" stroke-width="2" stroke-linecap="round" stroke-linejoin="round"/>
<path d="M794.4 222.4H786.4C785.516 222.4 784.8 223.117 784.8 224V241.6C784.8 242.484 785.516 243.2 786.4 243.2H804C804.884 243.2 805.6 242.484 805.6 241.6V233.6" stroke="#F6B823" stroke-width="2" stroke-linecap="round" stroke-linejoin="round"/>
<path d="M810.4 222.4C810.4 225.051 808.251 227.2 805.6 227.2C802.949 227.2 800.8 225.051 800.8 222.4C800.8 219.749 802.949 217.6 805.6 217.6C808.251 217.6 810.4 219.749 810.4 222.4Z" stroke="#F6B823" stroke-width="2" stroke-linecap="round" stroke-linejoin="round"/>
<path d="M808.994 225.794L815.2 232" stroke="#F6B823" stroke-width="2" stroke-linecap="round" stroke-linejoin="round"/>
<path d="M796 212.8L802.206 219.006" stroke="#F6B823" stroke-width="2" stroke-linecap="round" stroke-linejoin="round"/>
<path d="M896 242.4C902.186 242.4 907.2 237.385 907.2 231.2V215.2C907.2 214.316 906.484 213.6 905.6 213.6H902.4C901.516 213.6 900.8 214.316 900.8 215.2V231.2C900.8 233.851 898.651 236 896 236C893.349 236 891.2 233.851 891.2 231.2V215.2C891.2 214.316 890.484 213.6 889.6 213.6H886.4C885.516 213.6 884.8 214.316 884.8 215.2V231.2C884.8 237.385 889.814 242.4 896 242.4Z" stroke="#F6B823" stroke-width="2" stroke-linecap="round" stroke-linejoin="round"/>
<path d="M884.8 220H891.2" stroke="#F6B823" stroke-width="2" stroke-linecap="round" stroke-linejoin="round"/>
<path d="M900.8 220H907.2" stroke="#F6B823" stroke-width="2" stroke-linecap="round" stroke-linejoin="round"/>
<path d="M982.4 223.2V232.8C982.4 233.684 983.116 234.4 984 234.4H987.2L1000 240.8V215.2L987.2 221.6H984C983.116 221.6 982.4 222.317 982.4 223.2Z" stroke="#F6B823" stroke-width="2" stroke-linecap="round" stroke-linejoin="round"/>
<path d="M987.2 221.6V234.4" stroke="#F6B823" stroke-width="2" stroke-linecap="round" stroke-linejoin="round"/>
<path d="M1073.6 239.2H1102.4" stroke="#F6B823" stroke-width="2" stroke-linecap="round" stroke-linejoin="round"/>
<path d="M1102.4 229.6H1073.6" stroke="#F6B823" stroke-width="2" stroke-linecap="round" stroke-linejoin="round"/>
<path d="M1073.6 220H1102.4" stroke="#F6B823" stroke-width="2" stroke-linecap="round" stroke-linejoin="round"/>
<path d="M1102.4 213.6V242.4" stroke="#F6B823" stroke-width="2" stroke-linecap="round" stroke-linejoin="round"/>
<path d="M1073.6 242.4V213.6" stroke="#F6B823" stroke-width="2" stroke-linecap="round" stroke-linejoin="round"/>
<path d="M1176 242.4H1171.2C1170.32 242.4 1169.6 241.684 1169.6 240.8V236" stroke="#F6B823" stroke-width="2" stroke-linecap="round" stroke-linejoin="round"/>
<path d="M1169.6 220V215.2C1169.6 214.316 1170.32 213.6 1171.2 213.6H1176" stroke="#F6B823" stroke-width="2" stroke-linecap="round" stroke-linejoin="round"/>
<path d="M1198.4 220V215.2C1198.4 214.316 1197.68 213.6 1196.8 213.6H1192" stroke="#F6B823" stroke-width="2" stroke-linecap="round" stroke-linejoin="round"/>
<path d="M1176 221.6C1176 220.716 1176.72 220 1177.6 220H1190.4C1191.28 220 1192 220.716 1192 221.6V234.4C1192 235.284 1191.28 236 1190.4 236H1177.6C1176.72 236 1176 235.284 1176 234.4V221.6Z" stroke="#F6B823" stroke-width="2" stroke-linecap="round" stroke-linejoin="round"/>
<path d="M1198.4 236V240.8C1198.4 241.684 1197.68 242.4 1196.8 242.4H1192" stroke="#F6B823" stroke-width="2" stroke-linecap="round" stroke-linejoin="round"/>
<path d="M1270.4 224.8C1267.75 224.8 1265.6 226.949 1265.6 229.6V234.4C1265.6 235.283 1266.32 236 1267.2 236H1273.6C1274.48 236 1275.2 235.283 1275.2 234.4V229.6C1275.2 226.949 1273.05 224.8 1270.4 224.8Z" stroke="#F6B823" stroke-width="2" stroke-linecap="round" stroke-linejoin="round"/>
<path d="M1270.4 236V242.4" stroke="#F6B823" stroke-width="2" stroke-linecap="round" stroke-linejoin="round"/>
<path d="M1288 224.8C1286.23 224.8 1284.8 226.232 1284.8 228L1284.8 230.94C1284.8 231.112 1284.77 231.283 1284.72 231.446L1283.9 233.894C1283.56 234.93 1284.33 236 1285.42 236H1290.58C1291.67 236 1292.44 234.93 1292.1 233.894L1291.28 231.446C1291.23 231.283 1291.2 231.112 1291.2 230.94L1291.2 228C1291.2 226.232 1289.77 224.8 1288 224.8Z" stroke="#F6B823" stroke-width="2" stroke-linecap="round" stroke-linejoin="round"/>
<path d="M1288 220C1289.77 220 1291.2 218.567 1291.2 216.8C1291.2 215.032 1289.77 213.6 1288 213.6C1286.23 213.6 1284.8 215.032 1284.8 216.8C1284.8 218.567 1286.23 220 1288 220Z" stroke="#F6B823" stroke-width="2" stroke-linecap="round" stroke-linejoin="round"/>
<path d="M1270.4 220C1272.17 220 1273.6 218.567 1273.6 216.8C1273.6 215.032 1272.17 213.6 1270.4 213.6C1268.63 213.6 1267.2 215.032 1267.2 216.8C1267.2 218.567 1268.63 220 1270.4 220Z" stroke="#F6B823" stroke-width="2" stroke-linecap="round" stroke-linejoin="round"/>
<path d="M1288 236V242.4" stroke="#F6B823" stroke-width="2" stroke-linecap="round" stroke-linejoin="round"/>
<path d="M1390.54 242.4C1390.54 240.633 1389.11 239.2 1387.34 239.2C1384.76 239.2 1384.39 242.4 1381.8 242.4C1379.21 242.4 1378.85 239.2 1376.26 239.2C1373.63 239.2 1373.09 242.4 1370.4 242.4C1367.8 242.4 1367.47 239.2 1364.86 239.2C1363.09 239.2 1361.6 240.633 1361.6 242.4" stroke="#F6B823" stroke-width="2" stroke-linecap="round" stroke-linejoin="round"/>
<path d="M1382.4 228C1382.4 231.534 1379.53 234.4 1376 234.4C1372.47 234.4 1369.6 231.534 1369.6 228C1369.6 224.465 1372.47 221.6 1376 221.6C1379.53 221.6 1382.4 224.465 1382.4 228Z" stroke="#F6B823" stroke-width="2" stroke-linejoin="round"/>
<path d="M1387.2 228H1390.4" stroke="#F6B823" stroke-width="2" stroke-linecap="round" stroke-linejoin="round"/>
<path d="M1384 220L1385.6 218.4" stroke="#F6B823" stroke-width="2" stroke-linecap="round" stroke-linejoin="round"/>
<path d="M1376 216.8L1376 213.6" stroke="#F6B823" stroke-width="2" stroke-linecap="round" stroke-linejoin="round"/>
<path d="M1366.4 218.4L1368 220" stroke="#F6B823" stroke-width="2" stroke-linecap="round" stroke-linejoin="round"/>
<path d="M1361.6 228H1364.8" stroke="#F6B823" stroke-width="2" stroke-linecap="round" stroke-linejoin="round"/>
<path d="M1483.2 221.6C1483.2 222.143 1483.16 222.677 1483.09 223.2C1482.31 228.627 1477.64 232.8 1472 232.8C1466.36 232.8 1461.69 228.627 1460.91 223.2C1460.84 222.677 1460.8 222.143 1460.8 221.6C1460.8 218.701 1461.9 216.059 1463.71 214.07C1463.99 213.76 1464.4 213.6 1464.81 213.6H1479.18C1479.6 213.6 1480.01 213.76 1480.29 214.07C1482.1 216.059 1483.2 218.701 1483.2 221.6Z" stroke="#F6B823" stroke-width="2" stroke-linecap="round" stroke-linejoin="round"/>
<path d="M1460.91 223.2H1483.09" stroke="#F6B823" stroke-width="2" stroke-linecap="round" stroke-linejoin="round"/>
<path d="M1472 232.8V242.4" stroke="#F6B823" stroke-width="2" stroke-linecap="round" stroke-linejoin="round"/>
<path d="M1478.4 242.4H1465.6" stroke="#F6B823" stroke-width="2" stroke-linecap="round" stroke-linejoin="round"/>
</svg>
