<svg width="135" height="50" viewBox="0 0 135 50" fill="none" xmlns="http://www.w3.org/2000/svg">
<path d="M23.5751 0.0119038C23.503 0.01948 23.23 0.0384188 22.9759 0.0573594C13.981 0.74301 6.01003 6.33428 2.20655 14.6227C1.05754 17.1266 0.374952 19.7102 0.0639997 22.7823C-0.0232187 23.6081 -0.0194266 26.3621 0.0639997 27.2182C0.325655 29.8547 0.833791 31.9988 1.7401 34.2793C4.41354 41.0146 10.041 46.3672 16.8896 48.6969C18.8387 49.356 20.6893 49.7424 22.9759 49.9545C23.7078 50.0227 26.4836 50.0114 27.2117 49.9394C29.87 49.6704 32.0125 49.159 34.2688 48.265C40.6054 45.7459 45.7323 40.6168 48.2541 34.2793C49.1452 32.0405 49.6723 29.8245 49.9264 27.2561C49.9947 26.5326 50.025 24.2711 49.9757 23.4642C49.7254 19.5548 48.6257 15.8841 46.6917 12.5203L46.3694 11.9559L47.6663 10.6527C49.0353 9.27387 49.0808 9.22083 49.1718 8.82687C49.35 8.06167 48.876 7.26996 48.11 7.06161C48.0303 7.04267 46.9382 6.9366 45.6868 6.83053C44.4316 6.72446 43.3964 6.62597 43.3812 6.61839C43.3698 6.60324 43.275 5.56909 43.1689 4.31522C43.0627 3.05756 42.9603 1.96658 42.9375 1.88703C42.839 1.52716 42.5507 1.14834 42.2436 0.981663C41.925 0.811197 41.5117 0.746801 41.1742 0.83014C40.7799 0.921055 40.7268 0.962725 39.3502 2.33403L38.0457 3.62956L37.4997 3.31515C36.7223 2.87194 36.0776 2.53858 35.3913 2.22417C32.7823 1.04227 30.2188 0.367985 27.2496 0.0687233C26.7453 0.0232658 23.9543 -0.0221894 23.5751 0.0119038ZM25.8731 2.96286C29.3542 3.12196 32.46 3.97807 35.5164 5.61832L35.8653 5.80395L34.9665 6.70931C33.6886 7.98969 33.7379 7.84954 33.8896 9.64132C33.9465 10.308 33.992 10.8649 33.992 10.88C33.992 10.8952 33.9351 10.8725 33.8668 10.8308C31.3944 9.33827 28.9902 8.54655 26.275 8.33442C25.2132 8.25108 23.613 8.3079 22.5095 8.467C19.5365 8.89885 16.6355 10.2057 14.2996 12.1528C10.807 15.0697 8.67208 19.195 8.31563 23.7218C8.27391 24.2748 8.27391 25.7446 8.31563 26.2977C8.6152 30.1161 10.1813 33.6542 12.8017 36.4499C15.4258 39.2531 18.9411 41.0638 22.737 41.5866C24.1477 41.776 26.0627 41.7646 27.4885 41.5487C32.1187 40.8555 36.3052 38.1848 38.9065 34.2641C39.8887 32.7868 40.5827 31.2904 41.0567 29.635C41.5004 28.0895 41.6937 26.6917 41.6937 25.0211C41.6937 24.0816 41.6634 23.5778 41.5572 22.7747C41.269 20.5852 40.4879 18.3351 39.3464 16.4372C39.2099 16.2099 39.0999 16.0167 39.1075 16.0092C39.1151 16.0054 39.6688 16.047 40.3362 16.1039C41.6975 16.2213 41.7696 16.2175 42.1564 16.0357C42.3498 15.9486 42.4863 15.8273 43.2788 15.0318L44.1852 14.1302L44.3672 14.475C44.6288 14.9636 45.1256 15.9902 45.3038 16.4107C46.87 20.1193 47.3933 24.2483 46.8055 28.2599C45.9599 33.999 42.8693 39.1622 38.1747 42.6889C32.7444 46.7687 25.6911 48.087 19.0738 46.2687C14.8039 45.0944 10.9398 42.5904 8.03501 39.1167C3.87128 34.1353 2.13829 27.6122 3.26833 21.1421C4.15189 16.0622 6.86326 11.4066 10.8829 8.0541C14.6105 4.94405 19.1914 3.1712 24.0377 2.96664C24.9326 2.92497 25.0729 2.92498 25.8731 2.96286ZM40.3968 6.84569C40.4499 7.52755 40.5144 8.17152 40.5334 8.28138C40.632 8.81171 40.9998 9.24357 41.5155 9.41403C41.6293 9.45191 42.1185 9.50873 43.0172 9.58449C43.7491 9.64889 44.3596 9.70193 44.3785 9.70951C44.3937 9.71329 43.6201 10.4974 42.6721 11.4483L40.9429 13.1794L39.0506 13.0203C38.0078 12.9332 37.1508 12.8612 37.1508 12.8574C37.147 12.8574 37.075 12.0013 36.9877 10.9558L36.8285 9.06174L38.5577 7.33056C39.5095 6.37975 40.2869 5.60696 40.2945 5.61075C40.2869 5.61454 40.34 6.1714 40.3968 6.84569ZM25.6645 11.2664C28.4783 11.4217 31.0038 12.3385 33.2373 14.0128L33.5976 14.2818L31.5195 16.3577L29.4452 18.4335L29.3239 18.3654C28.1521 17.6532 27.2003 17.3009 25.9565 17.1342C25.5432 17.0774 24.4245 17.0774 24.0225 17.1342C22.2099 17.3805 20.64 18.1494 19.3886 19.4071C17.6252 21.1686 16.7948 23.6422 17.1361 26.0931C17.4319 28.2221 18.5505 30.101 20.2721 31.3776C21.7776 32.4951 23.685 33.0557 25.4977 32.9194C28.1711 32.7148 30.4274 31.3397 31.7925 29.0782C33.3208 26.5439 33.2828 23.2407 31.7015 20.7936L31.5499 20.5625L33.6317 18.4828L35.7136 16.4031L35.9828 16.763C39.4867 21.4413 39.6726 27.7599 36.4493 32.5974C35.9259 33.3815 35.4974 33.9043 34.7921 34.6278C32.733 36.734 30.1392 38.0901 27.2382 38.5788C25.7745 38.8288 24.1439 38.8212 22.6612 38.5637C20.2608 38.147 18.0613 37.128 16.1691 35.5483C15.7292 35.1847 14.929 34.3891 14.5385 33.927C12.6841 31.7488 11.6072 29.2259 11.2962 26.3583C11.228 25.6878 11.228 24.3279 11.2962 23.6574C11.5768 21.0701 12.4907 18.7404 14.0341 16.7024C14.7357 15.7781 15.7595 14.7553 16.6734 14.0583C18.9487 12.3385 21.6335 11.3687 24.47 11.2551C24.9895 11.2323 25.0957 11.2361 25.6645 11.2664ZM25.9262 20.1344C26.313 20.2102 26.7832 20.3655 27.06 20.5095L27.2686 20.6117L25.5356 22.3505C24.5117 23.3808 23.7685 24.1498 23.7192 24.2407C23.4575 24.6991 23.4613 25.3696 23.7343 25.7901C23.8405 25.9568 24.0415 26.1575 24.2008 26.2598C24.652 26.5477 25.3346 26.5439 25.8048 26.2485C25.8807 26.203 26.7225 25.3886 27.6705 24.4453L29.396 22.7255L29.5287 23.0096C29.6804 23.3354 29.8055 23.7332 29.8851 24.1574C29.9648 24.5665 29.9648 25.4454 29.8889 25.8583C29.4908 27.9342 27.9246 29.5025 25.8465 29.9002C25.437 29.976 24.5572 29.976 24.1477 29.9002C22.0696 29.5025 20.5035 27.9342 20.1053 25.8583C20.0257 25.4378 20.0294 24.5665 20.1091 24.1423C20.3707 22.7785 21.1329 21.6232 22.2782 20.8655C22.938 20.4261 23.5902 20.195 24.5458 20.0587C24.762 20.0246 25.619 20.07 25.9262 20.1344Z" fill="black"/>
<path d="M67.8203 34.4871H63.9137L69.8663 17.244H74.5643L80.5085 34.4871H76.6018L72.2827 21.1843H72.1479L67.8203 34.4871ZM67.5762 27.7094H76.8039V30.5552H67.5762V27.7094ZM82.5165 34.4871V21.5548H85.9938V23.8112H86.1285C86.3642 23.0085 86.7599 22.4023 87.3156 21.9926C87.8713 21.5772 88.5112 21.3695 89.2352 21.3695C89.4149 21.3695 89.6085 21.3808 89.8162 21.4032C90.0239 21.4257 90.2063 21.4565 90.3635 21.4958V24.6784C90.1951 24.6279 89.9621 24.583 89.6646 24.5437C89.3672 24.5044 89.0949 24.4847 88.848 24.4847C88.3203 24.4847 87.8488 24.5998 87.4335 24.8299C87.0237 25.0545 86.6982 25.3688 86.4568 25.7729C86.2211 26.1771 86.1032 26.6429 86.1032 27.1705V34.4871H82.5165ZM92.2178 34.4871V21.5548H95.6951V23.8112H95.8298C96.0655 23.0085 96.4613 22.4023 97.0169 21.9926C97.5726 21.5772 98.2125 21.3695 98.9366 21.3695C99.1162 21.3695 99.3098 21.3808 99.5175 21.4032C99.7252 21.4257 99.9076 21.4565 100.065 21.4958V24.6784C99.8964 24.6279 99.6635 24.583 99.366 24.5437C99.0685 24.5044 98.7962 24.4847 98.5493 24.4847C98.0217 24.4847 97.5502 24.5998 97.1348 24.8299C96.7251 25.0545 96.3995 25.3688 96.1582 25.7729C95.9224 26.1771 95.8045 26.6429 95.8045 27.1705V34.4871H92.2178ZM107.16 34.7396C105.852 34.7396 104.721 34.4618 103.767 33.9061C102.819 33.3448 102.086 32.5646 101.57 31.5655C101.053 30.5608 100.795 29.3961 100.795 28.0714C100.795 26.7355 101.053 25.568 101.57 24.5689C102.086 23.5642 102.819 22.784 103.767 22.2283C104.721 21.667 105.852 21.3864 107.16 21.3864C108.468 21.3864 109.596 21.667 110.545 22.2283C111.499 22.784 112.234 23.5642 112.751 24.5689C113.267 25.568 113.525 26.7355 113.525 28.0714C113.525 29.3961 113.267 30.5608 112.751 31.5655C112.234 32.5646 111.499 33.3448 110.545 33.9061C109.596 34.4618 108.468 34.7396 107.16 34.7396ZM107.177 31.9612C107.772 31.9612 108.269 31.7928 108.667 31.4561C109.066 31.1137 109.366 30.6478 109.568 30.0584C109.776 29.4691 109.88 28.7983 109.88 28.0462C109.88 27.294 109.776 26.6233 109.568 26.0339C109.366 25.4446 109.066 24.9787 108.667 24.6363C108.269 24.2939 107.772 24.1227 107.177 24.1227C106.577 24.1227 106.071 24.2939 105.662 24.6363C105.257 24.9787 104.952 25.4446 104.744 26.0339C104.542 26.6233 104.441 27.294 104.441 28.0462C104.441 28.7983 104.542 29.4691 104.744 30.0584C104.952 30.6478 105.257 31.1137 105.662 31.4561C106.071 31.7928 106.577 31.9612 107.177 31.9612ZM118.085 34.4871L114.565 21.5548H118.194L120.198 30.2437H120.316L122.404 21.5548H125.965L128.087 30.1931H128.196L130.166 21.5548H133.787L130.276 34.4871H126.479L124.256 26.3539H124.096L121.873 34.4871H118.085Z" fill="black"/>
</svg>
