<svg width="125" height="50" viewBox="0 0 125 50" fill="none" xmlns="http://www.w3.org/2000/svg">
<circle opacity="0.95" cx="17.3846" cy="24.6154" r="15.3846" stroke="white" stroke-opacity="0.6" stroke-width="2.29621"/>
<circle opacity="0.95" cx="17.3849" cy="24.6154" r="14.2365" fill="white" fill-opacity="0.8"/>
<circle opacity="0.95" cx="17.3859" cy="24.6154" r="10.7922" fill="#FCDF3C" stroke="white" stroke-width="2.29621"/>
<path opacity="0.95" d="M13.3379 28.6626H21.0948" stroke="white" stroke-width="2.29621"/>
<path opacity="0.95" d="M7.26758 22.2548H15.0245" stroke="white" stroke-width="2.29621"/>
<path opacity="0.95" d="M19.4082 22.2549H27.1651" stroke="white" stroke-width="2.29621"/>
<path d="M45.5709 34H42.4609C42.3708 34 42.3257 33.9549 42.3257 33.8648L42.3798 14.8398C42.3798 14.7677 42.4159 14.7317 42.488 14.7317H51.3582C51.4483 14.7317 51.4934 14.7677 51.4934 14.8398V17.9633C51.4934 18.0355 51.4573 18.0715 51.3852 18.0715H45.7061V22.3714H51.3852C51.4573 22.3714 51.4934 22.4165 51.4934 22.5066L51.5204 25.6436C51.5204 25.7157 51.4754 25.7518 51.3852 25.7518H45.7061V33.8648C45.7061 33.9549 45.6611 34 45.5709 34ZM51.9396 33.8648L55.3741 14.8398C55.3921 14.7677 55.4372 14.7317 55.5093 14.7317H59.5252C59.5974 14.7317 59.6424 14.7677 59.6605 14.8398L62.9597 33.8648C62.9688 33.9549 62.9327 34 62.8516 34H59.7822C59.692 34 59.6424 33.9549 59.6334 33.8648L59.3359 31.8365H55.5634L55.2659 33.8648C55.2569 33.9549 55.2118 34 55.1307 34H52.0478C51.9757 34 51.9396 33.9549 51.9396 33.8648ZM57.6457 21.1004L57.4835 20.0727L57.3618 21.1004L56.1178 28.8753H58.7816L57.6457 21.1004ZM69.7882 34.2704C68.7876 34.2704 67.8726 34.018 67.0433 33.5132C66.223 33.0084 65.5694 32.3323 65.0826 31.485C64.6049 30.6286 64.366 29.6776 64.366 28.6319L64.393 19.9916C64.393 18.9639 64.6274 18.0355 65.0962 17.2061C65.5649 16.3678 66.2094 15.6962 67.0297 15.1914C67.8591 14.6776 68.7785 14.4207 69.7882 14.4207C70.8158 14.4207 71.7308 14.6686 72.5331 15.1644C73.3444 15.6602 73.9889 16.3317 74.4666 17.1791C74.9534 18.0174 75.1968 18.9549 75.1968 19.9916V21.2626C75.1968 21.3347 75.1608 21.3708 75.0886 21.3708H71.9787C71.9066 21.3708 71.8705 21.3347 71.8705 21.2626V19.9916C71.8705 19.3786 71.6722 18.8513 71.2755 18.4096C70.8789 17.9678 70.3831 17.747 69.7882 17.747C69.1301 17.747 68.6253 17.9724 68.2737 18.4231C67.9222 18.8738 67.7464 19.3966 67.7464 19.9916V28.6319C67.7464 29.308 67.9447 29.8624 68.3413 30.2951C68.738 30.7187 69.2203 30.9306 69.7882 30.9306C70.3831 30.9306 70.8789 30.6962 71.2755 30.2275C71.6722 29.7497 71.8705 29.2178 71.8705 28.6319V27.3474C71.8705 27.2752 71.9066 27.2392 71.9787 27.2392H75.1157C75.1878 27.2392 75.2239 27.2752 75.2239 27.3474V28.6319C75.2239 29.6686 74.9805 30.6151 74.4937 31.4715C73.9979 32.3188 73.3444 32.9994 72.5331 33.5132C71.7218 34.018 70.8068 34.2704 69.7882 34.2704ZM86.2981 34H77.3468C77.2746 34 77.2386 33.9549 77.2386 33.8648L77.2656 14.8398C77.2656 14.7677 77.3017 14.7317 77.3738 14.7317H86.271C86.3431 14.7317 86.3792 14.7767 86.3792 14.8669V17.9633C86.3792 18.0355 86.3431 18.0715 86.271 18.0715H80.5919V22.3984H86.271C86.3431 22.3984 86.3792 22.4345 86.3792 22.5066L86.4063 25.6436C86.4063 25.7157 86.3702 25.7518 86.2981 25.7518H80.5919V30.5925H86.2981C86.3702 30.5925 86.4063 30.6376 86.4063 30.7278V33.8918C86.4063 33.9639 86.3702 34 86.2981 34ZM93.9919 34.2704C93.0093 34.2704 92.1034 34.018 91.274 33.5132C90.4537 33.0084 89.7912 32.3368 89.2864 31.4985C88.7906 30.6511 88.5427 29.7227 88.5427 28.713L88.5697 19.9375C88.5697 18.9099 88.8176 17.9859 89.3134 17.1656C89.8002 16.3362 90.4582 15.6737 91.2876 15.1779C92.1169 14.6731 93.0183 14.4207 93.9919 14.4207C95.0015 14.4207 95.9075 14.6686 96.7097 15.1644C97.521 15.6602 98.1701 16.3272 98.6569 17.1656C99.1526 17.9949 99.4005 18.9189 99.4005 19.9375L99.4276 28.713C99.4276 29.7227 99.1842 30.6466 98.6974 31.485C98.2016 32.3323 97.5436 33.0084 96.7233 33.5132C95.9029 34.018 94.9925 34.2704 93.9919 34.2704ZM93.9919 30.9306C94.5508 30.9306 95.0376 30.7052 95.4522 30.2545C95.8669 29.7948 96.0742 29.2809 96.0742 28.713L96.0472 19.9375C96.0472 19.3245 95.8534 18.8062 95.4657 18.3825C95.0781 17.9588 94.5868 17.747 93.9919 17.747C93.424 17.747 92.9372 17.9543 92.5316 18.369C92.1259 18.7837 91.9231 19.3065 91.9231 19.9375V28.713C91.9231 29.317 92.1259 29.8398 92.5316 30.2816C92.9372 30.7142 93.424 30.9306 93.9919 30.9306ZM104.769 34H101.659C101.569 34 101.523 33.9549 101.523 33.8648L101.578 14.8398C101.578 14.7677 101.614 14.7317 101.686 14.7317H110.556C110.646 14.7317 110.691 14.7677 110.691 14.8398V17.9633C110.691 18.0355 110.655 18.0715 110.583 18.0715H104.904V22.3714H110.583C110.655 22.3714 110.691 22.4165 110.691 22.5066L110.718 25.6436C110.718 25.7157 110.673 25.7518 110.583 25.7518H104.904V33.8648C104.904 33.9549 104.859 34 104.769 34ZM116.424 34H113.314C113.224 34 113.179 33.9549 113.179 33.8648L113.233 14.8398C113.233 14.7677 113.269 14.7317 113.341 14.7317H122.212C122.302 14.7317 122.347 14.7677 122.347 14.8398V17.9633C122.347 18.0355 122.311 18.0715 122.239 18.0715H116.559V22.3714H122.239C122.311 22.3714 122.347 22.4165 122.347 22.5066L122.374 25.6436C122.374 25.7157 122.329 25.7518 122.239 25.7518H116.559V33.8648C116.559 33.9549 116.514 34 116.424 34Z" fill="black"/>
</svg>
