<svg width="1139" height="768" viewBox="0 0 1139 768" fill="none" xmlns="http://www.w3.org/2000/svg">
<g filter="url(#filter0_d_13063_2329)">
<rect x="59" y="33.9998" width="770" height="680" fill="white" fill-opacity="0.8" shape-rendering="crispEdges"/>
</g>
<path d="M130 138C130 132.382 130 129.573 131.348 127.555C131.932 126.682 132.682 125.932 133.555 125.348C135.573 124 138.382 124 144 124H154C159.618 124 162.427 124 164.445 125.348C165.318 125.932 166.068 126.682 166.652 127.555C168 129.573 168 132.382 168 138C168 143.618 168 146.427 166.652 148.444C166.068 149.318 165.318 150.068 164.445 150.652C162.427 152 159.618 152 154 152H144C138.382 152 135.573 152 133.555 150.652C132.682 150.068 131.932 149.318 131.348 148.444C130 146.427 130 143.618 130 138Z" fill="#55ADFF" stroke="#55ADFF" stroke-width="2.5" stroke-linecap="round" stroke-linejoin="round"/>
<path opacity="0.8" d="M164 128L157.282 132.927C153.291 135.855 151.295 137.319 149.004 137.319C146.712 137.32 144.716 135.856 140.724 132.929L134 128" stroke="white" stroke-width="2.5" stroke-linecap="round" stroke-linejoin="round"/>
<rect x="286" y="157" width="31" height="31" rx="7" transform="rotate(-180 286 157)" fill="#FFB355" stroke="#FFB255" stroke-width="2.5" stroke-linecap="round" stroke-linejoin="round"/>
<path d="M278 122V122C278 120.343 276.657 119 275 119L262 119C255.4 119 252.101 119 250.05 121.05C248 123.1 248 126.4 248 133L248 146C248 147.657 249.343 149 251 149V149" stroke="#FFB255" stroke-width="2.5" stroke-linecap="round" stroke-linejoin="round"/>
<path opacity="0.9" d="M266.9 130.373C266.927 130.27 267.073 130.27 267.1 130.373C268.089 134.044 270.956 136.911 274.627 137.899C274.73 137.927 274.73 138.073 274.627 138.1C270.956 139.089 268.089 141.956 267.1 145.627C267.073 145.729 266.927 145.729 266.9 145.627C265.911 141.956 263.044 139.089 259.373 138.1C259.27 138.073 259.27 137.927 259.373 137.899C263.044 136.911 265.911 134.044 266.9 130.373Z" fill="white" stroke="white" stroke-width="2.5" stroke-linecap="round" stroke-linejoin="round"/>
<path opacity="0.9" d="M271 147.718C272.371 149.039 273.388 150.725 273.9 152.627V152.627C273.927 152.729 274.073 152.729 274.1 152.627V152.627C275.089 148.956 277.956 146.089 281.627 145.1V145.1C281.73 145.073 281.73 144.927 281.627 144.899V144.899C279.725 144.387 278.039 143.371 276.718 142" stroke="white" stroke-width="2.5" stroke-linecap="round" stroke-linejoin="round"/>
<path d="M366 140.5C366 134.427 366 131.39 367.275 129.114C368.176 127.504 369.505 126.176 371.114 125.275C373.391 124 376.427 124 382.5 124H387.5C393.573 124 396.609 124 398.886 125.275C400.495 126.176 401.824 127.504 402.725 129.114C404 131.39 404 134.427 404 140.5C404 146.573 404 149.609 402.725 151.886C401.824 153.495 400.495 154.824 398.886 155.725C396.609 157 393.573 157 387.5 157H382.5C376.427 157 373.391 157 371.114 155.725C369.505 154.824 368.176 153.495 367.275 151.886C366 149.609 366 146.573 366 140.5Z" fill="#5585FF" stroke="#5585FF" stroke-width="2.5" stroke-linecap="round" stroke-linejoin="round"/>
<path opacity="0.8" d="M378 141C378 141.552 377.552 142 377 142C376.448 142 376 141.552 376 141C376 140.447 376.448 140 377 140C377.552 140 378 140.447 378 141Z" fill="white" stroke="white" stroke-width="2.5" stroke-linecap="round" stroke-linejoin="round"/>
<path opacity="0.8" d="M386 141C386 141.552 385.552 142 385 142C384.448 142 384 141.552 384 141C384 140.447 384.448 140 385 140C385.552 140 386 140.447 386 141Z" fill="white" stroke="white" stroke-width="2.5" stroke-linecap="round" stroke-linejoin="round"/>
<path opacity="0.8" d="M378 149C378 149.552 377.552 150 377 150C376.448 150 376 149.552 376 149C376 148.447 376.448 148 377 148C377.552 148 378 148.447 378 149Z" fill="white" stroke="white" stroke-width="2.5" stroke-linecap="round" stroke-linejoin="round"/>
<path opacity="0.8" d="M386 149C386 149.552 385.552 150 385 150C384.448 150 384 149.552 384 149C384 148.447 384.448 148 385 148C385.552 148 386 148.447 386 149Z" fill="white" stroke="white" stroke-width="2.5" stroke-linecap="round" stroke-linejoin="round"/>
<path opacity="0.8" d="M394 141C394 141.552 393.552 142 393 142C392.448 142 392 141.552 392 141C392 140.447 392.448 140 393 140C393.552 140 394 140.447 394 141Z" fill="white" stroke="white" stroke-width="2.5" stroke-linecap="round" stroke-linejoin="round"/>
<path opacity="0.8" d="M374 132H396" stroke="white" stroke-width="2.5" stroke-linecap="round" stroke-linejoin="round"/>
<path d="M395 124V119" stroke="#5585FF" stroke-width="2.5" stroke-linecap="round" stroke-linejoin="round"/>
<path d="M375 124V119" stroke="#5585FF" stroke-width="2.5" stroke-linecap="round" stroke-linejoin="round"/>
<path d="M484 137.672C484 135.186 484 133.943 484.312 132.933C484.995 130.724 486.724 128.995 488.933 128.312C489.943 128 491.186 128 493.672 128C494.031 128 494.21 128 494.379 127.971C494.745 127.907 495.087 127.743 495.365 127.497C495.493 127.383 495.605 127.243 495.83 126.963L496.501 126.123C497.183 125.271 497.524 124.844 497.916 124.499C498.745 123.768 499.76 123.28 500.848 123.09C501.362 123 501.908 123 503 123C504.092 123 504.638 123 505.152 123.09C506.24 123.28 507.255 123.768 508.084 124.499C508.476 124.844 508.817 125.271 509.499 126.123L510.17 126.963C510.395 127.243 510.507 127.383 510.635 127.497C510.913 127.743 511.255 127.907 511.621 127.971C511.79 128 511.969 128 512.328 128C514.814 128 516.057 128 517.067 128.312C519.276 128.995 521.005 130.724 521.688 132.933C522 133.943 522 135.186 522 137.672V140.5C522 145.654 522 148.231 520.709 150.05C520.253 150.693 519.693 151.253 519.051 151.709C517.231 153 514.654 153 509.5 153H496.5C491.346 153 488.769 153 486.949 151.709C486.307 151.253 485.747 150.693 485.291 150.05C484 148.231 484 145.654 484 140.5V137.672Z" fill="#55BEFF" stroke="#55BEFF" stroke-width="2.5" stroke-linecap="round" stroke-linejoin="round"/>
<rect opacity="0.8" x="497" y="134" width="12" height="12" rx="5" fill="white" stroke="white" stroke-width="2.5" stroke-linejoin="round"/>
<path d="M635 133.052C631.653 126.944 627.966 122 621 122C614.035 122 610.348 126.944 607 133.052C604.287 138.004 605.149 145.957 606.053 150.808C606.24 151.813 606.334 152.316 606.607 152.843C607.069 153.733 608.037 154.536 608.996 154.827C609.564 155 610.143 155 611.301 155C612.883 155 613.674 155 614.311 154.779C615.468 154.378 616.378 153.468 616.78 152.31C617 151.673 617 150.882 617 149.3V146C617 143.791 618.791 142 621 142C623.21 142 625 143.791 625 146V149.3C625 150.882 625 151.673 625.221 152.31C625.623 153.468 626.532 154.378 627.69 154.779C628.327 155 629.118 155 630.7 155C631.858 155 632.437 155 633.005 154.827C633.964 154.536 634.932 153.733 635.394 152.843C635.667 152.316 635.761 151.813 635.948 150.808C636.852 145.957 637.714 138.004 635 133.052Z" fill="#FFDA55" stroke="#FFDA55" stroke-width="2.5" stroke-linecap="round" stroke-linejoin="round"/>
<path d="M640 134C635.457 127.367 630.454 122 621 122C611.546 122 606.543 127.367 602 134" stroke="#FFDA55" stroke-width="2.5" stroke-linecap="round" stroke-linejoin="round"/>
<path d="M720 141C720 135.399 720 132.599 721.09 130.46C722.049 128.578 723.578 127.048 725.46 126.09C727.599 125 730.399 125 736 125C741.601 125 744.401 125 746.54 126.09C748.422 127.048 749.951 128.578 750.91 130.46C752 132.599 752 135.399 752 141C752 146.6 752 149.401 750.91 151.54C749.951 153.421 748.422 154.951 746.54 155.91C744.401 157 741.601 157 736 157C730.399 157 727.599 157 725.46 155.91C723.578 154.951 722.049 153.421 721.09 151.54C720 149.401 720 146.6 720 141Z" fill="#FF55BB" stroke="#FF55BB" stroke-width="2.5" stroke-linecap="round" stroke-linejoin="round"/>
<path opacity="0.9" d="M743 144C743 145.104 742.105 146 741 146C739.895 146 739 145.104 739 144C739 142.895 739.895 142 741 142C742.105 142 743 142.895 743 144ZM743 144V132L733 134V148M733 148C733 149.104 732.105 150 731 150C729.895 150 729 149.104 729 148C729 146.895 729.895 146 731 146C732.105 146 733 146.895 733 148Z" stroke="white" stroke-width="2.5" stroke-linecap="round" stroke-linejoin="round"/>
<path d="M730 120H730.495C742.451 120 748.428 120 752.364 123.383C752.964 123.898 753.518 124.463 754.022 125.072C757.332 129.07 757.221 135.046 757 147V147" stroke="#FF55BB" stroke-width="2.5" stroke-linecap="round" stroke-linejoin="round"/>
<path d="M149 237C157.459 237 161.689 237 164.494 239.396C164.893 239.736 165.264 240.107 165.604 240.505C168 243.311 168 247.54 168 256C168 264.459 168 268.689 165.604 271.494C165.264 271.893 164.893 272.264 164.494 272.604C161.689 275 157.459 275 149 275C140.541 275 136.311 275 133.506 272.604C133.107 272.264 132.736 271.893 132.396 271.494C130 268.689 130 264.459 130 256C130 247.54 130 243.311 132.396 240.505C132.736 240.107 133.107 239.736 133.506 239.396C136.311 237 140.541 237 149 237Z" fill="#FF5574" stroke="#FF5574" stroke-width="2.5" stroke-linecap="round" stroke-linejoin="round"/>
<path opacity="0.9" d="M157 256C157 257.586 154.125 259.583 150.98 261.292C147.616 263.121 145.934 264.036 144.467 263.164C143 262.292 143 260.26 143 256.196L143 255.804C143 251.74 143 249.708 144.467 248.836C145.934 247.964 147.616 248.878 150.98 250.707C154.125 252.417 157 254.414 157 256Z" fill="white" stroke="white" stroke-width="2.5" stroke-linecap="round" stroke-linejoin="round"/>
<path d="M248 252C248 247.33 248 244.996 248.945 243.229C249.69 241.833 250.833 240.69 252.229 239.944C253.996 239 256.331 239 261 239H273C277.669 239 280.004 239 281.771 239.944C283.167 240.69 284.31 241.833 285.055 243.229C286 244.996 286 247.33 286 252C286 256.669 286 259.004 285.055 260.771C284.31 262.166 283.167 263.309 281.771 264.055C280.004 265 277.669 265 273 265H261C256.331 265 253.996 265 252.229 264.055C250.833 263.309 249.69 262.166 248.945 260.771C248 259.004 248 256.669 248 252Z" fill="#55ADFF" stroke="#55ADFF" stroke-width="2.5" stroke-linecap="round" stroke-linejoin="round"/>
<path opacity="0.8" d="M251 261H267H283" stroke="white" stroke-width="2.5" stroke-linecap="round" stroke-linejoin="round"/>
<path d="M265 265C265.028 268.849 264.546 270.551 263 273H271C269.454 270.551 268.972 268.849 269 265H265Z" fill="#55ADFF" stroke="#55ADFF" stroke-width="2.5" stroke-linecap="round" stroke-linejoin="round"/>
<path d="M274 273H260" stroke="#55ADFF" stroke-width="2.5" stroke-linecap="round" stroke-linejoin="round"/>
<path opacity="0.5" d="M385 275C389.418 275 393 271.418 393 267H377C377 271.418 380.582 275 385 275Z" fill="#FF8E55" stroke="#FF8E55" stroke-width="2.5" stroke-linecap="round" stroke-linejoin="round"/>
<path d="M397 249C397 253.427 397.231 254.308 400 258C403.143 262.19 398.63 267 393.392 267H376.522C371.215 267 366.416 262.245 369.6 258C372.369 254.308 373 253.427 373 249C373 242.372 377.983 237 385 237C392.018 237 397 242.372 397 249Z" fill="#FF8E55" stroke="#FF8E55" stroke-width="2.5" stroke-linecap="round" stroke-linejoin="round"/>
<path d="M487 257C487 251.399 487 248.599 488.09 246.46C489.049 244.578 490.578 243.048 492.46 242.09C494.599 241 497.399 241 503 241C508.601 241 511.401 241 513.54 242.09C515.422 243.048 516.951 244.578 517.91 246.46C519 248.599 519 251.399 519 257C519 262.6 519 265.401 517.91 267.54C516.951 269.421 515.422 270.951 513.54 271.91C511.401 273 508.601 273 503 273C497.399 273 494.599 273 492.46 271.91C490.578 270.951 489.049 269.421 488.09 267.54C487 265.401 487 262.6 487 257Z" fill="#5585FF" stroke="#5585FF" stroke-width="2.5" stroke-linecap="round" stroke-linejoin="round"/>
<path opacity="0.9" d="M503 250V254C503 255.885 503 256.828 503.586 257.414C504.172 258 505.114 258 507 258H511" stroke="white" stroke-width="2.5" stroke-linecap="round" stroke-linejoin="round"/>
<path opacity="0.8" d="M490.671 238C488.185 239.632 486.05 241.755 484.402 244.23" stroke="#5585FF" stroke-width="2.5" stroke-linecap="round" stroke-linejoin="round"/>
<path opacity="0.8" d="M515.674 238C518.16 239.632 520.295 241.755 521.942 244.23" stroke="#5585FF" stroke-width="2.5" stroke-linecap="round" stroke-linejoin="round"/>
<path opacity="0.8" d="M486.811 275L491.393 270.421" stroke="#5585FF" stroke-width="2.5" stroke-linecap="round" stroke-linejoin="round"/>
<path opacity="0.8" d="M519 275L514.521 270.5" stroke="#5585FF" stroke-width="2.5" stroke-linecap="round" stroke-linejoin="round"/>
<path d="M602 247.596C602 244.216 602 242.526 602.957 241.404C603.094 241.243 603.243 241.094 603.404 240.956C604.526 240 606.216 240 609.597 240C610.98 240 611.672 240 612.309 240.221C612.403 240.254 612.496 240.29 612.588 240.33C613.207 240.598 613.716 241.065 614.735 242.001L615.705 242.892C616.839 243.933 617.406 244.454 618.106 244.727C618.807 245 619.576 245 621.116 245H632C635.771 245 637.657 245 638.828 246.171C640 247.343 640 249.229 640 253V263C640 266.771 640 268.657 638.828 269.828C637.657 271 635.771 271 632 271H610C606.229 271 604.343 271 603.172 269.828C602 268.657 602 266.771 602 263V247.596Z" fill="#55ADFF" stroke="#55ADFF" stroke-width="2.5" stroke-linecap="round" stroke-linejoin="round"/>
<path d="M603.5 251H639" stroke="white" stroke-width="2.5" stroke-linecap="round" stroke-linejoin="round"/>
<path d="M754 254L753.612 250.899C753.125 246.998 752.881 245.047 752.105 243.505C750.948 241.206 748.949 239.441 746.524 238.578C744.898 238 742.932 238 739 238C735.068 238 733.102 238 731.476 238.578C729.051 239.441 727.052 241.206 725.895 243.505C725.119 245.047 724.875 246.998 724.388 250.899L724 254H754Z" fill="#FF55BB"/>
<path d="M754 254L753.612 250.899C753.125 246.998 752.881 245.047 752.105 243.505C750.948 241.206 748.949 239.441 746.524 238.578C744.898 238 742.932 238 739 238V238C735.068 238 733.102 238 731.476 238.578C729.051 239.441 727.052 241.206 725.895 243.505C725.119 245.047 724.875 246.998 724.388 250.899L724 254M754 254H758M754 254H724M724 254H720" stroke="#FF55BB" stroke-width="2.5" stroke-linecap="round" stroke-linejoin="round"/>
<path opacity="0.8" d="M720 254H758" stroke="white" stroke-width="2.5" stroke-linecap="round" stroke-linejoin="round"/>
<path d="M743.192 264.327C741.9 263.794 740.484 263.5 739 263.5C737.516 263.5 736.1 263.794 734.809 264.327" stroke="#FF55BB" stroke-width="2.5" stroke-linecap="round" stroke-linejoin="round"/>
<rect opacity="0.8" x="723" y="261" width="12" height="12" rx="5" fill="#FF55BB" stroke="white" stroke-width="2.5" stroke-linejoin="round"/>
<rect opacity="0.8" x="743" y="261" width="12" height="12" rx="5" fill="#FF55BB" stroke="white" stroke-width="2.5" stroke-linejoin="round"/>
<path d="M130 374C130 365.541 130 361.311 132.396 358.506C132.736 358.107 133.107 357.736 133.506 357.396C136.311 355 140.541 355 149 355C157.459 355 161.689 355 164.494 357.396C164.893 357.736 165.264 358.107 165.604 358.506C168 361.311 168 365.541 168 374C168 382.459 168 386.689 165.604 389.494C165.264 389.893 164.893 390.264 164.494 390.604C161.689 393 157.459 393 149 393C140.541 393 136.311 393 133.506 390.604C133.107 390.264 132.736 389.893 132.396 389.494C130 386.689 130 382.459 130 374Z" fill="#FF5574" stroke="#FF5574" stroke-width="2.5" stroke-linecap="round" stroke-linejoin="round"/>
<path opacity="0.9" d="M149 366C150.586 366 152.583 368.875 154.292 372.02C156.122 375.384 157.036 377.066 156.164 378.533C155.292 380 153.26 380 149.196 380H148.804C144.74 380 142.708 380 141.836 378.533C140.964 377.066 141.878 375.384 143.708 372.02C145.417 368.875 147.414 366 149 366Z" fill="white" stroke="white" stroke-width="2.5" stroke-linecap="round" stroke-linejoin="round"/>
<path d="M251 371V377C251 384.542 251 388.314 253.343 390.657C255.686 393 259.458 393 267 393C274.542 393 278.314 393 280.657 390.657C283 388.314 283 384.542 283 377V370.404C283 367.369 283 365.851 282.474 364.473C282.418 364.327 282.358 364.182 282.294 364.039C281.688 362.695 280.612 361.624 278.46 359.483C276.323 357.358 275.255 356.295 273.918 355.697C273.776 355.634 273.632 355.574 273.487 355.519C272.117 355 270.61 355 267.596 355H267C259.458 355 255.686 355 253.343 357.343C251 359.686 251 363.458 251 371Z" fill="#55ADFF" stroke="#55ADFF" stroke-width="2.5" stroke-linecap="round" stroke-linejoin="round"/>
<path opacity="0.8" d="M283 364H279.953C277.125 364 275.71 364 274.832 363.121C273.953 362.243 273.953 360.828 273.953 358V355" stroke="white" stroke-width="2.5" stroke-linecap="round" stroke-linejoin="round"/>
<path opacity="0.8" d="M267 371V383" stroke="white" stroke-width="2.5" stroke-linecap="round" stroke-linejoin="round"/>
<path opacity="0.8" d="M261 377H273" stroke="white" stroke-width="2.5" stroke-linecap="round" stroke-linejoin="round"/>
<path d="M370.5 361L370.265 376.028C370.141 383.987 370.079 387.966 372.554 390.374C375.029 392.781 379.006 392.608 386.958 392.263L393 392" stroke="#55ADFF" stroke-width="2.5" stroke-linecap="round" stroke-linejoin="round"/>
<path d="M387 388H388C393.657 388 396.485 388 398.243 386.243C400 384.485 400 381.657 400 376V368.697C400 366.364 400 365.197 399.687 364.111C399.519 363.529 399.286 362.968 398.991 362.439C398.442 361.451 397.615 360.628 395.96 358.983L395.466 358.492C394.312 357.345 393.736 356.772 393.081 356.337C392.211 355.759 391.236 355.357 390.211 355.153C389.44 355 388.626 355 387 355C381.343 355 378.515 355 376.757 356.757C375 358.515 375 361.343 375 367V376C375 381.657 375 384.485 376.757 386.243C378.515 388 381.343 388 387 388Z" fill="#55ADFF" stroke="#55ADFF" stroke-width="2.5" stroke-linecap="round" stroke-linejoin="round"/>
<path d="M400 363H398C395.172 363 393.757 363 392.879 362.122C392 361.243 392 359.829 392 357V355" stroke="white" stroke-opacity="0.8" stroke-width="2.5" stroke-linecap="round" stroke-linejoin="round"/>
<path opacity="0.8" d="M491.508 381C494.251 384.933 498.626 386.9 503 386.899M514.489 381C511.746 384.932 507.373 386.899 503 386.899M503 386.899V393" stroke="#FF8E55" stroke-width="2.5" stroke-linecap="round" stroke-linejoin="round"/>
<path d="M495.338 358.083C499.275 353.972 506.725 353.972 510.662 358.083C515.113 362.73 515.113 375.27 510.662 379.917C506.725 384.028 499.275 384.028 495.338 379.917C490.887 375.27 490.887 362.73 495.338 358.083Z" fill="#FF8E55" stroke="#FF8E55" stroke-width="2.5" stroke-linecap="round" stroke-linejoin="round"/>
<path d="M612 362C614.007 358.357 617.401 355 621 355C624.599 355 627.993 358.357 630 362" stroke="#5585FF" stroke-width="2.5" stroke-linecap="round" stroke-linejoin="round"/>
<path d="M610.916 376C612.613 381.298 616.49 385 621.001 385C625.511 385 629.388 381.298 631.085 376" stroke="#5585FF" stroke-width="2.5" stroke-linecap="round" stroke-linejoin="round"/>
<path d="M612.038 361.911C608.125 364.378 607.853 371.421 612.038 373.433C612.661 373.733 613.445 373.854 614.238 373.876C616.672 373.945 618.16 370.964 620.595 370.964C623.037 370.964 624.498 373.94 626.938 373.997C628.038 374.022 629.168 373.895 630.009 373.433C634.071 371.201 633.922 364.378 630.009 361.911C625.967 359.363 616.079 359.363 612.038 361.911Z" fill="#5585FF" stroke="#5585FF" stroke-width="2.5" stroke-linecap="round" stroke-linejoin="round"/>
<path d="M609 364C609 364 607.094 363.581 606 364C604.193 364.691 604.81 367.583 605.545 369.692C606.05 371.138 607.468 372 609 372V372" stroke="#5585FF" stroke-width="2.5" stroke-linecap="round" stroke-linejoin="round"/>
<path d="M633 364C633 364 634.906 363.581 636 364C637.807 364.691 637.19 367.583 636.455 369.692C635.95 371.138 634.532 372 633 372V372" stroke="#5585FF" stroke-width="2.5" stroke-linecap="round" stroke-linejoin="round"/>
<path opacity="0.8" d="M619 364H623" stroke="white" stroke-width="2.5" stroke-linecap="round" stroke-linejoin="round"/>
<path d="M636.001 387.5C641.908 394.862 600.088 394.865 606 387.5C610.059 382.443 612.78 382.001 614.086 382.221C614.425 382.278 613.579 382.136 614.415 382.435C615.252 382.735 615.438 382.842 615.812 383.057C617.055 383.77 619.424 385 621.001 385C622.581 385 624.959 383.764 626.199 383.051C626.567 382.84 626.75 382.734 627.579 382.435C628.407 382.137 627.568 382.281 627.904 382.223C629.207 381.999 631.933 382.428 636.001 387.5Z" fill="#5585FF" stroke="#5585FF" stroke-width="2.5" stroke-linecap="round" stroke-linejoin="round"/>
<path opacity="0.8" d="M720 363C720 361.14 720 360.21 720.204 359.447C720.759 357.377 722.377 355.759 724.447 355.204C725.21 355 726.14 355 728 355C729.86 355 730.79 355 731.553 355.204C733.623 355.759 735.241 357.377 735.796 359.447C736 360.21 736 361.14 736 363C736 364.86 736 365.79 735.796 366.553C735.241 368.623 733.623 370.241 731.553 370.796C730.79 371 729.86 371 728 371C726.14 371 725.21 371 724.447 370.796C722.377 370.241 720.759 368.623 720.204 366.553C720 365.79 720 364.86 720 363Z" fill="#5855FF" stroke="#5855FF" stroke-width="2.5" stroke-linecap="round" stroke-linejoin="round"/>
<path d="M742 363C742 361.14 742 360.21 742.204 359.447C742.759 357.377 744.377 355.759 746.447 355.204C747.21 355 748.14 355 750 355C751.86 355 752.79 355 753.553 355.204C755.623 355.759 757.241 357.377 757.796 359.447C758 360.21 758 361.14 758 363C758 364.86 758 365.79 757.796 366.553C757.241 368.623 755.623 370.241 753.553 370.796C752.79 371 751.86 371 750 371C748.14 371 747.21 371 746.447 370.796C744.377 370.241 742.759 368.623 742.204 366.553C742 365.79 742 364.86 742 363Z" fill="#5855FF" stroke="#5855FF" stroke-width="2.5" stroke-linecap="round" stroke-linejoin="round"/>
<path d="M720 385C720 383.14 720 382.21 720.204 381.447C720.759 379.377 722.377 377.759 724.447 377.204C725.21 377 726.14 377 728 377C729.86 377 730.79 377 731.553 377.204C733.623 377.759 735.241 379.377 735.796 381.447C736 382.21 736 383.14 736 385C736 386.86 736 387.79 735.796 388.553C735.241 390.623 733.623 392.241 731.553 392.796C730.79 393 729.86 393 728 393C726.14 393 725.21 393 724.447 392.796C722.377 392.241 720.759 390.623 720.204 388.553C720 387.79 720 386.86 720 385Z" fill="#5855FF" stroke="#5855FF" stroke-width="2.5" stroke-linecap="round" stroke-linejoin="round"/>
<path opacity="0.8" d="M742 385C742 383.14 742 382.21 742.204 381.447C742.759 379.377 744.377 377.759 746.447 377.204C747.21 377 748.14 377 750 377C751.86 377 752.79 377 753.553 377.204C755.623 377.759 757.241 379.377 757.796 381.447C758 382.21 758 383.14 758 385C758 386.86 758 387.79 757.796 388.553C757.241 390.623 755.623 392.241 753.553 392.796C752.79 393 751.86 393 750 393C748.14 393 747.21 393 746.447 392.796C744.377 392.241 742.759 390.623 742.204 388.553C742 387.79 742 386.86 742 385Z" fill="#5855FF" stroke="#5855FF" stroke-width="2.5" stroke-linecap="round" stroke-linejoin="round"/>
<path opacity="0.8" d="M164 500.5V498.571C164 498.041 164 497.776 163.987 497.551C163.759 493.486 160.514 490.241 156.449 490.013C156.224 490 155.959 490 155.429 490H142.571C142.041 490 141.776 490 141.551 490.013C137.486 490.241 134.241 493.486 134.013 497.551C134 497.776 134 498.041 134 498.571V500.5C134 502.824 134 503.987 134.24 504.944C134.957 507.807 137.193 510.043 140.056 510.76C141.013 511 142.176 511 144.5 511H153.5C155.824 511 156.987 511 157.944 510.76C160.807 510.043 163.043 507.807 163.76 504.944C164 503.987 164 502.824 164 500.5Z" fill="#8155FF" stroke="#8155FF" stroke-width="2.5" stroke-linecap="round" stroke-linejoin="round"/>
<path d="M141 481C141 481 146.582 473 149 473M149 473C151.418 473 157 481 157 481M149 473L149 495.5" stroke="#8155FF" stroke-width="2.5" stroke-linecap="round" stroke-linejoin="round"/>
<path d="M254 488C254 483.029 258.029 479 263 479H271C275.971 479 280 483.029 280 488V496C280 500.971 275.971 505 271 505H263C258.029 505 254 500.971 254 496V488Z" fill="#55ADFF" stroke="#55ADFF" stroke-width="2.5" stroke-linecap="round" stroke-linejoin="round"/>
<path d="M247.5 492H249.5" stroke="#55ADFF" stroke-width="2.5" stroke-linecap="round" stroke-linejoin="round"/>
<path d="M252 477L253.579 478.579" stroke="#55ADFF" stroke-width="2.5" stroke-linecap="round" stroke-linejoin="round"/>
<path d="M284.5 492H286.5" stroke="#55ADFF" stroke-width="2.5" stroke-linecap="round" stroke-linejoin="round"/>
<path d="M280.422 505.421L282.001 507" stroke="#55ADFF" stroke-width="2.5" stroke-linecap="round" stroke-linejoin="round"/>
<path d="M267 473L267 475" stroke="#55ADFF" stroke-width="2.5" stroke-linecap="round" stroke-linejoin="round"/>
<path d="M282 477L280.421 478.579" stroke="#55ADFF" stroke-width="2.5" stroke-linecap="round" stroke-linejoin="round"/>
<path d="M267 509.5L267 511.5" stroke="#55ADFF" stroke-width="2.5" stroke-linecap="round" stroke-linejoin="round"/>
<path d="M248.566 499.826L250.507 499.002" stroke="#55ADFF" stroke-width="2.5" stroke-linecap="round" stroke-linejoin="round"/>
<path d="M283.498 484.999L285.439 484.175" stroke="#55ADFF" stroke-width="2.5" stroke-linecap="round" stroke-linejoin="round"/>
<path d="M259.178 473.565L260.001 475.506" stroke="#55ADFF" stroke-width="2.5" stroke-linecap="round" stroke-linejoin="round"/>
<path d="M274.004 508.495L274.828 510.436" stroke="#55ADFF" stroke-width="2.5" stroke-linecap="round" stroke-linejoin="round"/>
<path d="M285.439 499.826L283.499 499.002" stroke="#55ADFF" stroke-width="2.5" stroke-linecap="round" stroke-linejoin="round"/>
<path d="M250.508 484.999L248.567 484.175" stroke="#55ADFF" stroke-width="2.5" stroke-linecap="round" stroke-linejoin="round"/>
<path d="M274.828 473.565L274.004 475.506" stroke="#55ADFF" stroke-width="2.5" stroke-linecap="round" stroke-linejoin="round"/>
<path d="M260.002 508.495L259.178 510.436" stroke="#55ADFF" stroke-width="2.5" stroke-linecap="round" stroke-linejoin="round"/>
<path d="M253.578 505.421L251.999 507" stroke="#55ADFF" stroke-width="2.5" stroke-linecap="round" stroke-linejoin="round"/>
<path opacity="0.8" d="M257.5 503C257.835 502.501 258.168 502.001 258.5 501.5C259.685 499.87 260.637 498.998 262.423 498.409C263.324 498.112 264 497.32 264 496.371V495.69C264 495.124 263.745 494.595 263.392 494.153C262.53 493.075 262 491.612 262 490C262 486.686 264.239 484 267 484C269.762 484 272 486.686 272 490C272 491.612 271.471 493.075 270.609 494.153C270.255 494.595 270 495.124 270 495.69V496.318C270 497.29 270.711 498.09 271.636 498.388C273.292 498.922 274.265 499.805 275.5 501.5L276.5 503" stroke="white" stroke-width="2.5" stroke-linecap="round" stroke-linejoin="round"/>
<path d="M385 473H374C370.229 473 368.343 473 367.172 474.172C366 475.343 366 477.229 366 481V503C366 506.771 366 508.657 367.172 509.828C368.343 511 370.229 511 374 511H396C399.771 511 401.657 511 402.828 509.828C404 508.657 404 506.771 404 503V492" stroke="#4AD818" stroke-width="2.5" stroke-linecap="round" stroke-linejoin="round"/>
<path d="M400.829 476.83L400.17 476.17C398.634 474.635 397.866 473.867 396.809 473.756C395.752 473.646 394.893 474.205 393.174 475.323C387.715 478.876 378.111 486.086 375.999 494C375.188 497.042 372.773 499.774 374.999 502C377.226 504.226 379.957 501.812 382.999 501C390.914 498.888 398.123 489.285 401.676 483.825C402.795 482.107 403.354 481.248 403.243 480.19C403.132 479.133 402.365 478.365 400.829 476.83Z" fill="#4AD818" stroke="#4AD818" stroke-width="2.5" stroke-linecap="round" stroke-linejoin="round"/>
<path opacity="0.8" d="M392 478L399 485" stroke="white" stroke-width="2.5" stroke-linecap="round" stroke-linejoin="round"/>
<path d="M487.69 484.164C488.796 478.817 489.35 476.144 491.28 474.572C493.21 473 495.94 473 501.4 473H504.6C510.06 473 512.79 473 514.72 474.572C516.65 476.144 517.204 478.817 518.31 484.164L521.831 501.182C521.855 501.298 521.867 501.356 521.878 501.415C521.952 501.805 521.992 502.201 521.999 502.598C522 502.657 522 502.717 522 502.836C522 503.917 522 504.458 521.94 504.912C521.527 508.054 519.054 510.527 515.912 510.94C515.458 511 514.917 511 513.836 511H492.164C491.083 511 490.542 511 490.088 510.94C486.946 510.527 484.473 508.054 484.06 504.912C484 504.458 484 503.917 484 502.836C484 502.717 484 502.657 484.001 502.598C484.008 502.201 484.048 501.805 484.122 501.415C484.133 501.356 484.145 501.298 484.169 501.182L487.69 484.164Z" fill="#5599FF" stroke="#5599FF" stroke-width="2.5" stroke-linecap="round" stroke-linejoin="round"/>
<path opacity="0.8" d="M486 502H503H520" stroke="white" stroke-width="2.5" stroke-linecap="round" stroke-linejoin="round"/>
<path opacity="0.8" fill-rule="evenodd" clip-rule="evenodd" d="M502.522 496.155C502.666 496.215 502.823 496.248 502.988 496.25C502.992 496.25 502.996 496.25 503 496.25M502.522 496.155C502.374 496.094 502.236 496.004 502.116 495.884L495.116 488.884C494.628 488.396 494.628 487.604 495.116 487.116C495.604 486.628 496.396 486.628 496.884 487.116L501.75 491.982V481C501.75 480.31 502.31 479.75 503 479.75C503.69 479.75 504.25 480.31 504.25 481V491.982L509.116 487.116C509.604 486.628 510.396 486.628 510.884 487.116C511.372 487.604 511.372 488.396 510.884 488.884L503.884 495.884C503.643 496.125 503.328 496.247 503.012 496.25" fill="white"/>
<path d="M616 485.471C616 481.426 616 479.403 617.185 478.004C618.37 476.605 620.365 476.273 624.356 475.607L628.356 474.941C633.761 474.04 636.464 473.589 638.232 475.087C640 476.585 640 479.325 640 484.805V499.195C640 504.675 640 507.415 638.232 508.913C636.464 510.411 633.761 509.96 628.356 509.059L624.356 508.393C620.365 507.727 618.37 507.395 617.185 505.996C616 504.597 616 502.575 616 498.529V485.471Z" fill="#FF8E55" stroke="#FF8E55" stroke-width="2.5" stroke-linecap="round" stroke-linejoin="round"/>
<path opacity="0.8" d="M622 483.5V500.5C622 500.965 622 501.197 622.038 501.39C622.196 502.184 622.816 502.804 623.61 502.962C623.803 503 624.035 503 624.5 503C624.965 503 625.197 503 625.39 502.962C626.184 502.804 626.804 502.184 626.962 501.39C627 501.197 627 500.965 627 500.5V483.5C627 483.035 627 482.803 626.962 482.61C626.804 481.816 626.184 481.196 625.39 481.038C625.197 481 624.965 481 624.5 481C624.035 481 623.803 481 623.61 481.038C622.816 481.196 622.196 481.816 622.038 482.61C622 482.803 622 483.035 622 483.5Z" fill="white" stroke="white" stroke-width="2.5" stroke-linecap="round" stroke-linejoin="round"/>
<path d="M602.001 484C606.419 484 610.001 489.248 610.001 492C610.001 494.752 606.419 500 602.001 500C599.752 500 599.752 484 602.001 484Z" fill="#FF8E55" stroke="#FF8E55" stroke-width="2.5" stroke-linecap="round" stroke-linejoin="round"/>
<path opacity="0.8" d="M737 507C727.611 507 720 499.389 720 490C720 480.611 727.611 473 737 473C746.389 473 754 480.611 754 490" stroke="#5585FF" stroke-width="2.5" stroke-linecap="round" stroke-linejoin="round"/>
<path opacity="0.8" d="M737 502C730.373 502 725 496.627 725 490C725 483.373 730.373 478 737 478C743.627 478 749 483.373 749 490" stroke="#5585FF" stroke-width="2.5" stroke-linecap="round" stroke-linejoin="round"/>
<path d="M750.967 499.041C752.906 498.199 753.876 497.778 753.865 497.11C753.854 496.443 752.91 496.068 751.022 495.319C746.885 493.676 741.234 491.763 739.999 493.002C738.773 494.232 740.656 499.826 742.291 503.955C743.046 505.864 743.424 506.818 744.091 506.83C744.758 506.841 745.187 505.859 746.044 503.893C746.635 502.539 747.27 501.288 747.778 500.78C748.258 500.3 749.561 499.652 750.967 499.041Z" fill="#5585FF" stroke="#5585FF" stroke-width="2.5" stroke-linecap="round" stroke-linejoin="round"/>
<path d="M149 591C157.459 591 161.689 591 164.494 593.396C164.893 593.736 165.264 594.107 165.604 594.506C168 597.311 168 601.541 168 610C168 618.459 168 622.689 165.604 625.494C165.264 625.893 164.893 626.264 164.494 626.604C161.689 629 157.459 629 149 629C140.541 629 136.311 629 133.506 626.604C133.107 626.264 132.736 625.893 132.396 625.494C130 622.689 130 618.459 130 610C130 601.541 130 597.311 132.396 594.506C132.736 594.107 133.107 593.736 133.506 593.396C136.311 591 140.541 591 149 591Z" fill="#5585FF" stroke="#5585FF" stroke-width="2.5" stroke-linecap="round" stroke-linejoin="round"/>
<path opacity="0.8" d="M150.999 608C149.895 606.895 147.999 606.999 146.999 608C146 609 143.499 622 148.999 622C154.5 622 152 609 150.999 608Z" fill="white" stroke="white" stroke-width="2.5" stroke-linecap="round" stroke-linejoin="round"/>
<path opacity="0.8" d="M146 601C146 600.068 146 599.602 146.152 599.235C146.355 598.745 146.745 598.355 147.235 598.152C147.602 598 148.068 598 149 598C149.932 598 150.398 598 150.765 598.152C151.255 598.355 151.645 598.745 151.848 599.235C152 599.602 152 600.068 152 601C152 601.932 152 602.398 151.848 602.765C151.645 603.255 151.255 603.645 150.765 603.848C150.398 604 149.932 604 149 604C148.068 604 147.602 604 147.235 603.848C146.745 603.645 146.355 603.255 146.152 602.765C146 602.398 146 601.932 146 601Z" fill="white" stroke="white" stroke-width="2.5" stroke-linecap="round" stroke-linejoin="round"/>
<path d="M278 601H256C254.14 601 253.21 601 252.447 601.204C250.377 601.759 248.759 603.377 248.204 605.447C248 606.21 248 607.14 248 609C248 610.86 248 611.79 248.204 612.553C248.759 614.623 250.377 616.241 252.447 616.796C253.21 617 254.14 617 256 617C256 614.239 258.239 612 261 612H273C275.761 612 278 614.239 278 617C279.86 617 280.79 617 281.553 616.796C283.623 616.241 285.241 614.623 285.796 612.553C286 611.79 286 610.86 286 609C286 607.14 286 606.21 285.796 605.447C285.241 603.377 283.623 601.759 281.553 601.204C280.79 601 279.86 601 278 601Z" fill="#5599FF" stroke="#5599FF" stroke-width="2.5" stroke-linecap="round" stroke-linejoin="round"/>
<path d="M256 601C256 597.262 256 595.392 256.804 594C257.33 593.088 258.088 592.33 259 591.804C260.392 591 262.262 591 266 591H268C271.738 591 273.608 591 275 591.804C275.912 592.33 276.67 593.088 277.196 594C278 595.392 278 597.262 278 601H256Z" fill="#5599FF" stroke="white" stroke-width="2.5" stroke-linecap="round" stroke-linejoin="round"/>
<circle opacity="0.8" cx="2" cy="2" r="2" transform="matrix(-1 0 0 1 282 604)" fill="white" stroke="white" stroke-width="2.5" stroke-linecap="round" stroke-linejoin="round"/>
<path opacity="0.8" d="M252 602V605H256V601" stroke="white" stroke-width="2.5" stroke-linecap="round" stroke-linejoin="round"/>
<rect x="256" y="612" width="22" height="17" rx="6" fill="#5599FF" stroke="white" stroke-width="2.5" stroke-linecap="round" stroke-linejoin="round"/>
<path opacity="0.8" d="M260 618H274" stroke="white" stroke-width="2.5" stroke-linecap="round" stroke-linejoin="round"/>
<path opacity="0.8" d="M260 623H274" stroke="white" stroke-width="2.5" stroke-linecap="round" stroke-linejoin="round"/>
<path d="M369.87 596.404C368.371 594.04 367.621 592.858 368.056 592.302C368.492 591.746 369.769 592.174 372.324 593.03C383.132 596.652 403.999 604.374 403.999 610C403.999 615.626 383.132 623.347 372.324 626.969C369.769 627.825 368.492 628.254 368.056 627.698C367.621 627.142 368.371 625.96 369.87 623.595C372.309 619.749 374.999 614.489 374.999 610C374.999 605.511 372.309 600.25 369.87 596.404Z" fill="#4AD818" stroke="#4AD818" stroke-width="2.5" stroke-linecap="round" stroke-linejoin="round"/>
<path opacity="0.8" d="M375.2 610L386 610" stroke="white" stroke-width="2.5" stroke-linecap="round" stroke-linejoin="round"/>
<path d="M484 610C484 603.468 484 600.202 485.238 597.693C486.406 595.323 488.323 593.406 490.693 592.238C493.202 591 496.468 591 503 591C509.532 591 512.798 591 515.307 592.238C517.677 593.406 519.594 595.323 520.762 597.693C522 600.202 522 603.468 522 610C522 616.532 522 619.798 520.762 622.307C519.594 624.677 517.677 626.594 515.307 627.762C512.798 629 509.532 629 503 629C496.468 629 493.202 629 490.693 627.762C488.323 626.594 486.406 624.677 485.238 622.307C484 619.798 484 616.532 484 610Z" fill="#4AD818" stroke="#4AD818" stroke-width="2.5" stroke-linecap="round" stroke-linejoin="round"/>
<path opacity="0.8" d="M492 621L494 619M505 608C508.03 608 509.561 608 512.189 608C512.844 608 513.171 608 513.435 607.808C513.698 607.616 513.788 607.336 513.967 606.776C514.387 605.463 514.462 604.336 514.279 603.078C514.079 601.71 513.979 601.027 513.406 600.827C512.833 600.627 512.284 601.144 511.186 602.178L507.5 605.647M505 608L502 611L501.5 611.5M505 608L507.5 605.647M501.5 611.5H513M501.5 611.5L498 615M498 615C500.371 615 501.864 615 503.52 615C505.273 615 506.149 615 506.322 615.785C506.494 616.571 505.818 616.883 504.466 617.507C502.337 618.491 499.226 618.879 494 619M498 615L494 619M494 619V613C494 608.194 498.657 603.492 504.77 600.289C505.947 599.673 506.535 599.365 507.018 599.656C507.5 599.948 507.5 600.639 507.5 602.019V605.647" stroke="white" stroke-width="2.5" stroke-linecap="round" stroke-linejoin="round"/>
<path d="M627 597C623.891 595.854 623.314 591 621 591C618.686 591 618.109 595.854 615 597C612.435 597.945 609.5 595.5 608 597C606.5 598.5 608.945 601.435 608 604C606.854 607.109 602 607.686 602 610C602 612.314 606.854 612.891 608 616C608.945 618.565 606.5 621.5 608 623C609.5 624.5 612.435 622.055 615 623C618.109 624.146 618.686 629 621 629C623.314 629 623.891 624.146 627 623C629.565 622.055 632.5 624.5 634 623C635.5 621.5 633.055 618.565 634 616C635.146 612.891 640 612.314 640 610C640 607.686 635.146 607.109 634 604C633.055 601.435 635.5 598.5 634 597C632.5 595.5 629.565 597.945 627 597Z" fill="#FF5574" stroke="#FF5574" stroke-width="2.5" stroke-linecap="round" stroke-linejoin="round"/>
<path opacity="0.9" d="M621 604L621 616" stroke="white" stroke-width="2.5" stroke-linecap="round" stroke-linejoin="round"/>
<path opacity="0.9" d="M627 610H615" stroke="white" stroke-width="2.5" stroke-linecap="round" stroke-linejoin="round"/>
<rect x="720" y="591" width="38" height="38" rx="10" fill="#FF5574" stroke="#FF5574" stroke-width="2.5" stroke-linecap="round" stroke-linejoin="round"/>
<path opacity="0.9" d="M749 600L729 620" stroke="white" stroke-width="2.5" stroke-linecap="round" stroke-linejoin="round"/>
<path opacity="0.9" d="M729.002 600L749.002 620" stroke="white" stroke-width="2.5" stroke-linecap="round" stroke-linejoin="round"/>
<path d="M829 33.9998H1139V714H829V33.9998Z" fill="white" fill-opacity="0.65"/>
<path d="M852 113C852 113 850.332 120.385 854.326 123C857.376 124.996 860.609 124.995 863.66 123C867.657 120.387 866 113 866 113" fill="#FFDA55"/>
<path d="M852 113C852 113 850.332 120.385 854.326 123C857.376 124.996 860.609 124.995 863.66 123C867.657 120.387 866 113 866 113H852Z" stroke="#1E3050" stroke-width="1.8" stroke-linecap="square" stroke-linejoin="round"/>
<path d="M850 113H868" stroke="#1E3050" stroke-width="1.8" stroke-linecap="square" stroke-linejoin="round"/>
<path d="M854.1 112C854.563 109.718 856.581 108 859 108C861.419 108 863.437 109.718 863.9 112" stroke="#1E3050" stroke-width="1.8" stroke-linecap="round" stroke-linejoin="round"/>
<path d="M880.119 111.318H881.983L885.224 119.233H885.344L888.585 111.318H890.45V121.5H888.988V114.132H888.893L885.891 121.485H884.678L881.675 114.127H881.58V121.5H880.119V111.318ZM895.855 121.654C895.103 121.654 894.455 121.493 893.911 121.172C893.371 120.847 892.953 120.391 892.658 119.804C892.367 119.214 892.221 118.523 892.221 117.731C892.221 116.949 892.367 116.26 892.658 115.663C892.953 115.067 893.364 114.601 893.891 114.266C894.421 113.931 895.041 113.764 895.751 113.764C896.181 113.764 896.599 113.835 897.003 113.978C897.408 114.12 897.771 114.344 898.092 114.649C898.414 114.954 898.667 115.35 898.853 115.837C899.038 116.321 899.131 116.909 899.131 117.602V118.129H893.061V117.015H897.675C897.675 116.624 897.595 116.278 897.436 115.976C897.277 115.671 897.053 115.431 896.765 115.255C896.48 115.08 896.145 114.992 895.76 114.992C895.343 114.992 894.978 115.095 894.667 115.3C894.358 115.502 894.12 115.768 893.951 116.096C893.785 116.42 893.702 116.773 893.702 117.155V118.025C893.702 118.535 893.792 118.969 893.971 119.327C894.153 119.685 894.407 119.959 894.731 120.147C895.056 120.333 895.436 120.426 895.87 120.426C896.152 120.426 896.408 120.386 896.64 120.307C896.872 120.224 897.073 120.101 897.242 119.939C897.411 119.776 897.54 119.576 897.63 119.337L899.037 119.591C898.924 120.005 898.722 120.368 898.43 120.679C898.142 120.988 897.779 121.228 897.341 121.4C896.907 121.569 896.412 121.654 895.855 121.654ZM902.267 116.966V121.5H900.781V113.863H902.207V115.106H902.302C902.478 114.702 902.753 114.377 903.127 114.132C903.505 113.887 903.981 113.764 904.554 113.764C905.074 113.764 905.53 113.873 905.921 114.092C906.312 114.308 906.616 114.629 906.831 115.057C907.046 115.484 907.154 116.013 907.154 116.643V121.5H905.668V116.821C905.668 116.268 905.523 115.835 905.235 115.524C904.947 115.209 904.551 115.052 904.047 115.052C903.702 115.052 903.396 115.126 903.127 115.275C902.862 115.424 902.652 115.643 902.496 115.932C902.343 116.217 902.267 116.561 902.267 116.966ZM913.985 118.333V113.863H915.477V121.5H914.015V120.177H913.935C913.76 120.585 913.478 120.925 913.09 121.196C912.706 121.465 912.227 121.599 911.653 121.599C911.163 121.599 910.729 121.491 910.351 121.276C909.976 121.057 909.681 120.734 909.466 120.307C909.254 119.879 909.148 119.35 909.148 118.721V113.863H910.634V118.542C910.634 119.062 910.778 119.476 911.067 119.785C911.355 120.093 911.73 120.247 912.19 120.247C912.469 120.247 912.746 120.177 913.021 120.038C913.299 119.899 913.529 119.688 913.712 119.407C913.897 119.125 913.988 118.767 913.985 118.333ZM921.179 121.5V113.863H922.665V121.5H921.179ZM921.93 112.685C921.671 112.685 921.449 112.599 921.263 112.427C921.081 112.251 920.99 112.042 920.99 111.8C920.99 111.555 921.081 111.346 921.263 111.174C921.449 110.998 921.671 110.91 921.93 110.91C922.188 110.91 922.409 110.998 922.591 111.174C922.777 111.346 922.869 111.555 922.869 111.8C922.869 112.042 922.777 112.251 922.591 112.427C922.409 112.599 922.188 112.685 921.93 112.685ZM927.882 121.654C927.143 121.654 926.506 121.486 925.973 121.152C925.443 120.814 925.035 120.348 924.75 119.755C924.465 119.161 924.322 118.482 924.322 117.716C924.322 116.941 924.468 116.256 924.76 115.663C925.051 115.067 925.462 114.601 925.993 114.266C926.523 113.931 927.148 113.764 927.867 113.764C928.447 113.764 928.964 113.872 929.418 114.087C929.872 114.299 930.238 114.598 930.517 114.982C930.799 115.366 930.966 115.816 931.019 116.329H929.572C929.493 115.971 929.31 115.663 929.025 115.405C928.744 115.146 928.366 115.017 927.892 115.017C927.478 115.017 927.115 115.126 926.803 115.345C926.495 115.56 926.255 115.869 926.082 116.27C925.91 116.667 925.824 117.138 925.824 117.682C925.824 118.238 925.908 118.719 926.077 119.123C926.246 119.528 926.485 119.841 926.793 120.063C927.105 120.285 927.471 120.396 927.892 120.396C928.174 120.396 928.429 120.345 928.657 120.242C928.89 120.136 929.083 119.985 929.239 119.79C929.398 119.594 929.509 119.359 929.572 119.084H931.019C930.966 119.577 930.805 120.018 930.537 120.406C930.268 120.794 929.909 121.099 929.458 121.321C929.01 121.543 928.485 121.654 927.882 121.654ZM935.825 121.654C935.109 121.654 934.485 121.49 933.951 121.162C933.417 120.834 933.003 120.375 932.708 119.785C932.413 119.195 932.266 118.505 932.266 117.716C932.266 116.924 932.413 116.232 932.708 115.638C933.003 115.045 933.417 114.584 933.951 114.256C934.485 113.928 935.109 113.764 935.825 113.764C936.541 113.764 937.166 113.928 937.7 114.256C938.233 114.584 938.647 115.045 938.942 115.638C939.237 116.232 939.385 116.924 939.385 117.716C939.385 118.505 939.237 119.195 938.942 119.785C938.647 120.375 938.233 120.834 937.7 121.162C937.166 121.49 936.541 121.654 935.825 121.654ZM935.83 120.406C936.294 120.406 936.679 120.283 936.984 120.038C937.289 119.793 937.514 119.466 937.66 119.059C937.809 118.651 937.884 118.202 937.884 117.711C937.884 117.224 937.809 116.777 937.66 116.369C937.514 115.958 937.289 115.628 936.984 115.38C936.679 115.131 936.294 115.007 935.83 115.007C935.363 115.007 934.975 115.131 934.667 115.38C934.362 115.628 934.135 115.958 933.986 116.369C933.84 116.777 933.767 117.224 933.767 117.711C933.767 118.202 933.84 118.651 933.986 119.059C934.135 119.466 934.362 119.793 934.667 120.038C934.975 120.283 935.363 120.406 935.83 120.406ZM942.531 116.966V121.5H941.044V113.863H942.471V115.106H942.566C942.741 114.702 943.016 114.377 943.391 114.132C943.769 113.887 944.244 113.764 944.818 113.764C945.338 113.764 945.794 113.873 946.185 114.092C946.576 114.308 946.879 114.629 947.095 115.057C947.31 115.484 947.418 116.013 947.418 116.643V121.5H945.931V116.821C945.931 116.268 945.787 115.835 945.499 115.524C945.21 115.209 944.814 115.052 944.311 115.052C943.966 115.052 943.659 115.126 943.391 115.275C943.126 115.424 942.915 115.643 942.759 115.932C942.607 116.217 942.531 116.561 942.531 116.966ZM955.134 115.728L953.786 115.966C953.73 115.794 953.641 115.63 953.518 115.474C953.399 115.318 953.236 115.191 953.031 115.091C952.825 114.992 952.568 114.942 952.26 114.942C951.839 114.942 951.488 115.037 951.206 115.226C950.924 115.411 950.784 115.652 950.784 115.946C950.784 116.202 950.878 116.407 951.067 116.563C951.256 116.719 951.561 116.846 951.982 116.946L953.195 117.224C953.897 117.387 954.421 117.637 954.766 117.975C955.11 118.313 955.283 118.752 955.283 119.292C955.283 119.75 955.15 120.157 954.885 120.515C954.623 120.87 954.257 121.148 953.786 121.351C953.319 121.553 952.777 121.654 952.161 121.654C951.306 121.654 950.608 121.472 950.068 121.107C949.527 120.739 949.196 120.217 949.073 119.541L950.51 119.322C950.6 119.697 950.784 119.98 951.062 120.172C951.34 120.361 951.703 120.456 952.151 120.456C952.638 120.456 953.027 120.355 953.319 120.152C953.611 119.947 953.757 119.697 953.757 119.402C953.757 119.163 953.667 118.963 953.488 118.8C953.312 118.638 953.042 118.515 952.678 118.432L951.385 118.149C950.673 117.986 950.146 117.728 949.804 117.373C949.466 117.019 949.297 116.57 949.297 116.026C949.297 115.575 949.423 115.181 949.675 114.843C949.927 114.505 950.275 114.241 950.719 114.052C951.163 113.86 951.672 113.764 952.245 113.764C953.07 113.764 953.72 113.943 954.194 114.301C954.668 114.656 954.981 115.131 955.134 115.728Z" fill="#1E3050"/>
<path d="M1108.38 111.318V121.5H1106.84V112.859H1106.78L1104.34 114.45V112.978L1106.88 111.318H1108.38ZM1114.57 121.639C1113.86 121.639 1113.23 121.516 1112.68 121.271C1112.14 121.026 1111.72 120.688 1111.41 120.257C1111.1 119.826 1110.95 119.335 1110.95 118.785C1110.95 118.354 1111.03 117.958 1111.21 117.597C1111.4 117.232 1111.64 116.929 1111.95 116.687C1112.27 116.442 1112.61 116.286 1113 116.22V116.16C1112.49 116.038 1112.08 115.766 1111.78 115.345C1111.48 114.924 1111.32 114.44 1111.33 113.893C1111.32 113.373 1111.46 112.909 1111.74 112.501C1112.02 112.09 1112.41 111.767 1112.9 111.532C1113.39 111.296 1113.95 111.179 1114.57 111.179C1115.19 111.179 1115.75 111.298 1116.23 111.537C1116.73 111.772 1117.11 112.095 1117.39 112.506C1117.67 112.914 1117.82 113.376 1117.82 113.893C1117.82 114.44 1117.66 114.924 1117.35 115.345C1117.04 115.766 1116.64 116.038 1116.15 116.16V116.22C1116.53 116.286 1116.87 116.442 1117.18 116.687C1117.49 116.929 1117.73 117.232 1117.91 117.597C1118.1 117.958 1118.2 118.354 1118.2 118.785C1118.2 119.335 1118.04 119.826 1117.73 120.257C1117.42 120.688 1117 121.026 1116.45 121.271C1115.9 121.516 1115.28 121.639 1114.57 121.639ZM1114.57 120.381C1114.99 120.381 1115.36 120.312 1115.67 120.172C1115.98 120.03 1116.21 119.833 1116.38 119.581C1116.55 119.326 1116.64 119.027 1116.64 118.686C1116.64 118.331 1116.55 118.018 1116.36 117.746C1116.18 117.474 1115.94 117.261 1115.63 117.105C1115.32 116.949 1114.97 116.871 1114.57 116.871C1114.17 116.871 1113.82 116.949 1113.51 117.105C1113.19 117.261 1112.95 117.474 1112.77 117.746C1112.59 118.018 1112.5 118.331 1112.51 118.686C1112.5 119.027 1112.58 119.326 1112.75 119.581C1112.92 119.833 1113.16 120.03 1113.47 120.172C1113.78 120.312 1114.15 120.381 1114.57 120.381ZM1114.57 115.643C1114.91 115.643 1115.21 115.575 1115.47 115.439C1115.74 115.303 1115.94 115.115 1116.09 114.873C1116.24 114.631 1116.32 114.347 1116.32 114.022C1116.32 113.704 1116.24 113.426 1116.1 113.187C1115.95 112.949 1115.75 112.765 1115.48 112.635C1115.22 112.503 1114.92 112.437 1114.57 112.437C1114.22 112.437 1113.91 112.503 1113.65 112.635C1113.39 112.765 1113.18 112.949 1113.04 113.187C1112.89 113.426 1112.82 113.704 1112.82 114.022C1112.82 114.347 1112.89 114.631 1113.04 114.873C1113.19 115.115 1113.4 115.303 1113.66 115.439C1113.92 115.575 1114.23 115.643 1114.57 115.643Z" fill="#1E3050"/>
<path d="M852 157C852 157 850.332 164.385 854.326 167C857.376 168.996 860.609 168.995 863.66 167C867.657 164.387 866 157 866 157" fill="#55FFD6"/>
<path d="M852 157C852 157 850.332 164.385 854.326 167C857.376 168.996 860.609 168.995 863.66 167C867.657 164.387 866 157 866 157H852Z" stroke="#1E3050" stroke-width="1.8" stroke-linecap="square" stroke-linejoin="round"/>
<path d="M850 157H868" stroke="#1E3050" stroke-width="1.8" stroke-linecap="square" stroke-linejoin="round"/>
<path d="M854.1 156C854.563 153.718 856.581 152 859 152C861.419 152 863.437 153.718 863.9 156" stroke="#1E3050" stroke-width="1.8" stroke-linecap="round" stroke-linejoin="round"/>
<path d="M880.119 165.5V155.318H886.433V156.64H881.655V159.743H885.98V161.06H881.655V165.5H880.119ZM890.858 165.654C890.143 165.654 889.518 165.49 888.984 165.162C888.451 164.834 888.036 164.375 887.741 163.785C887.446 163.195 887.299 162.505 887.299 161.716C887.299 160.924 887.446 160.232 887.741 159.638C888.036 159.045 888.451 158.584 888.984 158.256C889.518 157.928 890.143 157.764 890.858 157.764C891.574 157.764 892.199 157.928 892.733 158.256C893.266 158.584 893.681 159.045 893.976 159.638C894.271 160.232 894.418 160.924 894.418 161.716C894.418 162.505 894.271 163.195 893.976 163.785C893.681 164.375 893.266 164.834 892.733 165.162C892.199 165.49 891.574 165.654 890.858 165.654ZM890.863 164.406C891.327 164.406 891.712 164.283 892.017 164.038C892.322 163.793 892.547 163.466 892.693 163.059C892.842 162.651 892.917 162.202 892.917 161.711C892.917 161.224 892.842 160.777 892.693 160.369C892.547 159.958 892.322 159.628 892.017 159.38C891.712 159.131 891.327 159.007 890.863 159.007C890.396 159.007 890.008 159.131 889.7 159.38C889.395 159.628 889.168 159.958 889.019 160.369C888.873 160.777 888.8 161.224 888.8 161.711C888.8 162.202 888.873 162.651 889.019 163.059C889.168 163.466 889.395 163.793 889.7 164.038C890.008 164.283 890.396 164.406 890.863 164.406ZM896.077 165.5V157.863H897.514V159.076H897.594C897.733 158.665 897.978 158.342 898.33 158.107C898.684 157.868 899.085 157.749 899.533 157.749C899.625 157.749 899.735 157.752 899.861 157.759C899.99 157.766 900.091 157.774 900.164 157.784V159.206C900.104 159.189 899.998 159.171 899.846 159.151C899.693 159.128 899.541 159.116 899.388 159.116C899.037 159.116 898.724 159.191 898.449 159.34C898.177 159.486 897.962 159.69 897.803 159.951C897.643 160.21 897.564 160.505 897.564 160.836V165.5H896.077ZM901.45 165.5V157.863H902.877V159.106H902.972C903.131 158.685 903.391 158.357 903.752 158.122C904.114 157.883 904.546 157.764 905.05 157.764C905.56 157.764 905.988 157.883 906.333 158.122C906.681 158.361 906.937 158.689 907.103 159.106H907.183C907.365 158.699 907.655 158.374 908.053 158.132C908.45 157.887 908.924 157.764 909.475 157.764C910.167 157.764 910.732 157.981 911.17 158.415C911.611 158.849 911.831 159.504 911.831 160.379V165.5H910.345V160.518C910.345 160.001 910.204 159.627 909.922 159.395C909.64 159.163 909.304 159.047 908.913 159.047C908.429 159.047 908.053 159.196 907.784 159.494C907.516 159.789 907.382 160.169 907.382 160.633V165.5H905.9V160.424C905.9 160.009 905.771 159.676 905.512 159.424C905.254 159.173 904.917 159.047 904.503 159.047C904.221 159.047 903.961 159.121 903.722 159.27C903.487 159.416 903.297 159.62 903.151 159.882C903.008 160.144 902.937 160.447 902.937 160.792V165.5H901.45ZM917.529 165.5V157.863H919.015V165.5H917.529ZM918.279 156.685C918.021 156.685 917.799 156.599 917.613 156.427C917.431 156.251 917.34 156.042 917.34 155.8C917.34 155.555 917.431 155.346 917.613 155.174C917.799 154.998 918.021 154.91 918.279 154.91C918.538 154.91 918.758 154.998 918.941 155.174C919.126 155.346 919.219 155.555 919.219 155.8C919.219 156.042 919.126 156.251 918.941 156.427C918.758 156.599 918.538 156.685 918.279 156.685ZM924.232 165.654C923.492 165.654 922.856 165.486 922.322 165.152C921.792 164.814 921.384 164.348 921.099 163.755C920.814 163.161 920.672 162.482 920.672 161.716C920.672 160.941 920.818 160.256 921.109 159.663C921.401 159.067 921.812 158.601 922.342 158.266C922.873 157.931 923.497 157.764 924.217 157.764C924.797 157.764 925.314 157.872 925.768 158.087C926.222 158.299 926.588 158.598 926.866 158.982C927.148 159.366 927.316 159.816 927.369 160.329H925.922C925.842 159.971 925.66 159.663 925.375 159.405C925.093 159.146 924.715 159.017 924.241 159.017C923.827 159.017 923.464 159.126 923.153 159.345C922.844 159.56 922.604 159.869 922.432 160.27C922.259 160.667 922.173 161.138 922.173 161.682C922.173 162.238 922.258 162.719 922.427 163.123C922.596 163.528 922.835 163.841 923.143 164.063C923.454 164.285 923.821 164.396 924.241 164.396C924.523 164.396 924.778 164.345 925.007 164.242C925.239 164.136 925.433 163.985 925.589 163.79C925.748 163.594 925.859 163.359 925.922 163.084H927.369C927.316 163.577 927.155 164.018 926.886 164.406C926.618 164.794 926.258 165.099 925.808 165.321C925.36 165.543 924.835 165.654 924.232 165.654ZM932.175 165.654C931.459 165.654 930.834 165.49 930.301 165.162C929.767 164.834 929.353 164.375 929.058 163.785C928.763 163.195 928.615 162.505 928.615 161.716C928.615 160.924 928.763 160.232 929.058 159.638C929.353 159.045 929.767 158.584 930.301 158.256C930.834 157.928 931.459 157.764 932.175 157.764C932.891 157.764 933.516 157.928 934.049 158.256C934.583 158.584 934.997 159.045 935.292 159.638C935.587 160.232 935.735 160.924 935.735 161.716C935.735 162.505 935.587 163.195 935.292 163.785C934.997 164.375 934.583 164.834 934.049 165.162C933.516 165.49 932.891 165.654 932.175 165.654ZM932.18 164.406C932.644 164.406 933.028 164.283 933.333 164.038C933.638 163.793 933.864 163.466 934.009 163.059C934.159 162.651 934.233 162.202 934.233 161.711C934.233 161.224 934.159 160.777 934.009 160.369C933.864 159.958 933.638 159.628 933.333 159.38C933.028 159.131 932.644 159.007 932.18 159.007C931.713 159.007 931.325 159.131 931.017 159.38C930.712 159.628 930.485 159.958 930.335 160.369C930.19 160.777 930.117 161.224 930.117 161.711C930.117 162.202 930.19 162.651 930.335 163.059C930.485 163.466 930.712 163.793 931.017 164.038C931.325 164.283 931.713 164.406 932.18 164.406ZM938.88 160.966V165.5H937.394V157.863H938.821V159.106H938.915C939.091 158.702 939.366 158.377 939.74 158.132C940.118 157.887 940.594 157.764 941.167 157.764C941.688 157.764 942.143 157.873 942.534 158.092C942.926 158.308 943.229 158.629 943.444 159.057C943.66 159.484 943.767 160.013 943.767 160.643V165.5H942.281V160.821C942.281 160.268 942.137 159.835 941.848 159.524C941.56 159.209 941.164 159.052 940.66 159.052C940.315 159.052 940.009 159.126 939.74 159.275C939.475 159.424 939.265 159.643 939.109 159.932C938.957 160.217 938.88 160.561 938.88 160.966ZM951.483 159.728L950.136 159.966C950.08 159.794 949.99 159.63 949.868 159.474C949.748 159.318 949.586 159.191 949.38 159.091C949.175 158.992 948.918 158.942 948.61 158.942C948.189 158.942 947.837 159.037 947.556 159.226C947.274 159.411 947.133 159.652 947.133 159.946C947.133 160.202 947.228 160.407 947.417 160.563C947.605 160.719 947.91 160.846 948.331 160.946L949.544 161.224C950.247 161.387 950.771 161.637 951.115 161.975C951.46 162.313 951.632 162.752 951.632 163.292C951.632 163.75 951.5 164.157 951.235 164.515C950.973 164.87 950.607 165.148 950.136 165.351C949.669 165.553 949.127 165.654 948.51 165.654C947.655 165.654 946.958 165.472 946.417 165.107C945.877 164.739 945.546 164.217 945.423 163.541L946.86 163.322C946.949 163.697 947.133 163.98 947.412 164.172C947.69 164.361 948.053 164.456 948.5 164.456C948.988 164.456 949.377 164.355 949.669 164.152C949.96 163.947 950.106 163.697 950.106 163.402C950.106 163.163 950.017 162.963 949.838 162.8C949.662 162.638 949.392 162.515 949.027 162.432L947.735 162.149C947.022 161.986 946.495 161.728 946.154 161.373C945.816 161.019 945.647 160.57 945.647 160.026C945.647 159.575 945.773 159.181 946.025 158.843C946.276 158.505 946.624 158.241 947.069 158.052C947.513 157.86 948.021 157.764 948.595 157.764C949.42 157.764 950.07 157.943 950.544 158.301C951.018 158.656 951.331 159.131 951.483 159.728ZM960.815 155.318V165.5H959.274V156.859H959.214L956.778 158.45V156.978L959.319 155.318H960.815ZM967.124 165.639C966.67 165.632 966.222 165.549 965.782 165.39C965.344 165.231 964.946 164.966 964.588 164.595C964.23 164.224 963.944 163.725 963.728 163.098C963.516 162.472 963.41 161.69 963.41 160.752C963.41 159.864 963.498 159.075 963.674 158.385C963.853 157.696 964.109 157.114 964.444 156.64C964.779 156.163 965.183 155.8 965.657 155.552C966.131 155.303 966.663 155.179 967.253 155.179C967.86 155.179 968.398 155.298 968.869 155.537C969.34 155.775 969.721 156.105 970.012 156.526C970.307 156.947 970.495 157.426 970.574 157.963H969.058C968.955 157.539 968.751 157.192 968.446 156.924C968.141 156.655 967.744 156.521 967.253 156.521C966.507 156.521 965.926 156.846 965.508 157.495C965.094 158.145 964.885 159.048 964.882 160.205H964.956C965.132 159.917 965.347 159.671 965.603 159.469C965.861 159.264 966.15 159.106 966.468 158.997C966.789 158.884 967.127 158.828 967.482 158.828C968.072 158.828 968.605 158.972 969.083 159.26C969.563 159.545 969.946 159.94 970.231 160.444C970.516 160.947 970.659 161.524 970.659 162.174C970.659 162.823 970.511 163.412 970.216 163.939C969.925 164.466 969.514 164.883 968.983 165.192C968.453 165.496 967.833 165.646 967.124 165.639ZM967.119 164.346C967.51 164.346 967.86 164.25 968.168 164.058C968.476 163.866 968.72 163.607 968.899 163.282C969.078 162.958 969.167 162.595 969.167 162.194C969.167 161.803 969.079 161.446 968.904 161.125C968.731 160.803 968.493 160.548 968.188 160.359C967.886 160.17 967.542 160.076 967.154 160.076C966.859 160.076 966.585 160.132 966.333 160.245C966.085 160.357 965.866 160.513 965.677 160.712C965.488 160.911 965.339 161.14 965.23 161.398C965.124 161.653 965.071 161.924 965.071 162.209C965.071 162.59 965.158 162.943 965.334 163.268C965.513 163.592 965.757 163.854 966.065 164.053C966.377 164.249 966.728 164.346 967.119 164.346ZM972.49 168.363V157.863H973.941V159.101H974.066C974.152 158.942 974.276 158.758 974.438 158.549C974.601 158.341 974.826 158.158 975.115 158.003C975.403 157.844 975.784 157.764 976.258 157.764C976.874 157.764 977.425 157.92 977.909 158.231C978.392 158.543 978.772 158.992 979.047 159.579C979.325 160.165 979.465 160.871 979.465 161.696C979.465 162.522 979.327 163.229 979.052 163.819C978.777 164.406 978.399 164.858 977.919 165.177C977.438 165.491 976.889 165.649 976.273 165.649C975.809 165.649 975.429 165.571 975.134 165.415C974.843 165.259 974.614 165.077 974.448 164.868C974.283 164.66 974.155 164.474 974.066 164.312H973.976V168.363H972.49ZM973.946 161.682C973.946 162.219 974.024 162.689 974.18 163.094C974.336 163.498 974.561 163.814 974.856 164.043C975.151 164.268 975.512 164.381 975.94 164.381C976.384 164.381 976.755 164.263 977.053 164.028C977.352 163.79 977.577 163.466 977.73 163.059C977.885 162.651 977.963 162.192 977.963 161.682C977.963 161.178 977.887 160.725 977.735 160.324C977.585 159.923 977.36 159.607 977.058 159.375C976.76 159.143 976.387 159.027 975.94 159.027C975.509 159.027 975.144 159.138 974.846 159.36C974.551 159.582 974.327 159.892 974.175 160.29C974.022 160.687 973.946 161.151 973.946 161.682ZM982.003 157.863L983.688 160.836L985.388 157.863H987.014L984.633 161.682L987.034 165.5H985.408L983.688 162.646L981.973 165.5H980.342L982.719 161.682L980.372 157.863H982.003Z" fill="#1E3050"/>
<path d="M1108.64 155.318V165.5H1107.1V156.859H1107.04L1104.6 158.45V156.978L1107.14 155.318H1108.64ZM1111.39 165.5V164.386L1114.84 160.817C1115.21 160.429 1115.51 160.089 1115.75 159.797C1115.99 159.502 1116.17 159.222 1116.29 158.957C1116.41 158.692 1116.47 158.41 1116.47 158.112C1116.47 157.774 1116.39 157.482 1116.23 157.237C1116.07 156.988 1115.85 156.798 1115.58 156.665C1115.3 156.529 1114.99 156.461 1114.65 156.461C1114.29 156.461 1113.97 156.536 1113.7 156.685C1113.42 156.834 1113.21 157.045 1113.07 157.317C1112.92 157.588 1112.85 157.906 1112.85 158.271H1111.38C1111.38 157.651 1111.53 157.109 1111.81 156.645C1112.1 156.181 1112.49 155.822 1112.98 155.567C1113.48 155.308 1114.05 155.179 1114.68 155.179C1115.32 155.179 1115.88 155.306 1116.37 155.562C1116.86 155.813 1117.24 156.158 1117.52 156.596C1117.79 157.03 1117.93 157.52 1117.93 158.067C1117.93 158.445 1117.86 158.815 1117.72 159.176C1117.58 159.537 1117.33 159.94 1116.99 160.384C1116.64 160.825 1116.15 161.36 1115.53 161.99L1113.51 164.108V164.182H1118.1V165.5H1111.39Z" fill="#1E3050"/>
<path d="M852 199C852 199 850.332 206.385 854.326 209C857.376 210.996 860.609 210.995 863.66 209C867.657 206.387 866 199 866 199" fill="#A0FF55"/>
<path d="M852 199C852 199 850.332 206.385 854.326 209C857.376 210.996 860.609 210.995 863.66 209C867.657 206.387 866 199 866 199H852Z" stroke="#1E3050" stroke-width="1.8" stroke-linecap="square" stroke-linejoin="round"/>
<path d="M850 199H868" stroke="#1E3050" stroke-width="1.8" stroke-linecap="square" stroke-linejoin="round"/>
<path d="M854.1 198C854.563 195.718 856.581 194 859 194C861.419 194 863.437 195.718 863.9 198" stroke="#1E3050" stroke-width="1.8" stroke-linecap="round" stroke-linejoin="round"/>
<path d="M885.672 199.993C885.619 199.522 885.4 199.157 885.016 198.899C884.631 198.637 884.147 198.506 883.564 198.506C883.146 198.506 882.785 198.572 882.48 198.705C882.175 198.834 881.938 199.013 881.769 199.242C881.603 199.467 881.521 199.724 881.521 200.013C881.521 200.254 881.577 200.463 881.69 200.639C881.806 200.815 881.956 200.962 882.142 201.081C882.331 201.197 882.533 201.295 882.749 201.375C882.964 201.451 883.171 201.514 883.37 201.564L884.364 201.822C884.689 201.902 885.022 202.009 885.364 202.145C885.705 202.281 886.022 202.46 886.313 202.682C886.605 202.904 886.84 203.179 887.019 203.508C887.201 203.836 887.293 204.228 887.293 204.686C887.293 205.263 887.143 205.775 886.845 206.222C886.55 206.67 886.121 207.022 885.558 207.281C884.997 207.54 884.32 207.669 883.524 207.669C882.762 207.669 882.102 207.548 881.545 207.306C880.989 207.064 880.553 206.721 880.238 206.277C879.923 205.829 879.749 205.299 879.716 204.686H881.257C881.287 205.054 881.406 205.36 881.615 205.606C881.827 205.848 882.097 206.028 882.425 206.147C882.757 206.263 883.12 206.321 883.514 206.321C883.948 206.321 884.335 206.254 884.673 206.118C885.014 205.978 885.282 205.786 885.478 205.541C885.674 205.292 885.771 205.002 885.771 204.671C885.771 204.369 885.685 204.122 885.513 203.93C885.344 203.738 885.113 203.579 884.822 203.453C884.533 203.327 884.207 203.216 883.842 203.12L882.639 202.792C881.824 202.57 881.178 202.243 880.7 201.812C880.226 201.381 879.989 200.811 879.989 200.102C879.989 199.515 880.148 199.003 880.467 198.566C880.785 198.128 881.216 197.789 881.759 197.547C882.303 197.301 882.916 197.179 883.599 197.179C884.288 197.179 884.896 197.3 885.423 197.542C885.954 197.784 886.371 198.117 886.676 198.541C886.981 198.962 887.14 199.446 887.153 199.993H885.672ZM892.226 207.654C891.51 207.654 890.885 207.49 890.351 207.162C889.818 206.834 889.403 206.375 889.108 205.785C888.814 205.195 888.666 204.505 888.666 203.716C888.666 202.924 888.814 202.232 889.108 201.638C889.403 201.045 889.818 200.584 890.351 200.256C890.885 199.928 891.51 199.764 892.226 199.764C892.942 199.764 893.566 199.928 894.1 200.256C894.634 200.584 895.048 201.045 895.343 201.638C895.638 202.232 895.785 202.924 895.785 203.716C895.785 204.505 895.638 205.195 895.343 205.785C895.048 206.375 894.634 206.834 894.1 207.162C893.566 207.49 892.942 207.654 892.226 207.654ZM892.231 206.406C892.695 206.406 893.079 206.283 893.384 206.038C893.689 205.793 893.914 205.466 894.06 205.059C894.209 204.651 894.284 204.202 894.284 203.711C894.284 203.224 894.209 202.777 894.06 202.369C893.914 201.958 893.689 201.628 893.384 201.38C893.079 201.131 892.695 201.007 892.231 201.007C891.763 201.007 891.376 201.131 891.067 201.38C890.762 201.628 890.535 201.958 890.386 202.369C890.24 202.777 890.167 203.224 890.167 203.711C890.167 204.202 890.24 204.651 890.386 205.059C890.535 205.466 890.762 205.793 891.067 206.038C891.376 206.283 891.763 206.406 892.231 206.406ZM900.661 207.654C899.922 207.654 899.286 207.486 898.752 207.152C898.222 206.814 897.814 206.348 897.529 205.755C897.244 205.161 897.102 204.482 897.102 203.716C897.102 202.941 897.247 202.256 897.539 201.663C897.831 201.067 898.242 200.601 898.772 200.266C899.302 199.931 899.927 199.764 900.646 199.764C901.226 199.764 901.743 199.872 902.197 200.087C902.652 200.299 903.018 200.598 903.296 200.982C903.578 201.366 903.745 201.816 903.798 202.329H902.352C902.272 201.971 902.09 201.663 901.805 201.405C901.523 201.146 901.145 201.017 900.671 201.017C900.257 201.017 899.894 201.126 899.582 201.345C899.274 201.56 899.034 201.869 898.862 202.27C898.689 202.667 898.603 203.138 898.603 203.682C898.603 204.238 898.688 204.719 898.857 205.123C899.026 205.528 899.264 205.841 899.572 206.063C899.884 206.285 900.25 206.396 900.671 206.396C900.953 206.396 901.208 206.345 901.437 206.242C901.669 206.136 901.863 205.985 902.018 205.79C902.178 205.594 902.289 205.359 902.352 205.084H903.798C903.745 205.577 903.585 206.018 903.316 206.406C903.048 206.794 902.688 207.099 902.237 207.321C901.79 207.543 901.264 207.654 900.661 207.654ZM905.388 207.5V199.863H906.874V207.5H905.388ZM906.139 198.685C905.88 198.685 905.658 198.599 905.472 198.427C905.29 198.251 905.199 198.042 905.199 197.8C905.199 197.555 905.29 197.346 905.472 197.174C905.658 196.998 905.88 196.91 906.139 196.91C906.397 196.91 906.618 196.998 906.8 197.174C906.985 197.346 907.078 197.555 907.078 197.8C907.078 198.042 906.985 198.251 906.8 198.427C906.618 198.599 906.397 198.685 906.139 198.685ZM911.097 207.669C910.613 207.669 910.175 207.579 909.784 207.4C909.393 207.218 909.083 206.955 908.854 206.61C908.629 206.265 908.516 205.843 908.516 205.342C908.516 204.911 908.599 204.557 908.765 204.278C908.931 204 909.154 203.779 909.436 203.617C909.718 203.455 910.033 203.332 910.381 203.249C910.729 203.166 911.083 203.103 911.445 203.06C911.902 203.007 912.273 202.964 912.558 202.931C912.843 202.894 913.05 202.836 913.18 202.757C913.309 202.677 913.374 202.548 913.374 202.369V202.334C913.374 201.9 913.251 201.564 913.006 201.325C912.764 201.086 912.402 200.967 911.922 200.967C911.421 200.967 911.027 201.078 910.739 201.3C910.454 201.519 910.256 201.763 910.147 202.031L908.75 201.713C908.916 201.249 909.158 200.874 909.476 200.589C909.797 200.301 910.167 200.092 910.585 199.963C911.002 199.83 911.441 199.764 911.902 199.764C912.207 199.764 912.53 199.8 912.871 199.873C913.216 199.943 913.538 200.072 913.836 200.261C914.138 200.45 914.384 200.72 914.577 201.071C914.769 201.42 914.865 201.872 914.865 202.429V207.5H913.413V206.456H913.354C913.258 206.648 913.113 206.837 912.921 207.022C912.729 207.208 912.482 207.362 912.18 207.485C911.879 207.607 911.518 207.669 911.097 207.669ZM911.42 206.476C911.831 206.476 912.182 206.394 912.474 206.232C912.769 206.07 912.992 205.857 913.145 205.596C913.301 205.33 913.379 205.047 913.379 204.745V203.761C913.326 203.814 913.223 203.864 913.07 203.91C912.921 203.953 912.75 203.991 912.558 204.025C912.366 204.054 912.179 204.083 911.996 204.109C911.814 204.132 911.662 204.152 911.539 204.169C911.251 204.205 910.987 204.267 910.749 204.353C910.513 204.439 910.324 204.563 910.182 204.726C910.043 204.885 909.973 205.097 909.973 205.362C909.973 205.73 910.109 206.008 910.381 206.197C910.652 206.383 910.999 206.476 911.42 206.476ZM918.331 197.318V207.5H916.845V197.318H918.331Z" fill="#1E3050"/>
<path d="M1112.22 207.5L1116.66 198.71V198.635H1111.52V197.318H1118.25V198.68L1113.82 207.5H1112.22Z" fill="#1E3050"/>
<rect width="80" height="80" transform="translate(849 232)" fill="white"/>
<path d="M857 232H849V240L857 232Z" fill="#36DC5E"/>
<path d="M889 272C889 270.408 889.632 268.882 890.757 267.757C891.883 266.632 893.409 266 895 266C896.591 266 898.117 266.632 899.243 267.757C900.368 268.882 901 270.408 901 272C901 273.591 900.368 275.117 899.243 276.242C898.117 277.368 896.591 278 895 278C893.409 278 891.883 277.368 890.757 276.242C889.632 275.117 889 273.591 889 272V272Z" fill="#1ABCFE"/>
<path d="M877 284C877 282.408 877.632 280.882 878.757 279.757C879.883 278.632 881.409 278 883 278H889V284C889 285.591 888.368 287.117 887.243 288.242C886.117 289.368 884.591 290 883 290C881.409 290 879.883 289.368 878.757 288.242C877.632 287.117 877 285.591 877 284V284Z" fill="#0ACF83"/>
<path d="M889 254V266H895C896.591 266 898.117 265.368 899.243 264.242C900.368 263.117 901 261.591 901 260C901 258.408 900.368 256.882 899.243 255.757C898.117 254.632 896.591 254 895 254H889Z" fill="#FF7262"/>
<path d="M877 260C877 261.591 877.632 263.117 878.757 264.242C879.883 265.368 881.409 266 883 266H889V254H883C881.409 254 879.883 254.632 878.757 255.757C877.632 256.882 877 258.408 877 260V260Z" fill="#F24E1E"/>
<path d="M877 272C877 273.591 877.632 275.117 878.757 276.242C879.883 277.368 881.409 278 883 278H889V266H883C881.409 266 879.883 266.632 878.757 267.757C877.632 268.882 877 270.408 877 272V272Z" fill="#A259FF"/>
<rect width="80" height="80" transform="translate(944 232)" fill="white"/>
<path d="M1001.28 263.286C1000.81 261.755 999.626 260.459 998.087 260.106C995.245 259.4 983.997 259.4 983.997 259.4C983.997 259.4 972.749 259.4 969.907 260.106C968.368 260.577 967.184 261.755 966.71 263.286C966 266.112 966 272 966 272C966 272 966 277.888 966.71 280.714C967.184 282.245 968.368 283.54 969.907 283.893C972.749 284.6 983.997 284.6 983.997 284.6C983.997 284.6 995.245 284.6 998.087 283.893C999.626 283.422 1000.81 282.245 1001.28 280.714C1001.99 277.888 1001.99 272 1001.99 272C1001.99 272 1002.11 266.112 1001.28 263.286Z" fill="#FF0000"/>
<path d="M980.4 277.4V266.6L989.4 272L980.4 277.4Z" fill="white"/>
<rect width="80" height="80" transform="translate(1039 232)" fill="white"/>
<g clip-path="url(#clip0_13063_2329)">
<path d="M1061.01 262.654C1061.01 257.882 1064.88 254.015 1069.65 254.015H1088.34C1093.12 254.015 1096.99 257.882 1096.99 262.654V290H1069.65C1064.88 290 1061.01 286.132 1061.01 281.36V262.654Z" fill="#74AA9C"/>
<path d="M1077.57 258.475C1074.61 258.475 1071.97 260.38 1071.06 263.193C1069.15 263.585 1067.51 264.776 1066.54 266.464C1065.06 269.028 1065.4 272.253 1067.39 274.451C1066.77 276.293 1066.98 278.307 1067.97 279.975C1069.44 282.548 1072.41 283.868 1075.32 283.255C1076.61 284.706 1078.46 285.534 1080.4 285.526C1083.36 285.526 1086 283.621 1086.92 280.808C1088.82 280.415 1090.46 279.224 1091.42 277.539C1092.91 274.974 1092.57 271.75 1090.58 269.55V269.542C1091.2 267.7 1090.99 265.684 1090.01 264.008C1088.53 261.444 1085.56 260.124 1082.66 260.738C1081.36 259.289 1079.51 258.466 1077.57 258.475ZM1077.57 260.233L1077.56 260.242C1078.75 260.242 1079.9 260.654 1080.81 261.415C1080.78 261.433 1080.7 261.48 1080.65 261.507L1075.26 264.613C1074.98 264.768 1074.82 265.062 1074.82 265.382V272.673L1072.5 271.336V265.309C1072.49 262.509 1074.76 260.238 1077.57 260.233ZM1084.06 262.356C1085.88 262.353 1087.57 263.322 1088.47 264.897C1089.06 265.924 1089.28 267.124 1089.08 268.286C1089.04 268.259 1088.97 268.222 1088.92 268.195L1083.53 265.08C1083.26 264.924 1082.92 264.924 1082.64 265.08L1076.32 268.726V266.051L1081.54 263.037C1082.31 262.593 1083.18 262.358 1084.06 262.356ZM1070.73 265.125V271.527C1070.73 271.847 1070.89 272.132 1071.17 272.296L1077.48 275.932L1075.15 277.279L1069.94 274.274C1067.51 272.871 1066.68 269.772 1068.08 267.349C1068.68 266.323 1069.61 265.536 1070.73 265.125ZM1082.81 266.711L1088.03 269.715C1090.46 271.117 1091.29 274.213 1089.89 276.64L1089.89 276.649C1089.3 277.675 1088.36 278.462 1087.25 278.866V272.462C1087.25 272.142 1087.09 271.849 1086.81 271.693L1080.49 268.047L1082.81 266.711ZM1078.98 268.918L1081.64 270.456V273.525L1078.98 275.063L1076.32 273.525V270.456L1078.98 268.918ZM1083.16 271.336L1085.48 272.673V278.691C1085.48 281.494 1083.21 283.766 1080.41 283.766V283.757C1079.23 283.757 1078.07 283.344 1077.16 282.584C1077.2 282.566 1077.28 282.52 1077.33 282.493L1082.72 279.388C1083 279.233 1083.17 278.94 1083.16 278.619L1083.16 271.336ZM1081.65 275.275V277.95L1076.43 280.955C1074 282.348 1070.9 281.524 1069.5 279.104H1069.5C1068.91 278.087 1068.7 276.878 1068.9 275.715C1068.94 275.742 1069.01 275.779 1069.05 275.806L1074.45 278.922C1074.72 279.077 1075.06 279.077 1075.34 278.922L1081.65 275.275Z" fill="white"/>
</g>
<rect width="80" height="80" transform="translate(849 327)" fill="white"/>
<path d="M872.5 359.8C872.5 354.664 876.664 350.5 881.8 350.5H896.2C901.336 350.5 905.5 354.664 905.5 359.8V374.2C905.5 379.336 901.336 383.5 896.2 383.5H881.8C876.664 383.5 872.5 379.336 872.5 374.2V359.8Z" fill="white" stroke="url(#paint0_linear_13063_2329)" stroke-width="3"/>
<path d="M881.5 367C881.5 362.828 884.828 359.5 889 359.5C893.172 359.5 896.5 362.828 896.5 367C896.5 371.172 893.172 374.5 889 374.5C884.828 374.5 881.5 371.172 881.5 367Z" fill="white" stroke="url(#paint1_linear_13063_2329)" stroke-width="3"/>
<path d="M899.8 356.2C899.8 357.17 898.969 358 898 358C897.031 358 896.2 357.17 896.2 356.2C896.2 355.231 897.031 354.4 898 354.4C899.108 354.4 899.8 355.231 899.8 356.2Z" fill="#C13584"/>
<rect width="80" height="80" transform="translate(944 327)" fill="white"/>
<path d="M994.376 350.78H999.879L987.856 364.522L1002 383.22H990.925L982.252 371.88L972.327 383.22H966.82L979.68 368.522L966.111 350.78H977.467L985.308 361.146L994.376 350.78ZM992.444 379.926H995.494L975.81 353.901H972.538L992.444 379.926Z" fill="black"/>
<path d="M852 65.9998C852 65.9998 850.332 73.3853 854.326 75.9998C857.376 77.9964 860.609 77.9948 863.66 75.9998C867.657 73.3868 866 65.9998 866 65.9998" stroke="#1E3050" stroke-width="1.8" stroke-linecap="square" stroke-linejoin="round"/>
<path d="M850 65.9998H868" stroke="#1E3050" stroke-width="1.8" stroke-linecap="square" stroke-linejoin="round"/>
<path d="M854.1 64.9998C854.563 62.7175 856.581 60.9998 859 60.9998C861.419 60.9998 863.437 62.7175 863.9 64.9998" stroke="#1E3050" stroke-width="1.8" stroke-linecap="round" stroke-linejoin="round"/>
<path d="M890.046 72.9998H888.044V66.2658L885.412 72.9998H884.544L881.912 66.2658V72.9998H879.924V63.6618H882.71L884.978 69.4998L887.246 63.6618H890.046V72.9998ZM891.635 75.6318L891.887 74.0498C892.041 74.1198 892.279 74.1618 892.447 74.1618C892.909 74.1618 893.217 74.0358 893.385 73.6718L893.637 73.0838L890.893 66.2378H892.797L894.561 70.9418L896.339 66.2378H898.243L895.065 74.1058C894.561 75.3798 893.665 75.7158 892.503 75.7438C892.307 75.7438 891.845 75.7018 891.635 75.6318ZM907.742 72.9998H902.674V63.6618H907.588C909.366 63.6618 910.276 64.7958 910.276 66.0418C910.276 67.2038 909.548 68.0018 908.666 68.1838C909.674 68.3378 910.458 69.3038 910.458 70.4658C910.458 71.8798 909.534 72.9998 907.742 72.9998ZM907.154 67.3718C907.826 67.3718 908.246 66.9938 908.246 66.3918C908.246 65.8178 907.826 65.4118 907.154 65.4118H904.662V67.3718H907.154ZM907.238 71.2498C907.98 71.2498 908.428 70.8578 908.428 70.1858C908.428 69.5978 908.008 69.1218 907.238 69.1218H904.662V71.2498H907.238ZM918.257 72.9998H916.479V72.1458C916.017 72.6498 915.205 73.1678 914.099 73.1678C912.615 73.1678 911.915 72.3558 911.915 71.0398V66.2378H913.693V70.3398C913.693 71.2778 914.183 71.5858 914.939 71.5858C915.625 71.5858 916.171 71.2078 916.479 70.8158V66.2378H918.257V72.9998ZM923.173 73.1678C921.101 73.1678 919.589 71.6978 919.589 69.6118C919.589 67.5398 921.101 66.0698 923.173 66.0698C924.559 66.0698 925.399 66.6718 925.847 67.2878L924.685 68.3798C924.363 67.9038 923.873 67.6518 923.257 67.6518C922.179 67.6518 921.423 68.4358 921.423 69.6118C921.423 70.7878 922.179 71.5858 923.257 71.5858C923.873 71.5858 924.363 71.3058 924.685 70.8438L925.847 71.9358C925.399 72.5518 924.559 73.1678 923.173 73.1678ZM933.617 72.9998H931.391L929.599 70.3958L928.787 71.2638V72.9998H927.009V63.6618H928.787V69.2478L931.349 66.2378H933.533L930.859 69.3038L933.617 72.9998ZM937.597 73.1678C935.539 73.1678 933.985 71.7818 933.985 69.6118C933.985 67.6518 935.441 66.0698 937.485 66.0698C939.515 66.0698 940.873 67.5818 940.873 69.7798V70.1998H935.847C935.973 71.0258 936.645 71.7118 937.793 71.7118C938.367 71.7118 939.151 71.4738 939.585 71.0538L940.383 72.2298C939.711 72.8458 938.647 73.1678 937.597 73.1678ZM939.165 68.9678C939.109 68.3238 938.661 67.5258 937.485 67.5258C936.379 67.5258 935.903 68.2958 935.833 68.9678H939.165ZM944.425 73.1678C943.179 73.1678 942.521 72.5238 942.521 71.3058V67.7918H941.401V66.2378H942.521V64.3898H944.299V66.2378H945.671V67.7918H944.299V70.8298C944.299 71.2638 944.523 71.5858 944.915 71.5858C945.181 71.5858 945.433 71.4878 945.531 71.3758L945.909 72.7338C945.643 72.9718 945.167 73.1678 944.425 73.1678Z" fill="#1E3050"/>
<path d="M1116 68.9998L1109 68.9998M1102 68.9998L1109 68.9998M1109 68.9998L1109 61.9998M1109 68.9998L1109 75.9998" stroke="#1E3050" stroke-width="2" stroke-linecap="square" stroke-linejoin="round"/>
<g filter="url(#filter1_d_13063_2329)">
<rect width="228" height="228" transform="translate(39 145)" fill="white"/>
<path d="M246 174L237 174M228 174L237 174M237 174L237 165M237 174L237 183" stroke="#1E3050" stroke-width="2" stroke-linecap="square" stroke-linejoin="round"/>
<path d="M153 221C169.919 221 178.378 221 183.989 225.792C184.786 226.472 185.528 227.214 186.208 228.011C191 233.622 191 242.081 191 259C191 275.919 191 284.378 186.208 289.989C185.528 290.786 184.786 291.528 183.989 292.208C178.378 297 169.919 297 153 297C136.081 297 127.622 297 122.011 292.208C121.214 291.528 120.472 290.786 119.792 289.989C115 284.378 115 275.919 115 259C115 242.081 115 233.622 119.792 228.011C120.472 227.214 121.214 226.472 122.011 225.792C127.622 221 136.081 221 153 221Z" fill="#FF5574" stroke="#FF5574" stroke-width="5" stroke-linecap="round" stroke-linejoin="round"/>
<path opacity="0.9" d="M169 259C169 262.172 163.25 266.166 156.961 269.585C150.232 273.243 146.867 275.072 143.934 273.328C141 271.584 141 267.52 141 259.392L141 258.607C141 250.48 141 246.416 143.934 244.672C146.867 242.927 150.232 244.757 156.961 248.415C163.25 251.834 169 255.828 169 259Z" fill="white" stroke="white" stroke-width="5" stroke-linecap="round" stroke-linejoin="round"/>
<path d="M144.57 348.168C143.716 348.168 142.96 347.776 142.4 347.062V350.576H140.93V341.238H142.4V342.162C142.904 341.49 143.688 341.07 144.57 341.07C146.32 341.07 147.566 342.386 147.566 344.612C147.566 346.838 146.32 348.168 144.57 348.168ZM144.136 346.866C145.298 346.866 146.054 345.928 146.054 344.612C146.054 343.296 145.298 342.372 144.136 342.372C143.45 342.372 142.736 342.764 142.4 343.268V345.942C142.722 346.446 143.45 346.866 144.136 346.866ZM150.507 348H149.037V338.662H150.507V348ZM158.028 348H156.558V347.258C156.054 347.846 155.256 348.168 154.36 348.168C153.268 348.168 152.022 347.412 152.022 345.928C152.022 344.36 153.254 343.716 154.36 343.716C155.284 343.716 156.054 344.01 156.558 344.584V343.576C156.558 342.792 155.9 342.316 154.976 342.316C154.22 342.316 153.548 342.596 152.974 343.184L152.358 342.162C153.142 341.406 154.122 341.07 155.2 341.07C156.712 341.07 158.028 341.7 158.028 343.506V348ZM154.948 347.16C155.578 347.16 156.208 346.922 156.558 346.46V345.424C156.208 344.962 155.578 344.724 154.948 344.724C154.122 344.724 153.492 345.214 153.492 345.942C153.492 346.684 154.122 347.16 154.948 347.16ZM159.653 350.646L159.863 349.33C160.017 349.4 160.255 349.442 160.423 349.442C160.899 349.442 161.207 349.302 161.403 348.854L161.739 348.084L158.953 341.238H160.535L162.509 346.306L164.483 341.238H166.051L162.789 349.218C162.327 350.366 161.529 350.73 160.479 350.744C160.269 350.744 159.849 350.702 159.653 350.646Z" fill="#676F7E"/>
</g>
<defs>
<filter id="filter0_d_13063_2329" x="20" y="-0.000244141" width="858" height="768" filterUnits="userSpaceOnUse" color-interpolation-filters="sRGB">
<feFlood flood-opacity="0" result="BackgroundImageFix"/>
<feColorMatrix in="SourceAlpha" type="matrix" values="0 0 0 0 0 0 0 0 0 0 0 0 0 0 0 0 0 0 127 0" result="hardAlpha"/>
<feOffset dx="5" dy="10"/>
<feGaussianBlur stdDeviation="22"/>
<feComposite in2="hardAlpha" operator="out"/>
<feColorMatrix type="matrix" values="0 0 0 0 0.184314 0 0 0 0 0.188235 0 0 0 0 0.215686 0 0 0 0.1 0"/>
<feBlend mode="normal" in2="BackgroundImageFix" result="effect1_dropShadow_13063_2329"/>
<feBlend mode="normal" in="SourceGraphic" in2="effect1_dropShadow_13063_2329" result="shape"/>
</filter>
<filter id="filter1_d_13063_2329" x="0" y="111" width="316" height="316" filterUnits="userSpaceOnUse" color-interpolation-filters="sRGB">
<feFlood flood-opacity="0" result="BackgroundImageFix"/>
<feColorMatrix in="SourceAlpha" type="matrix" values="0 0 0 0 0 0 0 0 0 0 0 0 0 0 0 0 0 0 127 0" result="hardAlpha"/>
<feOffset dx="5" dy="10"/>
<feGaussianBlur stdDeviation="22"/>
<feComposite in2="hardAlpha" operator="out"/>
<feColorMatrix type="matrix" values="0 0 0 0 0.184314 0 0 0 0 0.188235 0 0 0 0 0.215686 0 0 0 0.1 0"/>
<feBlend mode="normal" in2="BackgroundImageFix" result="effect1_dropShadow_13063_2329"/>
<feBlend mode="normal" in="SourceGraphic" in2="effect1_dropShadow_13063_2329" result="shape"/>
</filter>
<linearGradient id="paint0_linear_13063_2329" x1="904.3" y1="349" x2="880.982" y2="385.801" gradientUnits="userSpaceOnUse">
<stop stop-color="#405DE6"/>
<stop offset="0.0989583" stop-color="#5851DB"/>
<stop offset="0.234375" stop-color="#833AB4"/>
<stop offset="0.354167" stop-color="#C13584"/>
<stop offset="0.458333" stop-color="#E1306C"/>
<stop offset="0.602519" stop-color="#FD1D1D"/>
<stop offset="0.719374" stop-color="#F56040"/>
<stop offset="0.835801" stop-color="#F77737"/>
<stop offset="0.905863" stop-color="#FCAF45"/>
<stop offset="1" stop-color="#FFDC80"/>
</linearGradient>
<linearGradient id="paint1_linear_13063_2329" x1="896.65" y1="358" x2="884.991" y2="376.4" gradientUnits="userSpaceOnUse">
<stop stop-color="#405DE6"/>
<stop offset="0.0989583" stop-color="#5851DB"/>
<stop offset="0.234375" stop-color="#833AB4"/>
<stop offset="0.354167" stop-color="#C13584"/>
<stop offset="0.458333" stop-color="#E1306C"/>
<stop offset="0.602519" stop-color="#FD1D1D"/>
<stop offset="0.719374" stop-color="#F56040"/>
<stop offset="0.835801" stop-color="#F77737"/>
<stop offset="0.905863" stop-color="#FCAF45"/>
<stop offset="1" stop-color="#FFDC80"/>
</linearGradient>
<clipPath id="clip0_13063_2329">
<rect width="36" height="36" fill="white" transform="translate(1061 254)"/>
</clipPath>
</defs>
</svg>
