<svg width="110" height="110" viewBox="0 0 110 110" fill="none" xmlns="http://www.w3.org/2000/svg">
<path fill-rule="evenodd" clip-rule="evenodd" d="M0 11C0 4.92486 4.92487 0 11 0H57V14H14V57H0V11Z" fill="black"/>
<path fill-rule="evenodd" clip-rule="evenodd" d="M110 99C110 105.075 105.075 110 99 110H53V96H96V53H110V99Z" fill="black"/>
<path d="M7 64C3.13401 64 3.73727e-08 60.866 8.34742e-08 57L1.66948e-07 50L14 50L14 57C14 60.866 10.866 64 7 64Z" fill="#36DC5E"/>
<rect x="110" y="46" width="14" height="14" transform="rotate(90 110 46)" fill="#36DC5E"/>
<path d="M64 7C64 10.866 60.866 14 57 14L50 14L50 -1.22392e-06L57 -6.11959e-07C60.866 -2.73984e-07 64 3.13401 64 7Z" fill="#36DC5E"/>
<rect x="46" y="96" width="14" height="14" fill="#36DC5E"/>
<rect x="55" y="5" width="4" height="4" fill="white" stroke="#0074FF"/>
<rect x="55" y="105" width="4" height="4" transform="rotate(180 55 105)" fill="white" stroke="#0074FF"/>
<rect x="5" y="55" width="4" height="4" fill="white" stroke="#0074FF"/>
<rect x="105" y="55" width="4" height="4" transform="rotate(180 105 55)" fill="white" stroke="#0074FF"/>
<path d="M30 80L80 30" stroke="black"/>
<path d="M55 7H7V55" stroke="#0074FF"/>
<path d="M55 103H103V55" stroke="#0074FF"/>
</svg>
