<svg width="1760" height="60" viewBox="0 0 1760 60" fill="none" xmlns="http://www.w3.org/2000/svg">
<g clip-path="url(#clip0_231_163)">
<rect x="0.5" y="0.5" width="59" height="59" rx="9.5" stroke="#E0E4EB"/>
<path fill-rule="evenodd" clip-rule="evenodd" d="M15 18.75H45V19.5L43.805 20.3963L43.8 20.4L30.0035 30.5684L16.2 20.4L16.1974 20.3981L15 19.5V18.75ZM15 21.375V41.25H45V21.375L44.7 21.6L44.695 21.6038L44.695 21.6037L30.4486 32.1037L30.0038 32.4316L29.5588 32.1038L15.3052 21.6038L15.3 21.6L15.3 21.6L15 21.375Z" fill="#FF5574"/>
<rect x="100.5" y="0.5" width="59" height="59" rx="9.5" stroke="#E0E4EB"/>
<path fill-rule="evenodd" clip-rule="evenodd" d="M118.375 39.75H119.5V37.5H118.375H117.25L117.25 17.25L137.5 17.25V18.375V19.5H139.75V18.375V16.125V15L138.625 15H116.125H115L115 16.125L115 38.625V39.75H116.125H118.375ZM145 45L135.405 45L136.336 41.5425L136.412 41.2628L136.412 41.2628C137.049 38.8968 138.897 37.0487 141.263 36.4116L141.263 36.4116L141.543 36.3363L145 35.4053L145 45ZM120.25 45L135.095 45L134.164 41.5425L134.088 41.2628L134.088 41.2628C133.758 40.037 133.103 38.9504 132.219 38.0989L133.781 36.4785C134.345 37.0227 134.84 37.6396 135.25 38.3146C136.01 37.0624 137.062 36.0104 138.315 35.25C137.64 34.8401 137.023 34.3455 136.478 33.7805L138.099 32.2195C138.95 33.1034 140.037 33.7583 141.263 34.0884L141.263 34.0884L141.543 34.1637L145 35.0947L145 20.25L120.25 20.25L120.25 45ZM130 21.1157L130.8 24.085C131.472 26.5801 133.421 28.529 135.916 29.2008L138.885 30.0003L135.916 30.7998C133.421 31.4716 131.472 33.4205 130.8 35.9156L130 38.8847L129.201 35.9156C128.529 33.4205 126.58 31.4716 124.085 30.7998L121.116 30.0003L124.085 29.2008C126.58 28.529 128.529 26.5801 129.201 24.085L130 21.1157Z" fill="#0CE884"/>
<rect x="200.5" y="0.5" width="59" height="59" rx="9.5" stroke="#E0E4EB"/>
<path fill-rule="evenodd" clip-rule="evenodd" d="M238.625 15V16.125V18.75H245V24.75H215V18.75H221.375V16.125V15H223.625V16.125V18.75H236.375V16.125V15H238.625ZM245 26.25H215V45H245V26.25ZM224 30.75C223.172 30.75 222.5 31.4216 222.5 32.25C222.5 33.0784 223.172 33.75 224 33.75C224.828 33.75 225.5 33.0784 225.5 32.25C225.5 31.4216 224.828 30.75 224 30.75ZM228.5 32.25C228.5 31.4216 229.172 30.75 230 30.75C230.828 30.75 231.5 31.4216 231.5 32.25C231.5 33.0784 230.828 33.75 230 33.75C229.172 33.75 228.5 33.0784 228.5 32.25ZM224 36.75C223.172 36.75 222.5 37.4216 222.5 38.25C222.5 39.0784 223.172 39.75 224 39.75C224.828 39.75 225.5 39.0784 225.5 38.25C225.5 37.4216 224.828 36.75 224 36.75ZM228.5 38.25C228.5 37.4216 229.172 36.75 230 36.75C230.828 36.75 231.5 37.4216 231.5 38.25C231.5 39.0784 230.828 39.75 230 39.75C229.172 39.75 228.5 39.0784 228.5 38.25ZM236 30.75C235.172 30.75 234.5 31.4216 234.5 32.25C234.5 33.0784 235.172 33.75 236 33.75C236.828 33.75 237.5 33.0784 237.5 32.25C237.5 31.4216 236.828 30.75 236 30.75Z" fill="#A157FF"/>
<rect x="300.5" y="0.5" width="59" height="59" rx="9.5" stroke="#E0E4EB"/>
<path fill-rule="evenodd" clip-rule="evenodd" d="M326.689 18H333.311L336.311 21H345V42H315V21H323.689L326.689 18ZM324.75 31.5C324.75 28.6005 327.101 26.25 330 26.25C332.899 26.25 335.25 28.6005 335.25 31.5C335.25 34.3995 332.899 36.75 330 36.75C327.101 36.75 324.75 34.3995 324.75 31.5Z" fill="#5584FF"/>
<rect x="400.5" y="0.5" width="59" height="59" rx="9.5" stroke="#E0E4EB"/>
<path fill-rule="evenodd" clip-rule="evenodd" d="M419.875 15H418.75V17.25H419.875H442.75V40.125V41.25H445V40.125V16.125V15H443.875H419.875ZM440.5 19.5H415V45H440.5V19.5ZM433.338 24.63C433.599 24.8437 433.75 25.163 433.75 25.5V34.5C433.75 35.7426 432.743 36.75 431.5 36.75C430.257 36.75 429.25 35.7426 429.25 34.5C429.25 33.2574 430.257 32.25 431.5 32.25V26.8723L426.25 27.9223V37.5C426.25 38.7426 425.243 39.75 424 39.75C422.757 39.75 421.75 38.7426 421.75 37.5C421.75 36.2574 422.757 35.25 424 35.25V27C424 26.4637 424.379 26.002 424.904 25.8968L432.404 24.3968C432.735 24.3307 433.078 24.4163 433.338 24.63Z" fill="#FFB255"/>
<rect x="500.5" y="0.5" width="59" height="59" rx="9.5" stroke="#E0E4EB"/>
<path fill-rule="evenodd" clip-rule="evenodd" d="M515 15H545V45H515V15ZM525.5 22.6582L537.431 30.0004L525.5 37.3425V22.6582Z" fill="#5585FF"/>
<rect x="600.5" y="0.5" width="59" height="59" rx="9.5" stroke="#E0E4EB"/>
<path fill-rule="evenodd" clip-rule="evenodd" d="M629.999 16.5703L645.454 28.6832L644.066 30.4541L641.249 28.2465V43.4995H633.749V32.2496H626.249V43.4995H618.749V28.2469L615.933 30.4541L614.545 28.6833L629.999 16.5703Z" fill="#FF55BB"/>
<rect x="700.5" y="0.5" width="59" height="59" rx="9.5" stroke="#E0E4EB"/>
<path fill-rule="evenodd" clip-rule="evenodd" d="M720.25 24.75C720.25 19.3814 724.307 15 730 15C735.693 15 739.75 19.3814 739.75 24.75C739.75 26.3904 739.83 28.3237 740.16 30.1755C740.491 32.0374 741.063 33.7503 742 35L745 39H737.5H736.75H736.709H723.291H723.25H722.5H715L718 35C718.937 33.7503 719.509 32.0374 719.84 30.1755C720.17 28.3237 720.25 26.3904 720.25 24.75ZM723.634 40.5C724.561 43.1217 727.061 45 730 45C732.939 45 735.439 43.1217 736.366 40.5H723.634Z" fill="#0CE884"/>
<rect x="800.5" y="0.5" width="59" height="59" rx="9.5" stroke="#E0E4EB"/>
<path fill-rule="evenodd" clip-rule="evenodd" d="M823.061 16.8226L822.121 17.4402C820.383 18.5813 818.89 20.0654 817.739 21.7959L817.115 22.7325L815.242 21.486L815.865 20.5494C817.185 18.5668 818.895 16.8669 820.886 15.5594L821.826 14.9419L823.061 16.8226ZM816.5 31.4998C816.5 24.0439 822.544 17.9998 830 17.9998C837.456 17.9998 843.5 24.0439 843.5 31.4998C843.5 34.9151 842.232 38.0341 840.141 40.4117L842.797 43.0812L843.591 43.8787L841.996 45.4658L841.203 44.6683L838.52 41.9725C836.196 43.8651 833.231 44.9998 830 44.9998C826.737 44.9998 823.745 43.8421 821.411 41.9152L818.653 44.6706L817.858 45.4658L816.267 43.8743L817.063 43.0791L819.8 40.3437C817.744 37.9748 816.5 34.8826 816.5 31.4998ZM831.125 25.4998V24.3748H828.875V25.4998V31.4998V32.6248H830H836H837.125V30.3748H836H831.125V25.4998ZM840.123 15.5594L839.183 14.9419L837.948 16.8226L838.888 17.4402C840.626 18.5813 842.119 20.0654 843.27 21.7959L843.894 22.7325L845.767 21.486L845.144 20.5494C843.824 18.5668 842.114 16.8669 840.123 15.5594Z" fill="#FF5574"/>
<rect x="900.5" y="0.5" width="59" height="59" rx="9.5" stroke="#E0E4EB"/>
<path fill-rule="evenodd" clip-rule="evenodd" d="M915 17.25H923.959L928.042 21H945V25.5H915V17.25ZM915 27V42H945V27H915Z" fill="#5584FF"/>
<rect x="1000.5" y="0.5" width="59" height="59" rx="9.5" stroke="#E0E4EB"/>
<path fill-rule="evenodd" clip-rule="evenodd" d="M1040.41 15.75H1019.59L1018.18 27H1016.12H1015V29.25H1016.12H1017.9H1042.1H1043.88H1045V27H1043.88H1041.82L1040.41 15.75ZM1032.25 38.25C1032.25 37.8734 1032.29 37.506 1032.37 37.1518C1031.63 36.8917 1030.83 36.75 1030 36.75C1029.17 36.75 1028.37 36.8916 1027.63 37.1514C1027.71 37.5057 1027.75 37.8732 1027.75 38.25C1027.75 41.1495 1025.4 43.5 1022.5 43.5C1019.6 43.5 1017.25 41.1495 1017.25 38.25C1017.25 35.3505 1019.6 33 1022.5 33C1024.22 33 1025.74 33.8239 1026.7 35.0978C1027.73 34.7112 1028.84 34.5 1030 34.5C1031.16 34.5 1032.27 34.7113 1033.3 35.0982C1034.26 33.8241 1035.78 33 1037.5 33C1040.4 33 1042.75 35.3505 1042.75 38.25C1042.75 41.1495 1040.4 43.5 1037.5 43.5C1034.6 43.5 1032.25 41.1495 1032.25 38.25Z" fill="#FFB255"/>
<rect x="1100.5" y="0.5" width="59" height="59" rx="9.5" stroke="#E0E4EB"/>
<path fill-rule="evenodd" clip-rule="evenodd" d="M1130 15C1126.27 15 1123.25 18.0221 1123.25 21.75V29.25C1123.25 32.9779 1126.27 36 1130 36C1133.73 36 1136.75 32.9779 1136.75 29.25V21.75C1136.75 18.0221 1133.73 15 1130 15ZM1131.12 40.7467C1134.37 40.4431 1137.49 38.8254 1139.54 35.8936L1140.18 34.9709L1138.34 33.6837L1137.69 34.6064C1134.03 39.8636 1125.97 39.8636 1122.3 34.6064L1121.66 33.6837L1119.81 34.9709L1120.46 35.8936C1122.5 38.8261 1125.63 40.4439 1128.87 40.7469V43.875V45H1131.12V43.875V40.7467Z" fill="#A157FF"/>
<rect x="1200.5" y="0.5" width="59" height="59" rx="9.5" stroke="#E0E4EB"/>
<path fill-rule="evenodd" clip-rule="evenodd" d="M1222.41 22.1247L1223.2 21.3292L1229.2 15.3292L1230 14.5337L1230.79 15.3292L1236.79 21.3292L1237.59 22.1247L1236 23.7157L1235.2 22.9202L1231.12 18.8407V27.7499H1228.87V18.8407L1224.79 22.9202L1224 23.7157L1222.41 22.1247ZM1228.87 27.7499H1218V44.9999H1242V27.7499H1231.12V33.375H1228.87V27.7499Z" fill="#FF5574"/>
<rect x="1300.5" y="0.5" width="59" height="59" rx="9.5" stroke="#E0E4EB"/>
<path fill-rule="evenodd" clip-rule="evenodd" d="M1345 45.1359V14.8652L1325.5 18.1154V41.8859L1345 45.1359ZM1335.25 21.0007H1330V39.0007H1335.25V21.0007ZM1315 23.6899L1321.31 30.0006L1315 36.3113V23.6899Z" fill="#5584FF"/>
<rect x="1400.5" y="0.5" width="59" height="59" rx="9.5" stroke="#E0E4EB"/>
<path fill-rule="evenodd" clip-rule="evenodd" d="M1419.64 15H1440.36L1444.86 36.75H1430H1415.14L1419.64 15ZM1415 38.25V45H1445L1445 38.25H1430H1415ZM1430 33.841L1430.8 33.0455L1436.05 27.7955L1436.84 27L1435.25 25.409L1434.45 26.2045L1431.12 29.534V21.75H1428.88V29.534L1425.55 26.2045L1424.75 25.409L1423.16 27L1423.95 27.7955L1429.2 33.0455L1430 33.841Z" fill="#0CE884"/>
<rect x="1500.5" y="0.5" width="59" height="59" rx="9.5" stroke="#E0E4EB"/>
<path fill-rule="evenodd" clip-rule="evenodd" d="M1545 16.5H1515V33L1530 33H1545V16.5ZM1515 37.5V34.5L1530 34.5H1545V37.5H1532.26C1532.28 38.5262 1532.36 39.2912 1532.54 39.958C1532.68 40.5329 1532.9 41.0553 1533.21 41.625H1535.25H1536.38V43.875H1535.25H1524.75H1523.62V41.625H1524.75H1526.8C1527.11 41.0553 1527.32 40.5329 1527.47 39.958C1527.64 39.2912 1527.73 38.5262 1527.75 37.5H1515Z" fill="#5584FF"/>
<rect x="1600.5" y="0.5" width="59" height="59" rx="9.5" stroke="#E0E4EB"/>
<path fill-rule="evenodd" clip-rule="evenodd" d="M1617.25 15H1634.5V22.5002V23.2502H1635.25H1642.75V45H1617.25V15ZM1642.31 21.7502L1636 15.4732V21.7502H1642.31ZM1631.12 26.625V27.75V31.125H1634.5H1635.62V33.375H1634.5H1631.12V36.75V37.875H1628.88V36.75V33.375H1625.5H1624.38V31.125H1625.5H1628.88V27.75V26.625H1631.12Z" fill="#FFB255"/>
<rect x="1700.5" y="0.5" width="59" height="59" rx="9.5" stroke="#E0E4EB"/>
<path fill-rule="evenodd" clip-rule="evenodd" d="M1745.31 21.0001L1739 14.6895L1735.25 18.4392L1741.56 24.7498L1745.31 21.0001ZM1722.54 31.1517L1734.19 19.4998L1740.5 25.8105L1728.85 37.4624L1721.63 38.3639L1722.54 31.1517ZM1716.12 15H1715V16.125V43.875V45H1716.12H1743.88H1745V43.875V30V28.875H1742.75V30V42.75H1717.25V17.25H1730H1731.12V15H1730H1716.12Z" fill="#A157FF"/>
</g>
<defs>
<clipPath id="clip0_231_163">
<rect width="1760" height="60" fill="white"/>
</clipPath>
</defs>
</svg>
