<svg width="290" height="207" viewBox="0 0 290 207" fill="none" xmlns="http://www.w3.org/2000/svg">
<circle cx="20.5003" cy="20.0999" r="10.8333" stroke="#0074FF" stroke-width="2"/>
<path d="M15.0145 7.03859L14.3691 5.50195" stroke="#0074FF" stroke-width="2" stroke-linecap="round" stroke-linejoin="round"/>
<path d="M5.90197 26.2313L7.4386 25.5859" stroke="#0074FF" stroke-width="2" stroke-linecap="round" stroke-linejoin="round"/>
<path d="M33.561 14.6141L35.0977 13.9688" stroke="#0074FF" stroke-width="2" stroke-linecap="round" stroke-linejoin="round"/>
<path d="M26.6317 34.6978L25.9863 33.1611" stroke="#0074FF" stroke-width="2" stroke-linecap="round" stroke-linejoin="round"/>
<path d="M26.4873 5.44141L25.8571 6.98433" stroke="#0074FF" stroke-width="2" stroke-linecap="round" stroke-linejoin="round"/>
<path d="M15.1436 33.2148L14.5134 34.7578" stroke="#0074FF" stroke-width="2" stroke-linecap="round" stroke-linejoin="round"/>
<path d="M35.1582 26.0859L33.6153 25.4557" stroke="#0074FF" stroke-width="2" stroke-linecap="round" stroke-linejoin="round"/>
<path d="M7.38477 14.7432L5.84184 14.113" stroke="#0074FF" stroke-width="2" stroke-linecap="round" stroke-linejoin="round"/>
<path d="M31.6963 8.9043L30.5178 10.0828" stroke="#0074FF" stroke-width="2" stroke-linecap="round" stroke-linejoin="round"/>
<path d="M10.4827 30.1172L9.30415 31.2957" stroke="#0074FF" stroke-width="2" stroke-linecap="round" stroke-linejoin="round"/>
<path d="M31.6963 31.2949L30.5178 30.1164" stroke="#0074FF" stroke-width="2" stroke-linecap="round" stroke-linejoin="round"/>
<path d="M10.4827 10.082L9.30415 8.90352" stroke="#0074FF" stroke-width="2" stroke-linecap="round" stroke-linejoin="round"/>
<path d="M4.66699 20.0996H6.33366" stroke="#0074FF" stroke-width="2" stroke-linecap="round" stroke-linejoin="round"/>
<path d="M34.667 20.0996H36.3337" stroke="#0074FF" stroke-width="2" stroke-linecap="round" stroke-linejoin="round"/>
<path d="M20.5 4.2666L20.5 5.93327" stroke="#0074FF" stroke-width="2" stroke-linecap="round" stroke-linejoin="round"/>
<path d="M20.5 34.2666L20.5 35.9333" stroke="#0074FF" stroke-width="2" stroke-linecap="round" stroke-linejoin="round"/>
<path d="M13.417 28.016C14.3459 26.7375 15.1031 26.0183 16.4303 25.5292C17.3204 25.2011 18.0003 24.4188 18.0003 23.4701V23.3228C18.0003 22.7564 17.742 22.2293 17.4022 21.7761C16.7379 20.8903 16.3337 19.7181 16.3337 18.4326C16.3337 15.6712 18.1991 13.4326 20.5003 13.4326C22.8015 13.4326 24.667 15.6712 24.667 18.4326C24.667 19.7181 24.2627 20.8903 23.5985 21.7761C23.2586 22.2292 23.0003 22.7564 23.0003 23.3228V23.4175C23.0003 24.3897 23.7164 25.1765 24.628 25.5143C25.8507 25.9674 26.622 26.6961 27.5837 28.016" stroke="#0074FF" stroke-width="2" stroke-linejoin="round"/>
<circle cx="103.5" cy="20.0999" r="15.8333" stroke="#0074FF" stroke-width="2"/>
<path d="M91.833 20.0996H94.333" stroke="#0074FF" stroke-width="2" stroke-linecap="round" stroke-linejoin="round"/>
<path d="M95.1663 24.266H92.833C92.2807 24.266 91.833 23.8182 91.833 23.266V16.9326C91.833 16.3803 92.2807 15.9326 92.833 15.9326H95.1663" stroke="#0074FF" stroke-width="2" stroke-linecap="round" stroke-linejoin="round"/>
<path d="M97.667 15.9326L101.834 24.266" stroke="#0074FF" stroke-width="2" stroke-linecap="round" stroke-linejoin="round"/>
<path d="M101.833 15.9326L97.6663 24.266" stroke="#0074FF" stroke-width="2" stroke-linecap="round" stroke-linejoin="round"/>
<path d="M106 15.9326V24.266H104.333H107.666M106 15.9326H104.333M106 15.9326H107.666" stroke="#0074FF" stroke-width="2" stroke-linecap="round" stroke-linejoin="round"/>
<path d="M112.667 24.266V15.9326M112.667 15.9326H110.167M112.667 15.9326H115.167" stroke="#0074FF" stroke-width="2" stroke-linecap="round" stroke-linejoin="round"/>
<path d="M180.666 20.5047C178.631 18.8233 177.333 16.2798 177.333 13.4333C177.333 8.37066 181.437 4.2666 186.5 4.2666C191.562 4.2666 195.666 8.37066 195.666 13.4333C195.666 16.2798 194.369 18.8233 192.333 20.5047" stroke="#0074FF" stroke-width="2" stroke-linecap="round"/>
<path d="M194.833 35.9333L196.245 27.4608C196.395 26.5615 195.918 25.6746 195.085 25.3043L189 22.5999V14.2666C189 12.8859 187.88 11.7666 186.5 11.7666C185.119 11.7666 184 12.8859 184 14.2666V27.5999L180.889 24.8768C180.076 24.0632 178.757 24.0632 177.943 24.8768C177.13 25.6904 177.13 27.0095 177.943 27.8231L183.166 35.9333" stroke="#0074FF" stroke-width="2" stroke-linecap="round" stroke-linejoin="round"/>
<path d="M284.224 14.2666C281.902 8.4089 276.185 4.2666 269.5 4.2666C260.756 4.2666 253.667 11.3554 253.667 20.0999C253.667 28.8444 260.756 35.9333 269.5 35.9333C276.185 35.9333 281.902 31.791 284.224 25.9333" stroke="#0074FF" stroke-width="2" stroke-linecap="round"/>
<path d="M285.333 20.0993H262.833M262.833 20.0993L268.666 13.4326M262.833 20.0993L268.666 26.766" stroke="#0074FF" stroke-width="2" stroke-linecap="round" stroke-linejoin="round"/>
<rect x="4.66699" y="88.9326" width="31.6667" height="28.3333" rx="2" stroke="#0074FF" stroke-width="2" stroke-linejoin="round"/>
<path d="M4.66699 95.5996H36.3337" stroke="#0074FF" stroke-width="2"/>
<path d="M8.83301 92.2666H10.4997" stroke="#0074FF" stroke-width="2" stroke-linecap="round"/>
<path d="M13.833 92.2666H15.4997" stroke="#0074FF" stroke-width="2" stroke-linecap="round"/>
<path d="M18.833 92.2666H20.4997" stroke="#0074FF" stroke-width="2" stroke-linecap="round"/>
<path d="M20.4997 102.267C15.4371 102.267 11.333 106.371 11.333 111.433H14.6663C14.6663 108.212 17.278 105.6 20.4997 105.6C23.7213 105.6 26.333 108.212 26.333 111.433H29.6663C29.6663 106.371 25.5623 102.267 20.4997 102.267Z" stroke="#0074FF" stroke-width="2" stroke-linejoin="round"/>
<path d="M20.5 102.267V105.6" stroke="#0074FF" stroke-width="2"/>
<path d="M14.0059 104.945L16.3748 107.31" stroke="#0074FF" stroke-width="2"/>
<path d="M28.1259 102.809C28.5164 102.419 29.1496 102.419 29.5401 102.809C29.9306 103.2 29.9306 103.833 29.5401 104.224L28.1259 102.809ZM29.5401 104.224L22.1622 111.602L20.7479 110.187L28.1259 102.809L29.5401 104.224Z" fill="#0074FF"/>
<circle cx="20.4997" cy="112.266" r="1.66667" stroke="#0074FF" stroke-width="2"/>
<path d="M101 108.1C102.981 109.243 104.063 109.245 106 108.1" stroke="#0074FF" stroke-width="2" stroke-linecap="round" stroke-linejoin="round"/>
<path d="M119.333 108.099L119.333 116.933C119.333 118.037 118.438 118.933 117.333 118.933L108.5 118.933M119.333 98.0993L119.333 89.266C119.333 88.1614 118.438 87.266 117.333 87.266L108.5 87.266M87.6663 108.099L87.6663 116.933C87.6663 118.037 88.5618 118.933 89.6663 118.933L98.4997 118.933M87.6663 98.0993L87.6663 89.266C87.6663 88.1614 88.5618 87.266 89.6663 87.266L98.4997 87.266" stroke="#0074FF" stroke-width="2" stroke-linecap="round" stroke-linejoin="round"/>
<ellipse cx="103.5" cy="103.1" rx="9.16667" ry="10" stroke="#0074FF" stroke-width="2"/>
<path d="M94.3662 102.27C99.1146 100.904 101.929 99.8808 103.5 97.2666C105.071 99.8808 107.88 100.901 112.628 102.267" stroke="#0074FF" stroke-width="2" stroke-linecap="round" stroke-linejoin="round"/>
<circle cx="100.166" cy="103.933" r="0.833333" stroke="#0074FF" stroke-width="2"/>
<circle cx="106.833" cy="103.933" r="0.833333" stroke="#0074FF" stroke-width="2"/>
<rect x="170.667" y="87.2666" width="31.6667" height="25.8333" rx="2" stroke="#0074FF" stroke-width="2" stroke-linejoin="round"/>
<path d="M170.667 108.933H202.334" stroke="#0074FF" stroke-width="2" stroke-linecap="round" stroke-linejoin="round"/>
<path d="M193.166 98.9333C193.166 102.615 190.182 105.6 186.5 105.6C182.818 105.6 179.833 102.615 179.833 98.9333C179.833 95.2514 182.818 92.2666 186.5 92.2666C187.714 92.2666 188.852 92.5912 189.833 93.1585" stroke="#0074FF" stroke-width="2" stroke-linecap="round"/>
<path d="M183.583 97.6833L186.5 100.6L194 93.5166" stroke="#0074FF" stroke-width="2" stroke-linecap="round" stroke-linejoin="round"/>
<path d="M179.833 118.933H193.166" stroke="#0074FF" stroke-width="2" stroke-linecap="round" stroke-linejoin="round"/>
<path d="M182.333 118.933C184.042 116.632 184.511 115.362 184 113.1" stroke="#0074FF" stroke-width="2" stroke-linecap="round" stroke-linejoin="round"/>
<path d="M190.667 118.933C188.938 116.657 188.536 115.377 189 113.1" stroke="#0074FF" stroke-width="2" stroke-linecap="round" stroke-linejoin="round"/>
<path d="M285.333 108.099L285.333 116.933C285.333 118.037 284.438 118.933 283.333 118.933L274.5 118.933M285.333 98.0993L285.333 89.266C285.333 88.1614 284.438 87.266 283.333 87.266L274.5 87.266M253.666 108.099L253.666 116.933C253.666 118.037 254.562 118.933 255.666 118.933L264.5 118.933M253.666 98.0993L253.666 89.266C253.666 88.1614 254.562 87.266 255.666 87.266L264.5 87.266" stroke="#0074FF" stroke-width="2" stroke-linecap="round" stroke-linejoin="round"/>
<path d="M261.167 99.766V106.433C261.167 108.764 262.124 110.871 263.667 112.384M261.86 96.4326C263.146 93.4894 266.083 91.4326 269.5 91.4326C271.018 91.4326 272.441 91.8384 273.667 92.5475M267 114.384C267.79 114.632 268.629 114.766 269.5 114.766C272.227 114.766 274.647 113.457 276.168 111.433M277.452 108.933C277.7 108.143 277.834 107.304 277.834 106.433V99.766C277.834 97.8899 277.214 96.1587 276.168 94.766" stroke="#0074FF" stroke-width="2" stroke-linecap="round" stroke-linejoin="round"/>
<path d="M267 95.4355C267.735 95.0101 268.589 94.7666 269.5 94.7666C272.261 94.7666 274.5 97.0052 274.5 99.7666V102.267M265.333 97.0018C264.807 97.7937 264.5 98.7443 264.5 99.7666V106.433C264.5 109.195 266.739 111.433 269.5 111.433C272.261 111.433 274.5 109.195 274.5 106.433V104.767" stroke="#0074FF" stroke-width="2" stroke-linecap="round" stroke-linejoin="round"/>
<path d="M267.833 106.433C267.833 107.353 268.579 108.1 269.5 108.1C270.42 108.1 271.166 107.353 271.166 106.433V99.7663C271.166 98.8458 270.42 98.0996 269.5 98.0996C268.579 98.0996 267.833 98.8458 267.833 99.7663V103.933" stroke="#0074FF" stroke-width="2" stroke-linecap="round" stroke-linejoin="round"/>
<path d="M7.16699 175.204C7.16699 174.267 7.81806 173.455 8.73313 173.252L19.7331 170.807C20.9822 170.53 22.167 171.48 22.167 172.76V199.44C22.167 200.72 20.9822 201.67 19.7331 201.392L8.73313 198.948C7.81806 198.745 7.16699 197.933 7.16699 196.996V175.204Z" stroke="#0074FF" stroke-width="2" stroke-linejoin="round"/>
<path d="M22.167 172.767H31.8337C32.9382 172.767 33.8337 173.662 33.8337 174.767V197.433C33.8337 198.538 32.9382 199.433 31.8337 199.433H22.167V172.767Z" stroke="#0074FF" stroke-width="2" stroke-linejoin="round"/>
<circle cx="16.7503" cy="186.516" r="2.08333" stroke="#0074FF" stroke-width="2"/>
<path d="M87.667 175.136C87.667 174.23 88.2762 173.437 89.1517 173.204L97.6517 170.937C98.9214 170.599 100.167 171.556 100.167 172.87V199.33C100.167 200.644 98.9214 201.601 97.6517 201.263L89.1517 198.996C88.2762 198.762 87.667 197.969 87.667 197.063V175.136Z" stroke="#0074FF" stroke-width="2" stroke-linejoin="round"/>
<path d="M110.167 194.433V197.433C110.167 198.538 109.272 199.433 108.167 199.433H100.167V172.767H108.167C109.272 172.767 110.167 173.662 110.167 174.767V177.767" stroke="#0074FF" stroke-width="2" stroke-linecap="round" stroke-linejoin="round"/>
<circle cx="96.417" cy="186.517" r="1.25" stroke="#0074FF" stroke-width="2"/>
<path d="M103.5 186.1H119.333M119.333 186.1L115.166 181.1M119.333 186.1L115.166 191.1" stroke="#0074FF" stroke-width="2" stroke-linecap="round" stroke-linejoin="round"/>
<path d="M184.833 195.996V199.933C184.833 201.038 185.728 201.933 186.833 201.933H200.333C201.438 201.933 202.333 201.038 202.333 199.933V172.267C202.333 171.162 201.438 170.267 200.333 170.267H186.833C185.728 170.267 184.833 171.162 184.833 172.267V176.204" stroke="#0074FF" stroke-width="2" stroke-linecap="round" stroke-linejoin="round"/>
<path d="M185.24 188.6C184.211 191.513 181.433 193.6 178.167 193.6C174.025 193.6 170.667 190.242 170.667 186.1C170.667 181.957 174.025 178.6 178.167 178.6C181.433 178.6 184.211 180.687 185.24 183.6H196.5L199 186.1L196.5 188.6L195.25 188.6L194.834 190.266H192.334L191.917 188.6H189.834L189.417 190.266H187.334L186.917 188.6L185.24 188.6ZM185.24 188.6L185.25 188.6" stroke="#0074FF" stroke-width="2" stroke-linejoin="round"/>
<circle cx="175.667" cy="186.099" r="1.66667" stroke="#0074FF" stroke-width="2"/>
<path d="M270.333 196.1C270.333 199.322 267.721 201.933 264.5 201.933H261.166C257.945 201.933 255.333 199.322 255.333 196.1V176.1C255.333 172.878 257.945 170.267 261.166 170.267H264.5C267.721 170.267 270.333 172.878 270.333 176.1V192.767" stroke="#0074FF" stroke-width="2" stroke-linejoin="round"/>
<path d="M255.333 176.933H270.333" stroke="#0074FF" stroke-width="2" stroke-linecap="round" stroke-linejoin="round"/>
<path d="M255.333 186.933H270.333" stroke="#0074FF" stroke-width="2" stroke-linecap="round" stroke-linejoin="round"/>
<path d="M267.548 196.099C266.862 198.041 265.01 199.433 262.833 199.433C260.072 199.433 257.833 197.194 257.833 194.433C257.833 191.671 260.072 189.433 262.833 189.433C265.01 189.433 266.862 190.824 267.548 192.766" stroke="#0074FF" stroke-width="2"/>
<path d="M261.167 194.433C261.167 193.513 261.913 192.767 262.834 192.767H282C282.921 192.767 283.667 193.513 283.667 194.433V194.433C283.667 195.354 282.921 196.1 282 196.1H262.834C261.913 196.1 261.167 195.354 261.167 194.433V194.433Z" stroke="#0074FF" stroke-width="2" stroke-linejoin="round"/>
<circle cx="259.5" cy="181.933" r="1.66667" stroke="#0074FF" stroke-width="2"/>
<circle cx="266.167" cy="181.933" r="1.66667" stroke="#0074FF" stroke-width="2"/>
</svg>
