<svg width="1760" height="60" viewBox="0 0 1760 60" fill="none" xmlns="http://www.w3.org/2000/svg">
<g clip-path="url(#clip0_231_275)">
<rect x="0.5" y="0.5" width="59" height="59" rx="4.5" stroke="#E0E4EB"/>
<path d="M15 21.375V39C15 40.2426 16.0074 41.25 17.25 41.25H42.75C43.9926 41.25 45 40.2426 45 39V21.375L44.695 21.6038L30.4486 32.1037C30.1841 32.2987 29.8234 32.2988 29.5588 32.1038L15.3 21.6L15 21.375Z" fill="#1E3050" fill-opacity="0.16"/>
<path d="M15.3633 19.7728C15.7647 19.1571 16.4596 18.75 17.2495 18.75H42.7495C43.5394 18.75 44.2343 19.1571 44.6357 19.7729L43.8045 20.3963L43.7995 20.4L30.003 30.5684L16.1969 20.3981L15.3633 19.7728Z" fill="#1E3050"/>
<rect x="100.5" y="0.5" width="59" height="59" rx="4.5" stroke="#E0E4EB"/>
<path fill-rule="evenodd" clip-rule="evenodd" d="M145 42.75C145 43.9926 143.993 45 142.75 45L122.5 45C121.257 45 120.25 43.9926 120.25 42.75L120.25 22.5C120.25 21.2574 121.257 20.25 122.5 20.25L142.75 20.25C143.993 20.25 145 21.2574 145 22.5L145 42.75ZM130 23.25C130.339 23.25 130.636 23.4775 130.724 23.805L130.8 24.0847C131.471 26.5798 133.42 28.5287 135.915 29.2005L136.195 29.2758C136.522 29.364 136.75 29.6609 136.75 30C136.75 30.3391 136.522 30.636 136.195 30.7242L135.915 30.7995C133.42 31.4713 131.471 33.4202 130.8 35.9153L130.724 36.195C130.636 36.5225 130.339 36.75 130 36.75C129.661 36.75 129.364 36.5225 129.276 36.195L129.2 35.9153C128.529 33.4202 126.58 31.4713 124.085 30.7995L123.805 30.7242C123.478 30.636 123.25 30.3391 123.25 30C123.25 29.6609 123.478 29.364 123.805 29.2758L124.085 29.2005C126.58 28.5287 128.529 26.5798 129.2 24.0847L129.276 23.805C129.364 23.4775 129.661 23.25 130 23.25ZM136.508 32.1898C136.956 31.7587 137.668 31.772 138.099 32.2195C138.95 33.1034 140.037 33.7583 141.263 34.0884L141.543 34.1637C142.034 34.296 142.375 34.7413 142.375 35.25C142.375 35.7587 142.034 36.204 141.543 36.3363L141.263 36.4116C138.897 37.0487 137.049 38.8968 136.412 41.2628L136.336 41.5425C136.204 42.0337 135.759 42.375 135.25 42.375C134.741 42.375 134.296 42.0337 134.164 41.5425L134.088 41.2628C133.758 40.037 133.103 38.9504 132.219 38.0989C131.772 37.6678 131.759 36.9556 132.19 36.5082C132.621 36.0607 133.333 36.0474 133.781 36.4785C134.345 37.0227 134.84 37.6396 135.25 38.3146C136.01 37.0624 137.062 36.0104 138.315 35.25C137.64 34.8401 137.023 34.3455 136.478 33.7805C136.047 33.3331 136.061 32.6209 136.508 32.1898Z" fill="#1E3050" fill-opacity="0.16"/>
<path d="M118.375 39.75C118.996 39.75 119.5 39.2463 119.5 38.625C119.5 38.0037 118.996 37.5 118.375 37.5H117.625C117.418 37.5 117.25 37.3321 117.25 37.125L117.25 17.625C117.25 17.4179 117.418 17.25 117.625 17.25L137.125 17.25C137.332 17.25 137.5 17.4179 137.5 17.625V18.375C137.5 18.9963 138.004 19.5 138.625 19.5C139.246 19.5 139.75 18.9963 139.75 18.375V17.625C139.75 16.1753 138.575 15 137.125 15H117.625C116.175 15 115 16.1753 115 17.625L115 37.125C115 38.5747 116.175 39.75 117.625 39.75H118.375Z" fill="#1E3050"/>
<path d="M130.724 23.805C130.636 23.4775 130.339 23.25 130 23.25C129.661 23.25 129.364 23.4775 129.276 23.805L129.2 24.0847C128.529 26.5798 126.58 28.5287 124.085 29.2005L123.805 29.2758C123.478 29.364 123.25 29.6609 123.25 30C123.25 30.3391 123.478 30.636 123.805 30.7242L124.085 30.7995C126.58 31.4713 128.529 33.4202 129.2 35.9153L129.276 36.195C129.364 36.5225 129.661 36.75 130 36.75C130.339 36.75 130.636 36.5225 130.724 36.195L130.8 35.9153C131.471 33.4202 133.42 31.4713 135.915 30.7995L136.195 30.7242C136.522 30.636 136.75 30.3391 136.75 30C136.75 29.6609 136.522 29.364 136.195 29.2758L135.915 29.2005C133.42 28.5287 131.471 26.5798 130.8 24.0847L130.724 23.805Z" fill="#1E3050"/>
<path d="M138.099 32.2195C137.668 31.772 136.956 31.7587 136.508 32.1898C136.061 32.6209 136.047 33.3331 136.478 33.7805C137.023 34.3455 137.64 34.8401 138.315 35.25C137.062 36.0104 136.01 37.0624 135.25 38.3146C134.84 37.6396 134.345 37.0227 133.781 36.4785C133.333 36.0474 132.621 36.0607 132.19 36.5082C131.759 36.9556 131.772 37.6678 132.219 38.0989C133.103 38.9504 133.758 40.037 134.088 41.2628L134.164 41.5425C134.296 42.0337 134.741 42.375 135.25 42.375C135.759 42.375 136.204 42.0337 136.336 41.5425L136.412 41.2628C137.049 38.8968 138.897 37.0487 141.263 36.4116L141.543 36.3363C142.034 36.204 142.375 35.7587 142.375 35.25C142.375 34.7413 142.034 34.296 141.543 34.1637L141.263 34.0884C140.037 33.7583 138.95 33.1034 138.099 32.2195Z" fill="#1E3050"/>
<rect x="200.5" y="0.5" width="59" height="59" rx="4.5" stroke="#E0E4EB"/>
<path fill-rule="evenodd" clip-rule="evenodd" d="M245 26.25H215V42.75C215 43.9926 216.007 45 217.25 45H242.75C243.993 45 245 43.9926 245 42.75V26.25ZM224 30.75C223.172 30.75 222.5 31.4216 222.5 32.25C222.5 33.0784 223.172 33.75 224 33.75C224.828 33.75 225.5 33.0784 225.5 32.25C225.5 31.4216 224.828 30.75 224 30.75ZM228.5 32.25C228.5 31.4216 229.172 30.75 230 30.75C230.828 30.75 231.5 31.4216 231.5 32.25C231.5 33.0784 230.828 33.75 230 33.75C229.172 33.75 228.5 33.0784 228.5 32.25ZM224 36.75C223.172 36.75 222.5 37.4216 222.5 38.25C222.5 39.0784 223.172 39.75 224 39.75C224.828 39.75 225.5 39.0784 225.5 38.25C225.5 37.4216 224.828 36.75 224 36.75ZM228.5 38.25C228.5 37.4216 229.172 36.75 230 36.75C230.828 36.75 231.5 37.4216 231.5 38.25C231.5 39.0784 230.828 39.75 230 39.75C229.172 39.75 228.5 39.0784 228.5 38.25ZM236 30.75C235.172 30.75 234.5 31.4216 234.5 32.25C234.5 33.0784 235.172 33.75 236 33.75C236.828 33.75 237.5 33.0784 237.5 32.25C237.5 31.4216 236.828 30.75 236 30.75Z" fill="#1E3050" fill-opacity="0.16"/>
<path d="M222.5 32.25C222.5 31.4216 223.172 30.75 224 30.75C224.828 30.75 225.5 31.4216 225.5 32.25C225.5 33.0784 224.828 33.75 224 33.75C223.172 33.75 222.5 33.0784 222.5 32.25Z" fill="#1E3050"/>
<path d="M230 30.75C229.172 30.75 228.5 31.4216 228.5 32.25C228.5 33.0784 229.172 33.75 230 33.75C230.828 33.75 231.5 33.0784 231.5 32.25C231.5 31.4216 230.828 30.75 230 30.75Z" fill="#1E3050"/>
<path d="M222.5 38.25C222.5 37.4216 223.172 36.75 224 36.75C224.828 36.75 225.5 37.4216 225.5 38.25C225.5 39.0784 224.828 39.75 224 39.75C223.172 39.75 222.5 39.0784 222.5 38.25Z" fill="#1E3050"/>
<path d="M230 36.75C229.172 36.75 228.5 37.4216 228.5 38.25C228.5 39.0784 229.172 39.75 230 39.75C230.828 39.75 231.5 39.0784 231.5 38.25C231.5 37.4216 230.828 36.75 230 36.75Z" fill="#1E3050"/>
<path d="M234.5 32.25C234.5 31.4216 235.172 30.75 236 30.75C236.828 30.75 237.5 31.4216 237.5 32.25C237.5 33.0784 236.828 33.75 236 33.75C235.172 33.75 234.5 33.0784 234.5 32.25Z" fill="#1E3050"/>
<path d="M237.5 15C238.121 15 238.625 15.5037 238.625 16.125V18.75H242.75C243.993 18.75 245 19.7574 245 21V24.75H215V21C215 19.7574 216.007 18.75 217.25 18.75H221.375V16.125C221.375 15.5037 221.879 15 222.5 15C223.121 15 223.625 15.5037 223.625 16.125V18.75H236.375V16.125C236.375 15.5037 236.879 15 237.5 15Z" fill="#1E3050"/>
<rect x="300.5" y="0.5" width="59" height="59" rx="4.5" stroke="#E0E4EB"/>
<path fill-rule="evenodd" clip-rule="evenodd" d="M326.47 18.2197C326.61 18.079 326.801 18 327 18H333C333.199 18 333.39 18.079 333.53 18.2197L336.311 21H342.75C343.993 21 345 22.0074 345 23.25V39.75C345 40.9926 343.993 42 342.75 42H317.25C316.007 42 315 40.9926 315 39.75V23.25C315 22.0074 316.007 21 317.25 21H323.689L326.47 18.2197ZM324.75 31.5C324.75 28.6005 327.101 26.25 330 26.25C332.899 26.25 335.25 28.6005 335.25 31.5C335.25 34.3995 332.899 36.75 330 36.75C327.101 36.75 324.75 34.3995 324.75 31.5Z" fill="#1E3050" fill-opacity="0.16"/>
<path d="M330 26.25C327.101 26.25 324.75 28.6005 324.75 31.5C324.75 34.3995 327.101 36.75 330 36.75C332.899 36.75 335.25 34.3995 335.25 31.5C335.25 28.6005 332.899 26.25 330 26.25Z" fill="#1E3050"/>
<rect x="400.5" y="0.5" width="59" height="59" rx="4.5" stroke="#E0E4EB"/>
<path d="M419.875 15C419.254 15 418.75 15.5037 418.75 16.125C418.75 16.7463 419.254 17.25 419.875 17.25H442.375C442.582 17.25 442.75 17.4179 442.75 17.625V40.125C442.75 40.7463 443.254 41.25 443.875 41.25C444.496 41.25 445 40.7463 445 40.125V17.625C445 16.1753 443.825 15 442.375 15H419.875Z" fill="#1E3050"/>
<path d="M419.875 15C419.254 15 418.75 15.5037 418.75 16.125C418.75 16.7463 419.254 17.25 419.875 17.25H442.375C442.582 17.25 442.75 17.4179 442.75 17.625V40.125C442.75 40.7463 443.254 41.25 443.875 41.25C444.496 41.25 445 40.7463 445 40.125V17.625C445 16.1753 443.825 15 442.375 15H419.875Z" fill="#1E3050"/>
<path fill-rule="evenodd" clip-rule="evenodd" d="M417.25 19.5C416.007 19.5 415 20.5074 415 21.75V42.75C415 43.9926 416.007 45 417.25 45H438.25C439.493 45 440.5 43.9926 440.5 42.75V21.75C440.5 20.5074 439.493 19.5 438.25 19.5H417.25ZM433.338 24.63C433.599 24.8437 433.75 25.163 433.75 25.5V34.5C433.75 35.7426 432.743 36.75 431.5 36.75C430.257 36.75 429.25 35.7426 429.25 34.5C429.25 33.2574 430.257 32.25 431.5 32.25V26.8723L426.25 27.9223V37.5C426.25 38.7426 425.243 39.75 424 39.75C422.757 39.75 421.75 38.7426 421.75 37.5C421.75 36.2574 422.757 35.25 424 35.25V27C424 26.4637 424.379 26.002 424.904 25.8968L432.404 24.3968C432.735 24.3307 433.078 24.4163 433.338 24.63Z" fill="#1E3050" fill-opacity="0.16"/>
<path fill-rule="evenodd" clip-rule="evenodd" d="M433.338 24.63C433.599 24.8437 433.75 25.163 433.75 25.5V34.5C433.75 35.7427 432.743 36.75 431.5 36.75C430.257 36.75 429.25 35.7427 429.25 34.5C429.25 33.2574 430.257 32.25 431.5 32.25V26.8723L426.25 27.9223V37.5C426.25 38.7427 425.243 39.75 424 39.75C422.757 39.75 421.75 38.7427 421.75 37.5C421.75 36.2574 422.757 35.25 424 35.25V27C424 26.4637 424.379 26.002 424.904 25.8969L432.404 24.3969C432.735 24.3308 433.078 24.4163 433.338 24.63Z" fill="#1E3050"/>
<rect x="500.5" y="0.5" width="59" height="59" rx="4.5" stroke="#E0E4EB"/>
<path fill-rule="evenodd" clip-rule="evenodd" d="M515 30C515 21.7157 521.716 15 530 15C538.284 15 545 21.7157 545 30C545 38.2843 538.284 45 530 45C521.716 45 515 38.2843 515 30ZM525.884 23.3453C526.121 23.2127 526.412 23.2189 526.643 23.3613L536.393 29.3613C536.615 29.4978 536.75 29.7396 536.75 30C536.75 30.2604 536.615 30.5022 536.393 30.6387L526.643 36.6387C526.412 36.7811 526.121 36.7873 525.884 36.6547C525.647 36.5222 525.5 36.2717 525.5 36V24C525.5 23.7283 525.647 23.4778 525.884 23.3453Z" fill="#1E3050" fill-opacity="0.16"/>
<path d="M526.643 23.3613C526.412 23.2189 526.121 23.2127 525.884 23.3453C525.647 23.4778 525.5 23.7283 525.5 24V36C525.5 36.2717 525.647 36.5222 525.884 36.6547C526.121 36.7873 526.412 36.7811 526.643 36.6387L536.393 30.6387C536.615 30.5022 536.75 30.2604 536.75 30C536.75 29.7396 536.615 29.4978 536.393 29.3613L526.643 23.3613Z" fill="#1E3050"/>
<rect x="600.5" y="0.5" width="59" height="59" rx="4.5" stroke="#E0E4EB"/>
<path d="M629.306 17.1146C629.714 16.7951 630.287 16.7951 630.694 17.1146L644.569 27.9896C645.058 28.3728 645.144 29.08 644.76 29.569C644.377 30.058 643.67 30.1437 643.181 29.7604L641.25 28.2469V41.25C641.25 42.4926 640.243 43.5 639 43.5H633.75V33C633.75 32.5858 633.414 32.25 633 32.25H627C626.586 32.25 626.25 32.5858 626.25 33V43.5H621C619.757 43.5 618.75 42.4926 618.75 41.25V28.247L616.819 29.7604C616.33 30.1437 615.623 30.058 615.24 29.569C614.856 29.08 614.942 28.3728 615.431 27.9896L629.306 17.1146Z" fill="#1E3050" fill-opacity="0.16"/>
<path d="M633.75 33V43.5H626.25V33C626.25 32.5858 626.586 32.25 627 32.25H633C633.414 32.25 633.75 32.5858 633.75 33Z" fill="#1E3050"/>
<rect x="700.5" y="0.5" width="59" height="59" rx="4.5" stroke="#E0E4EB"/>
<path d="M720.25 24.75C720.25 19.3814 724.307 15 730 15C735.693 15 739.75 19.3814 739.75 24.75C739.75 26.3904 739.83 28.3237 740.16 30.1755C740.491 32.0374 741.063 33.7503 742 35L744.1 37.8C744.27 38.0273 744.298 38.3313 744.171 38.5854C744.044 38.8395 743.784 39 743.5 39H716.5C716.216 39 715.956 38.8395 715.829 38.5854C715.702 38.3313 715.73 38.0273 715.9 37.8L718 35C718.937 33.7503 719.509 32.0374 719.84 30.1755C720.17 28.3237 720.25 26.3904 720.25 24.75Z" fill="#1E3050" fill-opacity="0.16"/>
<path d="M723.637 40.5C724.563 43.1217 727.064 45 730.003 45C732.942 45 735.442 43.1217 736.369 40.5H723.637Z" fill="#1E3050"/>
<rect x="800.5" y="0.5" width="59" height="59" rx="4.5" stroke="#E0E4EB"/>
<path d="M822.443 15.8826C822.784 16.402 822.639 17.0994 822.12 17.4405C820.382 18.5817 818.889 20.0658 817.737 21.7962C817.393 22.3135 816.695 22.4538 816.178 22.1096C815.66 21.7654 815.52 21.067 815.864 20.5497C817.184 18.5671 818.894 16.8673 820.885 15.5598C821.404 15.2187 822.102 15.3633 822.443 15.8826Z" fill="#1E3050" fill-opacity="0.16"/>
<path fill-rule="evenodd" clip-rule="evenodd" d="M816.499 31.5001C816.499 24.0443 822.543 18.0001 829.999 18.0001C837.455 18.0001 843.499 24.0443 843.499 31.5001C843.499 34.9153 842.231 38.0343 840.14 40.4119L842.797 43.0814C843.235 43.5218 843.233 44.2342 842.793 44.6724C842.352 45.1107 841.64 45.109 841.202 44.6686L838.519 41.9727C836.195 43.8654 833.23 45.0001 829.999 45.0001C826.736 45.0001 823.743 43.8425 821.41 41.9154L818.652 44.6709C818.213 45.1101 817.5 45.1098 817.061 44.6703C816.622 44.2308 816.622 43.5185 817.062 43.0793L819.799 40.3439C817.743 37.975 816.499 34.8829 816.499 31.5001ZM831.124 25.5001C831.124 24.8788 830.62 24.3751 829.999 24.3751C829.378 24.3751 828.874 24.8788 828.874 25.5001V31.5001C828.874 32.1214 829.378 32.6251 829.999 32.6251H835.999C836.62 32.6251 837.124 32.1214 837.124 31.5001C837.124 30.8788 836.62 30.3751 835.999 30.3751H831.124V25.5001Z" fill="#1E3050" fill-opacity="0.16"/>
<path d="M840.122 15.5598C839.603 15.2187 838.905 15.3633 838.564 15.8826C838.223 16.402 838.368 17.0994 838.887 17.4405C840.625 18.5817 842.118 20.0658 843.269 21.7962C843.613 22.3135 844.312 22.4538 844.829 22.1096C845.346 21.7654 845.487 21.067 845.142 20.5497C843.823 18.5671 842.113 16.8673 840.122 15.5598Z" fill="#1E3050" fill-opacity="0.16"/>
<path d="M830 24.375C830.621 24.375 831.125 24.8787 831.125 25.5V30.375H836C836.621 30.375 837.125 30.8787 837.125 31.5C837.125 32.1213 836.621 32.625 836 32.625H830C829.379 32.625 828.875 32.1213 828.875 31.5V25.5C828.875 24.8787 829.379 24.375 830 24.375Z" fill="#1E3050"/>
<rect x="900.5" y="0.5" width="59" height="59" rx="4.5" stroke="#E0E4EB"/>
<path d="M915 27V39.75C915 40.9926 916.007 42 917.25 42H942.75C943.993 42 945 40.9926 945 39.75V27H915Z" fill="#1E3050" fill-opacity="0.16"/>
<path d="M915 19.5C915 18.2574 916.007 17.25 917.25 17.25H923.082C923.646 17.25 924.189 17.4616 924.604 17.8428L927.827 20.8024C927.965 20.9295 928.146 21 928.334 21H942.75C943.993 21 945 22.0074 945 23.25V25.5H915V19.5Z" fill="#1E3050"/>
<rect x="1000.5" y="0.5" width="59" height="59" rx="4.5" stroke="#E0E4EB"/>
<path d="M1020.25 15.75C1019.87 15.75 1019.55 16.0317 1019.51 16.407L1018.18 27H1016.12C1015.5 27 1015 27.5037 1015 28.125C1015 28.7463 1015.5 29.25 1016.12 29.25H1043.88C1044.5 29.25 1045 28.7463 1045 28.125C1045 27.5037 1044.5 27 1043.88 27H1041.82L1040.49 16.407C1040.45 16.0317 1040.13 15.75 1039.75 15.75H1020.25Z" fill="#1E3050"/>
<path d="M1032.25 38.25C1032.25 37.8733 1032.29 37.5058 1032.37 37.1516C1031.63 36.8917 1030.83 36.75 1030 36.75C1029.17 36.75 1028.37 36.8916 1027.63 37.1516C1027.71 37.5058 1027.75 37.8733 1027.75 38.25C1027.75 41.1495 1025.4 43.5 1022.5 43.5C1019.6 43.5 1017.25 41.1495 1017.25 38.25C1017.25 35.3505 1019.6 33 1022.5 33C1024.22 33 1025.74 33.824 1026.7 35.098C1027.73 34.7113 1028.84 34.5 1030 34.5C1031.16 34.5 1032.27 34.7113 1033.3 35.098C1034.26 33.824 1035.78 33 1037.5 33C1040.4 33 1042.75 35.3505 1042.75 38.25C1042.75 41.1495 1040.4 43.5 1037.5 43.5C1034.6 43.5 1032.25 41.1495 1032.25 38.25Z" fill="#1E3050" fill-opacity="0.16"/>
<rect x="1100.5" y="0.5" width="59" height="59" rx="4.5" stroke="#E0E4EB"/>
<path d="M1131.13 40.7468V43.8751C1131.13 44.4964 1130.62 45.0001 1130 45.0001C1129.38 45.0001 1128.88 44.4964 1128.88 43.8751V40.747C1125.63 40.444 1122.5 38.8262 1120.46 35.8937C1120.1 35.3841 1120.23 34.6828 1120.74 34.3274C1121.25 33.9719 1121.95 34.0969 1122.3 34.6065C1125.97 39.8637 1134.03 39.8637 1137.69 34.6065C1138.05 34.0969 1138.75 33.9719 1139.26 34.3274C1139.77 34.6828 1139.9 35.3841 1139.54 35.8937C1137.49 38.8255 1134.37 40.4432 1131.13 40.7468Z" fill="#1E3050" fill-opacity="0.16"/>
<path d="M1130 15C1126.27 15 1123.25 18.0221 1123.25 21.75V29.25C1123.25 32.9779 1126.27 36 1130 36C1133.73 36 1136.75 32.9779 1136.75 29.25V21.75C1136.75 18.0221 1133.73 15 1130 15Z" fill="#1E3050"/>
<rect x="1200.5" y="0.5" width="59" height="59" rx="4.5" stroke="#E0E4EB"/>
<path d="M1220.25 27.75H1228.88H1231.12H1239.75C1240.99 27.75 1242 28.7574 1242 30V42.75C1242 43.9926 1240.99 45 1239.75 45H1220.25C1219.01 45 1218 43.9926 1218 42.75V30C1218 28.7574 1219.01 27.75 1220.25 27.75Z" fill="#1E3050" fill-opacity="0.16"/>
<path d="M1223.2 22.9205C1222.77 22.4812 1222.77 21.7688 1223.2 21.3295L1229.2 15.3305L1229.21 15.3222C1229.32 15.218 1229.44 15.139 1229.57 15.0854C1229.7 15.0308 1229.85 15.0004 1230 15L1230 15L1230 15C1230.29 15.0009 1230.58 15.1107 1230.8 15.3295L1236.8 21.3295C1237.23 21.7688 1237.23 22.4812 1236.8 22.9205C1236.36 23.3598 1235.64 23.3598 1235.2 22.9205L1231.12 18.841V27.75H1228.88V18.841L1224.8 22.9205C1224.36 23.3598 1223.64 23.3598 1223.2 22.9205Z" fill="#1E3050"/>
<path d="M1230 34.5C1230.62 34.5 1231.12 33.9963 1231.12 33.375V27.75H1228.88V33.375C1228.88 33.9963 1229.38 34.5 1230 34.5Z" fill="#1E3050"/>
<rect x="1300.5" y="0.5" width="59" height="59" rx="4.5" stroke="#E0E4EB"/>
<path fill-rule="evenodd" clip-rule="evenodd" d="M1345 15.75C1345 15.5295 1344.9 15.3202 1344.73 15.1777C1344.57 15.0352 1344.34 14.974 1344.13 15.0102L1326.13 18.0104C1325.77 18.0707 1325.5 18.3836 1325.5 18.7502V41.25C1325.5 41.6166 1325.77 41.9295 1326.13 41.9898L1344.13 44.9898C1344.34 45.026 1344.57 44.9648 1344.73 44.8223C1344.9 44.6798 1345 44.4705 1345 44.25V15.75ZM1332.25 21C1331.01 21 1330 22.0074 1330 23.25V36.75C1330 37.9926 1331.01 39 1332.25 39H1333C1334.24 39 1335.25 37.9926 1335.25 36.75V23.25C1335.25 22.0074 1334.24 21 1333 21H1332.25Z" fill="#1E3050" fill-opacity="0.16"/>
<path fill-rule="evenodd" clip-rule="evenodd" d="M1332.25 21C1331.01 21 1330 22.0074 1330 23.25V36.75C1330 37.9926 1331.01 39 1332.25 39H1333C1334.24 39 1335.25 37.9926 1335.25 36.75V23.25C1335.25 22.0074 1334.24 21 1333 21H1332.25Z" fill="#1E3050"/>
<path d="M1315.46 24.8071C1315.74 24.691 1316.07 24.7552 1316.28 24.9697L1320.78 29.4697C1321.07 29.7626 1321.07 30.2375 1320.78 30.5304L1316.28 35.0304C1316.07 35.2449 1315.74 35.309 1315.46 35.1929C1315.18 35.0768 1315 34.8034 1315 34.5V25.5C1315 25.1967 1315.18 24.9232 1315.46 24.8071Z" fill="#1E3050"/>
<rect x="1400.5" y="0.5" width="59" height="59" rx="4.5" stroke="#E0E4EB"/>
<path fill-rule="evenodd" clip-rule="evenodd" d="M1419.27 16.7941C1419.48 15.7493 1420.4 15 1421.47 15H1438.53C1439.59 15 1440.52 15.7493 1440.73 16.7941L1444.86 36.75H1415.14L1419.27 16.7941ZM1430.79 33.0455L1436.04 27.7955C1436.48 27.3562 1436.48 26.6438 1436.04 26.2045C1435.61 25.7652 1434.89 25.7652 1434.45 26.2045L1431.12 29.534V21.75C1431.12 21.1287 1430.62 20.625 1430 20.625C1429.38 20.625 1428.87 21.1287 1428.87 21.75V29.534L1425.54 26.2045C1425.11 25.7652 1424.39 25.7652 1423.95 26.2045C1423.51 26.6438 1423.51 27.3562 1423.95 27.7955L1429.2 33.0447C1429.21 33.0474 1429.21 33.0501 1429.21 33.0528C1429.41 33.2521 1429.69 33.375 1430 33.375C1430.15 33.375 1430.3 33.3446 1430.43 33.2896C1430.56 33.2347 1430.69 33.1534 1430.79 33.0455Z" fill="#1E3050" fill-opacity="0.16"/>
<path d="M1429.57 33.2896C1429.7 33.3446 1429.85 33.375 1430 33.375C1430.29 33.375 1430.58 33.2652 1430.8 33.0455L1436.05 27.7955C1436.48 27.3562 1436.48 26.6438 1436.05 26.2045C1435.61 25.7652 1434.89 25.7652 1434.45 26.2045L1431.12 29.534V21.75C1431.12 21.1287 1430.62 20.625 1430 20.625C1429.38 20.625 1428.88 21.1287 1428.88 21.75L1428.88 29.534L1425.55 26.2045C1425.11 25.7652 1424.39 25.7652 1423.95 26.2045C1423.52 26.6438 1423.52 27.3562 1423.95 27.7955L1429.2 33.0455C1429.31 33.1534 1429.44 33.2347 1429.57 33.2896Z" fill="#1E3050"/>
<path d="M1415 38.25V42.75C1415 43.9926 1416.01 45 1417.25 45H1442.75C1443.99 45 1445 43.9926 1445 42.75V38.25H1415Z" fill="#1E3050"/>
<rect x="1500.5" y="0.5" width="59" height="59" rx="4.5" stroke="#E0E4EB"/>
<path fill-rule="evenodd" clip-rule="evenodd" d="M1515 18.75C1515 17.5074 1516.01 16.5 1517.25 16.5H1542.75C1543.99 16.5 1545 17.5074 1545 18.75V33L1515 33V18.75ZM1515 34.5V35.25C1515 36.4926 1516.01 37.5 1517.25 37.5H1527.75H1532.25H1542.75C1543.99 37.5 1545 36.4926 1545 35.25V34.5L1515 34.5Z" fill="#1E3050"/>
<path d="M1545 33L1515 33V34.5L1545 34.5V33Z" fill="#1E3050" fill-opacity="0.16"/>
<path d="M1532.25 37.5C1532.28 38.5262 1532.36 39.2912 1532.53 39.958C1532.68 40.5329 1532.89 41.0553 1533.21 41.625H1535.25C1535.87 41.625 1536.38 42.1287 1536.38 42.75C1536.38 43.3713 1535.87 43.875 1535.25 43.875H1524.75C1524.13 43.875 1523.62 43.3713 1523.62 42.75C1523.62 42.1287 1524.13 41.625 1524.75 41.625H1526.79C1527.11 41.0553 1527.32 40.5329 1527.47 39.958C1527.64 39.2912 1527.72 38.5262 1527.75 37.5H1532.25Z" fill="#1E3050" fill-opacity="0.16"/>
<rect x="1600.5" y="0.5" width="59" height="59" rx="4.5" stroke="#E0E4EB"/>
<path fill-rule="evenodd" clip-rule="evenodd" d="M1634.5 15H1619.5C1618.26 15 1617.25 16.0074 1617.25 17.25V42.75C1617.25 43.9926 1618.26 45 1619.5 45H1640.5C1641.74 45 1642.75 43.9904 1642.75 42.7464L1642.72 23.25H1635.25C1634.84 23.25 1634.5 22.9142 1634.5 22.5V15ZM1630 26.625C1630.62 26.625 1631.12 27.1287 1631.12 27.75V31.125H1634.5C1635.12 31.125 1635.62 31.6287 1635.62 32.25C1635.62 32.8713 1635.12 33.375 1634.5 33.375H1631.12V36.75C1631.12 37.3713 1630.62 37.875 1630 37.875C1629.38 37.875 1628.88 37.3713 1628.88 36.75V33.375H1625.5C1624.88 33.375 1624.38 32.8713 1624.38 32.25C1624.38 31.6287 1624.88 31.125 1625.5 31.125H1628.88V27.75C1628.88 27.1287 1629.38 26.625 1630 26.625Z" fill="#1E3050" fill-opacity="0.16"/>
<path d="M1642.28 21.7501L1636 15.4746V21.7501H1642.28Z" fill="#1E3050"/>
<path d="M1631.12 27.75C1631.12 27.1287 1630.62 26.625 1630 26.625C1629.38 26.625 1628.88 27.1287 1628.88 27.75V31.125H1625.5C1624.88 31.125 1624.38 31.6287 1624.38 32.25C1624.38 32.8713 1624.88 33.375 1625.5 33.375H1628.88V36.75C1628.88 37.3713 1629.38 37.875 1630 37.875C1630.62 37.875 1631.12 37.3713 1631.12 36.75V33.375H1634.5C1635.12 33.375 1635.62 32.8713 1635.62 32.25C1635.62 31.6287 1635.12 31.125 1634.5 31.125H1631.12V27.75Z" fill="#1E3050"/>
<rect x="1700.5" y="0.5" width="59" height="59" rx="4.5" stroke="#E0E4EB"/>
<path d="M1740.59 16.2801C1739.71 15.4014 1738.29 15.4014 1737.41 16.2801L1735.25 18.4392L1741.56 24.7499L1743.72 22.5908C1744.6 21.7121 1744.6 20.2875 1743.72 19.4088L1740.59 16.2801Z" fill="#1E3050"/>
<path d="M1722.72 30.9694L1734.19 19.4999L1740.5 25.8105L1729.03 37.2801C1728.91 37.398 1728.76 37.4733 1728.59 37.494L1722.59 38.244C1722.36 38.2727 1722.13 38.1938 1721.97 38.0301C1721.81 37.8664 1721.73 37.6364 1721.76 37.4067L1722.51 31.4067C1722.53 31.2413 1722.6 31.0874 1722.72 30.9694Z" fill="#1E3050"/>
<path d="M1717.62 15C1716.18 15 1715 16.1753 1715 17.625V42.375C1715 43.8247 1716.18 45 1717.62 45H1742.38C1743.82 45 1745 43.8247 1745 42.375V30C1745 29.3787 1744.5 28.875 1743.88 28.875C1743.25 28.875 1742.75 29.3787 1742.75 30V42.375C1742.75 42.5821 1742.58 42.75 1742.38 42.75H1717.62C1717.42 42.75 1717.25 42.5821 1717.25 42.375V17.625C1717.25 17.4179 1717.42 17.25 1717.62 17.25H1730C1730.62 17.25 1731.12 16.7463 1731.12 16.125C1731.12 15.5037 1730.62 15 1730 15H1717.62Z" fill="#1E3050" fill-opacity="0.16"/>
</g>
<defs>
<clipPath id="clip0_231_275">
<rect width="1760" height="60" fill="white"/>
</clipPath>
</defs>
</svg>
