<svg width="331" height="241" viewBox="0 0 331 241" fill="none" xmlns="http://www.w3.org/2000/svg">
<g clip-path="url(#clip0_220_453)">
<rect x="-29.8613" y="0.908691" width="60" height="60" rx="16" fill="#F0F4FF"/>
<g filter="url(#filter0_d_220_453)">
<path d="M8.80876 16.8599C9.11191 16.3983 9.7319 16.2698 10.1936 16.5729C12.1706 17.8712 13.8685 19.5591 15.1785 21.5277C15.4845 21.9875 15.3598 22.6082 14.9 22.9142C14.4402 23.2201 13.8194 23.0954 13.5135 22.6357C12.3526 20.8912 10.8476 19.3951 9.09574 18.2447C8.63409 17.9415 8.50561 17.3215 8.80876 16.8599Z" fill="#5585FF"/>
<path d="M-8.27321 16.8599C-7.97005 17.3215 -8.09854 17.9415 -8.56018 18.2447C-10.3121 19.3951 -11.8171 20.8912 -12.9779 22.6357C-13.2839 23.0954 -13.9046 23.2201 -14.3644 22.9142C-14.8242 22.6082 -14.9489 21.9875 -14.643 21.5277C-13.333 19.5591 -11.635 17.8712 -9.658 16.5729C-9.19635 16.2698 -8.57636 16.3983 -8.27321 16.8599Z" fill="#5585FF"/>
<path fill-rule="evenodd" clip-rule="evenodd" d="M-12.7108 44.4513L-10.3552 42.0973C-10.9653 41.4814 -11.4807 40.7714 -11.8792 39.9894C-12.3665 39.033 -12.5866 37.9698 -12.6935 36.6611C-12.7988 35.3723 -12.7988 33.7655 -12.7988 31.7012V31.6164C-12.7988 29.5521 -12.7988 27.9453 -12.6935 26.6565C-12.5866 25.3479 -12.3665 24.2846 -11.8792 23.3283C-11.0703 21.7407 -9.77949 20.4499 -8.19187 19.6409C-7.23551 19.1537 -6.17227 18.9335 -4.86366 18.8266C-3.5748 18.7213 -1.96805 18.7213 0.0962477 18.7213H0.181096C2.24539 18.7213 3.85215 18.7213 5.141 18.8266C6.44962 18.9335 7.51286 19.1537 8.46922 19.6409C10.0568 20.4499 11.3476 21.7407 12.1565 23.3283C12.6438 24.2846 12.864 25.3479 12.9709 26.6565C13.0762 27.9453 13.0762 29.5521 13.0762 31.6164V31.7012C13.0762 33.7655 13.0762 35.3723 12.9709 36.6611C12.864 37.9698 12.6438 39.033 12.1565 39.9894C11.7439 40.7992 11.2059 41.5318 10.5671 42.1626L12.8467 44.4534C13.2363 44.8449 13.2348 45.4781 12.8433 45.8676C12.4518 46.2572 11.8187 46.2557 11.4291 45.8642L8.97414 43.3973C8.80947 43.4959 8.64108 43.5891 8.46922 43.6767C7.51286 44.164 6.44962 44.3841 5.141 44.491C3.85214 44.5963 2.24538 44.5963 0.181068 44.5963H0.0962753C-1.96804 44.5963 -3.57479 44.5963 -4.86366 44.491C-6.17227 44.3841 -7.23552 44.164 -8.19187 43.6767C-8.39195 43.5747 -8.58732 43.4651 -8.77759 43.3483L-11.297 45.866C-11.6877 46.2564 -12.3209 46.2562 -12.7113 45.8655C-13.1016 45.4748 -13.1014 44.8417 -12.7108 44.4513ZM1.13868 26.4088C1.13868 25.8565 0.690965 25.4088 0.13868 25.4088C-0.413605 25.4088 -0.86132 25.8565 -0.86132 26.4088L-0.861324 29.4704C-0.861386 30.1245 -0.861442 30.7123 -0.797485 31.188C-0.727659 31.7073 -0.565526 32.2401 -0.129087 32.6766C0.307351 33.113 0.840165 33.2752 1.35952 33.345C1.83523 33.4089 2.42295 33.4089 3.07707 33.4088L6.13868 33.4088C6.69096 33.4088 7.13868 32.9611 7.13868 32.4088C7.13868 31.8565 6.69096 31.4088 6.13868 31.4088H3.13868C2.4033 31.4088 1.95237 31.4067 1.62602 31.3628C1.33917 31.3242 1.29128 31.2694 1.2856 31.2629L1.2846 31.2619C1.2781 31.2562 1.22325 31.2083 1.18468 30.9215C1.1408 30.5951 1.13868 30.1442 1.13868 29.4088V26.4088Z" fill="#5585FF"/>
</g>
<rect x="80.1387" y="0.908691" width="60" height="60" rx="10" fill="#EFF1F5"/>
<path fill-rule="evenodd" clip-rule="evenodd" d="M95.1387 18.1592H104.097L108.181 21.9092H125.139V26.4092L95.1387 26.4092V18.1592ZM95.1387 27.9092V42.9092H125.139V27.9092L95.1387 27.9092Z" fill="#5584FF"/>
<rect x="190.139" y="0.908691" width="60" height="60" rx="5" fill="#EFF1F5"/>
<path d="M221.264 41.656V44.7843C221.264 45.4056 220.76 45.9093 220.139 45.9093C219.517 45.9093 219.014 45.4056 219.014 44.7843V41.6562C215.772 41.3531 212.642 39.7354 210.597 36.8029C210.241 36.2933 210.366 35.592 210.876 35.2366C211.386 34.8811 212.087 35.0061 212.442 35.5157C216.109 40.7729 224.166 40.7729 227.833 35.5157C228.188 35.0061 228.89 34.8811 229.399 35.2366C229.909 35.592 230.034 36.2933 229.678 36.8029C227.633 39.7347 224.505 41.3524 221.264 41.656Z" fill="#262626" fill-opacity="0.16"/>
<path d="M220.139 15.9092C216.411 15.9092 213.389 18.9313 213.389 22.6592V30.1592C213.389 33.8871 216.411 36.9092 220.139 36.9092C223.867 36.9092 226.889 33.8871 226.889 30.1592V22.6592C226.889 18.9313 223.867 15.9092 220.139 15.9092Z" fill="black"/>
<rect x="300.139" y="0.908691" width="60" height="60" rx="20" fill="#EFF1F5"/>
<rect x="344.389" y="45.1592" width="23.25" height="23.25" rx="5.25" transform="rotate(-180 344.389 45.1592)" stroke="#A157FF" stroke-width="2.4" stroke-linecap="round" stroke-linejoin="round"/>
<path d="M338.389 18.9087V18.9087C338.389 17.6661 337.381 16.6587 336.139 16.6587L329.124 16.6587C323.752 16.6587 321.066 16.6587 319.15 17.9712C318.386 18.4949 317.725 19.1557 317.201 19.9202C315.889 21.8362 315.889 24.5221 315.889 29.894L315.889 36.9087C315.889 38.1513 316.896 39.1587 318.139 39.1587V39.1587" stroke="#A157FF" stroke-width="2.4" stroke-linecap="round" stroke-linejoin="round"/>
<path d="M330.063 25.1879C330.084 25.111 330.193 25.111 330.214 25.1879V25.1879C330.955 27.9411 333.106 30.0916 335.859 30.8329V30.8329C335.936 30.8536 335.936 30.9628 335.859 30.9835V30.9835C333.106 31.7248 330.955 33.8753 330.214 36.6285V36.6285C330.193 36.7055 330.084 36.7055 330.063 36.6285V36.6285C329.322 33.8753 327.172 31.7248 324.418 30.9835V30.9835C324.341 30.9628 324.341 30.8536 324.418 30.8329V30.8329C327.172 30.0916 329.322 27.9411 330.063 25.1879V25.1879Z" stroke="#A157FF" stroke-width="2.4" stroke-linecap="round" stroke-linejoin="round"/>
<rect x="25.1387" y="90.9087" width="60" height="60" rx="16" fill="#FFF0F2"/>
<g filter="url(#filter1_d_220_453)">
<path d="M61.6072 108.279C59.9128 106.51 57.5004 105.659 55.1387 105.659C52.7769 105.659 50.3645 106.51 48.6701 108.279C46.7379 110.297 45.8887 113.835 45.8887 117.159C45.8887 120.482 46.7379 124.021 48.6701 126.038C50.3645 127.808 52.7769 128.659 55.1387 128.659C57.5004 128.659 59.9128 127.808 61.6072 126.038C63.5394 124.021 64.3887 120.482 64.3887 117.159C64.3887 113.835 63.5394 110.297 61.6072 108.279Z" fill="#FF5574"/>
<path d="M64.3276 125.339C64.7806 125.654 64.8917 126.278 64.5757 126.731C62.5252 129.671 59.374 131.268 56.1388 131.541V135.159C56.1388 135.711 55.691 136.159 55.1388 136.159C54.5865 136.159 54.1388 135.711 54.1388 135.159V131.541C50.9027 131.269 47.7505 129.671 45.6994 126.731C45.3835 126.278 45.4945 125.654 45.9475 125.339C46.4005 125.023 47.0238 125.134 47.3398 125.587C49.193 128.243 52.1533 129.583 55.1387 129.583C58.1233 129.583 61.0826 128.243 62.9354 125.587C63.2513 125.134 63.8747 125.023 64.3276 125.339Z" fill="#FF5574"/>
</g>
<rect x="135.139" y="90.9087" width="60" height="60" rx="20" fill="#EFF1F5"/>
<path d="M150.889 115.193C150.889 113.533 150.889 112.702 151.105 112.03C151.549 110.65 152.63 109.569 154.01 109.125C154.682 108.909 155.513 108.909 157.173 108.909V108.909C157.63 108.909 157.858 108.909 158.077 108.941C158.522 109.007 158.947 109.173 159.32 109.425C159.503 109.549 159.671 109.704 160.007 110.013L160.439 110.409C161.583 111.46 162.155 111.985 162.85 112.287C162.955 112.332 163.061 112.374 163.169 112.411C163.884 112.659 164.661 112.659 166.215 112.659H169.639C173.141 112.659 174.892 112.659 176.217 113.367C177.264 113.927 178.121 114.784 178.68 115.83C179.389 117.156 179.389 118.907 179.389 122.409V122.409C179.389 125.911 179.389 127.662 178.68 128.987C178.121 130.034 177.264 130.891 176.217 131.45C174.892 132.159 173.141 132.159 169.639 132.159H162.889C157.232 132.159 154.403 132.159 152.646 130.401C150.889 128.644 150.889 125.816 150.889 120.159V115.193Z" stroke="#EE65B4" stroke-width="2.4" stroke-linecap="round" stroke-linejoin="round"/>
<path d="M150.889 117.158H178.639" stroke="#EE65B4" stroke-width="2.4" stroke-linecap="round" stroke-linejoin="round"/>
<rect x="245.139" y="90.9087" width="60" height="60" rx="10" fill="#EFF1F5"/>
<path fill-rule="evenodd" clip-rule="evenodd" d="M285.261 106.468L284.32 105.851L283.085 107.731L284.026 108.349C285.764 109.49 287.256 110.974 288.408 112.705L289.031 113.641L290.904 112.395L290.281 111.458C288.962 109.475 287.252 107.776 285.261 106.468ZM268.199 107.731L267.259 108.349C265.521 109.49 264.028 110.974 262.876 112.705L262.253 113.641L260.38 112.395L261.003 111.458C262.322 109.476 264.032 107.776 266.024 106.468L266.964 105.851L268.199 107.731ZM261.638 122.409C261.638 114.953 267.682 108.909 275.138 108.909C282.594 108.909 288.638 114.953 288.638 122.409C288.638 125.824 287.37 128.943 285.279 131.321L287.935 133.99L288.729 134.788L287.134 136.375L286.34 135.577L283.658 132.882C281.334 134.774 278.369 135.909 275.138 135.909C271.875 135.909 268.882 134.751 266.548 132.824L263.791 135.58L262.995 136.375L261.405 134.783L262.201 133.988L264.938 131.253C262.882 128.884 261.638 125.792 261.638 122.409ZM276.263 116.409V115.284H274.013V116.409V122.409V123.534H275.138H281.138H282.263V121.284H281.138H276.263V116.409Z" fill="#6355FF"/>
<rect x="-29.8613" y="180.909" width="60" height="60" rx="20" fill="#EFF1F5"/>
<path d="M-14.1113 210.663C-14.1113 208.798 -14.1113 207.866 -13.8772 207.108C-13.3652 205.452 -12.0683 204.155 -10.4117 203.643C-9.6542 203.409 -8.72195 203.409 -6.85744 203.409V203.409C-6.58828 203.409 -6.4537 203.409 -6.327 203.387C-6.05226 203.339 -5.79619 203.216 -5.58751 203.031C-5.49128 202.946 -5.40721 202.841 -5.23906 202.631L-4.73541 202.001C-4.22384 201.362 -3.96805 201.042 -3.67464 200.783C-3.05281 200.235 -2.29161 199.869 -1.47502 199.726C-1.0897 199.659 -0.680244 199.659 0.138672 199.659V199.659C0.957587 199.659 1.36705 199.659 1.75236 199.726C2.56895 199.869 3.33016 200.235 3.95198 200.783C4.2454 201.042 4.50118 201.362 5.01276 202.001L5.5164 202.631C5.68455 202.841 5.76862 202.946 5.86485 203.031C6.07353 203.216 6.32961 203.339 6.60434 203.387C6.73104 203.409 6.86562 203.409 7.13479 203.409V203.409C8.99929 203.409 9.93154 203.409 10.6891 203.643C12.3456 204.155 13.6425 205.452 14.1545 207.108C14.3887 207.866 14.3887 208.798 14.3887 210.663V212.784C14.3887 216.649 14.3887 218.582 13.4204 219.947C13.0787 220.428 12.6582 220.849 12.1767 221.19C10.812 222.159 8.87922 222.159 5.01367 222.159H-4.73633C-8.60188 222.159 -10.5347 222.159 -11.8994 221.19C-12.3809 220.849 -12.8014 220.428 -13.143 219.947C-14.1113 218.582 -14.1113 216.649 -14.1113 212.784V210.663Z" stroke="#FFB255" stroke-width="2.4" stroke-linecap="round" stroke-linejoin="round"/>
<rect x="-4.36133" y="207.909" width="9" height="9" rx="3.75" stroke="#FFB255" stroke-width="2.4" stroke-linejoin="round"/>
<rect x="80.1387" y="180.909" width="60" height="60" rx="20" fill="#EFF1F5"/>
<path d="M116.139 210.909C116.139 212.098 113.982 213.596 111.624 214.878C109.101 216.25 107.839 216.936 106.739 216.282C105.639 215.628 105.639 214.104 105.639 211.056L105.639 210.762C105.639 207.714 105.639 206.19 106.739 205.536C107.839 204.881 109.101 205.567 111.624 206.939C113.982 208.222 116.139 209.719 116.139 210.909Z" stroke="#FF5574" stroke-width="2.4" stroke-linecap="round" stroke-linejoin="round"/>
<path d="M110.139 196.659C115.038 196.659 117.487 196.659 119.369 197.587C121.146 198.463 122.584 199.901 123.461 201.678C124.389 203.56 124.389 206.01 124.389 210.909V210.909C124.389 215.808 124.389 218.257 123.461 220.139C122.584 221.916 121.146 223.354 119.369 224.231C117.487 225.159 115.038 225.159 110.139 225.159V225.159C105.24 225.159 102.79 225.159 100.908 224.231C99.1312 223.354 97.6931 221.916 96.8168 220.139C95.8887 218.257 95.8887 215.808 95.8887 210.909V210.909C95.8887 206.01 95.8887 203.56 96.8168 201.678C97.6931 199.901 99.1312 198.463 100.908 197.587C102.79 196.659 105.24 196.659 110.139 196.659V196.659Z" stroke="#FF5574" stroke-width="2.4" stroke-linecap="round" stroke-linejoin="round"/>
<rect x="190.139" y="180.909" width="60" height="60" rx="16" fill="#F0F4FF"/>
<g filter="url(#filter2_d_220_453)">
<path fill-rule="evenodd" clip-rule="evenodd" d="M218.876 195.721H221.401C223.396 195.721 224.979 195.721 226.24 195.875C227.54 196.035 228.608 196.368 229.521 197.111C230.433 197.853 230.976 198.832 231.395 200.073C231.802 201.277 232.122 202.827 232.526 204.78L235.036 216.909H205.242L207.751 204.78C208.155 202.827 208.476 201.277 208.883 200.073C209.302 198.832 209.845 197.853 210.757 197.111C211.669 196.368 212.737 196.035 214.037 195.875C215.299 195.721 216.882 195.721 218.876 195.721ZM220.139 201.659C220.691 201.659 221.139 202.106 221.139 202.659V210.744L224.682 207.202C225.072 206.811 225.705 206.811 226.096 207.202C226.486 207.592 226.486 208.225 226.096 208.616L220.846 213.866C220.455 214.256 219.822 214.256 219.432 213.866L214.182 208.616C213.791 208.225 213.791 207.592 214.182 207.202C214.572 206.811 215.205 206.811 215.596 207.202L219.139 210.744V202.659C219.139 202.106 219.586 201.659 220.139 201.659Z" fill="#5585FF"/>
<path d="M204.951 218.909C204.951 218.942 204.951 218.98 204.951 219.027L204.951 219.116C204.951 219.85 204.951 220.313 205.004 220.715C205.369 223.493 207.555 225.679 210.333 226.043C210.735 226.096 211.197 226.096 211.932 226.096H228.346C229.08 226.096 229.543 226.096 229.945 226.043C232.723 225.679 234.909 223.493 235.273 220.715C235.326 220.313 235.326 219.85 235.326 219.116L235.326 219.027C235.326 218.98 235.326 218.942 235.326 218.909H204.951Z" fill="#5585FF"/>
</g>
<rect x="300.139" y="180.909" width="60" height="60" rx="10" fill="#EDF0F7"/>
<path d="M342.889 212.409C342.889 219.451 337.18 225.159 330.139 225.159C323.097 225.159 317.389 219.451 317.389 212.409C317.389 205.368 323.097 199.659 330.139 199.659C337.18 199.659 342.889 205.368 342.889 212.409Z" stroke="black" stroke-width="2" stroke-linecap="square"/>
<path d="M330.139 206.409V212.409H336.139" stroke="black" stroke-width="2" stroke-linecap="square"/>
<path d="M321.642 197.408C319.777 198.633 318.176 200.225 316.94 202.081" stroke="black" stroke-width="2" stroke-linecap="square"/>
<path d="M317.996 225.159L321.433 221.725" stroke="black" stroke-width="2" stroke-linecap="square"/>
</g>
<defs>
<filter id="filter0_d_220_453" x="-24.8105" y="10.4087" width="50.1562" height="49.75" filterUnits="userSpaceOnUse" color-interpolation-filters="sRGB">
<feFlood flood-opacity="0" result="BackgroundImageFix"/>
<feColorMatrix in="SourceAlpha" type="matrix" values="0 0 0 0 0 0 0 0 0 0 0 0 0 0 0 0 0 0 127 0" result="hardAlpha"/>
<feOffset dy="4"/>
<feGaussianBlur stdDeviation="5"/>
<feComposite in2="hardAlpha" operator="out"/>
<feColorMatrix type="matrix" values="0 0 0 0 0.333333 0 0 0 0 0.521569 0 0 0 0 1 0 0 0 0.4 0"/>
<feBlend mode="normal" in2="BackgroundImageFix" result="effect1_dropShadow_220_453"/>
<feBlend mode="normal" in="SourceGraphic" in2="effect1_dropShadow_220_453" result="shape"/>
</filter>
<filter id="filter1_d_220_453" x="35.5195" y="99.6587" width="39.2363" height="50.5" filterUnits="userSpaceOnUse" color-interpolation-filters="sRGB">
<feFlood flood-opacity="0" result="BackgroundImageFix"/>
<feColorMatrix in="SourceAlpha" type="matrix" values="0 0 0 0 0 0 0 0 0 0 0 0 0 0 0 0 0 0 127 0" result="hardAlpha"/>
<feOffset dy="4"/>
<feGaussianBlur stdDeviation="5"/>
<feComposite in2="hardAlpha" operator="out"/>
<feColorMatrix type="matrix" values="0 0 0 0 1 0 0 0 0 0.333333 0 0 0 0 0.454902 0 0 0 0.4 0"/>
<feBlend mode="normal" in2="BackgroundImageFix" result="effect1_dropShadow_220_453"/>
<feBlend mode="normal" in="SourceGraphic" in2="effect1_dropShadow_220_453" result="shape"/>
</filter>
<filter id="filter2_d_220_453" x="194.951" y="189.721" width="50.375" height="50.375" filterUnits="userSpaceOnUse" color-interpolation-filters="sRGB">
<feFlood flood-opacity="0" result="BackgroundImageFix"/>
<feColorMatrix in="SourceAlpha" type="matrix" values="0 0 0 0 0 0 0 0 0 0 0 0 0 0 0 0 0 0 127 0" result="hardAlpha"/>
<feOffset dy="4"/>
<feGaussianBlur stdDeviation="5"/>
<feComposite in2="hardAlpha" operator="out"/>
<feColorMatrix type="matrix" values="0 0 0 0 0.333333 0 0 0 0 0.521569 0 0 0 0 1 0 0 0 0.4 0"/>
<feBlend mode="normal" in2="BackgroundImageFix" result="effect1_dropShadow_220_453"/>
<feBlend mode="normal" in="SourceGraphic" in2="effect1_dropShadow_220_453" result="shape"/>
</filter>
<clipPath id="clip0_220_453">
<rect width="330" height="240" fill="white" transform="translate(0.138672 0.908691)"/>
</clipPath>
</defs>
</svg>
