<svg width="388" height="303" viewBox="0 0 388 303" fill="none" xmlns="http://www.w3.org/2000/svg">
<g opacity="0.2">
<path d="M10 83.1527C10 78.7238 10 76.5094 10.5774 74.7159C11.7616 71.0379 14.6444 68.1552 18.3223 66.971C20.1158 66.3936 22.3303 66.3936 26.7591 66.3936V66.3936C27.9766 66.3936 28.5853 66.3936 29.1692 66.4802C30.3566 66.6564 31.4891 67.0975 32.4828 67.7709C32.9715 68.102 33.4198 68.5138 34.3165 69.3372L35.4667 70.3936C38.5187 73.1965 40.0447 74.5979 41.8973 75.4018C42.1761 75.5228 42.4593 75.6331 42.7465 75.7326C44.6547 76.3936 46.7266 76.3936 50.8704 76.3936H60C69.3385 76.3936 74.0078 76.3936 77.5423 78.2828C80.3332 79.7745 82.619 82.0604 84.1107 84.8512C86 88.3858 86 93.055 86 102.394V102.394C86 111.732 86 116.401 84.1107 119.936C82.619 122.727 80.3332 125.013 77.5423 126.504C74.0078 128.394 69.3385 128.394 60 128.394H42C26.9151 128.394 19.3726 128.394 14.6863 123.707C10 119.021 10 111.478 10 96.3936V83.1527Z" stroke="white" stroke-width="3" stroke-linecap="round" stroke-linejoin="round"/>
<path d="M10 88.3936H84" stroke="white" stroke-width="3" stroke-linecap="round" stroke-linejoin="round"/>
</g>
<g opacity="0.2">
<path d="M302 83.1527C302 78.7238 302 76.5094 302.577 74.7159C303.762 71.0379 306.644 68.1552 310.322 66.971C312.116 66.3936 314.33 66.3936 318.759 66.3936V66.3936C319.977 66.3936 320.585 66.3936 321.169 66.4802C322.357 66.6564 323.489 67.0975 324.483 67.7709C324.971 68.102 325.42 68.5138 326.316 69.3372L327.467 70.3936C330.519 73.1965 332.045 74.5979 333.897 75.4018C334.176 75.5228 334.459 75.6331 334.746 75.7326C336.655 76.3936 338.727 76.3936 342.87 76.3936H352C361.339 76.3936 366.008 76.3936 369.542 78.2828C372.333 79.7745 374.619 82.0604 376.111 84.8512C378 88.3858 378 93.055 378 102.394V102.394C378 111.732 378 116.401 376.111 119.936C374.619 122.727 372.333 125.013 369.542 126.504C366.008 128.394 361.339 128.394 352 128.394H334C318.915 128.394 311.373 128.394 306.686 123.707C302 119.021 302 111.478 302 96.3936V83.1527Z" stroke="white" stroke-width="6" stroke-linecap="round" stroke-linejoin="round"/>
<path d="M302 88.3936H376" stroke="white" stroke-width="6" stroke-linecap="round" stroke-linejoin="round"/>
</g>
<path d="M156 33.1527C156 28.7238 156 26.5094 156.577 24.7159C157.762 21.0379 160.644 18.1552 164.322 16.971C166.116 16.3936 168.33 16.3936 172.759 16.3936V16.3936C173.977 16.3936 174.585 16.3936 175.169 16.4802C176.357 16.6564 177.489 17.0975 178.483 17.7709C178.971 18.102 179.42 18.5138 180.316 19.3372L181.467 20.3936C184.519 23.1965 186.045 24.5979 187.897 25.4018C188.176 25.5228 188.459 25.6331 188.746 25.7326C190.655 26.3936 192.727 26.3936 196.87 26.3936H206C215.339 26.3936 220.008 26.3936 223.542 28.2828C226.333 29.7745 228.619 32.0604 230.111 34.8512C232 38.3858 232 43.055 232 52.3936V52.3936C232 61.7321 232 66.4013 230.111 69.9359C228.619 72.7267 226.333 75.0126 223.542 76.5043C220.008 78.3936 215.339 78.3936 206 78.3936H188C172.915 78.3936 165.373 78.3936 160.686 73.7073C156 69.021 156 61.4785 156 46.3936V33.1527Z" stroke="white" stroke-width="4" stroke-linecap="round" stroke-linejoin="round"/>
<path d="M156 38.3936H230" stroke="white" stroke-width="4" stroke-linecap="round" stroke-linejoin="round"/>
<g style="mix-blend-mode:soft-light">
<path fill-rule="evenodd" clip-rule="evenodd" d="M193 143C151.579 143 118 176.579 118 218C118 259.421 151.579 293 193 293C234.421 293 268 259.421 268 218C268 176.579 234.421 143 193 143ZM108 218C108 171.056 146.056 133 193 133C239.944 133 278 171.056 278 218C278 264.944 239.944 303 193 303C146.056 303 108 264.944 108 218Z" fill="white"/>
</g>
<path d="M193 138C207.043 138 220.838 141.697 233 148.718C245.162 155.739 255.261 165.838 262.282 178C269.304 190.162 273 203.957 273 218C273 232.043 269.303 245.838 262.282 258C255.261 270.162 245.162 280.261 233 287.282C220.838 294.304 207.043 298 193 298C178.957 298 165.162 294.303 153 287.282C140.838 280.261 130.739 270.162 123.718 258" stroke="white" stroke-width="10"/>
<path d="M187.5 180L194 174L200.5 180" stroke="white" stroke-width="2"/>
<path d="M177.947 219.955V218.017L182.805 210.364H184.475V213.045H183.487L180.424 217.892V217.983H187.327V219.955H177.947ZM183.532 222V219.364L183.577 218.506V210.364H185.884V222H183.532ZM189.035 222V210.364H193.626C194.508 210.364 195.26 210.532 195.881 210.869C196.503 211.203 196.976 211.667 197.302 212.261C197.631 212.852 197.796 213.534 197.796 214.307C197.796 215.08 197.629 215.761 197.296 216.352C196.963 216.943 196.48 217.403 195.847 217.733C195.219 218.062 194.457 218.227 193.563 218.227H190.637V216.256H193.165C193.639 216.256 194.029 216.174 194.336 216.011C194.647 215.845 194.878 215.616 195.029 215.324C195.184 215.028 195.262 214.689 195.262 214.307C195.262 213.92 195.184 213.583 195.029 213.295C194.878 213.004 194.647 212.778 194.336 212.619C194.025 212.456 193.631 212.375 193.154 212.375H191.495V222H189.035ZM201.701 210.364L204.048 214.33H204.138L206.496 210.364H209.275L205.724 216.182L209.354 222H206.525L204.138 218.028H204.048L201.661 222H198.843L202.485 216.182L198.911 210.364H201.701Z" fill="white"/>
<path d="M187.5 253L194 259L200.5 253" stroke="white" stroke-width="2"/>
</svg>
