<svg width="330" height="205" viewBox="0 0 330 205" fill="none" xmlns="http://www.w3.org/2000/svg">
<g clip-path="url(#clip0_220_541)">
<path opacity="0.5" d="M48 15.7069C48 12.3264 48 10.6362 48.9566 9.51461C49.0938 9.35381 49.2435 9.20413 49.4043 9.06698C50.5259 8.11035 52.2161 8.11035 55.5966 8.11035C56.98 8.11035 57.6717 8.11035 58.3087 8.33136C58.4031 8.36411 58.4962 8.40039 58.5879 8.44011C59.2065 8.70818 59.716 9.17606 60.7349 10.1118L61.7049 11.0026C62.8389 12.0441 63.406 12.5648 64.1062 12.8376C64.8065 13.1104 65.5764 13.1104 67.1161 13.1104H78C81.7712 13.1104 83.6569 13.1104 84.8284 14.2819C86 15.4535 86 17.3391 86 21.1104V31.1104C86 34.8816 86 36.7672 84.8284 37.9388C83.6569 39.1104 81.7712 39.1104 78 39.1104H56C52.2288 39.1104 50.3431 39.1104 49.1716 37.9388C48 36.7672 48 34.8816 48 31.1104V15.7069Z" fill="white" stroke="white" stroke-width="3" stroke-linecap="round" stroke-linejoin="round"/>
<path d="M49.5 19.1094L85 19.1094" stroke="white" stroke-width="3" stroke-linecap="round" stroke-linejoin="round"/>
<path d="M146 16.4894C146 14.275 146 13.1678 146.289 12.271C146.881 10.432 148.322 8.99068 150.161 8.39859C151.058 8.10986 152.165 8.10986 154.38 8.10986V8.10986C154.988 8.10986 155.293 8.10986 155.585 8.15319C156.178 8.24128 156.745 8.46184 157.241 8.79853C157.486 8.9641 157.71 9.16997 158.158 9.58171L158.733 10.1099C160.259 11.5113 161.022 12.212 161.949 12.614C162.088 12.6745 162.23 12.7296 162.373 12.7794C163.327 13.1099 164.363 13.1099 166.435 13.1099H171C175.669 13.1099 178.004 13.1099 179.771 14.0545C181.167 14.8004 182.31 15.9433 183.055 17.3387C184 19.106 184 21.4406 184 26.1099V26.1099C184 30.7791 184 33.1138 183.055 34.881C182.31 36.2765 181.167 37.4194 179.771 38.1652C178.004 39.1099 175.669 39.1099 171 39.1099H162C154.458 39.1099 150.686 39.1099 148.343 36.7667C146 34.4236 146 30.6523 146 23.1099V16.4894Z" stroke="white" stroke-width="3" stroke-linecap="round" stroke-linejoin="round"/>
<path d="M146 19.1099L183 19.1099" stroke="white" stroke-width="3" stroke-linecap="round" stroke-linejoin="round"/>
<path d="M243 20.1099V37.1099C243 38.7667 244.343 40.1099 246 40.1099H280C281.657 40.1099 283 38.7667 283 37.1099V20.1099L243 20.1099Z" fill="#EEF1F6" fill-opacity="0.3"/>
<path d="M243 10.1104C243 8.4535 244.343 7.11035 246 7.11035L253.777 7.11035C254.528 7.11035 255.252 7.39242 255.806 7.90076L260.103 11.8469C260.287 12.0163 260.529 12.1104 260.779 12.1104L280 12.1104C281.657 12.1104 283 13.4535 283 15.1104V18.1104L243 18.1104V10.1104Z" fill="white"/>
<path d="M-1 97.1099H37" stroke="white" stroke-width="3" stroke-linecap="round" stroke-linejoin="round"/>
<path d="M-1 88.1104C-1 87.0058 -0.10457 86.1104 1 86.1104H8.77652C9.27754 86.1104 9.76032 86.2984 10.1293 86.6373L14.4262 90.5834C14.7952 90.9223 15.278 91.1104 15.779 91.1104H35C36.1046 91.1104 37 92.0058 37 93.1104L37 115.11C37 116.215 36.1046 117.11 35 117.11H0.999999C-0.10457 117.11 -1 116.215 -1 115.11L-1 88.1104Z" stroke="white" stroke-width="3" stroke-linecap="round" stroke-linejoin="round"/>
<path d="M97 86.1104H107.556L113 91.1104H135V117.11H97V86.1104Z" fill="white" fill-opacity="0.55" stroke="white" stroke-width="3"/>
<path d="M97 97.1099H135" stroke="white" stroke-width="3"/>
<path fill-rule="evenodd" clip-rule="evenodd" d="M194 88.1104C194 86.4535 195.343 85.1104 197 85.1104H204.777C205.528 85.1104 206.252 85.3924 206.806 85.9008L211.103 89.8469C211.287 90.0163 211.529 90.1104 211.779 90.1104H231C232.657 90.1104 234 91.4535 234 93.1104V96.1101H194C194 96.1101 194 96.1101 194 96.1101L194 88.1104ZM194 98.1101V115.11C194 116.767 195.343 118.11 197 118.11H231C232.657 118.11 234 116.767 234 115.11V98.1101H194C194 98.1101 194 98.1101 194 98.1101Z" fill="white"/>
<path d="M293 88.1104C293 87.0058 293.895 86.1104 295 86.1104H302.777C303.278 86.1104 303.76 86.2984 304.129 86.6373L308.426 90.5834C308.795 90.9223 309.278 91.1104 309.779 91.1104H329C330.105 91.1104 331 92.0058 331 93.1104V115.11C331 116.215 330.105 117.11 329 117.11H295C293.895 117.11 293 116.215 293 115.11V88.1104Z" fill="white" fill-opacity="0.55" stroke="white" stroke-width="3" stroke-linecap="round" stroke-linejoin="round"/>
<path d="M293 97.1099H331" stroke="white" stroke-width="3" stroke-linecap="round" stroke-linejoin="round"/>
<path d="M47 163.11H58.9451L64.3895 168.11H87V174.11H47V163.11Z" fill="white"/>
<path d="M47 176.11V196.11H87V176.11H47Z" fill="#EEF1F6" fill-opacity="0.3"/>
<path d="M146 175.11H184" stroke="white" stroke-width="3"/>
<path d="M146 164.11H156.556L162 169.11H184V195.11H146V164.11Z" stroke="white" stroke-width="3"/>
<path fill-rule="evenodd" clip-rule="evenodd" d="M243 163.11H254.945L260.39 168.11H283V196.11H243L243 176.11H283V174.11H243V163.11Z" fill="white"/>
</g>
<defs>
<clipPath id="clip0_220_541">
<rect width="330" height="204" fill="white" transform="translate(0 0.109863)"/>
</clipPath>
</defs>
</svg>
