<svg width="600" height="615" viewBox="0 0 600 615" fill="none" xmlns="http://www.w3.org/2000/svg">
<g filter="url(#filter0_b_12757_23370)">
<rect width="600" height="615" fill="url(#paint0_linear_12757_23370)"/>
</g>
<g filter="url(#filter1_d_12757_23370)">
<rect x="40" y="40" width="340" height="370" rx="16" fill="#010818"/>
<path d="M77.275 84H70.9V73.995H73.045V82.125H77.275V84ZM79.7597 75.975C79.1447 75.975 78.6347 75.465 78.6347 74.835C78.6347 74.205 79.1447 73.71 79.7597 73.71C80.3897 73.71 80.8997 74.205 80.8997 74.835C80.8997 75.465 80.3897 75.975 79.7597 75.975ZM80.7197 84H78.8147V76.755H80.7197V84ZM85.3687 84.18C84.1087 84.18 82.8937 83.76 82.1287 83.055L82.9537 81.675C83.4937 82.185 84.5587 82.68 85.4587 82.68C86.2837 82.68 86.6737 82.365 86.6737 81.915C86.6737 80.73 82.3837 81.705 82.3837 78.855C82.3837 77.64 83.4337 76.575 85.3537 76.575C86.5687 76.575 87.5437 76.995 88.2637 77.565L87.4987 78.915C87.0637 78.465 86.2387 78.075 85.3537 78.075C84.6637 78.075 84.2137 78.375 84.2137 78.78C84.2137 79.845 88.5187 78.945 88.5187 81.87C88.5187 83.205 87.3787 84.18 85.3687 84.18ZM92.4871 84.18C91.1521 84.18 90.4471 83.49 90.4471 82.185V78.42H89.2471V76.755H90.4471V74.775H92.3521V76.755H93.8221V78.42H92.3521V81.675C92.3521 82.14 92.5921 82.485 93.0121 82.485C93.2971 82.485 93.5671 82.38 93.6721 82.26L94.0771 83.715C93.7921 83.97 93.2821 84.18 92.4871 84.18Z" fill="white"/>
<path fill-rule="evenodd" clip-rule="evenodd" d="M73.1172 129.5L75.6512 138.891C75.8278 139.545 76.4215 140 77.0994 140H86.9009C87.5788 140 88.1725 139.545 88.3491 138.891L90.8831 129.5L73.1172 129.5ZM82.0001 130.75C82.4144 130.75 82.7501 131.086 82.7501 131.5V137C82.7501 137.414 82.4144 137.75 82.0001 137.75C81.5859 137.75 81.2501 137.414 81.2501 137V131.5C81.2501 131.086 81.5859 130.75 82.0001 130.75ZM86.4765 132.188C86.5838 131.788 86.3463 131.377 85.9462 131.27C85.5461 131.162 85.1349 131.4 85.0277 131.8L83.6042 137.113C83.4969 137.513 83.7344 137.924 84.1345 138.031C84.5346 138.138 84.9458 137.901 85.053 137.501L86.4765 132.188ZM78.0541 131.27C78.4542 131.162 78.8654 131.4 78.9726 131.8L80.3961 137.113C80.5033 137.513 80.2659 137.924 79.8658 138.031C79.4657 138.138 79.0545 137.901 78.9473 137.501L77.5237 132.188C77.4165 131.788 77.654 131.377 78.0541 131.27Z" fill="#EEF1F6" fill-opacity="0.3"/>
<path d="M90.5 126.5C91.3284 126.5 92 127.172 92 128C92 128.175 91.9699 128.344 91.9146 128.5L72.0854 128.5C72.0301 128.344 72 128.175 72 128C72 127.172 72.6716 126.5 73.5 126.5H90.5Z" fill="white"/>
<path d="M77.1209 120.217C77.8294 119.788 78.7518 120.014 79.1812 120.723L82.6824 126.5C112.662 126.5 54.0947 126.5 79.1745 126.5L76.6156 122.278C76.1862 121.569 76.4124 120.647 77.1209 120.217Z" fill="#EEF1F6" fill-opacity="0.3"/>
<path d="M81.9997 130.75C82.4139 130.75 82.7497 131.086 82.7497 131.5V137C82.7497 137.414 82.4139 137.75 81.9997 137.75C81.5855 137.75 81.2497 137.414 81.2497 137V131.5C81.2497 131.086 81.5855 130.75 81.9997 130.75Z" fill="white"/>
<path d="M85.9458 131.27C86.3459 131.377 86.5833 131.788 86.4761 132.188L85.0526 137.501C84.9454 137.901 84.5341 138.138 84.134 138.031C83.7339 137.924 83.4965 137.513 83.6037 137.113L85.0272 131.8C85.1344 131.4 85.5457 131.162 85.9458 131.27Z" fill="white"/>
<path d="M78.9722 131.8C78.865 131.4 78.4537 131.162 78.0536 131.27C77.6535 131.377 77.4161 131.788 77.5233 132.188L78.9468 137.501C79.054 137.901 79.4653 138.138 79.8654 138.031C80.2655 137.924 80.5029 137.513 80.3957 137.113L78.9722 131.8Z" fill="white"/>
<path d="M109.488 134.182C106.772 134.182 104.588 132.264 104.588 129.338C104.588 126.398 106.772 124.508 109.488 124.508C111.308 124.508 112.498 125.376 113.24 126.44L111.91 127.21C111.406 126.51 110.524 125.964 109.488 125.964C107.64 125.964 106.268 127.364 106.268 129.338C106.268 131.284 107.64 132.712 109.488 132.712C110.44 132.712 111.28 132.278 111.7 131.872V130.43H108.9V128.988H113.324V132.474C112.414 133.496 111.098 134.182 109.488 134.182ZM116.457 134H114.987V127.238H116.457V128.218C116.975 127.574 117.787 127.07 118.655 127.07V128.526C118.529 128.498 118.389 128.484 118.207 128.484C117.577 128.484 116.751 128.904 116.457 129.394V134ZM122.907 134.168C120.751 134.168 119.435 132.544 119.435 130.612C119.435 128.666 120.751 127.07 122.907 127.07C125.063 127.07 126.379 128.666 126.379 130.612C126.379 132.544 125.063 134.168 122.907 134.168ZM122.907 132.866C124.167 132.866 124.853 131.816 124.853 130.612C124.853 129.422 124.167 128.372 122.907 128.372C121.661 128.372 120.961 129.422 120.961 130.612C120.961 131.816 121.661 132.866 122.907 132.866ZM130.96 134.168C128.916 134.168 127.474 132.656 127.474 130.612C127.474 128.568 128.916 127.07 130.96 127.07C132.29 127.07 133.074 127.63 133.55 128.274L132.584 129.156C132.206 128.624 131.688 128.372 131.03 128.372C129.812 128.372 128.986 129.296 128.986 130.612C128.986 131.928 129.812 132.866 131.03 132.866C131.688 132.866 132.206 132.586 132.584 132.054L133.55 132.964C133.074 133.594 132.29 134.168 130.96 134.168ZM137.988 134.168C135.944 134.168 134.446 132.754 134.446 130.612C134.446 128.652 135.874 127.07 137.876 127.07C139.906 127.07 141.194 128.61 141.194 130.738V131.102H135.986C136.098 132.11 136.854 132.964 138.128 132.964C138.8 132.964 139.57 132.698 140.06 132.208L140.732 133.174C140.046 133.818 139.052 134.168 137.988 134.168ZM139.78 130.052C139.738 129.254 139.192 128.274 137.862 128.274C136.616 128.274 136.028 129.24 135.972 130.052H139.78ZM144.115 134H142.645V127.238H144.115V128.218C144.633 127.574 145.445 127.07 146.313 127.07V128.526C146.187 128.498 146.047 128.484 145.865 128.484C145.235 128.484 144.409 128.904 144.115 129.394V134ZM147.219 136.646L147.429 135.33C147.583 135.4 147.821 135.442 147.989 135.442C148.465 135.442 148.773 135.302 148.969 134.854L149.305 134.084L146.519 127.238H148.101L150.075 132.306L152.049 127.238H153.617L150.355 135.218C149.893 136.366 149.095 136.73 148.045 136.744C147.835 136.744 147.415 136.702 147.219 136.646ZM159.619 134H158.149V124.662H159.619V134ZM162.268 126.412C161.764 126.412 161.358 126.006 161.358 125.502C161.358 124.998 161.764 124.592 162.268 124.592C162.772 124.592 163.178 124.998 163.178 125.502C163.178 126.006 162.772 126.412 162.268 126.412ZM162.996 134H161.526V127.238H162.996V134ZM167.227 134.168C166.065 134.168 165.029 133.79 164.329 133.104L165.001 132.054C165.477 132.544 166.415 132.992 167.283 132.992C168.165 132.992 168.627 132.628 168.627 132.096C168.627 130.766 164.539 131.718 164.539 129.114C164.539 128.008 165.491 127.07 167.199 127.07C168.347 127.07 169.215 127.476 169.817 128.008L169.201 129.044C168.795 128.596 168.053 128.232 167.199 128.232C166.429 128.232 165.953 128.596 165.953 129.072C165.953 130.262 170.041 129.366 170.041 132.054C170.041 133.258 169.047 134.168 167.227 134.168ZM173.551 134.168C172.403 134.168 171.815 133.552 171.815 132.418V128.512H170.695V127.238H171.815V125.39H173.285V127.238H174.657V128.512H173.285V132.054C173.285 132.516 173.509 132.866 173.929 132.866C174.209 132.866 174.461 132.74 174.573 132.614L174.923 133.734C174.657 133.972 174.223 134.168 173.551 134.168Z" fill="#8EEB8E"/>
<rect x="332" y="122" width="16" height="16" rx="2" fill="#8EEB8E" stroke="#8EEB8E" stroke-width="2"/>
<path d="M336.283 130.521L338.721 132.91L344.144 126.962" stroke="#2F3037" stroke-width="2" stroke-linecap="square"/>
<path fill-rule="evenodd" clip-rule="evenodd" d="M82 170.25C77.1675 170.25 73.25 174.168 73.25 179C73.25 183.832 77.1675 187.75 82 187.75C86.8325 187.75 90.75 183.832 90.75 179C90.75 174.168 86.8325 170.25 82 170.25ZM71.75 179C71.75 173.339 76.3391 168.75 82 168.75C87.6609 168.75 92.25 173.339 92.25 179C92.25 184.661 87.6609 189.25 82 189.25C76.3391 189.25 71.75 184.661 71.75 179Z" fill="white"/>
<path fill-rule="evenodd" clip-rule="evenodd" d="M82 172C78.134 172 75 175.134 75 179C75 182.866 78.134 186 82 186C85.866 186 89 182.866 89 179C89 175.134 85.866 172 82 172ZM82 174.5C80.6193 174.5 79.5 175.619 79.5 177C79.5 177.636 79.7373 178.216 80.1281 178.657C79.2342 179.062 78.4694 179.745 77.9005 180.59C77.6673 180.937 77.4654 181.312 77.2988 181.711C77.139 182.093 77.3192 182.532 77.7013 182.692C78.0835 182.852 78.5228 182.672 78.6826 182.289C78.8125 181.979 78.9681 181.69 79.145 181.427C79.8599 180.365 80.8967 179.75 82.0001 179.75C83.1034 179.75 84.1402 180.365 84.8551 181.427C85.032 181.69 85.1876 181.979 85.3175 182.289C85.4773 182.672 85.9166 182.852 86.2988 182.692C86.6809 182.532 86.8611 182.093 86.7013 181.711C86.5347 181.312 86.3328 180.937 86.0996 180.59C85.5306 179.745 84.7658 179.062 83.872 178.657C84.2628 178.216 84.5 177.636 84.5 177C84.5 175.619 83.3807 174.5 82 174.5Z" fill="#EEF1F6" fill-opacity="0.3"/>
<path fill-rule="evenodd" clip-rule="evenodd" d="M82.0002 174.5C80.6195 174.5 79.5002 175.619 79.5002 177C79.5002 177.636 79.7375 178.216 80.1283 178.657C79.2344 179.062 78.4696 179.745 77.9007 180.59C77.6675 180.937 77.4656 181.312 77.299 181.711C77.1392 182.093 77.3194 182.532 77.7015 182.692C78.0837 182.852 78.523 182.672 78.6828 182.289C78.8127 181.979 78.9683 181.69 79.1452 181.427C79.8601 180.365 80.8969 179.75 82.0002 179.75C83.1036 179.75 84.1404 180.365 84.8553 181.427C85.0322 181.69 85.1878 181.979 85.3177 182.289C85.4775 182.672 85.9168 182.852 86.299 182.692C86.6811 182.532 86.8613 182.093 86.7015 181.711C86.5349 181.312 86.333 180.937 86.0998 180.59C85.5308 179.745 84.766 179.062 83.8722 178.657C84.2629 178.216 84.5002 177.636 84.5002 177C84.5002 175.619 83.3809 174.5 82.0002 174.5Z" fill="white"/>
<path opacity="0.8" d="M106.632 183H104.994V173.662H109.11C111.07 173.662 112.148 174.992 112.148 176.588C112.148 178.17 111.056 179.5 109.11 179.5H106.632V183ZM108.886 178.058C109.81 178.058 110.468 177.47 110.468 176.588C110.468 175.692 109.81 175.104 108.886 175.104H106.632V178.058H108.886ZM116.414 183.168C114.37 183.168 112.872 181.754 112.872 179.612C112.872 177.652 114.3 176.07 116.302 176.07C118.332 176.07 119.62 177.61 119.62 179.738V180.102H114.412C114.524 181.11 115.28 181.964 116.554 181.964C117.226 181.964 117.996 181.698 118.486 181.208L119.158 182.174C118.472 182.818 117.478 183.168 116.414 183.168ZM118.206 179.052C118.164 178.254 117.618 177.274 116.288 177.274C115.042 177.274 114.454 178.24 114.398 179.052H118.206ZM122.541 183H121.071V176.238H122.541V177.218C123.059 176.574 123.871 176.07 124.739 176.07V177.526C124.613 177.498 124.473 177.484 124.291 177.484C123.661 177.484 122.835 177.904 122.541 178.394V183ZM128.249 183.168C127.087 183.168 126.051 182.79 125.351 182.104L126.023 181.054C126.499 181.544 127.437 181.992 128.305 181.992C129.187 181.992 129.649 181.628 129.649 181.096C129.649 179.766 125.561 180.718 125.561 178.114C125.561 177.008 126.513 176.07 128.221 176.07C129.369 176.07 130.237 176.476 130.839 177.008L130.223 178.044C129.817 177.596 129.075 177.232 128.221 177.232C127.451 177.232 126.975 177.596 126.975 178.072C126.975 179.262 131.063 178.366 131.063 181.054C131.063 182.258 130.069 183.168 128.249 183.168ZM135.594 183.168C133.438 183.168 132.122 181.544 132.122 179.612C132.122 177.666 133.438 176.07 135.594 176.07C137.75 176.07 139.066 177.666 139.066 179.612C139.066 181.544 137.75 183.168 135.594 183.168ZM135.594 181.866C136.854 181.866 137.54 180.816 137.54 179.612C137.54 178.422 136.854 177.372 135.594 177.372C134.348 177.372 133.648 178.422 133.648 179.612C133.648 180.816 134.348 181.866 135.594 181.866ZM146.615 183H145.145V178.772C145.145 177.708 144.599 177.372 143.773 177.372C143.031 177.372 142.387 177.82 142.037 178.268V183H140.567V176.238H142.037V177.148C142.485 176.616 143.367 176.07 144.431 176.07C145.887 176.07 146.615 176.854 146.615 178.24V183ZM154.138 183H152.668V182.258C152.164 182.846 151.366 183.168 150.47 183.168C149.378 183.168 148.132 182.412 148.132 180.928C148.132 179.36 149.364 178.716 150.47 178.716C151.394 178.716 152.164 179.01 152.668 179.584V178.576C152.668 177.792 152.01 177.316 151.086 177.316C150.33 177.316 149.658 177.596 149.084 178.184L148.468 177.162C149.252 176.406 150.232 176.07 151.31 176.07C152.822 176.07 154.138 176.7 154.138 178.506V183ZM151.058 182.16C151.688 182.16 152.318 181.922 152.668 181.46V180.424C152.318 179.962 151.688 179.724 151.058 179.724C150.232 179.724 149.602 180.214 149.602 180.942C149.602 181.684 150.232 182.16 151.058 182.16ZM157.514 183H156.044V173.662H157.514V183ZM170.478 183H168.938L167.356 178.044L165.788 183H164.248L162.148 176.238H163.674L165.102 181.152L166.712 176.238H168.014L169.61 181.152L171.038 176.238H172.578L170.478 183ZM176.664 183.168C174.508 183.168 173.192 181.544 173.192 179.612C173.192 177.666 174.508 176.07 176.664 176.07C178.82 176.07 180.136 177.666 180.136 179.612C180.136 181.544 178.82 183.168 176.664 183.168ZM176.664 181.866C177.924 181.866 178.61 180.816 178.61 179.612C178.61 178.422 177.924 177.372 176.664 177.372C175.418 177.372 174.718 178.422 174.718 179.612C174.718 180.816 175.418 181.866 176.664 181.866ZM183.108 183H181.638V176.238H183.108V177.218C183.626 176.574 184.438 176.07 185.306 176.07V177.526C185.18 177.498 185.04 177.484 184.858 177.484C184.228 177.484 183.402 177.904 183.108 178.394V183ZM192.819 183H190.971L188.913 180.2L187.961 181.18V183H186.491V173.662H187.961V179.5L190.943 176.238H192.763L189.963 179.304L192.819 183Z" fill="white"/>
<rect x="332" y="171" width="16" height="16" rx="2" stroke="#676F7E" stroke-width="2"/>
<path d="M76.0133 221.619C76.3153 221.335 76.3303 220.861 76.0469 220.559C75.7634 220.256 75.2888 220.241 74.9867 220.525C72.9955 222.394 71.75 225.052 71.75 228C71.75 233.661 76.3391 238.25 82 238.25C87.6609 238.25 92.25 233.661 92.25 228C92.25 225.052 91.0045 222.394 89.0133 220.525C88.7112 220.241 88.2366 220.256 87.9531 220.559C87.6697 220.861 87.6847 221.335 87.9867 221.619C89.6885 223.216 90.75 225.483 90.75 228C90.75 232.833 86.8325 236.75 82 236.75C77.1675 236.75 73.25 232.833 73.25 228C73.25 225.483 74.3115 223.216 76.0133 221.619Z" fill="#EEF1F6" fill-opacity="0.3"/>
<path d="M80.5 218C80.3341 218 80.179 218.082 80.086 218.22C79.993 218.357 79.9741 218.532 80.0358 218.686L81.0358 221.186C81.1117 221.376 81.2956 221.5 81.5 221.5H82.5C82.7045 221.5 82.8883 221.376 82.9642 221.186L83.9642 218.686C84.0259 218.532 84.0071 218.357 83.914 218.22C83.821 218.082 83.6659 218 83.5 218H80.5Z" fill="white"/>
<path d="M81.5 222.5C81.2594 222.5 81.0529 222.671 81.0086 222.908L79.5086 230.908C79.476 231.082 79.5377 231.26 79.6708 231.376L81.6708 233.126C81.8593 233.291 82.1407 233.291 82.3293 233.126L84.3293 231.376C84.4624 231.26 84.524 231.082 84.4914 230.908L82.9914 222.908C82.9471 222.671 82.7406 222.5 82.5 222.5H81.5Z" fill="white"/>
<path opacity="0.8" d="M106.632 232H104.994V222.662H109.11C111.07 222.662 112.148 223.992 112.148 225.588C112.148 227.17 111.056 228.5 109.11 228.5H106.632V232ZM108.886 227.058C109.81 227.058 110.468 226.47 110.468 225.588C110.468 224.692 109.81 224.104 108.886 224.104H106.632V227.058H108.886ZM114.953 232H113.483V225.238H114.953V226.218C115.471 225.574 116.283 225.07 117.151 225.07V226.526C117.025 226.498 116.885 226.484 116.703 226.484C116.073 226.484 115.247 226.904 114.953 227.394V232ZM121.403 232.168C119.247 232.168 117.931 230.544 117.931 228.612C117.931 226.666 119.247 225.07 121.403 225.07C123.559 225.07 124.875 226.666 124.875 228.612C124.875 230.544 123.559 232.168 121.403 232.168ZM121.403 230.866C122.663 230.866 123.349 229.816 123.349 228.612C123.349 227.422 122.663 226.372 121.403 226.372C120.157 226.372 119.457 227.422 119.457 228.612C119.457 229.816 120.157 230.866 121.403 230.866ZM128.21 232H126.74V226.512H125.62V225.238H126.74V224.86C126.74 223.39 127.594 222.522 128.868 222.522C129.484 222.522 130.086 222.676 130.492 223.11L129.918 224.02C129.722 223.838 129.47 223.726 129.148 223.726C128.56 223.726 128.21 224.104 128.21 224.86V225.238H129.582V226.512H128.21V232ZM133.832 232.168C131.788 232.168 130.29 230.754 130.29 228.612C130.29 226.652 131.718 225.07 133.72 225.07C135.75 225.07 137.038 226.61 137.038 228.738V229.102H131.83C131.942 230.11 132.698 230.964 133.972 230.964C134.644 230.964 135.414 230.698 135.904 230.208L136.576 231.174C135.89 231.818 134.896 232.168 133.832 232.168ZM135.624 228.052C135.582 227.254 135.036 226.274 133.706 226.274C132.46 226.274 131.872 227.24 131.816 228.052H135.624ZM140.813 232.168C139.651 232.168 138.615 231.79 137.915 231.104L138.587 230.054C139.063 230.544 140.001 230.992 140.869 230.992C141.751 230.992 142.213 230.628 142.213 230.096C142.213 228.766 138.125 229.718 138.125 227.114C138.125 226.008 139.077 225.07 140.785 225.07C141.933 225.07 142.801 225.476 143.403 226.008L142.787 227.044C142.381 226.596 141.639 226.232 140.785 226.232C140.015 226.232 139.539 226.596 139.539 227.072C139.539 228.262 143.627 227.366 143.627 230.054C143.627 231.258 142.633 232.168 140.813 232.168ZM147.417 232.168C146.255 232.168 145.219 231.79 144.519 231.104L145.191 230.054C145.667 230.544 146.605 230.992 147.473 230.992C148.355 230.992 148.817 230.628 148.817 230.096C148.817 228.766 144.729 229.718 144.729 227.114C144.729 226.008 145.681 225.07 147.389 225.07C148.537 225.07 149.405 225.476 150.007 226.008L149.391 227.044C148.985 226.596 148.243 226.232 147.389 226.232C146.619 226.232 146.143 226.596 146.143 227.072C146.143 228.262 150.231 227.366 150.231 230.054C150.231 231.258 149.237 232.168 147.417 232.168ZM152.438 224.412C151.934 224.412 151.528 224.006 151.528 223.502C151.528 222.998 151.934 222.592 152.438 222.592C152.942 222.592 153.348 222.998 153.348 223.502C153.348 224.006 152.942 224.412 152.438 224.412ZM153.166 232H151.696V225.238H153.166V232ZM158.139 232.168C155.983 232.168 154.667 230.544 154.667 228.612C154.667 226.666 155.983 225.07 158.139 225.07C160.295 225.07 161.611 226.666 161.611 228.612C161.611 230.544 160.295 232.168 158.139 232.168ZM158.139 230.866C159.399 230.866 160.085 229.816 160.085 228.612C160.085 227.422 159.399 226.372 158.139 226.372C156.893 226.372 156.193 227.422 156.193 228.612C156.193 229.816 156.893 230.866 158.139 230.866ZM169.16 232H167.69V227.772C167.69 226.708 167.144 226.372 166.318 226.372C165.576 226.372 164.932 226.82 164.582 227.268V232H163.112V225.238H164.582V226.148C165.03 225.616 165.912 225.07 166.976 225.07C168.432 225.07 169.16 225.854 169.16 227.24V232ZM176.683 232H175.213V231.258C174.709 231.846 173.911 232.168 173.015 232.168C171.923 232.168 170.677 231.412 170.677 229.928C170.677 228.36 171.909 227.716 173.015 227.716C173.939 227.716 174.709 228.01 175.213 228.584V227.576C175.213 226.792 174.555 226.316 173.631 226.316C172.875 226.316 172.203 226.596 171.629 227.184L171.013 226.162C171.797 225.406 172.777 225.07 173.855 225.07C175.367 225.07 176.683 225.7 176.683 227.506V232ZM173.603 231.16C174.233 231.16 174.863 230.922 175.213 230.46V229.424C174.863 228.962 174.233 228.724 173.603 228.724C172.777 228.724 172.147 229.214 172.147 229.942C172.147 230.684 172.777 231.16 173.603 231.16ZM180.059 232H178.589V222.662H180.059V232ZM191.805 232H190.335V231.076C189.817 231.748 189.047 232.168 188.165 232.168C186.443 232.168 185.169 230.852 185.169 228.612C185.169 226.428 186.429 225.07 188.165 225.07C189.019 225.07 189.803 225.448 190.335 226.176V222.662H191.805V232ZM188.599 230.866C189.285 230.866 190.013 230.46 190.335 229.956V227.282C190.013 226.778 189.285 226.372 188.599 226.372C187.423 226.372 186.681 227.31 186.681 228.612C186.681 229.928 187.423 230.866 188.599 230.866ZM194.452 224.412C193.948 224.412 193.542 224.006 193.542 223.502C193.542 222.998 193.948 222.592 194.452 222.592C194.956 222.592 195.362 222.998 195.362 223.502C195.362 224.006 194.956 224.412 194.452 224.412ZM195.18 232H193.71V225.238H195.18V232ZM202.701 232H201.231V231.258C200.727 231.846 199.929 232.168 199.033 232.168C197.941 232.168 196.695 231.412 196.695 229.928C196.695 228.36 197.927 227.716 199.033 227.716C199.957 227.716 200.727 228.01 201.231 228.584V227.576C201.231 226.792 200.573 226.316 199.649 226.316C198.893 226.316 198.221 226.596 197.647 227.184L197.031 226.162C197.815 225.406 198.795 225.07 199.873 225.07C201.385 225.07 202.701 225.7 202.701 227.506V232ZM199.621 231.16C200.251 231.16 200.881 230.922 201.231 230.46V229.424C200.881 228.962 200.251 228.724 199.621 228.724C198.795 228.724 198.165 229.214 198.165 229.942C198.165 230.684 198.795 231.16 199.621 231.16ZM206.076 232H204.606V225.238H206.076V226.218C206.594 225.574 207.406 225.07 208.274 225.07V226.526C208.148 226.498 208.008 226.484 207.826 226.484C207.196 226.484 206.37 226.904 206.076 227.394V232ZM209.18 234.646L209.39 233.33C209.544 233.4 209.782 233.442 209.95 233.442C210.426 233.442 210.734 233.302 210.93 232.854L211.266 232.084L208.48 225.238H210.062L212.036 230.306L214.01 225.238H215.578L212.316 233.218C211.854 234.366 211.056 234.73 210.006 234.744C209.796 234.744 209.376 234.702 209.18 234.646Z" fill="white"/>
<rect x="332" y="220" width="16" height="16" rx="2" stroke="#676F7E" stroke-width="2"/>
<path fill-rule="evenodd" clip-rule="evenodd" d="M92 274.25H72V285.5C72 286.328 72.6716 287 73.5 287H90.5C91.3284 287 92 286.328 92 285.5V274.25ZM82 275C79.2386 275 77 277.239 77 280C77 282.761 79.2386 285 82 285C84.7614 285 87 282.761 87 280C87 277.239 84.7614 275 82 275Z" fill="#EEF1F6" fill-opacity="0.3"/>
<path d="M76.25 267.5C76.25 267.086 75.9142 266.75 75.5 266.75C75.0858 266.75 74.75 267.086 74.75 267.5V269H73.5C72.6716 269 72 269.672 72 270.5V272.75H92V270.5C92 269.672 91.3284 269 90.5 269H89.25V267.5C89.25 267.086 88.9142 266.75 88.5 266.75C88.0858 266.75 87.75 267.086 87.75 267.5V269H76.25V267.5Z" fill="white"/>
<path d="M82.7498 277.5C82.7498 277.086 82.414 276.75 81.9998 276.75C81.5856 276.75 81.2498 277.086 81.2498 277.5V279.25L79.5 279.25C79.0858 279.25 78.75 279.586 78.75 280C78.75 280.414 79.0858 280.75 79.5 280.75L81.2499 280.75L81.25 282.5C81.25 282.914 81.5858 283.25 82.0001 283.25C82.4143 283.25 82.75 282.914 82.75 282.5L82.7499 280.75L84.5 280.75C84.9142 280.75 85.25 280.414 85.25 280C85.25 279.586 84.9142 279.25 84.5 279.25L82.7498 279.25V277.5Z" fill="white"/>
<path opacity="0.8" d="M109.04 281.168C106.338 281.168 104.994 279.614 104.994 277.304V271.662H106.66V277.262C106.66 278.746 107.486 279.712 109.04 279.712C110.594 279.712 111.42 278.746 111.42 277.262V271.662H113.086V277.304C113.086 279.614 111.756 281.168 109.04 281.168ZM118.668 281.168C117.814 281.168 117.058 280.776 116.498 280.062V283.576H115.028V274.238H116.498V275.162C117.002 274.49 117.786 274.07 118.668 274.07C120.418 274.07 121.664 275.386 121.664 277.612C121.664 279.838 120.418 281.168 118.668 281.168ZM118.234 279.866C119.396 279.866 120.152 278.928 120.152 277.612C120.152 276.296 119.396 275.372 118.234 275.372C117.548 275.372 116.834 275.764 116.498 276.268V278.942C116.82 279.446 117.548 279.866 118.234 279.866ZM126.216 281.168C124.172 281.168 122.73 279.656 122.73 277.612C122.73 275.568 124.172 274.07 126.216 274.07C127.546 274.07 128.33 274.63 128.806 275.274L127.84 276.156C127.462 275.624 126.944 275.372 126.286 275.372C125.068 275.372 124.242 276.296 124.242 277.612C124.242 278.928 125.068 279.866 126.286 279.866C126.944 279.866 127.462 279.586 127.84 279.054L128.806 279.964C128.33 280.594 127.546 281.168 126.216 281.168ZM133.174 281.168C131.018 281.168 129.702 279.544 129.702 277.612C129.702 275.666 131.018 274.07 133.174 274.07C135.33 274.07 136.646 275.666 136.646 277.612C136.646 279.544 135.33 281.168 133.174 281.168ZM133.174 279.866C134.434 279.866 135.12 278.816 135.12 277.612C135.12 276.422 134.434 275.372 133.174 275.372C131.928 275.372 131.228 276.422 131.228 277.612C131.228 278.816 131.928 279.866 133.174 279.866ZM147.919 281H146.449V276.59C146.449 275.862 146.127 275.372 145.329 275.372C144.671 275.372 144.055 275.82 143.761 276.268V281H142.291V276.59C142.291 275.862 141.983 275.372 141.185 275.372C140.527 275.372 139.925 275.834 139.617 276.268V281H138.147V274.238H139.617V275.148C139.911 274.742 140.793 274.07 141.829 274.07C142.837 274.07 143.453 274.574 143.677 275.302C144.055 274.7 144.951 274.07 145.973 274.07C147.205 274.07 147.919 274.742 147.919 276.114V281ZM150.565 273.412C150.061 273.412 149.655 273.006 149.655 272.502C149.655 271.998 150.061 271.592 150.565 271.592C151.069 271.592 151.475 271.998 151.475 272.502C151.475 273.006 151.069 273.412 150.565 273.412ZM151.293 281H149.823V274.238H151.293V281ZM159.248 281H157.778V276.772C157.778 275.708 157.232 275.372 156.406 275.372C155.664 275.372 155.02 275.82 154.67 276.268V281H153.2V274.238H154.67V275.148C155.118 274.616 156 274.07 157.064 274.07C158.52 274.07 159.248 274.854 159.248 276.24V281ZM163.915 283.744C162.767 283.744 161.913 283.492 161.073 282.736L161.759 281.672C162.319 282.302 163.019 282.54 163.915 282.54C164.881 282.54 165.917 282.092 165.917 280.65V279.88C165.399 280.566 164.629 281.014 163.747 281.014C162.025 281.014 160.751 279.768 160.751 277.542C160.751 275.344 161.997 274.07 163.747 274.07C164.601 274.07 165.371 274.448 165.917 275.176V274.238H167.387V280.65C167.387 283.086 165.567 283.744 163.915 283.744ZM164.181 279.698C164.867 279.698 165.581 279.292 165.917 278.802V276.268C165.581 275.778 164.867 275.372 164.181 275.372C163.005 275.372 162.263 276.24 162.263 277.542C162.263 278.844 163.005 279.698 164.181 279.698ZM176.037 281.168C173.993 281.168 172.495 279.754 172.495 277.612C172.495 275.652 173.923 274.07 175.925 274.07C177.955 274.07 179.243 275.61 179.243 277.738V278.102H174.035C174.147 279.11 174.903 279.964 176.177 279.964C176.849 279.964 177.619 279.698 178.109 279.208L178.781 280.174C178.095 280.818 177.101 281.168 176.037 281.168ZM177.829 277.052C177.787 276.254 177.241 275.274 175.911 275.274C174.665 275.274 174.077 276.24 174.021 277.052H177.829ZM184.054 281H182.472L179.714 274.238H181.296L183.27 279.306L185.244 274.238H186.812L184.054 281ZM190.871 281.168C188.827 281.168 187.329 279.754 187.329 277.612C187.329 275.652 188.757 274.07 190.759 274.07C192.789 274.07 194.077 275.61 194.077 277.738V278.102H188.869C188.981 279.11 189.737 279.964 191.011 279.964C191.683 279.964 192.453 279.698 192.943 279.208L193.615 280.174C192.929 280.818 191.935 281.168 190.871 281.168ZM192.663 277.052C192.621 276.254 192.075 275.274 190.745 275.274C189.499 275.274 188.911 276.24 188.855 277.052H192.663ZM201.576 281H200.106V276.772C200.106 275.708 199.56 275.372 198.734 275.372C197.992 275.372 197.348 275.82 196.998 276.268V281H195.528V274.238H196.998V275.148C197.446 274.616 198.328 274.07 199.392 274.07C200.848 274.07 201.576 274.854 201.576 276.24V281ZM205.529 281.168C204.381 281.168 203.793 280.552 203.793 279.418V275.512H202.673V274.238H203.793V272.39H205.263V274.238H206.635V275.512H205.263V279.054C205.263 279.516 205.487 279.866 205.907 279.866C206.187 279.866 206.439 279.74 206.551 279.614L206.901 280.734C206.635 280.972 206.201 281.168 205.529 281.168Z" fill="white"/>
<rect x="332" y="269" width="16" height="16" rx="2" stroke="#676F7E" stroke-width="2"/>
<path d="M82 321C78.6863 321 76 323.686 76 327C76 329.222 77.2075 331.16 79 332.197V332.5H85V332.197C86.7925 331.16 88 329.222 88 327C88 323.686 85.3137 321 82 321Z" fill="#EEF1F6" fill-opacity="0.3"/>
<path d="M79 336V333.5H85V336H79Z" fill="white"/>
<path d="M82.75 315.75V319.25H81.25V315.75H82.75Z" fill="white"/>
<path d="M74.9375 317.377L73.8768 318.438L77.0512 321.612L78.1118 320.551L74.9375 317.377Z" fill="white"/>
<path d="M72.25 324.75V326.25H75.75V324.75H72.25Z" fill="white"/>
<path d="M90.1372 318.424L89.0765 317.363L85.8964 320.543L86.957 321.604L90.1372 318.424Z" fill="white"/>
<path d="M88.25 324.75H91.75V326.25H88.25V324.75Z" fill="white"/>
<path opacity="0.8" d="M108.2 330.168C106.478 330.168 105.232 329.552 104.392 328.684L105.316 327.41C105.946 328.096 106.968 328.712 108.27 328.712C109.614 328.712 110.132 328.054 110.132 327.424C110.132 325.464 104.7 326.682 104.7 323.252C104.7 321.698 106.044 320.508 108.102 320.508C109.544 320.508 110.734 320.984 111.588 321.824L110.664 323.042C109.922 322.3 108.928 321.964 107.948 321.964C106.996 321.964 106.38 322.44 106.38 323.126C106.38 324.876 111.812 323.798 111.812 327.27C111.812 328.824 110.706 330.168 108.2 330.168ZM115.103 330.168C113.955 330.168 113.367 329.552 113.367 328.418V324.512H112.247V323.238H113.367V321.39H114.837V323.238H116.209V324.512H114.837V328.054C114.837 328.516 115.061 328.866 115.481 328.866C115.761 328.866 116.013 328.74 116.125 328.614L116.475 329.734C116.209 329.972 115.775 330.168 115.103 330.168ZM123.144 330H121.674V329.258C121.17 329.846 120.372 330.168 119.476 330.168C118.384 330.168 117.138 329.412 117.138 327.928C117.138 326.36 118.37 325.716 119.476 325.716C120.4 325.716 121.17 326.01 121.674 326.584V325.576C121.674 324.792 121.016 324.316 120.092 324.316C119.336 324.316 118.664 324.596 118.09 325.184L117.474 324.162C118.258 323.406 119.238 323.07 120.316 323.07C121.828 323.07 123.144 323.7 123.144 325.506V330ZM120.064 329.16C120.694 329.16 121.324 328.922 121.674 328.46V327.424C121.324 326.962 120.694 326.724 120.064 326.724C119.238 326.724 118.608 327.214 118.608 327.942C118.608 328.684 119.238 329.16 120.064 329.16ZM126.52 330H125.05V323.238H126.52V324.218C127.038 323.574 127.85 323.07 128.718 323.07V324.526C128.592 324.498 128.452 324.484 128.27 324.484C127.64 324.484 126.814 324.904 126.52 325.394V330ZM131.947 330.168C130.799 330.168 130.211 329.552 130.211 328.418V324.512H129.091V323.238H130.211V321.39H131.681V323.238H133.053V324.512H131.681V328.054C131.681 328.516 131.905 328.866 132.325 328.866C132.605 328.866 132.857 328.74 132.969 328.614L133.319 329.734C133.053 329.972 132.619 330.168 131.947 330.168ZM140.408 330H138.938V329.104C138.462 329.636 137.622 330.168 136.558 330.168C135.102 330.168 134.374 329.398 134.374 328.026V323.238H135.844V327.48C135.844 328.53 136.376 328.866 137.216 328.866C137.958 328.866 138.602 328.432 138.938 327.984V323.238H140.408V330ZM145.957 330.168C145.103 330.168 144.347 329.776 143.787 329.062V332.576H142.317V323.238H143.787V324.162C144.291 323.49 145.075 323.07 145.957 323.07C147.707 323.07 148.953 324.386 148.953 326.612C148.953 328.838 147.707 330.168 145.957 330.168ZM145.523 328.866C146.685 328.866 147.441 327.928 147.441 326.612C147.441 325.296 146.685 324.372 145.523 324.372C144.837 324.372 144.123 324.764 143.787 325.268V327.942C144.109 328.446 144.837 328.866 145.523 328.866ZM155.714 330H154.076V320.662H155.714V330ZM163.887 330H162.417V329.076C161.899 329.748 161.129 330.168 160.247 330.168C158.525 330.168 157.251 328.852 157.251 326.612C157.251 324.428 158.511 323.07 160.247 323.07C161.101 323.07 161.885 323.448 162.417 324.176V320.662H163.887V330ZM160.681 328.866C161.367 328.866 162.095 328.46 162.417 327.956V325.282C162.095 324.778 161.367 324.372 160.681 324.372C159.505 324.372 158.763 325.31 158.763 326.612C158.763 327.928 159.505 328.866 160.681 328.866ZM168.928 330.168C166.884 330.168 165.386 328.754 165.386 326.612C165.386 324.652 166.814 323.07 168.816 323.07C170.846 323.07 172.134 324.61 172.134 326.738V327.102H166.926C167.038 328.11 167.794 328.964 169.068 328.964C169.74 328.964 170.51 328.698 171 328.208L171.672 329.174C170.986 329.818 169.992 330.168 168.928 330.168ZM170.72 326.052C170.678 325.254 170.132 324.274 168.802 324.274C167.556 324.274 166.968 325.24 166.912 326.052H170.72ZM179.199 330H177.729V329.258C177.225 329.846 176.427 330.168 175.531 330.168C174.439 330.168 173.193 329.412 173.193 327.928C173.193 326.36 174.425 325.716 175.531 325.716C176.455 325.716 177.225 326.01 177.729 326.584V325.576C177.729 324.792 177.071 324.316 176.147 324.316C175.391 324.316 174.719 324.596 174.145 325.184L173.529 324.162C174.313 323.406 175.293 323.07 176.371 323.07C177.883 323.07 179.199 323.7 179.199 325.506V330ZM176.119 329.16C176.749 329.16 177.379 328.922 177.729 328.46V327.424C177.379 326.962 176.749 326.724 176.119 326.724C175.293 326.724 174.663 327.214 174.663 327.942C174.663 328.684 175.293 329.16 176.119 329.16ZM183.428 330.168C182.266 330.168 181.23 329.79 180.53 329.104L181.202 328.054C181.678 328.544 182.616 328.992 183.484 328.992C184.366 328.992 184.828 328.628 184.828 328.096C184.828 326.766 180.74 327.718 180.74 325.114C180.74 324.008 181.692 323.07 183.4 323.07C184.548 323.07 185.416 323.476 186.018 324.008L185.402 325.044C184.996 324.596 184.254 324.232 183.4 324.232C182.63 324.232 182.154 324.596 182.154 325.072C182.154 326.262 186.242 325.366 186.242 328.054C186.242 329.258 185.248 330.168 183.428 330.168Z" fill="white"/>
<rect x="332" y="318" width="16" height="16" rx="2" stroke="#676F7E" stroke-width="2"/>
</g>
<g filter="url(#filter2_d_12757_23370)">
<rect x="220" y="205" width="340" height="370" rx="16" fill="white"/>
<path d="M257.275 249H250.9V238.995H253.045V247.125H257.275V249ZM259.76 240.975C259.145 240.975 258.635 240.465 258.635 239.835C258.635 239.205 259.145 238.71 259.76 238.71C260.39 238.71 260.9 239.205 260.9 239.835C260.9 240.465 260.39 240.975 259.76 240.975ZM260.72 249H258.815V241.755H260.72V249ZM265.369 249.18C264.109 249.18 262.894 248.76 262.129 248.055L262.954 246.675C263.494 247.185 264.559 247.68 265.459 247.68C266.284 247.68 266.674 247.365 266.674 246.915C266.674 245.73 262.384 246.705 262.384 243.855C262.384 242.64 263.434 241.575 265.354 241.575C266.569 241.575 267.544 241.995 268.264 242.565L267.499 243.915C267.064 243.465 266.239 243.075 265.354 243.075C264.664 243.075 264.214 243.375 264.214 243.78C264.214 244.845 268.519 243.945 268.519 246.87C268.519 248.205 267.379 249.18 265.369 249.18ZM272.487 249.18C271.152 249.18 270.447 248.49 270.447 247.185V243.42H269.247V241.755H270.447V239.775H272.352V241.755H273.822V243.42H272.352V246.675C272.352 247.14 272.592 247.485 273.012 247.485C273.297 247.485 273.567 247.38 273.672 247.26L274.077 248.715C273.792 248.97 273.282 249.18 272.487 249.18Z" fill="black"/>
<rect x="220" y="263" width="340" height="260" rx="16" fill="white"/>
<path fill-rule="evenodd" clip-rule="evenodd" d="M253.117 294.5L255.651 303.891C255.828 304.545 256.421 305 257.099 305H266.901C267.579 305 268.172 304.545 268.349 303.891L270.883 294.5L253.117 294.5ZM262 295.75C262.414 295.75 262.75 296.086 262.75 296.5V302C262.75 302.414 262.414 302.75 262 302.75C261.586 302.75 261.25 302.414 261.25 302V296.5C261.25 296.086 261.586 295.75 262 295.75ZM266.477 297.188C266.584 296.788 266.346 296.377 265.946 296.27C265.546 296.162 265.135 296.4 265.028 296.8L263.604 302.113C263.497 302.513 263.734 302.924 264.134 303.031C264.535 303.138 264.946 302.901 265.053 302.501L266.477 297.188ZM258.054 296.27C258.454 296.162 258.865 296.4 258.973 296.8L260.396 302.113C260.503 302.513 260.266 302.924 259.866 303.031C259.466 303.138 259.054 302.901 258.947 302.501L257.524 297.188C257.417 296.788 257.654 296.377 258.054 296.27Z" fill="#1E3050" fill-opacity="0.3"/>
<path d="M270.5 291.5C271.328 291.5 272 292.172 272 293C272 293.175 271.97 293.344 271.915 293.5L252.085 293.5C252.03 293.344 252 293.175 252 293C252 292.172 252.672 291.5 253.5 291.5H270.5Z" fill="#1E3050"/>
<path d="M257.121 285.217C257.829 284.788 258.752 285.014 259.181 285.723L262.682 291.5C292.662 291.5 234.095 291.5 259.174 291.5L256.616 287.278C256.186 286.569 256.412 285.647 257.121 285.217Z" fill="#1E3050" fill-opacity="0.3"/>
<path d="M262 295.75C262.414 295.75 262.75 296.086 262.75 296.5V302C262.75 302.414 262.414 302.75 262 302.75C261.585 302.75 261.25 302.414 261.25 302V296.5C261.25 296.086 261.585 295.75 262 295.75Z" fill="#1E3050"/>
<path d="M265.946 296.27C266.346 296.377 266.583 296.788 266.476 297.188L265.053 302.501C264.945 302.901 264.534 303.138 264.134 303.031C263.734 302.924 263.496 302.513 263.604 302.113L265.027 296.8C265.134 296.4 265.546 296.162 265.946 296.27Z" fill="#1E3050"/>
<path d="M258.972 296.8C258.865 296.4 258.454 296.162 258.054 296.27C257.654 296.377 257.416 296.788 257.523 297.188L258.947 302.501C259.054 302.901 259.465 303.138 259.865 303.031C260.265 302.924 260.503 302.513 260.396 302.113L258.972 296.8Z" fill="#1E3050"/>
<path d="M289.488 299.182C286.772 299.182 284.588 297.264 284.588 294.338C284.588 291.398 286.772 289.508 289.488 289.508C291.308 289.508 292.498 290.376 293.24 291.44L291.91 292.21C291.406 291.51 290.524 290.964 289.488 290.964C287.64 290.964 286.268 292.364 286.268 294.338C286.268 296.284 287.64 297.712 289.488 297.712C290.44 297.712 291.28 297.278 291.7 296.872V295.43H288.9V293.988H293.324V297.474C292.414 298.496 291.098 299.182 289.488 299.182ZM296.457 299H294.987V292.238H296.457V293.218C296.975 292.574 297.787 292.07 298.655 292.07V293.526C298.529 293.498 298.389 293.484 298.207 293.484C297.577 293.484 296.751 293.904 296.457 294.394V299ZM302.907 299.168C300.751 299.168 299.435 297.544 299.435 295.612C299.435 293.666 300.751 292.07 302.907 292.07C305.063 292.07 306.379 293.666 306.379 295.612C306.379 297.544 305.063 299.168 302.907 299.168ZM302.907 297.866C304.167 297.866 304.853 296.816 304.853 295.612C304.853 294.422 304.167 293.372 302.907 293.372C301.661 293.372 300.961 294.422 300.961 295.612C300.961 296.816 301.661 297.866 302.907 297.866ZM310.96 299.168C308.916 299.168 307.474 297.656 307.474 295.612C307.474 293.568 308.916 292.07 310.96 292.07C312.29 292.07 313.074 292.63 313.55 293.274L312.584 294.156C312.206 293.624 311.688 293.372 311.03 293.372C309.812 293.372 308.986 294.296 308.986 295.612C308.986 296.928 309.812 297.866 311.03 297.866C311.688 297.866 312.206 297.586 312.584 297.054L313.55 297.964C313.074 298.594 312.29 299.168 310.96 299.168ZM317.988 299.168C315.944 299.168 314.446 297.754 314.446 295.612C314.446 293.652 315.874 292.07 317.876 292.07C319.906 292.07 321.194 293.61 321.194 295.738V296.102H315.986C316.098 297.11 316.854 297.964 318.128 297.964C318.8 297.964 319.57 297.698 320.06 297.208L320.732 298.174C320.046 298.818 319.052 299.168 317.988 299.168ZM319.78 295.052C319.738 294.254 319.192 293.274 317.862 293.274C316.616 293.274 316.028 294.24 315.972 295.052H319.78ZM324.115 299H322.645V292.238H324.115V293.218C324.633 292.574 325.445 292.07 326.313 292.07V293.526C326.187 293.498 326.047 293.484 325.865 293.484C325.235 293.484 324.409 293.904 324.115 294.394V299ZM327.219 301.646L327.429 300.33C327.583 300.4 327.821 300.442 327.989 300.442C328.465 300.442 328.773 300.302 328.969 299.854L329.305 299.084L326.519 292.238H328.101L330.075 297.306L332.049 292.238H333.617L330.355 300.218C329.893 301.366 329.095 301.73 328.045 301.744C327.835 301.744 327.415 301.702 327.219 301.646ZM339.619 299H338.149V289.662H339.619V299ZM342.268 291.412C341.764 291.412 341.358 291.006 341.358 290.502C341.358 289.998 341.764 289.592 342.268 289.592C342.772 289.592 343.178 289.998 343.178 290.502C343.178 291.006 342.772 291.412 342.268 291.412ZM342.996 299H341.526V292.238H342.996V299ZM347.227 299.168C346.065 299.168 345.029 298.79 344.329 298.104L345.001 297.054C345.477 297.544 346.415 297.992 347.283 297.992C348.165 297.992 348.627 297.628 348.627 297.096C348.627 295.766 344.539 296.718 344.539 294.114C344.539 293.008 345.491 292.07 347.199 292.07C348.347 292.07 349.215 292.476 349.817 293.008L349.201 294.044C348.795 293.596 348.053 293.232 347.199 293.232C346.429 293.232 345.953 293.596 345.953 294.072C345.953 295.262 350.041 294.366 350.041 297.054C350.041 298.258 349.047 299.168 347.227 299.168ZM353.551 299.168C352.403 299.168 351.815 298.552 351.815 297.418V293.512H350.695V292.238H351.815V290.39H353.285V292.238H354.657V293.512H353.285V297.054C353.285 297.516 353.509 297.866 353.929 297.866C354.209 297.866 354.461 297.74 354.573 297.614L354.923 298.734C354.657 298.972 354.223 299.168 353.551 299.168Z" fill="#22BF22"/>
<rect x="512" y="287" width="16" height="16" rx="2" fill="#8EEB8E" stroke="#8EEB8E" stroke-width="2"/>
<path d="M516.283 295.521L518.721 297.91L524.144 291.962" stroke="#2F3037" stroke-width="2" stroke-linecap="square"/>
<path fill-rule="evenodd" clip-rule="evenodd" d="M262 335.25C257.168 335.25 253.25 339.168 253.25 344C253.25 348.832 257.168 352.75 262 352.75C266.832 352.75 270.75 348.832 270.75 344C270.75 339.168 266.832 335.25 262 335.25ZM251.75 344C251.75 338.339 256.339 333.75 262 333.75C267.661 333.75 272.25 338.339 272.25 344C272.25 349.661 267.661 354.25 262 354.25C256.339 354.25 251.75 349.661 251.75 344Z" fill="#1E3050"/>
<path fill-rule="evenodd" clip-rule="evenodd" d="M262 337C258.134 337 255 340.134 255 344C255 347.866 258.134 351 262 351C265.866 351 269 347.866 269 344C269 340.134 265.866 337 262 337ZM262 339.5C260.619 339.5 259.5 340.619 259.5 342C259.5 342.636 259.737 343.216 260.128 343.657C259.234 344.062 258.469 344.745 257.901 345.59C257.667 345.937 257.465 346.312 257.299 346.711C257.139 347.093 257.319 347.532 257.701 347.692C258.083 347.852 258.523 347.672 258.683 347.289C258.812 346.979 258.968 346.69 259.145 346.427C259.86 345.365 260.897 344.75 262 344.75C263.103 344.75 264.14 345.365 264.855 346.427C265.032 346.69 265.188 346.979 265.317 347.289C265.477 347.672 265.917 347.852 266.299 347.692C266.681 347.532 266.861 347.093 266.701 346.711C266.535 346.312 266.333 345.937 266.1 345.59C265.531 344.745 264.766 344.062 263.872 343.657C264.263 343.216 264.5 342.636 264.5 342C264.5 340.619 263.381 339.5 262 339.5Z" fill="#1E3050" fill-opacity="0.3"/>
<path fill-rule="evenodd" clip-rule="evenodd" d="M262 339.5C260.619 339.5 259.5 340.619 259.5 342C259.5 342.636 259.737 343.216 260.128 343.657C259.234 344.062 258.47 344.745 257.901 345.59C257.668 345.937 257.466 346.312 257.299 346.711C257.139 347.093 257.319 347.532 257.702 347.692C258.084 347.852 258.523 347.672 258.683 347.289C258.813 346.979 258.968 346.69 259.145 346.427C259.86 345.365 260.897 344.75 262 344.75C263.104 344.75 264.14 345.365 264.855 346.427C265.032 346.69 265.188 346.979 265.318 347.289C265.477 347.672 265.917 347.852 266.299 347.692C266.681 347.532 266.861 347.093 266.701 346.711C266.535 346.312 266.333 345.937 266.1 345.59C265.531 344.745 264.766 344.062 263.872 343.657C264.263 343.216 264.5 342.636 264.5 342C264.5 340.619 263.381 339.5 262 339.5Z" fill="#1E3050"/>
<path opacity="0.7" d="M286.632 348H284.994V338.662H289.11C291.07 338.662 292.148 339.992 292.148 341.588C292.148 343.17 291.056 344.5 289.11 344.5H286.632V348ZM288.886 343.058C289.81 343.058 290.468 342.47 290.468 341.588C290.468 340.692 289.81 340.104 288.886 340.104H286.632V343.058H288.886ZM296.414 348.168C294.37 348.168 292.872 346.754 292.872 344.612C292.872 342.652 294.3 341.07 296.302 341.07C298.332 341.07 299.62 342.61 299.62 344.738V345.102H294.412C294.524 346.11 295.28 346.964 296.554 346.964C297.226 346.964 297.996 346.698 298.486 346.208L299.158 347.174C298.472 347.818 297.478 348.168 296.414 348.168ZM298.206 344.052C298.164 343.254 297.618 342.274 296.288 342.274C295.042 342.274 294.454 343.24 294.398 344.052H298.206ZM302.541 348H301.071V341.238H302.541V342.218C303.059 341.574 303.871 341.07 304.739 341.07V342.526C304.613 342.498 304.473 342.484 304.291 342.484C303.661 342.484 302.835 342.904 302.541 343.394V348ZM308.249 348.168C307.087 348.168 306.051 347.79 305.351 347.104L306.023 346.054C306.499 346.544 307.437 346.992 308.305 346.992C309.187 346.992 309.649 346.628 309.649 346.096C309.649 344.766 305.561 345.718 305.561 343.114C305.561 342.008 306.513 341.07 308.221 341.07C309.369 341.07 310.237 341.476 310.839 342.008L310.223 343.044C309.817 342.596 309.075 342.232 308.221 342.232C307.451 342.232 306.975 342.596 306.975 343.072C306.975 344.262 311.063 343.366 311.063 346.054C311.063 347.258 310.069 348.168 308.249 348.168ZM315.594 348.168C313.438 348.168 312.122 346.544 312.122 344.612C312.122 342.666 313.438 341.07 315.594 341.07C317.75 341.07 319.066 342.666 319.066 344.612C319.066 346.544 317.75 348.168 315.594 348.168ZM315.594 346.866C316.854 346.866 317.54 345.816 317.54 344.612C317.54 343.422 316.854 342.372 315.594 342.372C314.348 342.372 313.648 343.422 313.648 344.612C313.648 345.816 314.348 346.866 315.594 346.866ZM326.615 348H325.145V343.772C325.145 342.708 324.599 342.372 323.773 342.372C323.031 342.372 322.387 342.82 322.037 343.268V348H320.567V341.238H322.037V342.148C322.485 341.616 323.367 341.07 324.431 341.07C325.887 341.07 326.615 341.854 326.615 343.24V348ZM334.138 348H332.668V347.258C332.164 347.846 331.366 348.168 330.47 348.168C329.378 348.168 328.132 347.412 328.132 345.928C328.132 344.36 329.364 343.716 330.47 343.716C331.394 343.716 332.164 344.01 332.668 344.584V343.576C332.668 342.792 332.01 342.316 331.086 342.316C330.33 342.316 329.658 342.596 329.084 343.184L328.468 342.162C329.252 341.406 330.232 341.07 331.31 341.07C332.822 341.07 334.138 341.7 334.138 343.506V348ZM331.058 347.16C331.688 347.16 332.318 346.922 332.668 346.46V345.424C332.318 344.962 331.688 344.724 331.058 344.724C330.232 344.724 329.602 345.214 329.602 345.942C329.602 346.684 330.232 347.16 331.058 347.16ZM337.514 348H336.044V338.662H337.514V348ZM350.478 348H348.938L347.356 343.044L345.788 348H344.248L342.148 341.238H343.674L345.102 346.152L346.712 341.238H348.014L349.61 346.152L351.038 341.238H352.578L350.478 348ZM356.664 348.168C354.508 348.168 353.192 346.544 353.192 344.612C353.192 342.666 354.508 341.07 356.664 341.07C358.82 341.07 360.136 342.666 360.136 344.612C360.136 346.544 358.82 348.168 356.664 348.168ZM356.664 346.866C357.924 346.866 358.61 345.816 358.61 344.612C358.61 343.422 357.924 342.372 356.664 342.372C355.418 342.372 354.718 343.422 354.718 344.612C354.718 345.816 355.418 346.866 356.664 346.866ZM363.108 348H361.638V341.238H363.108V342.218C363.626 341.574 364.438 341.07 365.306 341.07V342.526C365.18 342.498 365.04 342.484 364.858 342.484C364.228 342.484 363.402 342.904 363.108 343.394V348ZM372.819 348H370.971L368.913 345.2L367.961 346.18V348H366.491V338.662H367.961V344.5L370.943 341.238H372.763L369.963 344.304L372.819 348Z" fill="#2F3037"/>
<rect x="512" y="336" width="16" height="16" rx="2" stroke="#676F7E" stroke-width="2"/>
<path d="M256.013 386.619C256.315 386.335 256.33 385.861 256.047 385.559C255.763 385.256 255.289 385.241 254.987 385.525C252.995 387.394 251.75 390.052 251.75 393C251.75 398.661 256.339 403.25 262 403.25C267.661 403.25 272.25 398.661 272.25 393C272.25 390.052 271.005 387.394 269.013 385.525C268.711 385.241 268.237 385.256 267.953 385.559C267.67 385.861 267.685 386.335 267.987 386.619C269.689 388.216 270.75 390.483 270.75 393C270.75 397.833 266.832 401.75 262 401.75C257.168 401.75 253.25 397.833 253.25 393C253.25 390.483 254.311 388.216 256.013 386.619Z" fill="#1E3050" fill-opacity="0.3"/>
<path d="M260.5 383C260.334 383 260.179 383.082 260.086 383.22C259.993 383.357 259.974 383.532 260.036 383.686L261.036 386.186C261.112 386.376 261.296 386.5 261.5 386.5H262.5C262.704 386.5 262.888 386.376 262.964 386.186L263.964 383.686C264.026 383.532 264.007 383.357 263.914 383.22C263.821 383.082 263.666 383 263.5 383H260.5Z" fill="#1E3050"/>
<path d="M261.5 387.5C261.259 387.5 261.053 387.671 261.009 387.908L259.509 395.908C259.476 396.082 259.538 396.26 259.671 396.376L261.671 398.126C261.859 398.291 262.141 398.291 262.329 398.126L264.329 396.376C264.462 396.26 264.524 396.082 264.491 395.908L262.991 387.908C262.947 387.671 262.741 387.5 262.5 387.5H261.5Z" fill="#1E3050"/>
<path opacity="0.7" d="M286.632 397H284.994V387.662H289.11C291.07 387.662 292.148 388.992 292.148 390.588C292.148 392.17 291.056 393.5 289.11 393.5H286.632V397ZM288.886 392.058C289.81 392.058 290.468 391.47 290.468 390.588C290.468 389.692 289.81 389.104 288.886 389.104H286.632V392.058H288.886ZM294.953 397H293.483V390.238H294.953V391.218C295.471 390.574 296.283 390.07 297.151 390.07V391.526C297.025 391.498 296.885 391.484 296.703 391.484C296.073 391.484 295.247 391.904 294.953 392.394V397ZM301.403 397.168C299.247 397.168 297.931 395.544 297.931 393.612C297.931 391.666 299.247 390.07 301.403 390.07C303.559 390.07 304.875 391.666 304.875 393.612C304.875 395.544 303.559 397.168 301.403 397.168ZM301.403 395.866C302.663 395.866 303.349 394.816 303.349 393.612C303.349 392.422 302.663 391.372 301.403 391.372C300.157 391.372 299.457 392.422 299.457 393.612C299.457 394.816 300.157 395.866 301.403 395.866ZM308.21 397H306.74V391.512H305.62V390.238H306.74V389.86C306.74 388.39 307.594 387.522 308.868 387.522C309.484 387.522 310.086 387.676 310.492 388.11L309.918 389.02C309.722 388.838 309.47 388.726 309.148 388.726C308.56 388.726 308.21 389.104 308.21 389.86V390.238H309.582V391.512H308.21V397ZM313.832 397.168C311.788 397.168 310.29 395.754 310.29 393.612C310.29 391.652 311.718 390.07 313.72 390.07C315.75 390.07 317.038 391.61 317.038 393.738V394.102H311.83C311.942 395.11 312.698 395.964 313.972 395.964C314.644 395.964 315.414 395.698 315.904 395.208L316.576 396.174C315.89 396.818 314.896 397.168 313.832 397.168ZM315.624 393.052C315.582 392.254 315.036 391.274 313.706 391.274C312.46 391.274 311.872 392.24 311.816 393.052H315.624ZM320.813 397.168C319.651 397.168 318.615 396.79 317.915 396.104L318.587 395.054C319.063 395.544 320.001 395.992 320.869 395.992C321.751 395.992 322.213 395.628 322.213 395.096C322.213 393.766 318.125 394.718 318.125 392.114C318.125 391.008 319.077 390.07 320.785 390.07C321.933 390.07 322.801 390.476 323.403 391.008L322.787 392.044C322.381 391.596 321.639 391.232 320.785 391.232C320.015 391.232 319.539 391.596 319.539 392.072C319.539 393.262 323.627 392.366 323.627 395.054C323.627 396.258 322.633 397.168 320.813 397.168ZM327.417 397.168C326.255 397.168 325.219 396.79 324.519 396.104L325.191 395.054C325.667 395.544 326.605 395.992 327.473 395.992C328.355 395.992 328.817 395.628 328.817 395.096C328.817 393.766 324.729 394.718 324.729 392.114C324.729 391.008 325.681 390.07 327.389 390.07C328.537 390.07 329.405 390.476 330.007 391.008L329.391 392.044C328.985 391.596 328.243 391.232 327.389 391.232C326.619 391.232 326.143 391.596 326.143 392.072C326.143 393.262 330.231 392.366 330.231 395.054C330.231 396.258 329.237 397.168 327.417 397.168ZM332.438 389.412C331.934 389.412 331.528 389.006 331.528 388.502C331.528 387.998 331.934 387.592 332.438 387.592C332.942 387.592 333.348 387.998 333.348 388.502C333.348 389.006 332.942 389.412 332.438 389.412ZM333.166 397H331.696V390.238H333.166V397ZM338.139 397.168C335.983 397.168 334.667 395.544 334.667 393.612C334.667 391.666 335.983 390.07 338.139 390.07C340.295 390.07 341.611 391.666 341.611 393.612C341.611 395.544 340.295 397.168 338.139 397.168ZM338.139 395.866C339.399 395.866 340.085 394.816 340.085 393.612C340.085 392.422 339.399 391.372 338.139 391.372C336.893 391.372 336.193 392.422 336.193 393.612C336.193 394.816 336.893 395.866 338.139 395.866ZM349.16 397H347.69V392.772C347.69 391.708 347.144 391.372 346.318 391.372C345.576 391.372 344.932 391.82 344.582 392.268V397H343.112V390.238H344.582V391.148C345.03 390.616 345.912 390.07 346.976 390.07C348.432 390.07 349.16 390.854 349.16 392.24V397ZM356.683 397H355.213V396.258C354.709 396.846 353.911 397.168 353.015 397.168C351.923 397.168 350.677 396.412 350.677 394.928C350.677 393.36 351.909 392.716 353.015 392.716C353.939 392.716 354.709 393.01 355.213 393.584V392.576C355.213 391.792 354.555 391.316 353.631 391.316C352.875 391.316 352.203 391.596 351.629 392.184L351.013 391.162C351.797 390.406 352.777 390.07 353.855 390.07C355.367 390.07 356.683 390.7 356.683 392.506V397ZM353.603 396.16C354.233 396.16 354.863 395.922 355.213 395.46V394.424C354.863 393.962 354.233 393.724 353.603 393.724C352.777 393.724 352.147 394.214 352.147 394.942C352.147 395.684 352.777 396.16 353.603 396.16ZM360.059 397H358.589V387.662H360.059V397ZM371.805 397H370.335V396.076C369.817 396.748 369.047 397.168 368.165 397.168C366.443 397.168 365.169 395.852 365.169 393.612C365.169 391.428 366.429 390.07 368.165 390.07C369.019 390.07 369.803 390.448 370.335 391.176V387.662H371.805V397ZM368.599 395.866C369.285 395.866 370.013 395.46 370.335 394.956V392.282C370.013 391.778 369.285 391.372 368.599 391.372C367.423 391.372 366.681 392.31 366.681 393.612C366.681 394.928 367.423 395.866 368.599 395.866ZM374.452 389.412C373.948 389.412 373.542 389.006 373.542 388.502C373.542 387.998 373.948 387.592 374.452 387.592C374.956 387.592 375.362 387.998 375.362 388.502C375.362 389.006 374.956 389.412 374.452 389.412ZM375.18 397H373.71V390.238H375.18V397ZM382.701 397H381.231V396.258C380.727 396.846 379.929 397.168 379.033 397.168C377.941 397.168 376.695 396.412 376.695 394.928C376.695 393.36 377.927 392.716 379.033 392.716C379.957 392.716 380.727 393.01 381.231 393.584V392.576C381.231 391.792 380.573 391.316 379.649 391.316C378.893 391.316 378.221 391.596 377.647 392.184L377.031 391.162C377.815 390.406 378.795 390.07 379.873 390.07C381.385 390.07 382.701 390.7 382.701 392.506V397ZM379.621 396.16C380.251 396.16 380.881 395.922 381.231 395.46V394.424C380.881 393.962 380.251 393.724 379.621 393.724C378.795 393.724 378.165 394.214 378.165 394.942C378.165 395.684 378.795 396.16 379.621 396.16ZM386.076 397H384.606V390.238H386.076V391.218C386.594 390.574 387.406 390.07 388.274 390.07V391.526C388.148 391.498 388.008 391.484 387.826 391.484C387.196 391.484 386.37 391.904 386.076 392.394V397ZM389.18 399.646L389.39 398.33C389.544 398.4 389.782 398.442 389.95 398.442C390.426 398.442 390.734 398.302 390.93 397.854L391.266 397.084L388.48 390.238H390.062L392.036 395.306L394.01 390.238H395.578L392.316 398.218C391.854 399.366 391.056 399.73 390.006 399.744C389.796 399.744 389.376 399.702 389.18 399.646Z" fill="#2F3037"/>
<rect x="512" y="385" width="16" height="16" rx="2" stroke="#676F7E" stroke-width="2"/>
<path fill-rule="evenodd" clip-rule="evenodd" d="M272 439.25H252V450.5C252 451.328 252.672 452 253.5 452H270.5C271.328 452 272 451.328 272 450.5V439.25ZM262 440C259.239 440 257 442.239 257 445C257 447.761 259.239 450 262 450C264.761 450 267 447.761 267 445C267 442.239 264.761 440 262 440Z" fill="#1E3050" fill-opacity="0.3"/>
<path d="M256.25 432.5C256.25 432.086 255.914 431.75 255.5 431.75C255.086 431.75 254.75 432.086 254.75 432.5V434H253.5C252.672 434 252 434.672 252 435.5V437.75H272V435.5C272 434.672 271.328 434 270.5 434H269.25V432.5C269.25 432.086 268.914 431.75 268.5 431.75C268.086 431.75 267.75 432.086 267.75 432.5V434H256.25V432.5Z" fill="#1E3050"/>
<path d="M262.75 442.5C262.75 442.086 262.414 441.75 262 441.75C261.586 441.75 261.25 442.086 261.25 442.5V444.25L259.5 444.25C259.086 444.25 258.75 444.586 258.75 445C258.75 445.414 259.086 445.75 259.5 445.75L261.25 445.75L261.25 447.5C261.25 447.914 261.586 448.25 262 448.25C262.414 448.25 262.75 447.914 262.75 447.5L262.75 445.75L264.5 445.75C264.914 445.75 265.25 445.414 265.25 445C265.25 444.586 264.914 444.25 264.5 444.25L262.75 444.25V442.5Z" fill="#1E3050"/>
<path opacity="0.7" d="M289.04 446.168C286.338 446.168 284.994 444.614 284.994 442.304V436.662H286.66V442.262C286.66 443.746 287.486 444.712 289.04 444.712C290.594 444.712 291.42 443.746 291.42 442.262V436.662H293.086V442.304C293.086 444.614 291.756 446.168 289.04 446.168ZM298.668 446.168C297.814 446.168 297.058 445.776 296.498 445.062V448.576H295.028V439.238H296.498V440.162C297.002 439.49 297.786 439.07 298.668 439.07C300.418 439.07 301.664 440.386 301.664 442.612C301.664 444.838 300.418 446.168 298.668 446.168ZM298.234 444.866C299.396 444.866 300.152 443.928 300.152 442.612C300.152 441.296 299.396 440.372 298.234 440.372C297.548 440.372 296.834 440.764 296.498 441.268V443.942C296.82 444.446 297.548 444.866 298.234 444.866ZM306.216 446.168C304.172 446.168 302.73 444.656 302.73 442.612C302.73 440.568 304.172 439.07 306.216 439.07C307.546 439.07 308.33 439.63 308.806 440.274L307.84 441.156C307.462 440.624 306.944 440.372 306.286 440.372C305.068 440.372 304.242 441.296 304.242 442.612C304.242 443.928 305.068 444.866 306.286 444.866C306.944 444.866 307.462 444.586 307.84 444.054L308.806 444.964C308.33 445.594 307.546 446.168 306.216 446.168ZM313.174 446.168C311.018 446.168 309.702 444.544 309.702 442.612C309.702 440.666 311.018 439.07 313.174 439.07C315.33 439.07 316.646 440.666 316.646 442.612C316.646 444.544 315.33 446.168 313.174 446.168ZM313.174 444.866C314.434 444.866 315.12 443.816 315.12 442.612C315.12 441.422 314.434 440.372 313.174 440.372C311.928 440.372 311.228 441.422 311.228 442.612C311.228 443.816 311.928 444.866 313.174 444.866ZM327.919 446H326.449V441.59C326.449 440.862 326.127 440.372 325.329 440.372C324.671 440.372 324.055 440.82 323.761 441.268V446H322.291V441.59C322.291 440.862 321.983 440.372 321.185 440.372C320.527 440.372 319.925 440.834 319.617 441.268V446H318.147V439.238H319.617V440.148C319.911 439.742 320.793 439.07 321.829 439.07C322.837 439.07 323.453 439.574 323.677 440.302C324.055 439.7 324.951 439.07 325.973 439.07C327.205 439.07 327.919 439.742 327.919 441.114V446ZM330.565 438.412C330.061 438.412 329.655 438.006 329.655 437.502C329.655 436.998 330.061 436.592 330.565 436.592C331.069 436.592 331.475 436.998 331.475 437.502C331.475 438.006 331.069 438.412 330.565 438.412ZM331.293 446H329.823V439.238H331.293V446ZM339.248 446H337.778V441.772C337.778 440.708 337.232 440.372 336.406 440.372C335.664 440.372 335.02 440.82 334.67 441.268V446H333.2V439.238H334.67V440.148C335.118 439.616 336 439.07 337.064 439.07C338.52 439.07 339.248 439.854 339.248 441.24V446ZM343.915 448.744C342.767 448.744 341.913 448.492 341.073 447.736L341.759 446.672C342.319 447.302 343.019 447.54 343.915 447.54C344.881 447.54 345.917 447.092 345.917 445.65V444.88C345.399 445.566 344.629 446.014 343.747 446.014C342.025 446.014 340.751 444.768 340.751 442.542C340.751 440.344 341.997 439.07 343.747 439.07C344.601 439.07 345.371 439.448 345.917 440.176V439.238H347.387V445.65C347.387 448.086 345.567 448.744 343.915 448.744ZM344.181 444.698C344.867 444.698 345.581 444.292 345.917 443.802V441.268C345.581 440.778 344.867 440.372 344.181 440.372C343.005 440.372 342.263 441.24 342.263 442.542C342.263 443.844 343.005 444.698 344.181 444.698ZM356.037 446.168C353.993 446.168 352.495 444.754 352.495 442.612C352.495 440.652 353.923 439.07 355.925 439.07C357.955 439.07 359.243 440.61 359.243 442.738V443.102H354.035C354.147 444.11 354.903 444.964 356.177 444.964C356.849 444.964 357.619 444.698 358.109 444.208L358.781 445.174C358.095 445.818 357.101 446.168 356.037 446.168ZM357.829 442.052C357.787 441.254 357.241 440.274 355.911 440.274C354.665 440.274 354.077 441.24 354.021 442.052H357.829ZM364.054 446H362.472L359.714 439.238H361.296L363.27 444.306L365.244 439.238H366.812L364.054 446ZM370.871 446.168C368.827 446.168 367.329 444.754 367.329 442.612C367.329 440.652 368.757 439.07 370.759 439.07C372.789 439.07 374.077 440.61 374.077 442.738V443.102H368.869C368.981 444.11 369.737 444.964 371.011 444.964C371.683 444.964 372.453 444.698 372.943 444.208L373.615 445.174C372.929 445.818 371.935 446.168 370.871 446.168ZM372.663 442.052C372.621 441.254 372.075 440.274 370.745 440.274C369.499 440.274 368.911 441.24 368.855 442.052H372.663ZM381.576 446H380.106V441.772C380.106 440.708 379.56 440.372 378.734 440.372C377.992 440.372 377.348 440.82 376.998 441.268V446H375.528V439.238H376.998V440.148C377.446 439.616 378.328 439.07 379.392 439.07C380.848 439.07 381.576 439.854 381.576 441.24V446ZM385.529 446.168C384.381 446.168 383.793 445.552 383.793 444.418V440.512H382.673V439.238H383.793V437.39H385.263V439.238H386.635V440.512H385.263V444.054C385.263 444.516 385.487 444.866 385.907 444.866C386.187 444.866 386.439 444.74 386.551 444.614L386.901 445.734C386.635 445.972 386.201 446.168 385.529 446.168Z" fill="#2F3037"/>
<rect x="512" y="434" width="16" height="16" rx="2" stroke="#676F7E" stroke-width="2"/>
<path d="M262 486C258.686 486 256 488.686 256 492C256 494.222 257.208 496.16 259 497.197V497.5H265V497.197C266.792 496.16 268 494.222 268 492C268 488.686 265.314 486 262 486Z" fill="#1E3050" fill-opacity="0.3"/>
<path d="M259 501V498.5H265V501H259Z" fill="#1E3050"/>
<path d="M262.75 480.75V484.25H261.25V480.75H262.75Z" fill="#1E3050"/>
<path d="M254.938 482.377L253.877 483.438L257.051 486.612L258.112 485.551L254.938 482.377Z" fill="#1E3050"/>
<path d="M252.25 489.75V491.25H255.75V489.75H252.25Z" fill="#1E3050"/>
<path d="M270.137 483.424L269.077 482.363L265.896 485.543L266.957 486.604L270.137 483.424Z" fill="#1E3050"/>
<path d="M268.25 489.75H271.75V491.25H268.25V489.75Z" fill="#1E3050"/>
<path opacity="0.7" d="M288.2 495.168C286.478 495.168 285.232 494.552 284.392 493.684L285.316 492.41C285.946 493.096 286.968 493.712 288.27 493.712C289.614 493.712 290.132 493.054 290.132 492.424C290.132 490.464 284.7 491.682 284.7 488.252C284.7 486.698 286.044 485.508 288.102 485.508C289.544 485.508 290.734 485.984 291.588 486.824L290.664 488.042C289.922 487.3 288.928 486.964 287.948 486.964C286.996 486.964 286.38 487.44 286.38 488.126C286.38 489.876 291.812 488.798 291.812 492.27C291.812 493.824 290.706 495.168 288.2 495.168ZM295.103 495.168C293.955 495.168 293.367 494.552 293.367 493.418V489.512H292.247V488.238H293.367V486.39H294.837V488.238H296.209V489.512H294.837V493.054C294.837 493.516 295.061 493.866 295.481 493.866C295.761 493.866 296.013 493.74 296.125 493.614L296.475 494.734C296.209 494.972 295.775 495.168 295.103 495.168ZM303.144 495H301.674V494.258C301.17 494.846 300.372 495.168 299.476 495.168C298.384 495.168 297.138 494.412 297.138 492.928C297.138 491.36 298.37 490.716 299.476 490.716C300.4 490.716 301.17 491.01 301.674 491.584V490.576C301.674 489.792 301.016 489.316 300.092 489.316C299.336 489.316 298.664 489.596 298.09 490.184L297.474 489.162C298.258 488.406 299.238 488.07 300.316 488.07C301.828 488.07 303.144 488.7 303.144 490.506V495ZM300.064 494.16C300.694 494.16 301.324 493.922 301.674 493.46V492.424C301.324 491.962 300.694 491.724 300.064 491.724C299.238 491.724 298.608 492.214 298.608 492.942C298.608 493.684 299.238 494.16 300.064 494.16ZM306.52 495H305.05V488.238H306.52V489.218C307.038 488.574 307.85 488.07 308.718 488.07V489.526C308.592 489.498 308.452 489.484 308.27 489.484C307.64 489.484 306.814 489.904 306.52 490.394V495ZM311.947 495.168C310.799 495.168 310.211 494.552 310.211 493.418V489.512H309.091V488.238H310.211V486.39H311.681V488.238H313.053V489.512H311.681V493.054C311.681 493.516 311.905 493.866 312.325 493.866C312.605 493.866 312.857 493.74 312.969 493.614L313.319 494.734C313.053 494.972 312.619 495.168 311.947 495.168ZM320.408 495H318.938V494.104C318.462 494.636 317.622 495.168 316.558 495.168C315.102 495.168 314.374 494.398 314.374 493.026V488.238H315.844V492.48C315.844 493.53 316.376 493.866 317.216 493.866C317.958 493.866 318.602 493.432 318.938 492.984V488.238H320.408V495ZM325.957 495.168C325.103 495.168 324.347 494.776 323.787 494.062V497.576H322.317V488.238H323.787V489.162C324.291 488.49 325.075 488.07 325.957 488.07C327.707 488.07 328.953 489.386 328.953 491.612C328.953 493.838 327.707 495.168 325.957 495.168ZM325.523 493.866C326.685 493.866 327.441 492.928 327.441 491.612C327.441 490.296 326.685 489.372 325.523 489.372C324.837 489.372 324.123 489.764 323.787 490.268V492.942C324.109 493.446 324.837 493.866 325.523 493.866ZM335.714 495H334.076V485.662H335.714V495ZM343.887 495H342.417V494.076C341.899 494.748 341.129 495.168 340.247 495.168C338.525 495.168 337.251 493.852 337.251 491.612C337.251 489.428 338.511 488.07 340.247 488.07C341.101 488.07 341.885 488.448 342.417 489.176V485.662H343.887V495ZM340.681 493.866C341.367 493.866 342.095 493.46 342.417 492.956V490.282C342.095 489.778 341.367 489.372 340.681 489.372C339.505 489.372 338.763 490.31 338.763 491.612C338.763 492.928 339.505 493.866 340.681 493.866ZM348.928 495.168C346.884 495.168 345.386 493.754 345.386 491.612C345.386 489.652 346.814 488.07 348.816 488.07C350.846 488.07 352.134 489.61 352.134 491.738V492.102H346.926C347.038 493.11 347.794 493.964 349.068 493.964C349.74 493.964 350.51 493.698 351 493.208L351.672 494.174C350.986 494.818 349.992 495.168 348.928 495.168ZM350.72 491.052C350.678 490.254 350.132 489.274 348.802 489.274C347.556 489.274 346.968 490.24 346.912 491.052H350.72ZM359.199 495H357.729V494.258C357.225 494.846 356.427 495.168 355.531 495.168C354.439 495.168 353.193 494.412 353.193 492.928C353.193 491.36 354.425 490.716 355.531 490.716C356.455 490.716 357.225 491.01 357.729 491.584V490.576C357.729 489.792 357.071 489.316 356.147 489.316C355.391 489.316 354.719 489.596 354.145 490.184L353.529 489.162C354.313 488.406 355.293 488.07 356.371 488.07C357.883 488.07 359.199 488.7 359.199 490.506V495ZM356.119 494.16C356.749 494.16 357.379 493.922 357.729 493.46V492.424C357.379 491.962 356.749 491.724 356.119 491.724C355.293 491.724 354.663 492.214 354.663 492.942C354.663 493.684 355.293 494.16 356.119 494.16ZM363.428 495.168C362.266 495.168 361.23 494.79 360.53 494.104L361.202 493.054C361.678 493.544 362.616 493.992 363.484 493.992C364.366 493.992 364.828 493.628 364.828 493.096C364.828 491.766 360.74 492.718 360.74 490.114C360.74 489.008 361.692 488.07 363.4 488.07C364.548 488.07 365.416 488.476 366.018 489.008L365.402 490.044C364.996 489.596 364.254 489.232 363.4 489.232C362.63 489.232 362.154 489.596 362.154 490.072C362.154 491.262 366.242 490.366 366.242 493.054C366.242 494.258 365.248 495.168 363.428 495.168Z" fill="#2F3037"/>
<rect x="512" y="483" width="16" height="16" rx="2" stroke="#676F7E" stroke-width="2"/>
</g>
<defs>
<filter id="filter0_b_12757_23370" x="-50" y="-50" width="700" height="715" filterUnits="userSpaceOnUse" color-interpolation-filters="sRGB">
<feFlood flood-opacity="0" result="BackgroundImageFix"/>
<feGaussianBlur in="BackgroundImageFix" stdDeviation="25"/>
<feComposite in2="SourceAlpha" operator="in" result="effect1_backgroundBlur_12757_23370"/>
<feBlend mode="normal" in="SourceGraphic" in2="effect1_backgroundBlur_12757_23370" result="shape"/>
</filter>
<filter id="filter1_d_12757_23370" x="16" y="30" width="388" height="418" filterUnits="userSpaceOnUse" color-interpolation-filters="sRGB">
<feFlood flood-opacity="0" result="BackgroundImageFix"/>
<feColorMatrix in="SourceAlpha" type="matrix" values="0 0 0 0 0 0 0 0 0 0 0 0 0 0 0 0 0 0 127 0" result="hardAlpha"/>
<feOffset dy="14"/>
<feGaussianBlur stdDeviation="12"/>
<feComposite in2="hardAlpha" operator="out"/>
<feColorMatrix type="matrix" values="0 0 0 0 0 0 0 0 0 0 0 0 0 0 0 0 0 0 0.15 0"/>
<feBlend mode="normal" in2="BackgroundImageFix" result="effect1_dropShadow_12757_23370"/>
<feBlend mode="normal" in="SourceGraphic" in2="effect1_dropShadow_12757_23370" result="shape"/>
</filter>
<filter id="filter2_d_12757_23370" x="196" y="195" width="388" height="418" filterUnits="userSpaceOnUse" color-interpolation-filters="sRGB">
<feFlood flood-opacity="0" result="BackgroundImageFix"/>
<feColorMatrix in="SourceAlpha" type="matrix" values="0 0 0 0 0 0 0 0 0 0 0 0 0 0 0 0 0 0 127 0" result="hardAlpha"/>
<feOffset dy="14"/>
<feGaussianBlur stdDeviation="12"/>
<feComposite in2="hardAlpha" operator="out"/>
<feColorMatrix type="matrix" values="0 0 0 0 0 0 0 0 0 0 0 0 0 0 0 0 0 0 0.05 0"/>
<feBlend mode="normal" in2="BackgroundImageFix" result="effect1_dropShadow_12757_23370"/>
<feBlend mode="normal" in="SourceGraphic" in2="effect1_dropShadow_12757_23370" result="shape"/>
</filter>
<linearGradient id="paint0_linear_12757_23370" x1="0" y1="0" x2="600" y2="615" gradientUnits="userSpaceOnUse">
<stop stop-color="#EFE8CC"/>
<stop offset="1" stop-color="#D8F1F3" stop-opacity="0.4"/>
</linearGradient>
</defs>
</svg>
