<svg width="290" height="207" viewBox="0 0 290 207" fill="none" xmlns="http://www.w3.org/2000/svg">
<path d="M8.05683 32.5434C12.5766 37.0632 19.9046 37.0632 24.4244 32.5434L35.8817 21.0861C36.4843 20.4835 36.4843 19.5064 35.8817 18.9038L33.1537 16.1759C32.5511 15.5732 31.574 15.5732 30.9714 16.1759L19.5141 27.6332C17.7062 29.4411 14.775 29.4411 12.9671 27.6332C11.1592 25.8253 11.1592 22.894 12.9671 21.0861L24.4244 9.62885C25.027 9.02621 25.027 8.04916 24.4244 7.44651L21.6965 4.71858C21.0938 4.11594 20.1168 4.11594 19.5141 4.71858L8.05683 16.1759C3.53704 20.6957 3.53704 28.0236 8.05683 32.5434Z" fill="#C624FF" fill-opacity="0.16" stroke="#C624FF" stroke-width="2" stroke-linecap="round" stroke-linejoin="round"/>
<path d="M15.707 8.54199L20.6013 13.4363L15.707 8.54199Z" fill="#C624FF" fill-opacity="0.16"/>
<path d="M15.707 8.54199L20.6013 13.4363" stroke="#C624FF" stroke-width="2" stroke-linecap="round" stroke-linejoin="round"/>
<path d="M27.1748 20.0107L32.0572 24.8931L27.1748 20.0107Z" fill="#C624FF" fill-opacity="0.16"/>
<path d="M27.1748 20.0107L32.0572 24.8931" stroke="#C624FF" stroke-width="2" stroke-linecap="round" stroke-linejoin="round"/>
<path d="M108.752 5.68081C109.533 4.89977 110.8 4.89977 111.581 5.68082L117.919 12.0191C118.7 12.8001 118.7 14.0664 117.919 14.8475L102.414 30.3524C101.633 31.1334 100.367 31.1334 99.5855 30.3524L93.2472 24.0141C92.4662 23.2331 92.4662 21.9668 93.2472 21.1857L108.752 5.68081Z" fill="#C624FF" fill-opacity="0.16" stroke="#C624FF" stroke-width="2" stroke-linejoin="round"/>
<path d="M93.5003 24.2666L99.3337 30.0999L94.9145 34.5191C94.1335 35.3001 92.8672 35.3001 92.0861 34.5191L89.0812 31.5141C88.3002 30.7331 88.3002 29.4668 89.0812 28.6857L93.5003 24.2666Z" fill="#C624FF" fill-opacity="0.16" stroke="#C624FF" stroke-width="2" stroke-linejoin="round"/>
<path d="M104.974 9.48452L114.114 18.6235" stroke="#C624FF" stroke-width="2" stroke-linecap="round" stroke-linejoin="round"/>
<path d="M114.728 8.87207L109.546 14.0539" stroke="#C624FF" stroke-width="2" stroke-linecap="round" stroke-linejoin="round"/>
<path d="M106.091 17.5088L102.061 21.5391" stroke="#C624FF" stroke-width="2" stroke-linecap="round" stroke-linejoin="round"/>
<path d="M175.667 10.0993L175.667 32.5993C175.667 34.4402 177.532 35.9326 179.834 35.9326C182.135 35.9326 184 34.4402 184 32.5993L184 10.0993L179.834 4.26595L175.667 10.0993Z" fill="#C624FF" fill-opacity="0.16" stroke="#C624FF" stroke-width="2" stroke-linecap="round" stroke-linejoin="round"/>
<path d="M175.667 13.4326L184 13.4326L175.667 13.4326Z" fill="#C624FF" fill-opacity="0.16"/>
<path d="M175.667 13.4326L184 13.4326" stroke="#C624FF" stroke-width="2" stroke-linecap="round" stroke-linejoin="round"/>
<path d="M175.667 29.2666L184 29.2666L175.667 29.2666Z" fill="#C624FF" fill-opacity="0.16"/>
<path d="M175.667 29.2666L184 29.2666" stroke="#C624FF" stroke-width="2" stroke-linecap="round" stroke-linejoin="round"/>
<path d="M179.833 29.266V35.9326" stroke="#C624FF" stroke-width="2" stroke-linecap="round" stroke-linejoin="round"/>
<rect x="187.333" y="4.2666" width="10" height="31.6667" rx="2" fill="#C624FF" fill-opacity="0.16" stroke="#C624FF" stroke-width="2" stroke-linejoin="round"/>
<path d="M187.333 9.2666H190.666" stroke="#C624FF" stroke-width="2" stroke-linecap="round" stroke-linejoin="round"/>
<path d="M187.333 22.5996H190.666" stroke="#C624FF" stroke-width="2" stroke-linecap="round" stroke-linejoin="round"/>
<path d="M187.333 15.9326H190.666" stroke="#C624FF" stroke-width="2" stroke-linecap="round" stroke-linejoin="round"/>
<path d="M187.333 29.2666H190.666" stroke="#C624FF" stroke-width="2" stroke-linecap="round" stroke-linejoin="round"/>
<path d="M259.586 14.6826L260.333 18.4326" stroke="#C624FF" stroke-width="2" stroke-linecap="round" stroke-linejoin="round"/>
<path d="M262.831 12.75L266.253 18.4326" stroke="#C624FF" stroke-width="2" stroke-linecap="round" stroke-linejoin="round"/>
<path d="M257.92 20.4326C257.92 19.328 258.815 18.4326 259.92 18.4326H276.253V28.4095C276.253 30.0547 275.766 31.6631 274.854 33.032L274.587 33.4326C273.545 34.9945 271.792 35.9326 269.915 35.9326H264.258C262.381 35.9326 260.628 34.9945 259.587 33.4326L259.32 33.032C258.407 31.6631 257.92 30.0547 257.92 28.4095V20.4326Z" fill="#C624FF" fill-opacity="0.16" stroke="#C624FF" stroke-width="2" stroke-linejoin="round"/>
<path d="M274.586 18.4326H277.919C281.141 18.4326 283.666 21.0443 283.666 24.266C283.666 27.4876 281.141 30.0993 277.919 30.0993H276.074" stroke="#C624FF" stroke-width="2"/>
<path d="M268.847 18.4333L271.652 7.4139L274.919 4.2666L276.253 8.71155L273.778 18.4333" stroke="#C624FF" stroke-width="2" stroke-linejoin="round"/>
<path d="M256.253 12.5999C254.587 10.5999 255.559 6.21105 256.253 4.2666C257.076 5.6939 261.08 7.05988 262.919 9.2666C265.003 11.7666 261.113 14.5765 260.419 14.6833C259.725 14.8222 257.92 14.5999 256.253 12.5999Z" fill="#C624FF" fill-opacity="0.16" stroke="#C624FF" stroke-width="2" stroke-linecap="round" stroke-linejoin="round"/>
<path d="M270.693 11.1592L275.273 12.4548" stroke="#C624FF" stroke-width="2" stroke-linecap="round" stroke-linejoin="round"/>
<path d="M26.8096 88.5027C27.6109 87.8089 28.8145 87.8608 29.5532 88.6211L35.0546 94.2834C35.778 95.0281 35.8114 96.2025 35.1315 96.987L21.1662 113.1C18.8252 112.026 17.5437 112.012 15.2736 113.1L12.167 114.767H4.66699L10.5003 108.517C11.5054 106.525 11.857 105.233 10.5003 102.624L26.8096 88.5027Z" fill="#C624FF" fill-opacity="0.16"/>
<path d="M10.5003 108.517C11.5054 106.525 11.857 105.233 10.5003 102.624L26.8096 88.5027C27.6109 87.8089 28.8145 87.8608 29.5532 88.6211L35.0546 94.2834C35.778 95.0281 35.8114 96.2025 35.1315 96.987L21.1662 113.1C18.8252 112.026 17.5437 112.012 15.2736 113.1M10.5003 108.517L15.2736 113.1M10.5003 108.517L4.66699 114.767H12.167L15.2736 113.1" stroke="#C624FF" stroke-width="2" stroke-linejoin="round"/>
<path d="M13.1338 100.448L23.1511 110.466" stroke="#C624FF" stroke-width="2" stroke-linecap="round" stroke-linejoin="round"/>
<path d="M14.667 118.933L36.3337 118.933" stroke="#C624FF" stroke-width="2" stroke-linecap="round" stroke-linejoin="round"/>
<path d="M115.163 98.0999C118.084 98.0999 119.334 93.1917 119.334 87.3791C100.012 86.0031 90.6597 97.4533 88.2873 110.63H97.6793C104.342 110.63 111.005 105.647 111.005 103.156C111.005 101.08 109.46 99.9059 107.667 98.0999H115.163Z" fill="#C624FF" fill-opacity="0.16"/>
<path d="M87.6847 118.933C87.6043 116.157 87.7963 113.356 88.2873 110.63M88.2873 110.63C90.6597 97.4533 100.012 86.0031 119.334 87.3791C119.334 93.1917 118.084 98.0999 115.163 98.0999H107.667C109.46 99.9059 111.005 101.08 111.005 103.156C111.005 105.647 104.342 110.63 97.6793 110.63H88.2873Z" stroke="#C624FF" stroke-width="2" stroke-linecap="round" stroke-linejoin="round"/>
<path d="M182.376 88.9754C180.097 91.2537 180.097 94.9476 182.376 97.226C183.044 97.8938 184.001 98.7665 184.001 101.433L189 101.433C189 98.7666 189.958 97.8938 190.626 97.226C192.904 94.9476 192.904 91.2537 190.626 88.9754C189.487 87.8362 187.994 87.2666 186.501 87.2666C185.008 87.2666 183.515 87.8362 182.376 88.9754Z" fill="#C624FF" fill-opacity="0.16"/>
<path d="M184.001 101.433C184.001 98.7665 183.044 97.8938 182.376 97.226C180.097 94.9476 180.097 91.2537 182.376 88.9754C183.515 87.8362 185.008 87.2666 186.501 87.2666C187.994 87.2666 189.487 87.8362 190.626 88.9754C192.904 91.2537 192.904 94.9476 190.626 97.226C189.958 97.8938 189 98.7666 189 101.433M184.001 101.433V106.433M184.001 101.433L189 101.433M189 101.433V106.433M189 101.433C189 101.433 189 101.433 189 101.433Z" stroke="#C624FF" stroke-width="2"/>
<path d="M182.334 106.433H190.667L192.334 109.766H180.667L182.334 106.433Z" fill="#C624FF" fill-opacity="0.16" stroke="#C624FF" stroke-width="2" stroke-linejoin="round"/>
<path d="M174.833 111.767C174.833 110.662 175.728 109.767 176.833 109.767H196.166C197.271 109.767 198.166 110.662 198.166 111.767V115.6H174.833V111.767Z" fill="#C624FF" fill-opacity="0.16" stroke="#C624FF" stroke-width="2" stroke-linejoin="round"/>
<path d="M177.333 115.6H194.833V118.933H177.333V115.6Z" fill="#C624FF" fill-opacity="0.16" stroke="#C624FF" stroke-width="2" stroke-linejoin="round"/>
<path d="M267.833 98.9326H280.333M265.333 101.433V113.933M282.833 101.433V113.933M280.333 116.433H267.833" stroke="#C624FF" stroke-width="2" stroke-linejoin="round"/>
<circle cx="282.833" cy="116.433" r="2.5" fill="#C624FF" fill-opacity="0.16" stroke="#C624FF" stroke-width="2"/>
<circle cx="282.833" cy="98.9326" r="2.5" fill="#C624FF" fill-opacity="0.16" stroke="#C624FF" stroke-width="2"/>
<circle cx="265.333" cy="116.433" r="2.5" fill="#C624FF" fill-opacity="0.16" stroke="#C624FF" stroke-width="2"/>
<circle cx="265.333" cy="98.9326" r="2.5" fill="#C624FF" fill-opacity="0.16" stroke="#C624FF" stroke-width="2"/>
<path d="M258.667 89.7666H271.167M256.167 92.2666V104.767M273.667 92.2666V98.9333M265.334 107.267H258.667" stroke="#C624FF" stroke-width="2" stroke-linejoin="round"/>
<circle cx="273.667" cy="89.7666" r="2.5" fill="#C624FF" fill-opacity="0.16" stroke="#C624FF" stroke-width="2"/>
<circle cx="256.167" cy="107.267" r="2.5" fill="#C624FF" fill-opacity="0.16" stroke="#C624FF" stroke-width="2"/>
<circle cx="256.167" cy="89.7666" r="2.5" fill="#C624FF" fill-opacity="0.16" stroke="#C624FF" stroke-width="2"/>
<path d="M9.66699 186.1L15.5003 191.1L20.5003 186.1L25.5003 191.1L31.3337 186.1V199.933C31.3337 201.038 30.4382 201.933 29.3337 201.933H25.5003H15.5003H11.667C10.5624 201.933 9.66699 201.038 9.66699 199.933V186.1Z" fill="#C624FF" fill-opacity="0.16"/>
<path d="M15.5003 191.1L9.66699 186.1V199.933C9.66699 201.038 10.5624 201.933 11.667 201.933H15.5003M15.5003 191.1L20.5003 186.1L25.5003 191.1M15.5003 191.1V201.933M25.5003 191.1L31.3337 186.1V199.933C31.3337 201.038 30.4382 201.933 29.3337 201.933H25.5003M25.5003 191.1V201.933M15.5003 201.933H25.5003" stroke="#C624FF" stroke-width="2" stroke-linejoin="round"/>
<path d="M9.66699 186.1L18.8497 172.679C19.644 171.518 21.3567 171.518 22.1509 172.679L31.3337 186.1" stroke="#C624FF" stroke-width="2" stroke-linecap="round" stroke-linejoin="round"/>
<path d="M20.5 171.571V179.433M20.5 179.433H14.25M20.5 179.433H26.75" stroke="#C624FF" stroke-width="2" stroke-linecap="round" stroke-linejoin="round"/>
<path d="M87.667 201.933L116.417 173.183" stroke="#C624FF" stroke-width="2" stroke-linecap="round" stroke-linejoin="round"/>
<path d="M113.412 189.153L107.667 186.933" stroke="#C624FF" stroke-width="2" stroke-linecap="round" stroke-linejoin="round"/>
<path d="M109.245 193.313L103.5 191.1" stroke="#C624FF" stroke-width="2" stroke-linecap="round" stroke-linejoin="round"/>
<path d="M116.649 172.951C113.069 169.372 107.265 169.372 103.685 172.951L93.3227 183.314C92.0725 184.564 91.3701 186.26 91.3701 188.028L91.3701 196.933C91.3701 197.854 92.1163 198.6 93.0368 198.6H101.203C102.971 198.6 104.666 197.898 105.917 196.647L116.649 185.915C120.229 182.335 120.229 176.531 116.649 172.951Z" fill="#C624FF" fill-opacity="0.16" stroke="#C624FF" stroke-width="2" stroke-linejoin="round"/>
<path d="M202.052 172.552L200.048 170.548C199.673 170.173 199.064 170.173 198.689 170.548L185.313 183.924L184.833 187.767L188.676 187.286L202.052 173.91C202.427 173.535 202.427 172.927 202.052 172.552Z" fill="#C624FF" fill-opacity="0.16" stroke="#C624FF" stroke-width="2" stroke-linecap="round" stroke-linejoin="round"/>
<path d="M194.833 174.433L198.166 177.766L194.833 174.433Z" fill="#C624FF" fill-opacity="0.16"/>
<path d="M194.833 174.433L198.166 177.766" stroke="#C624FF" stroke-width="2" stroke-linecap="round" stroke-linejoin="round"/>
<path d="M184.302 179.431C179.631 176.51 174.837 176.028 172.315 178.637C168.953 182.115 170.899 189.768 176.663 195.73C182.426 201.692 189.824 203.706 193.186 200.228C195.574 197.758 195.284 193.181 192.849 188.599" stroke="#C624FF" stroke-width="2" stroke-linecap="round"/>
<path d="M181.996 181.745C180.008 180.87 178.233 180.852 177.249 181.893C175.5 183.745 176.918 188.249 180.416 191.953C183.915 195.657 188.168 197.158 189.917 195.306C190.771 194.402 190.87 192.866 190.341 191.1" stroke="#C624FF" stroke-width="2" stroke-linecap="round"/>
<circle cx="269.5" cy="186.1" r="15.8333" fill="#C624FF" fill-opacity="0.16" stroke="#C624FF" stroke-width="2"/>
<path d="M280.693 174.906L258.302 197.297" stroke="#C624FF" stroke-width="2"/>
<path d="M260.333 195.266V173.183" stroke="#C624FF" stroke-width="2"/>
<path d="M267 188.6V170.458" stroke="#C624FF" stroke-width="2"/>
<path d="M273.667 181.933V170.813" stroke="#C624FF" stroke-width="2"/>
</svg>
