<svg width="600" height="615" viewBox="0 0 600 615" fill="none" xmlns="http://www.w3.org/2000/svg">
<g filter="url(#filter0_b_12757_23572)">
<rect width="600" height="615" fill="url(#paint0_linear_12757_23572)"/>
</g>
<g filter="url(#filter1_d_12757_23572)">
<rect x="130" y="142" width="340" height="330" rx="16" fill="white" shape-rendering="crispEdges"/>
<rect x="160" y="392" width="280" height="50" rx="8" fill="#D680D6"/>
<path d="M271.127 420.656C269.45 420.656 268.254 420.097 267.435 419.278L268.449 417.835C269.06 418.472 270.009 419.018 271.205 419.018C272.232 419.018 272.713 418.563 272.713 418.056C272.713 416.548 267.721 417.601 267.721 414.338C267.721 412.895 268.969 411.699 271.01 411.699C272.388 411.699 273.532 412.115 274.39 412.908L273.363 414.286C272.661 413.636 271.725 413.337 270.841 413.337C270.061 413.337 269.619 413.675 269.619 414.195C269.619 415.56 274.598 414.637 274.598 417.874C274.598 419.46 273.454 420.656 271.127 420.656ZM276.608 413.545C276.075 413.545 275.633 413.103 275.633 412.557C275.633 412.011 276.075 411.582 276.608 411.582C277.154 411.582 277.596 412.011 277.596 412.557C277.596 413.103 277.154 413.545 276.608 413.545ZM277.44 420.5H275.789V414.221H277.44V420.5ZM281.651 423.048C280.585 423.048 279.74 422.801 278.947 422.112L279.688 420.929C280.195 421.475 280.871 421.696 281.651 421.696C282.444 421.696 283.393 421.358 283.393 420.084V419.473C282.899 420.097 282.223 420.448 281.443 420.448C279.883 420.448 278.674 419.356 278.674 417.263C278.674 415.209 279.857 414.065 281.443 414.065C282.197 414.065 282.886 414.377 283.393 415.027V414.221H285.044V420.084C285.044 422.463 283.198 423.048 281.651 423.048ZM281.976 418.992C282.509 418.992 283.107 418.68 283.393 418.277V416.236C283.107 415.833 282.509 415.534 281.976 415.534C281.027 415.534 280.377 416.184 280.377 417.263C280.377 418.342 281.027 418.992 281.976 418.992ZM292.583 420.5H290.919V416.704C290.919 415.833 290.464 415.534 289.762 415.534C289.112 415.534 288.618 415.898 288.332 416.262V420.5H286.681V414.221H288.332V415.027C288.735 414.559 289.515 414.065 290.529 414.065C291.92 414.065 292.583 414.845 292.583 416.067V420.5ZM299.433 420.5H297.587V411.829H299.433V420.5ZM307.018 420.5H305.354V416.704C305.354 415.833 304.899 415.534 304.197 415.534C303.547 415.534 303.053 415.898 302.767 416.262V420.5H301.116V414.221H302.767V415.027C303.17 414.559 303.95 414.065 304.964 414.065C306.355 414.065 307.018 414.845 307.018 416.067V420.5Z" fill="white"/>
<path d="M330 417H316" stroke="white" stroke-width="2" stroke-linecap="round" stroke-linejoin="round"/>
<path d="M325 422C325 417 330 417 330 417C330 417 325 417 325 412" stroke="white" stroke-width="2" stroke-linecap="round" stroke-linejoin="round"/>
<rect x="160" y="232" width="280" height="50" rx="8" fill="#A6B1B5" fill-opacity="0.1"/>
<g opacity="0.65">
<path fill-rule="evenodd" clip-rule="evenodd" d="M176.667 252C176.667 251.31 177.227 250.75 177.917 250.75H192.084C192.774 250.75 193.334 251.31 193.334 252V253.202L185.001 256.463L176.667 253.202V252ZM176.667 254.276V262C176.667 262.69 177.227 263.25 177.917 263.25H192.084C192.774 263.25 193.334 262.69 193.334 262V254.276L185.183 257.465C185.066 257.511 184.936 257.511 184.819 257.465L176.667 254.276Z" fill="#1E3050"/>
</g>
<path opacity="0.35" d="M209.511 261H207.99V253.668H205.364V252.329H212.137V253.668H209.511V261ZM212.606 263.457L212.801 262.235C212.944 262.3 213.165 262.339 213.321 262.339C213.763 262.339 214.049 262.209 214.231 261.793L214.543 261.078L211.956 254.721H213.425L215.258 259.427L217.091 254.721H218.547L215.518 262.131C215.089 263.197 214.348 263.535 213.373 263.548C213.178 263.548 212.788 263.509 212.606 263.457ZM222.785 261.156C221.992 261.156 221.29 260.792 220.77 260.129V263.392H219.405V254.721H220.77V255.579C221.238 254.955 221.966 254.565 222.785 254.565C224.41 254.565 225.567 255.787 225.567 257.854C225.567 259.921 224.41 261.156 222.785 261.156ZM222.382 259.947C223.461 259.947 224.163 259.076 224.163 257.854C224.163 256.632 223.461 255.774 222.382 255.774C221.745 255.774 221.082 256.138 220.77 256.606V259.089C221.069 259.557 221.745 259.947 222.382 259.947ZM229.845 261.156C227.947 261.156 226.556 259.843 226.556 257.854C226.556 256.034 227.882 254.565 229.741 254.565C231.626 254.565 232.822 255.995 232.822 257.971V258.309H227.986C228.09 259.245 228.792 260.038 229.975 260.038C230.599 260.038 231.314 259.791 231.769 259.336L232.393 260.233C231.756 260.831 230.833 261.156 229.845 261.156ZM231.509 257.334C231.47 256.593 230.963 255.683 229.728 255.683C228.571 255.683 228.025 256.58 227.973 257.334H231.509ZM240.433 261.156C238.535 261.156 237.144 259.843 237.144 257.854C237.144 256.034 238.47 254.565 240.329 254.565C242.214 254.565 243.41 255.995 243.41 257.971V258.309H238.574C238.678 259.245 239.38 260.038 240.563 260.038C241.187 260.038 241.902 259.791 242.357 259.336L242.981 260.233C242.344 260.831 241.421 261.156 240.433 261.156ZM242.097 257.334C242.058 256.593 241.551 255.683 240.316 255.683C239.159 255.683 238.613 256.58 238.561 257.334H242.097ZM253.831 261H252.466V256.905C252.466 256.229 252.167 255.774 251.426 255.774C250.815 255.774 250.243 256.19 249.97 256.606V261H248.605V256.905C248.605 256.229 248.319 255.774 247.578 255.774C246.967 255.774 246.408 256.203 246.122 256.606V261H244.757V254.721H246.122V255.566C246.395 255.189 247.214 254.565 248.176 254.565C249.112 254.565 249.684 255.033 249.892 255.709C250.243 255.15 251.075 254.565 252.024 254.565C253.168 254.565 253.831 255.189 253.831 256.463V261ZM260.812 261H259.447V260.311C258.979 260.857 258.238 261.156 257.406 261.156C256.392 261.156 255.235 260.454 255.235 259.076C255.235 257.62 256.379 257.022 257.406 257.022C258.264 257.022 258.979 257.295 259.447 257.828V256.892C259.447 256.164 258.836 255.722 257.978 255.722C257.276 255.722 256.652 255.982 256.119 256.528L255.547 255.579C256.275 254.877 257.185 254.565 258.186 254.565C259.59 254.565 260.812 255.15 260.812 256.827V261ZM257.952 260.22C258.537 260.22 259.122 259.999 259.447 259.57V258.608C259.122 258.179 258.537 257.958 257.952 257.958C257.185 257.958 256.6 258.413 256.6 259.089C256.6 259.778 257.185 260.22 257.952 260.22ZM263.27 253.954C262.802 253.954 262.425 253.577 262.425 253.109C262.425 252.641 262.802 252.264 263.27 252.264C263.738 252.264 264.115 252.641 264.115 253.109C264.115 253.577 263.738 253.954 263.27 253.954ZM263.946 261H262.581V254.721H263.946V261ZM267.082 261H265.717V252.329H267.082V261Z" fill="#2F3037"/>
<rect x="160" y="302" width="280" height="50" rx="8" fill="#A6B1B5" fill-opacity="0.1"/>
<g opacity="0.65">
<path fill-rule="evenodd" clip-rule="evenodd" d="M183 316.75C181.895 316.75 181 317.645 181 318.75V323.5H180.5C179.672 323.5 179 324.172 179 325V335.228C179 335.429 179.12 335.61 179.305 335.689L179.305 335.689L179.306 335.689L179.309 335.691L179.317 335.694L179.347 335.706C179.373 335.717 179.41 335.731 179.458 335.75C179.553 335.787 179.693 335.838 179.873 335.9C180.233 336.024 180.755 336.187 181.411 336.35C182.722 336.675 184.576 337 186.75 337C188.923 337 190.898 336.675 192.329 336.352C193.045 336.19 193.627 336.028 194.031 335.906C194.234 335.845 194.392 335.794 194.5 335.757C194.554 335.739 194.596 335.725 194.624 335.715L194.658 335.703L194.667 335.7L194.669 335.699L194.671 335.698C194.868 335.627 195 335.439 195 335.228V325C195 324.172 194.328 323.5 193.5 323.5H193V318.75C193 317.645 192.105 316.75 191 316.75H183ZM191 323.5V318.75H183V323.5H191ZM187 328C185.895 328 185 328.895 185 330C185 331.105 185.895 332 187 332C188.105 332 189 331.105 189 330C189 328.895 188.105 328 187 328Z" fill="#1E3050"/>
</g>
<path opacity="0.35" d="M212.9 331.156C211.301 331.156 210.144 330.584 209.364 329.778L210.222 328.595C210.807 329.232 211.756 329.804 212.965 329.804C214.213 329.804 214.694 329.193 214.694 328.608C214.694 326.788 209.65 327.919 209.65 324.734C209.65 323.291 210.898 322.186 212.809 322.186C214.148 322.186 215.253 322.628 216.046 323.408L215.188 324.539C214.499 323.85 213.576 323.538 212.666 323.538C211.782 323.538 211.21 323.98 211.21 324.617C211.21 326.242 216.254 325.241 216.254 328.465C216.254 329.908 215.227 331.156 212.9 331.156ZM223.219 331H221.854V327.048C221.854 326.06 221.36 325.774 220.593 325.774C219.891 325.774 219.293 326.19 218.981 326.606V331H217.616V322.329H218.981V325.566C219.397 325.072 220.203 324.565 221.191 324.565C222.543 324.565 223.219 325.267 223.219 326.554V331ZM230.607 331H229.242V327.048C229.242 326.06 228.748 325.774 227.981 325.774C227.279 325.774 226.681 326.19 226.369 326.606V331H225.004V322.329H226.369V325.566C226.785 325.072 227.591 324.565 228.579 324.565C229.931 324.565 230.607 325.267 230.607 326.554V331ZM237.996 331H236.631V327.048C236.631 326.06 236.137 325.774 235.37 325.774C234.668 325.774 234.07 326.19 233.758 326.606V331H232.393V322.329H233.758V325.566C234.174 325.072 234.98 324.565 235.968 324.565C237.32 324.565 237.996 325.267 237.996 326.554V331ZM241.459 330.506C241.459 331.403 240.965 332.222 240.25 332.729L239.626 332.222C240.042 331.975 240.484 331.442 240.562 331C240.536 331.013 240.432 331.039 240.341 331.039C239.912 331.039 239.574 330.688 239.574 330.207C239.574 329.726 239.964 329.323 240.458 329.323C240.991 329.323 241.459 329.752 241.459 330.506ZM247.867 331H246.346V322.329H250.168C251.988 322.329 252.989 323.564 252.989 325.046C252.989 326.515 251.975 327.75 250.168 327.75H247.867V331ZM249.96 326.411C250.818 326.411 251.429 325.865 251.429 325.046C251.429 324.214 250.818 323.668 249.96 323.668H247.867V326.411H249.96ZM259.188 331H257.823V330.311C257.355 330.857 256.614 331.156 255.782 331.156C254.768 331.156 253.611 330.454 253.611 329.076C253.611 327.62 254.755 327.022 255.782 327.022C256.64 327.022 257.355 327.295 257.823 327.828V326.892C257.823 326.164 257.212 325.722 256.354 325.722C255.652 325.722 255.028 325.982 254.495 326.528L253.923 325.579C254.651 324.877 255.561 324.565 256.562 324.565C257.966 324.565 259.188 325.15 259.188 326.827V331ZM256.328 330.22C256.913 330.22 257.498 329.999 257.823 329.57V328.608C257.498 328.179 256.913 327.958 256.328 327.958C255.561 327.958 254.976 328.413 254.976 329.089C254.976 329.778 255.561 330.22 256.328 330.22ZM263.115 331.156C262.036 331.156 261.074 330.805 260.424 330.168L261.048 329.193C261.49 329.648 262.361 330.064 263.167 330.064C263.986 330.064 264.415 329.726 264.415 329.232C264.415 327.997 260.619 328.881 260.619 326.463C260.619 325.436 261.503 324.565 263.089 324.565C264.155 324.565 264.961 324.942 265.52 325.436L264.948 326.398C264.571 325.982 263.882 325.644 263.089 325.644C262.374 325.644 261.932 325.982 261.932 326.424C261.932 327.529 265.728 326.697 265.728 329.193C265.728 330.311 264.805 331.156 263.115 331.156ZM269.247 331.156C268.168 331.156 267.206 330.805 266.556 330.168L267.18 329.193C267.622 329.648 268.493 330.064 269.299 330.064C270.118 330.064 270.547 329.726 270.547 329.232C270.547 327.997 266.751 328.881 266.751 326.463C266.751 325.436 267.635 324.565 269.221 324.565C270.287 324.565 271.093 324.942 271.652 325.436L271.08 326.398C270.703 325.982 270.014 325.644 269.221 325.644C268.506 325.644 268.064 325.982 268.064 326.424C268.064 327.529 271.86 326.697 271.86 329.193C271.86 330.311 270.937 331.156 269.247 331.156ZM280.137 331H278.707L277.238 326.398L275.782 331H274.352L272.402 324.721H273.819L275.145 329.284L276.64 324.721H277.849L279.331 329.284L280.657 324.721H282.087L280.137 331ZM285.881 331.156C283.879 331.156 282.657 329.648 282.657 327.854C282.657 326.047 283.879 324.565 285.881 324.565C287.883 324.565 289.105 326.047 289.105 327.854C289.105 329.648 287.883 331.156 285.881 331.156ZM285.881 329.947C287.051 329.947 287.688 328.972 287.688 327.854C287.688 326.749 287.051 325.774 285.881 325.774C284.724 325.774 284.074 326.749 284.074 327.854C284.074 328.972 284.724 329.947 285.881 329.947ZM291.864 331H290.499V324.721H291.864V325.631C292.345 325.033 293.099 324.565 293.905 324.565V325.917C293.788 325.891 293.658 325.878 293.489 325.878C292.904 325.878 292.137 326.268 291.864 326.723V331ZM300.791 331H299.426V330.142C298.945 330.766 298.23 331.156 297.411 331.156C295.812 331.156 294.629 329.934 294.629 327.854C294.629 325.826 295.799 324.565 297.411 324.565C298.204 324.565 298.932 324.916 299.426 325.592V322.329H300.791V331ZM297.814 329.947C298.451 329.947 299.127 329.57 299.426 329.102V326.619C299.127 326.151 298.451 325.774 297.814 325.774C296.722 325.774 296.033 326.645 296.033 327.854C296.033 329.076 296.722 329.947 297.814 329.947Z" fill="#2F3037"/>
<g opacity="0.65">
<path fill-rule="evenodd" clip-rule="evenodd" d="M422.87 326.836L422.634 326.621C422.87 326.836 422.87 326.836 422.87 326.836L422.869 326.837L422.866 326.841L422.854 326.853C422.845 326.864 422.831 326.879 422.812 326.898C422.776 326.937 422.722 326.993 422.653 327.064C422.515 327.206 422.313 327.407 422.056 327.647C421.541 328.127 420.803 328.767 419.904 329.407C418.121 330.678 415.641 332 413 332C410.359 332 407.879 330.678 406.096 329.407C405.197 328.767 404.458 328.127 403.944 327.647C403.687 327.407 403.485 327.206 403.347 327.064C403.277 326.993 403.224 326.937 403.187 326.898C403.169 326.879 403.155 326.864 403.145 326.853L403.134 326.841L403.131 326.837L403.129 326.836L403.477 326.52C403.307 326.675 403.22 326.754 403.175 326.794C403.13 326.835 403.129 326.836 403.129 326.836L402.825 326.5L403.129 326.164L403.5 326.5C403.129 326.164 403.13 326.164 403.13 326.164L403.131 326.163L403.134 326.159L403.145 326.147C403.155 326.136 403.169 326.121 403.187 326.102C403.224 326.063 403.277 326.007 403.347 325.936C403.485 325.794 403.687 325.593 403.944 325.353C404.458 324.873 405.197 324.233 406.096 323.593C407.879 322.322 410.359 321 413 321C415.641 321 418.121 322.322 419.904 323.593C420.803 324.233 421.541 324.873 422.056 325.353C422.313 325.593 422.515 325.794 422.653 325.936C422.722 326.007 422.776 326.063 422.812 326.102C422.831 326.121 422.845 326.136 422.854 326.147L422.866 326.159L422.869 326.163L422.87 326.164L422.5 326.5C422.87 326.164 422.87 326.164 422.87 326.164L423.175 326.5L422.87 326.836ZM410.5 326.5C410.5 325.119 411.619 324 413 324C414.381 324 415.5 325.119 415.5 326.5C415.5 327.881 414.381 329 413 329C411.619 329 410.5 327.881 410.5 326.5Z" fill="#1E3050"/>
</g>
<g opacity="0.65">
<path d="M422.083 174.083L437.917 189.917" stroke="#1E3050" stroke-width="1.5" stroke-linecap="square"/>
<path d="M437.917 174.083L422.083 189.917" stroke="#1E3050" stroke-width="1.5" stroke-linecap="square"/>
</g>
<path d="M163.12 186H160.99V175.995H168.07V177.87H163.12V179.97H167.965V181.845H163.12V186ZM173.024 186.18C170.639 186.18 169.199 184.425 169.199 182.37C169.199 180.315 170.639 178.575 173.024 178.575C175.424 178.575 176.864 180.315 176.864 182.37C176.864 184.425 175.424 186.18 173.024 186.18ZM173.024 184.485C174.224 184.485 174.884 183.51 174.884 182.37C174.884 181.245 174.224 180.27 173.024 180.27C171.839 180.27 171.179 181.245 171.179 182.37C171.179 183.51 171.839 184.485 173.024 184.485ZM180.347 186H178.442V178.755H180.347V179.73C180.872 179.1 181.757 178.575 182.657 178.575V180.435C182.522 180.405 182.357 180.39 182.132 180.39C181.502 180.39 180.662 180.75 180.347 181.215V186ZM194.903 186H192.983V181.425C192.983 180.75 192.683 180.27 191.903 180.27C191.228 180.27 190.673 180.72 190.403 181.11V186H188.483V181.425C188.483 180.75 188.183 180.27 187.403 180.27C186.743 180.27 186.188 180.72 185.903 181.11V186H183.998V178.755H185.903V179.685C186.218 179.265 187.163 178.575 188.273 178.575C189.338 178.575 190.028 179.07 190.283 179.88C190.703 179.235 191.663 178.575 192.773 178.575C194.108 178.575 194.903 179.28 194.903 180.765V186Z" fill="black"/>
</g>
<defs>
<filter id="filter0_b_12757_23572" x="-50" y="-50" width="700" height="715" filterUnits="userSpaceOnUse" color-interpolation-filters="sRGB">
<feFlood flood-opacity="0" result="BackgroundImageFix"/>
<feGaussianBlur in="BackgroundImageFix" stdDeviation="25"/>
<feComposite in2="SourceAlpha" operator="in" result="effect1_backgroundBlur_12757_23572"/>
<feBlend mode="normal" in="SourceGraphic" in2="effect1_backgroundBlur_12757_23572" result="shape"/>
</filter>
<filter id="filter1_d_12757_23572" x="106" y="132" width="388" height="378" filterUnits="userSpaceOnUse" color-interpolation-filters="sRGB">
<feFlood flood-opacity="0" result="BackgroundImageFix"/>
<feColorMatrix in="SourceAlpha" type="matrix" values="0 0 0 0 0 0 0 0 0 0 0 0 0 0 0 0 0 0 127 0" result="hardAlpha"/>
<feOffset dy="14"/>
<feGaussianBlur stdDeviation="12"/>
<feComposite in2="hardAlpha" operator="out"/>
<feColorMatrix type="matrix" values="0 0 0 0 0 0 0 0 0 0 0 0 0 0 0 0 0 0 0.05 0"/>
<feBlend mode="normal" in2="BackgroundImageFix" result="effect1_dropShadow_12757_23572"/>
<feBlend mode="normal" in="SourceGraphic" in2="effect1_dropShadow_12757_23572" result="shape"/>
</filter>
<linearGradient id="paint0_linear_12757_23572" x1="0" y1="0" x2="600" y2="615" gradientUnits="userSpaceOnUse">
<stop stop-color="#EFCCEF"/>
<stop offset="1" stop-color="#F3DBD8" stop-opacity="0.4"/>
</linearGradient>
</defs>
</svg>
