<svg width="600" height="615" viewBox="0 0 600 615" fill="none" xmlns="http://www.w3.org/2000/svg">
<g filter="url(#filter0_b_12757_23637)">
<rect width="600" height="615" fill="url(#paint0_linear_12757_23637)"/>
</g>
<g filter="url(#filter1_d_12757_23637)">
<rect x="97" y="147" width="407" height="52" rx="16" fill="white"/>
<g opacity="0.9">
<path d="M135 181L131 177" stroke="#1E3050" stroke-width="2.4" stroke-linecap="round" stroke-linejoin="round"/>
<rect x="120" y="166" width="12" height="12" rx="4" stroke="#1E3050" stroke-width="2.4" stroke-linecap="round" stroke-linejoin="round"/>
</g>
<path opacity="0.45" d="M151.5 177.68C149.655 177.68 148.32 177.02 147.42 176.09L148.41 174.725C149.085 175.46 150.18 176.12 151.575 176.12C153.015 176.12 153.57 175.415 153.57 174.74C153.57 172.64 147.75 173.945 147.75 170.27C147.75 168.605 149.19 167.33 151.395 167.33C152.94 167.33 154.215 167.84 155.13 168.74L154.14 170.045C153.345 169.25 152.28 168.89 151.23 168.89C150.21 168.89 149.55 169.4 149.55 170.135C149.55 172.01 155.37 170.855 155.37 174.575C155.37 176.24 154.185 177.68 151.5 177.68ZM160.286 177.68C158.096 177.68 156.491 176.165 156.491 173.87C156.491 171.77 158.021 170.075 160.166 170.075C162.341 170.075 163.721 171.725 163.721 174.005V174.395H158.141C158.261 175.475 159.071 176.39 160.436 176.39C161.156 176.39 161.981 176.105 162.506 175.58L163.226 176.615C162.491 177.305 161.426 177.68 160.286 177.68ZM162.206 173.27C162.161 172.415 161.576 171.365 160.151 171.365C158.816 171.365 158.186 172.4 158.126 173.27H162.206ZM171.291 177.5H169.716V176.705C169.176 177.335 168.321 177.68 167.361 177.68C166.191 177.68 164.856 176.87 164.856 175.28C164.856 173.6 166.176 172.91 167.361 172.91C168.351 172.91 169.176 173.225 169.716 173.84V172.76C169.716 171.92 169.011 171.41 168.021 171.41C167.211 171.41 166.491 171.71 165.876 172.34L165.216 171.245C166.056 170.435 167.106 170.075 168.261 170.075C169.881 170.075 171.291 170.75 171.291 172.685V177.5ZM167.991 176.6C168.666 176.6 169.341 176.345 169.716 175.85V174.74C169.341 174.245 168.666 173.99 167.991 173.99C167.106 173.99 166.431 174.515 166.431 175.295C166.431 176.09 167.106 176.6 167.991 176.6ZM174.908 177.5H173.333V170.255H174.908V171.305C175.463 170.615 176.333 170.075 177.263 170.075V171.635C177.128 171.605 176.978 171.59 176.783 171.59C176.108 171.59 175.223 172.04 174.908 172.565V177.5ZM181.833 177.68C179.643 177.68 178.098 176.06 178.098 173.87C178.098 171.68 179.643 170.075 181.833 170.075C183.258 170.075 184.098 170.675 184.608 171.365L183.573 172.31C183.168 171.74 182.613 171.47 181.908 171.47C180.603 171.47 179.718 172.46 179.718 173.87C179.718 175.28 180.603 176.285 181.908 176.285C182.613 176.285 183.168 175.985 183.573 175.415L184.608 176.39C184.098 177.065 183.258 177.68 181.833 177.68ZM192.483 177.5H190.908V172.94C190.908 171.8 190.338 171.47 189.453 171.47C188.643 171.47 187.953 171.95 187.593 172.43V177.5H186.018V167.495H187.593V171.23C188.073 170.66 189.003 170.075 190.143 170.075C191.703 170.075 192.483 170.885 192.483 172.37V177.5Z" fill="#1E3050"/>
<g opacity="0.9">
<path d="M443.584 179.155C443.584 178.287 444.288 177.583 445.155 177.583H446.138C447.005 177.583 447.709 178.287 447.709 179.155V180.137C447.709 181.005 447.005 181.708 446.138 181.708H445.155C444.288 181.708 443.584 181.005 443.584 180.137V179.155Z" fill="#1E3050" stroke="#1E3050" stroke-width="1.57143" stroke-linecap="round" stroke-linejoin="round"/>
<path d="M437.167 177.583H438.084C439.096 177.583 439.917 178.404 439.917 179.417V179.417C439.917 180.429 439.096 181.25 438.084 181.25V181.25" stroke="#1E3050" stroke-width="1.57143" stroke-linecap="round" stroke-linejoin="round"/>
<path d="M430.292 179.155C430.292 178.287 430.996 177.583 431.863 177.583H432.846C433.713 177.583 434.417 178.287 434.417 179.155V180.137C434.417 181.005 433.713 181.708 432.846 181.708H431.863C430.996 181.708 430.292 181.005 430.292 180.137V179.155Z" fill="#1E3050" stroke="#1E3050" stroke-width="1.57143" stroke-linecap="round" stroke-linejoin="round"/>
<path d="M430.292 173.917H439.917" stroke="#1E3050" stroke-width="1.57143" stroke-linecap="round" stroke-linejoin="round"/>
<path d="M443.584 175.292V174.44C443.584 173.139 444.639 172.083 445.941 172.083H447.709" stroke="#1E3050" stroke-width="1.57143" stroke-linecap="round" stroke-linejoin="round"/>
<path d="M443.584 165.863C443.584 164.996 444.288 164.292 445.155 164.292H446.138C447.005 164.292 447.709 164.996 447.709 165.863V166.846C447.709 167.713 447.005 168.417 446.138 168.417H445.155C444.288 168.417 443.584 167.713 443.584 166.846V165.863Z" fill="#1E3050" stroke="#1E3050" stroke-width="1.57143" stroke-linecap="round" stroke-linejoin="round"/>
<path d="M439.917 164.292V171.167" stroke="#1E3050" stroke-width="1.57143" stroke-linecap="round" stroke-linejoin="round"/>
<path d="M430.292 166.649C430.292 165.347 431.347 164.292 432.649 164.292H433.893C435.195 164.292 436.25 165.347 436.25 166.649V167.893C436.25 169.195 435.195 170.25 433.893 170.25H432.649C431.347 170.25 430.292 169.195 430.292 167.893V166.649Z" fill="#1E3050" stroke="#1E3050" stroke-width="1.57143" stroke-linecap="round" stroke-linejoin="round"/>
<path d="M473 182.494L473 179.744" stroke="#1E3050" stroke-width="1.57143" stroke-linecap="round" stroke-linejoin="round"/>
<path d="M467.733 176.994C470.247 180.599 475.751 180.599 478.266 176.994" stroke="#1E3050" stroke-width="1.57143" stroke-linecap="round" stroke-linejoin="round"/>
<path d="M469.489 165.705C471.293 163.821 474.708 163.821 476.512 165.705C478.552 167.835 478.552 173.582 476.512 175.712C474.708 177.596 471.293 177.596 469.489 175.712C467.449 173.582 467.449 167.835 469.489 165.705Z" fill="#1E3050" stroke="#1E3050" stroke-width="1.57143" stroke-linecap="round" stroke-linejoin="round"/>
</g>
</g>
<g filter="url(#filter2_d_12757_23637)">
<rect x="97" y="219" width="200" height="52" rx="16" fill="white" shape-rendering="crispEdges"/>
<path d="M135.5 250.5H138.5" stroke="#FB60AD" stroke-width="3" stroke-linecap="round" stroke-linejoin="round"/>
<path d="M119.5 250.5H124.5" stroke="#FB60AD" stroke-width="3" stroke-linecap="round" stroke-linejoin="round"/>
<path d="M133 239.5L138.5 239.5" stroke="#FB60AD" stroke-width="3" stroke-linecap="round" stroke-linejoin="round"/>
<path d="M119.5 239.5H123" stroke="#FB60AD" stroke-width="3" stroke-linecap="round" stroke-linejoin="round"/>
<rect x="128" y="247" width="7" height="7" rx="2" fill="#FB60AD" stroke="#FB60AD" stroke-width="2" stroke-linecap="round" stroke-linejoin="round"/>
<rect x="122" y="236" width="7" height="7" rx="2" fill="#FB60AD" stroke="#FB60AD" stroke-width="2" stroke-linecap="round" stroke-linejoin="round"/>
<path opacity="0.8" d="M157.672 242.993C157.619 242.522 157.4 242.158 157.016 241.899C156.631 241.637 156.147 241.506 155.564 241.506C155.146 241.506 154.785 241.573 154.48 241.705C154.175 241.835 153.938 242.013 153.769 242.242C153.603 242.468 153.521 242.724 153.521 243.013C153.521 243.255 153.577 243.464 153.69 243.639C153.806 243.815 153.956 243.962 154.142 244.082C154.331 244.198 154.533 244.295 154.749 244.375C154.964 244.451 155.171 244.514 155.37 244.564L156.364 244.822C156.689 244.902 157.022 245.01 157.364 245.146C157.705 245.281 158.022 245.46 158.313 245.683C158.605 245.905 158.84 246.18 159.019 246.508C159.201 246.836 159.293 247.229 159.293 247.686C159.293 248.263 159.143 248.775 158.845 249.222C158.55 249.67 158.121 250.023 157.558 250.281C156.997 250.54 156.32 250.669 155.524 250.669C154.762 250.669 154.102 250.548 153.545 250.306C152.989 250.064 152.553 249.721 152.238 249.277C151.923 248.83 151.749 248.299 151.716 247.686H153.257C153.287 248.054 153.406 248.361 153.615 248.606C153.827 248.848 154.097 249.028 154.425 249.148C154.757 249.264 155.12 249.322 155.514 249.322C155.948 249.322 156.335 249.254 156.673 249.118C157.014 248.979 157.282 248.786 157.478 248.541C157.674 248.293 157.771 248.003 157.771 247.671C157.771 247.37 157.685 247.123 157.513 246.93C157.344 246.738 157.113 246.579 156.822 246.453C156.533 246.327 156.207 246.216 155.842 246.12L154.639 245.792C153.824 245.57 153.178 245.243 152.7 244.812C152.226 244.382 151.989 243.812 151.989 243.102C151.989 242.516 152.148 242.004 152.467 241.566C152.785 241.129 153.216 240.789 153.759 240.547C154.303 240.302 154.916 240.179 155.599 240.179C156.288 240.179 156.896 240.3 157.423 240.542C157.954 240.784 158.371 241.117 158.676 241.541C158.981 241.962 159.14 242.446 159.153 242.993H157.672ZM164.3 250.654C163.548 250.654 162.9 250.493 162.356 250.172C161.816 249.847 161.398 249.391 161.104 248.805C160.812 248.215 160.666 247.524 160.666 246.732C160.666 245.949 160.812 245.26 161.104 244.663C161.398 244.067 161.809 243.601 162.336 243.266C162.867 242.932 163.487 242.764 164.196 242.764C164.627 242.764 165.044 242.835 165.449 242.978C165.853 243.121 166.216 243.344 166.537 243.649C166.859 243.954 167.113 244.35 167.298 244.837C167.484 245.321 167.577 245.91 167.577 246.602V247.129H161.506V246.016H166.12C166.12 245.625 166.04 245.278 165.881 244.977C165.722 244.672 165.498 244.431 165.21 244.256C164.925 244.08 164.59 243.992 164.206 243.992C163.788 243.992 163.424 244.095 163.112 244.3C162.804 244.503 162.565 244.768 162.396 245.096C162.23 245.421 162.148 245.774 162.148 246.155V247.025C162.148 247.535 162.237 247.969 162.416 248.327C162.598 248.685 162.852 248.959 163.177 249.148C163.501 249.333 163.881 249.426 164.315 249.426C164.597 249.426 164.854 249.386 165.086 249.307C165.318 249.224 165.518 249.101 165.687 248.939C165.856 248.777 165.986 248.576 166.075 248.337L167.482 248.591C167.369 249.005 167.167 249.368 166.876 249.68C166.587 249.988 166.224 250.228 165.787 250.401C165.353 250.57 164.857 250.654 164.3 250.654ZM172.79 242.864V244.057H168.619V242.864H172.79ZM169.738 241.034H171.224V248.258C171.224 248.546 171.268 248.763 171.354 248.909C171.44 249.052 171.551 249.149 171.687 249.202C171.826 249.252 171.977 249.277 172.139 249.277C172.259 249.277 172.363 249.269 172.452 249.252C172.542 249.236 172.612 249.222 172.661 249.212L172.93 250.44C172.844 250.473 172.721 250.507 172.562 250.54C172.403 250.576 172.204 250.596 171.965 250.599C171.574 250.606 171.21 250.536 170.871 250.391C170.533 250.245 170.26 250.019 170.051 249.714C169.842 249.41 169.738 249.027 169.738 248.566V241.034ZM177.999 242.864V244.057H173.828V242.864H177.999ZM174.947 241.034H176.433V248.258C176.433 248.546 176.477 248.763 176.563 248.909C176.649 249.052 176.76 249.149 176.896 249.202C177.035 249.252 177.186 249.277 177.348 249.277C177.468 249.277 177.572 249.269 177.661 249.252C177.751 249.236 177.82 249.222 177.87 249.212L178.139 250.44C178.052 250.473 177.93 250.507 177.771 250.54C177.612 250.576 177.413 250.596 177.174 250.599C176.783 250.606 176.419 250.536 176.08 250.391C175.742 250.245 175.469 250.019 175.26 249.714C175.051 249.41 174.947 249.027 174.947 248.566V241.034ZM179.644 250.5V242.864H181.13V250.5H179.644ZM180.395 241.685C180.136 241.685 179.914 241.599 179.728 241.427C179.546 241.251 179.455 241.042 179.455 240.8C179.455 240.555 179.546 240.346 179.728 240.174C179.914 239.998 180.136 239.911 180.395 239.911C180.653 239.911 180.873 239.998 181.056 240.174C181.241 240.346 181.334 240.555 181.334 240.8C181.334 241.042 181.241 241.251 181.056 241.427C180.873 241.599 180.653 241.685 180.395 241.685ZM184.617 245.966V250.5H183.13V242.864H184.557V244.107H184.651C184.827 243.702 185.102 243.377 185.477 243.132C185.855 242.887 186.33 242.764 186.904 242.764C187.424 242.764 187.88 242.874 188.271 243.092C188.662 243.308 188.965 243.629 189.181 244.057C189.396 244.484 189.504 245.013 189.504 245.643V250.5H188.017V245.822C188.017 245.268 187.873 244.836 187.585 244.524C187.296 244.209 186.9 244.052 186.396 244.052C186.052 244.052 185.745 244.126 185.477 244.276C185.212 244.425 185.001 244.643 184.845 244.932C184.693 245.217 184.617 245.562 184.617 245.966ZM194.699 253.523C194.093 253.523 193.57 253.443 193.133 253.284C192.699 253.125 192.344 252.915 192.069 252.653C191.794 252.391 191.588 252.104 191.453 251.793L192.73 251.266C192.82 251.411 192.939 251.566 193.088 251.728C193.241 251.894 193.446 252.035 193.705 252.151C193.967 252.267 194.303 252.325 194.714 252.325C195.277 252.325 195.743 252.187 196.111 251.912C196.479 251.64 196.663 251.206 196.663 250.609V249.108H196.568C196.479 249.27 196.35 249.451 196.181 249.65C196.015 249.849 195.786 250.021 195.494 250.167C195.203 250.313 194.823 250.386 194.356 250.386C193.753 250.386 193.209 250.245 192.725 249.963C192.245 249.678 191.864 249.259 191.582 248.705C191.303 248.148 191.164 247.464 191.164 246.652C191.164 245.84 191.302 245.144 191.577 244.564C191.855 243.984 192.236 243.54 192.72 243.232C193.204 242.92 193.753 242.764 194.366 242.764C194.84 242.764 195.223 242.844 195.514 243.003C195.806 243.159 196.033 243.341 196.195 243.55C196.361 243.759 196.489 243.942 196.578 244.102H196.688V242.864H198.144V250.669C198.144 251.325 197.992 251.864 197.687 252.285C197.382 252.706 196.969 253.017 196.449 253.219C195.932 253.422 195.349 253.523 194.699 253.523ZM194.684 249.153C195.112 249.153 195.473 249.053 195.768 248.854C196.066 248.652 196.292 248.364 196.444 247.989C196.6 247.612 196.678 247.159 196.678 246.632C196.678 246.118 196.602 245.666 196.449 245.275C196.297 244.884 196.073 244.579 195.778 244.36C195.483 244.138 195.118 244.027 194.684 244.027C194.237 244.027 193.864 244.143 193.566 244.375C193.267 244.604 193.042 244.915 192.889 245.31C192.74 245.704 192.666 246.145 192.666 246.632C192.666 247.133 192.742 247.572 192.894 247.95C193.047 248.327 193.272 248.622 193.57 248.835C193.872 249.047 194.243 249.153 194.684 249.153ZM205.86 244.728L204.513 244.967C204.457 244.794 204.367 244.63 204.244 244.474C204.125 244.319 203.963 244.191 203.757 244.092C203.552 243.992 203.295 243.942 202.987 243.942C202.566 243.942 202.214 244.037 201.933 244.226C201.651 244.411 201.51 244.652 201.51 244.947C201.51 245.202 201.605 245.407 201.794 245.563C201.982 245.719 202.287 245.847 202.708 245.946L203.921 246.224C204.624 246.387 205.148 246.637 205.492 246.975C205.837 247.313 206.009 247.752 206.009 248.293C206.009 248.75 205.877 249.158 205.612 249.516C205.35 249.87 204.984 250.149 204.513 250.351C204.046 250.553 203.504 250.654 202.887 250.654C202.032 250.654 201.334 250.472 200.794 250.107C200.254 249.739 199.923 249.217 199.8 248.541L201.237 248.322C201.326 248.697 201.51 248.98 201.789 249.173C202.067 249.362 202.43 249.456 202.877 249.456C203.365 249.456 203.754 249.355 204.046 249.153C204.337 248.947 204.483 248.697 204.483 248.402C204.483 248.163 204.394 247.963 204.215 247.8C204.039 247.638 203.769 247.515 203.404 247.433L202.112 247.149C201.399 246.987 200.872 246.728 200.531 246.374C200.193 246.019 200.024 245.57 200.024 245.026C200.024 244.576 200.15 244.181 200.401 243.843C200.653 243.505 201.001 243.241 201.445 243.053C201.89 242.86 202.398 242.764 202.972 242.764C203.797 242.764 204.447 242.943 204.921 243.301C205.395 243.656 205.708 244.131 205.86 244.728Z" fill="#1E3050"/>
</g>
<g filter="url(#filter3_d_12757_23637)">
<rect x="97" y="291" width="200" height="162" rx="16" fill="white"/>
</g>
<path d="M116.917 322.121C116.917 319.615 118.948 317.583 121.454 317.583H121.683C122.74 317.583 123.753 317.164 124.5 316.417C125.247 315.67 126.26 315.25 127.316 315.25H128.683C129.74 315.25 130.753 315.67 131.5 316.417C132.247 317.164 133.26 317.583 134.316 317.583H134.546C137.052 317.583 139.083 319.615 139.083 322.121V327.75C139.083 330.511 136.845 332.75 134.083 332.75H121.916C119.155 332.75 116.917 330.511 116.917 327.75V322.121Z" fill="#7484FB" stroke="#7484FB" stroke-width="2" stroke-linecap="round" stroke-linejoin="round"/>
<rect x="124.5" y="321.667" width="7" height="7" rx="3" fill="white" stroke="white" stroke-width="2" stroke-linejoin="round"/>
<path opacity="0.8" d="M165.575 322.629H164.024C163.964 322.298 163.853 322.006 163.691 321.754C163.529 321.502 163.33 321.289 163.094 321.113C162.859 320.937 162.596 320.805 162.304 320.715C162.016 320.626 161.709 320.581 161.384 320.581C160.798 320.581 160.272 320.728 159.808 321.023C159.348 321.318 158.983 321.751 158.714 322.321C158.449 322.891 158.317 323.587 158.317 324.409C158.317 325.238 158.449 325.937 158.714 326.507C158.983 327.077 159.349 327.508 159.813 327.8C160.277 328.091 160.799 328.237 161.379 328.237C161.701 328.237 162.006 328.194 162.294 328.108C162.586 328.018 162.849 327.888 163.085 327.715C163.32 327.543 163.519 327.332 163.681 327.084C163.847 326.832 163.961 326.544 164.024 326.219L165.575 326.224C165.492 326.724 165.332 327.185 165.093 327.606C164.858 328.023 164.554 328.385 164.183 328.69C163.815 328.991 163.394 329.225 162.92 329.391C162.446 329.556 161.929 329.639 161.369 329.639C160.488 329.639 159.702 329.43 159.013 329.013C158.323 328.592 157.78 327.99 157.382 327.208C156.988 326.426 156.79 325.493 156.79 324.409C156.79 323.322 156.989 322.389 157.387 321.61C157.785 320.828 158.328 320.228 159.018 319.81C159.707 319.389 160.491 319.179 161.369 319.179C161.91 319.179 162.413 319.257 162.881 319.413C163.351 319.565 163.774 319.79 164.148 320.089C164.523 320.384 164.833 320.745 165.078 321.173C165.323 321.597 165.489 322.082 165.575 322.629ZM169.517 329.669C169.033 329.669 168.595 329.58 168.204 329.401C167.813 329.218 167.503 328.955 167.274 328.61C167.049 328.265 166.936 327.843 166.936 327.342C166.936 326.911 167.019 326.557 167.185 326.278C167.351 326 167.574 325.78 167.856 325.617C168.138 325.455 168.453 325.332 168.801 325.249C169.149 325.166 169.503 325.103 169.865 325.06C170.322 325.007 170.693 324.964 170.978 324.931C171.263 324.895 171.47 324.837 171.6 324.757C171.729 324.678 171.794 324.548 171.794 324.369V324.335C171.794 323.9 171.671 323.564 171.426 323.325C171.184 323.087 170.822 322.967 170.342 322.967C169.841 322.967 169.447 323.078 169.159 323.3C168.874 323.519 168.676 323.763 168.567 324.031L167.17 323.713C167.336 323.249 167.578 322.875 167.896 322.589C168.217 322.301 168.587 322.092 169.004 321.963C169.422 321.83 169.861 321.764 170.322 321.764C170.627 321.764 170.95 321.801 171.291 321.874C171.636 321.943 171.958 322.072 172.256 322.261C172.557 322.45 172.804 322.72 172.997 323.072C173.189 323.42 173.285 323.872 173.285 324.429V329.5H171.833V328.456H171.774C171.677 328.648 171.533 328.837 171.341 329.023C171.149 329.208 170.902 329.362 170.6 329.485C170.299 329.608 169.937 329.669 169.517 329.669ZM169.84 328.476C170.251 328.476 170.602 328.395 170.894 328.232C171.189 328.07 171.412 327.858 171.565 327.596C171.721 327.331 171.798 327.047 171.798 326.746V325.761C171.745 325.814 171.643 325.864 171.49 325.911C171.341 325.954 171.17 325.992 170.978 326.025C170.786 326.055 170.599 326.083 170.416 326.109C170.234 326.133 170.082 326.152 169.959 326.169C169.671 326.205 169.407 326.267 169.169 326.353C168.933 326.439 168.744 326.563 168.602 326.726C168.463 326.885 168.393 327.097 168.393 327.362C168.393 327.73 168.529 328.009 168.801 328.197C169.072 328.383 169.419 328.476 169.84 328.476ZM175.265 329.5V321.864H176.692V323.107H176.786C176.945 322.686 177.205 322.357 177.567 322.122C177.928 321.884 178.361 321.764 178.864 321.764C179.375 321.764 179.802 321.884 180.147 322.122C180.495 322.361 180.752 322.689 180.918 323.107H180.997C181.179 322.699 181.469 322.374 181.867 322.132C182.265 321.887 182.739 321.764 183.289 321.764C183.982 321.764 184.547 321.981 184.984 322.415C185.425 322.85 185.646 323.504 185.646 324.379V329.5H184.159V324.518C184.159 324.001 184.018 323.627 183.737 323.395C183.455 323.163 183.118 323.047 182.727 323.047C182.243 323.047 181.867 323.196 181.599 323.494C181.33 323.789 181.196 324.169 181.196 324.633V329.5H179.714V324.424C179.714 324.01 179.585 323.677 179.327 323.425C179.068 323.173 178.732 323.047 178.317 323.047C178.036 323.047 177.776 323.121 177.537 323.271C177.302 323.416 177.111 323.62 176.965 323.882C176.823 324.144 176.751 324.447 176.751 324.792V329.5H175.265ZM190.929 329.654C190.177 329.654 189.529 329.493 188.985 329.172C188.445 328.847 188.027 328.391 187.732 327.805C187.441 327.215 187.295 326.524 187.295 325.732C187.295 324.949 187.441 324.26 187.732 323.663C188.027 323.067 188.438 322.601 188.965 322.266C189.496 321.932 190.115 321.764 190.825 321.764C191.256 321.764 191.673 321.835 192.078 321.978C192.482 322.121 192.845 322.344 193.166 322.649C193.488 322.954 193.741 323.35 193.927 323.837C194.113 324.321 194.205 324.91 194.205 325.602V326.129H188.135V325.016H192.749C192.749 324.625 192.669 324.278 192.51 323.977C192.351 323.672 192.127 323.431 191.839 323.256C191.554 323.08 191.219 322.992 190.835 322.992C190.417 322.992 190.052 323.095 189.741 323.3C189.433 323.503 189.194 323.768 189.025 324.096C188.859 324.421 188.776 324.774 188.776 325.155V326.025C188.776 326.535 188.866 326.969 189.045 327.327C189.227 327.685 189.481 327.959 189.806 328.148C190.13 328.333 190.51 328.426 190.944 328.426C191.226 328.426 191.483 328.386 191.715 328.307C191.947 328.224 192.147 328.101 192.316 327.939C192.485 327.777 192.615 327.576 192.704 327.337L194.111 327.591C193.998 328.005 193.796 328.368 193.504 328.68C193.216 328.988 192.853 329.228 192.416 329.401C191.981 329.57 191.486 329.654 190.929 329.654ZM195.855 329.5V321.864H197.292V323.077H197.371C197.51 322.666 197.756 322.343 198.107 322.107C198.462 321.869 198.863 321.749 199.31 321.749C199.403 321.749 199.512 321.753 199.638 321.759C199.767 321.766 199.868 321.774 199.941 321.784V323.206C199.882 323.189 199.776 323.171 199.623 323.151C199.471 323.128 199.318 323.116 199.166 323.116C198.815 323.116 198.501 323.191 198.226 323.34C197.954 323.486 197.739 323.69 197.58 323.952C197.421 324.21 197.341 324.505 197.341 324.837V329.5H195.855ZM203.382 329.669C202.898 329.669 202.46 329.58 202.069 329.401C201.678 329.218 201.368 328.955 201.14 328.61C200.914 328.265 200.801 327.843 200.801 327.342C200.801 326.911 200.884 326.557 201.05 326.278C201.216 326 201.44 325.78 201.721 325.617C202.003 325.455 202.318 325.332 202.666 325.249C203.014 325.166 203.368 325.103 203.73 325.06C204.187 325.007 204.558 324.964 204.843 324.931C205.128 324.895 205.336 324.837 205.465 324.757C205.594 324.678 205.659 324.548 205.659 324.369V324.335C205.659 323.9 205.536 323.564 205.291 323.325C205.049 323.087 204.688 322.967 204.207 322.967C203.707 322.967 203.312 323.078 203.024 323.3C202.739 323.519 202.542 323.763 202.432 324.031L201.035 323.713C201.201 323.249 201.443 322.875 201.761 322.589C202.083 322.301 202.452 322.092 202.87 321.963C203.287 321.83 203.726 321.764 204.187 321.764C204.492 321.764 204.815 321.801 205.157 321.874C205.501 321.943 205.823 322.072 206.121 322.261C206.423 322.45 206.67 322.72 206.862 323.072C207.054 323.42 207.15 323.872 207.15 324.429V329.5H205.699V328.456H205.639C205.543 328.648 205.399 328.837 205.206 329.023C205.014 329.208 204.767 329.362 204.466 329.485C204.164 329.608 203.803 329.669 203.382 329.669ZM203.705 328.476C204.116 328.476 204.467 328.395 204.759 328.232C205.054 328.07 205.278 327.858 205.43 327.596C205.586 327.331 205.664 327.047 205.664 326.746V325.761C205.611 325.814 205.508 325.864 205.355 325.911C205.206 325.954 205.036 325.992 204.843 326.025C204.651 326.055 204.464 326.083 204.282 326.109C204.099 326.133 203.947 326.152 203.824 326.169C203.536 326.205 203.272 326.267 203.034 326.353C202.798 326.439 202.609 326.563 202.467 326.726C202.328 326.885 202.258 327.097 202.258 327.362C202.258 327.73 202.394 328.009 202.666 328.197C202.938 328.383 203.284 328.476 203.705 328.476Z" fill="#1E3050"/>
<rect x="255" y="318" width="22" height="13" rx="5" fill="#E3E6FE" stroke="#7484FB" stroke-width="2"/>
<rect x="264" y="318" width="12.83" height="12.83" rx="5" fill="white" stroke="#7484FB" stroke-width="2"/>
<path d="M135.583 368.5C135.583 374.438 130.626 380.75 128 380.75C125.373 380.75 120.417 374.438 120.417 368.5C120.417 364.312 123.812 360.917 128 360.917C132.188 360.917 135.583 364.312 135.583 368.5Z" fill="#B874FB" stroke="#B874FB" stroke-width="1.8" stroke-linecap="round" stroke-linejoin="round"/>
<rect x="125" y="366" width="5.83" height="5.83" rx="2" fill="white" stroke="white" stroke-width="2" stroke-linejoin="round"/>
<path opacity="0.8" d="M157.119 377.5V367.318H158.655V376.178H163.268V377.5H157.119ZM168.118 377.654C167.402 377.654 166.778 377.49 166.244 377.162C165.71 376.834 165.296 376.375 165.001 375.785C164.706 375.195 164.559 374.505 164.559 373.717C164.559 372.924 164.706 372.232 165.001 371.638C165.296 371.045 165.71 370.585 166.244 370.256C166.778 369.928 167.402 369.764 168.118 369.764C168.834 369.764 169.459 369.928 169.993 370.256C170.526 370.585 170.94 371.045 171.235 371.638C171.53 372.232 171.678 372.924 171.678 373.717C171.678 374.505 171.53 375.195 171.235 375.785C170.94 376.375 170.526 376.834 169.993 377.162C169.459 377.49 168.834 377.654 168.118 377.654ZM168.123 376.406C168.587 376.406 168.972 376.284 169.277 376.038C169.582 375.793 169.807 375.467 169.953 375.059C170.102 374.651 170.176 374.202 170.176 373.712C170.176 373.224 170.102 372.777 169.953 372.369C169.807 371.958 169.582 371.629 169.277 371.38C168.972 371.131 168.587 371.007 168.123 371.007C167.656 371.007 167.268 371.131 166.96 371.38C166.655 371.629 166.428 371.958 166.279 372.369C166.133 372.777 166.06 373.224 166.06 373.712C166.06 374.202 166.133 374.651 166.279 375.059C166.428 375.467 166.655 375.793 166.96 376.038C167.268 376.284 167.656 376.406 168.123 376.406ZM176.554 377.654C175.815 377.654 175.178 377.487 174.645 377.152C174.114 376.814 173.707 376.348 173.422 375.755C173.137 375.162 172.994 374.482 172.994 373.717C172.994 372.941 173.14 372.257 173.432 371.663C173.723 371.067 174.134 370.601 174.665 370.266C175.195 369.932 175.82 369.764 176.539 369.764C177.119 369.764 177.636 369.872 178.09 370.087C178.544 370.299 178.91 370.598 179.189 370.982C179.47 371.367 179.638 371.816 179.691 372.33H178.244C178.165 371.972 177.982 371.663 177.697 371.405C177.416 371.146 177.038 371.017 176.564 371.017C176.149 371.017 175.787 371.126 175.475 371.345C175.167 371.561 174.926 371.869 174.754 372.27C174.582 372.668 174.496 373.138 174.496 373.682C174.496 374.239 174.58 374.719 174.749 375.124C174.918 375.528 175.157 375.841 175.465 376.063C175.777 376.285 176.143 376.396 176.564 376.396C176.845 376.396 177.101 376.345 177.329 376.242C177.561 376.136 177.755 375.985 177.911 375.79C178.07 375.594 178.181 375.359 178.244 375.084H179.691C179.638 375.578 179.477 376.018 179.209 376.406C178.94 376.794 178.581 377.099 178.13 377.321C177.682 377.543 177.157 377.654 176.554 377.654ZM183.503 377.669C183.019 377.669 182.581 377.58 182.19 377.401C181.799 377.218 181.489 376.955 181.261 376.61C181.035 376.265 180.923 375.843 180.923 375.342C180.923 374.911 181.005 374.557 181.171 374.278C181.337 374 181.561 373.78 181.842 373.617C182.124 373.455 182.439 373.332 182.787 373.249C183.135 373.166 183.49 373.103 183.851 373.06C184.308 373.007 184.679 372.964 184.964 372.931C185.25 372.895 185.457 372.837 185.586 372.757C185.715 372.678 185.78 372.548 185.78 372.369V372.335C185.78 371.9 185.657 371.564 185.412 371.325C185.17 371.087 184.809 370.967 184.328 370.967C183.828 370.967 183.433 371.078 183.145 371.3C182.86 371.519 182.663 371.763 182.553 372.031L181.156 371.713C181.322 371.249 181.564 370.875 181.882 370.589C182.204 370.301 182.573 370.092 182.991 369.963C183.408 369.83 183.848 369.764 184.308 369.764C184.613 369.764 184.936 369.801 185.278 369.874C185.622 369.943 185.944 370.072 186.242 370.261C186.544 370.45 186.791 370.72 186.983 371.072C187.175 371.42 187.271 371.872 187.271 372.429V377.5H185.82V376.456H185.76C185.664 376.648 185.52 376.837 185.327 377.023C185.135 377.208 184.888 377.362 184.587 377.485C184.285 377.608 183.924 377.669 183.503 377.669ZM183.826 376.476C184.237 376.476 184.588 376.395 184.88 376.232C185.175 376.07 185.399 375.858 185.551 375.596C185.707 375.331 185.785 375.047 185.785 374.746V373.761C185.732 373.814 185.629 373.864 185.477 373.911C185.327 373.954 185.157 373.992 184.964 374.025C184.772 374.055 184.585 374.083 184.403 374.109C184.22 374.133 184.068 374.152 183.945 374.169C183.657 374.205 183.393 374.267 183.155 374.353C182.92 374.439 182.731 374.563 182.588 374.726C182.449 374.885 182.379 375.097 182.379 375.362C182.379 375.73 182.515 376.009 182.787 376.197C183.059 376.383 183.405 376.476 183.826 376.476ZM192.816 369.864V371.057H188.645V369.864H192.816ZM189.763 368.034H191.25V375.258C191.25 375.546 191.293 375.763 191.379 375.909C191.465 376.052 191.576 376.149 191.712 376.202C191.851 376.252 192.002 376.277 192.165 376.277C192.284 376.277 192.388 376.269 192.478 376.252C192.567 376.236 192.637 376.222 192.687 376.212L192.955 377.44C192.869 377.473 192.746 377.507 192.587 377.54C192.428 377.576 192.229 377.596 191.991 377.599C191.599 377.606 191.235 377.536 190.897 377.391C190.559 377.245 190.285 377.019 190.077 376.714C189.868 376.41 189.763 376.027 189.763 375.566V368.034ZM194.46 377.5V369.864H195.947V377.5H194.46ZM195.211 368.685C194.952 368.685 194.73 368.599 194.545 368.427C194.362 368.251 194.271 368.042 194.271 367.8C194.271 367.555 194.362 367.346 194.545 367.174C194.73 366.998 194.952 366.911 195.211 366.911C195.469 366.911 195.69 366.998 195.872 367.174C196.058 367.346 196.151 367.555 196.151 367.8C196.151 368.042 196.058 368.251 195.872 368.427C195.69 368.599 195.469 368.685 195.211 368.685ZM201.163 377.654C200.447 377.654 199.823 377.49 199.289 377.162C198.755 376.834 198.341 376.375 198.046 375.785C197.751 375.195 197.604 374.505 197.604 373.717C197.604 372.924 197.751 372.232 198.046 371.638C198.341 371.045 198.755 370.585 199.289 370.256C199.823 369.928 200.447 369.764 201.163 369.764C201.879 369.764 202.504 369.928 203.037 370.256C203.571 370.585 203.985 371.045 204.28 371.638C204.575 372.232 204.723 372.924 204.723 373.717C204.723 374.505 204.575 375.195 204.28 375.785C203.985 376.375 203.571 376.834 203.037 377.162C202.504 377.49 201.879 377.654 201.163 377.654ZM201.168 376.406C201.632 376.406 202.017 376.284 202.322 376.038C202.626 375.793 202.852 375.467 202.998 375.059C203.147 374.651 203.221 374.202 203.221 373.712C203.221 373.224 203.147 372.777 202.998 372.369C202.852 371.958 202.626 371.629 202.322 371.38C202.017 371.131 201.632 371.007 201.168 371.007C200.701 371.007 200.313 371.131 200.005 371.38C199.7 371.629 199.473 371.958 199.324 372.369C199.178 372.777 199.105 373.224 199.105 373.712C199.105 374.202 199.178 374.651 199.324 375.059C199.473 375.467 199.7 375.793 200.005 376.038C200.313 376.284 200.701 376.406 201.168 376.406ZM207.869 372.966V377.5H206.382V369.864H207.809V371.107H207.903C208.079 370.702 208.354 370.377 208.729 370.132C209.107 369.887 209.582 369.764 210.156 369.764C210.676 369.764 211.132 369.874 211.523 370.092C211.914 370.308 212.217 370.629 212.433 371.057C212.648 371.484 212.756 372.013 212.756 372.643V377.5H211.269V372.822C211.269 372.268 211.125 371.836 210.837 371.524C210.548 371.209 210.152 371.052 209.648 371.052C209.304 371.052 208.997 371.126 208.729 371.276C208.464 371.425 208.253 371.643 208.097 371.932C207.945 372.217 207.869 372.562 207.869 372.966Z" fill="#1E3050"/>
<rect x="255" y="366" width="22" height="13" rx="5" fill="#F1E3FE" stroke="#B874FB" stroke-width="2"/>
<rect x="264" y="366" width="12.83" height="12.83" rx="5" fill="white" stroke="#B874FB" stroke-width="2"/>
<rect width="28" height="28" transform="translate(114 406)" fill="white"/>
<path d="M116.917 415.098C116.917 412.651 118.9 410.667 121.348 410.667C122.458 410.667 123.528 411.083 124.345 411.834L124.815 412.266C125.738 413.113 126.945 413.583 128.197 413.583H134.083C136.845 413.583 139.083 415.822 139.083 418.583V423.75C139.083 426.512 136.845 428.75 134.083 428.75H121.916C119.155 428.75 116.917 426.512 116.917 423.75V415.098Z" fill="#FBA874" stroke="#FBA874" stroke-width="1.8" stroke-linecap="round" stroke-linejoin="round"/>
<path d="M119 418H137" stroke="white" stroke-width="1.8" stroke-linecap="round" stroke-linejoin="round"/>
<path opacity="0.8" d="M162.672 417.993C162.619 417.522 162.4 417.158 162.016 416.899C161.631 416.637 161.147 416.506 160.564 416.506C160.146 416.506 159.785 416.573 159.48 416.705C159.175 416.835 158.938 417.013 158.769 417.242C158.603 417.468 158.521 417.724 158.521 418.013C158.521 418.255 158.577 418.464 158.69 418.639C158.806 418.815 158.956 418.962 159.142 419.082C159.331 419.198 159.533 419.295 159.749 419.375C159.964 419.451 160.171 419.514 160.37 419.564L161.364 419.822C161.689 419.902 162.022 420.01 162.364 420.146C162.705 420.281 163.022 420.46 163.313 420.683C163.605 420.905 163.84 421.18 164.019 421.508C164.201 421.836 164.293 422.229 164.293 422.686C164.293 423.263 164.143 423.775 163.845 424.222C163.55 424.67 163.121 425.023 162.558 425.281C161.997 425.54 161.32 425.669 160.524 425.669C159.762 425.669 159.102 425.548 158.545 425.306C157.989 425.064 157.553 424.721 157.238 424.277C156.923 423.83 156.749 423.299 156.716 422.686H158.257C158.287 423.054 158.406 423.361 158.615 423.606C158.827 423.848 159.097 424.028 159.425 424.148C159.757 424.264 160.12 424.322 160.514 424.322C160.948 424.322 161.335 424.254 161.673 424.118C162.014 423.979 162.282 423.786 162.478 423.541C162.674 423.293 162.771 423.003 162.771 422.671C162.771 422.37 162.685 422.123 162.513 421.93C162.344 421.738 162.113 421.579 161.822 421.453C161.533 421.327 161.207 421.216 160.842 421.12L159.639 420.792C158.824 420.57 158.178 420.243 157.7 419.812C157.226 419.382 156.989 418.812 156.989 418.102C156.989 417.516 157.148 417.004 157.467 416.566C157.785 416.129 158.216 415.789 158.759 415.547C159.303 415.302 159.916 415.179 160.599 415.179C161.288 415.179 161.896 415.3 162.423 415.542C162.954 415.784 163.371 416.117 163.676 416.541C163.981 416.962 164.14 417.446 164.153 417.993H162.672ZM169.574 417.864V419.057H165.403V417.864H169.574ZM166.521 416.034H168.008V423.258C168.008 423.546 168.051 423.763 168.137 423.909C168.223 424.052 168.334 424.149 168.47 424.202C168.609 424.252 168.76 424.277 168.922 424.277C169.042 424.277 169.146 424.269 169.236 424.252C169.325 424.236 169.395 424.222 169.444 424.212L169.713 425.44C169.627 425.473 169.504 425.507 169.345 425.54C169.186 425.576 168.987 425.596 168.748 425.599C168.357 425.606 167.993 425.536 167.655 425.391C167.317 425.245 167.043 425.019 166.834 424.714C166.626 424.41 166.521 424.027 166.521 423.566V416.034ZM174.353 425.654C173.637 425.654 173.012 425.49 172.478 425.162C171.945 424.834 171.53 424.375 171.235 423.785C170.94 423.195 170.793 422.505 170.793 421.717C170.793 420.924 170.94 420.232 171.235 419.638C171.53 419.045 171.945 418.585 172.478 418.256C173.012 417.928 173.637 417.764 174.353 417.764C175.069 417.764 175.693 417.928 176.227 418.256C176.761 418.585 177.175 419.045 177.47 419.638C177.765 420.232 177.912 420.924 177.912 421.717C177.912 422.505 177.765 423.195 177.47 423.785C177.175 424.375 176.761 424.834 176.227 425.162C175.693 425.49 175.069 425.654 174.353 425.654ZM174.358 424.406C174.822 424.406 175.206 424.284 175.511 424.038C175.816 423.793 176.041 423.467 176.187 423.059C176.336 422.651 176.411 422.202 176.411 421.712C176.411 421.224 176.336 420.777 176.187 420.369C176.041 419.958 175.816 419.629 175.511 419.38C175.206 419.131 174.822 419.007 174.358 419.007C173.89 419.007 173.502 419.131 173.194 419.38C172.889 419.629 172.662 419.958 172.513 420.369C172.367 420.777 172.294 421.224 172.294 421.712C172.294 422.202 172.367 422.651 172.513 423.059C172.662 423.467 172.889 423.793 173.194 424.038C173.502 424.284 173.89 424.406 174.358 424.406ZM179.572 425.5V417.864H181.008V419.077H181.088C181.227 418.666 181.472 418.343 181.824 418.107C182.178 417.869 182.579 417.749 183.027 417.749C183.12 417.749 183.229 417.753 183.355 417.759C183.484 417.766 183.585 417.774 183.658 417.784V419.206C183.599 419.189 183.492 419.171 183.34 419.151C183.188 419.128 183.035 419.116 182.883 419.116C182.531 419.116 182.218 419.191 181.943 419.34C181.671 419.486 181.456 419.69 181.297 419.952C181.138 420.21 181.058 420.505 181.058 420.837V425.5H179.572ZM187.099 425.669C186.615 425.669 186.177 425.58 185.786 425.401C185.395 425.218 185.085 424.955 184.856 424.61C184.631 424.265 184.518 423.843 184.518 423.342C184.518 422.911 184.601 422.557 184.767 422.278C184.933 422 185.156 421.78 185.438 421.617C185.72 421.455 186.035 421.332 186.383 421.249C186.731 421.166 187.085 421.103 187.447 421.06C187.904 421.007 188.275 420.964 188.56 420.931C188.845 420.895 189.052 420.837 189.182 420.757C189.311 420.678 189.376 420.548 189.376 420.369V420.335C189.376 419.9 189.253 419.564 189.008 419.325C188.766 419.087 188.404 418.967 187.924 418.967C187.423 418.967 187.029 419.078 186.741 419.3C186.456 419.519 186.258 419.763 186.149 420.031L184.752 419.713C184.918 419.249 185.16 418.875 185.478 418.589C185.799 418.301 186.169 418.092 186.586 417.963C187.004 417.83 187.443 417.764 187.904 417.764C188.209 417.764 188.532 417.801 188.873 417.874C189.218 417.943 189.54 418.072 189.838 418.261C190.14 418.45 190.386 418.72 190.579 419.072C190.771 419.42 190.867 419.872 190.867 420.429V425.5H189.415V424.456H189.356C189.26 424.648 189.115 424.837 188.923 425.023C188.731 425.208 188.484 425.362 188.182 425.485C187.881 425.608 187.519 425.669 187.099 425.669ZM187.422 424.476C187.833 424.476 188.184 424.395 188.476 424.232C188.771 424.07 188.994 423.858 189.147 423.596C189.303 423.331 189.381 423.047 189.381 422.746V421.761C189.327 421.814 189.225 421.864 189.072 421.911C188.923 421.954 188.752 421.992 188.56 422.025C188.368 422.055 188.181 422.083 187.998 422.109C187.816 422.133 187.664 422.152 187.541 422.169C187.253 422.205 186.989 422.267 186.751 422.353C186.515 422.439 186.326 422.563 186.184 422.726C186.045 422.885 185.975 423.097 185.975 423.362C185.975 423.73 186.111 424.009 186.383 424.197C186.654 424.383 187.001 424.476 187.422 424.476ZM196.049 428.523C195.442 428.523 194.92 428.443 194.483 428.284C194.048 428.125 193.694 427.915 193.419 427.653C193.144 427.391 192.938 427.104 192.802 426.793L194.08 426.266C194.169 426.411 194.289 426.566 194.438 426.728C194.59 426.894 194.796 427.035 195.054 427.151C195.316 427.267 195.653 427.325 196.064 427.325C196.627 427.325 197.093 427.187 197.461 426.912C197.828 426.64 198.012 426.206 198.012 425.609V424.108H197.918C197.828 424.27 197.699 424.451 197.53 424.65C197.364 424.849 197.136 425.021 196.844 425.167C196.552 425.313 196.173 425.386 195.706 425.386C195.102 425.386 194.559 425.245 194.075 424.963C193.594 424.678 193.213 424.259 192.931 423.705C192.653 423.148 192.514 422.464 192.514 421.652C192.514 420.84 192.651 420.144 192.926 419.564C193.205 418.984 193.586 418.54 194.07 418.232C194.554 417.92 195.102 417.764 195.716 417.764C196.19 417.764 196.572 417.844 196.864 418.003C197.156 418.159 197.383 418.341 197.545 418.55C197.711 418.759 197.838 418.942 197.928 419.102H198.037V417.864H199.494V425.669C199.494 426.325 199.342 426.864 199.037 427.285C198.732 427.706 198.319 428.017 197.799 428.219C197.282 428.422 196.698 428.523 196.049 428.523ZM196.034 424.153C196.461 424.153 196.823 424.053 197.118 423.854C197.416 423.652 197.641 423.364 197.794 422.989C197.949 422.612 198.027 422.159 198.027 421.632C198.027 421.118 197.951 420.666 197.799 420.275C197.646 419.884 197.422 419.579 197.127 419.36C196.833 419.138 196.468 419.027 196.034 419.027C195.586 419.027 195.213 419.143 194.915 419.375C194.617 419.604 194.391 419.915 194.239 420.31C194.09 420.704 194.015 421.145 194.015 421.632C194.015 422.133 194.092 422.572 194.244 422.95C194.396 423.327 194.622 423.622 194.92 423.835C195.222 424.047 195.593 424.153 196.034 424.153ZM204.779 425.654C204.026 425.654 203.378 425.493 202.835 425.172C202.295 424.847 201.877 424.391 201.582 423.805C201.29 423.215 201.145 422.524 201.145 421.732C201.145 420.949 201.29 420.26 201.582 419.663C201.877 419.067 202.288 418.601 202.815 418.266C203.345 417.932 203.965 417.764 204.674 417.764C205.105 417.764 205.523 417.835 205.927 417.978C206.332 418.121 206.694 418.344 207.016 418.649C207.337 418.954 207.591 419.35 207.777 419.837C207.962 420.321 208.055 420.91 208.055 421.602V422.129H201.985V421.016H206.598C206.598 420.625 206.519 420.278 206.36 419.977C206.201 419.672 205.977 419.431 205.689 419.256C205.404 419.08 205.069 418.992 204.684 418.992C204.267 418.992 203.902 419.095 203.591 419.3C203.282 419.503 203.044 419.768 202.875 420.096C202.709 420.421 202.626 420.774 202.626 421.155V422.025C202.626 422.535 202.716 422.969 202.895 423.327C203.077 423.685 203.33 423.959 203.655 424.148C203.98 424.333 204.359 424.426 204.794 424.426C205.075 424.426 205.332 424.386 205.564 424.307C205.796 424.224 205.997 424.101 206.166 423.939C206.335 423.777 206.464 423.576 206.554 423.337L207.961 423.591C207.848 424.005 207.646 424.368 207.354 424.68C207.066 424.988 206.703 425.228 206.265 425.401C205.831 425.57 205.336 425.654 204.779 425.654Z" fill="#1E3050"/>
<rect x="255" y="414" width="22" height="13" rx="5" fill="#FEEEE3" stroke="#FBA874" stroke-width="2"/>
<rect x="255" y="414" width="12.83" height="12.83" rx="5" fill="white" stroke="#FBA874" stroke-width="2"/>
<g filter="url(#filter4_d_12757_23637)">
<rect x="317" y="219" width="187" height="100" rx="16" fill="white"/>
</g>
<path d="M462.771 251.662C460.058 251.328 457.958 249.002 457.958 246.234C457.958 243.236 460.421 240.805 463.458 240.805C463.817 240.805 464.167 240.839 464.507 240.904C465.297 238.862 467.3 237.412 469.646 237.412C471.797 237.412 473.66 238.632 474.564 240.408C475.526 239.8 476.669 239.448 477.896 239.448C481.313 239.448 484.083 242.182 484.083 245.555C484.083 248.462 482.026 250.894 479.271 251.511L462.771 251.662Z" fill="#74B1FB" stroke="#74B1FB" stroke-width="1.58333" stroke-linejoin="round"/>
<path d="M486.497 246.121C487.451 245.138 488.042 243.778 488.042 242.275C488.042 239.277 485.691 236.847 482.792 236.847C481.751 236.847 480.781 237.16 479.965 237.7C479.198 236.121 477.617 235.037 475.792 235.037C474.745 235.037 473.779 235.394 473 235.996" stroke="#74B1FB" stroke-width="1.58333" stroke-linecap="round" stroke-linejoin="round"/>
<path d="M461.125 260.371L462.708 257.996" stroke="#74B1FB" stroke-width="1.58333" stroke-linecap="round" stroke-linejoin="round"/>
<path d="M480.125 263.537L481.708 261.162" stroke="#74B1FB" stroke-width="1.58333" stroke-linecap="round" stroke-linejoin="round"/>
<path d="M466.667 258.787L468.25 256.412" stroke="#74B1FB" stroke-width="1.58333" stroke-linecap="round" stroke-linejoin="round"/>
<path d="M461.917 265.121L463.5 262.746" stroke="#74B1FB" stroke-width="1.58333" stroke-linecap="round" stroke-linejoin="round"/>
<path d="M472.208 258.787L473.792 256.412" stroke="#74B1FB" stroke-width="1.58333" stroke-linecap="round" stroke-linejoin="round"/>
<path d="M467.458 265.121L469.042 262.746" stroke="#74B1FB" stroke-width="1.58333" stroke-linecap="round" stroke-linejoin="round"/>
<path d="M477.75 259.579L479.333 257.204" stroke="#74B1FB" stroke-width="1.58333" stroke-linecap="round" stroke-linejoin="round"/>
<path d="M473.792 265.121L475.375 262.746" stroke="#74B1FB" stroke-width="1.58333" stroke-linecap="round" stroke-linejoin="round"/>
<path opacity="0.8" d="M342.428 235.668L334.939 238.38C333.731 238.817 333.126 239.036 333.14 239.401C333.154 239.766 333.773 239.938 335.011 240.283L337.652 241.019C337.912 241.092 338.043 241.128 338.135 241.219C338.227 241.309 338.265 241.439 338.342 241.699L339.175 244.514C339.539 245.744 339.721 246.359 340.086 246.367C340.451 246.375 340.66 245.769 341.079 244.557L343.714 236.935C344.011 236.076 344.159 235.646 343.935 235.425C343.71 235.203 343.283 235.358 342.428 235.668Z" fill="#FBA874" stroke="#FBA874" stroke-width="1.5"/>
<path opacity="0.8" d="M331.879 261.005V253.005H333.086V256.482H337.074V253.005H338.285V261.005H337.074V257.517H333.086V261.005H331.879ZM342.535 261.126C341.944 261.126 341.435 261 341.008 260.747C340.583 260.492 340.255 260.134 340.023 259.673C339.794 259.21 339.68 258.667 339.68 258.044C339.68 257.43 339.794 256.888 340.023 256.419C340.255 255.95 340.578 255.585 340.992 255.322C341.409 255.059 341.896 254.927 342.453 254.927C342.792 254.927 343.12 254.983 343.438 255.095C343.755 255.207 344.04 255.383 344.293 255.622C344.546 255.862 344.745 256.173 344.891 256.556C345.036 256.936 345.109 257.398 345.109 257.943V258.357H340.34V257.482H343.965C343.965 257.174 343.902 256.902 343.777 256.665C343.652 256.426 343.477 256.237 343.25 256.099C343.026 255.961 342.763 255.892 342.461 255.892C342.133 255.892 341.846 255.973 341.602 256.134C341.359 256.293 341.172 256.501 341.039 256.759C340.909 257.014 340.844 257.292 340.844 257.591V258.275C340.844 258.676 340.914 259.017 341.055 259.298C341.198 259.579 341.397 259.794 341.652 259.943C341.908 260.088 342.206 260.161 342.547 260.161C342.768 260.161 342.97 260.13 343.152 260.068C343.335 260.003 343.492 259.906 343.625 259.779C343.758 259.651 343.859 259.493 343.93 259.306L345.035 259.505C344.947 259.831 344.788 260.116 344.559 260.361C344.332 260.603 344.047 260.792 343.703 260.927C343.362 261.06 342.973 261.126 342.535 261.126ZM348.151 261.138C347.771 261.138 347.427 261.068 347.12 260.927C346.813 260.784 346.569 260.577 346.39 260.306C346.213 260.035 346.124 259.703 346.124 259.31C346.124 258.971 346.189 258.693 346.319 258.474C346.45 258.255 346.625 258.082 346.847 257.954C347.068 257.827 347.315 257.73 347.589 257.665C347.862 257.6 348.141 257.551 348.425 257.517C348.784 257.475 349.076 257.441 349.3 257.415C349.524 257.387 349.687 257.341 349.788 257.279C349.89 257.216 349.94 257.115 349.94 256.974V256.947C349.94 256.605 349.844 256.341 349.651 256.154C349.461 255.966 349.177 255.872 348.8 255.872C348.407 255.872 348.097 255.96 347.87 256.134C347.646 256.306 347.491 256.497 347.405 256.708L346.308 256.458C346.438 256.094 346.628 255.799 346.878 255.575C347.131 255.349 347.421 255.185 347.749 255.083C348.077 254.979 348.422 254.927 348.784 254.927C349.024 254.927 349.278 254.956 349.546 255.013C349.817 255.068 350.069 255.169 350.304 255.318C350.541 255.466 350.735 255.678 350.886 255.954C351.037 256.228 351.112 256.583 351.112 257.021V261.005H349.972V260.185H349.925C349.849 260.336 349.736 260.484 349.585 260.63C349.434 260.776 349.24 260.897 349.003 260.993C348.766 261.09 348.482 261.138 348.151 261.138ZM348.405 260.2C348.728 260.2 349.004 260.137 349.233 260.009C349.465 259.881 349.641 259.715 349.761 259.509C349.883 259.301 349.944 259.078 349.944 258.841V258.068C349.903 258.109 349.822 258.148 349.702 258.185C349.585 258.219 349.451 258.249 349.3 258.275C349.149 258.298 349.002 258.32 348.858 258.341C348.715 258.359 348.595 258.375 348.499 258.388C348.272 258.417 348.065 258.465 347.878 258.532C347.693 258.6 347.545 258.698 347.433 258.825C347.323 258.95 347.269 259.117 347.269 259.325C347.269 259.615 347.375 259.833 347.589 259.982C347.802 260.128 348.075 260.2 348.405 260.2ZM357.586 255.005L355.41 261.005H354.16L351.98 255.005H353.234L354.754 259.622H354.816L356.332 255.005H357.586ZM359.422 263.255C359.247 263.255 359.089 263.241 358.945 263.212C358.802 263.186 358.695 263.157 358.625 263.126L358.906 262.169C359.12 262.226 359.31 262.251 359.477 262.243C359.643 262.236 359.79 262.173 359.918 262.056C360.048 261.939 360.163 261.747 360.262 261.482L360.406 261.083L358.211 255.005H359.461L360.98 259.661H361.043L362.563 255.005H363.816L361.344 261.806C361.229 262.118 361.083 262.383 360.906 262.599C360.729 262.818 360.518 262.982 360.273 263.091C360.029 263.2 359.745 263.255 359.422 263.255ZM367.919 261.005V253.005H370.771C371.39 253.005 371.905 253.112 372.313 253.325C372.725 253.539 373.032 253.835 373.235 254.212C373.438 254.587 373.54 255.021 373.54 255.513C373.54 256.003 373.437 256.434 373.231 256.806C373.028 257.176 372.721 257.463 372.31 257.669C371.901 257.875 371.386 257.978 370.767 257.978H368.606V256.939H370.657C371.048 256.939 371.366 256.883 371.61 256.771C371.858 256.659 372.039 256.496 372.153 256.282C372.268 256.069 372.325 255.812 372.325 255.513C372.325 255.211 372.267 254.949 372.149 254.728C372.035 254.506 371.854 254.337 371.606 254.22C371.362 254.1 371.04 254.04 370.642 254.04H369.126V261.005H367.919ZM371.868 257.396L373.845 261.005H372.47L370.532 257.396H371.868ZM376.661 261.138C376.281 261.138 375.937 261.068 375.63 260.927C375.323 260.784 375.079 260.577 374.899 260.306C374.722 260.035 374.634 259.703 374.634 259.31C374.634 258.971 374.699 258.693 374.829 258.474C374.959 258.255 375.135 258.082 375.356 257.954C375.578 257.827 375.825 257.73 376.099 257.665C376.372 257.6 376.651 257.551 376.935 257.517C377.294 257.475 377.586 257.441 377.81 257.415C378.034 257.387 378.196 257.341 378.298 257.279C378.399 257.216 378.45 257.115 378.45 256.974V256.947C378.45 256.605 378.354 256.341 378.161 256.154C377.971 255.966 377.687 255.872 377.31 255.872C376.916 255.872 376.606 255.96 376.38 256.134C376.156 256.306 376.001 256.497 375.915 256.708L374.817 256.458C374.948 256.094 375.138 255.799 375.388 255.575C375.64 255.349 375.931 255.185 376.259 255.083C376.587 254.979 376.932 254.927 377.294 254.927C377.534 254.927 377.787 254.956 378.056 255.013C378.326 255.068 378.579 255.169 378.813 255.318C379.05 255.466 379.244 255.678 379.396 255.954C379.547 256.228 379.622 256.583 379.622 257.021V261.005H378.481V260.185H378.435C378.359 260.336 378.246 260.484 378.095 260.63C377.944 260.776 377.75 260.897 377.513 260.993C377.276 261.09 376.992 261.138 376.661 261.138ZM376.915 260.2C377.238 260.2 377.514 260.137 377.743 260.009C377.975 259.881 378.151 259.715 378.271 259.509C378.393 259.301 378.454 259.078 378.454 258.841V258.068C378.412 258.109 378.332 258.148 378.212 258.185C378.095 258.219 377.961 258.249 377.81 258.275C377.659 258.298 377.511 258.32 377.368 258.341C377.225 258.359 377.105 258.375 377.009 258.388C376.782 258.417 376.575 258.465 376.388 258.532C376.203 258.6 376.054 258.698 375.942 258.825C375.833 258.95 375.778 259.117 375.778 259.325C375.778 259.615 375.885 259.833 376.099 259.982C376.312 260.128 376.584 260.2 376.915 260.2ZM381.178 261.005V255.005H382.346V261.005H381.178ZM381.768 254.079C381.564 254.079 381.39 254.012 381.244 253.876C381.101 253.738 381.029 253.574 381.029 253.384C381.029 253.191 381.101 253.027 381.244 252.892C381.39 252.754 381.564 252.685 381.768 252.685C381.971 252.685 382.144 252.754 382.287 252.892C382.433 253.027 382.506 253.191 382.506 253.384C382.506 253.574 382.433 253.738 382.287 253.876C382.144 254.012 381.971 254.079 381.768 254.079ZM385.085 257.443V261.005H383.917V255.005H385.038V255.982H385.112C385.25 255.664 385.466 255.409 385.761 255.216C386.058 255.023 386.431 254.927 386.882 254.927C387.291 254.927 387.649 255.013 387.956 255.185C388.263 255.354 388.502 255.607 388.671 255.943C388.84 256.279 388.925 256.694 388.925 257.189V261.005H387.757V257.329C387.757 256.894 387.644 256.555 387.417 256.31C387.19 256.062 386.879 255.939 386.483 255.939C386.213 255.939 385.972 255.997 385.761 256.115C385.552 256.232 385.387 256.404 385.265 256.63C385.145 256.854 385.085 257.125 385.085 257.443ZM334.805 266.005V274.005H333.594V267.216H333.547L331.633 268.466V267.31L333.629 266.005H334.805ZM339.762 274.115C339.405 274.109 339.053 274.044 338.707 273.919C338.363 273.794 338.051 273.586 337.77 273.294C337.488 273.003 337.263 272.611 337.094 272.118C336.927 271.626 336.844 271.012 336.844 270.275C336.844 269.577 336.913 268.957 337.051 268.415C337.191 267.874 337.393 267.417 337.656 267.044C337.919 266.669 338.237 266.384 338.609 266.189C338.982 265.993 339.4 265.896 339.863 265.896C340.34 265.896 340.763 265.99 341.133 266.177C341.503 266.365 341.802 266.624 342.031 266.954C342.263 267.285 342.41 267.661 342.473 268.083H341.281C341.201 267.75 341.04 267.478 340.801 267.267C340.561 267.056 340.249 266.95 339.863 266.95C339.277 266.95 338.82 267.206 338.492 267.716C338.167 268.226 338.003 268.936 338 269.845H338.059C338.197 269.618 338.366 269.426 338.566 269.267C338.77 269.105 338.996 268.982 339.246 268.896C339.499 268.807 339.764 268.763 340.043 268.763C340.507 268.763 340.926 268.876 341.301 269.103C341.678 269.327 341.979 269.637 342.203 270.032C342.427 270.428 342.539 270.881 342.539 271.392C342.539 271.902 342.423 272.365 342.191 272.779C341.962 273.193 341.639 273.521 341.223 273.763C340.806 274.003 340.319 274.12 339.762 274.115ZM339.758 273.099C340.065 273.099 340.34 273.023 340.582 272.872C340.824 272.721 341.016 272.518 341.156 272.263C341.297 272.008 341.367 271.723 341.367 271.407C341.367 271.1 341.298 270.82 341.16 270.568C341.025 270.315 340.837 270.115 340.598 269.966C340.361 269.818 340.09 269.743 339.785 269.743C339.553 269.743 339.339 269.788 339.141 269.876C338.945 269.965 338.773 270.087 338.625 270.243C338.477 270.4 338.359 270.579 338.273 270.782C338.19 270.983 338.148 271.195 338.148 271.419C338.148 271.719 338.217 271.996 338.355 272.251C338.496 272.506 338.688 272.712 338.93 272.868C339.174 273.022 339.451 273.099 339.758 273.099ZM345.7 269.622C345.362 269.622 345.053 269.54 344.774 269.376C344.498 269.21 344.277 268.987 344.11 268.708C343.946 268.43 343.864 268.121 343.864 267.782C343.864 267.444 343.946 267.137 344.11 266.861C344.277 266.582 344.498 266.361 344.774 266.197C345.053 266.03 345.362 265.947 345.7 265.947C346.039 265.947 346.347 266.03 346.626 266.197C346.905 266.361 347.126 266.582 347.29 266.861C347.457 267.137 347.54 267.444 347.54 267.782C347.54 268.121 347.457 268.43 347.29 268.708C347.126 268.987 346.905 269.21 346.626 269.376C346.347 269.54 346.039 269.622 345.7 269.622ZM345.7 268.732C345.877 268.732 346.037 268.689 346.181 268.603C346.324 268.517 346.437 268.402 346.521 268.259C346.606 268.116 346.649 267.957 346.649 267.782C346.649 267.608 346.606 267.449 346.521 267.306C346.437 267.163 346.324 267.049 346.181 266.966C346.037 266.88 345.877 266.837 345.7 266.837C345.526 266.837 345.367 266.88 345.224 266.966C345.08 267.049 344.966 267.163 344.88 267.306C344.797 267.449 344.755 267.608 344.755 267.782C344.755 267.957 344.797 268.116 344.88 268.259C344.966 268.402 345.08 268.517 345.224 268.603C345.367 268.689 345.526 268.732 345.7 268.732ZM355.582 268.607H354.363C354.316 268.346 354.229 268.117 354.102 267.919C353.974 267.721 353.818 267.553 353.633 267.415C353.448 267.277 353.241 267.173 353.012 267.103C352.785 267.032 352.544 266.997 352.289 266.997C351.828 266.997 351.415 267.113 351.051 267.345C350.689 267.577 350.402 267.917 350.191 268.365C349.983 268.812 349.879 269.359 349.879 270.005C349.879 270.656 349.983 271.206 350.191 271.654C350.402 272.101 350.69 272.44 351.055 272.669C351.419 272.898 351.829 273.013 352.285 273.013C352.538 273.013 352.777 272.979 353.004 272.911C353.233 272.841 353.44 272.738 353.625 272.603C353.81 272.467 353.966 272.302 354.094 272.107C354.224 271.909 354.314 271.682 354.363 271.427L355.582 271.431C355.517 271.824 355.391 272.186 355.203 272.517C355.018 272.845 354.78 273.129 354.488 273.368C354.199 273.605 353.868 273.789 353.496 273.919C353.124 274.049 352.717 274.115 352.277 274.115C351.585 274.115 350.967 273.95 350.426 273.622C349.884 273.292 349.457 272.819 349.145 272.204C348.835 271.59 348.68 270.857 348.68 270.005C348.68 269.151 348.836 268.418 349.148 267.806C349.461 267.191 349.888 266.72 350.43 266.392C350.971 266.061 351.587 265.896 352.277 265.896C352.702 265.896 353.098 265.957 353.465 266.079C353.835 266.199 354.167 266.376 354.461 266.611C354.755 266.842 354.999 267.126 355.191 267.462C355.384 267.795 355.514 268.177 355.582 268.607Z" fill="#1E3050"/>
<path d="M317 288H504C504 302.115 504 309.172 499.855 313.745C499.504 314.133 499.133 314.504 498.745 314.855C494.172 319 487.115 319 473 319H348C333.885 319 326.828 319 322.255 314.855C321.867 314.504 321.496 314.133 321.145 313.745C317 309.172 317 302.115 317 288Z" fill="url(#paint1_linear_12757_23637)"/>
<path opacity="0.8" d="M337.242 297.102C337.201 296.732 337.029 296.445 336.727 296.242C336.424 296.036 336.044 295.934 335.586 295.934C335.258 295.934 334.974 295.986 334.734 296.09C334.495 296.191 334.309 296.332 334.176 296.512C334.046 296.689 333.98 296.891 333.98 297.117C333.98 297.307 334.025 297.471 334.113 297.609C334.204 297.747 334.323 297.863 334.469 297.957C334.617 298.048 334.776 298.125 334.945 298.188C335.115 298.247 335.277 298.297 335.434 298.336L336.215 298.539C336.47 298.602 336.732 298.686 337 298.793C337.268 298.9 337.517 299.04 337.746 299.215C337.975 299.389 338.16 299.605 338.301 299.863C338.444 300.121 338.516 300.43 338.516 300.789C338.516 301.242 338.398 301.645 338.164 301.996C337.932 302.348 337.595 302.625 337.152 302.828C336.712 303.031 336.18 303.133 335.555 303.133C334.956 303.133 334.438 303.038 334 302.848C333.563 302.658 333.22 302.388 332.973 302.039C332.725 301.687 332.589 301.271 332.563 300.789H333.773C333.797 301.078 333.891 301.319 334.055 301.512C334.221 301.702 334.434 301.844 334.691 301.937C334.952 302.029 335.237 302.074 335.547 302.074C335.888 302.074 336.191 302.021 336.457 301.914C336.725 301.805 336.936 301.654 337.09 301.461C337.243 301.266 337.32 301.038 337.32 300.777C337.32 300.54 337.253 300.346 337.117 300.195C336.984 300.044 336.803 299.919 336.574 299.82C336.348 299.721 336.091 299.634 335.805 299.559L334.859 299.301C334.219 299.126 333.711 298.87 333.336 298.531C332.964 298.193 332.777 297.745 332.777 297.187C332.777 296.727 332.902 296.324 333.152 295.98C333.402 295.637 333.741 295.37 334.168 295.18C334.595 294.987 335.077 294.891 335.613 294.891C336.155 294.891 336.633 294.986 337.047 295.176C337.464 295.366 337.792 295.628 338.031 295.961C338.271 296.292 338.396 296.672 338.406 297.102H337.242ZM341.61 303.133C341.23 303.133 340.886 303.063 340.579 302.922C340.272 302.779 340.028 302.572 339.849 302.301C339.672 302.03 339.583 301.698 339.583 301.305C339.583 300.966 339.648 300.687 339.778 300.469C339.909 300.25 340.084 300.077 340.306 299.949C340.527 299.822 340.774 299.725 341.048 299.66C341.321 299.595 341.6 299.546 341.884 299.512C342.243 299.47 342.535 299.436 342.759 299.41C342.983 299.382 343.146 299.336 343.247 299.273C343.349 299.211 343.399 299.109 343.399 298.969V298.941C343.399 298.6 343.303 298.336 343.11 298.148C342.92 297.961 342.636 297.867 342.259 297.867C341.866 297.867 341.556 297.954 341.329 298.129C341.105 298.301 340.95 298.492 340.864 298.703L339.767 298.453C339.897 298.089 340.087 297.794 340.337 297.57C340.59 297.344 340.88 297.18 341.208 297.078C341.536 296.974 341.881 296.922 342.243 296.922C342.483 296.922 342.737 296.951 343.005 297.008C343.276 297.062 343.528 297.164 343.763 297.312C344 297.461 344.194 297.673 344.345 297.949C344.496 298.223 344.571 298.578 344.571 299.016V303H343.431V302.18H343.384C343.308 302.331 343.195 302.479 343.044 302.625C342.893 302.771 342.699 302.892 342.462 302.988C342.225 303.085 341.941 303.133 341.61 303.133ZM341.864 302.195C342.187 302.195 342.463 302.132 342.692 302.004C342.924 301.876 343.1 301.71 343.22 301.504C343.342 301.296 343.403 301.073 343.403 300.836V300.062C343.362 300.104 343.281 300.143 343.161 300.18C343.044 300.214 342.91 300.243 342.759 300.27C342.608 300.293 342.461 300.315 342.317 300.336C342.174 300.354 342.054 300.37 341.958 300.383C341.731 300.411 341.524 300.46 341.337 300.527C341.152 300.595 341.004 300.693 340.892 300.82C340.782 300.945 340.728 301.112 340.728 301.32C340.728 301.609 340.834 301.828 341.048 301.977C341.261 302.122 341.534 302.195 341.864 302.195ZM347.295 299.437V303H346.127V297H347.248V297.977H347.322C347.46 297.659 347.676 297.404 347.971 297.211C348.268 297.018 348.641 296.922 349.092 296.922C349.501 296.922 349.859 297.008 350.166 297.18C350.473 297.349 350.712 297.602 350.881 297.937C351.05 298.273 351.135 298.689 351.135 299.184V303H349.967V299.324C349.967 298.889 349.854 298.549 349.627 298.305C349.4 298.057 349.089 297.934 348.693 297.934C348.423 297.934 348.182 297.992 347.971 298.109C347.762 298.227 347.597 298.398 347.475 298.625C347.355 298.849 347.295 299.12 347.295 299.437ZM358.296 303H355.706V295H358.378C359.162 295 359.835 295.16 360.397 295.48C360.96 295.798 361.391 296.255 361.69 296.852C361.993 297.445 362.144 298.158 362.144 298.988C362.144 299.822 361.991 300.538 361.687 301.137C361.384 301.736 360.947 302.197 360.374 302.52C359.801 302.84 359.108 303 358.296 303ZM356.913 301.945H358.229C358.839 301.945 359.345 301.831 359.749 301.602C360.153 301.37 360.455 301.035 360.655 300.598C360.856 300.158 360.956 299.621 360.956 298.988C360.956 298.361 360.856 297.828 360.655 297.391C360.457 296.953 360.162 296.621 359.769 296.395C359.375 296.168 358.887 296.055 358.304 296.055H356.913V301.945ZM363.551 303V297H364.719V303H363.551ZM364.141 296.074C363.938 296.074 363.763 296.007 363.617 295.871C363.474 295.733 363.402 295.569 363.402 295.379C363.402 295.186 363.474 295.022 363.617 294.887C363.763 294.749 363.938 294.68 364.141 294.68C364.344 294.68 364.517 294.749 364.66 294.887C364.806 295.022 364.879 295.186 364.879 295.379C364.879 295.569 364.806 295.733 364.66 295.871C364.517 296.007 364.344 296.074 364.141 296.074ZM368.876 303.121C368.285 303.121 367.776 302.995 367.349 302.742C366.924 302.487 366.596 302.129 366.364 301.668C366.135 301.204 366.021 300.661 366.021 300.039C366.021 299.424 366.135 298.883 366.364 298.414C366.596 297.945 366.919 297.579 367.333 297.316C367.75 297.053 368.237 296.922 368.794 296.922C369.132 296.922 369.461 296.978 369.778 297.09C370.096 297.202 370.381 297.378 370.634 297.617C370.886 297.857 371.086 298.168 371.231 298.551C371.377 298.931 371.45 299.393 371.45 299.937V300.352H366.681V299.477H370.306C370.306 299.169 370.243 298.897 370.118 298.66C369.993 298.421 369.817 298.232 369.591 298.094C369.367 297.956 369.104 297.887 368.802 297.887C368.474 297.887 368.187 297.967 367.942 298.129C367.7 298.288 367.513 298.496 367.38 298.754C367.25 299.009 367.185 299.286 367.185 299.586V300.27C367.185 300.671 367.255 301.012 367.396 301.293C367.539 301.574 367.738 301.789 367.993 301.937C368.248 302.083 368.547 302.156 368.888 302.156C369.109 302.156 369.311 302.125 369.493 302.062C369.675 301.997 369.833 301.901 369.966 301.773C370.099 301.646 370.2 301.488 370.271 301.301L371.376 301.5C371.287 301.826 371.129 302.111 370.899 302.355C370.673 302.598 370.388 302.786 370.044 302.922C369.703 303.055 369.313 303.121 368.876 303.121ZM375.262 305.375C374.785 305.375 374.375 305.313 374.031 305.188C373.69 305.063 373.411 304.897 373.195 304.691C372.979 304.486 372.818 304.26 372.711 304.016L373.715 303.602C373.785 303.716 373.879 303.837 373.996 303.965C374.116 304.095 374.277 304.206 374.48 304.297C374.686 304.388 374.951 304.434 375.273 304.434C375.716 304.434 376.082 304.326 376.371 304.109C376.66 303.896 376.805 303.555 376.805 303.086V301.906H376.73C376.66 302.034 376.559 302.176 376.426 302.332C376.296 302.488 376.116 302.624 375.887 302.738C375.658 302.853 375.359 302.91 374.992 302.91C374.518 302.91 374.091 302.799 373.711 302.578C373.333 302.354 373.034 302.025 372.813 301.59C372.594 301.152 372.484 300.615 372.484 299.977C372.484 299.339 372.592 298.792 372.809 298.336C373.027 297.88 373.327 297.531 373.707 297.289C374.087 297.044 374.518 296.922 375 296.922C375.372 296.922 375.673 296.984 375.902 297.109C376.132 297.232 376.31 297.375 376.438 297.539C376.568 297.703 376.668 297.848 376.738 297.973H376.824V297H377.969V303.133C377.969 303.648 377.849 304.072 377.609 304.402C377.37 304.733 377.046 304.978 376.637 305.137C376.23 305.296 375.772 305.375 375.262 305.375ZM375.25 301.941C375.586 301.941 375.87 301.863 376.102 301.707C376.336 301.548 376.513 301.322 376.633 301.027C376.755 300.73 376.816 300.375 376.816 299.961C376.816 299.557 376.757 299.202 376.637 298.895C376.517 298.587 376.341 298.348 376.109 298.176C375.878 298.001 375.591 297.914 375.25 297.914C374.898 297.914 374.605 298.005 374.371 298.188C374.137 298.367 373.96 298.612 373.84 298.922C373.723 299.232 373.664 299.578 373.664 299.961C373.664 300.354 373.724 300.699 373.844 300.996C373.964 301.293 374.141 301.525 374.375 301.691C374.612 301.858 374.904 301.941 375.25 301.941ZM382.063 303.121C381.5 303.121 381.009 302.992 380.59 302.734C380.171 302.477 379.845 302.116 379.613 301.652C379.382 301.189 379.266 300.647 379.266 300.027C379.266 299.405 379.382 298.861 379.613 298.395C379.845 297.928 380.171 297.566 380.59 297.309C381.009 297.051 381.5 296.922 382.063 296.922C382.625 296.922 383.116 297.051 383.535 297.309C383.954 297.566 384.28 297.928 384.512 298.395C384.743 298.861 384.859 299.405 384.859 300.027C384.859 300.647 384.743 301.189 384.512 301.652C384.28 302.116 383.954 302.477 383.535 302.734C383.116 302.992 382.625 303.121 382.063 303.121ZM382.066 302.141C382.431 302.141 382.733 302.044 382.973 301.852C383.212 301.659 383.389 301.402 383.504 301.082C383.621 300.762 383.68 300.409 383.68 300.023C383.68 299.641 383.621 299.289 383.504 298.969C383.389 298.646 383.212 298.387 382.973 298.191C382.733 297.996 382.431 297.898 382.066 297.898C381.699 297.898 381.395 297.996 381.152 298.191C380.913 298.387 380.734 298.646 380.617 298.969C380.503 299.289 380.445 299.641 380.445 300.023C380.445 300.409 380.503 300.762 380.617 301.082C380.734 301.402 380.913 301.659 381.152 301.852C381.395 302.044 381.699 302.141 382.066 302.141Z" fill="#1E3050"/>
<path opacity="0.8" d="M447.048 304L444.829 296H446.099L447.657 302.195H447.731L449.353 296H450.61L452.231 302.199H452.306L453.86 296H455.134L452.911 304H451.696L450.013 298.008H449.95L448.267 304H447.048ZM458.136 304.121C457.545 304.121 457.035 303.995 456.608 303.742C456.184 303.487 455.856 303.129 455.624 302.668C455.395 302.204 455.28 301.661 455.28 301.039C455.28 300.424 455.395 299.883 455.624 299.414C455.856 298.945 456.179 298.579 456.593 298.316C457.009 298.053 457.496 297.922 458.054 297.922C458.392 297.922 458.72 297.978 459.038 298.09C459.356 298.202 459.641 298.378 459.894 298.617C460.146 298.857 460.345 299.168 460.491 299.551C460.637 299.931 460.71 300.393 460.71 300.937V301.352H455.94V300.477H459.565C459.565 300.169 459.503 299.897 459.378 299.66C459.253 299.421 459.077 299.232 458.851 299.094C458.627 298.956 458.364 298.887 458.062 298.887C457.733 298.887 457.447 298.967 457.202 299.129C456.96 299.288 456.772 299.496 456.64 299.754C456.509 300.009 456.444 300.286 456.444 300.586V301.27C456.444 301.671 456.515 302.012 456.655 302.293C456.799 302.574 456.998 302.789 457.253 302.937C457.508 303.083 457.806 303.156 458.147 303.156C458.369 303.156 458.571 303.125 458.753 303.062C458.935 302.997 459.093 302.901 459.226 302.773C459.358 302.646 459.46 302.488 459.53 302.301L460.636 302.5C460.547 302.826 460.388 303.111 460.159 303.355C459.933 303.598 459.647 303.786 459.304 303.922C458.963 304.055 458.573 304.121 458.136 304.121ZM463.752 304.133C463.372 304.133 463.028 304.063 462.721 303.922C462.413 303.779 462.17 303.572 461.99 303.301C461.813 303.03 461.725 302.698 461.725 302.305C461.725 301.966 461.79 301.687 461.92 301.469C462.05 301.25 462.226 301.077 462.447 300.949C462.669 300.822 462.916 300.725 463.189 300.66C463.463 300.595 463.742 300.546 464.025 300.512C464.385 300.47 464.676 300.436 464.9 300.41C465.124 300.382 465.287 300.336 465.389 300.273C465.49 300.211 465.541 300.109 465.541 299.969V299.941C465.541 299.6 465.445 299.336 465.252 299.148C465.062 298.961 464.778 298.867 464.4 298.867C464.007 298.867 463.697 298.954 463.471 299.129C463.247 299.301 463.092 299.492 463.006 299.703L461.908 299.453C462.038 299.089 462.229 298.794 462.479 298.57C462.731 298.344 463.021 298.18 463.35 298.078C463.678 297.974 464.023 297.922 464.385 297.922C464.624 297.922 464.878 297.951 465.146 298.008C465.417 298.062 465.67 298.164 465.904 298.312C466.141 298.461 466.335 298.673 466.486 298.949C466.637 299.223 466.713 299.578 466.713 300.016V304H465.572V303.18H465.525C465.45 303.331 465.337 303.479 465.186 303.625C465.035 303.771 464.84 303.892 464.604 303.988C464.367 304.085 464.083 304.133 463.752 304.133ZM464.006 303.195C464.329 303.195 464.605 303.132 464.834 303.004C465.066 302.876 465.242 302.71 465.361 302.504C465.484 302.296 465.545 302.073 465.545 301.836V301.062C465.503 301.104 465.423 301.143 465.303 301.18C465.186 301.214 465.051 301.243 464.9 301.27C464.749 301.293 464.602 301.315 464.459 301.336C464.316 301.354 464.196 301.37 464.1 301.383C463.873 301.411 463.666 301.46 463.479 301.527C463.294 301.595 463.145 301.693 463.033 301.82C462.924 301.945 462.869 302.112 462.869 302.32C462.869 302.609 462.976 302.828 463.189 302.977C463.403 303.122 463.675 303.195 464.006 303.195ZM471.069 298V298.937H467.792V298H471.069ZM468.671 296.562H469.839V302.238C469.839 302.465 469.873 302.635 469.94 302.75C470.008 302.862 470.095 302.939 470.202 302.98C470.312 303.02 470.43 303.039 470.558 303.039C470.651 303.039 470.733 303.033 470.804 303.02C470.874 303.007 470.929 302.996 470.968 302.988L471.179 303.953C471.111 303.979 471.015 304.005 470.89 304.031C470.765 304.06 470.608 304.076 470.421 304.078C470.114 304.083 469.827 304.029 469.562 303.914C469.296 303.799 469.081 303.622 468.917 303.383C468.753 303.143 468.671 302.842 468.671 302.48V296.562ZM473.658 300.437V304H472.49V296H473.643V298.977H473.717C473.857 298.654 474.072 298.397 474.361 298.207C474.65 298.017 475.028 297.922 475.494 297.922C475.906 297.922 476.265 298.007 476.572 298.176C476.882 298.345 477.122 298.598 477.291 298.934C477.463 299.267 477.549 299.684 477.549 300.184V304H476.381V300.324C476.381 299.884 476.268 299.543 476.041 299.301C475.814 299.056 475.499 298.934 475.096 298.934C474.82 298.934 474.572 298.992 474.354 299.109C474.137 299.227 473.967 299.398 473.842 299.625C473.719 299.849 473.658 300.12 473.658 300.437ZM481.693 304.121C481.102 304.121 480.593 303.995 480.166 303.742C479.742 303.487 479.413 303.129 479.182 302.668C478.952 302.204 478.838 301.661 478.838 301.039C478.838 300.424 478.952 299.883 479.182 299.414C479.413 298.945 479.736 298.579 480.15 298.316C480.567 298.053 481.054 297.922 481.611 297.922C481.95 297.922 482.278 297.978 482.596 298.09C482.913 298.202 483.199 298.378 483.451 298.617C483.704 298.857 483.903 299.168 484.049 299.551C484.195 299.931 484.268 300.393 484.268 300.937V301.352H479.498V300.477H483.123C483.123 300.169 483.061 299.897 482.936 299.66C482.811 299.421 482.635 299.232 482.408 299.094C482.184 298.956 481.921 298.887 481.619 298.887C481.291 298.887 481.005 298.967 480.76 299.129C480.518 299.288 480.33 299.496 480.197 299.754C480.067 300.009 480.002 300.286 480.002 300.586V301.27C480.002 301.671 480.072 302.012 480.213 302.293C480.356 302.574 480.555 302.789 480.811 302.937C481.066 303.083 481.364 303.156 481.705 303.156C481.926 303.156 482.128 303.125 482.311 303.062C482.493 302.997 482.65 302.901 482.783 302.773C482.916 302.646 483.018 302.488 483.088 302.301L484.193 302.5C484.105 302.826 483.946 303.111 483.717 303.355C483.49 303.598 483.205 303.786 482.861 303.922C482.52 304.055 482.131 304.121 481.693 304.121ZM485.563 304V298H486.692V298.953H486.755C486.864 298.63 487.057 298.376 487.333 298.191C487.612 298.004 487.927 297.91 488.278 297.91C488.351 297.91 488.437 297.913 488.536 297.918C488.638 297.923 488.717 297.93 488.774 297.937V299.055C488.728 299.042 488.644 299.027 488.524 299.012C488.405 298.993 488.285 298.984 488.165 298.984C487.889 298.984 487.643 299.043 487.427 299.16C487.213 299.275 487.044 299.435 486.919 299.641C486.794 299.844 486.731 300.076 486.731 300.336V304H485.563Z" fill="#1E3050"/>
<g filter="url(#filter5_d_12757_23637)">
<rect x="317" y="339" width="187" height="114" rx="16" fill="white"/>
</g>
<path d="M357.833 426.559C357.833 426.232 357.833 426.069 357.872 425.922C357.931 425.699 358.055 425.499 358.228 425.346C358.342 425.245 358.488 425.172 358.78 425.026C359.825 424.504 360.347 424.243 360.773 424.248C361.419 424.257 362.008 424.621 362.305 425.195C362.5 425.573 362.5 426.157 362.5 427.325V430.675C362.5 431.843 362.5 432.427 362.305 432.805C362.008 433.379 361.419 433.743 360.773 433.751C360.347 433.757 359.825 433.496 358.78 432.973C358.488 432.827 358.342 432.754 358.228 432.654C358.055 432.501 357.931 432.301 357.872 432.078C357.833 431.931 357.833 431.768 357.833 431.441V426.559Z" fill="#749FFB" stroke="#749FFB" stroke-width="2.33333"/>
<path d="M341.5 427.833C341.5 424.533 341.5 422.884 342.525 421.858C343.55 420.833 345.2 420.833 348.5 420.833H350.833C354.133 420.833 355.783 420.833 356.808 421.858C357.833 422.884 357.833 424.533 357.833 427.833V430.167C357.833 433.466 357.833 435.116 356.808 436.141C355.783 437.167 354.133 437.167 350.833 437.167H349.122H348.5C345.2 437.167 343.55 437.167 342.525 436.141C341.5 435.116 341.5 433.466 341.5 430.167V427.833Z" fill="#749FFB" stroke="#749FFB" stroke-width="2.33333"/>
<path d="M400.5 422.563C400.5 422.808 400.5 423.023 400.503 423.21C400.501 423.234 400.5 423.258 400.5 423.283C400.5 431.559 407.33 438.558 415.659 439.412C415.704 439.422 415.75 439.432 415.796 439.44C416.117 439.5 416.481 439.5 416.973 439.5L417.399 439.5C418.07 439.5 418.568 439.501 418.999 439.389C420.164 439.09 421.073 438.215 421.385 437.096C421.501 436.681 421.5 436.202 421.5 435.557V435.334C421.5 434.689 421.501 434.21 421.385 433.795C421.073 432.676 420.164 431.802 418.999 431.502C418.568 431.391 418.07 431.391 417.399 431.391H417.167C416.496 431.391 415.998 431.391 415.566 431.502C414.402 431.802 413.493 432.676 413.181 433.795C413.161 433.866 413.086 433.907 413.018 433.88C409.85 432.623 407.306 430.058 406.183 426.925C406.117 426.74 406.243 426.547 406.434 426.498C407.598 426.198 408.507 425.324 408.819 424.205C408.935 423.79 408.934 423.311 408.934 422.666V422.443C408.934 421.798 408.935 421.319 408.819 420.904C408.507 419.785 407.598 418.91 406.434 418.611C406.002 418.499 405.504 418.5 404.833 418.5L404.407 418.5C403.915 418.5 403.551 418.5 403.23 418.56C401.88 418.812 400.824 419.827 400.562 421.125C400.5 421.433 400.5 421.783 400.5 422.256L400.5 422.563Z" fill="#749FFB"/>
<path d="M470 439.5C467.865 439.5 465.858 438.984 464.13 438.077C464.06 438.111 463.982 438.149 463.897 438.189C463.51 438.372 462.98 438.61 462.422 438.821C461.873 439.029 461.253 439.228 460.698 439.31C460.421 439.352 460.116 439.371 459.823 439.326C459.531 439.281 459.164 439.157 458.893 438.832C458.65 438.542 458.58 438.197 458.56 437.942C458.539 437.674 458.565 437.394 458.608 437.132C458.695 436.608 458.874 436.025 459.06 435.503C459.249 434.975 459.457 434.476 459.617 434.111C459.645 434.047 459.672 433.987 459.697 433.931C458.829 432.464 458.333 430.785 458.333 429C458.333 423.114 463.649 418.5 470 418.5C476.352 418.5 481.667 423.114 481.667 429C481.667 434.886 476.352 439.5 470 439.5Z" fill="#749FFB"/>
<path d="M318 403H504" stroke="#F0F3F5" stroke-linecap="round"/>
<rect x="332" y="354" width="31" height="31" rx="8" fill="#E6F1FE"/>
<rect x="344" y="362" width="7" height="7" rx="3.20833" fill="#749FFB" stroke="#749FFB" stroke-width="1.83333" stroke-linejoin="round"/>
<path d="M342 376.07C342 374.83 342.384 371 345.929 371H349.071C352.616 371 353 374.83 353 376.07C353 377.31 342 377.31 342 376.07Z" fill="#749FFB" stroke="#749FFB" stroke-width="1.83333"/>
<path opacity="0.8" d="M374.979 369H373.348L377.012 358.818H378.787L382.451 369H380.82L377.942 360.668H377.862L374.979 369ZM375.252 365.013H380.542V366.305H375.252V365.013ZM385.289 358.818V369H383.802V358.818H385.289ZM388.775 358.818V369H387.288V358.818H388.775ZM390.775 369V361.364H392.261V369H390.775ZM391.525 360.185C391.267 360.185 391.045 360.099 390.859 359.927C390.677 359.751 390.586 359.542 390.586 359.3C390.586 359.055 390.677 358.846 390.859 358.674C391.045 358.498 391.267 358.411 391.525 358.411C391.784 358.411 392.004 358.498 392.187 358.674C392.372 358.846 392.465 359.055 392.465 359.3C392.465 359.542 392.372 359.751 392.187 359.927C392.004 360.099 391.784 360.185 391.525 360.185ZM397.552 369.154C396.8 369.154 396.152 368.993 395.608 368.672C395.068 368.347 394.65 367.891 394.355 367.305C394.064 366.715 393.918 366.024 393.918 365.232C393.918 364.449 394.064 363.76 394.355 363.163C394.65 362.567 395.061 362.101 395.588 361.766C396.119 361.432 396.739 361.264 397.448 361.264C397.879 361.264 398.296 361.335 398.701 361.478C399.105 361.621 399.468 361.844 399.789 362.149C400.111 362.454 400.364 362.85 400.55 363.337C400.736 363.821 400.828 364.41 400.828 365.102V365.629H394.758V364.516H399.372C399.372 364.125 399.292 363.778 399.133 363.477C398.974 363.172 398.75 362.931 398.462 362.756C398.177 362.58 397.842 362.492 397.458 362.492C397.04 362.492 396.676 362.595 396.364 362.8C396.056 363.003 395.817 363.268 395.648 363.596C395.482 363.921 395.4 364.274 395.4 364.655V365.525C395.4 366.035 395.489 366.469 395.668 366.827C395.85 367.185 396.104 367.459 396.429 367.648C396.753 367.833 397.133 367.926 397.567 367.926C397.849 367.926 398.106 367.886 398.338 367.807C398.57 367.724 398.77 367.601 398.939 367.439C399.108 367.277 399.238 367.076 399.327 366.837L400.734 367.091C400.621 367.505 400.419 367.868 400.127 368.18C399.839 368.488 399.476 368.728 399.039 368.901C398.605 369.07 398.109 369.154 397.552 369.154ZM413.193 362.035C413.097 361.733 412.967 361.463 412.805 361.224C412.646 360.982 412.455 360.777 412.233 360.608C412.011 360.436 411.758 360.305 411.473 360.215C411.191 360.126 410.881 360.081 410.543 360.081C409.97 360.081 409.453 360.228 408.992 360.523C408.531 360.818 408.167 361.251 407.898 361.821C407.633 362.388 407.5 363.082 407.5 363.904C407.5 364.729 407.635 365.427 407.903 365.997C408.172 366.567 408.539 367 409.007 367.295C409.474 367.59 410.006 367.737 410.603 367.737C411.156 367.737 411.638 367.625 412.049 367.399C412.464 367.174 412.783 366.856 413.009 366.445C413.238 366.03 413.352 365.543 413.352 364.983L413.75 365.058H410.836V363.79H414.838V364.948C414.838 365.803 414.656 366.546 414.292 367.175C413.93 367.802 413.43 368.286 412.79 368.627C412.154 368.969 411.425 369.139 410.603 369.139C409.681 369.139 408.873 368.927 408.176 368.503C407.484 368.079 406.944 367.477 406.556 366.698C406.168 365.916 405.974 364.988 405.974 363.914C405.974 363.102 406.087 362.373 406.312 361.727C406.538 361.08 406.854 360.532 407.262 360.081C407.673 359.627 408.155 359.281 408.708 359.042C409.265 358.8 409.873 358.679 410.533 358.679C411.083 358.679 411.595 358.76 412.069 358.923C412.547 359.085 412.971 359.315 413.342 359.614C413.717 359.912 414.026 360.267 414.272 360.678C414.517 361.085 414.683 361.538 414.769 362.035H413.193ZM416.669 369V361.364H418.106V362.577H418.186C418.325 362.166 418.57 361.843 418.921 361.607C419.276 361.369 419.677 361.249 420.124 361.249C420.217 361.249 420.327 361.253 420.453 361.259C420.582 361.266 420.683 361.274 420.756 361.284V362.706C420.696 362.689 420.59 362.671 420.438 362.651C420.285 362.628 420.133 362.616 419.98 362.616C419.629 362.616 419.316 362.691 419.041 362.84C418.769 362.986 418.553 363.19 418.394 363.452C418.235 363.71 418.156 364.005 418.156 364.337V369H416.669ZM424.196 369.169C423.712 369.169 423.275 369.08 422.884 368.901C422.493 368.718 422.183 368.455 421.954 368.11C421.729 367.765 421.616 367.343 421.616 366.842C421.616 366.411 421.699 366.057 421.865 365.778C422.03 365.5 422.254 365.28 422.536 365.117C422.817 364.955 423.132 364.832 423.48 364.749C423.828 364.666 424.183 364.603 424.544 364.56C425.002 364.507 425.373 364.464 425.658 364.431C425.943 364.395 426.15 364.337 426.279 364.257C426.409 364.178 426.473 364.048 426.473 363.869V363.835C426.473 363.4 426.351 363.064 426.105 362.825C425.863 362.587 425.502 362.467 425.021 362.467C424.521 362.467 424.127 362.578 423.838 362.8C423.553 363.019 423.356 363.263 423.247 363.531L421.85 363.213C422.015 362.749 422.257 362.375 422.575 362.089C422.897 361.801 423.267 361.592 423.684 361.463C424.102 361.33 424.541 361.264 425.002 361.264C425.307 361.264 425.63 361.301 425.971 361.374C426.316 361.443 426.637 361.572 426.936 361.761C427.237 361.95 427.484 362.22 427.676 362.572C427.869 362.92 427.965 363.372 427.965 363.929V369H426.513V367.956H426.453C426.357 368.148 426.213 368.337 426.021 368.523C425.829 368.708 425.582 368.862 425.28 368.985C424.978 369.108 424.617 369.169 424.196 369.169ZM424.519 367.976C424.93 367.976 425.282 367.895 425.573 367.732C425.868 367.57 426.092 367.358 426.244 367.096C426.4 366.831 426.478 366.547 426.478 366.246V365.261C426.425 365.314 426.322 365.364 426.17 365.411C426.021 365.454 425.85 365.492 425.658 365.525C425.466 365.555 425.278 365.583 425.096 365.609C424.914 365.633 424.761 365.652 424.639 365.669C424.35 365.705 424.087 365.767 423.848 365.853C423.613 365.939 423.424 366.063 423.281 366.226C423.142 366.385 423.073 366.597 423.073 366.862C423.073 367.23 423.209 367.509 423.48 367.697C423.752 367.883 424.098 367.976 424.519 367.976ZM433.509 361.364V362.557H429.338V361.364H433.509ZM430.457 359.534H431.943V366.758C431.943 367.046 431.986 367.263 432.072 367.409C432.159 367.552 432.27 367.649 432.406 367.702C432.545 367.752 432.696 367.777 432.858 367.777C432.977 367.777 433.082 367.769 433.171 367.752C433.261 367.736 433.33 367.722 433.38 367.712L433.648 368.94C433.562 368.973 433.44 369.007 433.281 369.04C433.121 369.076 432.923 369.096 432.684 369.099C432.293 369.106 431.928 369.036 431.59 368.891C431.252 368.745 430.979 368.519 430.77 368.214C430.561 367.91 430.457 367.527 430.457 367.066V359.534ZM438.363 369.154C437.61 369.154 436.962 368.993 436.419 368.672C435.879 368.347 435.461 367.891 435.166 367.305C434.874 366.715 434.729 366.024 434.729 365.232C434.729 364.449 434.874 363.76 435.166 363.163C435.461 362.567 435.872 362.101 436.399 361.766C436.929 361.432 437.549 361.264 438.258 361.264C438.689 361.264 439.107 361.335 439.511 361.478C439.916 361.621 440.278 361.844 440.6 362.149C440.921 362.454 441.175 362.85 441.361 363.337C441.546 363.821 441.639 364.41 441.639 365.102V365.629H435.569V364.516H440.182C440.182 364.125 440.103 363.778 439.944 363.477C439.785 363.172 439.561 362.931 439.273 362.756C438.988 362.58 438.653 362.492 438.268 362.492C437.851 362.492 437.486 362.595 437.175 362.8C436.866 363.003 436.628 363.268 436.459 363.596C436.293 363.921 436.21 364.274 436.21 364.655V365.525C436.21 366.035 436.3 366.469 436.479 366.827C436.661 367.185 436.914 367.459 437.239 367.648C437.564 367.833 437.943 367.926 438.378 367.926C438.659 367.926 438.916 367.886 439.148 367.807C439.38 367.724 439.581 367.601 439.75 367.439C439.919 367.277 440.048 367.076 440.138 366.837L441.545 367.091C441.432 367.505 441.23 367.868 440.938 368.18C440.65 368.488 440.287 368.728 439.849 368.901C439.415 369.07 438.92 369.154 438.363 369.154ZM443.288 369V361.364H444.725V362.577H444.805C444.944 362.166 445.189 361.843 445.54 361.607C445.895 361.369 446.296 361.249 446.744 361.249C446.836 361.249 446.946 361.253 447.072 361.259C447.201 361.266 447.302 361.274 447.375 361.284V362.706C447.315 362.689 447.209 362.671 447.057 362.651C446.904 362.628 446.752 362.616 446.599 362.616C446.248 362.616 445.935 362.691 445.66 362.84C445.388 362.986 445.173 363.19 445.013 363.452C444.854 363.71 444.775 364.005 444.775 364.337V369H443.288Z" fill="#1E3050"/>
<path d="M373.881 382V374.727H378.27V375.509H374.761V377.966H378.043V378.747H374.761V381.219H378.327V382H373.881ZM380.369 376.545L381.675 378.776L382.982 376.545H383.948L382.187 379.273L383.948 382H382.982L381.675 379.884L380.369 382H379.403L381.136 379.273L379.403 376.545H380.369ZM387.206 382.114C386.681 382.114 386.227 381.998 385.846 381.766C385.467 381.531 385.175 381.205 384.969 380.786C384.766 380.364 384.664 379.874 384.664 379.315C384.664 378.757 384.766 378.264 384.969 377.838C385.175 377.41 385.462 377.076 385.828 376.837C386.198 376.595 386.629 376.474 387.121 376.474C387.405 376.474 387.686 376.522 387.963 376.616C388.24 376.711 388.492 376.865 388.719 377.078C388.946 377.289 389.127 377.568 389.262 377.916C389.397 378.264 389.465 378.693 389.465 379.202V379.557H385.26V378.832H388.613C388.613 378.525 388.551 378.25 388.428 378.009C388.307 377.767 388.134 377.576 387.909 377.437C387.687 377.297 387.424 377.227 387.121 377.227C386.787 377.227 386.498 377.31 386.255 377.476C386.013 377.639 385.827 377.852 385.697 378.115C385.567 378.378 385.502 378.66 385.502 378.96V379.443C385.502 379.855 385.573 380.204 385.715 380.491C385.859 380.775 386.059 380.991 386.315 381.141C386.571 381.287 386.868 381.361 387.206 381.361C387.426 381.361 387.625 381.33 387.803 381.268C387.983 381.205 388.138 381.11 388.268 380.984C388.398 380.857 388.499 380.698 388.57 380.509L389.38 380.736C389.294 381.01 389.151 381.252 388.95 381.46C388.749 381.666 388.5 381.827 388.204 381.943C387.908 382.057 387.576 382.114 387.206 382.114ZM392.956 382.114C392.444 382.114 392.004 381.993 391.635 381.751C391.265 381.51 390.981 381.177 390.782 380.754C390.583 380.33 390.484 379.846 390.484 379.301C390.484 378.747 390.586 378.258 390.789 377.835C390.995 377.408 391.282 377.076 391.649 376.837C392.018 376.595 392.449 376.474 392.941 376.474C393.325 376.474 393.671 376.545 393.978 376.688C394.286 376.83 394.538 377.028 394.735 377.284C394.931 377.54 395.053 377.838 395.1 378.179H394.262C394.199 377.93 394.056 377.71 393.836 377.518C393.618 377.324 393.325 377.227 392.956 377.227C392.629 377.227 392.342 377.312 392.096 377.483C391.852 377.651 391.662 377.889 391.525 378.197C391.39 378.502 391.322 378.861 391.322 379.273C391.322 379.694 391.388 380.061 391.521 380.374C391.656 380.686 391.845 380.929 392.089 381.102C392.335 381.274 392.624 381.361 392.956 381.361C393.173 381.361 393.371 381.323 393.549 381.247C393.726 381.171 393.877 381.062 394 380.92C394.123 380.778 394.21 380.608 394.262 380.409H395.1C395.053 380.731 394.936 381.021 394.749 381.279C394.564 381.535 394.319 381.738 394.014 381.89C393.711 382.039 393.358 382.114 392.956 382.114ZM399.763 379.77V376.545H400.601V382H399.763V381.077H399.706C399.578 381.354 399.38 381.589 399.11 381.783C398.84 381.975 398.499 382.071 398.087 382.071C397.746 382.071 397.443 381.996 397.178 381.847C396.913 381.696 396.704 381.469 396.553 381.165C396.401 380.86 396.326 380.475 396.326 380.011V376.545H397.164V379.955C397.164 380.352 397.275 380.67 397.498 380.906C397.722 381.143 398.009 381.261 398.357 381.261C398.565 381.261 398.777 381.208 398.993 381.102C399.21 380.995 399.393 380.832 399.539 380.612C399.689 380.391 399.763 380.111 399.763 379.77ZM404.508 376.545V377.256H401.682V376.545H404.508ZM402.506 375.239H403.344V380.438C403.344 380.674 403.378 380.852 403.447 380.97C403.518 381.086 403.608 381.164 403.716 381.205C403.828 381.242 403.945 381.261 404.068 381.261C404.16 381.261 404.236 381.257 404.295 381.247C404.354 381.235 404.402 381.226 404.437 381.219L404.608 381.972C404.551 381.993 404.472 382.014 404.37 382.036C404.268 382.059 404.139 382.071 403.983 382.071C403.746 382.071 403.514 382.02 403.287 381.918C403.062 381.817 402.875 381.661 402.726 381.453C402.579 381.245 402.506 380.982 402.506 380.665V375.239ZM405.769 382V376.545H406.607V382H405.769ZM406.195 375.636C406.032 375.636 405.891 375.581 405.773 375.469C405.657 375.358 405.599 375.224 405.599 375.068C405.599 374.912 405.657 374.778 405.773 374.667C405.891 374.556 406.032 374.5 406.195 374.5C406.358 374.5 406.498 374.556 406.614 374.667C406.733 374.778 406.792 374.912 406.792 375.068C406.792 375.224 406.733 375.358 406.614 375.469C406.498 375.581 406.358 375.636 406.195 375.636ZM412.602 376.545L410.585 382H409.733L407.716 376.545H408.625L410.131 380.892H410.188L411.693 376.545H412.602ZM415.8 382.114C415.275 382.114 414.821 381.998 414.44 381.766C414.061 381.531 413.769 381.205 413.563 380.786C413.359 380.364 413.257 379.874 413.257 379.315C413.257 378.757 413.359 378.264 413.563 377.838C413.769 377.41 414.055 377.076 414.422 376.837C414.792 376.595 415.222 376.474 415.715 376.474C415.999 376.474 416.279 376.522 416.556 376.616C416.833 376.711 417.086 376.865 417.313 377.078C417.54 377.289 417.721 377.568 417.856 377.916C417.991 378.264 418.059 378.693 418.059 379.202V379.557H413.854V378.832H417.206C417.206 378.525 417.145 378.25 417.022 378.009C416.901 377.767 416.728 377.576 416.503 377.437C416.281 377.297 416.018 377.227 415.715 377.227C415.381 377.227 415.092 377.31 414.848 377.476C414.607 377.639 414.421 377.852 414.291 378.115C414.161 378.378 414.096 378.66 414.096 378.96V379.443C414.096 379.855 414.167 380.204 414.309 380.491C414.453 380.775 414.653 380.991 414.909 381.141C415.164 381.287 415.462 381.361 415.8 381.361C416.02 381.361 416.219 381.33 416.397 381.268C416.577 381.205 416.732 381.11 416.862 380.984C416.992 380.857 417.093 380.698 417.164 380.509L417.973 380.736C417.888 381.01 417.745 381.252 417.544 381.46C417.342 381.666 417.094 381.827 416.798 381.943C416.502 382.057 416.169 382.114 415.8 382.114Z" fill="#676F7E"/>
<path d="M480.667 363.667V362.833C480.667 362.143 480.107 361.583 479.417 361.583H478.583C477.893 361.583 477.333 362.143 477.333 362.833V363.667C477.333 364.357 477.893 364.917 478.583 364.917H479.417C480.107 364.917 480.667 364.357 480.667 363.667Z" fill="#676F7E" stroke="#676F7E" stroke-width="0.833333" stroke-linecap="round" stroke-linejoin="round"/>
<path d="M480.667 369.917V369.083C480.667 368.393 480.107 367.833 479.417 367.833H478.583C477.893 367.833 477.333 368.393 477.333 369.083V369.917C477.333 370.607 477.893 371.167 478.583 371.167H479.417C480.107 371.167 480.667 370.607 480.667 369.917Z" fill="#676F7E" stroke="#676F7E" stroke-width="0.833333" stroke-linecap="round" stroke-linejoin="round"/>
<path d="M480.667 376.167V375.333C480.667 374.643 480.107 374.083 479.417 374.083H478.583C477.893 374.083 477.333 374.643 477.333 375.333V376.167C477.333 376.857 477.893 377.417 478.583 377.417H479.417C480.107 377.417 480.667 376.857 480.667 376.167Z" fill="#676F7E" stroke="#676F7E" stroke-width="0.833333" stroke-linecap="round" stroke-linejoin="round"/>
<path d="M128 383.083C134.121 383.083 139.083 381.452 139.083 379.439C139.083 378.042 136.694 376.829 133.185 376.217C131.55 378.88 129.429 380.75 128 380.75C126.57 380.75 124.45 378.88 122.814 376.217C119.306 376.829 116.917 378.042 116.917 379.439C116.917 381.452 121.879 383.083 128 383.083Z" stroke="#B874FB" stroke-width="1.8" stroke-linecap="round"/>
<defs>
<filter id="filter0_b_12757_23637" x="-50" y="-50" width="700" height="715" filterUnits="userSpaceOnUse" color-interpolation-filters="sRGB">
<feFlood flood-opacity="0" result="BackgroundImageFix"/>
<feGaussianBlur in="BackgroundImageFix" stdDeviation="25"/>
<feComposite in2="SourceAlpha" operator="in" result="effect1_backgroundBlur_12757_23637"/>
<feBlend mode="normal" in="SourceGraphic" in2="effect1_backgroundBlur_12757_23637" result="shape"/>
</filter>
<filter id="filter1_d_12757_23637" x="73" y="137" width="455" height="100" filterUnits="userSpaceOnUse" color-interpolation-filters="sRGB">
<feFlood flood-opacity="0" result="BackgroundImageFix"/>
<feColorMatrix in="SourceAlpha" type="matrix" values="0 0 0 0 0 0 0 0 0 0 0 0 0 0 0 0 0 0 127 0" result="hardAlpha"/>
<feOffset dy="14"/>
<feGaussianBlur stdDeviation="12"/>
<feComposite in2="hardAlpha" operator="out"/>
<feColorMatrix type="matrix" values="0 0 0 0 0 0 0 0 0 0 0 0 0 0 0 0 0 0 0.05 0"/>
<feBlend mode="normal" in2="BackgroundImageFix" result="effect1_dropShadow_12757_23637"/>
<feBlend mode="normal" in="SourceGraphic" in2="effect1_dropShadow_12757_23637" result="shape"/>
</filter>
<filter id="filter2_d_12757_23637" x="73" y="209" width="248" height="100" filterUnits="userSpaceOnUse" color-interpolation-filters="sRGB">
<feFlood flood-opacity="0" result="BackgroundImageFix"/>
<feColorMatrix in="SourceAlpha" type="matrix" values="0 0 0 0 0 0 0 0 0 0 0 0 0 0 0 0 0 0 127 0" result="hardAlpha"/>
<feOffset dy="14"/>
<feGaussianBlur stdDeviation="12"/>
<feComposite in2="hardAlpha" operator="out"/>
<feColorMatrix type="matrix" values="0 0 0 0 0 0 0 0 0 0 0 0 0 0 0 0 0 0 0.05 0"/>
<feBlend mode="normal" in2="BackgroundImageFix" result="effect1_dropShadow_12757_23637"/>
<feBlend mode="normal" in="SourceGraphic" in2="effect1_dropShadow_12757_23637" result="shape"/>
</filter>
<filter id="filter3_d_12757_23637" x="73" y="281" width="248" height="210" filterUnits="userSpaceOnUse" color-interpolation-filters="sRGB">
<feFlood flood-opacity="0" result="BackgroundImageFix"/>
<feColorMatrix in="SourceAlpha" type="matrix" values="0 0 0 0 0 0 0 0 0 0 0 0 0 0 0 0 0 0 127 0" result="hardAlpha"/>
<feOffset dy="14"/>
<feGaussianBlur stdDeviation="12"/>
<feComposite in2="hardAlpha" operator="out"/>
<feColorMatrix type="matrix" values="0 0 0 0 0 0 0 0 0 0 0 0 0 0 0 0 0 0 0.05 0"/>
<feBlend mode="normal" in2="BackgroundImageFix" result="effect1_dropShadow_12757_23637"/>
<feBlend mode="normal" in="SourceGraphic" in2="effect1_dropShadow_12757_23637" result="shape"/>
</filter>
<filter id="filter4_d_12757_23637" x="293" y="209" width="235" height="148" filterUnits="userSpaceOnUse" color-interpolation-filters="sRGB">
<feFlood flood-opacity="0" result="BackgroundImageFix"/>
<feColorMatrix in="SourceAlpha" type="matrix" values="0 0 0 0 0 0 0 0 0 0 0 0 0 0 0 0 0 0 127 0" result="hardAlpha"/>
<feOffset dy="14"/>
<feGaussianBlur stdDeviation="12"/>
<feComposite in2="hardAlpha" operator="out"/>
<feColorMatrix type="matrix" values="0 0 0 0 0 0 0 0 0 0 0 0 0 0 0 0 0 0 0.05 0"/>
<feBlend mode="normal" in2="BackgroundImageFix" result="effect1_dropShadow_12757_23637"/>
<feBlend mode="normal" in="SourceGraphic" in2="effect1_dropShadow_12757_23637" result="shape"/>
</filter>
<filter id="filter5_d_12757_23637" x="293" y="329" width="235" height="162" filterUnits="userSpaceOnUse" color-interpolation-filters="sRGB">
<feFlood flood-opacity="0" result="BackgroundImageFix"/>
<feColorMatrix in="SourceAlpha" type="matrix" values="0 0 0 0 0 0 0 0 0 0 0 0 0 0 0 0 0 0 127 0" result="hardAlpha"/>
<feOffset dy="14"/>
<feGaussianBlur stdDeviation="12"/>
<feComposite in2="hardAlpha" operator="out"/>
<feColorMatrix type="matrix" values="0 0 0 0 0 0 0 0 0 0 0 0 0 0 0 0 0 0 0.05 0"/>
<feBlend mode="normal" in2="BackgroundImageFix" result="effect1_dropShadow_12757_23637"/>
<feBlend mode="normal" in="SourceGraphic" in2="effect1_dropShadow_12757_23637" result="shape"/>
</filter>
<linearGradient id="paint0_linear_12757_23637" x1="0" y1="0" x2="600" y2="615" gradientUnits="userSpaceOnUse">
<stop stop-color="#A5E3D9"/>
<stop offset="1" stop-color="#E1D8F3" stop-opacity="0.4"/>
</linearGradient>
<linearGradient id="paint1_linear_12757_23637" x1="410.5" y1="288" x2="410.5" y2="319" gradientUnits="userSpaceOnUse">
<stop stop-color="white" stop-opacity="0"/>
<stop offset="1" stop-color="#74B1FB" stop-opacity="0.2"/>
</linearGradient>
</defs>
</svg>
