<svg width="36" height="21" viewBox="0 0 36 21" fill="none" xmlns="http://www.w3.org/2000/svg">
<path d="M4.44006 20.2017C4.20567 20.2645 4.00418 20.1977 3.83561 20.0013C3.66703 19.8049 3.50544 19.4182 3.35084 18.8413C3.13343 18.0299 2.95353 17.1601 2.81114 16.232C2.67534 15.2925 2.55177 14.2724 2.44043 13.1717C2.36904 12.2922 2.56144 11.5498 3.01764 10.9444C3.48285 10.3366 4.16814 9.75686 5.07351 9.20506C5.63824 8.86049 6.22913 8.52341 6.84618 8.1938C7.46323 7.8642 8.04817 7.57702 8.60099 7.33227C9.16041 7.07608 9.62945 6.89726 10.0081 6.79581C10.2966 6.71851 10.534 6.70319 10.7205 6.74986C10.9069 6.79653 11.0498 6.87903 11.1491 6.99735C11.2551 7.10424 11.3225 7.21178 11.3515 7.31996C11.3974 7.49125 11.3979 7.65538 11.353 7.81235C11.3081 7.96932 11.1601 8.1201 10.909 8.26469C10.8014 8.33216 10.5704 8.4617 10.2159 8.65331C9.86804 8.83349 9.43934 9.05464 8.92982 9.31678C8.42932 9.5765 7.89969 9.8537 7.34091 10.1484C6.77972 10.434 6.23777 10.7193 5.71505 11.0043C5.2086 11.314 4.85606 11.621 4.65742 11.9254C4.46538 12.2185 4.38677 12.5922 4.42158 13.0467C4.42771 13.1417 4.4435 13.2727 4.46895 13.4398C4.80717 13.2236 5.17848 13.0226 5.58287 12.837C5.98727 12.6513 6.36494 12.4922 6.71589 12.3595C7.06684 12.2268 7.32796 12.1375 7.49925 12.0916C7.67956 12.0433 7.87733 12.0241 8.09258 12.0341C8.31443 12.0326 8.51317 12.0711 8.68882 12.1497C8.87107 12.2168 8.98514 12.336 9.03104 12.5073C9.07452 12.6696 9.05127 12.8352 8.96129 13.0043C8.8689 13.1643 8.64457 13.3549 8.28832 13.5759C8.21443 13.6247 8.03927 13.7103 7.76286 13.8327C7.49547 13.9527 7.1776 14.1006 6.80927 14.2766C6.44754 14.4412 6.0792 14.6172 5.70427 14.8046C5.33835 14.9896 5.01872 15.1671 4.74537 15.3369C4.81271 15.8407 4.88455 16.3432 4.96091 16.8445C5.03726 17.3458 5.10572 17.7816 5.16628 18.1519C5.22443 18.5132 5.25657 18.7413 5.26269 18.8363C5.29798 19.1843 5.23731 19.4808 5.08069 19.7257C4.92406 19.9706 4.71052 20.1292 4.44006 20.2017ZM13.0354 18.4204C12.81 18.4808 12.5944 18.4516 12.3886 18.3328C12.1919 18.2116 12.0525 17.9977 11.9703 17.6912C11.9341 17.556 11.8929 17.3303 11.8469 17.0141C11.8074 16.6865 11.7649 16.3114 11.7193 15.8888C11.6827 15.4637 11.6368 15.0219 11.5815 14.5632C11.5353 14.1022 11.4815 13.6673 11.4203 13.2585C11.3681 12.8473 11.3136 12.4996 11.2568 12.2153C11.183 11.8679 11.2079 11.6003 11.3315 11.4126C11.4528 11.2158 11.6261 11.0873 11.8514 11.0269C12.0317 10.9786 12.2061 10.9802 12.3745 11.0317C12.5495 11.0717 12.6913 11.2222 12.7998 11.483C12.9149 11.7323 13.0209 12.1098 13.1177 12.6153C13.3211 11.7878 13.5496 11.0357 13.8031 10.359C14.0656 9.67992 14.3775 9.1132 14.7389 8.65886C15.335 7.89039 15.9351 7.42524 16.5391 7.26339C16.8817 7.1716 17.1276 7.18783 17.2768 7.31211C17.4261 7.43638 17.5225 7.57965 17.5659 7.74193C17.5949 7.85011 17.5945 7.95653 17.5645 8.06118C17.5436 8.16341 17.4698 8.28464 17.3431 8.42487C17.2164 8.56511 17.0171 8.75864 16.745 9.00546C16.3793 9.33536 16.0361 9.73167 15.7156 10.1944C15.4042 10.6547 15.1193 11.2142 14.8609 11.8728C14.6026 12.5314 14.3736 13.3175 14.1738 14.231C13.9741 15.1445 13.802 16.2148 13.6573 17.4421C13.6583 17.7703 13.5955 18.0046 13.4688 18.1448C13.3511 18.2826 13.2066 18.3745 13.0354 18.4204ZM23.9345 8.29654C24.0456 8.71124 24.0182 9.16789 23.8522 9.6665C23.6863 10.1651 23.3454 10.6961 22.8297 11.2594C22.3229 11.8204 21.6118 12.4119 20.6963 13.0341C20.8784 13.4974 21.1415 13.7941 21.4855 13.9241C21.8362 14.0427 22.3361 14.0151 22.9852 13.8412C23.5712 13.6841 24.1054 13.4782 24.5879 13.2233C25.0769 12.957 25.5191 12.6597 25.9143 12.3316C25.7059 12.0589 25.5231 11.7552 25.3658 11.4205C25.206 11.0768 25.0718 10.7021 24.9631 10.2964C24.7433 9.47605 24.6904 8.75586 24.8045 8.13587C24.9186 7.51589 25.1378 7.01752 25.462 6.64077C25.7838 6.25501 26.152 6.00657 26.5667 5.89545C26.9453 5.79399 27.3118 5.77311 27.6659 5.83281C28.0291 5.89009 28.3453 6.04212 28.6143 6.2889C28.8899 6.52424 29.0894 6.8718 29.2126 7.33158C29.4082 8.06182 29.3782 8.83322 29.1224 9.64576C28.8757 10.4559 28.4756 11.2346 27.9222 11.982C28.2513 12.1644 28.5961 12.2073 28.9567 12.1106C29.2813 12.0237 29.619 11.8414 29.9697 11.5638C30.3205 11.2862 30.6613 10.9534 30.9921 10.5652C31.3295 10.1656 31.6486 9.75156 31.9493 9.32314C32.2475 8.8857 32.5044 8.47386 32.7197 8.08762C32.7917 7.9234 32.8724 7.80998 32.9619 7.74735C33.058 7.67328 33.1512 7.62417 33.2413 7.60001C33.3946 7.55895 33.5341 7.57471 33.6598 7.64731C33.7831 7.71089 33.8677 7.82833 33.9136 7.99962C33.9354 8.08076 33.9394 8.18596 33.9257 8.31524C33.9121 8.44452 33.8648 8.59247 33.7838 8.75911C33.5468 9.2091 33.254 9.70304 32.9054 10.2409C32.5633 10.7674 32.1882 11.2786 31.7799 11.7745C31.3717 12.2704 30.9499 12.6974 30.5144 13.0557C30.079 13.4139 29.6494 13.6498 29.2257 13.7633C28.3963 13.9856 27.5919 13.8146 26.8127 13.2504C26.289 13.7482 25.7145 14.1824 25.0891 14.5529C24.4751 14.93 23.8435 15.2055 23.1944 15.3794C22.0495 15.6862 21.1365 15.6506 20.4555 15.2727C19.7744 14.8947 19.3131 14.255 19.0716 13.3534C18.8469 12.515 18.7486 11.7152 18.7765 10.9541C18.8021 10.1839 18.9218 9.49474 19.1357 8.88666C19.3472 8.26956 19.6171 7.76241 19.9455 7.36522C20.2829 6.96561 20.6454 6.71387 21.0331 6.61C21.7994 6.40467 22.431 6.47215 22.9281 6.81244C23.4251 7.15274 23.7605 7.64743 23.9345 8.29654ZM20.4259 11.7006C20.8253 11.352 21.1859 10.9848 21.5077 10.5991C21.8385 10.2109 22.087 9.83996 22.2531 9.48625C22.4282 9.13012 22.482 8.82584 22.4143 8.57341C22.3515 8.33901 22.2536 8.17199 22.1206 8.07235C21.9876 7.97271 21.7769 7.96154 21.4884 8.03884C21.3081 8.08715 21.1441 8.23254 20.9965 8.475C20.8555 8.70604 20.7359 8.99897 20.6378 9.35381C20.5486 9.70622 20.4814 10.0866 20.4362 10.4949C20.4 10.9007 20.3966 11.3026 20.4259 11.7006ZM27.0436 11.0289C27.3989 10.4796 27.6326 9.90967 27.745 9.31915C27.8639 8.71719 27.8473 8.13223 27.6951 7.56427C27.6782 7.50116 27.6113 7.4321 27.4946 7.35709C27.3845 7.27065 27.2483 7.24916 27.086 7.29265C26.8426 7.35787 26.6606 7.50809 26.5401 7.74331C26.4195 7.97853 26.3552 8.26147 26.3472 8.59215C26.3458 8.9114 26.3922 9.24682 26.4864 9.59842C26.6385 10.1664 26.8243 10.6432 27.0436 11.0289Z" fill="#A65BF2"/>
</svg>
