<svg width="3828" height="3828" viewBox="0 0 3828 3828" fill="none" xmlns="http://www.w3.org/2000/svg">
<path fill-rule="evenodd" clip-rule="evenodd" d="M3503.15 3503.15C3935.16 3071.14 3935.16 2370.72 3503.15 1938.72L1888.44 324.005C1456.43 -108.001 756.011 -108.002 324.004 324.004C-108.002 756.01 -108.001 1456.43 324.005 1888.44L1938.72 3503.15C2370.72 3935.16 3071.14 3935.16 3503.15 3503.15ZM3099.29 2342.58C3308.25 2551.54 3308.25 2890.33 3099.29 3099.29C2890.33 3308.25 2551.54 3308.25 2342.57 3099.29L727.863 1484.58C518.901 1275.62 518.901 936.824 727.863 727.863C936.824 518.901 1275.62 518.902 1484.58 727.863L3099.29 2342.58Z" fill="url(#paint0_linear_233_2552)"/>
<path fill-rule="evenodd" clip-rule="evenodd" d="M3503.16 324.005C3071.15 -108.001 2370.73 -108.001 1938.73 324.005L324.015 1938.72C-107.991 2370.72 -107.992 3071.14 324.014 3503.15C756.02 3935.16 1456.44 3935.16 1888.45 3503.15L3503.16 1888.44C3935.17 1456.43 3935.17 756.011 3503.16 324.005ZM2342.59 727.863C2551.55 518.902 2890.34 518.901 3099.3 727.863C3308.26 936.824 3308.26 1275.62 3099.3 1484.58L1484.59 3099.29C1275.63 3308.25 936.834 3308.25 727.872 3099.29C518.911 2890.33 518.911 2551.54 727.873 2342.58L2342.59 727.863Z" fill="url(#paint1_linear_233_2552)"/>
<circle cx="3074.16" cy="1913.64" r="356.805" transform="rotate(-135 3074.16 1913.64)" fill="white"/>
<circle cx="1913.58" cy="3074.18" r="356.805" transform="rotate(-135 1913.58 3074.18)" fill="white"/>
<circle cx="1913.58" cy="753.025" r="356.805" transform="rotate(-135 1913.58 753.025)" fill="white"/>
<circle cx="753.006" cy="1913.64" r="356.805" transform="rotate(-135 753.006 1913.64)" fill="white"/>
<defs>
<linearGradient id="paint0_linear_233_2552" x1="3881.51" y1="2720.94" x2="-54.351" y2="1106.23" gradientUnits="userSpaceOnUse">
<stop stop-color="#7638FA"/>
<stop offset="1" stop-color="#4CC3F9"/>
</linearGradient>
<linearGradient id="paint1_linear_233_2552" x1="2720.94" y1="-54.342" x2="1106.23" y2="3881.52" gradientUnits="userSpaceOnUse">
<stop stop-color="#FFC109"/>
<stop offset="1" stop-color="#FF0BE6"/>
</linearGradient>
</defs>
</svg>
