<svg width="420" height="420" viewBox="0 0 420 420" fill="none" xmlns="http://www.w3.org/2000/svg">
<rect opacity="0.6" x="61.001" y="60.5173" width="297.931" height="297.931" stroke="white" stroke-opacity="0.5" stroke-width="0.5" stroke-dasharray="2.48 2.48"/>
<path opacity="0.6" d="M44.4824 209.517C44.4824 118.105 118.587 44 210 44C301.412 44 375.517 118.105 375.517 209.517C375.517 300.93 301.412 375.034 210 375.034C118.587 375.034 44.4824 300.93 44.4824 209.517Z" stroke="white" stroke-opacity="0.5" stroke-width="0.5" stroke-dasharray="2.48 2.48"/>
<path opacity="0.6" d="M375.517 44.4824L44.4824 375.517" stroke="white" stroke-opacity="0.5" stroke-width="0.5" stroke-dasharray="2.48 2.48"/>
<path opacity="0.6" d="M44.4821 44.4824L375.517 375.517" stroke="white" stroke-opacity="0.5" stroke-width="0.5" stroke-dasharray="2.48 2.48"/>
<path opacity="0.6" d="M210 44.4824V375.517" stroke="white" stroke-opacity="0.5" stroke-width="0.5" stroke-dasharray="2.48 2.48"/>
<path opacity="0.6" d="M127.241 44.4824V375.517" stroke="white" stroke-opacity="0.5" stroke-width="0.5" stroke-dasharray="2.48 2.48"/>
<path opacity="0.6" d="M92.2402 44.4824V375.517" stroke="white" stroke-opacity="0.5" stroke-width="0.5" stroke-dasharray="2.48 2.48"/>
<path opacity="0.6" d="M292.758 44.4824V375.517" stroke="white" stroke-opacity="0.5" stroke-width="0.5" stroke-dasharray="2.48 2.48"/>
<path opacity="0.6" d="M327.758 44.4824V375.517" stroke="white" stroke-opacity="0.5" stroke-width="0.5" stroke-dasharray="2.48 2.48"/>
<path opacity="0.6" d="M375.517 210L44.4821 210" stroke="white" stroke-opacity="0.5" stroke-width="0.5" stroke-dasharray="2.48 2.48"/>
<path opacity="0.6" d="M375.517 127.241L44.4821 127.241" stroke="white" stroke-opacity="0.5" stroke-width="0.5" stroke-dasharray="2.48 2.48"/>
<path opacity="0.6" d="M375.518 92.2411L44.4831 92.2411" stroke="white" stroke-opacity="0.5" stroke-width="0.5" stroke-dasharray="2.48 2.48"/>
<path opacity="0.6" d="M375.517 292.758L44.4821 292.758" stroke="white" stroke-opacity="0.5" stroke-width="0.5" stroke-dasharray="2.48 2.48"/>
<path opacity="0.6" d="M375.518 326.758L44.4831 326.758" stroke="white" stroke-opacity="0.5" stroke-width="0.5" stroke-dasharray="2.48 2.48"/>
<path opacity="0.6" d="M44.4824 0V420" stroke="white" stroke-width="0.5" stroke-dasharray="2.48 2.48"/>
<path opacity="0.6" d="M420 44.4824L-3.33786e-06 44.4824" stroke="white" stroke-width="0.5" stroke-dasharray="2.48 2.48"/>
<path opacity="0.6" d="M375.518 0V420" stroke="white" stroke-width="0.5" stroke-dasharray="2.48 2.48"/>
<path opacity="0.6" d="M420 375.517L-3.33786e-06 375.517" stroke="white" stroke-width="0.5" stroke-dasharray="2.48 2.48"/>
</svg>
