<svg width="600" height="616" viewBox="0 0 600 616" fill="none" xmlns="http://www.w3.org/2000/svg">
<rect y="0.100098" width="600" height="615" fill="url(#paint0_linear_9422_5792)"/>
<rect x="140" y="152.1" width="340" height="330" rx="8" fill="#141718"/>
<rect x="170" y="402.1" width="280" height="50" rx="8" fill="#377FDC"/>
<path d="M278.949 430.756C277.35 430.756 276.193 430.184 275.413 429.378L276.271 428.195C276.856 428.832 277.805 429.404 279.014 429.404C280.262 429.404 280.743 428.793 280.743 428.208C280.743 426.388 275.699 427.519 275.699 424.334C275.699 422.891 276.947 421.786 278.858 421.786C280.197 421.786 281.302 422.228 282.095 423.008L281.237 424.139C280.548 423.45 279.625 423.138 278.715 423.138C277.831 423.138 277.259 423.58 277.259 424.217C277.259 425.842 282.303 424.841 282.303 428.065C282.303 429.508 281.276 430.756 278.949 430.756ZM284.341 423.554C283.873 423.554 283.496 423.177 283.496 422.709C283.496 422.241 283.873 421.864 284.341 421.864C284.809 421.864 285.186 422.241 285.186 422.709C285.186 423.177 284.809 423.554 284.341 423.554ZM285.017 430.6H283.652V424.321H285.017V430.6ZM289.349 433.148C288.283 433.148 287.49 432.914 286.71 432.212L287.347 431.224C287.867 431.809 288.517 432.03 289.349 432.03C290.246 432.03 291.208 431.614 291.208 430.275V429.56C290.727 430.197 290.012 430.613 289.193 430.613C287.594 430.613 286.411 429.456 286.411 427.389C286.411 425.348 287.568 424.165 289.193 424.165C289.986 424.165 290.701 424.516 291.208 425.192V424.321H292.573V430.275C292.573 432.537 290.883 433.148 289.349 433.148ZM289.596 429.391C290.233 429.391 290.896 429.014 291.208 428.559V426.206C290.896 425.751 290.233 425.374 289.596 425.374C288.504 425.374 287.815 426.18 287.815 427.389C287.815 428.598 288.504 429.391 289.596 429.391ZM299.958 430.6H298.593V426.674C298.593 425.686 298.086 425.374 297.319 425.374C296.63 425.374 296.032 425.79 295.707 426.206V430.6H294.342V424.321H295.707V425.166C296.123 424.672 296.942 424.165 297.93 424.165C299.282 424.165 299.958 424.893 299.958 426.18V430.6ZM306.642 430.6H305.121V421.929H306.642V430.6ZM314.062 430.6H312.697V426.674C312.697 425.686 312.19 425.374 311.423 425.374C310.734 425.374 310.136 425.79 309.811 426.206V430.6H308.446V424.321H309.811V425.166C310.227 424.672 311.046 424.165 312.034 424.165C313.386 424.165 314.062 424.893 314.062 426.18V430.6Z" fill="white"/>
<path d="M342 427.1H328" stroke="#EEF1F6" stroke-width="1.5" stroke-linecap="round" stroke-linejoin="round"/>
<path d="M337 432.1C337 427.1 342 427.1 342 427.1C342 427.1 337 427.1 337 422.1" stroke="#EEF1F6" stroke-width="1.5" stroke-linecap="round" stroke-linejoin="round"/>
<rect x="170" y="242.1" width="280" height="50" rx="8" fill="url(#paint1_linear_9422_5792)" fill-opacity="0.1"/>
<g opacity="0.65">
<path d="M187.083 262.267C187.083 261.715 187.531 261.267 188.083 261.267H201.917C202.469 261.267 202.917 261.715 202.917 262.267V271.934C202.917 272.486 202.469 272.934 201.917 272.934H188.083C187.531 272.934 187.083 272.486 187.083 271.934V262.267Z" stroke="#2F3037" stroke-width="1.5" stroke-linecap="round" stroke-linejoin="round"/>
<path d="M202.917 264.002L195 267.1L187.083 264.002" stroke="#2F3037" stroke-width="1.5" stroke-linecap="round" stroke-linejoin="round"/>
</g>
<path opacity="0.35" d="M219.511 271.1H217.99V263.768H215.364V262.429H222.137V263.768H219.511V271.1ZM222.606 273.557L222.801 272.335C222.944 272.4 223.165 272.439 223.321 272.439C223.763 272.439 224.049 272.309 224.231 271.893L224.543 271.178L221.956 264.821H223.425L225.258 269.527L227.091 264.821H228.547L225.518 272.231C225.089 273.297 224.348 273.635 223.373 273.648C223.178 273.648 222.788 273.609 222.606 273.557ZM232.785 271.256C231.992 271.256 231.29 270.892 230.77 270.229V273.492H229.405V264.821H230.77V265.679C231.238 265.055 231.966 264.665 232.785 264.665C234.41 264.665 235.567 265.887 235.567 267.954C235.567 270.021 234.41 271.256 232.785 271.256ZM232.382 270.047C233.461 270.047 234.163 269.176 234.163 267.954C234.163 266.732 233.461 265.874 232.382 265.874C231.745 265.874 231.082 266.238 230.77 266.706V269.189C231.069 269.657 231.745 270.047 232.382 270.047ZM239.845 271.256C237.947 271.256 236.556 269.943 236.556 267.954C236.556 266.134 237.882 264.665 239.741 264.665C241.626 264.665 242.822 266.095 242.822 268.071V268.409H237.986C238.09 269.345 238.792 270.138 239.975 270.138C240.599 270.138 241.314 269.891 241.769 269.436L242.393 270.333C241.756 270.931 240.833 271.256 239.845 271.256ZM241.509 267.434C241.47 266.693 240.963 265.783 239.728 265.783C238.571 265.783 238.025 266.68 237.973 267.434H241.509ZM250.433 271.256C248.535 271.256 247.144 269.943 247.144 267.954C247.144 266.134 248.47 264.665 250.329 264.665C252.214 264.665 253.41 266.095 253.41 268.071V268.409H248.574C248.678 269.345 249.38 270.138 250.563 270.138C251.187 270.138 251.902 269.891 252.357 269.436L252.981 270.333C252.344 270.931 251.421 271.256 250.433 271.256ZM252.097 267.434C252.058 266.693 251.551 265.783 250.316 265.783C249.159 265.783 248.613 266.68 248.561 267.434H252.097ZM263.831 271.1H262.466V267.005C262.466 266.329 262.167 265.874 261.426 265.874C260.815 265.874 260.243 266.29 259.97 266.706V271.1H258.605V267.005C258.605 266.329 258.319 265.874 257.578 265.874C256.967 265.874 256.408 266.303 256.122 266.706V271.1H254.757V264.821H256.122V265.666C256.395 265.289 257.214 264.665 258.176 264.665C259.112 264.665 259.684 265.133 259.892 265.809C260.243 265.25 261.075 264.665 262.024 264.665C263.168 264.665 263.831 265.289 263.831 266.563V271.1ZM270.812 271.1H269.447V270.411C268.979 270.957 268.238 271.256 267.406 271.256C266.392 271.256 265.235 270.554 265.235 269.176C265.235 267.72 266.379 267.122 267.406 267.122C268.264 267.122 268.979 267.395 269.447 267.928V266.992C269.447 266.264 268.836 265.822 267.978 265.822C267.276 265.822 266.652 266.082 266.119 266.628L265.547 265.679C266.275 264.977 267.185 264.665 268.186 264.665C269.59 264.665 270.812 265.25 270.812 266.927V271.1ZM267.952 270.32C268.537 270.32 269.122 270.099 269.447 269.67V268.708C269.122 268.279 268.537 268.058 267.952 268.058C267.185 268.058 266.6 268.513 266.6 269.189C266.6 269.878 267.185 270.32 267.952 270.32ZM273.27 264.054C272.802 264.054 272.425 263.677 272.425 263.209C272.425 262.741 272.802 262.364 273.27 262.364C273.738 262.364 274.115 262.741 274.115 263.209C274.115 263.677 273.738 264.054 273.27 264.054ZM273.946 271.1H272.581V264.821H273.946V271.1ZM277.082 271.1H275.717V262.429H277.082V271.1Z" fill="#2F3037"/>
<rect x="170" y="312.1" width="280" height="50" rx="8" fill="url(#paint2_linear_9422_5792)" fill-opacity="0.1"/>
<g opacity="0.65">
<path d="M203.5 334.1H190.5C189.948 334.1 189.5 334.548 189.5 335.1V345.329C189.5 345.329 192.5 346.6 196.75 346.6C201 346.6 204.5 345.329 204.5 345.329V335.1C204.5 334.548 204.052 334.1 203.5 334.1Z" stroke="#2F3037" stroke-width="1.5" stroke-linecap="round" stroke-linejoin="round"/>
<path d="M198.5 340.1C198.5 340.929 197.828 341.6 197 341.6C196.172 341.6 195.5 340.929 195.5 340.1C195.5 339.272 196.172 338.6 197 338.6C197.828 338.6 198.5 339.272 198.5 340.1Z" stroke="#2F3037" stroke-width="1.5" stroke-linecap="round" stroke-linejoin="round"/>
<path d="M202 334.1V328.6C202 328.048 201.552 327.6 201 327.6H193C192.448 327.6 192 328.048 192 328.6V334.1" stroke="#2F3037" stroke-width="1.5" stroke-linecap="round" stroke-linejoin="round"/>
</g>
<path opacity="0.35" d="M222.9 341.256C221.301 341.256 220.144 340.684 219.364 339.878L220.222 338.695C220.807 339.332 221.756 339.904 222.965 339.904C224.213 339.904 224.694 339.293 224.694 338.708C224.694 336.888 219.65 338.019 219.65 334.834C219.65 333.391 220.898 332.286 222.809 332.286C224.148 332.286 225.253 332.728 226.046 333.508L225.188 334.639C224.499 333.95 223.576 333.638 222.666 333.638C221.782 333.638 221.21 334.08 221.21 334.717C221.21 336.342 226.254 335.341 226.254 338.565C226.254 340.008 225.227 341.256 222.9 341.256ZM233.219 341.1H231.854V337.148C231.854 336.16 231.36 335.874 230.593 335.874C229.891 335.874 229.293 336.29 228.981 336.706V341.1H227.616V332.429H228.981V335.666C229.397 335.172 230.203 334.665 231.191 334.665C232.543 334.665 233.219 335.367 233.219 336.654V341.1ZM240.607 341.1H239.242V337.148C239.242 336.16 238.748 335.874 237.981 335.874C237.279 335.874 236.681 336.29 236.369 336.706V341.1H235.004V332.429H236.369V335.666C236.785 335.172 237.591 334.665 238.579 334.665C239.931 334.665 240.607 335.367 240.607 336.654V341.1ZM247.996 341.1H246.631V337.148C246.631 336.16 246.137 335.874 245.37 335.874C244.668 335.874 244.07 336.29 243.758 336.706V341.1H242.393V332.429H243.758V335.666C244.174 335.172 244.98 334.665 245.968 334.665C247.32 334.665 247.996 335.367 247.996 336.654V341.1ZM251.459 340.606C251.459 341.503 250.965 342.322 250.25 342.829L249.626 342.322C250.042 342.075 250.484 341.542 250.562 341.1C250.536 341.113 250.432 341.139 250.341 341.139C249.912 341.139 249.574 340.788 249.574 340.307C249.574 339.826 249.964 339.423 250.458 339.423C250.991 339.423 251.459 339.852 251.459 340.606ZM257.867 341.1H256.346V332.429H260.168C261.988 332.429 262.989 333.664 262.989 335.146C262.989 336.615 261.975 337.85 260.168 337.85H257.867V341.1ZM259.96 336.511C260.818 336.511 261.429 335.965 261.429 335.146C261.429 334.314 260.818 333.768 259.96 333.768H257.867V336.511H259.96ZM269.188 341.1H267.823V340.411C267.355 340.957 266.614 341.256 265.782 341.256C264.768 341.256 263.611 340.554 263.611 339.176C263.611 337.72 264.755 337.122 265.782 337.122C266.64 337.122 267.355 337.395 267.823 337.928V336.992C267.823 336.264 267.212 335.822 266.354 335.822C265.652 335.822 265.028 336.082 264.495 336.628L263.923 335.679C264.651 334.977 265.561 334.665 266.562 334.665C267.966 334.665 269.188 335.25 269.188 336.927V341.1ZM266.328 340.32C266.913 340.32 267.498 340.099 267.823 339.67V338.708C267.498 338.279 266.913 338.058 266.328 338.058C265.561 338.058 264.976 338.513 264.976 339.189C264.976 339.878 265.561 340.32 266.328 340.32ZM273.115 341.256C272.036 341.256 271.074 340.905 270.424 340.268L271.048 339.293C271.49 339.748 272.361 340.164 273.167 340.164C273.986 340.164 274.415 339.826 274.415 339.332C274.415 338.097 270.619 338.981 270.619 336.563C270.619 335.536 271.503 334.665 273.089 334.665C274.155 334.665 274.961 335.042 275.52 335.536L274.948 336.498C274.571 336.082 273.882 335.744 273.089 335.744C272.374 335.744 271.932 336.082 271.932 336.524C271.932 337.629 275.728 336.797 275.728 339.293C275.728 340.411 274.805 341.256 273.115 341.256ZM279.247 341.256C278.168 341.256 277.206 340.905 276.556 340.268L277.18 339.293C277.622 339.748 278.493 340.164 279.299 340.164C280.118 340.164 280.547 339.826 280.547 339.332C280.547 338.097 276.751 338.981 276.751 336.563C276.751 335.536 277.635 334.665 279.221 334.665C280.287 334.665 281.093 335.042 281.652 335.536L281.08 336.498C280.703 336.082 280.014 335.744 279.221 335.744C278.506 335.744 278.064 336.082 278.064 336.524C278.064 337.629 281.86 336.797 281.86 339.293C281.86 340.411 280.937 341.256 279.247 341.256ZM290.137 341.1H288.707L287.238 336.498L285.782 341.1H284.352L282.402 334.821H283.819L285.145 339.384L286.64 334.821H287.849L289.331 339.384L290.657 334.821H292.087L290.137 341.1ZM295.881 341.256C293.879 341.256 292.657 339.748 292.657 337.954C292.657 336.147 293.879 334.665 295.881 334.665C297.883 334.665 299.105 336.147 299.105 337.954C299.105 339.748 297.883 341.256 295.881 341.256ZM295.881 340.047C297.051 340.047 297.688 339.072 297.688 337.954C297.688 336.849 297.051 335.874 295.881 335.874C294.724 335.874 294.074 336.849 294.074 337.954C294.074 339.072 294.724 340.047 295.881 340.047ZM301.864 341.1H300.499V334.821H301.864V335.731C302.345 335.133 303.099 334.665 303.905 334.665V336.017C303.788 335.991 303.658 335.978 303.489 335.978C302.904 335.978 302.137 336.368 301.864 336.823V341.1ZM310.791 341.1H309.426V340.242C308.945 340.866 308.23 341.256 307.411 341.256C305.812 341.256 304.629 340.034 304.629 337.954C304.629 335.926 305.799 334.665 307.411 334.665C308.204 334.665 308.932 335.016 309.426 335.692V332.429H310.791V341.1ZM307.814 340.047C308.451 340.047 309.127 339.67 309.426 339.202V336.719C309.127 336.251 308.451 335.874 307.814 335.874C306.722 335.874 306.033 336.745 306.033 337.954C306.033 339.176 306.722 340.047 307.814 340.047Z" fill="#2F3037"/>
<g opacity="0.65">
<path d="M432.5 336.6C432.5 336.6 427.971 341.6 423 341.6C418.029 341.6 413.5 336.6 413.5 336.6C413.5 336.6 418.029 331.6 423 331.6C427.971 331.6 432.5 336.6 432.5 336.6Z" stroke="#2F3037" stroke-width="1.5" stroke-linecap="round" stroke-linejoin="round"/>
<path d="M425 336.6C425 337.705 424.105 338.6 423 338.6C421.895 338.6 421 337.705 421 336.6C421 335.496 421.895 334.6 423 334.6C424.105 334.6 425 335.496 425 336.6Z" stroke="#2F3037" stroke-width="1.5" stroke-linecap="round" stroke-linejoin="round"/>
</g>
<g opacity="0.65">
<path d="M432.083 184.183L447.917 200.017" stroke="#2F3037" stroke-width="1.5" stroke-linecap="square"/>
<path d="M447.917 184.183L432.083 200.017" stroke="#2F3037" stroke-width="1.5" stroke-linecap="square"/>
</g>
<path d="M173.12 196.1H170.99V186.095H178.07V187.97H173.12V190.07H177.965V191.945H173.12V196.1ZM183.024 196.28C180.639 196.28 179.199 194.525 179.199 192.47C179.199 190.415 180.639 188.675 183.024 188.675C185.424 188.675 186.864 190.415 186.864 192.47C186.864 194.525 185.424 196.28 183.024 196.28ZM183.024 194.585C184.224 194.585 184.884 193.61 184.884 192.47C184.884 191.345 184.224 190.37 183.024 190.37C181.839 190.37 181.179 191.345 181.179 192.47C181.179 193.61 181.839 194.585 183.024 194.585ZM190.347 196.1H188.442V188.855H190.347V189.83C190.872 189.2 191.757 188.675 192.657 188.675V190.535C192.522 190.505 192.357 190.49 192.132 190.49C191.502 190.49 190.662 190.85 190.347 191.315V196.1ZM204.903 196.1H202.983V191.525C202.983 190.85 202.683 190.37 201.903 190.37C201.228 190.37 200.673 190.82 200.403 191.21V196.1H198.483V191.525C198.483 190.85 198.183 190.37 197.403 190.37C196.743 190.37 196.188 190.82 195.903 191.21V196.1H193.998V188.855H195.903V189.785C196.218 189.365 197.163 188.675 198.273 188.675C199.338 188.675 200.028 189.17 200.283 189.98C200.703 189.335 201.663 188.675 202.773 188.675C204.108 188.675 204.903 189.38 204.903 190.865V196.1Z" fill="black"/>
<rect x="120" y="132.1" width="340" height="330" rx="8" fill="white"/>
<rect x="150" y="382.1" width="280" height="50" rx="8" fill="#377FDC"/>
<path d="M258.949 410.756C257.35 410.756 256.193 410.184 255.413 409.378L256.271 408.195C256.856 408.832 257.805 409.404 259.014 409.404C260.262 409.404 260.743 408.793 260.743 408.208C260.743 406.388 255.699 407.519 255.699 404.334C255.699 402.891 256.947 401.786 258.858 401.786C260.197 401.786 261.302 402.228 262.095 403.008L261.237 404.139C260.548 403.45 259.625 403.138 258.715 403.138C257.831 403.138 257.259 403.58 257.259 404.217C257.259 405.842 262.303 404.841 262.303 408.065C262.303 409.508 261.276 410.756 258.949 410.756ZM264.341 403.554C263.873 403.554 263.496 403.177 263.496 402.709C263.496 402.241 263.873 401.864 264.341 401.864C264.809 401.864 265.186 402.241 265.186 402.709C265.186 403.177 264.809 403.554 264.341 403.554ZM265.017 410.6H263.652V404.321H265.017V410.6ZM269.349 413.148C268.283 413.148 267.49 412.914 266.71 412.212L267.347 411.224C267.867 411.809 268.517 412.03 269.349 412.03C270.246 412.03 271.208 411.614 271.208 410.275V409.56C270.727 410.197 270.012 410.613 269.193 410.613C267.594 410.613 266.411 409.456 266.411 407.389C266.411 405.348 267.568 404.165 269.193 404.165C269.986 404.165 270.701 404.516 271.208 405.192V404.321H272.573V410.275C272.573 412.537 270.883 413.148 269.349 413.148ZM269.596 409.391C270.233 409.391 270.896 409.014 271.208 408.559V406.206C270.896 405.751 270.233 405.374 269.596 405.374C268.504 405.374 267.815 406.18 267.815 407.389C267.815 408.598 268.504 409.391 269.596 409.391ZM279.958 410.6H278.593V406.674C278.593 405.686 278.086 405.374 277.319 405.374C276.63 405.374 276.032 405.79 275.707 406.206V410.6H274.342V404.321H275.707V405.166C276.123 404.672 276.942 404.165 277.93 404.165C279.282 404.165 279.958 404.893 279.958 406.18V410.6ZM286.642 410.6H285.121V401.929H286.642V410.6ZM294.062 410.6H292.697V406.674C292.697 405.686 292.19 405.374 291.423 405.374C290.734 405.374 290.136 405.79 289.811 406.206V410.6H288.446V404.321H289.811V405.166C290.227 404.672 291.046 404.165 292.034 404.165C293.386 404.165 294.062 404.893 294.062 406.18V410.6Z" fill="white"/>
<path d="M322 407.1H308" stroke="#EEF1F6" stroke-width="1.5" stroke-linecap="round" stroke-linejoin="round"/>
<path d="M317 412.1C317 407.1 322 407.1 322 407.1C322 407.1 317 407.1 317 402.1" stroke="#EEF1F6" stroke-width="1.5" stroke-linecap="round" stroke-linejoin="round"/>
<rect x="150" y="222.1" width="280" height="50" rx="8" fill="url(#paint3_linear_9422_5792)" fill-opacity="0.1"/>
<g opacity="0.65">
<path d="M167.083 242.267C167.083 241.715 167.531 241.267 168.083 241.267H181.917C182.469 241.267 182.917 241.715 182.917 242.267V251.934C182.917 252.486 182.469 252.934 181.917 252.934H168.083C167.531 252.934 167.083 252.486 167.083 251.934V242.267Z" stroke="#2F3037" stroke-width="1.5" stroke-linecap="round" stroke-linejoin="round"/>
<path d="M182.917 244.002L175 247.1L167.083 244.002" stroke="#2F3037" stroke-width="1.5" stroke-linecap="round" stroke-linejoin="round"/>
</g>
<path opacity="0.35" d="M199.511 251.1H197.99V243.768H195.364V242.429H202.137V243.768H199.511V251.1ZM202.606 253.557L202.801 252.335C202.944 252.4 203.165 252.439 203.321 252.439C203.763 252.439 204.049 252.309 204.231 251.893L204.543 251.178L201.956 244.821H203.425L205.258 249.527L207.091 244.821H208.547L205.518 252.231C205.089 253.297 204.348 253.635 203.373 253.648C203.178 253.648 202.788 253.609 202.606 253.557ZM212.785 251.256C211.992 251.256 211.29 250.892 210.77 250.229V253.492H209.405V244.821H210.77V245.679C211.238 245.055 211.966 244.665 212.785 244.665C214.41 244.665 215.567 245.887 215.567 247.954C215.567 250.021 214.41 251.256 212.785 251.256ZM212.382 250.047C213.461 250.047 214.163 249.176 214.163 247.954C214.163 246.732 213.461 245.874 212.382 245.874C211.745 245.874 211.082 246.238 210.77 246.706V249.189C211.069 249.657 211.745 250.047 212.382 250.047ZM219.845 251.256C217.947 251.256 216.556 249.943 216.556 247.954C216.556 246.134 217.882 244.665 219.741 244.665C221.626 244.665 222.822 246.095 222.822 248.071V248.409H217.986C218.09 249.345 218.792 250.138 219.975 250.138C220.599 250.138 221.314 249.891 221.769 249.436L222.393 250.333C221.756 250.931 220.833 251.256 219.845 251.256ZM221.509 247.434C221.47 246.693 220.963 245.783 219.728 245.783C218.571 245.783 218.025 246.68 217.973 247.434H221.509ZM230.433 251.256C228.535 251.256 227.144 249.943 227.144 247.954C227.144 246.134 228.47 244.665 230.329 244.665C232.214 244.665 233.41 246.095 233.41 248.071V248.409H228.574C228.678 249.345 229.38 250.138 230.563 250.138C231.187 250.138 231.902 249.891 232.357 249.436L232.981 250.333C232.344 250.931 231.421 251.256 230.433 251.256ZM232.097 247.434C232.058 246.693 231.551 245.783 230.316 245.783C229.159 245.783 228.613 246.68 228.561 247.434H232.097ZM243.831 251.1H242.466V247.005C242.466 246.329 242.167 245.874 241.426 245.874C240.815 245.874 240.243 246.29 239.97 246.706V251.1H238.605V247.005C238.605 246.329 238.319 245.874 237.578 245.874C236.967 245.874 236.408 246.303 236.122 246.706V251.1H234.757V244.821H236.122V245.666C236.395 245.289 237.214 244.665 238.176 244.665C239.112 244.665 239.684 245.133 239.892 245.809C240.243 245.25 241.075 244.665 242.024 244.665C243.168 244.665 243.831 245.289 243.831 246.563V251.1ZM250.812 251.1H249.447V250.411C248.979 250.957 248.238 251.256 247.406 251.256C246.392 251.256 245.235 250.554 245.235 249.176C245.235 247.72 246.379 247.122 247.406 247.122C248.264 247.122 248.979 247.395 249.447 247.928V246.992C249.447 246.264 248.836 245.822 247.978 245.822C247.276 245.822 246.652 246.082 246.119 246.628L245.547 245.679C246.275 244.977 247.185 244.665 248.186 244.665C249.59 244.665 250.812 245.25 250.812 246.927V251.1ZM247.952 250.32C248.537 250.32 249.122 250.099 249.447 249.67V248.708C249.122 248.279 248.537 248.058 247.952 248.058C247.185 248.058 246.6 248.513 246.6 249.189C246.6 249.878 247.185 250.32 247.952 250.32ZM253.27 244.054C252.802 244.054 252.425 243.677 252.425 243.209C252.425 242.741 252.802 242.364 253.27 242.364C253.738 242.364 254.115 242.741 254.115 243.209C254.115 243.677 253.738 244.054 253.27 244.054ZM253.946 251.1H252.581V244.821H253.946V251.1ZM257.082 251.1H255.717V242.429H257.082V251.1Z" fill="#2F3037"/>
<rect x="150" y="292.1" width="280" height="50" rx="8" fill="url(#paint4_linear_9422_5792)" fill-opacity="0.1"/>
<g opacity="0.65">
<path d="M183.5 314.1H170.5C169.948 314.1 169.5 314.548 169.5 315.1V325.329C169.5 325.329 172.5 326.6 176.75 326.6C181 326.6 184.5 325.329 184.5 325.329V315.1C184.5 314.548 184.052 314.1 183.5 314.1Z" stroke="#2F3037" stroke-width="1.5" stroke-linecap="round" stroke-linejoin="round"/>
<path d="M178.5 320.1C178.5 320.929 177.828 321.6 177 321.6C176.172 321.6 175.5 320.929 175.5 320.1C175.5 319.272 176.172 318.6 177 318.6C177.828 318.6 178.5 319.272 178.5 320.1Z" stroke="#2F3037" stroke-width="1.5" stroke-linecap="round" stroke-linejoin="round"/>
<path d="M182 314.1V308.6C182 308.048 181.552 307.6 181 307.6H173C172.448 307.6 172 308.048 172 308.6V314.1" stroke="#2F3037" stroke-width="1.5" stroke-linecap="round" stroke-linejoin="round"/>
</g>
<path opacity="0.35" d="M202.9 321.256C201.301 321.256 200.144 320.684 199.364 319.878L200.222 318.695C200.807 319.332 201.756 319.904 202.965 319.904C204.213 319.904 204.694 319.293 204.694 318.708C204.694 316.888 199.65 318.019 199.65 314.834C199.65 313.391 200.898 312.286 202.809 312.286C204.148 312.286 205.253 312.728 206.046 313.508L205.188 314.639C204.499 313.95 203.576 313.638 202.666 313.638C201.782 313.638 201.21 314.08 201.21 314.717C201.21 316.342 206.254 315.341 206.254 318.565C206.254 320.008 205.227 321.256 202.9 321.256ZM213.219 321.1H211.854V317.148C211.854 316.16 211.36 315.874 210.593 315.874C209.891 315.874 209.293 316.29 208.981 316.706V321.1H207.616V312.429H208.981V315.666C209.397 315.172 210.203 314.665 211.191 314.665C212.543 314.665 213.219 315.367 213.219 316.654V321.1ZM220.607 321.1H219.242V317.148C219.242 316.16 218.748 315.874 217.981 315.874C217.279 315.874 216.681 316.29 216.369 316.706V321.1H215.004V312.429H216.369V315.666C216.785 315.172 217.591 314.665 218.579 314.665C219.931 314.665 220.607 315.367 220.607 316.654V321.1ZM227.996 321.1H226.631V317.148C226.631 316.16 226.137 315.874 225.37 315.874C224.668 315.874 224.07 316.29 223.758 316.706V321.1H222.393V312.429H223.758V315.666C224.174 315.172 224.98 314.665 225.968 314.665C227.32 314.665 227.996 315.367 227.996 316.654V321.1ZM231.459 320.606C231.459 321.503 230.965 322.322 230.25 322.829L229.626 322.322C230.042 322.075 230.484 321.542 230.562 321.1C230.536 321.113 230.432 321.139 230.341 321.139C229.912 321.139 229.574 320.788 229.574 320.307C229.574 319.826 229.964 319.423 230.458 319.423C230.991 319.423 231.459 319.852 231.459 320.606ZM237.867 321.1H236.346V312.429H240.168C241.988 312.429 242.989 313.664 242.989 315.146C242.989 316.615 241.975 317.85 240.168 317.85H237.867V321.1ZM239.96 316.511C240.818 316.511 241.429 315.965 241.429 315.146C241.429 314.314 240.818 313.768 239.96 313.768H237.867V316.511H239.96ZM249.188 321.1H247.823V320.411C247.355 320.957 246.614 321.256 245.782 321.256C244.768 321.256 243.611 320.554 243.611 319.176C243.611 317.72 244.755 317.122 245.782 317.122C246.64 317.122 247.355 317.395 247.823 317.928V316.992C247.823 316.264 247.212 315.822 246.354 315.822C245.652 315.822 245.028 316.082 244.495 316.628L243.923 315.679C244.651 314.977 245.561 314.665 246.562 314.665C247.966 314.665 249.188 315.25 249.188 316.927V321.1ZM246.328 320.32C246.913 320.32 247.498 320.099 247.823 319.67V318.708C247.498 318.279 246.913 318.058 246.328 318.058C245.561 318.058 244.976 318.513 244.976 319.189C244.976 319.878 245.561 320.32 246.328 320.32ZM253.115 321.256C252.036 321.256 251.074 320.905 250.424 320.268L251.048 319.293C251.49 319.748 252.361 320.164 253.167 320.164C253.986 320.164 254.415 319.826 254.415 319.332C254.415 318.097 250.619 318.981 250.619 316.563C250.619 315.536 251.503 314.665 253.089 314.665C254.155 314.665 254.961 315.042 255.52 315.536L254.948 316.498C254.571 316.082 253.882 315.744 253.089 315.744C252.374 315.744 251.932 316.082 251.932 316.524C251.932 317.629 255.728 316.797 255.728 319.293C255.728 320.411 254.805 321.256 253.115 321.256ZM259.247 321.256C258.168 321.256 257.206 320.905 256.556 320.268L257.18 319.293C257.622 319.748 258.493 320.164 259.299 320.164C260.118 320.164 260.547 319.826 260.547 319.332C260.547 318.097 256.751 318.981 256.751 316.563C256.751 315.536 257.635 314.665 259.221 314.665C260.287 314.665 261.093 315.042 261.652 315.536L261.08 316.498C260.703 316.082 260.014 315.744 259.221 315.744C258.506 315.744 258.064 316.082 258.064 316.524C258.064 317.629 261.86 316.797 261.86 319.293C261.86 320.411 260.937 321.256 259.247 321.256ZM270.137 321.1H268.707L267.238 316.498L265.782 321.1H264.352L262.402 314.821H263.819L265.145 319.384L266.64 314.821H267.849L269.331 319.384L270.657 314.821H272.087L270.137 321.1ZM275.881 321.256C273.879 321.256 272.657 319.748 272.657 317.954C272.657 316.147 273.879 314.665 275.881 314.665C277.883 314.665 279.105 316.147 279.105 317.954C279.105 319.748 277.883 321.256 275.881 321.256ZM275.881 320.047C277.051 320.047 277.688 319.072 277.688 317.954C277.688 316.849 277.051 315.874 275.881 315.874C274.724 315.874 274.074 316.849 274.074 317.954C274.074 319.072 274.724 320.047 275.881 320.047ZM281.864 321.1H280.499V314.821H281.864V315.731C282.345 315.133 283.099 314.665 283.905 314.665V316.017C283.788 315.991 283.658 315.978 283.489 315.978C282.904 315.978 282.137 316.368 281.864 316.823V321.1ZM290.791 321.1H289.426V320.242C288.945 320.866 288.23 321.256 287.411 321.256C285.812 321.256 284.629 320.034 284.629 317.954C284.629 315.926 285.799 314.665 287.411 314.665C288.204 314.665 288.932 315.016 289.426 315.692V312.429H290.791V321.1ZM287.814 320.047C288.451 320.047 289.127 319.67 289.426 319.202V316.719C289.127 316.251 288.451 315.874 287.814 315.874C286.722 315.874 286.033 316.745 286.033 317.954C286.033 319.176 286.722 320.047 287.814 320.047Z" fill="#2F3037"/>
<g opacity="0.65">
<path d="M412.5 316.6C412.5 316.6 407.971 321.6 403 321.6C398.029 321.6 393.5 316.6 393.5 316.6C393.5 316.6 398.029 311.6 403 311.6C407.971 311.6 412.5 316.6 412.5 316.6Z" stroke="#2F3037" stroke-width="1.5" stroke-linecap="round" stroke-linejoin="round"/>
<path d="M405 316.6C405 317.705 404.105 318.6 403 318.6C401.895 318.6 401 317.705 401 316.6C401 315.496 401.895 314.6 403 314.6C404.105 314.6 405 315.496 405 316.6Z" stroke="#2F3037" stroke-width="1.5" stroke-linecap="round" stroke-linejoin="round"/>
</g>
<g opacity="0.65">
<path d="M412.083 164.183L427.917 180.017" stroke="#2F3037" stroke-width="1.5" stroke-linecap="square"/>
<path d="M427.917 164.183L412.083 180.017" stroke="#2F3037" stroke-width="1.5" stroke-linecap="square"/>
</g>
<path d="M153.12 176.1H150.99V166.095H158.07V167.97H153.12V170.07H157.965V171.945H153.12V176.1ZM163.024 176.28C160.639 176.28 159.199 174.525 159.199 172.47C159.199 170.415 160.639 168.675 163.024 168.675C165.424 168.675 166.864 170.415 166.864 172.47C166.864 174.525 165.424 176.28 163.024 176.28ZM163.024 174.585C164.224 174.585 164.884 173.61 164.884 172.47C164.884 171.345 164.224 170.37 163.024 170.37C161.839 170.37 161.179 171.345 161.179 172.47C161.179 173.61 161.839 174.585 163.024 174.585ZM170.347 176.1H168.442V168.855H170.347V169.83C170.872 169.2 171.757 168.675 172.657 168.675V170.535C172.522 170.505 172.357 170.49 172.132 170.49C171.502 170.49 170.662 170.85 170.347 171.315V176.1ZM184.903 176.1H182.983V171.525C182.983 170.85 182.683 170.37 181.903 170.37C181.228 170.37 180.673 170.82 180.403 171.21V176.1H178.483V171.525C178.483 170.85 178.183 170.37 177.403 170.37C176.743 170.37 176.188 170.82 175.903 171.21V176.1H173.998V168.855H175.903V169.785C176.218 169.365 177.163 168.675 178.273 168.675C179.338 168.675 180.028 169.17 180.283 169.98C180.703 169.335 181.663 168.675 182.773 168.675C184.108 168.675 184.903 169.38 184.903 170.865V176.1Z" fill="black"/>
<defs>
<linearGradient id="paint0_linear_9422_5792" x1="0" y1="0.100098" x2="600" y2="615.1" gradientUnits="userSpaceOnUse">
<stop stop-color="#36DC5E"/>
<stop offset="1" stop-color="#00D1FF"/>
</linearGradient>
<linearGradient id="paint1_linear_9422_5792" x1="450" y1="267.1" x2="170" y2="267.1" gradientUnits="userSpaceOnUse">
<stop stop-color="#2A3032"/>
<stop offset="1" stop-color="#2A3032" stop-opacity="0.96"/>
</linearGradient>
<linearGradient id="paint2_linear_9422_5792" x1="450" y1="337.1" x2="170" y2="337.1" gradientUnits="userSpaceOnUse">
<stop stop-color="#2A3032"/>
<stop offset="1" stop-color="#2A3032" stop-opacity="0.96"/>
</linearGradient>
<linearGradient id="paint3_linear_9422_5792" x1="430" y1="247.1" x2="150" y2="247.1" gradientUnits="userSpaceOnUse">
<stop stop-color="#2A3032"/>
<stop offset="1" stop-color="#2A3032" stop-opacity="0.96"/>
</linearGradient>
<linearGradient id="paint4_linear_9422_5792" x1="430" y1="317.1" x2="150" y2="317.1" gradientUnits="userSpaceOnUse">
<stop stop-color="#2A3032"/>
<stop offset="1" stop-color="#2A3032" stop-opacity="0.96"/>
</linearGradient>
</defs>
</svg>
