<svg width="600" height="616" viewBox="0 0 600 616" fill="none" xmlns="http://www.w3.org/2000/svg">
<rect y="0.100098" width="600" height="615" fill="url(#paint0_linear_9422_5827)"/>
<path d="M133.5 194.1H190.5V236.1H133.5V194.1Z" stroke="#EEF1F6" stroke-width="3"/>
<path d="M133.5 197.1L162.007 218.1L190.5 197.1" stroke="#EEF1F6" stroke-width="3"/>
<path d="M225.5 194.1H282.5V236.1H225.5V194.1Z" fill="#FF8761" stroke="#EEF1F6" stroke-width="3"/>
<path d="M225.5 197.1L254.007 218.1L282.5 197.1" stroke="#EEF1F6" stroke-width="3"/>
<path fill-rule="evenodd" clip-rule="evenodd" d="M316 192.6H376V194.1L373.61 195.893L373.6 195.9L346.007 216.237L318.4 195.9L318.395 195.896L316 194.1V192.6ZM316 197.85V237.6H376V197.85L375.4 198.3L375.39 198.308L375.39 198.308L346.897 219.308L346.008 219.963L345.118 219.308L316.61 198.308L316.6 198.3L316.6 198.3L316 197.85Z" fill="#EEF1F6"/>
<path d="M408 197.85V237.6H468V197.85L438.008 219.963L408 197.85Z" fill="#EEF1F6" fill-opacity="0.5"/>
<path d="M408 192.6H468V194.1L465.61 195.893L465.6 195.9L438.007 216.237L410.395 195.896L408 194.1V192.6Z" fill="#EEF1F6"/>
<path d="M133.5 289.1C133.5 287.443 134.843 286.1 136.5 286.1H187.5C189.157 286.1 190.5 287.443 190.5 289.1V325.1C190.5 326.757 189.157 328.1 187.5 328.1H136.5C134.843 328.1 133.5 326.757 133.5 325.1V289.1Z" stroke="#EEF1F6" stroke-width="3" stroke-linecap="round" stroke-linejoin="round"/>
<path d="M133.5 289.1L162.007 310.1L190.5 289.1" stroke="#EEF1F6" stroke-width="3" stroke-linecap="round" stroke-linejoin="round"/>
<path d="M225.5 289.1C225.5 287.443 226.843 286.1 228.5 286.1H279.5C281.157 286.1 282.5 287.443 282.5 289.1V325.1C282.5 326.757 281.157 328.1 279.5 328.1H228.5C226.843 328.1 225.5 326.757 225.5 325.1V289.1Z" fill="#FF8761" stroke="#EEF1F6" stroke-width="3" stroke-linecap="round" stroke-linejoin="round"/>
<path d="M225.5 289.1L254.007 310.1L282.5 289.1" stroke="#EEF1F6" stroke-width="3" stroke-linecap="round" stroke-linejoin="round"/>
<path fill-rule="evenodd" clip-rule="evenodd" d="M316.728 286.646C317.53 285.414 318.92 284.6 320.5 284.6H371.5C373.08 284.6 374.47 285.414 375.272 286.646L373.61 287.893L373.6 287.9L346.007 308.237L318.4 287.9L318.395 287.896L316.728 286.646ZM316 289.85V325.1C316 327.585 318.015 329.6 320.5 329.6H371.5C373.985 329.6 376 327.585 376 325.1V289.85L375.4 290.3L375.39 290.308L375.39 290.308L346.897 311.308C346.368 311.698 345.647 311.698 345.118 311.308L316.61 290.308L316.6 290.3L316.6 290.3L316 289.85Z" fill="#EEF1F6"/>
<path d="M408 289.85V325.1C408 327.585 410.015 329.6 412.5 329.6H463.5C465.985 329.6 468 327.585 468 325.1V289.85L467.39 290.308L438.897 311.308C438.368 311.698 437.647 311.698 437.118 311.308L408.6 290.3L408 289.85Z" fill="#EEF1F6" fill-opacity="0.5"/>
<path d="M408.727 286.646C409.529 285.414 410.919 284.6 412.499 284.6H463.499C465.079 284.6 466.468 285.414 467.271 286.646L465.609 287.893L465.599 287.9L438.006 308.237L410.394 287.896L408.727 286.646Z" fill="#EEF1F6"/>
<path d="M133.5 387.1C133.5 382.13 137.529 378.1 142.5 378.1H181.5C186.471 378.1 190.5 382.13 190.5 387.1V411.1C190.5 416.071 186.471 420.1 181.5 420.1H142.5C137.529 420.1 133.5 416.071 133.5 411.1V387.1Z" stroke="#EEF1F6" stroke-width="3" stroke-linecap="round" stroke-linejoin="round"/>
<path d="M142.5 387.1L157.288 396.198C160.181 397.978 163.829 397.977 166.722 396.197L181.5 387.1" stroke="#EEF1F6" stroke-width="3" stroke-linecap="round" stroke-linejoin="round"/>
<path d="M225.5 387.1C225.5 382.13 229.529 378.1 234.5 378.1H273.5C278.471 378.1 282.5 382.13 282.5 387.1V411.1C282.5 416.071 278.471 420.1 273.5 420.1H234.5C229.529 420.1 225.5 416.071 225.5 411.1V387.1Z" fill="#FF8761" stroke="#EEF1F6" stroke-width="3" stroke-linecap="round" stroke-linejoin="round"/>
<path d="M234.5 387.1L249.288 396.198C252.181 397.978 255.829 397.977 258.722 396.197L273.5 387.1" stroke="#EEF1F6" stroke-width="3" stroke-linecap="round" stroke-linejoin="round"/>
<path fill-rule="evenodd" clip-rule="evenodd" d="M316 387.1C316 381.301 320.701 376.6 326.5 376.6H365.5C371.299 376.6 376 381.301 376 387.1V411.1C376 416.899 371.299 421.6 365.5 421.6H326.5C320.701 421.6 316 416.899 316 411.1V387.1ZM327.286 385.823C326.581 385.388 325.657 385.609 325.223 386.314C324.789 387.02 325.009 387.944 325.714 388.378L340.502 397.476C343.877 399.552 348.134 399.551 351.508 397.474L366.287 388.378C366.992 387.943 367.212 387.019 366.778 386.314C366.343 385.608 365.419 385.388 364.714 385.823L349.935 394.919C347.525 396.403 344.485 396.404 342.074 394.92L327.286 385.823Z" fill="white"/>
<path d="M409.5 387.1C409.5 382.13 413.529 378.1 418.5 378.1H457.5C462.471 378.1 466.5 382.13 466.5 387.1V411.1C466.5 416.071 462.471 420.1 457.5 420.1H418.5C413.529 420.1 409.5 416.071 409.5 411.1V387.1Z" fill="#EEF1F6" fill-opacity="0.5"/>
<path d="M457.501 378.1H418.501C415.347 378.1 412.572 379.723 410.965 382.178L438.008 402.1L465.038 382.179C463.431 379.723 460.655 378.1 457.501 378.1Z" fill="#EEF1F6"/>
<defs>
<linearGradient id="paint0_linear_9422_5827" x1="0" y1="0.100098" x2="600" y2="615.1" gradientUnits="userSpaceOnUse">
<stop stop-color="#36DC5E"/>
<stop offset="1" stop-color="#00D1FF"/>
</linearGradient>
</defs>
</svg>
