<svg width="701" height="232" viewBox="0 0 701 232" fill="none" xmlns="http://www.w3.org/2000/svg">
<path d="M4 222.891C4 222.062 4 221.648 4.10406 221.311C4.33163 220.575 4.90803 219.998 5.64428 219.771C5.98095 219.667 6.39528 219.667 7.22395 219.667V219.667C7.34358 219.667 7.40339 219.667 7.4597 219.657C7.58181 219.636 7.69562 219.581 7.78836 219.499C7.83113 219.461 7.8685 219.414 7.94323 219.321L8.16707 219.041C8.39444 218.757 8.50812 218.615 8.63853 218.5C8.9149 218.256 9.25321 218.094 9.61614 218.03C9.78739 218 9.96937 218 10.3333 218V218C10.6973 218 10.8793 218 11.0505 218.03C11.4135 218.094 11.7518 218.256 12.0281 218.5C12.1585 218.615 12.2722 218.757 12.4996 219.041L12.7234 219.321C12.7982 219.414 12.8355 219.461 12.8783 219.499C12.971 219.581 13.0849 219.636 13.207 219.657C13.2633 219.667 13.3231 219.667 13.4427 219.667V219.667C14.2714 219.667 14.6857 219.667 15.0224 219.771C15.7586 219.998 16.335 220.575 16.5626 221.311C16.6667 221.648 16.6667 222.062 16.6667 222.891V223.833C16.6667 225.551 16.6667 226.41 16.2363 227.017C16.0845 227.231 15.8976 227.418 15.6836 227.57C15.077 228 14.218 228 12.5 228H8.16667C6.44865 228 5.58963 228 4.9831 227.57C4.76908 227.418 4.58221 227.231 4.43036 227.017C4 226.41 4 225.551 4 223.833V222.891Z" stroke="white" stroke-linecap="round" stroke-linejoin="round"/>
<rect x="8.3335" y="221.667" width="4" height="4" rx="1.66667" stroke="white" stroke-linejoin="round"/>
<path d="M62.6665 220.336C62.6665 219.093 62.6665 218.471 62.8226 217.966C63.164 216.862 64.0286 215.997 65.1329 215.656C65.6379 215.5 66.2594 215.5 67.5024 215.5V215.5C67.6819 215.5 67.7716 215.5 67.8561 215.485C68.0392 215.454 68.2099 215.372 68.349 215.248C68.4132 215.192 68.4693 215.122 68.5813 214.981L68.9171 214.562C69.2582 214.135 69.4287 213.922 69.6243 213.75C70.0388 213.384 70.5463 213.14 71.0907 213.045C71.3476 213 71.6206 213 72.1665 213V213C72.7124 213 72.9854 213 73.2423 213.045C73.7867 213.14 74.2942 213.384 74.7087 213.75C74.9043 213.922 75.0748 214.135 75.4159 214.562L75.7517 214.981C75.8638 215.122 75.9198 215.192 75.984 215.248C76.1231 215.372 76.2938 215.454 76.477 215.485C76.5614 215.5 76.6511 215.5 76.8306 215.5V215.5C78.0736 215.5 78.6951 215.5 79.2001 215.656C80.3045 215.997 81.1691 216.862 81.5104 217.966C81.6665 218.471 81.6665 219.093 81.6665 220.336V221.75C81.6665 224.327 81.6665 225.616 81.021 226.525C80.7932 226.846 80.5129 227.127 80.1919 227.354C79.2821 228 77.9935 228 75.4165 228H68.9165C66.3395 228 65.051 228 64.1412 227.354C63.8201 227.127 63.5398 226.846 63.312 226.525C62.6665 225.616 62.6665 224.327 62.6665 221.75V220.336Z" stroke="white" stroke-width="1.5" stroke-linecap="round" stroke-linejoin="round"/>
<rect x="69.1665" y="218.5" width="6" height="6" rx="2.5" stroke="white" stroke-width="1.5" stroke-linejoin="round"/>
<path d="M127.667 217.781C127.667 216.124 127.667 215.295 127.875 214.622C128.33 213.149 129.483 211.997 130.955 211.541C131.628 211.333 132.457 211.333 134.114 211.333V211.333C134.354 211.333 134.473 211.333 134.586 211.314C134.83 211.272 135.058 211.162 135.243 210.998C135.329 210.922 135.404 210.829 135.553 210.642L136.001 210.082C136.455 209.514 136.683 209.23 136.944 209C137.496 208.512 138.173 208.187 138.899 208.06C139.241 208 139.605 208 140.333 208V208C141.061 208 141.425 208 141.768 208.06C142.493 208.187 143.17 208.512 143.723 209C143.984 209.23 144.211 209.514 144.666 210.082L145.113 210.642C145.263 210.829 145.338 210.922 145.423 210.998C145.609 211.162 145.836 211.272 146.08 211.314C146.193 211.333 146.313 211.333 146.552 211.333V211.333C148.209 211.333 149.038 211.333 149.711 211.541C151.184 211.997 152.337 213.149 152.792 214.622C153 215.295 153 216.124 153 217.781V219.667C153 223.103 153 224.821 152.139 226.034C151.835 226.462 151.462 226.836 151.034 227.139C149.821 228 148.103 228 144.667 228H136C132.564 228 130.846 228 129.633 227.139C129.205 226.836 128.831 226.462 128.527 226.034C127.667 224.821 127.667 223.103 127.667 219.667V217.781Z" stroke="white" stroke-width="2" stroke-linecap="round" stroke-linejoin="round"/>
<rect x="136.333" y="215.333" width="8" height="8" rx="3.33333" stroke="white" stroke-width="2" stroke-linejoin="round"/>
<path d="M199 212.672C199 210.186 199 208.943 199.312 207.933C199.995 205.724 201.724 203.995 203.933 203.312C204.943 203 206.186 203 208.672 203V203C209.031 203 209.21 203 209.379 202.971C209.745 202.908 210.087 202.743 210.365 202.497C210.493 202.383 210.605 202.243 210.83 201.963L211.501 201.123C212.183 200.271 212.524 199.845 212.916 199.5C213.745 198.769 214.76 198.281 215.848 198.09C216.362 198 216.908 198 218 198V198C219.092 198 219.638 198 220.152 198.09C221.24 198.281 222.255 198.769 223.084 199.5C223.476 199.845 223.817 200.271 224.499 201.123L225.17 201.963C225.395 202.243 225.507 202.383 225.635 202.497C225.913 202.743 226.255 202.908 226.621 202.971C226.79 203 226.969 203 227.328 203V203C229.814 203 231.057 203 232.067 203.312C234.276 203.995 236.005 205.724 236.688 207.933C237 208.943 237 210.186 237 212.672V215.5C237 220.654 237 223.231 235.709 225.051C235.253 225.693 234.693 226.253 234.051 226.709C232.231 228 229.654 228 224.5 228H211.5C206.346 228 203.769 228 201.949 226.709C201.307 226.253 200.747 225.693 200.291 225.051C199 223.231 199 220.654 199 215.5V212.672Z" stroke="white" stroke-width="3" stroke-linecap="round" stroke-linejoin="round"/>
<rect x="212" y="209" width="12" height="12" rx="5" stroke="white" stroke-width="3" stroke-linejoin="round"/>
<path d="M283 208.84C283 205.732 283 204.179 283.39 202.916C284.244 200.155 286.405 197.994 289.166 197.14C290.429 196.75 291.982 196.75 295.09 196.75V196.75C295.538 196.75 295.763 196.75 295.974 196.714C296.432 196.634 296.859 196.429 297.206 196.121C297.367 195.979 297.507 195.804 297.787 195.454L298.627 194.404C299.479 193.339 299.905 192.806 300.394 192.374C301.431 191.461 302.7 190.851 304.061 190.613C304.703 190.5 305.385 190.5 306.75 190.5V190.5C308.115 190.5 308.797 190.5 309.439 190.613C310.8 190.851 312.069 191.461 313.106 192.374C313.595 192.806 314.021 193.339 314.873 194.404L315.713 195.454C315.993 195.804 316.133 195.979 316.294 196.121C316.641 196.429 317.068 196.634 317.526 196.714C317.737 196.75 317.962 196.75 318.41 196.75V196.75C321.518 196.75 323.071 196.75 324.334 197.14C327.095 197.994 329.256 200.155 330.11 202.916C330.5 204.179 330.5 205.732 330.5 208.84V212.375C330.5 218.818 330.5 222.039 328.886 224.313C328.317 225.116 327.616 225.817 326.813 226.386C324.539 228 321.318 228 314.875 228H298.625C292.182 228 288.961 228 286.687 226.386C285.884 225.817 285.183 225.116 284.614 224.313C283 222.039 283 218.818 283 212.375V208.84Z" stroke="white" stroke-width="3.75" stroke-linecap="round" stroke-linejoin="round"/>
<rect x="299.25" y="204.25" width="15" height="15" rx="6.25" stroke="white" stroke-width="3.75" stroke-linejoin="round"/>
<path d="M376.5 205.008C376.5 201.279 376.5 199.414 376.968 197.899C377.992 194.586 380.586 191.992 383.899 190.968C385.414 190.5 387.279 190.5 391.008 190.5V190.5C391.546 190.5 391.815 190.5 392.069 190.456C392.618 190.361 393.13 190.115 393.548 189.745C393.74 189.575 393.908 189.365 394.245 188.944L395.252 187.685C396.275 186.406 396.787 185.767 397.373 185.249C398.617 184.153 400.139 183.421 401.773 183.135C402.543 183 403.362 183 405 183V183C406.638 183 407.457 183 408.227 183.135C409.861 183.421 411.383 184.153 412.627 185.249C413.213 185.767 413.725 186.406 414.748 187.685L415.755 188.944C416.092 189.365 416.26 189.575 416.452 189.745C416.87 190.115 417.382 190.361 417.931 190.456C418.185 190.5 418.454 190.5 418.992 190.5V190.5C422.721 190.5 424.586 190.5 426.101 190.968C429.414 191.992 432.008 194.586 433.032 197.899C433.5 199.414 433.5 201.279 433.5 205.008V209.25C433.5 216.981 433.5 220.847 431.563 223.576C430.88 224.539 430.039 225.38 429.076 226.063C426.347 228 422.481 228 414.75 228H395.25C387.519 228 383.653 228 380.924 226.063C379.961 225.38 379.12 224.539 378.437 223.576C376.5 220.847 376.5 216.981 376.5 209.25V205.008Z" stroke="white" stroke-width="4.5" stroke-linecap="round" stroke-linejoin="round"/>
<rect x="396" y="199.5" width="18" height="18" rx="7.5" stroke="white" stroke-width="4.5" stroke-linejoin="round"/>
<path d="M479.5 197.344C479.5 192.372 479.5 189.886 480.124 187.866C481.49 183.448 484.948 179.99 489.366 178.624C491.386 178 493.872 178 498.844 178V178C499.561 178 499.92 178 500.258 177.942C500.991 177.815 501.674 177.487 502.23 176.994C502.487 176.767 502.711 176.486 503.159 175.926L504.502 174.247C505.867 172.542 506.549 171.689 507.331 170.999C508.989 169.537 511.019 168.561 513.197 168.18C514.224 168 515.316 168 517.5 168V168C519.684 168 520.776 168 521.803 168.18C523.981 168.561 526.011 169.537 527.669 170.999C528.451 171.689 529.133 172.542 530.498 174.247L531.841 175.926C532.289 176.486 532.513 176.767 532.77 176.994C533.326 177.487 534.009 177.815 534.742 177.942C535.08 178 535.439 178 536.156 178V178C541.128 178 543.614 178 545.634 178.624C550.052 179.99 553.51 183.448 554.876 187.866C555.5 189.886 555.5 192.372 555.5 197.344V203C555.5 213.308 555.5 218.462 552.918 222.101C552.007 223.386 550.886 224.507 549.601 225.418C545.962 228 540.808 228 530.5 228H504.5C494.192 228 489.038 228 485.399 225.418C484.114 224.507 482.993 223.386 482.082 222.101C479.5 218.462 479.5 213.308 479.5 203V197.344Z" stroke="white" stroke-width="6" stroke-linecap="round" stroke-linejoin="round"/>
<rect x="505.5" y="190" width="24" height="24" rx="10" stroke="white" stroke-width="6" stroke-linejoin="round"/>
<path d="M601.5 189.68C601.5 183.465 601.5 180.357 602.28 177.832C603.987 172.31 608.31 167.987 613.832 166.28C616.357 165.5 619.465 165.5 625.68 165.5V165.5C626.577 165.5 627.025 165.5 627.448 165.427C628.364 165.269 629.217 164.859 629.913 164.242C630.233 163.958 630.514 163.608 631.074 162.907L632.753 160.809C634.458 158.677 635.311 157.611 636.289 156.749C638.362 154.921 640.899 153.702 643.621 153.225C644.905 153 646.27 153 649 153V153C651.73 153 653.095 153 654.379 153.225C657.101 153.702 659.638 154.921 661.711 156.749C662.689 157.611 663.542 158.677 665.247 160.809L666.926 162.907C667.486 163.608 667.767 163.958 668.087 164.242C668.783 164.859 669.636 165.269 670.552 165.427C670.975 165.5 671.423 165.5 672.32 165.5V165.5C678.535 165.5 681.643 165.5 684.168 166.28C689.69 167.987 694.013 172.31 695.72 177.832C696.5 180.357 696.5 183.465 696.5 189.68V196.75C696.5 209.635 696.5 216.078 693.272 220.627C692.133 222.232 690.732 223.633 689.127 224.772C684.578 228 678.135 228 665.25 228H632.75C619.865 228 613.422 228 608.873 224.772C607.268 223.633 605.867 222.232 604.728 220.627C601.5 216.078 601.5 209.635 601.5 196.75V189.68Z" stroke="white" stroke-width="7.5" stroke-linecap="round" stroke-linejoin="round"/>
<rect x="634" y="180.5" width="30" height="30" rx="12.5" stroke="white" stroke-width="7.5" stroke-linejoin="round"/>
<path d="M51.4999 4C67.83 4 75.995 4 82.2686 7.09382C88.1916 10.0147 92.9853 14.8084 95.9062 20.7314C99 27.005 99 35.17 99 51.5001V51.5001C99 67.8301 99 75.9951 95.9062 82.2687C92.9853 88.1917 88.1916 92.9854 82.2686 95.9063C75.995 99.0001 67.83 99.0001 51.4999 99.0001V99.0001C35.1699 99.0001 27.0049 99.0001 20.7313 95.9063C14.8083 92.9854 10.0146 88.1917 7.09369 82.2687C3.99988 75.9951 3.99988 67.8301 3.99988 51.5001V51.5001C3.99988 35.17 3.99988 27.005 7.0937 20.7314C10.0146 14.8084 14.8083 10.0147 20.7313 7.09381C27.0049 4 35.1699 4 51.4999 4V4Z" fill="white" stroke="white" stroke-width="7.50001" stroke-linejoin="round"/>
<path d="M71.499 51.4981C71.499 55.463 64.311 60.4551 56.45 64.7291C48.0388 69.3022 43.8333 71.5888 40.1661 69.4085C36.499 67.2282 36.499 62.1483 36.499 51.9887L36.499 51.0075C36.499 40.8478 36.499 35.768 40.1661 33.5877C43.8333 31.4074 48.0388 33.6939 56.45 38.267C64.311 42.5411 71.499 47.5332 71.499 51.4981Z" fill="#0F1421" stroke="#0F1421" stroke-width="7.50001" stroke-linecap="round" stroke-linejoin="round"/>
<path d="M198.999 60.9981C198.999 64.17 193.249 68.1637 186.96 71.5829C180.231 75.2414 176.866 77.0706 173.933 75.3264C170.999 73.5822 170.999 69.5183 170.999 61.3905L170.999 60.6056C170.999 52.4779 170.999 48.414 173.933 46.6697C176.866 44.9255 180.231 46.7547 186.96 50.4132C193.249 53.8325 198.999 57.8262 198.999 60.9981Z" stroke="white" stroke-width="6.00001" stroke-linecap="round" stroke-linejoin="round"/>
<path d="M183 23C196.064 23 202.596 23 207.615 25.4751C212.353 27.8118 216.188 31.6467 218.525 36.3851C221 41.404 221 47.936 221 61V61C221 74.0641 221 80.5961 218.525 85.615C216.188 90.3534 212.353 94.1883 207.615 96.525C202.596 99.0001 196.064 99.0001 183 99.0001V99.0001C169.936 99.0001 163.404 99.0001 158.385 96.525C153.647 94.1883 149.812 90.3534 147.475 85.615C145 80.5961 145 74.0641 145 61V61C145 47.936 145 41.404 147.475 36.3851C149.812 31.6467 153.647 27.8118 158.385 25.4751C163.404 23 169.936 23 183 23V23Z" stroke="white" stroke-width="6.00001" stroke-linejoin="round"/>
<path d="M307.499 70.499C307.499 72.878 303.186 75.8732 298.47 78.4377C293.423 81.1815 290.9 82.5535 288.699 81.2453C286.499 79.9371 286.499 76.8892 286.499 70.7934L286.499 70.2047C286.499 64.1089 286.499 61.061 288.699 59.7528C290.9 58.4446 293.423 59.8165 298.47 62.5604C303.186 65.1248 307.499 68.1201 307.499 70.499Z" stroke="white" stroke-width="4.50001" stroke-linecap="round" stroke-linejoin="round"/>
<path d="M295.5 42C305.298 42 310.197 42 313.961 43.8563C317.515 45.6088 320.391 48.485 322.144 52.0388C324 55.803 324 60.702 324 70.5V70.5C324 80.2981 324 85.1971 322.144 88.9613C320.391 92.515 317.515 95.3912 313.961 97.1438C310.197 99.0001 305.298 99.0001 295.5 99.0001V99.0001C285.702 99.0001 280.803 99.0001 277.039 97.1438C273.485 95.3912 270.609 92.515 268.856 88.9613C267 85.1971 267 80.2981 267 70.5V70.5C267 60.702 267 55.803 268.856 52.0388C270.609 48.485 273.485 45.6088 277.039 43.8563C280.803 42 285.702 42 295.5 42V42Z" stroke="white" stroke-width="4.50001" stroke-linejoin="round"/>
<path d="M403.75 75.249C403.75 77.2315 400.156 79.7275 396.225 81.8646C392.02 84.1511 389.917 85.2944 388.084 84.2042C386.25 83.1141 386.25 80.5742 386.25 75.4943L386.25 75.0038C386.25 69.9239 386.25 67.384 388.084 66.2938C389.917 65.2037 392.02 66.347 396.225 68.6335C400.156 70.7705 403.75 73.2666 403.75 75.249Z" stroke="white" stroke-width="3.75" stroke-linecap="round" stroke-linejoin="round"/>
<path d="M393.75 51.5C401.915 51.5 405.997 51.5 409.134 53.0469C412.096 54.5074 414.493 56.9042 415.953 59.8657C417.5 63.0025 417.5 67.085 417.5 75.25V75.25C417.5 83.415 417.5 87.4976 415.953 90.6344C414.493 93.5959 412.096 95.9927 409.134 97.4532C405.997 99.0001 401.915 99.0001 393.75 99.0001V99.0001C385.585 99.0001 381.502 99.0001 378.366 97.4531C375.404 95.9927 373.007 93.5959 371.547 90.6344C370 87.4975 370 83.415 370 75.25V75.25C370 67.085 370 63.0025 371.547 59.8657C373.007 56.9042 375.404 54.5074 378.366 53.0469C381.502 51.5 385.585 51.5 393.75 51.5V51.5Z" stroke="white" stroke-width="3.75" stroke-linejoin="round"/>
<path d="M490.5 79.9983C490.5 81.5842 487.625 83.581 484.48 85.2907C481.116 87.1199 479.434 88.0345 477.967 87.1624C476.5 86.2903 476.5 84.2583 476.5 80.1945L476.5 79.802C476.5 75.7382 476.5 73.7062 477.967 72.8341C479.434 71.962 481.116 72.8766 484.48 74.7059C487.625 76.4155 490.5 78.4123 490.5 79.9983Z" stroke="white" stroke-width="2.99999" stroke-linecap="round" stroke-linejoin="round"/>
<path d="M482.5 61.0002C489.032 61.0002 492.298 61.0002 494.807 62.2378C497.177 63.4061 499.094 65.3236 500.262 67.6927C501.5 70.2022 501.5 73.4682 501.5 80.0002V80.0002C501.5 86.5322 501.5 89.7981 500.262 92.3076C499.094 94.6768 497.177 96.5942 494.807 97.7626C492.298 99.0001 489.032 99.0001 482.5 99.0001V99.0001C475.968 99.0001 472.702 99.0001 470.193 97.7626C467.823 96.5942 465.906 94.6768 464.738 92.3076C463.5 89.7981 463.5 86.5322 463.5 80.0002V80.0002C463.5 73.4682 463.5 70.2022 464.738 67.6927C465.906 65.3236 467.823 63.4061 470.193 62.2378C472.702 61.0002 475.968 61.0002 482.5 61.0002V61.0002Z" stroke="white" stroke-width="2.99999" stroke-linejoin="round"/>
<path d="M565.5 86.3328C565.5 87.3901 563.583 88.7213 561.487 89.861C559.244 91.0805 558.122 91.6903 557.145 91.1089C556.167 90.5275 556.167 89.1728 556.167 86.4636L556.167 86.2019C556.167 83.4927 556.167 82.1381 557.145 81.5567C558.122 80.9752 559.244 81.585 561.487 82.8045C563.583 83.9442 565.5 85.2755 565.5 86.3328Z" stroke="white" stroke-width="2" stroke-linecap="round" stroke-linejoin="round"/>
<path d="M560.166 73.6667C564.521 73.6667 566.698 73.6667 568.371 74.4918C569.951 75.2707 571.229 76.549 572.008 78.1284C572.833 79.8014 572.833 81.9787 572.833 86.3334V86.3334C572.833 90.6881 572.833 92.8654 572.008 94.5384C571.229 96.1178 569.951 97.3962 568.371 98.1751C566.698 99.0001 564.521 99.0001 560.166 99.0001V99.0001C555.812 99.0001 553.634 99.0001 551.961 98.1751C550.382 97.3962 549.104 96.1178 548.325 94.5384C547.5 92.8654 547.5 90.6881 547.5 86.3334V86.3334C547.5 81.9787 547.5 79.8014 548.325 78.1284C549.104 76.549 550.382 75.2707 551.961 74.4918C553.634 73.6667 555.812 73.6667 560.166 73.6667V73.6667Z" stroke="white" stroke-width="2" stroke-linejoin="round"/>
<path d="M632.334 89.5002C632.334 90.2932 630.896 91.2916 629.324 92.1465C627.642 93.0611 626.801 93.5184 626.067 93.0823C625.334 92.6463 625.334 91.6303 625.334 89.5984L625.334 89.4021C625.334 87.3702 625.334 86.3542 626.067 85.9182C626.801 85.4821 627.642 85.9394 629.324 86.854C630.896 87.7088 632.334 88.7073 632.334 89.5002Z" stroke="white" stroke-width="1.5" stroke-linecap="round" stroke-linejoin="round"/>
<path d="M628.334 80.0002C631.6 80.0002 633.233 80.0002 634.488 80.619C635.672 81.2032 636.631 82.1619 637.215 83.3465C637.834 84.6012 637.834 86.2342 637.834 89.5002V89.5002C637.834 92.7662 637.834 94.3992 637.215 95.654C636.631 96.8386 635.672 97.7973 634.488 98.3815C633.233 99.0002 631.6 99.0002 628.334 99.0002V99.0002C625.068 99.0002 623.435 99.0002 622.18 98.3815C620.996 97.7973 620.037 96.8386 619.453 95.654C618.834 94.3992 618.834 92.7662 618.834 89.5002V89.5002C618.834 86.2342 618.834 84.6012 619.453 83.3465C620.037 82.1619 620.996 81.2032 622.18 80.619C623.435 80.0002 625.068 80.0002 628.334 80.0002V80.0002Z" stroke="white" stroke-width="1.5" stroke-linejoin="round"/>
<path d="M692.834 92.6675C692.834 93.1961 691.876 93.8617 690.827 94.4316C689.706 95.0414 689.145 95.3462 688.656 95.0555C688.167 94.7648 688.167 94.0875 688.167 92.7329L688.167 92.6021C688.167 91.2474 688.167 90.5701 688.656 90.2794C689.145 89.9887 689.706 90.2936 690.827 90.9033C691.876 91.4732 692.834 92.1388 692.834 92.6675Z" stroke="white" stroke-linecap="round" stroke-linejoin="round"/>
<path d="M690.168 86.3335C692.345 86.3335 693.434 86.3335 694.27 86.746C695.06 87.1355 695.699 87.7746 696.088 88.5643C696.501 89.4008 696.501 90.4895 696.501 92.6668V92.6668C696.501 94.8442 696.501 95.9328 696.088 96.7693C695.699 97.559 695.06 98.1982 694.27 98.5877C693.434 99.0002 692.345 99.0002 690.168 99.0002V99.0002C687.99 99.0002 686.902 99.0002 686.065 98.5877C685.275 98.1982 684.636 97.559 684.247 96.7693C683.834 95.9328 683.834 94.8442 683.834 92.6668V92.6668C683.834 90.4895 683.834 89.4008 684.247 88.5643C684.636 87.7746 685.275 87.1355 686.065 86.746C686.902 86.3335 687.99 86.3335 690.168 86.3335V86.3335Z" stroke="white" stroke-linejoin="round"/>
</svg>
