<svg width="1600" height="940" viewBox="0 0 1600 940" fill="none" xmlns="http://www.w3.org/2000/svg">
<g opacity="0.2" clip-path="url(#clip0_13063_2513)">
<g filter="url(#filter0_f_13063_2513)">
<ellipse cx="258.721" cy="248.267" rx="258.721" ry="248.267" transform="matrix(0.875349 0.483491 -0.516692 0.856171 287.163 81.6853)" fill="url(#paint0_linear_13063_2513)"/>
<ellipse cx="343.35" cy="215.84" rx="343.35" ry="215.84" transform="matrix(0.875349 -0.483491 0.516692 0.856171 553.272 443.238)" fill="url(#paint1_linear_13063_2513)"/>
<g style="mix-blend-mode:darken">
<ellipse cx="384.378" cy="279.484" rx="384.378" ry="279.484" transform="matrix(0.875349 0.483491 -0.516692 0.856171 540.054 48)" fill="url(#paint2_linear_13063_2513)"/>
</g>
<g style="mix-blend-mode:darken">
<ellipse cx="540.501" cy="705.718" rx="419.5" ry="186.553" fill="url(#paint3_linear_13063_2513)"/>
</g>
<ellipse cx="250.062" cy="189.85" rx="250.062" ry="189.85" transform="matrix(0.516692 0.856171 -0.875349 0.483491 1011.38 243.882)" fill="url(#paint4_linear_13063_2513)"/>
<ellipse cx="206.773" cy="234.157" rx="206.773" ry="234.157" transform="matrix(0.269703 0.962944 -0.96868 0.248314 1439.65 375.678)" fill="url(#paint5_linear_13063_2513)"/>
</g>
</g>
<defs>
<filter id="filter0_f_13063_2513" x="-148.999" y="-99.8623" width="1921.22" height="1262.13" filterUnits="userSpaceOnUse" color-interpolation-filters="sRGB">
<feFlood flood-opacity="0" result="BackgroundImageFix"/>
<feBlend mode="normal" in="SourceGraphic" in2="BackgroundImageFix" result="shape"/>
<feGaussianBlur stdDeviation="135" result="effect1_foregroundBlur_13063_2513"/>
</filter>
<linearGradient id="paint0_linear_13063_2513" x1="0" y1="248.267" x2="517.441" y2="248.267" gradientUnits="userSpaceOnUse">
<stop stop-color="#5CFAC1"/>
<stop offset="1" stop-color="#8536D3"/>
</linearGradient>
<linearGradient id="paint1_linear_13063_2513" x1="1.01426e-07" y1="215.84" x2="673.247" y2="194.189" gradientUnits="userSpaceOnUse">
<stop stop-color="#5C75FA"/>
<stop offset="1" stop-color="#FC21F3"/>
</linearGradient>
<linearGradient id="paint2_linear_13063_2513" x1="0" y1="279.484" x2="768.757" y2="279.484" gradientUnits="userSpaceOnUse">
<stop stop-color="#B253FB"/>
<stop offset="1" stop-color="#31AADD"/>
</linearGradient>
<linearGradient id="paint3_linear_13063_2513" x1="121.001" y1="705.718" x2="960.001" y2="705.718" gradientUnits="userSpaceOnUse">
<stop stop-color="#8953FB"/>
<stop offset="1" stop-color="#DDAD31"/>
</linearGradient>
<linearGradient id="paint4_linear_13063_2513" x1="0" y1="189.85" x2="500.125" y2="189.85" gradientUnits="userSpaceOnUse">
<stop stop-color="#5DD0F5"/>
<stop offset="1" stop-color="#13FFC6"/>
</linearGradient>
<linearGradient id="paint5_linear_13063_2513" x1="206.773" y1="0" x2="206.773" y2="468.314" gradientUnits="userSpaceOnUse">
<stop stop-color="#FF8E8E"/>
<stop offset="1" stop-color="#B6F407"/>
</linearGradient>
<clipPath id="clip0_13063_2513">
<rect width="1600" height="940" fill="white"/>
</clipPath>
</defs>
</svg>
