<svg width="1922" height="1295" viewBox="0 0 1922 1295" fill="none" xmlns="http://www.w3.org/2000/svg">
<g opacity="0.2">
<g filter="url(#filter0_f_13022_4717)">
<ellipse cx="534.357" cy="530.648" rx="261.506" ry="256.555" transform="rotate(30 534.357 530.648)" fill="url(#paint0_linear_13022_4717)"/>
<ellipse cx="1114.35" cy="575.275" rx="347.046" ry="223.045" transform="rotate(-30 1114.35 575.275)" fill="url(#paint1_linear_13022_4717)"/>
<g style="mix-blend-mode:darken">
<ellipse cx="881.111" cy="586.881" rx="388.517" ry="288.815" transform="rotate(30 881.111 586.881)" fill="url(#paint2_linear_13022_4717)"/>
</g>
<g style="mix-blend-mode:darken">
<ellipse cx="689.501" cy="830" rx="419.5" ry="195" fill="url(#paint3_linear_13022_4717)"/>
</g>
<ellipse cx="1123.4" cy="666.99" rx="258.411" ry="191.894" transform="rotate(60 1123.4 666.99)" fill="url(#paint4_linear_13022_4717)"/>
<ellipse cx="1417.59" cy="753.92" rx="215.468" ry="234.825" transform="rotate(75 1417.59 753.92)" fill="url(#paint5_linear_13022_4717)"/>
</g>
</g>
<defs>
<filter id="filter0_f_13022_4717" x="0.000976562" y="0.169434" width="1921.22" height="1294.83" filterUnits="userSpaceOnUse" color-interpolation-filters="sRGB">
<feFlood flood-opacity="0" result="BackgroundImageFix"/>
<feBlend mode="normal" in="SourceGraphic" in2="BackgroundImageFix" result="shape"/>
<feGaussianBlur stdDeviation="135" result="effect1_foregroundBlur_13022_4717"/>
</filter>
<linearGradient id="paint0_linear_13022_4717" x1="272.851" y1="530.648" x2="795.863" y2="530.648" gradientUnits="userSpaceOnUse">
<stop stop-color="#5CFAC1"/>
<stop offset="1" stop-color="#8536D3"/>
</linearGradient>
<linearGradient id="paint1_linear_13022_4717" x1="767.3" y1="575.275" x2="1447.83" y2="553.869" gradientUnits="userSpaceOnUse">
<stop stop-color="#5C75FA"/>
<stop offset="1" stop-color="#FC21F3"/>
</linearGradient>
<linearGradient id="paint2_linear_13022_4717" x1="492.595" y1="586.881" x2="1269.63" y2="586.881" gradientUnits="userSpaceOnUse">
<stop stop-color="#B253FB"/>
<stop offset="1" stop-color="#31AADD"/>
</linearGradient>
<linearGradient id="paint3_linear_13022_4717" x1="270.001" y1="830" x2="1109" y2="830" gradientUnits="userSpaceOnUse">
<stop stop-color="#8953FB"/>
<stop offset="1" stop-color="#DDAD31"/>
</linearGradient>
<linearGradient id="paint4_linear_13022_4717" x1="864.993" y1="666.99" x2="1381.81" y2="666.99" gradientUnits="userSpaceOnUse">
<stop stop-color="#5DD0F5"/>
<stop offset="1" stop-color="#13FFC6"/>
</linearGradient>
<linearGradient id="paint5_linear_13022_4717" x1="1417.59" y1="519.095" x2="1417.59" y2="988.745" gradientUnits="userSpaceOnUse">
<stop stop-color="#FF8E8E"/>
<stop offset="1" stop-color="#2807F4"/>
</linearGradient>
</defs>
</svg>
