<svg width="600" height="615" viewBox="0 0 600 615" fill="none" xmlns="http://www.w3.org/2000/svg">
<g filter="url(#filter0_b_12757_23534)">
<rect width="600" height="615" fill="url(#paint0_linear_12757_23534)"/>
</g>
<g filter="url(#filter1_d_12757_23534)">
<rect x="113.414" y="313.476" width="373.17" height="65.8537" rx="32.9268" fill="white" shape-rendering="crispEdges"/>
<path d="M164.511 337.681C165.598 336.829 167.126 336.829 168.213 337.681L176.075 343.843C176.401 344.099 176.458 344.57 176.202 344.896C175.947 345.222 175.475 345.279 175.149 345.024L175.125 345.004C174.612 344.603 173.862 344.968 173.862 345.619V353.483C173.862 354.312 173.19 354.983 172.362 354.983H170.361C169.533 354.983 168.861 354.312 168.861 353.483V351.183C168.861 349.802 167.742 348.683 166.361 348.683C164.981 348.683 163.861 349.802 163.861 351.183V353.483C163.861 354.312 163.19 354.983 162.361 354.983H160.362C159.533 354.983 158.862 354.312 158.862 353.483V345.619C158.862 344.968 158.112 344.603 157.599 345.005L157.575 345.024C157.249 345.279 156.777 345.222 156.522 344.896C156.266 344.57 156.323 344.099 156.649 343.843L164.511 337.681Z" fill="#377FDC"/>
<g opacity="0.75">
<path d="M225.672 342.427C225.672 340.77 227.015 339.427 228.672 339.427H229.781C230.533 339.427 231.257 339.709 231.81 340.217L232.811 341.137C233.365 341.645 234.089 341.927 234.84 341.927H241.672C243.329 341.927 244.672 343.27 244.672 344.927V351.927C244.672 353.584 243.329 354.927 241.672 354.927H228.672C227.015 354.927 225.672 353.584 225.672 351.927V342.427Z" stroke="#1E3050" stroke-width="2" stroke-linecap="round" stroke-linejoin="round"/>
<path d="M225.672 344.927H244.672" stroke="#1E3050" stroke-width="2" stroke-linecap="round" stroke-linejoin="round"/>
</g>
<rect x="278.049" y="324.451" width="43.9024" height="43.9025" rx="21.9512" fill="black" fill-opacity="0.05"/>
<g opacity="0.75">
<path d="M293.856 340.259C297.25 336.865 302.751 336.865 306.145 340.259V340.259C309.538 343.652 309.538 349.153 306.145 352.547V352.547C302.751 355.94 297.25 355.94 293.856 352.547V352.547C290.463 349.153 290.463 343.652 293.856 340.259V340.259Z" stroke="black" stroke-width="1.5" stroke-linecap="round" stroke-linejoin="round"/>
<path d="M303.233 343.169L296.766 349.636" stroke="black" stroke-width="1.5" stroke-linecap="round" stroke-linejoin="round"/>
<path d="M296.768 343.169L303.235 349.636" stroke="black" stroke-width="1.5" stroke-linecap="round" stroke-linejoin="round"/>
</g>
<g opacity="0.65">
<path d="M372.878 343.927C372.878 346.14 373.094 349.214 374.478 351.06V351.06C375.055 351.829 374.506 352.927 373.545 352.927H360.211C359.25 352.927 358.701 351.829 359.278 351.06V351.06C360.662 349.214 360.878 346.14 360.878 343.927C360.878 340.613 363.369 337.927 366.878 337.927C370.387 337.927 372.878 340.613 372.878 343.927Z" stroke="#1E3050" stroke-width="2"/>
<path d="M370.878 352.927C370.878 355.136 369.087 356.927 366.878 356.927C364.669 356.927 362.878 355.136 362.878 352.927" stroke="#1E3050" stroke-width="2"/>
</g>
<g opacity="0.75">
<path d="M437.231 342.427C437.231 344.912 435.216 346.927 432.731 346.927C430.246 346.927 428.231 344.912 428.231 342.427C428.231 339.942 430.246 337.927 432.731 337.927C435.216 337.927 437.231 339.942 437.231 342.427Z" stroke="#1E3050" stroke-width="2"/>
<path d="M432.731 348.927C429.881 348.927 427.38 350.417 425.963 352.66C424.635 354.761 426.746 356.927 429.231 356.927H436.231C438.716 356.927 440.827 354.761 439.499 352.66C438.082 350.417 435.581 348.927 432.731 348.927Z" stroke="#1E3050" stroke-width="2"/>
</g>
</g>
<g filter="url(#filter2_d_12757_23534)">
<rect x="268.003" y="184.476" width="60.2539" height="60.254" rx="30.1269" fill="white" shape-rendering="crispEdges"/>
<path d="M305.033 222.763C307.806 222.763 310.054 220.515 310.054 217.741C310.054 214.968 307.806 212.72 305.033 212.72C304.825 212.72 304.619 212.733 304.418 212.758C304.521 210.294 305.271 207.997 306.501 206.031C302.587 208.469 300.012 212.791 300.012 217.741C300.012 220.515 302.26 222.763 305.033 222.763Z" fill="#377FDC" stroke="#377FDC" stroke-width="2.25952" stroke-linecap="round" stroke-linejoin="round"/>
<path d="M291.225 222.763C293.998 222.763 296.246 220.515 296.246 217.741C296.246 214.968 293.998 212.72 291.225 212.72C291.017 212.72 290.812 212.733 290.61 212.758C290.714 210.294 291.463 207.997 292.693 206.031C288.779 208.469 286.204 212.791 286.204 217.741C286.204 220.515 288.452 222.763 291.225 222.763Z" fill="#377FDC" stroke="#377FDC" stroke-width="2.25952" stroke-linecap="round" stroke-linejoin="round"/>
</g>
<g filter="url(#filter3_d_12757_23534)">
<rect x="377.482" y="207.187" width="60.2539" height="60.2539" rx="30.127" transform="rotate(30 377.482 207.187)" fill="white" shape-rendering="crispEdges"/>
<path d="M377.189 251.509C378.766 256.25 383.238 259.668 388.508 259.668C395.094 259.668 400.433 254.329 400.433 247.743C400.433 242.708 397.313 238.402 392.901 236.653" stroke="#377FDC" stroke-width="2.25952" stroke-linecap="square"/>
<path d="M376.582 247.743C376.582 241.157 381.921 235.817 388.507 235.817" stroke="#377FDC" stroke-width="2.25952" stroke-linecap="square" stroke-dasharray="2.51 4.39"/>
<path d="M388.509 255.902C393.015 255.902 396.668 252.248 396.668 247.742C396.668 243.236 393.015 239.583 388.509 239.583C384.002 239.583 380.349 243.236 380.349 247.742C380.349 252.248 384.002 255.902 388.509 255.902Z" stroke="#377FDC" stroke-width="2.25952" stroke-linecap="square"/>
</g>
<g filter="url(#filter4_d_12757_23534)">
<rect x="180.379" y="217.476" width="60.2539" height="60.254" rx="30.1269" fill="white" shape-rendering="crispEdges"/>
<g clip-path="url(#clip0_12757_23534)">
<path d="M194.842 244.325C194.496 243.725 194.702 242.957 195.302 242.611L213.783 231.941C214.383 231.594 215.151 231.8 215.498 232.4L226.168 250.881C226.514 251.481 226.309 252.249 225.708 252.596L207.227 263.266C206.627 263.612 205.859 263.407 205.512 262.806L194.842 244.325Z" fill="#377FDC" stroke="white" stroke-width="2.25952" stroke-linecap="round" stroke-linejoin="round"/>
<path d="M205.822 244.509C206.515 245.71 206.104 247.245 204.903 247.939C203.702 248.632 202.167 248.22 201.474 247.02C200.78 245.819 201.192 244.283 202.392 243.59C203.593 242.897 205.129 243.308 205.822 244.509Z" stroke="white" stroke-width="2.25952" stroke-linecap="round" stroke-linejoin="round"/>
<path d="M214.294 259.186C210.308 252.281 212.673 243.452 219.578 239.466" stroke="white" stroke-width="2.25952" stroke-linecap="round" stroke-linejoin="round"/>
</g>
</g>
<defs>
<filter id="filter0_b_12757_23534" x="-50" y="-50" width="700" height="715" filterUnits="userSpaceOnUse" color-interpolation-filters="sRGB">
<feFlood flood-opacity="0" result="BackgroundImageFix"/>
<feGaussianBlur in="BackgroundImageFix" stdDeviation="25"/>
<feComposite in2="SourceAlpha" operator="in" result="effect1_backgroundBlur_12757_23534"/>
<feBlend mode="normal" in="SourceGraphic" in2="effect1_backgroundBlur_12757_23534" result="shape"/>
</filter>
<filter id="filter1_d_12757_23534" x="95.4141" y="305.976" width="409.17" height="101.854" filterUnits="userSpaceOnUse" color-interpolation-filters="sRGB">
<feFlood flood-opacity="0" result="BackgroundImageFix"/>
<feColorMatrix in="SourceAlpha" type="matrix" values="0 0 0 0 0 0 0 0 0 0 0 0 0 0 0 0 0 0 127 0" result="hardAlpha"/>
<feOffset dy="10.5"/>
<feGaussianBlur stdDeviation="9"/>
<feComposite in2="hardAlpha" operator="out"/>
<feColorMatrix type="matrix" values="0 0 0 0 0 0 0 0 0 0 0 0 0 0 0 0 0 0 0.05 0"/>
<feBlend mode="normal" in2="BackgroundImageFix" result="effect1_dropShadow_12757_23534"/>
<feBlend mode="normal" in="SourceGraphic" in2="effect1_dropShadow_12757_23534" result="shape"/>
</filter>
<filter id="filter2_d_12757_23534" x="250.003" y="176.976" width="96.2539" height="96.2539" filterUnits="userSpaceOnUse" color-interpolation-filters="sRGB">
<feFlood flood-opacity="0" result="BackgroundImageFix"/>
<feColorMatrix in="SourceAlpha" type="matrix" values="0 0 0 0 0 0 0 0 0 0 0 0 0 0 0 0 0 0 127 0" result="hardAlpha"/>
<feOffset dy="10.5"/>
<feGaussianBlur stdDeviation="9"/>
<feComposite in2="hardAlpha" operator="out"/>
<feColorMatrix type="matrix" values="0 0 0 0 0 0 0 0 0 0 0 0 0 0 0 0 0 0 0.05 0"/>
<feBlend mode="normal" in2="BackgroundImageFix" result="effect1_dropShadow_12757_23534"/>
<feBlend mode="normal" in="SourceGraphic" in2="effect1_dropShadow_12757_23534" result="shape"/>
</filter>
<filter id="filter3_d_12757_23534" x="329.355" y="199.687" width="118.309" height="118.308" filterUnits="userSpaceOnUse" color-interpolation-filters="sRGB">
<feFlood flood-opacity="0" result="BackgroundImageFix"/>
<feColorMatrix in="SourceAlpha" type="matrix" values="0 0 0 0 0 0 0 0 0 0 0 0 0 0 0 0 0 0 127 0" result="hardAlpha"/>
<feOffset dy="10.5"/>
<feGaussianBlur stdDeviation="9"/>
<feComposite in2="hardAlpha" operator="out"/>
<feColorMatrix type="matrix" values="0 0 0 0 0 0 0 0 0 0 0 0 0 0 0 0 0 0 0.05 0"/>
<feBlend mode="normal" in2="BackgroundImageFix" result="effect1_dropShadow_12757_23534"/>
<feBlend mode="normal" in="SourceGraphic" in2="effect1_dropShadow_12757_23534" result="shape"/>
</filter>
<filter id="filter4_d_12757_23534" x="162.379" y="209.976" width="96.2539" height="96.2539" filterUnits="userSpaceOnUse" color-interpolation-filters="sRGB">
<feFlood flood-opacity="0" result="BackgroundImageFix"/>
<feColorMatrix in="SourceAlpha" type="matrix" values="0 0 0 0 0 0 0 0 0 0 0 0 0 0 0 0 0 0 127 0" result="hardAlpha"/>
<feOffset dy="10.5"/>
<feGaussianBlur stdDeviation="9"/>
<feComposite in2="hardAlpha" operator="out"/>
<feColorMatrix type="matrix" values="0 0 0 0 0 0 0 0 0 0 0 0 0 0 0 0 0 0 0.05 0"/>
<feBlend mode="normal" in2="BackgroundImageFix" result="effect1_dropShadow_12757_23534"/>
<feBlend mode="normal" in="SourceGraphic" in2="effect1_dropShadow_12757_23534" result="shape"/>
</filter>
<linearGradient id="paint0_linear_12757_23534" x1="0" y1="0" x2="600" y2="615" gradientUnits="userSpaceOnUse">
<stop stop-color="#A5C9E3"/>
<stop offset="1" stop-color="#ECD8F3" stop-opacity="0.4"/>
</linearGradient>
<clipPath id="clip0_12757_23534">
<rect width="30.127" height="30.127" fill="white" transform="translate(189.928 242.089) rotate(-30)"/>
</clipPath>
</defs>
</svg>
