<svg width="636" height="566" viewBox="0 0 636 566" fill="none" xmlns="http://www.w3.org/2000/svg">
<path d="M102.625 26.6308C102.625 23.8341 102.625 22.4357 102.976 21.2994C103.744 18.8146 105.69 16.8693 108.174 16.1012C109.311 15.75 110.709 15.75 113.506 15.75V15.75C113.91 15.75 114.111 15.75 114.301 15.7172C114.714 15.646 115.098 15.4614 115.411 15.1841C115.555 15.0562 115.681 14.8985 115.933 14.5832L116.689 13.6389C117.456 12.6797 117.84 12.2001 118.28 11.812C119.213 10.9896 120.355 10.4408 121.579 10.2263C122.157 10.125 122.772 10.125 124 10.125V10.125C125.228 10.125 125.843 10.125 126.421 10.2263C127.645 10.4408 128.787 10.9896 129.72 11.812C130.16 12.2001 130.544 12.6797 131.311 13.6389L132.067 14.5832C132.319 14.8985 132.445 15.0562 132.589 15.1841C132.902 15.4614 133.286 15.646 133.699 15.7172C133.889 15.75 134.09 15.75 134.494 15.75V15.75C137.291 15.75 138.689 15.75 139.826 16.1012C142.31 16.8693 144.256 18.8146 145.024 21.2994C145.375 22.4357 145.375 23.8341 145.375 26.6308V29.8125C145.375 35.6108 145.375 38.51 143.923 40.557C143.41 41.2793 142.779 41.91 142.057 42.4225C140.01 43.875 137.111 43.875 131.313 43.875H116.687C110.889 43.875 107.99 43.875 105.943 42.4225C105.221 41.91 104.59 41.2793 104.077 40.557C102.625 38.51 102.625 35.6108 102.625 29.8125V26.6308Z" stroke="#010818" stroke-opacity="0.2" stroke-width="1.5" stroke-linecap="round" stroke-linejoin="round"/>
<rect x="117.25" y="22.5" width="13.5" height="13.5" rx="5.625" stroke="#010818" stroke-opacity="0.2" stroke-width="1.5" stroke-linejoin="round"/>
<path d="M296.625 27C296.625 20.6799 296.625 17.5199 298.142 15.2499C298.798 14.2672 299.642 13.4234 300.625 12.7668C302.895 11.25 306.055 11.25 312.375 11.25H323.625C329.945 11.25 333.105 11.25 335.375 12.7668C336.358 13.4234 337.202 14.2672 337.858 15.2499C339.375 17.5199 339.375 20.6799 339.375 27V27C339.375 33.3201 339.375 36.4801 337.858 38.7501C337.202 39.7328 336.358 40.5766 335.375 41.2332C333.105 42.75 329.945 42.75 323.625 42.75H312.375C306.055 42.75 302.895 42.75 300.625 41.2332C299.642 40.5766 298.798 39.7328 298.142 38.7501C296.625 36.4801 296.625 33.3201 296.625 27V27Z" stroke="#C45FE9" stroke-opacity="0.3" stroke-width="1.5" stroke-linecap="round" stroke-linejoin="round"/>
<path d="M337.456 14.915L327.348 22.3645C322.846 25.6833 320.594 27.3427 318.006 27.343C315.418 27.3433 313.166 25.6845 308.663 22.3668L298.547 14.915" stroke="#C45FE9" stroke-opacity="0.3" stroke-width="1.5" stroke-linecap="round" stroke-linejoin="round"/>
<rect x="533.375" y="48.375" width="34.875" height="34.875" rx="7.875" transform="rotate(-180 533.375 48.375)" stroke="#010818" stroke-opacity="0.2" stroke-width="1.5" stroke-linecap="round" stroke-linejoin="round"/>
<path d="M524.375 9V9C524.375 7.13604 522.864 5.625 521 5.625L510.478 5.625C502.42 5.625 498.391 5.625 495.517 7.59378C494.371 8.37929 493.379 9.3705 492.594 10.5172C490.625 13.3913 490.625 17.4202 490.625 25.4779L490.625 36C490.625 37.864 492.136 39.375 494 39.375V39.375" stroke="#010818" stroke-opacity="0.2" stroke-width="1.5" stroke-linecap="round" stroke-linejoin="round"/>
<path d="M511.887 18.4196C511.918 18.3041 512.082 18.3041 512.113 18.4196V18.4196C513.225 22.5493 516.451 25.7751 520.58 26.887V26.887C520.696 26.9181 520.696 27.0819 520.58 27.113V27.113C516.451 28.2249 513.225 31.4507 512.113 35.5805V35.5805C512.082 35.6959 511.918 35.6959 511.887 35.5805V35.5805C510.775 31.4507 507.549 28.2249 503.42 27.113V27.113C503.304 27.0819 503.304 26.9181 503.42 26.887V26.887C507.549 25.7751 510.775 22.5493 511.887 18.4196V18.4196Z" stroke="#010818" stroke-opacity="0.2" stroke-width="1.5" stroke-linecap="round" stroke-linejoin="round"/>
<path d="M516.5 37.933C518.043 39.419 519.186 41.3159 519.762 43.4555V43.4555C519.793 43.5709 519.957 43.5709 519.988 43.4555V43.4555C521.1 39.3257 524.326 36.0999 528.455 34.988V34.988C528.571 34.9569 528.571 34.7931 528.455 34.762V34.762C526.316 34.186 524.419 33.0425 522.933 31.5" stroke="#010818" stroke-opacity="0.2" stroke-width="1.5" stroke-linecap="round" stroke-linejoin="round"/>
<path d="M30.375 102.25C30.375 104.114 28.864 105.625 27 105.625C25.136 105.625 23.625 104.114 23.625 102.25C23.625 100.386 25.136 98.875 27 98.875C28.864 98.875 30.375 100.386 30.375 102.25Z" stroke="#010818" stroke-opacity="0.2" stroke-width="1.5" stroke-linecap="round" stroke-linejoin="round"/>
<path d="M27 76.375C25.136 76.375 23.625 78.1659 23.625 80.3751L25.3125 92.375C25.3125 93.4796 26.068 94.375 27 94.375C27.932 94.375 28.6875 93.4796 28.6875 92.375L30.375 80.3751C30.375 78.1659 28.864 76.375 27 76.375Z" stroke="#010818" stroke-opacity="0.2" stroke-width="1.5" stroke-linecap="round" stroke-linejoin="round"/>
<path d="M13.8788 74.125C8.85586 78.0362 5.625 84.1408 5.625 91C5.625 97.8592 8.85586 103.964 13.8788 107.875" stroke="#010818" stroke-opacity="0.2" stroke-width="1.5" stroke-linecap="round" stroke-linejoin="round"/>
<path d="M40.1212 74.125C45.1441 78.0362 48.375 84.1408 48.375 91C48.375 97.8592 45.1441 103.964 40.1212 107.875" stroke="#010818" stroke-opacity="0.2" stroke-width="1.5" stroke-linecap="round" stroke-linejoin="round"/>
<path d="M36 78.625C39.4231 81.4932 41.625 85.9699 41.625 91C41.625 96.0301 39.4231 100.507 36 103.375" stroke="#010818" stroke-opacity="0.2" stroke-width="1.5" stroke-linecap="round" stroke-linejoin="round"/>
<path d="M18 78.625C14.5769 81.4932 12.375 85.9699 12.375 91C12.375 96.0301 14.5769 100.507 18 103.375" stroke="#010818" stroke-opacity="0.2" stroke-width="1.5" stroke-linecap="round" stroke-linejoin="round"/>
<path d="M221.001 73C228.837 73 232.985 78.5618 236.751 85.4342C239.803 91.0052 238.834 99.9523 237.817 105.409C237.606 106.54 237.501 107.106 237.193 107.698C236.673 108.7 235.585 109.604 234.506 109.931C233.867 110.125 233.215 110.125 231.913 110.125V110.125C230.133 110.125 229.243 110.125 228.527 109.877C227.224 109.425 226.201 108.402 225.749 107.099C225.501 106.383 225.501 105.493 225.501 103.713V100C225.501 100 225.501 100 225.501 100C225.501 97.5147 223.486 95.5 221.001 95.5C221.001 95.5 221.001 95.5 221.001 95.5V95.5C221.001 95.5 221.001 95.5 221.001 95.5C218.516 95.5 216.501 97.5147 216.501 100C216.501 100 216.501 100 216.501 100V103.713C216.501 105.493 216.501 106.383 216.253 107.099C215.801 108.402 214.777 109.425 213.475 109.877C212.759 110.125 211.869 110.125 210.089 110.125V110.125C208.786 110.125 208.135 110.125 207.496 109.931C206.416 109.604 205.328 108.7 204.809 107.698C204.501 107.106 204.396 106.54 204.185 105.409C203.168 99.9523 202.198 91.0052 205.251 85.4342C209.017 78.5618 213.164 73 221.001 73Z" stroke="#C45FE9" stroke-opacity="0.3" stroke-width="1.5" stroke-linecap="round" stroke-linejoin="round"/>
<path d="M242.375 86.5C237.264 79.0385 231.635 73 221 73C210.365 73 204.736 79.0385 199.625 86.5" stroke="#C45FE9" stroke-opacity="0.3" stroke-width="1.5" stroke-linecap="round" stroke-linejoin="round"/>
<path d="M393.625 94.375C393.625 88.0744 393.625 84.9241 394.851 82.5176C395.93 80.4008 397.651 78.6798 399.768 77.6012C402.174 76.375 405.324 76.375 411.625 76.375V76.375C417.926 76.375 421.076 76.375 423.482 77.6012C425.599 78.6798 427.32 80.4008 428.399 82.5176C429.625 84.9241 429.625 88.0744 429.625 94.375V94.375C429.625 100.676 429.625 103.826 428.399 106.232C427.32 108.349 425.599 110.07 423.482 111.149C421.076 112.375 417.926 112.375 411.625 112.375V112.375C405.324 112.375 402.174 112.375 399.768 111.149C397.651 110.07 395.93 108.349 394.851 106.232C393.625 103.826 393.625 100.676 393.625 94.375V94.375Z" stroke="#010818" stroke-opacity="0.2" stroke-width="1.5" stroke-linecap="round" stroke-linejoin="round"/>
<path d="M419.5 97.75V84.25L408.25 86.5V102.25" stroke="#010818" stroke-opacity="0.2" stroke-width="1.5" stroke-linecap="round" stroke-linejoin="round"/>
<path d="M408.25 102.25C408.25 103.493 407.243 104.5 406 104.5C404.757 104.5 403.75 103.493 403.75 102.25C403.75 101.007 404.757 100 406 100C407.243 100 408.25 101.007 408.25 102.25Z" stroke="#010818" stroke-opacity="0.2" stroke-width="1.5" stroke-linecap="round" stroke-linejoin="round"/>
<path d="M419.5 97.75C419.5 98.9926 418.493 100 417.25 100C416.007 100 415 98.9926 415 97.75C415 96.5074 416.007 95.5 417.25 95.5C418.493 95.5 419.5 96.5074 419.5 97.75Z" stroke="#010818" stroke-opacity="0.2" stroke-width="1.5" stroke-linecap="round" stroke-linejoin="round"/>
<path d="M404.875 70.75H405.432C418.882 70.75 425.607 70.75 430.035 74.5562C430.709 75.1357 431.333 75.7713 431.9 76.4561C435.624 80.9537 435.499 87.6775 435.25 101.125V101.125" stroke="#010818" stroke-opacity="0.2" stroke-width="1.5" stroke-linecap="round" stroke-linejoin="round"/>
<path d="M587.625 93.8125C587.625 86.9804 587.625 83.5644 589.059 81.003C590.073 79.1928 591.568 77.6982 593.378 76.6844C595.939 75.25 599.355 75.25 606.188 75.25H611.812C618.645 75.25 622.061 75.25 624.622 76.6844C626.432 77.6982 627.927 79.1928 628.941 81.003C630.375 83.5644 630.375 86.9804 630.375 93.8125V93.8125C630.375 100.645 630.375 104.061 628.941 106.622C627.927 108.432 626.432 109.927 624.622 110.941C622.061 112.375 618.645 112.375 611.812 112.375H606.188C599.355 112.375 595.939 112.375 593.378 110.941C591.568 109.927 590.073 108.432 589.059 106.622C587.625 104.061 587.625 100.645 587.625 93.8125V93.8125Z" stroke="#C45FE9" stroke-opacity="0.3" stroke-width="1.5" stroke-linecap="round"/>
<path d="M601.125 94.375C601.125 94.9963 600.621 95.5 600 95.5C599.379 95.5 598.875 94.9963 598.875 94.375C598.875 93.7537 599.379 93.25 600 93.25C600.621 93.25 601.125 93.7537 601.125 94.375Z" stroke="#C45FE9" stroke-opacity="0.3" stroke-width="1.5" stroke-linecap="round" stroke-linejoin="round"/>
<path d="M610.125 94.375C610.125 94.9963 609.621 95.5 609 95.5C608.379 95.5 607.875 94.9963 607.875 94.375C607.875 93.7537 608.379 93.25 609 93.25C609.621 93.25 610.125 93.7537 610.125 94.375Z" stroke="#C45FE9" stroke-opacity="0.3" stroke-width="1.5" stroke-linecap="round" stroke-linejoin="round"/>
<path d="M601.125 103.375C601.125 103.996 600.621 104.5 600 104.5C599.379 104.5 598.875 103.996 598.875 103.375C598.875 102.754 599.379 102.25 600 102.25C600.621 102.25 601.125 102.754 601.125 103.375Z" stroke="#C45FE9" stroke-opacity="0.3" stroke-width="1.5" stroke-linecap="round" stroke-linejoin="round"/>
<path d="M610.125 103.375C610.125 103.996 609.621 104.5 609 104.5C608.379 104.5 607.875 103.996 607.875 103.375C607.875 102.754 608.379 102.25 609 102.25C609.621 102.25 610.125 102.754 610.125 103.375Z" stroke="#C45FE9" stroke-opacity="0.3" stroke-width="1.5" stroke-linecap="round" stroke-linejoin="round"/>
<path d="M619.125 94.375C619.125 94.9963 618.621 95.5 618 95.5C617.379 95.5 616.875 94.9963 616.875 94.375C616.875 93.7537 617.379 93.25 618 93.25C618.621 93.25 619.125 93.7537 619.125 94.375Z" stroke="#C45FE9" stroke-opacity="0.3" stroke-width="1.5" stroke-linecap="round" stroke-linejoin="round"/>
<path d="M587.625 84.25H630.375" stroke="#C45FE9" stroke-opacity="0.3" stroke-width="1.5" stroke-linecap="round" stroke-linejoin="round"/>
<path d="M620.25 75.25V69.625" stroke="#C45FE9" stroke-opacity="0.3" stroke-width="1.5" stroke-linecap="round"/>
<path d="M597.75 75.25V69.625" stroke="#C45FE9" stroke-opacity="0.3" stroke-width="1.5" stroke-linecap="round"/>
<path d="M102.625 150.5C102.625 145.247 102.625 142.621 103.688 140.632C104.527 139.063 105.813 137.777 107.382 136.938C109.371 135.875 111.997 135.875 117.25 135.875H130.75C136.003 135.875 138.629 135.875 140.618 136.938C142.187 137.777 143.473 139.063 144.312 140.632C145.375 142.621 145.375 145.247 145.375 150.5V150.5C145.375 155.753 145.375 158.379 144.312 160.368C143.473 161.937 142.187 163.223 140.618 164.062C138.629 165.125 136.003 165.125 130.75 165.125H117.25C111.997 165.125 109.371 165.125 107.382 164.062C105.813 163.223 104.527 161.937 103.688 160.368C102.625 158.379 102.625 155.753 102.625 150.5V150.5Z" stroke="#C45FE9" stroke-opacity="0.3" stroke-width="1.5" stroke-linecap="round" stroke-linejoin="round"/>
<path d="M103.75 160.625H124H144.25" stroke="#C45FE9" stroke-opacity="0.3" stroke-width="1.5" stroke-linecap="round" stroke-linejoin="round"/>
<path d="M131.875 174.125H116.125" stroke="#C45FE9" stroke-opacity="0.3" stroke-width="1.5" stroke-linecap="round" stroke-linejoin="round"/>
<path d="M121.75 165.125C121.782 169.455 121.239 171.371 119.5 174.125H128.5C126.761 171.371 126.218 169.455 126.25 165.125H121.75Z" stroke="#C45FE9" stroke-opacity="0.3" stroke-width="1.5" stroke-linecap="round" stroke-linejoin="round"/>
<path d="M331.5 147.125C331.5 152.106 331.76 153.097 334.875 157.25V157.25C338.41 161.963 333.333 167.375 327.442 167.375H308.462C302.492 167.375 297.093 162.026 300.675 157.25V157.25C303.79 153.097 304.5 152.106 304.5 147.125C304.5 139.669 310.106 133.625 318 133.625C325.895 133.625 331.5 139.669 331.5 147.125Z" stroke="#010818" stroke-opacity="0.2" stroke-width="1.5" stroke-linecap="round" stroke-linejoin="round"/>
<path d="M318 176.375C322.971 176.375 327 172.346 327 167.375H309C309 172.346 313.029 176.375 318 176.375Z" stroke="#010818" stroke-opacity="0.2" stroke-width="1.5" stroke-linecap="round" stroke-linejoin="round"/>
<rect x="494" y="138.125" width="36" height="36" rx="14.625" stroke="#C45FE9" stroke-opacity="0.3" stroke-width="1.5" stroke-linecap="round" stroke-linejoin="round"/>
<path d="M512 148.25V152.75C512 154.871 512 155.932 512.659 156.591C513.318 157.25 514.379 157.25 516.5 157.25H521" stroke="#C45FE9" stroke-opacity="0.3" stroke-width="1.5" stroke-linecap="round" stroke-linejoin="round"/>
<path d="M498.13 134.75C495.333 136.587 492.931 138.975 491.078 141.759" stroke="#C45FE9" stroke-opacity="0.3" stroke-width="1.5" stroke-linecap="round" stroke-linejoin="round"/>
<path d="M526.258 134.75C529.055 136.587 531.457 138.975 533.31 141.759" stroke="#C45FE9" stroke-opacity="0.3" stroke-width="1.5" stroke-linecap="round" stroke-linejoin="round"/>
<path d="M493.787 176.375L498.942 171.224" stroke="#C45FE9" stroke-opacity="0.3" stroke-width="1.5" stroke-linecap="round" stroke-linejoin="round"/>
<path d="M530 176.375L524.962 171.312" stroke="#C45FE9" stroke-opacity="0.3" stroke-width="1.5" stroke-linecap="round" stroke-linejoin="round"/>
<path d="M27 210C28.7842 210 31.0307 213.235 32.954 216.772C35.0119 220.557 36.0408 222.45 35.0597 224.1C34.0785 225.75 31.7926 225.75 27.2208 225.75H26.7792C22.2074 225.75 19.9215 225.75 18.9403 224.1C17.9592 222.45 18.9881 220.557 21.046 216.772C22.9693 213.235 25.2158 210 27 210Z" stroke="#C45FE9" stroke-opacity="0.3" stroke-width="1.5" stroke-linecap="round" stroke-linejoin="round"/>
<path d="M5.625 219C5.625 211.651 5.625 207.977 7.01722 205.154C8.33162 202.489 10.4888 200.332 13.1541 199.017C15.9772 197.625 19.6515 197.625 27 197.625V197.625C34.3485 197.625 38.0228 197.625 40.8459 199.017C43.5112 200.332 45.6684 202.489 46.9828 205.154C48.375 207.977 48.375 211.651 48.375 219V219C48.375 226.349 48.375 230.023 46.9828 232.846C45.6684 235.511 43.5112 237.668 40.8459 238.983C38.0228 240.375 34.3485 240.375 27 240.375V240.375C19.6515 240.375 15.9772 240.375 13.1541 238.983C10.4888 237.668 8.33162 235.511 7.01722 232.846C5.625 230.023 5.625 226.349 5.625 219V219Z" stroke="#C45FE9" stroke-opacity="0.3" stroke-width="1.5" stroke-linejoin="round"/>
<path d="M203 215.625V222.375C203 230.86 203 235.103 205.636 237.739C208.272 240.375 212.515 240.375 221 240.375C229.485 240.375 233.728 240.375 236.364 237.739C239 235.103 239 230.86 239 222.375V207.75L228.822 197.625H221C212.515 197.625 208.272 197.625 205.636 200.261C203 202.897 203 207.14 203 215.625Z" stroke="#010818" stroke-opacity="0.2" stroke-width="1.5" stroke-linecap="round" stroke-linejoin="round"/>
<path d="M239 207.75H235.572C232.39 207.75 230.799 207.75 229.811 206.761C228.822 205.773 228.822 204.182 228.822 201V197.625" stroke="#010818" stroke-opacity="0.2" stroke-width="1.5" stroke-linecap="round" stroke-linejoin="round"/>
<path d="M221 215.625V229.125" stroke="#010818" stroke-opacity="0.2" stroke-width="1.5" stroke-linecap="round" stroke-linejoin="round"/>
<path d="M214.25 222.375H227.75" stroke="#010818" stroke-opacity="0.2" stroke-width="1.5" stroke-linecap="round" stroke-linejoin="round"/>
<path d="M436.375 216.75V216.75C434.941 216.75 434.224 216.75 433.637 216.523C432.886 216.232 432.263 215.683 431.882 214.974C431.584 214.419 431.495 213.707 431.317 212.285L431.261 211.841C430.646 206.92 430.339 204.459 429.098 202.653C428.259 201.433 427.132 200.438 425.818 199.757C423.871 198.75 421.392 198.75 416.432 198.75H413.568C408.608 198.75 406.129 198.75 404.182 199.757C402.868 200.438 401.741 201.433 400.902 202.653C399.661 204.459 399.354 206.92 398.739 211.841L398.683 212.285C398.505 213.707 398.416 214.419 398.118 214.974C397.737 215.683 397.114 216.232 396.363 216.523C395.776 216.75 395.059 216.75 393.625 216.75V216.75" stroke="#C45FE9" stroke-opacity="0.3" stroke-width="1.5" stroke-linecap="round" stroke-linejoin="round"/>
<path d="M393.625 216.75H436.375" stroke="#C45FE9" stroke-opacity="0.3" stroke-width="1.5" stroke-linecap="round" stroke-linejoin="round"/>
<rect x="419.5" y="224.625" width="13.5" height="13.5" rx="5.625" stroke="#C45FE9" stroke-opacity="0.3" stroke-width="1.5" stroke-linejoin="round"/>
<path d="M419.715 228.368C418.262 227.768 416.67 227.438 415 227.438C413.33 227.438 411.738 227.768 410.285 228.368" stroke="#C45FE9" stroke-opacity="0.3" stroke-width="1.5" stroke-linecap="round" stroke-linejoin="round"/>
<rect x="397" y="224.625" width="13.5" height="13.5" rx="5.625" stroke="#C45FE9" stroke-opacity="0.3" stroke-width="1.5" stroke-linejoin="round"/>
<path d="M618 219C618 220.784 614.765 223.031 611.228 224.954C607.443 227.012 605.55 228.041 603.9 227.06C602.25 226.079 602.25 223.793 602.25 219.221L602.25 218.779C602.25 214.207 602.25 211.921 603.9 210.94C605.55 209.959 607.443 210.988 611.228 213.046C614.765 214.969 618 217.216 618 219Z" stroke="#010818" stroke-opacity="0.2" stroke-width="1.5" stroke-linecap="round" stroke-linejoin="round"/>
<path d="M609 197.625C616.349 197.625 620.023 197.625 622.846 199.017C625.511 200.332 627.668 202.489 628.983 205.154C630.375 207.977 630.375 211.651 630.375 219V219C630.375 226.349 630.375 230.023 628.983 232.846C627.668 235.511 625.511 237.668 622.846 238.983C620.023 240.375 616.349 240.375 609 240.375V240.375C601.651 240.375 597.977 240.375 595.154 238.983C592.489 237.668 590.332 235.511 589.017 232.846C587.625 230.023 587.625 226.349 587.625 219V219C587.625 211.651 587.625 207.977 589.017 205.154C590.332 202.489 592.489 200.332 595.154 199.017C597.977 197.625 601.651 197.625 609 197.625V197.625Z" stroke="#010818" stroke-opacity="0.2" stroke-width="1.5" stroke-linejoin="round"/>
<path d="M124 304.375L124 297.625" stroke="#010818" stroke-opacity="0.2" stroke-width="1.5" stroke-linecap="round" stroke-linejoin="round"/>
<path d="M111.071 290.875C117.243 299.724 130.753 299.724 136.925 290.875" stroke="#010818" stroke-opacity="0.2" stroke-width="1.5" stroke-linecap="round" stroke-linejoin="round"/>
<path d="M115.38 265.093C119.809 260.469 128.191 260.469 132.62 265.093C137.627 270.322 137.627 284.428 132.62 289.657C128.191 294.281 119.809 294.281 115.38 289.657C110.373 284.428 110.373 270.322 115.38 265.093Z" stroke="#010818" stroke-opacity="0.2" stroke-width="1.5" stroke-linecap="round" stroke-linejoin="round"/>
<path d="M301.688 268.375L301.53 278.479C301.343 290.444 301.249 296.427 304.881 300.119C305.009 300.25 305.141 300.377 305.275 300.502C309.067 304.03 315.045 303.77 327 303.25V303.25" stroke="#C45FE9" stroke-opacity="0.3" stroke-width="1.5" stroke-linecap="round" stroke-linejoin="round"/>
<path d="M320.25 298.75H321.375C327.739 298.75 330.921 298.75 332.898 296.773C334.875 294.796 334.875 291.614 334.875 285.25V270.625L325.822 261.625H320.25C313.886 261.625 310.704 261.625 308.727 263.602C306.75 265.579 306.75 268.761 306.75 275.125V285.25C306.75 291.614 306.75 294.796 308.727 296.773C310.704 298.75 313.886 298.75 320.25 298.75Z" stroke="#C45FE9" stroke-opacity="0.3" stroke-width="1.5" stroke-linecap="round" stroke-linejoin="round"/>
<path d="M334.875 270.625H332.625C329.443 270.625 327.852 270.625 326.864 269.636C325.875 268.648 325.875 267.057 325.875 263.875V261.625" stroke="#C45FE9" stroke-opacity="0.3" stroke-width="1.5" stroke-linecap="round" stroke-linejoin="round"/>
<path d="M490.625 274.427C490.625 271.936 490.625 270.69 490.95 269.681C491.616 267.612 493.237 265.991 495.306 265.325C496.315 265 497.561 265 500.052 265V265C500.737 265 501.079 265 501.408 265.049C502.076 265.148 502.713 265.396 503.272 265.775C503.546 265.961 503.799 266.193 504.303 266.656L504.95 267.25C506.667 268.827 507.525 269.615 508.567 270.067C508.724 270.135 508.883 270.197 509.045 270.253C510.118 270.625 511.284 270.625 513.615 270.625H518.75C524.003 270.625 526.629 270.625 528.618 271.688C530.187 272.527 531.473 273.813 532.312 275.382C533.375 277.371 533.375 279.997 533.375 285.25V285.25C533.375 290.503 533.375 293.129 532.312 295.118C531.473 296.687 530.187 297.973 528.618 298.812C526.629 299.875 524.003 299.875 518.75 299.875H508.625C500.14 299.875 495.897 299.875 493.261 297.239C490.625 294.603 490.625 290.36 490.625 281.875V274.427Z" stroke="#010818" stroke-opacity="0.2" stroke-width="1.5" stroke-linecap="round" stroke-linejoin="round"/>
<path d="M490.625 277.375H532.25" stroke="#010818" stroke-opacity="0.2" stroke-width="1.5" stroke-linecap="round" stroke-linejoin="round"/>
<path d="M5.625 334.625C5.625 332.533 5.625 331.486 5.855 330.628C6.47915 328.299 8.2986 326.479 10.628 325.855C11.4863 325.625 12.5326 325.625 14.625 325.625V325.625C16.7174 325.625 17.7637 325.625 18.622 325.855C20.9514 326.479 22.7708 328.299 23.395 330.628C23.625 331.486 23.625 332.533 23.625 334.625V334.625C23.625 336.717 23.625 337.764 23.395 338.622C22.7708 340.951 20.9514 342.771 18.622 343.395C17.7637 343.625 16.7174 343.625 14.625 343.625V343.625C12.5326 343.625 11.4863 343.625 10.628 343.395C8.2986 342.771 6.47915 340.951 5.855 338.622C5.625 337.764 5.625 336.717 5.625 334.625V334.625Z" stroke="#010818" stroke-opacity="0.2" stroke-width="1.5" stroke-linecap="round" stroke-linejoin="round"/>
<path d="M30.375 334.625C30.375 332.533 30.375 331.486 30.605 330.628C31.2292 328.299 33.0486 326.479 35.378 325.855C36.2363 325.625 37.2826 325.625 39.375 325.625V325.625C41.4674 325.625 42.5137 325.625 43.372 325.855C45.7014 326.479 47.5208 328.299 48.145 330.628C48.375 331.486 48.375 332.533 48.375 334.625V334.625C48.375 336.717 48.375 337.764 48.145 338.622C47.5208 340.951 45.7014 342.771 43.372 343.395C42.5137 343.625 41.4674 343.625 39.375 343.625V343.625C37.2826 343.625 36.2363 343.625 35.378 343.395C33.0486 342.771 31.2292 340.951 30.605 338.622C30.375 337.764 30.375 336.717 30.375 334.625V334.625Z" stroke="#010818" stroke-opacity="0.2" stroke-width="1.5" stroke-linecap="round" stroke-linejoin="round"/>
<path d="M5.625 359.375C5.625 357.283 5.625 356.236 5.855 355.378C6.47915 353.049 8.2986 351.229 10.628 350.605C11.4863 350.375 12.5326 350.375 14.625 350.375V350.375C16.7174 350.375 17.7637 350.375 18.622 350.605C20.9514 351.229 22.7708 353.049 23.395 355.378C23.625 356.236 23.625 357.283 23.625 359.375V359.375C23.625 361.467 23.625 362.514 23.395 363.372C22.7708 365.701 20.9514 367.521 18.622 368.145C17.7637 368.375 16.7174 368.375 14.625 368.375V368.375C12.5326 368.375 11.4863 368.375 10.628 368.145C8.2986 367.521 6.47915 365.701 5.855 363.372C5.625 362.514 5.625 361.467 5.625 359.375V359.375Z" stroke="#010818" stroke-opacity="0.2" stroke-width="1.5" stroke-linecap="round" stroke-linejoin="round"/>
<path d="M30.375 359.375C30.375 357.283 30.375 356.236 30.605 355.378C31.2292 353.049 33.0486 351.229 35.378 350.605C36.2363 350.375 37.2826 350.375 39.375 350.375V350.375C41.4674 350.375 42.5137 350.375 43.372 350.605C45.7014 351.229 47.5208 353.049 48.145 355.378C48.375 356.236 48.375 357.283 48.375 359.375V359.375C48.375 361.467 48.375 362.514 48.145 363.372C47.5208 365.701 45.7014 367.521 43.372 368.145C42.5137 368.375 41.4674 368.375 39.375 368.375V368.375C37.2826 368.375 36.2363 368.375 35.378 368.145C33.0486 367.521 31.2292 365.701 30.605 363.372C30.375 362.514 30.375 361.467 30.375 359.375V359.375Z" stroke="#010818" stroke-opacity="0.2" stroke-width="1.5" stroke-linecap="round" stroke-linejoin="round"/>
<path d="M210.875 333.5C213.133 329.401 216.952 325.625 221 325.625C225.049 325.625 228.867 329.401 231.125 333.5" stroke="#C45FE9" stroke-opacity="0.3" stroke-width="1.5" stroke-linecap="round" stroke-linejoin="round"/>
<path d="M210.917 333.4C206.515 336.175 206.209 344.098 210.917 346.362C212.244 347 214.216 346.919 215.685 346.727C216.332 346.642 216.656 346.599 217.053 346.364C217.449 346.129 217.826 345.615 218.58 344.585C218.994 344.02 219.581 343.585 220.545 343.585C221.536 343.585 222.129 344.045 222.544 344.633C223.248 345.63 223.6 346.128 223.983 346.368C224.367 346.608 224.69 346.661 225.335 346.766C227.054 347.047 229.551 347.233 231.135 346.362C235.705 343.851 235.537 336.175 231.135 333.4C226.588 330.533 215.464 330.533 210.917 333.4Z" stroke="#C45FE9" stroke-opacity="0.3" stroke-width="1.5" stroke-linecap="round" stroke-linejoin="round"/>
<path d="M207.499 335.75C207.499 335.75 205.355 335.279 204.124 335.75C201.672 336.687 203.188 341.228 204.119 343.479C204.364 344.073 204.487 344.37 204.771 344.56C205.055 344.75 205.397 344.75 206.08 344.75H207.499" stroke="#C45FE9" stroke-opacity="0.3" stroke-width="1.5" stroke-linecap="round" stroke-linejoin="round"/>
<path d="M234.501 335.75C234.501 335.75 236.645 335.279 237.876 335.75C241.165 337.008 237.314 344.75 237.314 344.75H234.501" stroke="#C45FE9" stroke-opacity="0.3" stroke-width="1.5" stroke-linecap="round" stroke-linejoin="round"/>
<path d="M218.75 335.75H223.25" stroke="#C45FE9" stroke-opacity="0.3" stroke-width="1.5" stroke-linecap="round" stroke-linejoin="round"/>
<path d="M209.656 349.25C211.566 355.21 215.927 359.375 221.002 359.375C226.076 359.375 230.437 355.21 232.347 349.25" stroke="#C45FE9" stroke-opacity="0.3" stroke-width="1.5" stroke-linecap="round" stroke-linejoin="round"/>
<path d="M237.877 362.187C244.522 370.47 197.476 370.472 204.126 362.187C210.777 353.902 214.234 356.629 214.234 356.629C214.234 356.629 218.504 359.375 221.002 359.375C223.5 359.375 227.771 356.629 227.771 356.629C227.771 356.629 231.232 353.904 237.877 362.187Z" stroke="#C45FE9" stroke-opacity="0.3" stroke-width="1.5" stroke-linecap="round" stroke-linejoin="round"/>
<path d="M422.232 344.75C422.829 344.75 423.128 344.75 423.38 344.764C427.953 345.021 431.604 348.672 431.861 353.245C431.875 353.497 431.875 353.796 431.875 354.393V356.562C431.875 359.178 431.875 360.485 431.605 361.562C430.798 364.783 428.283 367.298 425.062 368.105C423.985 368.375 422.678 368.375 420.062 368.375H409.938C407.322 368.375 406.015 368.375 404.938 368.105C401.717 367.298 399.202 364.783 398.395 361.562C398.125 360.485 398.125 359.178 398.125 356.562V354.393C398.125 353.796 398.125 353.497 398.139 353.245C398.396 348.672 402.047 345.021 406.62 344.764C406.872 344.75 407.171 344.75 407.768 344.75" stroke="#010818" stroke-opacity="0.2" stroke-width="1.5" stroke-linecap="round" stroke-linejoin="round"/>
<path d="M415 351.5V325.625" stroke="#010818" stroke-opacity="0.2" stroke-width="1.5" stroke-linecap="round" stroke-linejoin="round"/>
<path d="M406 334.625C406 334.625 412.279 325.625 415 325.625C417.721 325.625 424 334.625 424 334.625" stroke="#010818" stroke-opacity="0.2" stroke-width="1.5" stroke-linecap="round" stroke-linejoin="round"/>
<rect x="594.375" y="332.375" width="29.25" height="29.25" rx="10.125" stroke="#C45FE9" stroke-opacity="0.3" stroke-width="1.5"/>
<path d="M587.062 347H589.312" stroke="#C45FE9" stroke-opacity="0.3" stroke-width="1.5" stroke-linecap="round" stroke-linejoin="round"/>
<path d="M592.125 330.125L593.901 331.901" stroke="#C45FE9" stroke-opacity="0.3" stroke-width="1.5" stroke-linecap="round" stroke-linejoin="round"/>
<path d="M628.688 347H630.938" stroke="#C45FE9" stroke-opacity="0.3" stroke-width="1.5" stroke-linecap="round" stroke-linejoin="round"/>
<path d="M624.1 362.099L625.876 363.875" stroke="#C45FE9" stroke-opacity="0.3" stroke-width="1.5" stroke-linecap="round" stroke-linejoin="round"/>
<path d="M609 325.625L609 327.875" stroke="#C45FE9" stroke-opacity="0.3" stroke-width="1.5" stroke-linecap="round" stroke-linejoin="round"/>
<path d="M625.875 330.125L624.099 331.901" stroke="#C45FE9" stroke-opacity="0.3" stroke-width="1.5" stroke-linecap="round" stroke-linejoin="round"/>
<path d="M609 366.688L609 368.938" stroke="#C45FE9" stroke-opacity="0.3" stroke-width="1.5" stroke-linecap="round" stroke-linejoin="round"/>
<path d="M588.262 355.804L590.445 354.878" stroke="#C45FE9" stroke-opacity="0.3" stroke-width="1.5" stroke-linecap="round" stroke-linejoin="round"/>
<path d="M627.561 339.124L629.744 338.197" stroke="#C45FE9" stroke-opacity="0.3" stroke-width="1.5" stroke-linecap="round" stroke-linejoin="round"/>
<path d="M600.2 326.261L601.127 328.444" stroke="#C45FE9" stroke-opacity="0.3" stroke-width="1.5" stroke-linecap="round" stroke-linejoin="round"/>
<path d="M616.879 365.557L617.806 367.74" stroke="#C45FE9" stroke-opacity="0.3" stroke-width="1.5" stroke-linecap="round" stroke-linejoin="round"/>
<path d="M629.744 355.804L627.561 354.877" stroke="#C45FE9" stroke-opacity="0.3" stroke-width="1.5" stroke-linecap="round" stroke-linejoin="round"/>
<path d="M590.446 339.124L588.263 338.197" stroke="#C45FE9" stroke-opacity="0.3" stroke-width="1.5" stroke-linecap="round" stroke-linejoin="round"/>
<path d="M617.807 326.261L616.88 328.444" stroke="#C45FE9" stroke-opacity="0.3" stroke-width="1.5" stroke-linecap="round" stroke-linejoin="round"/>
<path d="M601.127 365.557L600.2 367.74" stroke="#C45FE9" stroke-opacity="0.3" stroke-width="1.5" stroke-linecap="round" stroke-linejoin="round"/>
<path d="M593.9 362.099L592.124 363.875" stroke="#C45FE9" stroke-opacity="0.3" stroke-width="1.5" stroke-linecap="round" stroke-linejoin="round"/>
<path d="M598.312 359.375C598.689 358.813 599.065 358.251 599.438 357.688C600.77 355.854 601.841 354.872 603.851 354.21C604.865 353.876 605.625 352.984 605.625 351.917V351.152C605.625 350.514 605.338 349.92 604.941 349.422C603.971 348.209 603.375 346.563 603.375 344.75C603.375 341.022 605.894 338 609 338C612.107 338 614.625 341.022 614.625 344.75C614.625 346.563 614.03 348.209 613.06 349.422C612.662 349.92 612.375 350.514 612.375 351.152V351.858C612.375 352.952 613.174 353.851 614.215 354.187C616.078 354.788 617.173 355.78 618.563 357.688L619.688 359.375" stroke="#C45FE9" stroke-opacity="0.3" stroke-width="1.5" stroke-linecap="round" stroke-linejoin="round"/>
<path d="M106.777 402.184C108.021 396.169 108.643 393.162 110.815 391.393C112.987 389.625 116.058 389.625 122.2 389.625H125.8C131.942 389.625 135.013 389.625 137.185 391.393C139.357 393.162 139.979 396.169 141.223 402.184L145.185 421.329C145.212 421.46 145.225 421.526 145.238 421.592C145.321 422.031 145.366 422.476 145.374 422.923C145.375 422.989 145.375 423.056 145.375 423.19V423.19C145.375 424.407 145.375 425.015 145.308 425.526C144.843 429.061 142.061 431.843 138.526 432.308C138.015 432.375 137.407 432.375 136.19 432.375H111.81C110.593 432.375 109.985 432.375 109.474 432.308C105.939 431.843 103.157 429.061 102.692 425.526C102.625 425.015 102.625 424.407 102.625 423.19V423.19C102.625 423.056 102.625 422.989 102.626 422.923C102.634 422.476 102.679 422.031 102.762 421.592C102.775 421.526 102.788 421.46 102.815 421.329L106.777 402.184Z" stroke="#C45FE9" stroke-opacity="0.3" stroke-width="1.5" stroke-linecap="round" stroke-linejoin="round"/>
<path d="M102.625 422.25H124H145.375" stroke="#C45FE9" stroke-opacity="0.3" stroke-width="1.5" stroke-linecap="round" stroke-linejoin="round"/>
<path d="M116.125 406.5L124 414.375L131.875 406.5" stroke="#C45FE9" stroke-opacity="0.3" stroke-width="1.5" stroke-linecap="round" stroke-linejoin="round"/>
<path d="M124 414.375L124 398.625" stroke="#C45FE9" stroke-opacity="0.3" stroke-width="1.5" stroke-linecap="round" stroke-linejoin="round"/>
<path d="M318 389.625H314.625C306.14 389.625 301.897 389.625 299.261 392.261C296.625 394.897 296.625 399.14 296.625 407.625V414.375C296.625 422.86 296.625 427.103 299.261 429.739C301.897 432.375 306.14 432.375 314.625 432.375H321.375C329.86 432.375 334.103 432.375 336.739 429.739C339.375 427.103 339.375 422.86 339.375 414.375V411" stroke="#010818" stroke-opacity="0.2" stroke-width="1.5" stroke-linecap="round" stroke-linejoin="round"/>
<path d="M335.808 393.933L335.067 393.192C333.339 391.464 332.475 390.6 331.286 390.476C330.096 390.351 329.13 390.98 327.197 392.238C321.055 396.235 310.251 404.347 307.875 413.25C306.962 416.672 304.245 419.745 306.75 422.25C309.255 424.755 312.328 422.038 315.75 421.125C324.653 418.749 332.765 407.945 336.762 401.803C338.02 399.87 338.648 398.904 338.524 397.714C338.4 396.525 337.536 395.661 335.808 393.933Z" stroke="#010818" stroke-opacity="0.2" stroke-width="1.5" stroke-linecap="round" stroke-linejoin="round"/>
<path d="M324.75 394.125L334.875 404.25" stroke="#010818" stroke-opacity="0.2" stroke-width="1.5" stroke-linecap="round" stroke-linejoin="round"/>
<path d="M509.75 427.875C499.188 427.875 490.625 419.312 490.625 408.75C490.625 398.188 499.188 389.625 509.75 389.625C520.312 389.625 528.875 398.188 528.875 408.75" stroke="#C45FE9" stroke-opacity="0.3" stroke-width="1.5" stroke-linecap="round" stroke-linejoin="round"/>
<path d="M509.75 422.25C502.294 422.25 496.25 416.206 496.25 408.75C496.25 401.294 502.294 395.25 509.75 395.25C517.206 395.25 523.25 401.294 523.25 408.75" stroke="#C45FE9" stroke-opacity="0.3" stroke-width="1.5" stroke-linecap="round" stroke-linejoin="round"/>
<path d="M525.464 418.921C527.645 417.973 528.736 417.5 528.724 416.749C528.712 415.998 527.65 415.577 525.526 414.733C520.872 412.886 514.515 410.734 513.125 412.127C511.745 413.512 513.864 419.805 515.703 424.45C516.553 426.597 516.978 427.671 517.728 427.684C518.478 427.697 518.961 426.591 519.926 424.379C520.59 422.856 521.304 421.449 521.876 420.878C522.416 420.338 523.882 419.608 525.464 418.921Z" stroke="#C45FE9" stroke-opacity="0.3" stroke-width="1.5" stroke-linecap="round" stroke-linejoin="round"/>
<path d="M27 453.625C34.3485 453.625 38.0228 453.625 40.8459 455.017C43.5112 456.332 45.6684 458.489 46.9828 461.154C48.375 463.977 48.375 467.651 48.375 475V475C48.375 482.349 48.375 486.023 46.9828 488.846C45.6684 491.511 43.5112 493.668 40.8459 494.983C38.0228 496.375 34.3485 496.375 27 496.375V496.375C19.6515 496.375 15.9772 496.375 13.1541 494.983C10.4888 493.668 8.33162 491.511 7.01722 488.846C5.625 486.023 5.625 482.349 5.625 475V475C5.625 467.651 5.625 463.977 7.01722 461.154C8.33162 458.489 10.4888 456.332 13.1541 455.017C15.9772 453.625 19.6515 453.625 27 453.625V453.625Z" stroke="#C45FE9" stroke-opacity="0.3" stroke-width="1.5" stroke-linejoin="round"/>
<path d="M29.2499 472.75C28.007 471.508 25.8745 471.625 24.7499 472.75C23.6255 473.875 20.8124 488.5 26.9997 488.5C33.1874 488.5 30.3755 473.875 29.2499 472.75Z" stroke="#C45FE9" stroke-opacity="0.3" stroke-width="1.5" stroke-linecap="round" stroke-linejoin="round"/>
<path d="M23.625 464.875C23.625 463.827 23.625 463.302 23.7963 462.889C24.0246 462.338 24.4626 461.9 25.014 461.671C25.4274 461.5 25.9516 461.5 27 461.5V461.5C28.0484 461.5 28.5726 461.5 28.986 461.671C29.5374 461.9 29.9754 462.338 30.2037 462.889C30.375 463.302 30.375 463.827 30.375 464.875V464.875C30.375 465.923 30.375 466.448 30.2037 466.861C29.9754 467.412 29.5374 467.85 28.986 468.079C28.5726 468.25 28.0484 468.25 27 468.25V468.25C25.9516 468.25 25.4274 468.25 25.014 468.079C24.4626 467.85 24.0246 467.412 23.7963 466.861C23.625 466.448 23.625 465.923 23.625 464.875V464.875Z" stroke="#C45FE9" stroke-opacity="0.3" stroke-width="1.5" stroke-linecap="round" stroke-linejoin="round"/>
<rect x="199.625" y="453.625" width="42.75" height="42.75" rx="13.5" stroke="#010818" stroke-opacity="0.2" stroke-width="1.5" stroke-linecap="round" stroke-linejoin="round"/>
<path d="M232.25 463.751L209.75 486.251" stroke="#010818" stroke-opacity="0.2" stroke-width="1.5" stroke-linecap="round" stroke-linejoin="round"/>
<path d="M209.754 463.75L232.253 486.25" stroke="#010818" stroke-opacity="0.2" stroke-width="1.5" stroke-linecap="round" stroke-linejoin="round"/>
<path d="M397.979 459.705C396.293 457.045 395.449 455.715 395.939 455.09C396.429 454.465 397.866 454.946 400.74 455.909C412.899 459.984 436.375 468.671 436.375 475C436.375 481.329 412.899 490.016 400.74 494.091C397.866 495.054 396.429 495.535 395.939 494.91C395.449 494.285 396.293 492.955 397.979 490.295C400.723 485.968 403.75 480.05 403.75 475C403.75 469.95 400.723 464.032 397.979 459.705Z" stroke="#C45FE9" stroke-opacity="0.3" stroke-width="1.5" stroke-linecap="round" stroke-linejoin="round"/>
<path d="M403.975 475L416.125 475" stroke="#C45FE9" stroke-opacity="0.3" stroke-width="1.5" stroke-linecap="round" stroke-linejoin="round"/>
<path d="M621.375 464.875H596.625C594.533 464.875 593.486 464.875 592.628 465.105C590.299 465.729 588.479 467.549 587.855 469.878C587.625 470.736 587.625 471.783 587.625 473.875C587.625 475.967 587.625 477.014 587.855 477.872C588.479 480.201 590.299 482.021 592.628 482.645C593.486 482.875 594.533 482.875 596.625 482.875C596.625 479.768 599.143 477.25 602.25 477.25H615.75C618.857 477.25 621.375 479.768 621.375 482.875C623.467 482.875 624.514 482.875 625.372 482.645C627.701 482.021 629.521 480.201 630.145 477.872C630.375 477.014 630.375 475.967 630.375 473.875C630.375 471.783 630.375 470.736 630.145 469.878C629.521 467.549 627.701 465.729 625.372 465.105C624.514 464.875 623.467 464.875 621.375 464.875Z" stroke="#010818" stroke-opacity="0.2" stroke-width="1.5" stroke-linecap="round" stroke-linejoin="round"/>
<path d="M596.625 464.875C596.625 460.669 596.625 458.566 597.529 457C598.122 455.974 598.974 455.122 600 454.529C601.566 453.625 603.669 453.625 607.875 453.625H610.125C614.331 453.625 616.434 453.625 618 454.529C619.026 455.122 619.878 455.974 620.471 457C621.375 458.566 621.375 460.669 621.375 464.875V464.875H596.625V464.875Z" stroke="#010818" stroke-opacity="0.2" stroke-width="1.5" stroke-linecap="round" stroke-linejoin="round"/>
<circle cx="2.25" cy="2.25" r="2.25" transform="matrix(-1 0 0 1 625.875 468.25)" stroke="#010818" stroke-opacity="0.2" stroke-width="1.5" stroke-linecap="round" stroke-linejoin="round"/>
<path d="M592.125 466V469.375H596.625V464.875" stroke="#010818" stroke-opacity="0.2" stroke-width="1.5" stroke-linecap="round" stroke-linejoin="round"/>
<rect x="596.625" y="477.25" width="24.75" height="19.125" rx="6.75" stroke="#010818" stroke-opacity="0.2" stroke-width="1.5" stroke-linecap="round" stroke-linejoin="round"/>
<path d="M601.125 484H616.875" stroke="#010818" stroke-opacity="0.2" stroke-width="1.5" stroke-linecap="round" stroke-linejoin="round"/>
<path d="M601.125 489.625H616.875" stroke="#010818" stroke-opacity="0.2" stroke-width="1.5" stroke-linecap="round" stroke-linejoin="round"/>
<rect x="102.625" y="517.625" width="42.75" height="42.75" rx="13.5" stroke="#010818" stroke-opacity="0.2" stroke-width="1.5" stroke-linecap="round" stroke-linejoin="round"/>
<path d="M111.625 551.375L113.875 549.125M126.25 536.75C129.659 536.75 131.382 536.75 134.338 536.75C135.074 536.75 135.443 536.75 135.739 536.534C136.035 536.317 136.136 536.003 136.338 535.373C136.811 533.896 136.895 532.628 136.688 531.213C136.464 529.674 136.351 528.905 135.707 528.68C135.063 528.456 134.445 529.037 133.209 530.2L129.062 534.103M126.25 536.75L122.875 540.125L122.312 540.688M126.25 536.75L129.062 534.103M122.312 540.688H135.25M122.312 540.688L118.375 544.625M118.375 544.625C121.043 544.625 122.722 544.625 124.585 544.625C126.557 544.625 127.543 544.625 127.737 545.509C127.931 546.392 127.171 546.743 125.649 547.446C123.254 548.552 119.754 548.989 113.875 549.125M118.375 544.625L113.875 549.125M113.875 549.125V542.375C113.875 536.968 119.114 531.678 125.992 528.075C127.315 527.382 127.977 527.035 128.52 527.363C129.062 527.692 129.062 528.468 129.062 530.022V534.103" stroke="#010818" stroke-opacity="0.2" stroke-width="1.5" stroke-linecap="round" stroke-linejoin="round"/>
<path d="M324.75 524.375C321.252 523.086 320.603 517.625 318 517.625C315.397 517.625 314.748 523.086 311.25 524.375C308.364 525.438 305.063 522.688 303.375 524.375C301.688 526.062 304.438 529.364 303.375 532.25C302.086 535.748 296.625 536.397 296.625 539C296.625 541.603 302.086 542.252 303.375 545.75C304.438 548.636 301.687 551.938 303.375 553.625C305.062 555.312 308.364 552.562 311.25 553.625C314.748 554.914 315.397 560.375 318 560.375C320.603 560.375 321.252 554.914 324.75 553.625C327.636 552.562 330.938 555.312 332.625 553.625C334.312 551.938 331.562 548.636 332.625 545.75C333.914 542.252 339.375 541.603 339.375 539C339.375 536.397 333.914 535.748 332.625 532.25C331.562 529.364 334.312 526.062 332.625 524.375C330.938 522.688 327.636 525.438 324.75 524.375Z" stroke="#C45FE9" stroke-opacity="0.3" stroke-width="1.5" stroke-linecap="round" stroke-linejoin="round"/>
<path d="M318 532.25L318 545.75" stroke="#C45FE9" stroke-opacity="0.3" stroke-width="1.5" stroke-linecap="round" stroke-linejoin="round"/>
<path d="M324.75 539H311.25" stroke="#C45FE9" stroke-opacity="0.3" stroke-width="1.5" stroke-linecap="round" stroke-linejoin="round"/>
<path d="M506.375 531.655C506.375 527.104 506.375 524.828 507.708 523.254C509.041 521.681 511.286 521.307 515.775 520.558L520.275 519.808C526.356 518.795 529.397 518.288 531.386 519.973C533.375 521.658 533.375 524.741 533.375 530.905V547.095C533.375 553.26 533.375 556.342 531.386 558.027C529.397 559.712 526.356 559.205 520.276 558.192L515.776 557.442C511.286 556.693 509.041 556.319 507.708 554.746C506.375 553.172 506.375 550.896 506.375 546.345V531.655Z" stroke="#010818" stroke-opacity="0.2" stroke-width="1.5" stroke-linecap="round" stroke-linejoin="round"/>
<path d="M513.125 529.438V548.563C513.125 549.085 513.125 549.347 513.168 549.564C513.346 550.457 514.043 551.154 514.936 551.332C515.153 551.375 515.415 551.375 515.938 551.375C516.46 551.375 516.722 551.375 516.939 551.332C517.832 551.154 518.529 550.457 518.707 549.564C518.75 549.347 518.75 549.085 518.75 548.562V529.437C518.75 528.915 518.75 528.653 518.707 528.436C518.529 527.543 517.832 526.846 516.939 526.668C516.722 526.625 516.46 526.625 515.938 526.625C515.415 526.625 515.153 526.625 514.936 526.668C514.043 526.846 513.346 527.543 513.168 528.436C513.125 528.653 513.125 528.915 513.125 529.438Z" stroke="#010818" stroke-opacity="0.2" stroke-width="1.5" stroke-linecap="round" stroke-linejoin="round"/>
<path d="M490.625 530C495.596 530 499.625 535.904 499.625 539C499.625 542.096 495.596 548 490.625 548C488.096 548 488.096 530 490.625 530Z" stroke="#010818" stroke-opacity="0.2" stroke-width="1.5" stroke-linecap="round" stroke-linejoin="round"/>
</svg>
