<svg width="290" height="207" viewBox="0 0 290 207" fill="none" xmlns="http://www.w3.org/2000/svg">
<rect x="4.66797" y="7.59961" width="31.6667" height="28.3333" rx="2" stroke="#01AB31" stroke-width="2" stroke-linejoin="round"/>
<path d="M9.66797 4.2666V7.59993" stroke="#01AB31" stroke-width="2" stroke-linecap="round" stroke-linejoin="round"/>
<path d="M31.332 4.2666V7.59993" stroke="#01AB31" stroke-width="2" stroke-linecap="round" stroke-linejoin="round"/>
<path d="M4.66797 14.2666H36.3346" stroke="#01AB31" stroke-width="2" stroke-linecap="round" stroke-linejoin="round"/>
<rect x="13" y="17.5996" width="15" height="15" rx="7.5" stroke="#01AB31" stroke-width="2" stroke-linejoin="round"/>
<path d="M24.6654 25.0993L20.4984 25.0994M20.4984 25.0994L20.4987 29.266M20.4984 25.0994L16.332 25.0993M20.4984 25.0994V20.9326" stroke="#01AB31" stroke-width="2" stroke-linecap="round" stroke-linejoin="round"/>
<rect x="87.667" y="4.2666" width="31.6667" height="31.6667" rx="2" stroke="#01AB31" stroke-width="2" stroke-linejoin="round"/>
<path d="M99.8636 15.0996C97.0834 16.4502 95.167 19.3011 95.167 22.5996C95.167 27.202 98.898 30.9329 103.5 30.9329C108.103 30.9329 111.834 27.202 111.834 22.5996C111.834 19.3011 109.917 16.4502 107.137 15.0996" stroke="#01AB31" stroke-width="2" stroke-linecap="round"/>
<path d="M103.5 9.2666V22.5999" stroke="#01AB31" stroke-width="2" stroke-linecap="round" stroke-linejoin="round"/>
<path d="M175.167 35.9333H197C198.105 35.9333 199 35.0378 199 33.9333V10.9333L192.334 4.2666H175.167C174.062 4.2666 173.167 5.16203 173.167 6.2666V33.9333C173.167 35.0378 174.062 35.9333 175.167 35.9333Z" stroke="#01AB31" stroke-width="2" stroke-linecap="round"/>
<path d="M192.333 4.2666V10.9333H199" stroke="#01AB31" stroke-width="2" stroke-linecap="round" stroke-linejoin="round"/>
<path d="M178.167 31.7666H193.167" stroke="#01AB31" stroke-width="2" stroke-linecap="round" stroke-linejoin="round"/>
<path d="M178.167 27.5996H193.167" stroke="#01AB31" stroke-width="2" stroke-linecap="round" stroke-linejoin="round"/>
<path d="M178.167 23.4326H193.167" stroke="#01AB31" stroke-width="2" stroke-linecap="round" stroke-linejoin="round"/>
<path d="M260.335 25.9329H255.668C254.563 25.9329 253.668 25.0375 253.668 23.9329V14.5996C253.668 13.495 254.563 12.5996 255.668 12.5996H283.335C284.439 12.5996 285.335 13.495 285.335 14.5996V23.9329C285.335 25.0375 284.439 25.9329 283.335 25.9329H278.668" stroke="#01AB31" stroke-width="2" stroke-linejoin="round"/>
<path d="M260.332 6.2666C260.332 5.16203 261.227 4.2666 262.332 4.2666H276.665C277.77 4.2666 278.665 5.16203 278.665 6.2666V12.5999H260.332V6.2666Z" stroke="#01AB31" stroke-width="2" stroke-linejoin="round"/>
<circle cx="1.66667" cy="1.66667" r="1.66667" transform="matrix(-1 0 0 1 282 15.0996)" stroke="#01AB31" stroke-width="2"/>
<path d="M257 12.5996V15.9329H260.333V12.5996" stroke="#01AB31" stroke-width="2" stroke-linecap="round" stroke-linejoin="round"/>
<rect x="260.332" y="21.7666" width="18.3333" height="14.1667" rx="2" stroke="#01AB31" stroke-width="2" stroke-linejoin="round"/>
<path d="M263.668 26.7666H275.335" stroke="#01AB31" stroke-width="2" stroke-linecap="round"/>
<path d="M263.668 30.9326H275.335" stroke="#01AB31" stroke-width="2" stroke-linecap="round"/>
<path d="M33.8346 105.6C33.8346 112.964 27.8651 118.933 20.5013 118.933C13.1375 118.933 7.16797 112.964 7.16797 105.6C7.16797 98.2361 13.1375 92.2666 20.5013 92.2666C27.8651 92.2666 33.8346 98.2361 33.8346 105.6Z" stroke="#01AB31" stroke-width="2" stroke-linecap="round" stroke-linejoin="round"/>
<path d="M20.5 98.9326V105.599H27.1667" stroke="#01AB31" stroke-width="2" stroke-linecap="round" stroke-linejoin="round"/>
<path d="M7.58203 117.683L10.6664 114.599" stroke="#01AB31" stroke-width="2" stroke-linecap="round" stroke-linejoin="round"/>
<path d="M30.3418 114.608L33.833 118.1" stroke="#01AB31" stroke-width="2" stroke-linecap="round" stroke-linejoin="round"/>
<path d="M9.54883 92.1484C10.2155 92.8151 10.0423 92.6416 12.4034 95.0027" stroke="#01AB31" stroke-width="2" stroke-linecap="round" stroke-linejoin="round"/>
<path d="M31.4375 92.1621L28.5987 95.0009" stroke="#01AB31" stroke-width="2" stroke-linecap="round" stroke-linejoin="round"/>
<path d="M6.09774 88.6964C4.19138 90.6027 4.19138 93.6936 6.09774 95.5999L13.0013 88.6964C11.0949 86.79 8.00411 86.79 6.09774 88.6964Z" stroke="#01AB31" stroke-width="2" stroke-linejoin="round"/>
<path d="M34.9023 88.6964C36.8086 90.6027 36.8086 93.6936 34.9023 95.5999L27.9987 88.6964C29.9051 86.79 32.9959 86.79 34.9023 88.6964Z" stroke="#01AB31" stroke-width="2" stroke-linejoin="round"/>
<path d="M106.001 118.933H92.168C91.0634 118.933 90.168 118.038 90.168 116.933V89.2666C90.168 88.162 91.0634 87.2666 92.168 87.2666H109.335L116.001 93.9333V99.7666" stroke="#01AB31" stroke-width="2" stroke-linecap="round"/>
<path d="M109.332 87.2666V93.9333H115.999" stroke="#01AB31" stroke-width="2" stroke-linecap="round"/>
<path d="M116.801 105.989L116.833 115.245C116.84 117.29 114.734 118.94 112.698 118.933C110.661 118.926 108.543 117.261 108.536 115.216L108.5 105.034C108.495 103.5 109.729 102.261 111.256 102.267C112.784 102.272 114.026 103.52 114.032 105.053L114.063 113.847C114.065 114.614 113.448 115.233 112.685 115.231C111.921 115.228 111.299 114.604 111.297 113.837L111.269 105.969" stroke="#01AB31" stroke-width="2" stroke-linecap="round" stroke-linejoin="round"/>
<path d="M176.501 118.933C179.723 118.933 182.335 116.322 182.335 113.1C182.335 112.521 182.25 111.961 182.093 111.433L198.601 94.7827C200.666 92.7001 200.658 89.3403 198.585 87.2666L178.168 107.508C177.64 107.351 177.08 107.267 176.501 107.267C173.28 107.267 170.668 109.878 170.668 113.1C170.668 116.322 173.28 118.933 176.501 118.933Z" stroke="#01AB31" stroke-width="2" stroke-linejoin="round"/>
<circle cx="176.5" cy="113.1" r="2.5" stroke="#01AB31" stroke-width="2"/>
<path d="M182.645 103.1L174.399 94.7827C172.334 92.7001 172.342 89.3403 174.415 87.2666V87.2666L186.499 99.2463M190.386 103.1L194.832 107.508C195.36 107.351 195.92 107.267 196.499 107.267C199.72 107.267 202.332 109.878 202.332 113.1C202.332 116.322 199.72 118.933 196.499 118.933C193.277 118.933 190.665 116.322 190.665 113.1C190.665 112.521 190.75 111.961 190.907 111.433L186.484 107.004" stroke="#01AB31" stroke-width="2" stroke-linejoin="round"/>
<circle cx="2.5" cy="2.5" r="2.5" transform="matrix(-1 0 0 1 199 110.6)" stroke="#01AB31" stroke-width="2"/>
<path d="M272.33 88.6808C273.111 87.8998 274.377 87.8998 275.158 88.6808L280.579 94.102C281.36 94.883 281.36 96.1493 280.579 96.9304L267.456 110.054C266.675 110.835 265.409 110.835 264.628 110.054L259.206 104.633C258.425 103.851 258.425 102.585 259.206 101.804L272.33 88.6808Z" stroke="#01AB31" stroke-width="2" stroke-linejoin="round"/>
<path d="M258.971 104.396L255.082 108.286C254.301 109.067 254.301 110.333 255.082 111.114L256.839 112.871C257.312 113.344 257.99 113.549 258.645 113.418L261.912 112.765C262.3 112.687 262.655 112.497 262.934 112.218L264.863 110.289" stroke="#01AB31" stroke-width="2" stroke-linecap="round" stroke-linejoin="round"/>
<path d="M253.667 117.267H285.334" stroke="#01AB31" stroke-width="2" stroke-linecap="round" stroke-linejoin="round"/>
<rect x="4.66797" y="170.267" width="31.6667" height="31.6667" rx="15.8333" stroke="#01AB31" stroke-width="2" stroke-linejoin="round"/>
<path d="M27.4242 181.882C28.2024 181.101 28.2011 179.837 27.4212 179.057L26.7113 178.347C25.9302 177.566 24.6637 177.566 23.8827 178.347L13.2135 189.02L11.332 194.433L16.7747 192.578L27.4242 181.882Z" stroke="#01AB31" stroke-width="2" stroke-linejoin="round"/>
<path d="M13.2246 189.023L16.7532 192.552" stroke="#01AB31" stroke-width="2" stroke-linecap="round" stroke-linejoin="round"/>
<path d="M21.9648 180.267L25.5008 183.802" stroke="#01AB31" stroke-width="2" stroke-linecap="round" stroke-linejoin="round"/>
<rect x="87.667" y="170.267" width="31.6667" height="31.6667" rx="15.8333" stroke="#01AB31" stroke-width="2" stroke-linejoin="round"/>
<rect x="94.333" y="184.433" width="18.3333" height="3.33333" rx="1.66667" stroke="#01AB31" stroke-width="2" stroke-linejoin="round"/>
<path d="M199.001 186.099C199.001 193.923 192.659 200.266 184.835 200.266C177.011 200.266 170.668 193.923 170.668 186.099C170.668 178.275 177.011 171.933 184.835 171.933C187.245 171.933 189.514 172.534 191.501 173.596" stroke="#01AB31" stroke-width="2" stroke-linecap="round"/>
<path d="M177.232 182.665C176.256 183.642 176.256 185.225 177.232 186.201L183.234 192.202C184.008 192.977 185.261 192.984 186.045 192.219L201.601 177.034C202.577 176.058 202.577 174.475 201.601 173.499C200.625 172.523 199.042 172.523 198.066 173.499L186.033 185.148C185.248 185.907 184 185.897 183.227 185.125L180.768 182.665C179.791 181.689 178.209 181.689 177.232 182.665Z" stroke="#01AB31" stroke-width="2" stroke-linejoin="round"/>
<rect x="279.517" y="173.726" width="3.33333" height="6.66667" rx="1.66667" transform="rotate(45 279.517 173.726)" stroke="#01AB31" stroke-width="2" stroke-linejoin="round"/>
<rect x="261.84" y="191.403" width="3.33333" height="6.66667" rx="1.66667" transform="rotate(45 261.84 191.403)" stroke="#01AB31" stroke-width="2" stroke-linejoin="round"/>
<rect x="264.196" y="178.438" width="3.33333" height="6.66667" rx="1.66667" transform="rotate(135 264.196 178.438)" stroke="#01AB31" stroke-width="2" stroke-linejoin="round"/>
<rect x="271.167" y="176.933" width="3.33333" height="6.66667" rx="1.66667" transform="rotate(-180 271.167 176.933)" stroke="#01AB31" stroke-width="2" stroke-linejoin="round"/>
<rect x="271.167" y="201.933" width="3.33333" height="6.66667" rx="1.66667" transform="rotate(-180 271.167 201.933)" stroke="#01AB31" stroke-width="2" stroke-linejoin="round"/>
<rect x="278.667" y="187.767" width="3.33333" height="6.66667" rx="1.66667" transform="rotate(-90 278.667 187.767)" stroke="#01AB31" stroke-width="2" stroke-linejoin="round"/>
<rect x="253.667" y="187.767" width="3.33333" height="6.66667" rx="1.66667" transform="rotate(-90 253.667 187.767)" stroke="#01AB31" stroke-width="2" stroke-linejoin="round"/>
<rect x="281.874" y="196.117" width="3.33333" height="6.66667" rx="1.66667" transform="rotate(135 281.874 196.117)" stroke="#01AB31" stroke-width="2" stroke-linejoin="round"/>
</svg>
