<svg width="110" height="110" viewBox="0 0 110 110" fill="none" xmlns="http://www.w3.org/2000/svg">
<path fill-rule="evenodd" clip-rule="evenodd" d="M0 11C0 4.92486 4.92487 0 11 0H57V14H14V57H0V11Z" fill="black"/>
<path d="M14 7H11C8.79086 7 7 8.79086 7 11V14" stroke="#36DC5E" stroke-width="14"/>
<path d="M57 7H7V57" stroke="#0074FF"/>
<rect x="5" y="5" width="4" height="4" fill="white" stroke="#0074FF"/>
<path fill-rule="evenodd" clip-rule="evenodd" d="M110 99C110 105.075 105.075 110 99 110H53V96H96V53H110V99Z" fill="black"/>
<path d="M96 103H103V96" stroke="#36DC5E" stroke-width="14"/>
<path d="M53 103H103V53" stroke="#0074FF"/>
<rect x="105" y="105" width="4" height="4" transform="rotate(180 105 105)" fill="white" stroke="#0074FF"/>
<path d="M30 80L80 30" stroke="black"/>
</svg>
