<svg width="290" height="206" viewBox="0 0 290 206" fill="none" xmlns="http://www.w3.org/2000/svg">
<circle cx="20.5003" cy="20.0003" r="10.8333" stroke="#01AB31" stroke-width="2"/>
<path d="M15.0145 6.93898L14.3691 5.40234" stroke="#01AB31" stroke-width="2" stroke-linecap="round" stroke-linejoin="round"/>
<path d="M5.90184 26.1317L7.43848 25.4863" stroke="#01AB31" stroke-width="2" stroke-linecap="round" stroke-linejoin="round"/>
<path d="M33.561 14.5145L35.0977 13.8691" stroke="#01AB31" stroke-width="2" stroke-linecap="round" stroke-linejoin="round"/>
<path d="M26.6317 34.5982L25.9863 33.0615" stroke="#01AB31" stroke-width="2" stroke-linecap="round" stroke-linejoin="round"/>
<path d="M26.4873 5.3418L25.8571 6.88473" stroke="#01AB31" stroke-width="2" stroke-linecap="round" stroke-linejoin="round"/>
<path d="M15.1436 33.1152L14.5134 34.6582" stroke="#01AB31" stroke-width="2" stroke-linecap="round" stroke-linejoin="round"/>
<path d="M35.1582 25.9863L33.6153 25.3561" stroke="#01AB31" stroke-width="2" stroke-linecap="round" stroke-linejoin="round"/>
<path d="M7.38477 14.6436L5.84184 14.0134" stroke="#01AB31" stroke-width="2" stroke-linecap="round" stroke-linejoin="round"/>
<path d="M31.6963 8.80469L30.5178 9.9832" stroke="#01AB31" stroke-width="2" stroke-linecap="round" stroke-linejoin="round"/>
<path d="M10.4827 30.0176L9.30415 31.1961" stroke="#01AB31" stroke-width="2" stroke-linecap="round" stroke-linejoin="round"/>
<path d="M31.6963 31.1953L30.5178 30.0168" stroke="#01AB31" stroke-width="2" stroke-linecap="round" stroke-linejoin="round"/>
<path d="M10.4827 9.98242L9.30415 8.80391" stroke="#01AB31" stroke-width="2" stroke-linecap="round" stroke-linejoin="round"/>
<path d="M4.66699 20H6.33366" stroke="#01AB31" stroke-width="2" stroke-linecap="round" stroke-linejoin="round"/>
<path d="M34.667 20H36.3337" stroke="#01AB31" stroke-width="2" stroke-linecap="round" stroke-linejoin="round"/>
<path d="M20.5 4.16699L20.5 5.83366" stroke="#01AB31" stroke-width="2" stroke-linecap="round" stroke-linejoin="round"/>
<path d="M20.5 34.167L20.5 35.8337" stroke="#01AB31" stroke-width="2" stroke-linecap="round" stroke-linejoin="round"/>
<path d="M13.417 27.9163C14.3459 26.6379 15.1031 25.9187 16.4303 25.4296C17.3204 25.1015 18.0003 24.3192 18.0003 23.3705V23.2232C18.0003 22.6568 17.742 22.1296 17.4022 21.6765C16.7379 20.7907 16.3337 19.6185 16.3337 18.333C16.3337 15.5716 18.1991 13.333 20.5003 13.333C22.8015 13.333 24.667 15.5716 24.667 18.333C24.667 19.6185 24.2627 20.7907 23.5985 21.6765C23.2586 22.1296 23.0003 22.6568 23.0003 23.2232V23.3179C23.0003 24.2901 23.7164 25.0768 24.628 25.4147C25.8507 25.8678 26.622 26.5965 27.5837 27.9163" stroke="#01AB31" stroke-width="2" stroke-linejoin="round"/>
<circle cx="103.5" cy="20.0003" r="15.8333" stroke="#01AB31" stroke-width="2"/>
<path d="M91.833 20H94.333" stroke="#01AB31" stroke-width="2" stroke-linecap="round" stroke-linejoin="round"/>
<path d="M95.1663 24.1663H92.833C92.2807 24.1663 91.833 23.7186 91.833 23.1663V16.833C91.833 16.2807 92.2807 15.833 92.833 15.833H95.1663" stroke="#01AB31" stroke-width="2" stroke-linecap="round" stroke-linejoin="round"/>
<path d="M97.667 15.833L101.834 24.1663" stroke="#01AB31" stroke-width="2" stroke-linecap="round" stroke-linejoin="round"/>
<path d="M101.833 15.833L97.6663 24.1663" stroke="#01AB31" stroke-width="2" stroke-linecap="round" stroke-linejoin="round"/>
<path d="M106 15.833V24.1663H104.333H107.666M106 15.833H104.333M106 15.833H107.666" stroke="#01AB31" stroke-width="2" stroke-linecap="round" stroke-linejoin="round"/>
<path d="M112.667 24.1663V15.833M112.667 15.833H110.167M112.667 15.833H115.167" stroke="#01AB31" stroke-width="2" stroke-linecap="round" stroke-linejoin="round"/>
<path d="M180.666 20.4051C178.631 18.7237 177.333 16.1802 177.333 13.3337C177.333 8.27105 181.437 4.16699 186.5 4.16699C191.562 4.16699 195.666 8.27105 195.666 13.3337C195.666 16.1802 194.369 18.7237 192.333 20.4051" stroke="#01AB31" stroke-width="2" stroke-linecap="round"/>
<path d="M194.833 35.8337L196.245 27.3611C196.395 26.4619 195.918 25.575 195.085 25.2047L189 22.5003V14.167C189 12.7863 187.88 11.667 186.5 11.667C185.119 11.667 184 12.7863 184 14.167V27.5003L180.889 24.7772C180.076 23.9636 178.757 23.9636 177.943 24.7772C177.13 25.5908 177.13 26.9099 177.943 27.7235L183.166 35.8337" stroke="#01AB31" stroke-width="2" stroke-linecap="round" stroke-linejoin="round"/>
<path d="M284.224 14.167C281.902 8.30929 276.185 4.16699 269.5 4.16699C260.756 4.16699 253.667 11.2558 253.667 20.0003C253.667 28.7448 260.756 35.8337 269.5 35.8337C276.185 35.8337 281.902 31.6914 284.224 25.8337" stroke="#01AB31" stroke-width="2" stroke-linecap="round"/>
<path d="M285.333 19.9997H262.833M262.833 19.9997L268.666 13.333M262.833 19.9997L268.666 26.6663" stroke="#01AB31" stroke-width="2" stroke-linecap="round" stroke-linejoin="round"/>
<rect x="4.66699" y="88.833" width="31.6667" height="28.3333" rx="2" stroke="#01AB31" stroke-width="2" stroke-linejoin="round"/>
<path d="M4.66699 95.5H36.3337" stroke="#01AB31" stroke-width="2"/>
<path d="M8.83301 92.167H10.4997" stroke="#01AB31" stroke-width="2" stroke-linecap="round"/>
<path d="M13.833 92.167H15.4997" stroke="#01AB31" stroke-width="2" stroke-linecap="round"/>
<path d="M18.833 92.167H20.4997" stroke="#01AB31" stroke-width="2" stroke-linecap="round"/>
<path d="M20.4997 102.167C15.4371 102.167 11.333 106.271 11.333 111.334H14.6663C14.6663 108.112 17.278 105.5 20.4997 105.5C23.7213 105.5 26.333 108.112 26.333 111.334H29.6663C29.6663 106.271 25.5623 102.167 20.4997 102.167Z" stroke="#01AB31" stroke-width="2" stroke-linejoin="round"/>
<path d="M20.5 102.167V105.5" stroke="#01AB31" stroke-width="2"/>
<path d="M14.0059 104.846L16.3748 107.21" stroke="#01AB31" stroke-width="2"/>
<path d="M28.1259 102.71C28.5164 102.319 29.1496 102.319 29.5401 102.71C29.9306 103.1 29.9306 103.734 29.5401 104.124L28.1259 102.71ZM29.5401 104.124L22.1622 111.502L20.7479 110.088L28.1259 102.71L29.5401 104.124Z" fill="#01AB31"/>
<circle cx="20.4997" cy="112.167" r="1.66667" stroke="#01AB31" stroke-width="2"/>
<path d="M101 108C102.981 109.144 104.063 109.146 106 108" stroke="#01AB31" stroke-width="2" stroke-linecap="round" stroke-linejoin="round"/>
<path d="M119.333 108L119.333 116.833C119.333 117.938 118.438 118.833 117.333 118.833L108.5 118.833M119.333 97.9997L119.333 89.1663C119.333 88.0618 118.438 87.1663 117.333 87.1663L108.5 87.1663M87.6663 108L87.6663 116.833C87.6663 117.938 88.5618 118.833 89.6663 118.833L98.4997 118.833M87.6663 97.9997L87.6663 89.1663C87.6663 88.0618 88.5618 87.1663 89.6663 87.1663L98.4997 87.1663" stroke="#01AB31" stroke-width="2" stroke-linecap="round" stroke-linejoin="round"/>
<ellipse cx="103.5" cy="103" rx="9.16667" ry="10" stroke="#01AB31" stroke-width="2"/>
<path d="M94.3662 102.17C99.1146 100.805 101.929 99.7812 103.5 97.167C105.071 99.7812 107.88 100.801 112.628 102.167" stroke="#01AB31" stroke-width="2" stroke-linecap="round" stroke-linejoin="round"/>
<circle cx="100.166" cy="103.833" r="0.833333" stroke="#01AB31" stroke-width="2"/>
<circle cx="106.833" cy="103.833" r="0.833333" stroke="#01AB31" stroke-width="2"/>
<rect x="170.667" y="87.167" width="31.6667" height="25.8333" rx="2" stroke="#01AB31" stroke-width="2" stroke-linejoin="round"/>
<path d="M170.667 108.833H202.334" stroke="#01AB31" stroke-width="2" stroke-linecap="round" stroke-linejoin="round"/>
<path d="M193.166 98.8337C193.166 102.516 190.182 105.5 186.5 105.5C182.818 105.5 179.833 102.516 179.833 98.8337C179.833 95.1518 182.818 92.167 186.5 92.167C187.714 92.167 188.852 92.4916 189.833 93.0589" stroke="#01AB31" stroke-width="2" stroke-linecap="round"/>
<path d="M183.583 97.5837L186.5 100.5L194 93.417" stroke="#01AB31" stroke-width="2" stroke-linecap="round" stroke-linejoin="round"/>
<path d="M179.833 118.833H193.166" stroke="#01AB31" stroke-width="2" stroke-linecap="round" stroke-linejoin="round"/>
<path d="M182.333 118.833C184.042 116.532 184.511 115.262 184 113" stroke="#01AB31" stroke-width="2" stroke-linecap="round" stroke-linejoin="round"/>
<path d="M190.667 118.833C188.938 116.557 188.536 115.277 189 113" stroke="#01AB31" stroke-width="2" stroke-linecap="round" stroke-linejoin="round"/>
<path d="M285.333 108L285.333 116.833C285.333 117.938 284.438 118.833 283.333 118.833L274.5 118.833M285.333 97.9997L285.333 89.1663C285.333 88.0618 284.438 87.1663 283.333 87.1663L274.5 87.1663M253.666 108L253.666 116.833C253.666 117.938 254.562 118.833 255.666 118.833L264.5 118.833M253.666 97.9997L253.666 89.1663C253.666 88.0618 254.562 87.1663 255.666 87.1663L264.5 87.1663" stroke="#01AB31" stroke-width="2" stroke-linecap="round" stroke-linejoin="round"/>
<path d="M261.167 99.6663V106.333C261.167 108.664 262.124 110.772 263.667 112.284M261.86 96.333C263.146 93.3898 266.083 91.333 269.5 91.333C271.018 91.333 272.441 91.7388 273.667 92.4479M267 114.285C267.79 114.533 268.629 114.666 269.5 114.666C272.227 114.666 274.647 113.357 276.168 111.333M277.452 108.833C277.7 108.044 277.834 107.204 277.834 106.333V99.6663C277.834 97.7903 277.214 96.0591 276.168 94.6663" stroke="#01AB31" stroke-width="2" stroke-linecap="round" stroke-linejoin="round"/>
<path d="M267 95.3359C267.735 94.9105 268.589 94.667 269.5 94.667C272.261 94.667 274.5 96.9056 274.5 99.667V102.167M265.333 96.9022C264.807 97.6941 264.5 98.6447 264.5 99.667V106.334C264.5 109.095 266.739 111.334 269.5 111.334C272.261 111.334 274.5 109.095 274.5 106.334V104.667" stroke="#01AB31" stroke-width="2" stroke-linecap="round" stroke-linejoin="round"/>
<path d="M267.833 106.333C267.833 107.254 268.579 108 269.5 108C270.42 108 271.166 107.254 271.166 106.333V99.6667C271.166 98.7462 270.42 98 269.5 98C268.579 98 267.833 98.7462 267.833 99.6667V103.833" stroke="#01AB31" stroke-width="2" stroke-linecap="round" stroke-linejoin="round"/>
<path d="M7.16699 175.105C7.16699 174.167 7.81806 173.356 8.73313 173.152L19.7331 170.708C20.9822 170.43 22.167 171.381 22.167 172.66V199.34C22.167 200.62 20.9822 201.57 19.7331 201.293L8.73313 198.848C7.81806 198.645 7.16699 197.833 7.16699 196.896V175.105Z" stroke="#01AB31" stroke-width="2" stroke-linejoin="round"/>
<path d="M22.167 172.667H31.8337C32.9382 172.667 33.8337 173.562 33.8337 174.667V197.334C33.8337 198.438 32.9382 199.334 31.8337 199.334H22.167V172.667Z" stroke="#01AB31" stroke-width="2" stroke-linejoin="round"/>
<circle cx="16.7503" cy="186.416" r="2.08333" stroke="#01AB31" stroke-width="2"/>
<path d="M87.667 175.037C87.667 174.131 88.2762 173.338 89.1517 173.104L97.6517 170.838C98.9214 170.499 100.167 171.456 100.167 172.77V199.23C100.167 200.544 98.9214 201.501 97.6517 201.163L89.1517 198.896C88.2762 198.663 87.667 197.87 87.667 196.964V175.037Z" stroke="#01AB31" stroke-width="2" stroke-linejoin="round"/>
<path d="M110.167 194.334V197.334C110.167 198.438 109.272 199.334 108.167 199.334H100.167V172.667H108.167C109.272 172.667 110.167 173.562 110.167 174.667V177.667" stroke="#01AB31" stroke-width="2" stroke-linecap="round" stroke-linejoin="round"/>
<circle cx="96.417" cy="186.417" r="1.25" stroke="#01AB31" stroke-width="2"/>
<path d="M103.5 186H119.333M119.333 186L115.166 181M119.333 186L115.166 191" stroke="#01AB31" stroke-width="2" stroke-linecap="round" stroke-linejoin="round"/>
<path d="M184.833 195.896V199.834C184.833 200.938 185.728 201.834 186.833 201.834H200.333C201.438 201.834 202.333 200.938 202.333 199.834V172.167C202.333 171.062 201.438 170.167 200.333 170.167H186.833C185.728 170.167 184.833 171.062 184.833 172.167V176.104" stroke="#01AB31" stroke-width="2" stroke-linecap="round" stroke-linejoin="round"/>
<path d="M185.24 188.5C184.211 191.413 181.433 193.5 178.167 193.5C174.025 193.5 170.667 190.142 170.667 186C170.667 181.858 174.025 178.5 178.167 178.5C181.433 178.5 184.211 180.587 185.24 183.5H196.5L199 186L196.5 188.5L195.25 188.5L194.834 190.167H192.334L191.917 188.5H189.834L189.417 190.167H187.334L186.917 188.5L185.24 188.5ZM185.24 188.5L185.25 188.5" stroke="#01AB31" stroke-width="2" stroke-linejoin="round"/>
<circle cx="175.667" cy="186" r="1.66667" stroke="#01AB31" stroke-width="2"/>
<path d="M270.333 196C270.333 199.222 267.721 201.834 264.5 201.834H261.166C257.945 201.834 255.333 199.222 255.333 196V176C255.333 172.779 257.945 170.167 261.166 170.167H264.5C267.721 170.167 270.333 172.779 270.333 176V192.667" stroke="#01AB31" stroke-width="2" stroke-linejoin="round"/>
<path d="M255.333 176.833H270.333" stroke="#01AB31" stroke-width="2" stroke-linecap="round" stroke-linejoin="round"/>
<path d="M255.333 186.833H270.333" stroke="#01AB31" stroke-width="2" stroke-linecap="round" stroke-linejoin="round"/>
<path d="M267.548 196C266.862 197.942 265.01 199.333 262.833 199.333C260.072 199.333 257.833 197.094 257.833 194.333C257.833 191.572 260.072 189.333 262.833 189.333C265.01 189.333 266.862 190.724 267.548 192.666" stroke="#01AB31" stroke-width="2"/>
<path d="M261.167 194.334C261.167 193.413 261.913 192.667 262.834 192.667H282C282.921 192.667 283.667 193.413 283.667 194.334V194.334C283.667 195.254 282.921 196 282 196H262.834C261.913 196 261.167 195.254 261.167 194.334V194.334Z" stroke="#01AB31" stroke-width="2" stroke-linejoin="round"/>
<circle cx="259.5" cy="181.834" r="1.66667" stroke="#01AB31" stroke-width="2"/>
<circle cx="266.167" cy="181.834" r="1.66667" stroke="#01AB31" stroke-width="2"/>
</svg>
