<svg width="290" height="206" viewBox="0 0 290 206" fill="none" xmlns="http://www.w3.org/2000/svg">
<path d="M4.66675 6.66699H36.3334V33.3337H4.66675V6.66699Z" stroke="#C624FF" stroke-width="2"/>
<path d="M4.66675 16.667H36.3334" stroke="#C624FF" stroke-width="2"/>
<path d="M31.3333 25.833C31.3333 27.2137 30.214 28.333 28.8333 28.333C27.4525 28.333 26.3333 27.2137 26.3333 25.833C26.3333 24.4523 27.4525 23.333 28.8333 23.333C30.214 23.333 31.3333 24.4523 31.3333 25.833Z" stroke="#C624FF" stroke-width="2"/>
<path d="M10.5 16.667V11.667" stroke="#C624FF" stroke-width="2" stroke-linecap="square"/>
<path d="M20.5 16.667V11.667" stroke="#C624FF" stroke-width="2" stroke-linecap="square"/>
<path d="M30.5 16.667V11.667" stroke="#C624FF" stroke-width="2" stroke-linecap="square"/>
<path d="M15.5 16.667V11.667" stroke="#C624FF" stroke-width="2" stroke-linecap="square"/>
<path d="M25.5 16.667V11.667" stroke="#C624FF" stroke-width="2" stroke-linecap="square"/>
<path d="M87.6667 13.333H119.333V33.333H87.6667V13.333Z" stroke="#C624FF" stroke-width="2"/>
<path d="M93.5 23.333C93.5 26.0944 95.7386 28.333 98.5 28.333C101.261 28.333 103.5 26.0944 103.5 23.333C103.5 20.5716 101.261 18.333 98.5 18.333C95.7386 18.333 93.5 20.5716 93.5 23.333Z" stroke="#C624FF" stroke-width="2"/>
<path d="M116.833 6.66699L91.8333 10.0003V13.3337" stroke="#C624FF" stroke-width="2" stroke-linecap="square"/>
<path d="M108.5 28.333L113.5 28.333" stroke="#C624FF" stroke-width="2" stroke-linecap="square"/>
<path d="M110.167 23.333L113.5 23.333" stroke="#C624FF" stroke-width="2" stroke-linecap="square"/>
<path d="M108.5 18.333L113.5 18.333" stroke="#C624FF" stroke-width="2" stroke-linecap="square"/>
<path d="M199.417 26.667V4.16699L181.917 7.50033V31.667" stroke="#C624FF" stroke-width="2"/>
<path d="M181.917 31.6667C181.917 33.9679 180.051 35.8333 177.75 35.8333C175.449 35.8333 173.583 33.9679 173.583 31.6667C173.583 29.3655 175.449 27.5 177.75 27.5C180.051 27.5 181.917 29.3655 181.917 31.6667Z" stroke="#C624FF" stroke-width="2"/>
<path d="M199.417 26.6667C199.417 28.9679 197.551 30.8333 195.25 30.8333C192.949 30.8333 191.083 28.9679 191.083 26.6667C191.083 24.3655 192.949 22.5 195.25 22.5C197.551 22.5 199.417 24.3655 199.417 26.6667Z" stroke="#C624FF" stroke-width="2"/>
<path d="M253.667 4.16699H285.333V35.8337H253.667V4.16699Z" stroke="#C624FF" stroke-width="2"/>
<path d="M272.833 25.8333C272.833 26.2936 271.714 26.6667 270.333 26.6667C268.953 26.6667 267.833 26.2936 267.833 25.8333C267.833 25.3731 268.953 25 270.333 25C271.714 25 272.833 25.3731 272.833 25.8333Z" stroke="#C624FF" stroke-width="2"/>
<path d="M261.167 4.16699L261.167 35.8337" stroke="#C624FF" stroke-width="2"/>
<path d="M272.833 25.8201V15H277" stroke="#C624FF" stroke-width="2"/>
<path d="M5.53973 108.833C5.07949 108.036 5.35262 107.017 6.14977 106.557C6.94693 106.096 7.96625 106.369 8.42648 107.167L13.4265 115.827C13.8867 116.624 13.6136 117.643 12.8164 118.104C12.0193 118.564 11 118.291 10.5397 117.494L5.53973 108.833Z" stroke="#C624FF" stroke-width="2"/>
<path d="M15.972 113.57L11.654 106.091C11.1938 105.294 10.1745 105.021 9.37731 105.481C8.58016 105.942 8.30703 106.961 8.76727 107.758L13.0852 115.237C13.5455 116.034 14.5648 116.307 15.3619 115.847C16.1591 115.387 16.4322 114.367 15.972 113.57Z" stroke="#C624FF" stroke-width="2"/>
<path d="M35.5373 108.833C35.9976 108.036 35.7244 107.017 34.9273 106.557C34.1301 106.096 33.1108 106.369 32.6506 107.167L27.6506 115.827C27.1903 116.624 27.4635 117.643 28.2606 118.104C29.0578 118.564 30.0771 118.291 30.5373 117.494L35.5373 108.833Z" stroke="#C624FF" stroke-width="2"/>
<path d="M5.5 102.167C5.5 103.694 5.72825 105.168 6.15249 106.557" stroke="#C624FF" stroke-width="2"/>
<path d="M35.4999 102.167C35.4999 103.694 35.2717 105.168 34.8474 106.557" stroke="#C624FF" stroke-width="2"/>
<path d="M35.5 102.167C35.5 93.8827 28.7843 87.167 20.5 87.167C12.2157 87.167 5.5 93.8827 5.5 102.167" stroke="#C624FF" stroke-width="2"/>
<path d="M9.8927 91.5603C9.24182 92.2111 9.24182 93.2664 9.8927 93.9173C10.5436 94.5682 11.5988 94.5682 12.2497 93.9173L13.0486 93.189C15.0696 91.5097 17.6667 90.5 20.4997 90.5C26.7244 90.5 27.9997 93 28.7491 93.9167C29.3999 94.5676 30.4552 94.5676 31.1061 93.9167C31.7569 93.2658 31.7569 92.2106 31.1061 91.5597" stroke="#C624FF" stroke-width="2"/>
<path d="M25.1017 113.574L29.4255 106.086C29.8857 105.288 30.905 105.015 31.7022 105.476C32.4993 105.936 32.7724 106.955 32.3122 107.752L27.9885 115.241C27.5283 116.038 26.5089 116.311 25.7118 115.851C24.9146 115.391 24.6415 114.372 25.1017 113.574Z" stroke="#C624FF" stroke-width="2"/>
<path d="M9.8927 93.9176C10.5436 94.5685 11.5988 94.5685 12.2497 93.9176L13.0486 93.1893C15.0696 91.5101 17.6667 90.5003 20.4997 90.5003C26.7244 90.5003 27.9997 93.0003 28.7491 93.917C29.3999 94.5679 30.4552 94.5679 31.1061 93.917C31.7569 93.2662 31.7569 92.2109 31.1061 91.56C28.3047 88.7641 24.4593 87.167 20.4999 87.167C16.5245 87.167 12.7151 88.7738 9.8927 91.5606C9.24182 92.2115 9.24182 93.2667 9.8927 93.9176Z" stroke="#C624FF" stroke-width="2"/>
<path d="M87.6667 103.833H119.333V111.333C119.333 115.015 116.183 118 112.296 118H94.7038C90.8173 118 87.6667 115.015 87.6667 111.333V103.833Z" stroke="#C624FF" stroke-width="2"/>
<ellipse cx="103.5" cy="109.667" rx="1.66667" ry="1.66667" stroke="#C624FF" stroke-width="2"/>
<path d="M105.167 93C105.167 96.3333 107.405 98 110.167 98C112.348 98 116.833 96.3333 116.833 94.3333C116.945 93.287 116.945 92.713 116.833 91.6667C116.833 89.6667 112.348 88 110.167 88C107.405 88 105.167 89.6667 105.167 93Z" stroke="#C624FF" stroke-width="2"/>
<path d="M101.918 93C101.918 96.3333 99.6794 98 96.918 98C94.7363 98 90.2513 96.3333 90.2513 94.3333C90.1395 93.287 90.1395 92.713 90.2513 91.6667C90.2513 89.6667 94.7363 88 96.918 88C99.6794 88 101.918 89.6667 101.918 93Z" stroke="#C624FF" stroke-width="2"/>
<path d="M105.167 93H108.5" stroke="#C624FF" stroke-width="2" stroke-linecap="square"/>
<path d="M101.918 93H98.5846" stroke="#C624FF" stroke-width="2" stroke-linecap="square"/>
<path d="M110.167 103.833V98.0001M106.833 103.833V96.9248" stroke="#C624FF" stroke-width="2"/>
<path d="M96.9179 103.833V98.0001M100.251 103.833V96.9248" stroke="#C624FF" stroke-width="2"/>
<path d="M180.667 109.667V87.167H192.333V109.667H180.667Z" stroke="#C624FF" stroke-width="2"/>
<path d="M176.5 107.166V113.833H196.5V107.166" stroke="#C624FF" stroke-width="2" stroke-linecap="square"/>
<path d="M191.5 118.833H181.5" stroke="#C624FF" stroke-width="2" stroke-linecap="square"/>
<path d="M186.5 118.833L186.5 113.833" stroke="#C624FF" stroke-width="2" stroke-linecap="square"/>
<path d="M192.333 94.667H180.667" stroke="#C624FF" stroke-width="2"/>
<path d="M270.333 115.5V90.5L259.5 97.1667H253.667V108.833H259.5L270.333 115.5Z" stroke="#C624FF" stroke-width="2"/>
<path d="M259.5 97.167L259.5 108.834" stroke="#C624FF" stroke-width="2"/>
<path d="M280.696 114.195C286.879 108.012 286.879 97.987 280.696 91.8037" stroke="#C624FF" stroke-width="2" stroke-linecap="square"/>
<path d="M276.326 110.66C280.557 106.43 280.557 99.5705 276.326 95.3398" stroke="#C624FF" stroke-width="2" stroke-linecap="square"/>
<path d="M20.4999 173.5L36.3334 192.667H26.4375L20.4999 185L14.5623 192.667H4.66675L20.4999 173.5Z" stroke="#C624FF" stroke-width="2"/>
<path d="M4.66675 198.5H36.3334" stroke="#C624FF" stroke-width="2" stroke-linecap="square"/>
<path d="M87.6667 180.167H119.333V201.834H87.6667V180.167Z" stroke="#C624FF" stroke-width="2"/>
<path d="M115.167 180.167L115.167 170.167" stroke="#C624FF" stroke-width="2" stroke-linecap="square"/>
<path d="M114.333 191.417C114.333 193.488 112.654 195.167 110.583 195.167C108.512 195.167 106.833 193.488 106.833 191.417C106.833 189.346 108.512 187.667 110.583 187.667C112.654 187.667 114.333 189.346 114.333 191.417Z" stroke="#C624FF" stroke-width="2"/>
<path d="M87.6667 180.167V175.167H108.5L111.833 180.167" stroke="#C624FF" stroke-width="2"/>
<path d="M189 181.833C189 183.214 187.881 184.333 186.5 184.333C185.119 184.333 184 183.214 184 181.833C184 180.452 185.119 179.333 186.5 179.333C187.881 179.333 189 180.452 189 181.833Z" stroke="#C624FF" stroke-width="2" stroke-linecap="round" stroke-linejoin="round"/>
<path d="M176.5 180.167C176.5 174.644 180.977 170.167 186.5 170.167V170.167C192.023 170.167 196.5 174.644 196.5 180.167V191.834C196.5 197.357 192.023 201.834 186.5 201.834V201.834C180.977 201.834 176.5 197.357 176.5 191.834V180.167Z" stroke="#C624FF" stroke-width="2" stroke-linecap="round" stroke-linejoin="round"/>
<path d="M285.333 186C285.333 194.745 278.245 201.834 269.5 201.834C260.756 201.834 253.667 194.745 253.667 186C253.667 177.256 260.756 170.167 269.5 170.167C278.245 170.167 285.333 177.256 285.333 186Z" stroke="#C624FF" stroke-width="2"/>
<path d="M273.667 186C273.667 188.301 271.801 190.166 269.5 190.166C267.199 190.166 265.333 188.301 265.333 186C265.333 183.698 267.199 181.833 269.5 181.833C271.801 181.833 273.667 183.698 273.667 186Z" stroke="#C624FF" stroke-width="2"/>
</svg>
