<svg width="290" height="206" viewBox="0 0 290 206" fill="none" xmlns="http://www.w3.org/2000/svg">
<path fill-rule="evenodd" clip-rule="evenodd" d="M24.1784 7.5H16.8214L13.4881 10.8333H3.83325V32.5H37.1666V10.8333H27.5118L24.1784 7.5ZM30.4999 14.1667C29.1192 14.1667 27.9999 15.286 27.9999 16.6667C27.9999 18.0474 29.1192 19.1667 30.4999 19.1667C31.8806 19.1667 32.9999 18.0474 32.9999 16.6667C32.9999 15.286 31.8806 14.1667 30.4999 14.1667ZM12.9999 21.6667C12.9999 17.5245 16.3578 14.1667 20.4999 14.1667C24.6421 14.1667 27.9999 17.5245 27.9999 21.6667C27.9999 25.8088 24.6421 29.1667 20.4999 29.1667C16.3578 29.1667 12.9999 25.8088 12.9999 21.6667Z" fill="#0074FF" fill-opacity="0.3"/>
<path d="M28 16.667C28 15.2863 29.1193 14.167 30.5 14.167C31.8807 14.167 33 15.2863 33 16.667C33 18.0477 31.8807 19.167 30.5 19.167C29.1193 19.167 28 18.0477 28 16.667Z" fill="#0074FF"/>
<path d="M20.5 14.167C16.3579 14.167 13 17.5249 13 21.667C13 25.8091 16.3579 29.167 20.5 29.167C24.6421 29.167 28 25.8091 28 21.667C28 17.5249 24.6421 14.167 20.5 14.167Z" fill="#0074FF"/>
<path fill-rule="evenodd" clip-rule="evenodd" d="M99.8214 6.66699H107.178L110.512 10.0003H120.167V33.3337H86.8333V10.0003H96.4881L99.8214 6.66699ZM97.6666 21.667C97.6666 18.4453 100.278 15.8337 103.5 15.8337C106.722 15.8337 109.333 18.4453 109.333 21.667C109.333 24.8887 106.722 27.5003 103.5 27.5003C100.278 27.5003 97.6666 24.8887 97.6666 21.667Z" fill="#0074FF" fill-opacity="0.3"/>
<path d="M103.5 15.833C100.278 15.833 97.6667 18.4447 97.6667 21.6663C97.6667 24.888 100.278 27.4997 103.5 27.4997C106.722 27.4997 109.333 24.888 109.333 21.6663C109.333 18.4447 106.722 15.833 103.5 15.833Z" fill="#0074FF"/>
<path d="M169.833 27.5V33.3333H203.167V27.5H169.833Z" fill="#0074FF"/>
<path fill-rule="evenodd" clip-rule="evenodd" d="M185.667 6.66699H197.333V10.8337H203.167V25.8337H195.582C196.663 24.7749 197.333 23.2992 197.333 21.667C197.333 18.4453 194.722 15.8337 191.5 15.8337C188.278 15.8337 185.667 18.4453 185.667 21.667C185.667 23.2992 186.337 24.7749 187.417 25.8337H169.833V10.8337H185.667V6.66699ZM175.25 15.417L175.25 17.917H181.083V15.417H175.25Z" fill="#0074FF" fill-opacity="0.3"/>
<path d="M197.333 21.6663C197.333 23.2986 196.663 24.7742 195.583 25.833H187.418C186.337 24.7742 185.667 23.2986 185.667 21.6663C185.667 18.4447 188.278 15.833 191.5 15.833C194.722 15.833 197.333 18.4447 197.333 21.6663Z" fill="#0074FF"/>
<path d="M175.25 17.917V15.417H181.083V17.917H175.25Z" fill="#0074FF"/>
<path d="M265.333 24.167H268.25H270.75H273.667V36.667H265.333V24.167Z" fill="#0074FF"/>
<path d="M268.25 24.167V19.167H270.75V24.167H268.25Z" fill="#0074FF"/>
<path d="M256.167 3.33301H282.833V19.1663H270.75H268.25H256.167V3.33301Z" fill="#0074FF" fill-opacity="0.3"/>
<path d="M260.333 10.4167C260.333 8.80584 261.639 7.5 263.25 7.5C264.861 7.5 266.167 8.80584 266.167 10.4167C266.167 12.0275 264.861 13.3333 263.25 13.3333C261.639 13.3333 260.333 12.0275 260.333 10.4167Z" fill="#0074FF"/>
<path fill-rule="evenodd" clip-rule="evenodd" d="M37.1666 86.333H3.83325V119.666H15.9333C15.9222 119.39 15.9166 119.112 15.9166 118.833C15.9166 107.557 25.0574 98.4163 36.3333 98.4163C36.6123 98.4163 36.8901 98.4219 37.1666 98.4331V86.333ZM13.8333 92.1663C11.5321 92.1663 9.66659 94.0318 9.66659 96.333C9.66659 98.6342 11.5321 100.5 13.8333 100.5C16.1344 100.5 17.9999 98.6342 17.9999 96.333C17.9999 94.0318 16.1344 92.1663 13.8333 92.1663Z" fill="#0074FF" fill-opacity="0.3"/>
<path d="M37.1667 100.936C36.8906 100.923 36.6128 100.917 36.3334 100.917C26.4383 100.917 18.4167 108.939 18.4167 118.834C18.4167 119.113 18.4231 119.391 18.4358 119.667H37.1667V100.936Z" fill="#0074FF"/>
<path fill-rule="evenodd" clip-rule="evenodd" d="M120.167 86.333H86.8333V110.399L98.3673 98.8645L120.167 114.545V86.333ZM110.167 92.1663C107.865 92.1663 106 94.0318 106 96.333C106 98.6342 107.865 100.5 110.167 100.5C112.468 100.5 114.333 98.6342 114.333 96.333C114.333 94.0318 112.468 92.1663 110.167 92.1663Z" fill="#0074FF" fill-opacity="0.3"/>
<path d="M120.167 117.624L98.6325 102.135L86.8333 113.934V119.666H120.167V117.624Z" fill="#0074FF"/>
<path d="M180.25 119.667V99.25H169.833V119.667H180.25Z" fill="#0074FF" fill-opacity="0.3"/>
<path d="M182.75 119.667H203.167V99.25H182.75V119.667Z" fill="#0074FF"/>
<path d="M169.833 96.7497H203.167V86.333H169.833V96.7497Z" fill="#0074FF" fill-opacity="0.3"/>
<path d="M266.514 89.667H252.833V97.167H262.343L266.514 89.667Z" fill="#0074FF"/>
<path d="M264.25 97.167L268.315 89.8571C268.349 89.7957 268.375 89.7319 268.392 89.667H276.516L272.343 97.167H264.25Z" fill="#0074FF"/>
<path d="M278.253 89.9737L274.251 97.167H286.167V89.667H278.352C278.34 89.7717 278.307 89.8758 278.253 89.9737Z" fill="#0074FF"/>
<path fill-rule="evenodd" clip-rule="evenodd" d="M262.812 98.833C262.826 98.8334 262.84 98.8334 262.853 98.833H272.811C272.825 98.8334 272.84 98.8334 272.854 98.833H286.167V116.333H252.833V98.833H262.812ZM274.336 106.333L267 101.443V111.224L274.336 106.333Z" fill="#0074FF" fill-opacity="0.3"/>
<path d="M267 101.444L274.336 106.335L267 111.225V101.444Z" fill="#0074FF"/>
<path fill-rule="evenodd" clip-rule="evenodd" d="M14.422 196.551L8.89844 200.847L10.4333 202.82L17.1659 197.584L23.8984 202.82L25.4333 200.847L19.9101 196.551C19.0247 196.736 18.1071 196.834 17.1667 196.834C16.2258 196.834 15.3077 196.736 14.422 196.551Z" fill="#0074FF"/>
<path d="M31.2879 188.574L37.1678 191.514V175.484L31.2878 178.424C31.8576 180.01 32.1681 181.718 32.1681 183.5C32.1681 185.281 31.8577 186.989 31.2879 188.574Z" fill="#0074FF"/>
<path fill-rule="evenodd" clip-rule="evenodd" d="M3.87573 183.48C3.87573 176.116 9.84527 170.146 17.2091 170.146C24.5729 170.146 30.5424 176.116 30.5424 183.48C30.5424 190.844 24.5729 196.813 17.2091 196.813C9.84527 196.813 3.87573 190.844 3.87573 183.48ZM13.0001 183.5C13.0001 181.199 14.8656 179.333 17.1667 179.333C19.4679 179.333 21.3334 181.199 21.3334 183.5C21.3334 185.801 19.4679 187.667 17.1667 187.667C14.8656 187.667 13.0001 185.801 13.0001 183.5Z" fill="#0074FF" fill-opacity="0.3"/>
<path d="M17.1667 179.333C14.8655 179.333 13 181.198 13 183.5C13 185.801 14.8655 187.666 17.1667 187.666C19.4679 187.666 21.3333 185.801 21.3333 183.5C21.3333 181.198 19.4679 179.333 17.1667 179.333Z" fill="#0074FF"/>
<path fill-rule="evenodd" clip-rule="evenodd" d="M5.38978 177.352C4.46018 176.513 3.83325 175.269 3.83325 173.916C3.83325 171.385 5.88528 169.333 8.41659 169.333C9.91819 169.333 11.2495 170.055 12.0851 171.169C8.29246 172.71 6.01724 175.918 5.38978 177.352ZM8.41658 171.833C7.26599 171.833 6.33325 172.766 6.33325 173.916C6.33325 174.387 6.48941 174.822 6.75349 175.172C7.62159 174.087 8.65544 173.142 9.81663 172.373C9.44632 172.037 8.95478 171.833 8.41658 171.833Z" fill="#0074FF"/>
<path d="M6.33325 173.916C6.33325 172.766 7.26599 171.833 8.41658 171.833C8.95478 171.833 9.44632 172.037 9.81663 172.373C8.65544 173.142 7.62159 174.087 6.75349 175.172C6.48941 174.822 6.33325 174.387 6.33325 173.916Z" fill="#0074FF"/>
<path d="M119.622 171.037L118.953 168.628L86.5444 177.63L86.8334 178.671V185.113L86.8361 184.28L95.8604 184.309L100.291 177.667H95.7538L119.622 171.037Z" fill="#0074FF"/>
<path d="M102.294 177.667L97.8596 184.315L105.835 184.341L110.278 177.667H102.294Z" fill="#0074FF"/>
<path d="M107.833 184.348L120.167 184.387V177.667H112.28L107.833 184.348Z" fill="#0074FF"/>
<path d="M96.09 185.976C96.2202 186.008 96.3552 186.008 96.4831 185.977L120.164 186.054L120.167 202.667H86.8333V185.946L96.09 185.976Z" fill="#0074FF" fill-opacity="0.3"/>
<path fill-rule="evenodd" clip-rule="evenodd" d="M169.833 186C169.833 176.795 177.295 169.333 186.5 169.333C195.705 169.333 203.167 176.795 203.167 186C203.167 191.981 200.016 197.226 195.284 200.166H202.75V202.666H185.25V202.62C176.629 201.981 169.833 194.784 169.833 186ZM183.167 179.333C183.167 177.492 184.659 176 186.5 176C188.341 176 189.833 177.492 189.833 179.333C189.833 181.174 188.341 182.666 186.5 182.666C184.659 182.666 183.167 181.174 183.167 179.333ZM176.5 186C176.5 184.159 177.992 182.666 179.833 182.666C181.674 182.666 183.167 184.159 183.167 186C183.167 187.841 181.674 189.333 179.833 189.333C177.992 189.333 176.5 187.841 176.5 186ZM189.833 186C189.833 184.159 191.326 182.666 193.167 182.666C195.008 182.666 196.5 184.159 196.5 186C196.5 187.841 195.008 189.333 193.167 189.333C191.326 189.333 189.833 187.841 189.833 186ZM183.167 192.666C183.167 190.825 184.659 189.333 186.5 189.333C188.341 189.333 189.833 190.825 189.833 192.666C189.833 194.507 188.341 196 186.5 196C184.659 196 183.167 194.507 183.167 192.666Z" fill="#0074FF" fill-opacity="0.3"/>
<path fill-rule="evenodd" clip-rule="evenodd" d="M183.167 179.333C183.167 177.492 184.659 176 186.5 176C188.341 176 189.833 177.492 189.833 179.333C189.833 181.174 188.341 182.667 186.5 182.667C184.659 182.667 183.167 181.174 183.167 179.333ZM176.5 186C176.5 184.159 177.992 182.667 179.833 182.667C181.674 182.667 183.167 184.159 183.167 186C183.167 187.841 181.674 189.333 179.833 189.333C177.992 189.333 176.5 187.841 176.5 186ZM189.833 186C189.833 184.159 191.326 182.667 193.167 182.667C195.008 182.667 196.5 184.159 196.5 186C196.5 187.841 195.008 189.333 193.167 189.333C191.326 189.333 189.833 187.841 189.833 186ZM183.167 192.667C183.167 190.826 184.659 189.333 186.5 189.333C188.341 189.333 189.833 190.826 189.833 192.667C189.833 194.508 188.341 196 186.5 196C184.659 196 183.167 194.508 183.167 192.667Z" fill="#0074FF"/>
<path d="M252.833 200.167V195.167H269.5V200.167H252.833Z" fill="#0074FF"/>
<path fill-rule="evenodd" clip-rule="evenodd" d="M269.5 178.5C269.5 173.898 265.769 170.167 261.167 170.167C256.564 170.167 252.833 173.898 252.833 178.5V193.5H269.5V178.5ZM254.5 178.5C254.5 174.818 257.485 171.834 261.167 171.834C264.848 171.834 267.833 174.818 267.833 178.5C267.833 182.182 264.848 185.167 261.167 185.167C257.485 185.167 254.5 182.182 254.5 178.5Z" fill="#0074FF" fill-opacity="0.3"/>
<path d="M257.833 178.5C257.833 176.659 259.326 175.167 261.167 175.167C263.008 175.167 264.5 176.659 264.5 178.5C264.5 180.341 263.008 181.834 261.167 181.834C259.326 181.834 257.833 180.341 257.833 178.5Z" fill="#0074FF"/>
<path d="M271.167 200.167H286.167V185.167H271.167V200.167Z" fill="#0074FF"/>
</svg>
