<svg width="290" height="206" viewBox="0 0 290 206" fill="none" xmlns="http://www.w3.org/2000/svg">
<path fill-rule="evenodd" clip-rule="evenodd" d="M18.807 3.91186C19.8002 2.9187 21.4104 2.9187 22.4036 3.91186L25.1315 6.63979C26.1247 7.63297 26.1246 9.24319 25.1315 10.2363L22.3769 12.9909L16.0524 6.66645L18.807 3.91186ZM13.9311 8.78778L7.34973 15.3692C2.43941 20.2795 2.43941 28.2406 7.34973 33.1509C12.26 38.0612 20.2212 38.0612 25.1315 33.1509L31.7124 26.57L25.3879 20.2456L18.807 26.8264C17.3896 28.2438 15.0916 28.2438 13.6742 26.8264C12.2568 25.4091 12.2568 23.111 13.6742 21.6936L20.2556 15.1123L13.9311 8.78778ZM27.5092 18.1242L33.8337 24.4487L36.5888 21.6936C37.5819 20.7005 37.582 19.0903 36.5888 18.0971L33.8609 15.3692C32.8677 14.376 31.2575 14.376 30.2643 15.3692L27.5092 18.1242Z" fill="#C624FF"/>
<path fill-rule="evenodd" clip-rule="evenodd" d="M115.896 18.185L118.626 15.4547C119.797 14.2831 119.797 12.3836 118.626 11.212L116.518 9.10375L111.666 13.9554L115.896 18.185ZM109.545 11.8342L114.396 6.98243L112.288 4.8738C111.116 3.70222 109.217 3.70222 108.045 4.8738L105.314 7.60427L109.545 11.8342ZM91.9918 23.8705L99.6292 31.5079C100.757 32.0873 102.176 31.9046 103.121 30.9596L113.774 20.3063L103.193 9.72559L92.5401 20.3787C91.5951 21.3237 91.4123 22.7423 91.9918 23.8705ZM107.152 16.349C107.737 16.9348 107.737 17.8845 107.152 18.4703L103.121 22.5006C102.535 23.0864 101.586 23.0864 101 22.5006C100.414 21.9148 100.414 20.9651 101 20.3793L105.03 16.349C105.616 15.7632 106.566 15.7632 107.152 16.349ZM97.3133 33.4346L90.0657 26.187L88.374 27.8787C87.2025 29.0503 87.2025 30.9498 88.374 32.1213L91.3789 35.1263C92.5505 36.2978 94.45 36.2978 95.6216 35.1263L97.3133 33.4346Z" fill="#C624FF"/>
<path fill-rule="evenodd" clip-rule="evenodd" d="M179.834 36.8327C177.2 36.8327 174.667 35.0893 174.667 32.4993V30L185 30C185 30 185 30 185 30L185 32.4993C185 35.0893 182.467 36.8327 179.834 36.8327ZM185 28C185 28 185 28 185 28L174.667 28V14L185 14H185L185 28ZM174.667 9.99935V12L185 12H185L185 9.99935C185 9.79092 184.935 9.58771 184.814 9.41811L180.647 3.58477C180.46 3.32198 180.157 3.16602 179.834 3.16602C179.511 3.16602 179.208 3.32198 179.02 3.58478L174.853 9.41811C174.732 9.58771 174.667 9.79093 174.667 9.99935Z" fill="#C624FF"/>
<path fill-rule="evenodd" clip-rule="evenodd" d="M186.333 6.16699C186.333 4.51014 187.676 3.16699 189.333 3.16699H195.333C196.99 3.16699 198.333 4.51014 198.333 6.16699V33.8337C198.333 35.4905 196.99 36.8337 195.333 36.8337H189.333C187.676 36.8337 186.333 35.4905 186.333 33.8337V30H191C191.552 30 192 29.5523 192 29C192 28.4477 191.552 28 191 28H186.333V24H191C191.552 24 192 23.5523 192 23C192 22.4477 191.552 22 191 22H186.333V18H191C191.552 18 192 17.5523 192 17C192 16.4477 191.552 16 191 16H186.333V12H191C191.552 12 192 11.5523 192 11C192 10.4477 191.552 10 191 10H186.333V6.16699Z" fill="#C624FF"/>
<path d="M259.586 14.583L260.333 18.333" stroke="#C624FF" stroke-width="2" stroke-linecap="round" stroke-linejoin="round"/>
<path d="M262.831 12.6504L266.253 18.3329" stroke="#C624FF" stroke-width="2" stroke-linecap="round" stroke-linejoin="round"/>
<path d="M259.92 17.333C258.263 17.333 256.92 18.6762 256.92 20.333V28.3099C256.92 30.1525 257.465 31.9539 258.487 33.4871L258.755 33.8877C259.981 35.7278 262.046 36.833 264.258 36.833H269.915C272.127 36.833 274.192 35.7278 275.419 33.8877L275.686 33.4871C276.708 31.9539 277.253 30.1525 277.253 28.3099V18.333C277.253 17.7807 276.806 17.333 276.253 17.333H259.92Z" fill="#C624FF"/>
<path d="M275 19H278.304C281.497 19 284 21.4624 284 24.5C284 27.5376 281.497 30 278.304 30H276.475" stroke="#C624FF" stroke-width="3"/>
<path d="M256.253 12.5003C254.587 10.5003 255.559 6.11144 256.253 4.16699C257.076 5.59429 261.08 6.96027 262.919 9.16699C265.003 11.667 261.113 14.4768 260.419 14.5837C259.725 14.7225 257.92 14.5003 256.253 12.5003Z" fill="#C624FF" stroke="#C624FF" stroke-width="2" stroke-linecap="round" stroke-linejoin="round"/>
<path fill-rule="evenodd" clip-rule="evenodd" d="M275.172 3.19966C275.51 3.28801 275.776 3.54562 275.877 3.87954L277.211 8.32449C277.263 8.49823 277.267 8.68287 277.222 8.85866L276.503 11.6853L269.969 9.87056L270.683 7.06762C270.729 6.88726 270.824 6.72328 270.958 6.59416L274.225 3.44685C274.476 3.20497 274.835 3.11131 275.172 3.19966ZM269.476 11.8092L267.878 18.087C267.802 18.3861 267.868 18.7037 268.057 18.9474C268.247 19.1911 268.538 19.3337 268.847 19.3337H273.778C274.235 19.3337 274.635 19.0235 274.747 18.5804L276.009 13.624L269.476 11.8092Z" fill="#C624FF"/>
<path fill-rule="evenodd" clip-rule="evenodd" d="M26.155 87.6471C27.3571 86.6063 29.1624 86.6841 30.2704 87.8245L35.7718 93.4869C36.857 94.6039 36.9071 96.3655 35.8872 97.5423L25.0047 110.098L13.5058 98.5993L26.155 87.6471ZM11.232 100.568L9.84577 101.768C9.49578 102.071 9.39955 102.575 9.61316 102.986C10.246 104.203 10.4193 104.997 10.3872 105.653C10.3557 106.298 10.1231 106.93 9.67086 107.84L3.93596 113.985C3.66426 114.276 3.59117 114.7 3.74987 115.065C3.90857 115.431 4.26882 115.667 4.66701 115.667H12.167C12.332 115.667 12.4944 115.626 12.6398 115.548L15.726 113.892C16.7886 113.385 17.514 113.188 18.1914 113.189C18.8781 113.191 19.6302 113.396 20.7491 113.909C21.153 114.094 21.6308 113.991 21.9218 113.655L23.0349 112.371L11.232 100.568Z" fill="#C624FF"/>
<path d="M14.667 118.833L36.3337 118.833" stroke="#C624FF" stroke-width="3" stroke-linecap="round" stroke-linejoin="round"/>
<path fill-rule="evenodd" clip-rule="evenodd" d="M88.6843 118.805C88.6138 116.373 88.7576 113.924 89.133 111.53H97.6793C101.243 111.53 104.756 110.205 107.37 108.576C108.68 107.759 109.8 106.845 110.606 105.941C111.371 105.082 112.005 104.065 112.005 103.056C112.005 101.73 111.498 100.706 110.795 99.8103C110.583 99.5398 110.344 99.2699 110.088 99.0003H115.163C117.315 99.0003 118.585 97.1756 119.288 95.1473C120.018 93.0431 120.334 90.2365 120.334 87.2794C120.334 86.7547 119.928 86.3192 119.405 86.2819C109.524 85.5783 102.083 88.1536 96.803 92.689C91.5386 97.2109 88.5196 103.597 87.3031 110.353C86.7992 113.152 86.6028 116.022 86.6851 118.863C86.7011 119.415 87.1616 119.849 87.7137 119.833C88.2657 119.817 88.7003 119.357 88.6843 118.805Z" fill="#C624FF"/>
<path fill-rule="evenodd" clip-rule="evenodd" d="M186.501 86.167C184.754 86.167 183.003 86.8344 181.669 88.1686C179 90.8375 179 95.1646 181.669 97.8335L181.714 97.8792C182.04 98.2048 182.318 98.4814 182.547 98.9336C182.785 99.4004 183.001 100.123 183.001 101.334V107.334H190V101.334C190 100.123 190.217 99.4004 190.454 98.9336C190.684 98.4814 190.961 98.2048 191.287 97.8792L191.333 97.8335C194.002 95.1646 194.002 90.8375 191.333 88.1687C189.999 86.8345 188.249 86.167 186.501 86.167Z" fill="#C624FF"/>
<path d="M182.334 106.333H190.667L192.334 109.666H180.667L182.334 106.333Z" fill="#C624FF" fill-opacity="0.16" stroke="#C624FF" stroke-width="2" stroke-linejoin="round"/>
<path d="M176.833 108.667C175.176 108.667 173.833 110.01 173.833 111.667V115.5C173.833 116.053 174.281 116.5 174.833 116.5H176.333V118.833C176.333 119.386 176.781 119.833 177.333 119.833H194.833C195.385 119.833 195.833 119.386 195.833 118.833V116.5H198.166C198.719 116.5 199.166 116.053 199.166 115.5V111.667C199.166 110.01 197.823 108.667 196.166 108.667H176.833Z" fill="#C624FF"/>
<path d="M282.833 95.333C280.9 95.333 279.333 96.9 279.333 98.833C279.333 100.766 280.9 102.333 282.833 102.333C284.766 102.333 286.333 100.766 286.333 98.833C286.333 96.9 284.766 95.333 282.833 95.333Z" fill="#C624FF"/>
<path d="M282.833 112.833C280.9 112.833 279.333 114.4 279.333 116.333C279.333 118.266 280.9 119.833 282.833 119.833C284.766 119.833 286.333 118.266 286.333 116.333C286.333 114.4 284.766 112.833 282.833 112.833Z" fill="#C624FF"/>
<path d="M265.333 112.833C263.4 112.833 261.833 114.4 261.833 116.333C261.833 118.266 263.4 119.833 265.333 119.833C267.266 119.833 268.833 118.266 268.833 116.333C268.833 114.4 267.266 112.833 265.333 112.833Z" fill="#C624FF"/>
<path d="M265.333 95.333C263.4 95.333 261.833 96.9 261.833 98.833C261.833 100.766 263.4 102.333 265.333 102.333C267.266 102.333 268.833 100.766 268.833 98.833C268.833 96.9 267.266 95.333 265.333 95.333Z" fill="#C624FF"/>
<path d="M258.667 89.667H271.167M256.167 92.167V104.667M273.667 92.167V98.8337M265.334 107.167H258.667" stroke="#C624FF" stroke-width="2" stroke-linejoin="round"/>
<circle cx="273.667" cy="89.667" r="2.5" fill="#C624FF" stroke="#C624FF" stroke-width="2"/>
<circle cx="256.167" cy="107.167" r="2.5" fill="#C624FF" stroke="#C624FF" stroke-width="2"/>
<circle cx="256.167" cy="89.667" r="2.5" fill="#C624FF" stroke="#C624FF" stroke-width="2"/>
<path fill-rule="evenodd" clip-rule="evenodd" d="M278.275 97.833C278.205 98.1552 278.168 98.4897 278.168 98.833C278.168 101.409 280.257 103.498 282.833 103.498C283.176 103.498 283.511 103.461 283.833 103.391V111.775C283.511 111.705 283.176 111.668 282.833 111.668C280.257 111.668 278.168 113.757 278.168 116.333C278.168 116.676 278.205 117.011 278.275 117.333L269.891 117.333C269.961 117.011 269.998 116.676 269.998 116.333C269.998 113.757 267.909 111.668 265.333 111.668C264.99 111.668 264.655 111.705 264.333 111.775V103.393C264.655 103.463 264.99 103.5 265.333 103.5C267.911 103.5 270 101.411 270 98.833C270 98.4897 269.963 98.1552 269.893 97.833L278.275 97.833Z" fill="#C624FF"/>
<path fill-rule="evenodd" clip-rule="evenodd" d="M18.0159 171.885C19.2057 170.128 21.7943 170.128 22.9842 171.885L27.3499 178.333H13.6505L18.0159 171.885ZM12.2964 180.333H28.7041L31.4742 184.424L26.2489 189.012C25.8528 189.36 25.2547 189.341 24.882 188.968L21.2073 185.293C21.0198 185.106 20.7654 185 20.5002 185C20.235 185 19.9806 185.106 19.7931 185.293L16.1185 188.968C15.7457 189.341 15.1477 189.36 14.7516 189.012L9.52629 184.424L12.2964 180.333ZM8.66699 186.331V199.833C8.66699 201.49 10.0101 202.833 11.667 202.833H14.5002V191.12C14.1169 190.998 13.7524 190.797 13.432 190.515L8.66699 186.331ZM16.5002 191.057V202.833H24.5002V191.057C24.1234 190.91 23.7708 190.685 23.4677 190.382L20.5002 187.415L17.5327 190.382C17.2297 190.685 16.877 190.91 16.5002 191.057ZM26.5002 191.12V202.833H29.3337C30.9905 202.833 32.3337 201.49 32.3337 199.833V186.331L27.5685 190.515C27.2481 190.797 26.8836 190.998 26.5002 191.12Z" fill="#C624FF"/>
<path d="M92.2416 199.38L118.339 173.283C121.294 177.263 120.966 182.912 117.356 186.523L116.427 187.451L111.208 185.434C110.435 185.136 109.566 185.52 109.268 186.293C108.969 187.066 109.354 187.934 110.126 188.233L114.108 189.771L111.265 192.614L106.039 190.601C105.266 190.303 104.398 190.688 104.1 191.461C103.802 192.234 104.188 193.102 104.961 193.4L108.944 194.935L106.624 197.255C105.186 198.693 103.236 199.5 101.203 199.5H93.0368C92.7598 199.5 92.4927 199.458 92.2416 199.38L88.7277 202.894C88.1419 203.479 87.1921 203.479 86.6063 202.894C86.0205 202.308 86.0205 201.358 86.6063 200.772L90.3754 197.003C90.3719 196.947 90.3701 196.891 90.3701 196.834V187.928C90.3701 185.895 91.1779 183.945 92.6156 182.507L102.978 172.145C106.588 168.535 112.237 168.207 116.217 171.161L90.3754 197.003C90.4458 198.124 91.2089 199.058 92.2416 199.38Z" fill="#C624FF"/>
<path fill-rule="evenodd" clip-rule="evenodd" d="M169.906 186.385C169.033 183.175 169.307 180.007 171.36 177.953C173.413 175.9 176.582 175.626 179.791 176.499C183.031 177.38 186.538 179.473 189.592 182.527C192.646 185.581 194.738 189.087 195.62 192.328C196.492 195.537 196.219 198.705 194.165 200.759C192.112 202.812 188.943 203.086 185.734 202.213C182.494 201.332 178.987 199.239 175.934 196.185C172.88 193.131 170.787 189.625 169.906 186.385ZM175.792 186.421C175.151 184.545 175.077 182.498 176.386 181.19C177.695 179.881 179.741 179.955 181.617 180.596C183.561 181.26 185.689 182.636 187.586 184.533C189.482 186.43 190.859 188.558 191.523 190.502C192.164 192.377 192.237 194.424 190.929 195.733C189.62 197.041 187.573 196.967 185.698 196.327C183.754 195.663 181.626 194.286 179.729 192.389C177.832 190.493 176.456 188.365 175.792 186.421ZM197.982 169.741C198.748 168.976 199.989 168.976 200.755 169.741L202.759 171.745C203.524 172.511 203.524 173.752 202.759 174.518L201.199 176.078L196.422 171.301L197.982 169.741ZM194.301 173.422L184.606 183.117C184.449 183.274 184.349 183.48 184.321 183.7L183.841 187.543C183.802 187.849 183.908 188.156 184.126 188.374C184.344 188.592 184.651 188.698 184.957 188.659L188.8 188.179C189.021 188.151 189.226 188.051 189.383 187.894L199.078 178.199L194.301 173.422Z" fill="#C624FF"/>
<path fill-rule="evenodd" clip-rule="evenodd" d="M272.5 169.433C271.527 169.258 270.524 169.167 269.5 169.167C269.164 169.167 268.831 169.177 268.5 169.196V184.876L272.5 180.738V169.433ZM275.5 177.635L280.075 172.902C278.71 171.799 277.168 170.904 275.5 170.268V177.635ZM261.5 171.186C262.747 170.511 264.089 169.989 265.5 169.645V187.979L261.5 192.117V171.186ZM258.5 173.258C254.928 176.345 252.667 180.909 252.667 186C252.667 190.211 254.213 194.06 256.768 197.012L258.5 195.221V173.258ZM269.5 202.834C265.494 202.834 261.815 201.434 258.925 199.098L282.232 174.987C284.787 177.939 286.334 181.789 286.334 186C286.334 195.297 278.797 202.834 269.5 202.834Z" fill="#C624FF"/>
</svg>
