<svg width="290" height="206" viewBox="0 0 290 206" fill="none" xmlns="http://www.w3.org/2000/svg">
<path d="M35.1594 15.9842C34.4639 13.2019 31.964 11.25 29.096 11.25H25.0833L26.285 13.75H29.096C30.8168 13.75 32.3167 14.9211 32.7341 16.5905L35.1206 26.1365C35.288 26.8062 35.9667 27.2134 36.6364 27.046C37.3062 26.8786 37.7134 26.1999 37.5459 25.5302L35.1594 15.9842Z" fill="#C624FF"/>
<path d="M8.74862 3.33301C8.48384 3.33301 8.23481 3.45884 8.07774 3.67201C7.92067 3.88518 7.87426 4.1603 7.95269 4.4132L9.55614 9.58301H24.7842L26.3987 4.41483C26.4778 4.16181 26.4317 3.88627 26.2747 3.6727C26.1176 3.45913 25.8684 3.33301 25.6033 3.33301H8.74862Z" fill="#C624FF"/>
<path d="M10.3262 12.0661L10.0731 11.25H25.0833L26.285 13.75C28.9702 16.3512 30.4999 20.3897 30.4999 24.1667C30.4999 31.1423 23.9946 36.6667 17.1666 36.6667C10.3386 36.6667 3.83325 31.1423 3.83325 24.1667C3.83325 19.4248 6.24439 14.2707 10.3262 12.0661Z" fill="#C624FF" fill-opacity="0.3"/>
<path d="M88.5 30V33.3333C88.5 33.7936 88.8731 34.1667 89.3333 34.1667H92.25V35.4167C92.25 36.107 92.8096 36.6667 93.5 36.6667C94.1904 36.6667 94.75 36.107 94.75 35.4167V34.1667H112.25V35.4167C112.25 36.107 112.81 36.6667 113.5 36.6667C114.19 36.6667 114.75 36.107 114.75 35.4167V34.1667H117.667C118.127 34.1667 118.5 33.7936 118.5 33.3333V30H88.5Z" fill="#C624FF"/>
<path fill-rule="evenodd" clip-rule="evenodd" d="M95.6211 4.15282C97.2019 3.75523 99.0828 3.33301 103.5 3.33301C107.916 3.33301 109.797 3.75523 111.378 4.15282C113.113 4.58918 113.68 6.27933 113.448 7.634C113.302 8.48457 112.952 9.38831 112.635 10.2039C112.581 10.3438 112.528 10.481 112.477 10.6149C112.105 11.5926 111.833 12.4295 111.833 13.1629L111.833 14.1663C113.921 14.1663 115.615 15.022 116.773 16.4211C117.917 17.8042 118.5 19.6701 118.5 21.6663V28.333H88.5V21.6663C88.5 19.6701 89.0829 17.8042 90.2272 16.4211C91.3846 15.0221 93.0788 14.1665 95.1662 14.1663V13.1629C95.1662 12.4295 94.8945 11.5926 94.5221 10.6149C94.4711 10.4809 94.4179 10.3437 94.3637 10.2039C94.0474 9.38823 93.697 8.48457 93.5512 7.634C93.3189 6.27932 93.886 4.58918 95.6211 4.15282ZM111 18.333C109.159 18.333 107.667 19.8254 107.667 21.6663C107.667 23.5073 109.159 24.9997 111 24.9997C112.841 24.9997 114.333 23.5073 114.333 21.6663C114.333 19.8254 112.841 18.333 111 18.333ZM106.589 9.7556C106.915 9.43016 106.915 8.90252 106.589 8.57709C106.264 8.25165 105.736 8.25165 105.411 8.57709L102.077 11.9104C101.752 12.2359 101.752 12.7635 102.077 13.0889C102.403 13.4144 102.93 13.4144 103.256 13.0889L106.589 9.7556ZM104.089 6.91042C104.415 7.23586 104.415 7.76349 104.089 8.08893L100.756 11.4223C100.43 11.7477 99.9028 11.7477 99.5774 11.4223C99.252 11.0968 99.252 10.5692 99.5774 10.2438L102.911 6.91042C103.236 6.58498 103.764 6.58498 104.089 6.91042Z" fill="#C624FF" fill-opacity="0.3"/>
<path fill-rule="evenodd" clip-rule="evenodd" d="M111 18.3337C109.159 18.3337 107.667 19.826 107.667 21.667C107.667 23.5079 109.159 25.0003 111 25.0003C112.841 25.0003 114.333 23.5079 114.333 21.667C114.333 19.826 112.841 18.3337 111 18.3337ZM106.589 9.75625C106.915 9.43081 106.915 8.90317 106.589 8.57774C106.264 8.2523 105.736 8.2523 105.411 8.57774L102.077 11.9111C101.752 12.2365 101.752 12.7641 102.077 13.0896C102.403 13.415 102.93 13.415 103.256 13.0896L106.589 9.75625ZM104.089 6.91107C104.415 7.23651 104.415 7.76414 104.089 8.08958L100.756 11.4229C100.43 11.7484 99.9028 11.7484 99.5773 11.4229C99.2519 11.0975 99.2519 10.5698 99.5773 10.2444L102.911 6.91107C103.236 6.58563 103.764 6.58563 104.089 6.91107Z" fill="#C624FF"/>
<path d="M201.083 15.4167C201.083 13.8058 199.777 12.5 198.167 12.5H196.5V15H198.167C198.397 15 198.583 15.1865 198.583 15.4167V25.4167C198.583 26.107 199.143 26.6667 199.833 26.6667C200.524 26.6667 201.083 26.107 201.083 25.4167V15.4167Z" fill="#C624FF"/>
<path d="M196.5 34.1667V15V12.5H173.167C172.83 12.5 172.526 12.703 172.397 13.0144C172.268 13.3258 172.339 13.6843 172.577 13.9226L178.167 19.5118V34.1667C178.167 35.5474 179.286 36.6667 180.667 36.6667H194C195.381 36.6667 196.5 35.5474 196.5 34.1667Z" fill="#C624FF" fill-opacity="0.3"/>
<path d="M184 5.83301C184 4.4523 185.119 3.33301 186.5 3.33301H188.167C189.547 3.33301 190.667 4.4523 190.667 5.83301V6.66634H194C195.381 6.66634 196.5 7.78563 196.5 9.16634V10.833H178.167V9.16634C178.167 7.78563 179.286 6.66634 180.667 6.66634H184V5.83301Z" fill="#C624FF"/>
<path d="M254.5 6.66699C254.5 5.28628 255.619 4.16699 257 4.16699H283.667C285.047 4.16699 286.167 5.28628 286.167 6.66699V35.0003C286.167 35.4606 285.793 35.8337 285.333 35.8337H254.083C253.393 35.8337 252.833 35.274 252.833 34.5837C252.833 33.8933 253.393 33.3337 254.083 33.3337H257.587H269.747H277.833V14.167H264.917H262.417H257C255.619 14.167 254.5 13.0477 254.5 11.667V6.66699Z" fill="#C624FF" fill-opacity="0.3"/>
<path d="M264.917 14.167V18.3337C264.917 19.024 264.357 19.5837 263.667 19.5837C262.976 19.5837 262.417 19.024 262.417 18.3337V14.167H264.917Z" fill="#C624FF"/>
<path d="M257.586 33.3333L256.446 25.3536C256.231 23.8475 257.4 22.5 258.921 22.5H268.411C269.932 22.5 271.101 23.8475 270.886 25.3536L269.746 33.3333H257.586Z" fill="#C624FF"/>
<path d="M18.8333 110.5H13V117.167C13 118.547 14.1193 119.667 15.5 119.667H16.3333C17.714 119.667 18.8333 118.547 18.8333 117.167V110.5Z" fill="#C624FF"/>
<path fill-rule="evenodd" clip-rule="evenodd" d="M15.5 86.333C14.1193 86.333 13 87.4523 13 88.833V108.833H26.3333C27.714 108.833 28.8333 107.714 28.8333 106.333V88.833C28.8333 87.4523 27.714 86.333 26.3333 86.333H15.5ZM19.6667 90.4997C18.286 90.4997 17.1667 91.619 17.1667 92.9997C17.1667 94.3804 18.286 95.4997 19.6667 95.4997C21.0474 95.4997 22.1667 94.3804 22.1667 92.9997C22.1667 91.619 21.0474 90.4997 19.6667 90.4997Z" fill="#C624FF" fill-opacity="0.3"/>
<path d="M17.1667 93C17.1667 91.6193 18.286 90.5 19.6667 90.5C21.0475 90.5 22.1667 91.6193 22.1667 93C22.1667 94.3807 21.0475 95.5 19.6667 95.5C18.286 95.5 17.1667 94.3807 17.1667 93Z" fill="#C624FF"/>
<path fill-rule="evenodd" clip-rule="evenodd" d="M90.438 116.825L93.3793 95.5H113.625L116.566 116.825C116.774 118.327 115.606 119.667 114.09 119.667H92.9145C91.398 119.667 90.2307 118.327 90.438 116.825ZM98.5016 106.333C98.5016 105.413 99.2478 104.667 100.168 104.667C101.089 104.667 101.835 105.413 101.835 106.333C101.835 107.254 101.089 108 100.168 108C99.2478 108 98.5016 107.254 98.5016 106.333ZM96.835 110.5C95.9145 110.5 95.1683 111.246 95.1683 112.167C95.1683 113.087 95.9145 113.833 96.835 113.833C97.7554 113.833 98.5016 113.087 98.5016 112.167C98.5016 111.246 97.7554 110.5 96.835 110.5ZM105.168 106.333C105.168 105.413 105.914 104.667 106.835 104.667C107.755 104.667 108.502 105.413 108.502 106.333C108.502 107.254 107.755 108 106.835 108C105.914 108 105.168 107.254 105.168 106.333ZM103.502 110.5C102.581 110.5 101.835 111.246 101.835 112.167C101.835 113.087 102.581 113.833 103.502 113.833C104.422 113.833 105.168 113.087 105.168 112.167C105.168 111.246 104.422 110.5 103.502 110.5ZM108.502 112.167C108.502 111.246 109.248 110.5 110.168 110.5C111.089 110.5 111.835 111.246 111.835 112.167C111.835 113.087 111.089 113.833 110.168 113.833C109.248 113.833 108.502 113.087 108.502 112.167Z" fill="#C624FF" fill-opacity="0.3"/>
<path d="M96 86.333C94.6193 86.333 93.5 87.4523 93.5 88.833V93.833H113.5V88.833C113.5 87.4523 112.381 86.333 111 86.333H96Z" fill="#C624FF"/>
<path d="M100.167 104.667C99.2463 104.667 98.5001 105.413 98.5001 106.334C98.5001 107.254 99.2463 108 100.167 108C101.087 108 101.833 107.254 101.833 106.334C101.833 105.413 101.087 104.667 100.167 104.667Z" fill="#C624FF"/>
<path d="M95.1667 112.167C95.1667 111.247 95.9129 110.5 96.8334 110.5C97.7539 110.5 98.5001 111.247 98.5001 112.167C98.5001 113.087 97.7539 113.834 96.8334 113.834C95.9129 113.834 95.1667 113.087 95.1667 112.167Z" fill="#C624FF"/>
<path d="M106.833 104.667C105.913 104.667 105.167 105.413 105.167 106.334C105.167 107.254 105.913 108 106.833 108C107.754 108 108.5 107.254 108.5 106.334C108.5 105.413 107.754 104.667 106.833 104.667Z" fill="#C624FF"/>
<path d="M101.833 112.167C101.833 111.247 102.58 110.5 103.5 110.5C104.421 110.5 105.167 111.247 105.167 112.167C105.167 113.087 104.421 113.834 103.5 113.834C102.58 113.834 101.833 113.087 101.833 112.167Z" fill="#C624FF"/>
<path d="M110.167 110.5C109.246 110.5 108.5 111.247 108.5 112.167C108.5 113.087 109.246 113.834 110.167 113.834C111.087 113.834 111.833 113.087 111.833 112.167C111.833 111.247 111.087 110.5 110.167 110.5Z" fill="#C624FF"/>
<path fill-rule="evenodd" clip-rule="evenodd" d="M169.833 90.5V92.1667H173.167V119.669H199.833V92.1667H203.167V90.5H169.833ZM191.083 95.0833H188.583V114.25H191.083V95.0833ZM184.417 95.0833V114.25H181.917V95.0833H184.417Z" fill="#C624FF" fill-opacity="0.3"/>
<path fill-rule="evenodd" clip-rule="evenodd" d="M191.083 95.083H188.583V114.25H191.083V95.083ZM184.417 95.083V114.25H181.917V95.083H184.417Z" fill="#C624FF"/>
<path fill-rule="evenodd" clip-rule="evenodd" d="M179.417 86.333H193.583V90.4997H191.083V88.833H181.917V90.4997H179.417V86.333Z" fill="#C624FF"/>
<path d="M255.748 95.5C255.771 95.5338 255.794 95.5672 255.818 95.6L264 106.746V118.833C264 119.104 264.131 119.357 264.352 119.513C264.572 119.67 264.855 119.709 265.11 119.619L274.443 116.335C274.777 116.218 275 115.903 275 115.549V106.746L283.182 95.6C283.206 95.5672 283.229 95.5338 283.252 95.5H255.748Z" fill="#C624FF" fill-opacity="0.3"/>
<path d="M255.333 88.833C255.333 87.4523 256.453 86.333 257.833 86.333H281.167C282.547 86.333 283.667 87.4523 283.667 88.833V93.833H255.333V88.833Z" fill="#C624FF"/>
<path d="M32.1666 171.833L32.1666 171.828L32.1665 171.822L32.1663 171.811C32.1661 171.804 32.1658 171.797 32.1654 171.789C32.1646 171.774 32.1634 171.758 32.1617 171.741C32.1583 171.709 32.1529 171.674 32.145 171.638C32.1293 171.565 32.1043 171.489 32.0679 171.41C31.9947 171.253 31.8823 171.102 31.7292 170.96C31.4323 170.686 30.9625 170.43 30.2242 170.203C28.748 169.749 25.9386 169.333 20.4999 169.333C15.0613 169.333 12.2518 169.749 10.7757 170.203C10.0374 170.43 9.5675 170.686 9.27062 170.96C9.11758 171.102 9.00512 171.253 8.9319 171.41C8.89556 171.489 8.87054 171.565 8.85479 171.638C8.84697 171.674 8.84156 171.709 8.83812 171.741C8.83641 171.758 8.83519 171.774 8.8344 171.789C8.83401 171.797 8.83372 171.804 8.83353 171.811L8.83332 171.822L8.83327 171.828C8.83326 171.83 8.83485 171.833 8.83485 171.833H8.83325V174.541L9.42277 174.369C9.43175 174.367 9.44321 174.363 9.45724 174.359C9.48539 174.35 9.52393 174.339 9.57364 174.326C9.67304 174.299 9.8173 174.263 10.0128 174.221C10.4037 174.138 11.0006 174.03 11.8549 173.923C13.5628 173.709 16.3065 173.5 20.4999 173.5C24.6933 173.5 27.437 173.709 29.1449 173.923C29.9993 174.03 30.5962 174.138 30.987 174.221C31.1825 174.263 31.3268 174.299 31.4262 174.326C31.4759 174.339 31.5144 174.35 31.5426 174.359L31.5579 174.363L32.1666 174.513V171.833Z" fill="#C624FF"/>
<path fill-rule="evenodd" clip-rule="evenodd" d="M19.6667 178.569C17.302 178.966 15.5001 181.023 15.5001 183.5C15.5001 186.262 17.7387 188.5 20.5001 188.5C23.2615 188.5 25.5001 186.262 25.5001 183.5C25.5001 181.023 23.6982 178.966 21.3334 178.569V183.5C21.3334 183.96 20.9603 184.334 20.5001 184.334C20.0398 184.334 19.6667 183.96 19.6667 183.5V178.569ZM15.5001 191.834C15.0398 191.834 14.6667 192.207 14.6667 192.667C14.6667 193.127 15.0398 193.5 15.5001 193.5H18.8334C19.2937 193.5 19.6667 193.127 19.6667 192.667C19.6667 192.207 19.2937 191.834 18.8334 191.834H15.5001ZM21.3334 192.667C21.3334 192.207 21.7065 191.834 22.1667 191.834H25.5001C25.9603 191.834 26.3334 192.207 26.3334 192.667C26.3334 193.127 25.9603 193.5 25.5001 193.5H22.1667C21.7065 193.5 21.3334 193.127 21.3334 192.667Z" fill="#C624FF"/>
<path d="M15.0833 199.985V200.166H13C12.3096 200.166 11.75 200.726 11.75 201.416C11.75 202.107 12.3096 202.666 13 202.666H16.3333C17.0237 202.666 17.5833 202.107 17.5833 201.416V200.166H20.5H23.4167V201.416C23.4167 202.107 23.9763 202.666 24.6667 202.666H28C28.6904 202.666 29.25 202.107 29.25 201.416C29.25 200.726 28.6904 200.166 28 200.166H25.9167V199.985C24.4876 200.097 22.7111 200.166 20.5 200.166C18.2889 200.166 16.5124 200.097 15.0833 199.985Z" fill="#C624FF"/>
<path fill-rule="evenodd" clip-rule="evenodd" d="M14.25 192.667C14.25 191.977 14.8096 191.417 15.5 191.417H18.8333C19.5237 191.417 20.0833 191.977 20.0833 192.667C20.0833 193.357 19.5237 193.917 18.8333 193.917H15.5C14.8096 193.917 14.25 193.357 14.25 192.667Z" fill="#C624FF"/>
<path fill-rule="evenodd" clip-rule="evenodd" d="M20.9167 192.667C20.9167 191.977 21.4764 191.417 22.1667 191.417H25.5001C26.1904 191.417 26.7501 191.977 26.7501 192.667C26.7501 193.357 26.1904 193.917 25.5001 193.917H22.1667C21.4764 193.917 20.9167 193.357 20.9167 192.667Z" fill="#C624FF"/>
<path fill-rule="evenodd" clip-rule="evenodd" d="M32.1666 176.23L31.134 175.976C31.1139 175.971 31.094 175.966 31.0744 175.959L31.0637 175.956C31.0511 175.952 31.0278 175.945 30.9929 175.936C30.923 175.917 30.8069 175.888 30.6378 175.852C30.2995 175.779 29.7506 175.679 28.9382 175.577C27.3128 175.374 24.6399 175.167 20.4999 175.167C16.36 175.167 13.687 175.374 12.0616 175.577C11.2493 175.679 10.7003 175.779 10.362 175.852C10.193 175.888 10.0768 175.917 10.0069 175.936C9.97201 175.945 9.94869 175.952 9.93615 175.956L9.9255 175.959C9.91688 175.962 9.90823 175.965 9.89953 175.967L8.83325 176.278V197.667H8.83479C8.83471 197.67 8.8338 197.671 8.8338 197.671L8.83327 197.672L8.83332 197.678L8.83353 197.689C8.83372 197.696 8.83401 197.703 8.8344 197.711C8.83519 197.726 8.83641 197.742 8.83812 197.759C8.84156 197.791 8.84697 197.826 8.85479 197.862C8.87054 197.935 8.89556 198.011 8.9319 198.09C9.00512 198.247 9.11758 198.398 9.27062 198.54C9.5675 198.814 10.0374 199.07 10.7757 199.297C12.2518 199.751 15.0613 200.167 20.4999 200.167C25.9386 200.167 28.748 199.751 30.2242 199.297C30.9625 199.07 31.4323 198.814 31.7292 198.54C31.8823 198.398 31.9947 198.247 32.0679 198.09C32.1043 198.011 32.1293 197.935 32.145 197.862C32.1529 197.826 32.1583 197.791 32.1617 197.759L32.1629 197.746L32.164 197.733L32.1648 197.722L32.1654 197.711L32.166 197.699L32.1663 197.689L32.1665 197.678L32.1666 197.672C32.1666 197.67 32.1665 197.678 32.1666 197.667V176.23ZM19.6666 178.569C17.3018 178.966 15.4999 181.023 15.4999 183.5C15.4999 186.262 17.7385 188.5 20.4999 188.5C23.2613 188.5 25.4999 186.262 25.4999 183.5C25.4999 181.023 23.698 178.966 21.3333 178.569V183.5C21.3333 183.961 20.9602 184.334 20.4999 184.334C20.0397 184.334 19.6666 183.961 19.6666 183.5V178.569ZM14.2499 192.667C14.2499 191.977 14.8096 191.417 15.4999 191.417H18.8333C19.5236 191.417 20.0833 191.977 20.0833 192.667C20.0833 193.357 19.5236 193.917 18.8333 193.917H15.4999C14.8096 193.917 14.2499 193.357 14.2499 192.667ZM22.1666 191.417C21.4762 191.417 20.9166 191.977 20.9166 192.667C20.9166 193.357 21.4762 193.917 22.1666 193.917H25.4999C26.1903 193.917 26.7499 193.357 26.7499 192.667C26.7499 191.977 26.1903 191.417 25.4999 191.417H22.1666Z" fill="#C624FF" fill-opacity="0.3"/>
<path d="M100.167 169.336C99.3689 169.336 98.4643 169.726 97.9941 170.504C96.2937 173.316 95.1084 176.743 94.47 180.181L112.53 180.181C111.892 176.743 110.706 173.316 109.006 170.504C108.536 169.727 107.633 169.336 106.834 169.336H104.757V174.341H102.257V169.336H100.167Z" fill="#C624FF"/>
<path d="M93.9167 185.999C93.9167 184.658 94.0128 183.26 94.2027 181.848L112.796 181.848C112.986 183.26 113.082 184.658 113.082 185.999C113.082 191.34 111.605 197.197 109.004 201.498C108.534 202.275 107.633 202.666 106.833 202.666H100.167C99.3644 202.666 98.4714 202.273 98.0029 201.5C95.3972 197.197 93.9167 191.345 93.9167 185.999Z" fill="#C624FF" fill-opacity="0.3"/>
<path d="M186.134 169.387C186.25 169.352 186.373 169.333 186.5 169.333H200.25C201.861 169.333 203.167 170.639 203.167 172.25V189.333H200.667V172.25C200.667 172.02 200.48 171.833 200.25 171.833H191.706C192.205 172.497 192.595 173.262 192.85 174.088C192.927 174.341 192.881 174.615 192.723 174.828C192.566 175.041 192.318 175.166 192.053 175.166H181.786C181.522 175.166 181.273 175.041 181.116 174.828C180.959 174.615 180.912 174.341 180.99 174.088C181.743 171.642 183.69 169.729 186.134 169.387Z" fill="#C624FF"/>
<path d="M203.167 189.333V200.166C203.167 201.547 202.047 202.666 200.667 202.666H172.333C170.953 202.666 169.833 201.547 169.833 200.166V191.833C169.833 190.454 170.949 189.333 172.331 189.333H180.404C180.715 189.333 180.999 189.505 181.143 189.78C182.316 192.026 184.235 193.222 186.5 193.222C188.765 193.222 190.684 192.026 191.857 189.78C192.001 189.505 192.285 189.333 192.596 189.333H203.167Z" fill="#C624FF" fill-opacity="0.3"/>
<path d="M184.833 179.334C184.833 178.413 185.58 177.667 186.5 177.667C187.42 177.667 188.167 178.413 188.167 179.334C188.167 180.254 187.42 181 186.5 181C185.58 181 184.833 180.254 184.833 179.334Z" fill="#C624FF"/>
<path d="M179 182.667C179 181.747 179.746 181 180.667 181C181.587 181 182.333 181.747 182.333 182.667C182.333 183.587 181.587 184.334 180.667 184.334C179.746 184.334 179 183.587 179 182.667Z" fill="#C624FF"/>
<path d="M189.833 183.5C188.913 183.5 188.167 184.247 188.167 185.167C188.167 186.087 188.913 186.834 189.833 186.834C190.754 186.834 191.5 186.087 191.5 185.167C191.5 184.247 190.754 183.5 189.833 183.5Z" fill="#C624FF"/>
<path d="M265.75 194.333C265.75 193.643 265.19 193.083 264.5 193.083C263.81 193.083 263.25 193.643 263.25 194.333C263.25 197.325 260.825 199.75 257.833 199.75C257.143 199.75 256.583 200.309 256.583 201C256.583 201.69 257.143 202.25 257.833 202.25C262.206 202.25 265.75 198.705 265.75 194.333Z" fill="#C624FF"/>
<path d="M276.137 193.083C275.447 193.083 274.887 193.643 274.887 194.333C274.887 198.705 278.432 202.25 282.804 202.25C283.494 202.25 284.054 201.69 284.054 201C284.054 200.309 283.494 199.75 282.804 199.75C279.812 199.75 277.387 197.325 277.387 194.333C277.387 193.643 276.828 193.083 276.137 193.083Z" fill="#C624FF"/>
<path d="M269.884 194.421C269.933 193.732 269.414 193.135 268.725 193.086C268.037 193.038 267.439 193.556 267.39 194.245C267.21 196.808 266.105 199.259 264.441 200.958C263.957 201.451 263.965 202.243 264.458 202.726C264.952 203.209 265.743 203.201 266.226 202.708C268.322 200.569 269.663 197.553 269.884 194.421Z" fill="#C624FF"/>
<path d="M271.912 193.086C271.223 193.135 270.705 193.732 270.753 194.421C270.975 197.562 272.351 200.575 274.441 202.708C274.924 203.201 275.715 203.209 276.208 202.726C276.701 202.243 276.709 201.451 276.226 200.958C274.556 199.253 273.427 196.799 273.247 194.245C273.198 193.556 272.601 193.038 271.912 193.086Z" fill="#C624FF"/>
<path d="M261.583 194.333C261.583 193.643 261.024 193.083 260.333 193.083C259.643 193.083 259.083 193.643 259.083 194.333C259.083 195.484 258.151 196.416 257 196.416C256.31 196.416 255.75 196.976 255.75 197.666C255.75 198.357 256.31 198.916 257 198.916C259.531 198.916 261.583 196.864 261.583 194.333Z" fill="#C624FF"/>
<path d="M280.304 193.083C279.614 193.083 279.054 193.643 279.054 194.333C279.054 196.864 281.106 198.916 283.637 198.916C284.328 198.916 284.887 198.357 284.887 197.666C284.887 196.976 284.328 196.416 283.637 196.416C282.487 196.416 281.554 195.484 281.554 194.333C281.554 193.643 280.994 193.083 280.304 193.083Z" fill="#C624FF"/>
<path d="M269.917 169.333C269.226 169.333 268.667 169.893 268.667 170.583C268.667 171.273 269.226 171.833 269.917 171.833H283.25C283.48 171.833 283.667 172.02 283.667 172.25V174.333H286.167V172.25C286.167 170.639 284.861 169.333 283.25 169.333H269.917Z" fill="#C624FF"/>
<path fill-rule="evenodd" clip-rule="evenodd" d="M286.171 175.134L286.172 175.148L286.172 175.166V190.166C286.172 191.547 285.053 192.666 283.672 192.666H255.339C253.983 192.666 252.78 191.548 252.925 190.086C253.802 181.241 261.263 174.333 270.339 174.333H283.671H286.171V175.134ZM282.835 180.166C282.835 181.547 281.715 182.666 280.335 182.666C278.954 182.666 277.835 181.547 277.835 180.166C277.835 178.786 278.954 177.666 280.335 177.666C281.715 177.666 282.835 178.786 282.835 180.166Z" fill="#C624FF" fill-opacity="0.3"/>
<path d="M280.333 182.667C281.714 182.667 282.833 181.548 282.833 180.167C282.833 178.786 281.714 177.667 280.333 177.667C278.953 177.667 277.833 178.786 277.833 180.167C277.833 181.548 278.953 182.667 280.333 182.667Z" fill="#C624FF"/>
</svg>
