<svg width="290" height="206" viewBox="0 0 290 206" fill="none" xmlns="http://www.w3.org/2000/svg">
<path d="M28.8333 21.667C32.9754 21.667 36.3333 18.3091 36.3333 14.167C36.3333 10.0249 32.9754 6.66699 28.8333 6.66699C24.7396 6.66699 21.3333 10.0478 21.3333 14.167C21.3333 18.2643 24.7448 21.667 28.8333 21.667Z" fill="#01AB31"/>
<path d="M7.21708 21.149C5.62635 19.2638 4.66675 16.8262 4.66675 14.1663C4.66675 8.18326 9.517 3.33301 15.5001 3.33301C18.6248 3.33301 21.4399 4.6562 23.4164 6.771C23.1064 6.99836 22.8113 7.24466 22.5329 7.50814C20.7545 9.19145 19.6667 11.5477 19.6667 14.1663C19.6667 16.785 20.7545 19.1412 22.5329 20.8245C22.8572 21.1315 23.1981 21.4125 23.5543 21.6663H7.33204L7.21708 21.149Z" fill="#01AB31" fill-opacity="0.3"/>
<path d="M7.70044 23.333L10.6634 36.6663H30.3337L33.2967 23.333H7.70044Z" fill="#01AB31"/>
<path d="M117.667 14.167H89.3335C89.3335 14.167 89.3333 14.5401 89.3333 15.0003C89.3333 22.4031 95.0113 28.4798 102.25 29.1126L102.25 34.167H93.9166V36.667H113.083V34.167H104.75L104.75 29.1126C111.988 28.4798 117.667 22.4031 117.667 15.0003V14.167Z" fill="#01AB31"/>
<path d="M114.897 12.4997C113.752 7.2577 109.084 3.33301 103.499 3.33301C97.9133 3.33301 93.2448 7.2577 92.1003 12.4997H114.897Z" fill="#01AB31" fill-opacity="0.3"/>
<path fill-rule="evenodd" clip-rule="evenodd" d="M196.17 13.5511L191.978 25.1137L192.85 36.0647L192.715 35.6013L188.14 19.7977L186.077 9.99967H190.323C190.274 9.72944 190.248 9.45092 190.248 9.16634C190.248 6.63504 192.3 4.58301 194.831 4.58301C197.362 4.58301 199.414 6.63504 199.414 9.16634C199.414 11.232 198.048 12.9785 196.17 13.5511ZM192.751 9.16634C192.751 8.01575 193.683 7.08301 194.834 7.08301C195.984 7.08301 196.917 8.01575 196.917 9.16634C196.917 10.3169 195.984 11.2497 194.834 11.2497C193.683 11.2497 192.751 10.3169 192.751 9.16634Z" fill="#01AB31"/>
<path d="M183.324 4.99967H173.167V3.33301H184.676L186.08 9.99967H184.377L183.324 4.99967Z" fill="#01AB31" fill-opacity="0.3"/>
<path d="M180.744 36.6663H192.901L192.853 36.0647L192.717 35.6013L191.116 36.0647L186.524 20.2016L184.377 9.99967H176.142L181.664 25.1148L180.744 36.6663Z" fill="#01AB31" fill-opacity="0.3"/>
<path d="M262.833 34.1665H268.25L268.25 27.4414H270.75V34.1665H276.167V36.6665H262.833V34.1665Z" fill="#01AB31"/>
<path d="M260.409 3.33301H278.591L278.835 3.57437C281.184 5.9018 282.645 9.7956 282.816 13.333L256.184 13.333C256.356 9.7956 257.816 5.9018 260.165 3.57437L260.409 3.33301Z" fill="#01AB31"/>
<path d="M256.168 13.8818C256.167 13.9304 256.167 13.979 256.167 14.0275C256.167 14.076 256.167 14.1246 256.168 14.1731L256.168 13.8818Z" fill="#01AB31"/>
<path d="M268.248 27.4416C261.78 26.8344 256.663 21.5618 256.199 15L282.797 15C282.334 21.5618 277.216 26.8344 270.748 27.4416H268.248Z" fill="#01AB31" fill-opacity="0.3"/>
<path d="M36.7217 99.6665L25.3478 86.0654L4.41919 99.6665H36.7217Z" fill="#01AB31" fill-opacity="0.3"/>
<path d="M37.1666 101.333H3.83325V108.833H37.1666V101.333Z" fill="#01AB31"/>
<path d="M3.83325 119.667V110.5H37.1666V119.667H3.83325Z" fill="#01AB31"/>
<path d="M86.8333 118.833C86.8333 100.884 101.384 86.333 119.333 86.333H120.167V93.4163H119.333C105.296 93.4163 93.9166 104.796 93.9166 118.833V119.666H86.8333V118.833Z" fill="#01AB31"/>
<path fill-rule="evenodd" clip-rule="evenodd" d="M96.4167 119.667H120.167V95.917H119.333C106.677 95.917 96.4167 106.177 96.4167 118.834V119.667ZM102.667 110.5C102.667 108.659 104.159 107.167 106 107.167C107.841 107.167 109.333 108.659 109.333 110.5C109.333 112.341 107.841 113.834 106 113.834C104.159 113.834 102.667 112.341 102.667 110.5ZM111.833 100.5C110.453 100.5 109.333 101.62 109.333 103C109.333 104.381 110.453 105.5 111.833 105.5C113.214 105.5 114.333 104.381 114.333 103C114.333 101.62 113.214 100.5 111.833 100.5Z" fill="#01AB31" fill-opacity="0.3"/>
<path d="M106 107.167C104.159 107.167 102.667 108.659 102.667 110.5C102.667 112.341 104.159 113.833 106 113.833C107.841 113.833 109.333 112.341 109.333 110.5C109.333 108.659 107.841 107.167 106 107.167Z" fill="#01AB31"/>
<path d="M109.333 103C109.333 101.619 110.453 100.5 111.833 100.5C113.214 100.5 114.333 101.619 114.333 103C114.333 104.381 113.214 105.5 111.833 105.5C110.453 105.5 109.333 104.381 109.333 103Z" fill="#01AB31"/>
<path d="M173.167 106.333H199.833V119.666H173.167V106.333Z" fill="#01AB31"/>
<path d="M196.5 96.333V104.666H176.5V96.333H196.5Z" fill="#01AB31" fill-opacity="0.3"/>
<path d="M186.501 85.6641L189.854 90.6986C190.852 92.1967 190.87 94.0035 190.238 95.4289C190.097 95.7478 189.921 96.0526 189.712 96.3338H183.288C183.079 96.0525 182.902 95.7475 182.761 95.4284C182.13 94.0028 182.148 92.1958 183.146 90.6977L186.501 85.6641Z" fill="#01AB31"/>
<path d="M259.113 107.167C259.622 109.784 260.307 112.407 260.982 114.991C261.341 116.367 261.698 117.732 262.023 119.078L262.177 119.716H276.823L276.977 119.078C277.302 117.732 277.659 116.367 278.018 114.991C278.693 112.408 279.378 109.784 279.887 107.167H259.113Z" fill="#01AB31"/>
<path d="M280.149 105.499C280.594 100.433 277.344 95.7406 272.545 94.3185L266.455 94.3184C261.655 95.7403 258.405 100.432 258.851 105.499H280.149Z" fill="#01AB31" fill-opacity="0.3"/>
<path d="M264.917 90.8939C264.917 88.3626 266.969 86.3105 269.5 86.3105C272.031 86.3105 274.083 88.3626 274.083 90.8939C274.083 92.2565 273.489 93.4803 272.545 94.3199L266.455 94.3197C265.511 93.4802 264.917 92.2565 264.917 90.8939Z" fill="#01AB31"/>
<path d="M33.0129 183.5H28.0017C28.0017 183.537 27.9991 183.575 27.994 183.612L25.4022 202.667H29.5281L33.0129 183.5Z" fill="#01AB31"/>
<path d="M26.3273 183.5H21.3334V202.667H23.7202L26.3273 183.5Z" fill="#01AB31"/>
<path d="M19.6668 183.5H14.6745L17.2894 202.667H19.6668L19.6668 183.5Z" fill="#01AB31"/>
<path d="M13 183.5H7.9856L11.4704 202.667H15.6073L13.0077 183.613C13.0026 183.575 13 183.537 13 183.5Z" fill="#01AB31"/>
<path d="M20.1289 169.333C17.5283 169.333 15.2966 170.532 13.8897 172.666H13.4622C10.2224 172.666 7.62891 175.28 7.62891 178.5C7.62891 179.748 8.01212 180.893 8.66457 181.833H31.5833C32.2424 180.888 32.6289 179.739 32.6289 178.5C32.6289 175.281 30.0495 172.666 26.7956 172.666H26.3681C24.9612 170.532 22.7296 169.333 20.1289 169.333Z" fill="#01AB31" fill-opacity="0.3"/>
<path d="M91 181.833H116V184.333C116 188.677 113.785 192.503 110.422 194.743L114.363 201.909L112.172 203.114L108.213 195.914C106.759 196.507 105.167 196.833 103.5 196.833C101.832 196.833 100.241 196.506 98.7864 195.914L94.8262 203.114L92.6357 201.91L96.5773 194.743C93.2152 192.502 91 188.676 91 184.333V181.833Z" fill="#01AB31"/>
<path d="M104.75 169.333V179.75H102.25V169.333H104.75Z" fill="#01AB31" fill-opacity="0.3"/>
<path d="M98.0833 172.25H95.5833V179.75H98.0833V172.25Z" fill="#01AB31" fill-opacity="0.3"/>
<path d="M111.417 172.25H108.917V179.75H111.417V172.25Z" fill="#01AB31" fill-opacity="0.3"/>
<path fill-rule="evenodd" clip-rule="evenodd" d="M169.833 187.667V195.167C169.833 196.548 170.953 197.667 172.333 197.667H174.492C174.884 199.8 176.753 201.417 179 201.417C181.247 201.417 183.116 199.8 183.508 197.667H192.75V201.417C192.75 202.107 193.31 202.667 194 202.667C194.69 202.667 195.25 202.107 195.25 201.417V198.084H201.917C202.607 198.084 203.167 197.524 203.167 196.834C203.167 196.143 202.607 195.584 201.917 195.584H194.932C194.901 195.549 194.868 195.516 194.833 195.485V187.667H169.833ZM176.917 196.834C176.917 195.683 177.849 194.75 179 194.75C180.151 194.75 181.083 195.683 181.083 196.834C181.083 197.984 180.151 198.917 179 198.917C177.849 198.917 176.917 197.984 176.917 196.834Z" fill="#01AB31"/>
<path d="M182.706 169.421C182.471 169.304 182.195 169.304 181.961 169.421L170.294 175.254C170.012 175.395 169.833 175.684 169.833 176V186H176.5V181.833C176.5 181.373 176.873 181 177.333 181C177.793 181 178.167 181.373 178.167 181.833V186H194.833V176C194.833 175.684 194.655 175.395 194.373 175.254L182.706 169.421Z" fill="#01AB31" fill-opacity="0.3"/>
<path fill-rule="evenodd" clip-rule="evenodd" d="M252.833 189.572C252.833 180.247 260.283 172.667 269.5 172.667C278.716 172.667 286.167 180.247 286.167 189.572V191.834H252.833V189.572ZM271.706 185.614C271.854 185.984 272 186.434 272 186.834C272 187.458 271.809 188.099 271.34 188.589C270.863 189.086 270.189 189.334 269.41 189.334C268.628 189.334 267.966 189.082 267.525 188.537C267.11 188.025 267 187.387 267 186.834C267 186.454 267.123 186.018 267.254 185.647C267.394 185.252 267.579 184.833 267.77 184.451C267.96 184.071 268.166 183.708 268.352 183.431C268.443 183.295 268.543 183.157 268.647 183.044C268.698 182.989 268.769 182.917 268.857 182.854C268.921 182.807 269.116 182.672 269.395 182.667C269.677 182.662 269.878 182.793 269.94 182.834C270.03 182.894 270.103 182.962 270.157 183.015C270.266 183.124 270.375 183.259 270.474 183.394C270.678 183.669 270.908 184.031 271.122 184.412C271.336 184.794 271.546 185.216 271.706 185.614ZM276.416 180.774C276.842 181.023 277.273 181.31 277.564 181.603C278.053 182.094 278.461 182.698 278.608 183.359C278.766 184.064 278.612 184.803 278.029 185.389C277.751 185.669 277.422 185.865 277.049 185.952C276.679 186.037 276.32 186.003 275.996 185.904C275.374 185.715 274.816 185.272 274.359 184.812C274.078 184.529 273.79 184.114 273.533 183.698C273.267 183.267 273.003 182.783 272.774 182.325C272.545 181.869 272.344 181.423 272.208 181.069C272.142 180.896 272.082 180.722 272.045 180.57C272.027 180.498 272.006 180.396 272.001 180.286C271.999 180.231 271.999 180.145 272.018 180.045C272.037 179.952 272.087 179.775 272.239 179.613C272.396 179.446 272.576 179.385 272.671 179.362C272.772 179.337 272.861 179.333 272.916 179.334C273.028 179.334 273.132 179.352 273.205 179.367C273.36 179.399 273.538 179.453 273.715 179.514C274.078 179.639 274.536 179.828 275.005 180.044C275.476 180.262 275.974 180.515 276.416 180.774ZM266.288 179.352C266.381 179.371 266.558 179.421 266.721 179.573C266.888 179.73 266.948 179.91 266.972 180.004C266.997 180.106 267 180.194 267 180.25C266.999 180.362 266.982 180.465 266.967 180.539C266.935 180.693 266.881 180.871 266.819 181.049C266.694 181.411 266.506 181.869 266.289 182.339C266.072 182.809 265.819 183.308 265.56 183.75C265.311 184.176 265.023 184.607 264.731 184.898C264.239 185.386 263.636 185.795 262.975 185.942C262.269 186.099 261.531 185.946 260.944 185.363C260.665 185.085 260.468 184.756 260.382 184.383C260.296 184.013 260.331 183.654 260.43 183.329C260.619 182.708 261.062 182.15 261.521 181.693C261.804 181.412 262.219 181.124 262.636 180.866C263.066 180.601 263.551 180.336 264.009 180.107C264.465 179.879 264.911 179.678 265.264 179.542C265.437 179.475 265.611 179.416 265.763 179.379C265.836 179.361 265.937 179.34 266.047 179.335C266.102 179.332 266.188 179.332 266.288 179.352Z" fill="#01AB31"/>
<path fill-rule="evenodd" clip-rule="evenodd" d="M271.706 185.614C271.854 185.984 272 186.433 272 186.833C272 187.458 271.809 188.098 271.34 188.588C270.863 189.086 270.189 189.333 269.41 189.333C268.628 189.333 267.966 189.081 267.525 188.536C267.11 188.025 267 187.386 267 186.833C267 186.453 267.123 186.017 267.254 185.647C267.394 185.252 267.579 184.832 267.77 184.451C267.96 184.07 268.166 183.708 268.352 183.43C268.443 183.294 268.543 183.156 268.647 183.043C268.698 182.988 268.769 182.917 268.857 182.853C268.921 182.807 269.116 182.672 269.395 182.667C269.677 182.661 269.878 182.792 269.94 182.833C270.03 182.893 270.103 182.961 270.157 183.014C270.266 183.123 270.375 183.258 270.474 183.393C270.678 183.668 270.908 184.03 271.122 184.411C271.336 184.793 271.546 185.215 271.706 185.614ZM276.416 180.773C276.842 181.022 277.273 181.31 277.564 181.602C278.053 182.094 278.461 182.697 278.608 183.358C278.766 184.064 278.612 184.802 278.029 185.389C277.751 185.668 277.422 185.865 277.049 185.951C276.679 186.037 276.32 186.002 275.996 185.903C275.374 185.714 274.816 185.271 274.359 184.812C274.078 184.529 273.79 184.114 273.533 183.697C273.267 183.267 273.003 182.782 272.774 182.324C272.545 181.868 272.344 181.422 272.208 181.069C272.142 180.896 272.082 180.722 272.045 180.57C272.027 180.497 272.006 180.396 272.001 180.286C271.999 180.231 271.999 180.145 272.018 180.044C272.037 179.952 272.087 179.775 272.239 179.612C272.396 179.445 272.576 179.385 272.671 179.361C272.772 179.336 272.861 179.333 272.916 179.333C273.028 179.334 273.132 179.351 273.205 179.366C273.36 179.398 273.538 179.452 273.715 179.514C274.078 179.639 274.536 179.827 275.005 180.044C275.476 180.261 275.974 180.514 276.416 180.773ZM266.288 179.352C266.381 179.37 266.558 179.42 266.721 179.572C266.888 179.729 266.948 179.909 266.972 180.004C266.997 180.105 267 180.194 267 180.249C266.999 180.361 266.982 180.465 266.967 180.538C266.935 180.693 266.881 180.871 266.819 181.048C266.694 181.411 266.506 181.869 266.289 182.338C266.072 182.809 265.819 183.307 265.56 183.749C265.311 184.175 265.023 184.606 264.731 184.897C264.239 185.386 263.636 185.794 262.975 185.942C262.269 186.099 261.531 185.945 260.944 185.362C260.665 185.084 260.468 184.755 260.382 184.382C260.296 184.013 260.331 183.653 260.43 183.329C260.619 182.707 261.062 182.149 261.521 181.692C261.804 181.411 262.219 181.123 262.636 180.866C263.066 180.6 263.551 180.336 264.009 180.107C264.465 179.878 264.911 179.677 265.264 179.541C265.437 179.475 265.611 179.415 265.763 179.378C265.836 179.36 265.937 179.339 266.047 179.334C266.102 179.332 266.188 179.332 266.288 179.352Z" fill="#01AB31" fill-opacity="0.3"/>
<path d="M252.833 193.5V199.333H286.167V193.5H252.833Z" fill="#01AB31" fill-opacity="0.3"/>
</svg>
