<svg width="290" height="206" viewBox="0 0 290 206" fill="none" xmlns="http://www.w3.org/2000/svg">
<path fill-rule="evenodd" clip-rule="evenodd" d="M35.3909 5.11041L24.3808 3.27539L10.4412 17.2147L23.2866 30.0601L37.2269 16.1202L35.3909 5.11041ZM3.48828 24.1675L9.26269 18.3932L22.1081 31.2386L16.3334 37.0131L3.48828 24.1675ZM23.8333 13.334C23.8333 11.493 25.3257 10.0007 27.1667 10.0007C29.0076 10.0007 30.5 11.493 30.5 13.334C30.5 15.1749 29.0076 16.6673 27.1667 16.6673C25.3257 16.6673 23.8333 15.1749 23.8333 13.334Z" fill="#01AB31"/>
<path fill-rule="evenodd" clip-rule="evenodd" d="M109.434 4.75545C108.458 3.77935 106.875 3.77945 105.899 4.75566L91.7713 18.8829C91.7964 18.9029 91.8207 18.9244 91.844 18.9477L104.621 31.7245L118.746 17.6008C119.723 16.6244 119.722 15.0413 118.746 14.065L109.434 4.75545ZM103.442 32.903L90.6655 20.1262C90.6422 20.103 90.6206 20.0787 90.6007 20.0535L88.2557 22.3985C87.2794 23.3748 87.2793 24.9577 88.2556 25.934L97.5654 35.244C98.5416 36.2203 100.125 36.2204 101.101 35.2441L103.442 32.903ZM108.5 11.6667C106.659 11.6667 105.167 13.1591 105.167 15C105.167 16.8409 106.659 18.3333 108.5 18.3333C110.341 18.3333 111.833 16.8409 111.833 15C111.833 13.1591 110.341 11.6667 108.5 11.6667Z" fill="#01AB31"/>
<path fill-rule="evenodd" clip-rule="evenodd" d="M190.822 4.75525C191.799 3.7795 193.381 3.7795 194.357 4.75525L201.743 12.1377C202.72 13.1141 202.72 14.6977 201.743 15.6741L180.999 36.408C180.843 36.5638 180.632 36.6516 180.411 36.6519L170.683 36.667C170.462 36.6673 170.25 36.5798 170.093 36.4238C169.937 36.2678 169.849 36.0559 169.848 35.8349L169.833 26.0809C169.833 25.8594 169.921 25.6468 170.077 25.4902L190.822 4.75525ZM174.833 28.3333C174.833 26.4924 176.326 25 178.167 25C180.008 25 181.5 26.4924 181.5 28.3333C181.5 30.1743 180.008 31.6667 178.167 31.6667C176.326 31.6667 174.833 30.1743 174.833 28.3333Z" fill="#01AB31"/>
<path fill-rule="evenodd" clip-rule="evenodd" d="M270.75 4.58398C270.75 3.89363 270.19 3.33398 269.5 3.33398C268.81 3.33398 268.25 3.89363 268.25 4.58398V6.66732H270.75V4.58398ZM258.667 16.9444C258.667 11.6309 262.89 7.32097 268.25 6.73464V13.5756C267.028 14.0701 266.167 15.2678 266.167 16.6667C266.167 18.5076 267.659 20 269.5 20C271.341 20 272.833 18.5076 272.833 16.6667C272.833 15.2678 271.971 14.0701 270.75 13.5756V6.73464C276.109 7.32097 280.333 11.6309 280.333 16.9444V34.1667C280.333 35.5474 279.214 36.6667 277.833 36.6667H261.167C259.786 36.6667 258.667 35.5474 258.667 34.1667V16.9444Z" fill="#01AB31"/>
<path fill-rule="evenodd" clip-rule="evenodd" d="M7.89834 95.3344C7.98589 94.0211 9.07664 93.0007 10.3928 93.0007H30.5919C31.9074 93.0007 32.9979 94.0201 33.0863 95.3327L34.5452 116.999C34.6424 118.443 33.4977 119.667 32.0509 119.667H8.94836C7.5022 119.667 6.35769 118.444 6.45389 117.001L7.89834 95.3344ZM26.3841 105.551C26.8723 105.063 26.8723 104.272 26.3841 103.783C25.896 103.295 25.1045 103.295 24.6164 103.783L18.8336 109.566L16.3841 107.117C15.896 106.629 15.1045 106.629 14.6164 107.117C14.1282 107.605 14.1282 108.396 14.6164 108.885L17.9497 112.218C18.4378 112.706 19.2293 112.706 19.7175 112.218L26.3841 105.551ZM20.5002 88.834C18.4291 88.834 16.7502 90.5129 16.7502 92.584V97.584C16.7502 98.2743 16.1905 98.834 15.5002 98.834C14.8098 98.834 14.2502 98.2743 14.2502 97.584V92.584C14.2502 89.1322 17.0484 86.334 20.5002 86.334C23.9519 86.334 26.7502 89.1322 26.7502 92.584V97.584C26.7502 98.2743 26.1905 98.834 25.5002 98.834C24.8098 98.834 24.2502 98.2743 24.2502 97.584V92.584C24.2502 90.5129 22.5712 88.834 20.5002 88.834Z" fill="#01AB31"/>
<path fill-rule="evenodd" clip-rule="evenodd" d="M90.8935 96.161C90.9839 94.8502 92.0736 93.833 93.3876 93.833H113.594C114.907 93.833 115.997 94.8492 116.088 96.1593L117.539 116.993C117.64 118.438 116.494 119.666 115.045 119.666H91.9508C90.5024 119.666 89.3571 118.439 89.4567 116.994L90.8935 96.161ZM96.0002 104.666C96.0002 103.286 97.1195 102.166 98.5002 102.166C99.8809 102.166 101 103.286 101 104.666C101 106.047 99.8809 107.166 98.5002 107.166C97.1195 107.166 96.0002 106.047 96.0002 104.666ZM108.5 108.833C107.119 108.833 106 109.952 106 111.333C106 112.714 107.119 113.833 108.5 113.833C109.881 113.833 111 112.714 111 111.333C111 109.952 109.881 108.833 108.5 108.833ZM107.717 105.55C108.206 105.062 108.206 104.271 107.717 103.782C107.229 103.294 106.438 103.294 105.95 103.782L99.2829 110.449C98.7948 110.937 98.7948 111.729 99.2829 112.217C99.7711 112.705 100.563 112.705 101.051 112.217L107.717 105.55ZM103.5 88.416C101.429 88.416 99.7501 90.0949 99.7501 92.166V94.666V97.9993C99.7501 98.6897 99.1904 99.2493 98.5001 99.2493C97.8097 99.2493 97.2501 98.6897 97.2501 97.9993V94.666V92.166C97.2501 88.7142 100.048 85.916 103.5 85.916C106.952 85.916 109.75 88.7142 109.75 92.166V94.666V97.9993C109.75 98.6897 109.19 99.2493 108.5 99.2493C107.81 99.2493 107.25 98.6897 107.25 97.9993V94.666V92.166C107.25 90.0949 105.571 88.416 103.5 88.416Z" fill="#01AB31"/>
<path fill-rule="evenodd" clip-rule="evenodd" d="M182.75 92.584C182.75 90.5129 184.429 88.834 186.5 88.834C188.571 88.834 190.25 90.5129 190.25 92.584V93.0007H182.75V92.584ZM180.25 93.0007V92.584C180.25 89.1322 183.048 86.334 186.5 86.334C189.952 86.334 192.75 89.1322 192.75 92.584V93.0007H194.833C196.214 93.0007 197.333 94.1199 197.333 95.5007V108.834H197.333H175.667V95.5007C175.667 94.1199 176.786 93.0007 178.167 93.0007H180.25ZM175.667 117.167V110.501H197.333H197.333V117.167C197.333 118.548 196.214 119.667 194.833 119.667H178.167C176.786 119.667 175.667 118.548 175.667 117.167Z" fill="#01AB31"/>
<path fill-rule="evenodd" clip-rule="evenodd" d="M267.833 86.334C267.295 86.334 266.818 86.6783 266.647 87.1887L263.599 96.3343H256.595C254.987 96.3343 253.797 97.8299 254.159 99.3965L258.39 117.73C258.651 118.864 259.661 119.668 260.826 119.668H278.174C279.338 119.668 280.348 118.864 280.61 117.73L284.841 99.3965C285.202 97.8299 284.012 96.3343 282.405 96.3343H275.401L272.352 87.1887C272.182 86.6783 271.705 86.334 271.167 86.334H267.833ZM272.766 96.3343L270.266 88.834H268.734L266.234 96.3343H272.766ZM274.083 104.668C274.083 103.977 273.524 103.418 272.833 103.418C272.143 103.418 271.583 103.977 271.583 104.668V111.334C271.583 112.025 272.143 112.584 272.833 112.584C273.524 112.584 274.083 112.025 274.083 111.334V104.668ZM266.167 103.418C266.857 103.418 267.417 103.977 267.417 104.668V111.334C267.417 112.025 266.857 112.584 266.167 112.584C265.476 112.584 264.917 112.025 264.917 111.334V104.668C264.917 103.977 265.476 103.418 266.167 103.418Z" fill="#01AB31"/>
<path fill-rule="evenodd" clip-rule="evenodd" d="M6.33325 173.5H16.3333V183.399L13.0505 180.116C12.5624 179.628 11.7709 179.628 11.2828 180.116C10.7946 180.604 10.7946 181.396 11.2828 181.884L14.5656 185.167H3.83333H3.83325V176C3.83325 174.619 4.95254 173.5 6.33325 173.5ZM19.7678 185.167L23.0505 181.884C23.5387 181.396 23.5387 180.604 23.0505 180.116C22.5624 179.628 21.7709 179.628 21.2828 180.116L18 183.399V173.5H34.6666C36.0473 173.5 37.1666 174.619 37.1666 176V185.167H19.7678ZM14.5656 186.833L11.2828 190.116C10.7946 190.604 10.7946 191.396 11.2828 191.884C11.7709 192.372 12.5624 192.372 13.0505 191.884L16.3333 188.601V198.5L6.33325 198.5C4.95254 198.5 3.83325 197.381 3.83325 196V186.833H3.83333H14.5656ZM21.2828 191.884L18 188.601V198.5L34.6666 198.5C36.0473 198.5 37.1666 197.381 37.1666 196V186.833H19.7678L23.0505 190.116C23.5387 190.604 23.5387 191.396 23.0505 191.884C22.5624 192.372 21.7709 192.372 21.2828 191.884Z" fill="#01AB31"/>
<path fill-rule="evenodd" clip-rule="evenodd" d="M92.6668 174.334H89.3335C87.9528 174.334 86.8335 175.453 86.8335 176.834V195.167C86.8335 196.548 87.9528 197.667 89.3335 197.667L92.6668 197.667V174.334ZM94.3335 197.667L117.667 197.667C119.048 197.667 120.167 196.548 120.167 195.167V191.417C120.167 190.957 119.794 190.584 119.333 190.584C116.899 190.584 114.889 188.552 114.889 186.001C114.889 183.449 116.899 181.417 119.333 181.417C119.794 181.417 120.167 181.044 120.167 180.584V176.834C120.167 175.453 119.048 174.334 117.667 174.334H94.3335V197.667Z" fill="#01AB31"/>
<path fill-rule="evenodd" clip-rule="evenodd" d="M171.083 171.834C170.393 171.834 169.833 172.394 169.833 173.084C169.833 173.774 170.393 174.334 171.083 174.334H174.853V187.446C174.84 187.518 174.833 187.592 174.833 187.667V193.084C174.833 194.591 175.976 195.831 177.442 195.985C177.371 196.256 177.333 196.54 177.333 196.834C177.333 198.675 178.826 200.167 180.667 200.167C182.508 200.167 184 198.675 184 196.834C184 196.546 183.963 196.267 183.895 196.001H192.438C192.37 196.267 192.333 196.546 192.333 196.834C192.333 198.675 193.826 200.167 195.667 200.167C197.508 200.167 199 198.675 199 196.834C199 195.338 198.015 194.072 196.658 193.65C196.481 193.555 196.279 193.501 196.064 193.501H195.667H180.667H177.75C177.52 193.501 177.333 193.314 177.333 193.084V188.501H199.001C199.391 188.501 199.73 188.229 199.814 187.848L203.148 172.848C203.202 172.601 203.142 172.343 202.984 172.146C202.826 171.949 202.587 171.834 202.334 171.834H176.084L176.083 171.834H171.083Z" fill="#01AB31"/>
<path fill-rule="evenodd" clip-rule="evenodd" d="M258.736 169.334C257.891 169.334 257.104 169.76 256.642 170.467L253.24 175.68C252.975 176.086 252.833 176.561 252.833 177.046V179.334C252.833 179.626 252.884 179.906 252.976 180.167H255.805L283.241 180.167H286.025C286.117 179.906 286.167 179.626 286.167 179.334V177.046C286.167 176.561 286.026 176.086 285.76 175.68L282.358 170.467C281.896 169.76 281.109 169.334 280.264 169.334H258.736ZM283.707 181.834H283.241L255.805 181.834H255.293C255.306 181.834 255.32 181.834 255.333 181.834H256.167V200.167C256.167 201.548 257.286 202.667 258.667 202.667H264.5V192.991C264.5 191.431 265.619 190.167 267 190.167H272C273.381 190.167 274.5 191.431 274.5 192.991V202.667H280.333C281.714 202.667 282.833 201.548 282.833 200.167V181.834H283.667C283.68 181.834 283.694 181.834 283.707 181.834Z" fill="#01AB31"/>
</svg>
