<svg width="290" height="206" viewBox="0 0 290 206" fill="none" xmlns="http://www.w3.org/2000/svg">
<path fill-rule="evenodd" clip-rule="evenodd" d="M3.85934 19.1451C4.3311 10.6639 11.1618 3.80033 19.6452 3.35668C19.6594 3.62498 19.6667 3.89522 19.6667 4.16722C19.6667 5.97225 19.3483 7.70274 18.7647 9.3055L18.1551 9.03248C17.735 8.84437 17.242 9.03238 17.0539 9.45242C16.8658 9.87246 17.0538 10.3655 17.4738 10.5536L18.1077 10.8375C17.5207 12.0194 16.7825 13.1128 15.9185 14.0924L15.3577 13.5252C15.0342 13.1979 14.5065 13.1949 14.1792 13.5184C13.852 13.842 13.8489 14.3696 14.1725 14.6969L14.7485 15.2796C13.6989 16.2331 12.5135 17.0395 11.225 17.6665L10.9658 17.1119C10.771 16.695 10.275 16.5149 9.85806 16.7098C9.44111 16.9046 9.26107 17.4006 9.45593 17.8176L9.68658 18.3111C8.12258 18.8655 6.43929 19.1672 4.6857 19.1672C4.40839 19.1672 4.13287 19.1598 3.85934 19.1451ZM16.6452 17.198L15.9212 16.4658C14.7359 17.5518 13.393 18.4683 11.9309 19.177L12.4555 20.2994C12.6504 20.7163 12.4703 21.2123 12.0534 21.4072C11.6364 21.602 11.1404 21.422 10.9456 21.005L10.3954 19.8278C8.61463 20.4787 6.69163 20.8339 4.6857 20.8339C4.40526 20.8339 4.12634 20.827 3.84912 20.8134C4.22127 29.4033 11.1227 36.2272 19.6825 36.6468C19.672 36.4044 19.6667 36.1608 19.6667 35.9159C19.6667 33.7283 20.0899 31.6342 20.8588 29.7127L20.1326 29.3562C19.7194 29.1534 19.5489 28.6541 19.7517 28.2409C19.9545 27.8278 20.4538 27.6573 20.867 27.8601L21.5546 28.1976C22.2677 26.829 23.1639 25.5698 24.2103 24.4535L23.5056 23.7407C23.182 23.4134 23.185 22.8858 23.5123 22.5622C23.8396 22.2387 24.3673 22.2417 24.6908 22.569L25.4087 23.2951C26.579 22.2705 27.892 21.4062 29.3135 20.7375L28.8933 19.7085C28.7193 19.2824 28.9237 18.7959 29.3498 18.6219C29.7759 18.448 30.2624 18.6524 30.4363 19.0785L30.8554 20.1048C32.5775 19.4978 34.4275 19.1672 36.3524 19.1672C36.6187 19.1672 36.8837 19.1735 37.1471 19.1859C36.7355 10.6239 29.87 3.75511 21.3138 3.35254C21.3268 3.62252 21.3333 3.89413 21.3333 4.16722C21.3333 6.2148 20.9645 8.17621 20.2896 9.98846L21.3636 10.4694C21.7836 10.6575 21.9716 11.1505 21.7835 11.5706C21.5954 11.9906 21.1024 12.1786 20.6824 11.9905L19.6302 11.5193C18.9563 12.8896 18.0999 14.1538 17.0927 15.2801L17.8304 16.0263C18.154 16.3536 18.151 16.8812 17.8237 17.2048C17.4964 17.5283 16.9687 17.5253 16.6452 17.198ZM29.9447 22.2835L30.2233 22.9659C30.3973 23.392 30.8838 23.5964 31.3098 23.4224C31.7359 23.2484 31.9403 22.762 31.7663 22.3359L31.4865 21.6505C33.0137 21.1215 34.6509 20.8339 36.3524 20.8339C36.6184 20.8339 36.8827 20.8408 37.1452 20.8545C36.7151 29.3858 29.8768 36.2268 21.3509 36.6468C21.3392 36.4047 21.3333 36.1611 21.3333 35.9159C21.3333 33.991 21.6973 32.1468 22.3599 30.4495L23.3354 30.9284C23.7486 31.1312 24.2479 30.9606 24.4507 30.5475C24.6535 30.1343 24.483 29.635 24.0698 29.4322L23.0513 28.9323C23.681 27.7312 24.4675 26.6244 25.383 25.6397L25.9783 26.2418C26.3018 26.5691 26.8295 26.5721 27.1567 26.2486C27.484 25.925 27.4871 25.3974 27.1635 25.0701L26.583 24.4829C27.596 23.6079 28.7257 22.8655 29.9447 22.2835Z" fill="#0074FF"/>
<path fill-rule="evenodd" clip-rule="evenodd" d="M86.8538 19.1664C87.0611 14.9548 88.8318 11.1542 91.5977 8.33292C94.4405 11.2326 98.3363 13.0991 102.667 13.3124V19.1664H86.8538ZM102.667 11.6434C98.821 11.4329 95.3613 9.77435 92.8227 7.20173C95.5157 4.95262 98.9293 3.53755 102.667 3.35352L102.667 11.6434ZM104.333 19.1664V13.3124C108.664 13.0991 112.559 11.2326 115.402 8.33292C118.168 11.1542 119.939 14.9548 120.146 19.1664H104.333ZM104.333 11.6434C108.179 11.4329 111.639 9.77435 114.177 7.20173C111.484 4.95262 108.071 3.53755 104.333 3.35352V11.6434ZM92.8226 32.7976C95.5156 35.0468 98.9292 36.4619 102.667 36.6459L102.667 28.3558C98.821 28.5663 95.3612 30.2249 92.8226 32.7976ZM91.5976 31.6664C88.8318 28.8451 87.0611 25.0446 86.8538 20.833H102.667V26.6869C98.3363 26.9002 94.4404 28.7666 91.5976 31.6664ZM104.333 28.3558V36.6459C108.071 36.4619 111.484 35.0468 114.177 32.7976C111.639 30.2249 108.179 28.5663 104.333 28.3558ZM115.402 31.6664C112.559 28.7666 108.664 26.9002 104.333 26.6869V20.833H120.146C119.939 25.0446 118.168 28.8451 115.402 31.6664Z" fill="#0074FF"/>
<path fill-rule="evenodd" clip-rule="evenodd" d="M169.833 20.0007C169.833 16.1006 171.213 12.4783 173.513 9.61364C176.568 13.4069 181.251 15.834 186.5 15.834C191.725 15.834 196.404 13.3779 199.464 9.58399C201.778 12.4525 203.167 16.0858 203.167 20.0007C203.167 23.5455 202.028 26.8595 200.095 29.584C197.07 25.3202 192.099 22.5006 186.5 22.5006C180.887 22.5006 175.907 25.3348 172.884 29.6146C170.963 26.8981 169.833 23.5812 169.833 20.0007ZM173.966 30.986C177.021 34.4686 181.504 36.6673 186.5 36.6673C191.475 36.6673 195.955 34.441 199.014 30.9533C196.322 26.8884 191.71 24.1673 186.5 24.1673C181.275 24.1673 176.654 26.904 173.966 30.986ZM186.5 3.33398C191.12 3.33398 195.313 5.25426 198.338 8.32179C195.588 11.8605 191.298 14.1673 186.5 14.1673C181.674 14.1673 177.381 11.8885 174.637 8.34817C177.663 5.26582 181.866 3.33398 186.5 3.33398Z" fill="#0074FF"/>
<path fill-rule="evenodd" clip-rule="evenodd" d="M268.667 3.35352C259.849 3.78771 252.833 11.0744 252.833 19.9997V27.0367C252.833 32.355 257.145 36.6664 262.463 36.6664H265.333V29.5553V24.1664H262.833C261.453 24.1664 260.333 23.0471 260.333 21.6664V18.333C260.333 16.9523 261.453 15.833 262.833 15.833H268.667V10.4442V3.35352ZM272 36.6664H267V29.5553V24.1664H272V29.5553V36.6664ZM273.667 36.6664H276.537C281.855 36.6664 286.167 32.355 286.167 27.0367V19.9997C286.167 11.0744 279.151 3.78771 270.333 3.35352V10.4442V15.833H276.167C277.548 15.833 278.667 16.9523 278.667 18.333V21.6664C278.667 23.0471 277.548 24.1664 276.167 24.1664H273.667V29.5553V36.6664Z" fill="#0074FF"/>
<path fill-rule="evenodd" clip-rule="evenodd" d="M7.21793 104.25H3.83325V101.75H7.21793C7.3641 99.9781 7.81824 98.2936 8.52669 96.75H5.49992V94.25H9.9817C11.0407 92.7778 12.36 91.5054 13.8721 90.5H8.83325V88H22.1666C30.4509 88 37.1666 94.7157 37.1666 103C37.1666 111.284 30.4509 118 22.1666 118H8.83325V115.5H13.8721C12.36 114.495 11.0407 113.222 9.9817 111.75H5.49992V109.25H8.52669C7.81824 107.706 7.3641 106.022 7.21793 104.25ZM23.4165 95.0833V96.3333V101.75H28.8332H30.0832V104.25H28.8332H22.1665H20.9165V103V96.3333V95.0833H23.4165Z" fill="#0074FF"/>
<path fill-rule="evenodd" clip-rule="evenodd" d="M86.8335 88.834C86.8335 87.4533 87.9528 86.334 89.3335 86.334H117.667C119.048 86.334 120.167 87.4533 120.167 88.834V107.995C120.167 109.151 119.373 110.157 118.249 110.426L113.368 111.594L114.114 103.758C115.198 103.484 116 102.503 116 101.334C116 99.9533 114.881 98.834 113.5 98.834H93.5002C92.1195 98.834 91.0002 99.9533 91.0002 101.334C91.0002 102.503 91.8024 103.484 92.8864 103.758L93.6333 111.6L88.7494 110.427C87.6257 110.157 86.8335 109.152 86.8335 107.996L86.8335 88.834ZM95.8602 117.404C95.9824 118.687 97.0601 119.667 98.349 119.667H102.667V112.54H95.397L95.8602 117.404ZM102.667 110.873H95.3072C95.2841 110.873 95.2612 110.874 95.2385 110.876L94.4091 102.167H93.5002C93.0399 102.167 92.6668 101.794 92.6668 101.334C92.6668 100.874 93.0399 100.501 93.5002 100.501H102.667V110.873ZM104.333 112.54V119.667H108.651C109.94 119.667 111.018 118.687 111.14 117.404L111.603 112.54H104.333ZM104.333 110.873V100.501H113.5C113.96 100.501 114.333 100.874 114.333 101.334C114.333 101.794 113.96 102.167 113.5 102.167H112.591L111.762 110.875C111.744 110.874 111.725 110.873 111.707 110.873H104.333Z" fill="#0074FF"/>
<path fill-rule="evenodd" clip-rule="evenodd" d="M198.167 86.334C195.405 86.334 193.167 88.5726 193.167 91.334C193.167 94.0954 195.405 96.334 198.167 96.334C200.928 96.334 203.167 94.0954 203.167 91.334C203.167 88.5726 200.928 86.334 198.167 86.334ZM178.167 101.751C178.167 101.06 178.726 100.501 179.417 100.501H183.167H199H202.333C203.024 100.501 203.583 101.06 203.583 101.751C203.583 102.441 203.024 103.001 202.333 103.001H199.679L198.307 117.404C198.185 118.687 197.107 119.667 195.818 119.667H186.349C185.06 119.667 183.982 118.687 183.86 117.404L182.925 107.584H172.333L172.333 118.417C172.333 119.108 171.774 119.667 171.083 119.667C170.393 119.667 169.833 119.108 169.833 118.417L169.833 106.335L169.833 106.334L169.833 106.333L169.833 87.584C169.833 86.8936 170.393 86.334 171.083 86.334C171.774 86.334 172.333 86.8936 172.333 87.584L172.333 105.084H182.687L182.488 103.001H179.417C178.726 103.001 178.167 102.441 178.167 101.751Z" fill="#0074FF"/>
<path fill-rule="evenodd" clip-rule="evenodd" d="M269.5 87.584C270.19 87.584 270.75 88.1436 270.75 88.834V92.1673C270.75 92.8577 270.19 93.4173 269.5 93.4173C268.81 93.4173 268.25 92.8577 268.25 92.1673V88.834C268.25 88.1436 268.81 87.584 269.5 87.584ZM278.717 91.3845C279.205 90.8964 279.205 90.1049 278.717 89.6168C278.229 89.1286 277.438 89.1286 276.95 89.6168L275.283 91.2834C274.795 91.7716 274.795 92.563 275.283 93.0512C275.771 93.5394 276.562 93.5394 277.051 93.0512L278.717 91.3845ZM264.5 94.667C258.057 94.667 252.833 99.8903 252.833 106.334C252.833 112.777 258.057 118 264.5 118C270.724 118 275.809 113.127 276.149 106.989L285.536 104.642C285.907 104.549 286.167 104.216 286.167 103.834V95.5003C286.167 95.0401 285.794 94.667 285.333 94.667H264.5ZM264.5 102.167C262.199 102.167 260.333 104.032 260.333 106.334C260.333 108.635 262.199 110.5 264.5 110.5C266.801 110.5 268.667 108.635 268.667 106.334C268.667 104.032 266.801 102.167 264.5 102.167ZM262.051 89.6168C261.562 89.1286 260.771 89.1286 260.283 89.6168C259.795 90.1049 259.795 90.8964 260.283 91.3845L261.95 93.0512C262.438 93.5394 263.229 93.5394 263.717 93.0512C264.205 92.563 264.205 91.7716 263.717 91.2834L262.051 89.6168Z" fill="#0074FF"/>
<path fill-rule="evenodd" clip-rule="evenodd" d="M34.1383 190.07L34.1375 190.07L34.1355 190.071L34.1299 190.073L34.1128 190.08C34.0987 190.085 34.0793 190.092 34.0546 190.101C34.0053 190.119 33.9351 190.144 33.8447 190.174C33.6639 190.234 33.4024 190.315 33.0662 190.404C32.3941 190.582 31.4227 190.794 30.2018 190.934C27.7594 191.215 24.3167 191.213 20.2784 190.098C16.4916 189.052 13.2647 188.883 10.9818 188.966C10.127 188.997 9.40428 189.064 8.8335 189.134V201.417C8.8335 202.108 8.27385 202.667 7.5835 202.667C6.89314 202.667 6.3335 202.108 6.3335 201.417V188.084C6.3335 188.084 6.3335 188.084 6.3335 188.084V170.685C6.3335 170.314 6.57929 169.987 6.93619 169.885L6.93761 169.884L6.93946 169.884L6.94444 169.882L6.95948 169.878C6.97176 169.875 6.98855 169.87 7.0098 169.865C7.05231 169.854 7.11268 169.838 7.19057 169.82C7.34635 169.784 7.57223 169.735 7.86552 169.682C8.4521 169.577 9.30829 169.457 10.4124 169.389C12.6211 169.252 15.8197 169.325 19.8335 170.144C23.6771 170.929 27.138 170.929 29.638 170.733C30.8869 170.635 31.8929 170.488 32.5828 170.366C32.9277 170.306 33.1932 170.251 33.3704 170.213C33.459 170.193 33.5255 170.178 33.5687 170.168L33.6158 170.156L33.626 170.154L33.6272 170.154C33.9583 170.069 34.3077 170.195 34.5083 170.472C34.7089 170.749 34.7201 171.12 34.5365 171.408L28.9879 180.128L34.5365 188.847C34.6701 189.057 34.7029 189.315 34.626 189.552C34.5491 189.789 34.3698 189.979 34.1383 190.07Z" fill="#0074FF"/>
<path fill-rule="evenodd" clip-rule="evenodd" d="M101.663 174.314C101.951 172.703 101.398 171.412 100.392 170.554C99.4259 169.728 98.0981 169.344 96.8304 169.334C95.5635 169.324 94.2306 169.687 93.2609 170.513C92.2498 171.374 91.7109 172.678 92.004 174.314L92.702 178.208C92.8185 178.858 92.8469 179.516 92.7889 180.167H100.878C100.82 179.516 100.848 178.858 100.965 178.208L101.663 174.314ZM92.1015 182.696C92.2383 182.405 92.3558 182.108 92.4537 181.807C92.5217 181.824 92.593 181.834 92.6667 181.834H101C101.074 181.834 101.145 181.824 101.213 181.806C101.311 182.108 101.428 182.405 101.565 182.696L103.973 187.814C106.031 192.189 105.394 197.254 102.324 201.061L101.279 202.357C101.121 202.553 100.882 202.667 100.63 202.667H93.0366C92.7846 202.667 92.5461 202.553 92.3879 202.357L91.3426 201.061C88.2728 197.254 87.6357 192.189 89.6936 187.814L92.1015 182.696ZM110.994 178.774C110.621 177.187 112.042 176 113.485 176C114.929 176 116.351 177.189 115.975 178.777L115.459 180.956C114.861 183.483 115.134 186.105 116.253 188.511L117.685 191.591C119.141 194.723 118.618 198.27 116.342 200.977L115.17 202.37C115.012 202.558 114.779 202.667 114.533 202.667H112.44C112.192 202.667 111.957 202.557 111.798 202.366L110.614 200.937C108.385 198.249 107.873 194.749 109.296 191.647L110.748 188.48C111.842 186.094 112.107 183.5 111.518 180.998L110.994 178.774Z" fill="#0074FF"/>
<path fill-rule="evenodd" clip-rule="evenodd" d="M195.645 168.988L203.512 176.855L181.313 199.056L178.263 196.005L171.551 202.718L170.667 203.602L168.899 201.834L169.783 200.95L176.495 194.238L173.447 191.189L195.645 168.988ZM193.167 197.667C193.167 194.905 195.405 192.667 198.167 192.667C200.928 192.667 203.167 194.905 203.167 197.667C203.167 200.428 200.928 202.667 198.167 202.667C195.405 202.667 193.167 200.428 193.167 197.667Z" fill="#0074FF"/>
<path fill-rule="evenodd" clip-rule="evenodd" d="M262 169.334C260.619 169.334 259.5 170.453 259.5 171.834V176.417H256.167C255.476 176.417 254.917 176.977 254.917 177.667C254.917 178.358 255.476 178.917 256.167 178.917H259.5V193.084H256.167C255.476 193.084 254.917 193.644 254.917 194.334C254.917 195.024 255.476 195.584 256.167 195.584H259.5V200.167C259.5 201.548 260.619 202.667 262 202.667H277C278.381 202.667 279.5 201.548 279.5 200.167V195.584H282.833C283.524 195.584 284.083 195.024 284.083 194.334C284.083 193.644 283.524 193.084 282.833 193.084H279.5V178.917H282.833C283.524 178.917 284.083 178.358 284.083 177.667C284.083 176.977 283.524 176.417 282.833 176.417H279.5V171.834C279.5 170.453 278.381 169.334 277 169.334H262ZM279.5 176.417V178.917H259.5V176.417H279.5ZM279.5 193.084H259.5V195.584H279.5V193.084Z" fill="#0074FF"/>
</svg>
