<svg width="290" height="206" viewBox="0 0 290 206" fill="none" xmlns="http://www.w3.org/2000/svg">
<path d="M4.66675 15.0003L36.3334 4.16699L25.5001 35.8337L21.3334 19.167L4.66675 15.0003Z" stroke="#0074FF" stroke-width="1.66667" stroke-linecap="round" stroke-linejoin="round"/>
<rect x="87.6667" y="4.16699" width="31.6667" height="31.6667" rx="15.8333" stroke="#0074FF" stroke-width="1.66667" stroke-linecap="round" stroke-linejoin="round"/>
<path d="M94.3333 18.0422L111 12.5L105.471 29.1667L102.25 21.25L94.3333 18.0422Z" stroke="#0074FF" stroke-width="1.66667" stroke-linecap="round" stroke-linejoin="round"/>
<rect x="170.667" y="4.16699" width="31.6667" height="31.6667" rx="15.8333" stroke="#0074FF" stroke-width="1.66667" stroke-linecap="round" stroke-linejoin="round"/>
<path d="M190.667 19.9997C190.667 22.3009 188.801 24.1663 186.5 24.1663C185.349 24.1663 184.308 23.7 183.554 22.946C182.8 22.1919 182.333 21.1503 182.333 19.9997C182.333 17.6985 184.199 15.833 186.5 15.833C187.651 15.833 188.692 16.2994 189.446 17.0534C190.2 17.8074 190.667 18.8491 190.667 19.9997Z" stroke="#0074FF" stroke-width="1.66667" stroke-linecap="round" stroke-linejoin="round"/>
<path d="M193.167 13.333L189.417 17.083" stroke="#0074FF" stroke-width="1.66667" stroke-linecap="round" stroke-linejoin="round"/>
<path d="M179.833 26.6662L183.583 22.9158" stroke="#0074FF" stroke-width="1.66667" stroke-linecap="round" stroke-linejoin="round"/>
<path d="M285.333 35.8337L269.5 4.16699L253.667 35.8337L269.5 27.5003L285.333 35.8337Z" stroke="#0074FF" stroke-width="1.66667" stroke-linecap="round" stroke-linejoin="round"/>
<path d="M8 103.742V117.167C8 118.087 8.74619 118.834 9.66667 118.834H18.8333C19.7538 118.834 20.5 118.087 20.5 117.167V88.8337C20.5 87.9132 21.2462 87.167 22.1667 87.167H31.3333C32.2538 87.167 33 87.9132 33 88.8337V102.066" stroke="#0074FF" stroke-width="1.66667" stroke-linecap="round" stroke-linejoin="round"/>
<path d="M5.38939 93.5389C3.58995 90.887 5.35738 87.167 8.41675 87.167C11.4761 87.167 13.2435 90.887 11.4441 93.5389L8.41675 98.0003L5.38939 93.5389Z" stroke="#0074FF" stroke-width="1.66667" stroke-linecap="round" stroke-linejoin="round"/>
<path d="M29.5559 114.372C27.7565 111.72 29.5239 108 32.5833 108C35.6426 108 37.41 111.72 35.6106 114.372L32.5833 118.833L29.5559 114.372Z" stroke="#0074FF" stroke-width="1.66667" stroke-linecap="round" stroke-linejoin="round"/>
<path fill-rule="evenodd" clip-rule="evenodd" d="M87.6667 88.417L97.667 91.7503L109.333 88.417L119.333 91.7503V116.75L109.333 114.25L97.667 117.584L87.6667 115.084V88.417Z" stroke="#0074FF" stroke-width="1.66667" stroke-linecap="round" stroke-linejoin="round"/>
<path d="M109.333 114.25V88.417" stroke="#0074FF" stroke-width="1.66667" stroke-linecap="round" stroke-linejoin="round"/>
<path d="M97.6667 117.583V91.75" stroke="#0074FF" stroke-width="1.66667" stroke-linecap="round" stroke-linejoin="round"/>
<path d="M179.833 110.5C179.833 110.5 180.667 105.089 186.5 103.833C192.333 102.577 193.167 98.833 193.167 98.833" stroke="#0074FF" stroke-width="1.66667" stroke-linecap="round" stroke-linejoin="round"/>
<path fill-rule="evenodd" clip-rule="evenodd" d="M170.667 89.667L180.667 93.0003L192.333 89.667L202.333 93.0003V116.334L192.333 113.834L180.667 116.334L170.667 113.834V89.667Z" stroke="#0074FF" stroke-width="1.66667" stroke-linecap="round" stroke-linejoin="round"/>
<path d="M192.333 89.667V95.0837" stroke="#0074FF" stroke-width="1.66667" stroke-linecap="round" stroke-linejoin="round"/>
<path d="M192.333 108V113.833" stroke="#0074FF" stroke-width="1.66667" stroke-linecap="round" stroke-linejoin="round"/>
<path d="M180.667 93.417V99.667" stroke="#0074FF" stroke-width="1.66667" stroke-linecap="round" stroke-linejoin="round"/>
<path d="M278.009 105.5H282L285.333 118.834H253.667L257 105.5H260.971" stroke="#0074FF" stroke-width="1.66667" stroke-linecap="round" stroke-linejoin="round"/>
<path d="M280.333 98.0003C280.333 106.483 269.5 115.5 269.5 115.5C269.5 115.5 258.667 106.483 258.667 98.0003C258.667 92.0172 263.517 87.167 269.5 87.167C275.483 87.167 280.333 92.0172 280.333 98.0003Z" stroke="#0074FF" stroke-width="1.66667" stroke-linecap="round" stroke-linejoin="round"/>
<path d="M273.667 97.9997C273.667 100.301 271.801 102.166 269.5 102.166C267.199 102.166 265.333 100.301 265.333 97.9997C265.333 95.6985 267.199 93.833 269.5 93.833C271.801 93.833 273.667 95.6985 273.667 97.9997Z" stroke="#0074FF" stroke-width="1.66667" stroke-linecap="round" stroke-linejoin="round"/>
<path d="M31.3334 181C31.3334 189.483 20.5001 198.5 20.5001 198.5C20.5001 198.5 9.66675 189.483 9.66675 181C9.66675 175.017 14.517 170.167 20.5001 170.167C26.4832 170.167 31.3334 175.017 31.3334 181Z" stroke="#0074FF" stroke-width="1.66667" stroke-linecap="round" stroke-linejoin="round"/>
<path d="M24.6666 181C24.6666 183.301 22.8011 185.166 20.4999 185.166C18.1987 185.166 16.3333 183.301 16.3333 181C16.3333 178.698 18.1987 176.833 20.4999 176.833C22.8011 176.833 24.6666 178.698 24.6666 181Z" stroke="#0074FF" stroke-width="1.66667" stroke-linecap="round" stroke-linejoin="round"/>
<path d="M26.6853 191.833C32.3563 192.625 36.3334 194.473 36.3334 196.627C36.3334 199.502 29.2446 201.833 20.5001 201.833C11.7556 201.833 4.66675 199.502 4.66675 196.627C4.66675 194.473 8.64384 192.625 14.3149 191.833" stroke="#0074FF" stroke-width="1.66667" stroke-linecap="round"/>
<circle cx="103.5" cy="177.667" r="7.5" stroke="#0074FF" stroke-width="1.66667" stroke-linecap="round" stroke-linejoin="round"/>
<path d="M103.5 185.167L103.5 195.167" stroke="#0074FF" stroke-width="1.66667" stroke-linecap="round" stroke-linejoin="round"/>
<path d="M110.342 188.5H116L119.333 201.834H87.6667L91.0001 188.5H96.6381" stroke="#0074FF" stroke-width="1.66667" stroke-linecap="round" stroke-linejoin="round"/>
<path d="M196.273 176.228C197.807 179.392 197.782 183.293 195.499 186.651L186.307 201.834L180.559 191.941" stroke="#0074FF" stroke-width="1.66667" stroke-linecap="round" stroke-linejoin="round"/>
<path d="M177.386 186.478C172.786 179.42 177.957 170.167 186.5 170.167C188.718 170.167 190.706 170.789 192.355 171.834" stroke="#0074FF" stroke-width="1.66667" stroke-linecap="round" stroke-linejoin="round"/>
<path d="M202.333 170.167L196.273 176.228L180.56 191.941L170.667 201.834" stroke="#0074FF" stroke-width="1.66667" stroke-linecap="round" stroke-linejoin="round"/>
<path d="M272.833 196H284.5" stroke="#0074FF" stroke-width="1.66667" stroke-linecap="round" stroke-linejoin="round"/>
<path d="M278.667 190.167L278.667 201.834" stroke="#0074FF" stroke-width="1.66667" stroke-linecap="round" stroke-linejoin="round"/>
<path d="M272.833 179.334C272.833 184.396 268.729 188.5 263.667 188.5C258.604 188.5 254.5 184.396 254.5 179.334C254.5 174.271 258.604 170.167 263.667 170.167C268.729 170.167 272.833 174.271 272.833 179.334Z" stroke="#0074FF" stroke-width="1.66667" stroke-linecap="round" stroke-linejoin="round"/>
<path d="M263.667 188.5L263.667 201.833" stroke="#0074FF" stroke-width="1.66667" stroke-linecap="round" stroke-linejoin="round"/>
</svg>
