<svg width="1994" height="1209" viewBox="0 0 1994 1209" fill="none" xmlns="http://www.w3.org/2000/svg">
<g opacity="0.4" filter="url(#filter0_f_13063_2330)">
<ellipse cx="264.085" cy="235.843" rx="264.085" ry="235.843" transform="matrix(0.902364 0.430974 -0.572321 0.82003 444.956 248.034)" fill="url(#paint0_linear_13063_2330)"/>
<ellipse cx="289.7" cy="281.979" rx="289.7" ry="281.979" transform="matrix(0.902364 -0.430974 0.572321 0.82003 832.691 426.706)" fill="url(#paint1_linear_13063_2330)"/>
<g style="mix-blend-mode:darken">
<ellipse cx="392.348" cy="265.499" rx="392.348" ry="265.499" transform="matrix(0.902364 0.430974 -0.572321 0.82003 711.056 217.385)" fill="url(#paint2_linear_13063_2330)"/>
</g>
<g style="mix-blend-mode:darken">
<ellipse cx="711.527" cy="709.621" rx="441.413" ry="169.737" fill="url(#paint3_linear_13063_2330)"/>
</g>
<ellipse cx="237.549" cy="193.786" rx="237.549" ry="193.786" transform="matrix(0.572321 0.82003 -0.902364 0.430974 1207.01 395.61)" fill="url(#paint4_linear_13063_2330)"/>
<ellipse cx="190.43" cy="244.464" rx="190.43" ry="244.464" transform="matrix(0.308147 0.951339 -0.976304 0.216405 1657.64 515.526)" fill="url(#paint5_linear_13063_2330)"/>
</g>
<defs>
<filter id="filter0_f_13063_2330" x="0.114258" y="0.248047" width="1993.37" height="1208.12" filterUnits="userSpaceOnUse" color-interpolation-filters="sRGB">
<feFlood flood-opacity="0" result="BackgroundImageFix"/>
<feBlend mode="normal" in="SourceGraphic" in2="BackgroundImageFix" result="shape"/>
<feGaussianBlur stdDeviation="135" result="effect1_foregroundBlur_13063_2330"/>
</filter>
<linearGradient id="paint0_linear_13063_2330" x1="264.085" y1="0" x2="264.085" y2="471.686" gradientUnits="userSpaceOnUse">
<stop stop-color="#8E9AFF"/>
<stop offset="1" stop-color="#07C9F4"/>
</linearGradient>
<linearGradient id="paint1_linear_13063_2330" x1="289.7" y1="0" x2="289.7" y2="563.957" gradientUnits="userSpaceOnUse">
<stop stop-color="#8EDDFF"/>
<stop offset="1" stop-color="#F40779"/>
</linearGradient>
<linearGradient id="paint2_linear_13063_2330" x1="0" y1="265.499" x2="784.695" y2="265.499" gradientUnits="userSpaceOnUse">
<stop stop-color="#B253FB"/>
<stop offset="1" stop-color="#31AADD"/>
</linearGradient>
<linearGradient id="paint3_linear_13063_2330" x1="270.114" y1="709.621" x2="1152.94" y2="709.621" gradientUnits="userSpaceOnUse">
<stop stop-color="#8953FB"/>
<stop offset="1" stop-color="#5431DD"/>
</linearGradient>
<linearGradient id="paint4_linear_13063_2330" x1="0" y1="193.786" x2="475.099" y2="193.786" gradientUnits="userSpaceOnUse">
<stop stop-color="#5DD0F5"/>
<stop offset="1" stop-color="#13FFC6"/>
</linearGradient>
<linearGradient id="paint5_linear_13063_2330" x1="190.43" y1="0" x2="190.43" y2="488.929" gradientUnits="userSpaceOnUse">
<stop stop-color="#8E9AFF"/>
<stop offset="1" stop-color="#07C9F4"/>
</linearGradient>
</defs>
</svg>
