<svg width="1760" height="60" viewBox="0 0 1760 60" fill="none" xmlns="http://www.w3.org/2000/svg">
<g clip-path="url(#clip0_231_340)">
<rect x="0.5" y="0.5" width="59" height="59" rx="19.5" stroke="#E0E4EB"/>
<path d="M15.75 30C15.75 25.7866 15.75 23.6799 16.7612 22.1666C17.1989 21.5114 17.7614 20.9489 18.4166 20.5112C19.9299 19.5 22.0366 19.5 26.25 19.5H33.75C37.9634 19.5 40.0701 19.5 41.5834 20.5112C42.2386 20.9489 42.8011 21.5114 43.2388 22.1666C44.25 23.6799 44.25 25.7866 44.25 30V30C44.25 34.2134 44.25 36.3201 43.2388 37.8334C42.8011 38.4886 42.2386 39.0511 41.5834 39.4888C40.0701 40.5 37.9634 40.5 33.75 40.5H26.25C22.0366 40.5 19.9299 40.5 18.4166 39.4888C17.7614 39.0511 17.1989 38.4886 16.7612 37.8334C15.75 36.3201 15.75 34.2134 15.75 30V30Z" stroke="#FF5574" stroke-width="2.4" stroke-linecap="round" stroke-linejoin="round"/>
<path d="M42.9705 21.9434L36.2323 26.9097C33.2304 29.1222 31.7294 30.2284 30.0041 30.2287C28.2788 30.2289 26.7775 29.123 23.7751 26.9112L17.0312 21.9434" stroke="#FF5574" stroke-width="2.4" stroke-linecap="round" stroke-linejoin="round"/>
<rect x="100.5" y="0.5" width="59" height="59" rx="19.5" stroke="#E0E4EB"/>
<rect x="144.25" y="44.25" width="23.25" height="23.25" rx="5.25" transform="rotate(-180 144.25 44.25)" stroke="#A157FF" stroke-width="2.4" stroke-linecap="round" stroke-linejoin="round"/>
<path d="M138.25 18V18C138.25 16.7574 137.243 15.75 136 15.75L128.985 15.75C123.613 15.75 120.928 15.75 119.011 17.0625C118.247 17.5862 117.586 18.247 117.063 19.0115C115.75 20.9275 115.75 23.6134 115.75 28.9853L115.75 36C115.75 37.2426 116.757 38.25 118 38.25V38.25" stroke="#A157FF" stroke-width="2.4" stroke-linecap="round" stroke-linejoin="round"/>
<path d="M129.925 24.2797C129.945 24.2028 130.055 24.2028 130.075 24.2797V24.2797C130.817 27.0329 132.967 29.1834 135.72 29.9247V29.9247C135.797 29.9454 135.797 30.0546 135.72 30.0753V30.0753C132.967 30.8166 130.817 32.9671 130.075 35.7203V35.7203C130.055 35.7973 129.945 35.7973 129.925 35.7203V35.7203C129.183 32.9671 127.033 30.8166 124.28 30.0753V30.0753C124.203 30.0546 124.203 29.9454 124.28 29.9247V29.9247C127.033 29.1834 129.183 27.0329 129.925 24.2797V24.2797Z" stroke="#A157FF" stroke-width="2.4" stroke-linecap="round" stroke-linejoin="round"/>
<path d="M133 37.2887C134.028 38.2794 134.791 39.544 135.175 40.9703V40.9703C135.195 41.0473 135.305 41.0473 135.325 40.9703V40.9703C136.067 38.2171 138.217 36.0666 140.97 35.3253V35.3253C141.047 35.3046 141.047 35.1954 140.97 35.1747V35.1747C139.544 34.7906 138.279 34.0284 137.289 33" stroke="#A157FF" stroke-width="2.4" stroke-linecap="round" stroke-linejoin="round"/>
<rect x="200.5" y="0.5" width="59" height="59" rx="19.5" stroke="#E0E4EB"/>
<path d="M215.75 31.875C215.75 27.3203 215.75 25.0429 216.706 23.3353C217.382 22.1285 218.379 21.1321 219.585 20.4563C221.293 19.5 223.57 19.5 228.125 19.5H231.875C236.43 19.5 238.707 19.5 240.415 20.4563C241.621 21.1321 242.618 22.1285 243.294 23.3353C244.25 25.0429 244.25 27.3203 244.25 31.875V31.875C244.25 36.4297 244.25 38.7071 243.294 40.4147C242.618 41.6215 241.621 42.6179 240.415 43.2937C238.707 44.25 236.43 44.25 231.875 44.25H228.125C223.57 44.25 221.293 44.25 219.585 43.2937C218.379 42.6179 217.382 41.6215 216.706 40.4147C215.75 38.7071 215.75 36.4297 215.75 31.875V31.875Z" stroke="#FF55BB" stroke-width="2.4" stroke-linecap="round"/>
<path d="M224.75 32.25C224.75 32.6642 224.414 33 224 33C223.586 33 223.25 32.6642 223.25 32.25C223.25 31.8358 223.586 31.5 224 31.5C224.414 31.5 224.75 31.8358 224.75 32.25Z" stroke="#FF55BB" stroke-width="2.4" stroke-linecap="round" stroke-linejoin="round"/>
<path d="M230.75 32.25C230.75 32.6642 230.414 33 230 33C229.586 33 229.25 32.6642 229.25 32.25C229.25 31.8358 229.586 31.5 230 31.5C230.414 31.5 230.75 31.8358 230.75 32.25Z" stroke="#FF55BB" stroke-width="2.4" stroke-linecap="round" stroke-linejoin="round"/>
<path d="M224.75 38.25C224.75 38.6642 224.414 39 224 39C223.586 39 223.25 38.6642 223.25 38.25C223.25 37.8358 223.586 37.5 224 37.5C224.414 37.5 224.75 37.8358 224.75 38.25Z" stroke="#FF55BB" stroke-width="2.4" stroke-linecap="round" stroke-linejoin="round"/>
<path d="M230.75 38.25C230.75 38.6642 230.414 39 230 39C229.586 39 229.25 38.6642 229.25 38.25C229.25 37.8358 229.586 37.5 230 37.5C230.414 37.5 230.75 37.8358 230.75 38.25Z" stroke="#FF55BB" stroke-width="2.4" stroke-linecap="round" stroke-linejoin="round"/>
<path d="M236.75 32.25C236.75 32.6642 236.414 33 236 33C235.586 33 235.25 32.6642 235.25 32.25C235.25 31.8358 235.586 31.5 236 31.5C236.414 31.5 236.75 31.8358 236.75 32.25Z" stroke="#FF55BB" stroke-width="2.4" stroke-linecap="round" stroke-linejoin="round"/>
<path d="M215.75 25.5H244.25" stroke="#FF55BB" stroke-width="2.4" stroke-linecap="round" stroke-linejoin="round"/>
<path d="M237.5 19.5V15.75" stroke="#FF55BB" stroke-width="2.4" stroke-linecap="round"/>
<path d="M222.5 19.5V15.75" stroke="#FF55BB" stroke-width="2.4" stroke-linecap="round"/>
<rect x="300.5" y="0.5" width="59" height="59" rx="19.5" stroke="#E0E4EB"/>
<path d="M315.75 29.7539C315.75 27.8894 315.75 26.9571 315.984 26.1996C316.496 24.5431 317.793 23.2462 319.45 22.7341C320.207 22.5 321.139 22.5 323.004 22.5V22.5C323.273 22.5 323.408 22.5 323.534 22.4781C323.809 22.4307 324.065 22.3076 324.274 22.1227C324.37 22.0374 324.454 21.9323 324.622 21.7222L325.126 21.0926C325.637 20.4531 325.893 20.1334 326.187 19.8747C326.809 19.3264 327.57 18.9606 328.386 18.8175C328.772 18.75 329.181 18.75 330 18.75V18.75C330.819 18.75 331.228 18.75 331.614 18.8175C332.43 18.9606 333.191 19.3264 333.813 19.8747C334.107 20.1334 334.363 20.4531 334.874 21.0926L335.378 21.7222C335.546 21.9323 335.63 22.0374 335.726 22.1227C335.935 22.3076 336.191 22.4307 336.466 22.4781C336.592 22.5 336.727 22.5 336.996 22.5V22.5C338.861 22.5 339.793 22.5 340.55 22.7341C342.207 23.2462 343.504 24.5431 344.016 26.1996C344.25 26.9571 344.25 27.8894 344.25 29.7539V31.875C344.25 35.7406 344.25 37.6733 343.282 39.038C342.94 39.5196 342.52 39.94 342.038 40.2817C340.673 41.25 338.741 41.25 334.875 41.25H325.125C321.259 41.25 319.327 41.25 317.962 40.2817C317.48 39.94 317.06 39.5196 316.718 39.038C315.75 37.6733 315.75 35.7406 315.75 31.875V29.7539Z" stroke="#FFB255" stroke-width="2.4" stroke-linecap="round" stroke-linejoin="round"/>
<rect x="325.5" y="27" width="9" height="9" rx="3.75" stroke="#FFB255" stroke-width="2.4" stroke-linejoin="round"/>
<rect x="400.5" y="0.5" width="59" height="59" rx="19.5" stroke="#E0E4EB"/>
<path d="M415.75 32.25C415.75 28.0496 415.75 25.9494 416.567 24.3451C417.287 22.9339 418.434 21.7865 419.845 21.0675C421.449 20.25 423.55 20.25 427.75 20.25V20.25C431.95 20.25 434.051 20.25 435.655 21.0675C437.066 21.7865 438.213 22.9339 438.933 24.3451C439.75 25.9494 439.75 28.0496 439.75 32.25V32.25C439.75 36.4504 439.75 38.5506 438.933 40.1549C438.213 41.5661 437.066 42.7135 435.655 43.4325C434.051 44.25 431.95 44.25 427.75 44.25V44.25C423.55 44.25 421.449 44.25 419.845 43.4325C418.434 42.7135 417.287 41.5661 416.567 40.1549C415.75 38.5506 415.75 36.4504 415.75 32.25V32.25Z" stroke="#5584FF" stroke-width="2.4" stroke-linecap="round" stroke-linejoin="round"/>
<path d="M433 34.5V25.5L425.5 27V37.5" stroke="#5584FF" stroke-width="2.4" stroke-linecap="round" stroke-linejoin="round"/>
<path d="M425.5 37.5C425.5 38.3284 424.828 39 424 39C423.172 39 422.5 38.3284 422.5 37.5C422.5 36.6716 423.172 36 424 36C424.828 36 425.5 36.6716 425.5 37.5Z" stroke="#5584FF" stroke-width="2.4" stroke-linecap="round" stroke-linejoin="round"/>
<path d="M433 34.5C433 35.3284 432.328 36 431.5 36C430.672 36 430 35.3284 430 34.5C430 33.6716 430.672 33 431.5 33C432.328 33 433 33.6716 433 34.5Z" stroke="#5584FF" stroke-width="2.4" stroke-linecap="round" stroke-linejoin="round"/>
<path d="M423.25 16.5H423.622C432.588 16.5 437.071 16.5 440.023 19.0374C440.473 19.4238 440.889 19.8475 441.267 20.3041C443.749 23.3025 443.666 27.785 443.5 36.75V36.75" stroke="#5584FF" stroke-width="2.4" stroke-linecap="round" stroke-linejoin="round"/>
<rect x="500.5" y="0.5" width="59" height="59" rx="19.5" stroke="#E0E4EB"/>
<path d="M536 30C536 31.1895 533.844 32.6871 531.485 33.9693C528.962 35.3412 527.7 36.0272 526.6 35.3731C525.5 34.719 525.5 33.1951 525.5 30.1472L525.5 29.8528C525.5 26.8049 525.5 25.281 526.6 24.6269C527.7 23.9728 528.962 24.6588 531.485 26.0307C533.844 27.3129 536 28.8105 536 30Z" stroke="#0CE884" stroke-width="2.4" stroke-linecap="round" stroke-linejoin="round"/>
<path d="M530 15.75C534.899 15.75 537.349 15.75 539.231 16.6781C541.007 17.5544 542.446 18.9925 543.322 20.7694C544.25 22.6515 544.25 25.101 544.25 30V30C544.25 34.899 544.25 37.3485 543.322 39.2306C542.446 41.0075 541.007 42.4456 539.231 43.3219C537.349 44.25 534.899 44.25 530 44.25V44.25C525.101 44.25 522.651 44.25 520.769 43.3219C518.993 42.4456 517.554 41.0075 516.678 39.2306C515.75 37.3485 515.75 34.899 515.75 30V30C515.75 25.101 515.75 22.6515 516.678 20.7694C517.554 18.9925 518.993 17.5544 520.769 16.6781C522.651 15.75 525.101 15.75 530 15.75V15.75Z" stroke="#0CE884" stroke-width="2.4" stroke-linecap="round" stroke-linejoin="round"/>
<rect x="600.5" y="0.5" width="59" height="59" rx="19.5" stroke="#E0E4EB"/>
<path d="M640.5 26.2895C637.989 21.7079 635.224 18 630 18C624.776 18 622.01 21.7079 619.5 26.2895C617.465 30.0034 618.111 35.9682 618.789 39.6061C618.93 40.3602 619 40.7372 619.205 41.1322C619.552 41.7998 620.277 42.4024 620.997 42.6208C621.423 42.75 621.857 42.75 622.725 42.75C623.912 42.75 624.505 42.75 624.983 42.5845C625.851 42.2835 626.533 41.601 626.834 40.7326C627 40.2553 627 39.6619 627 38.4753V36C627 34.3431 628.343 33 630 33C631.657 33 633 34.3431 633 36V38.4753C633 39.6619 633 40.2553 633.165 40.7326C633.466 41.601 634.149 42.2835 635.017 42.5845C635.495 42.75 636.088 42.75 637.275 42.75C638.143 42.75 638.577 42.75 639.003 42.6208C639.723 42.4024 640.448 41.7998 640.795 41.1322C641 40.7372 641.07 40.3601 641.211 39.6061C641.889 35.9682 642.535 30.0034 640.5 26.2895Z" stroke="#FF55BB" stroke-width="2.4" stroke-linecap="round" stroke-linejoin="round"/>
<path d="M644.25 27C640.843 22.0257 637.09 18 630 18C622.91 18 619.157 22.0257 615.75 27" stroke="#FF55BB" stroke-width="2.4" stroke-linecap="round" stroke-linejoin="round"/>
<rect x="700.5" y="0.5" width="59" height="59" rx="19.5" stroke="#E0E4EB"/>
<path d="M739 24.75C739 28.0703 739.173 28.7313 741.25 31.5V31.5C743.606 34.6423 740.222 38.25 736.294 38.25H723.641C719.66 38.25 716.061 34.684 718.45 31.5V31.5C720.526 28.7313 721 28.0703 721 24.75C721 19.7794 724.737 15.75 730 15.75C735.262 15.75 739 19.7794 739 24.75Z" stroke="#FF5574" stroke-width="2.4" stroke-linecap="round" stroke-linejoin="round"/>
<path d="M730 44.25C733.314 44.25 736 41.5637 736 38.25H724C724 41.5637 726.686 44.25 730 44.25Z" stroke="#FF5574" stroke-width="2.4" stroke-linecap="round" stroke-linejoin="round"/>
<rect x="800.5" y="0.5" width="59" height="59" rx="19.5" stroke="#E0E4EB"/>
<rect x="818" y="18.75" width="24" height="24" rx="9.75" stroke="#FFB255" stroke-width="2.4" stroke-linecap="round" stroke-linejoin="round"/>
<path d="M830 25.5V28.5C830 29.9142 830 30.6213 830.439 31.0607C830.879 31.5 831.586 31.5 833 31.5H836" stroke="#FFB255" stroke-width="2.4" stroke-linecap="round" stroke-linejoin="round"/>
<path d="M820.752 16.5C818.888 17.7244 817.286 19.3163 816.051 21.1729" stroke="#FFB255" stroke-width="2.4" stroke-linecap="round" stroke-linejoin="round"/>
<path d="M839.506 16.5C841.37 17.7244 842.972 19.3163 844.207 21.1729" stroke="#FFB255" stroke-width="2.4" stroke-linecap="round" stroke-linejoin="round"/>
<path d="M817.857 44.2498L821.294 40.8154" stroke="#FFB255" stroke-width="2.4" stroke-linecap="round" stroke-linejoin="round"/>
<path d="M841.999 44.25L838.641 40.875" stroke="#FFB255" stroke-width="2.4" stroke-linecap="round" stroke-linejoin="round"/>
<rect x="900.5" y="0.5" width="59" height="59" rx="19.5" stroke="#E0E4EB"/>
<path d="M915.75 24.2847C915.75 22.6239 915.75 21.7934 915.967 21.1209C916.411 19.7416 917.492 18.6606 918.871 18.2165C919.543 18 920.374 18 922.035 18V18C922.491 18 922.719 18 922.938 18.0325C923.384 18.0986 923.808 18.264 924.181 18.5165C924.364 18.6407 924.532 18.7951 924.869 19.1039L925.3 19.5C926.445 20.5511 927.017 21.0766 927.711 21.3781C927.816 21.4235 927.922 21.4648 928.03 21.5021C928.746 21.75 929.522 21.75 931.076 21.75H934.5C938.002 21.75 939.753 21.75 941.078 22.4585C942.125 23.0179 942.982 23.8751 943.542 24.9216C944.25 26.2471 944.25 27.9981 944.25 31.5V31.5C944.25 35.0019 944.25 36.7529 943.542 38.0784C942.982 39.1249 942.125 39.9821 941.078 40.5415C939.753 41.25 938.002 41.25 934.5 41.25H927.75C922.093 41.25 919.265 41.25 917.507 39.4926C915.75 37.7353 915.75 34.9069 915.75 29.25V24.2847Z" stroke="#0CE884" stroke-width="2.4" stroke-linecap="round" stroke-linejoin="round"/>
<path d="M915.75 26.25H943.5" stroke="#0CE884" stroke-width="2.4" stroke-linecap="round" stroke-linejoin="round"/>
<rect x="1000.5" y="0.5" width="59" height="59" rx="19.5" stroke="#E0E4EB"/>
<path d="M1044.25 28.5V28.5C1043.29 28.5 1042.82 28.5 1042.42 28.3485C1041.92 28.1548 1041.51 27.7885 1041.25 27.3158C1041.06 26.9459 1041 26.4716 1040.88 25.5232L1040.84 25.2273C1040.43 21.9465 1040.23 20.3061 1039.4 19.102C1038.84 18.2885 1038.09 17.6254 1037.21 17.1716C1035.91 16.5 1034.26 16.5 1030.95 16.5H1029.05C1025.74 16.5 1024.09 16.5 1022.79 17.1716C1021.91 17.6254 1021.16 18.2885 1020.6 19.102C1019.77 20.3061 1019.57 21.9465 1019.16 25.2273L1019.12 25.5232C1019 26.4716 1018.94 26.9459 1018.75 27.3158C1018.49 27.7885 1018.08 28.1548 1017.58 28.3485C1017.18 28.5 1016.71 28.5 1015.75 28.5V28.5" stroke="#A157FF" stroke-width="2.4" stroke-linecap="round" stroke-linejoin="round"/>
<path d="M1015.75 28.5L1044.25 28.5" stroke="#A157FF" stroke-width="2.4" stroke-linecap="round" stroke-linejoin="round"/>
<rect x="1033" y="33.75" width="9" height="9" rx="3.75" stroke="#A157FF" stroke-width="2.4" stroke-linejoin="round"/>
<path d="M1033.14 36.2451C1032.17 35.8454 1031.11 35.625 1030 35.625C1028.89 35.625 1027.82 35.8454 1026.86 36.2451" stroke="#A157FF" stroke-width="2.4" stroke-linecap="round" stroke-linejoin="round"/>
<rect x="1018" y="33.75" width="9" height="9" rx="3.75" stroke="#A157FF" stroke-width="2.4" stroke-linejoin="round"/>
<rect x="1100.5" y="0.5" width="59" height="59" rx="19.5" stroke="#E0E4EB"/>
<path d="M1130 44.25L1130 39.75" stroke="#FF55BB" stroke-width="2.4" stroke-linecap="round" stroke-linejoin="round"/>
<path d="M1121.38 35.25C1125.5 41.1491 1134.5 41.1491 1138.62 35.25" stroke="#FF55BB" stroke-width="2.4" stroke-linecap="round" stroke-linejoin="round"/>
<path d="M1124.25 18.0621C1127.21 14.9793 1132.79 14.9793 1135.75 18.0621C1139.08 21.5478 1139.08 30.9522 1135.75 34.4379C1132.79 37.5207 1127.21 37.5207 1124.25 34.4379C1120.92 30.9522 1120.92 21.5478 1124.25 18.0621Z" stroke="#FF55BB" stroke-width="2.4" stroke-linecap="round" stroke-linejoin="round"/>
<rect x="1200.5" y="0.5" width="59" height="59" rx="19.5" stroke="#E0E4EB"/>
<path d="M1234.82 28.5C1235.22 28.5 1235.42 28.5 1235.59 28.5094C1238.64 28.6807 1241.07 31.1146 1241.24 34.1636C1241.25 34.3317 1241.25 34.5306 1241.25 34.9286V36.375C1241.25 38.1184 1241.25 38.99 1241.07 39.7079C1240.53 41.8554 1238.86 43.5323 1236.71 44.0702C1235.99 44.25 1235.12 44.25 1233.38 44.25H1226.63C1224.88 44.25 1224.01 44.25 1223.29 44.0702C1221.14 43.5323 1219.47 41.8554 1218.93 39.7079C1218.75 38.99 1218.75 38.1184 1218.75 36.375V34.9286C1218.75 34.5306 1218.75 34.3317 1218.76 34.1636C1218.93 31.1146 1221.36 28.6807 1224.41 28.5094C1224.58 28.5 1224.78 28.5 1225.18 28.5" stroke="#0CE884" stroke-width="2.4" stroke-linecap="round" stroke-linejoin="round"/>
<path d="M1230 33V15.75" stroke="#0CE884" stroke-width="2.4" stroke-linecap="round" stroke-linejoin="round"/>
<path d="M1224 21.75C1224 21.75 1228.19 15.75 1230 15.75C1231.81 15.75 1236 21.75 1236 21.75" stroke="#0CE884" stroke-width="2.4" stroke-linecap="round" stroke-linejoin="round"/>
<rect x="1300.5" y="0.5" width="59" height="59" rx="19.5" stroke="#E0E4EB"/>
<path d="M1326.25 25.1036C1326.25 22.0692 1326.25 20.552 1327.14 19.503C1328.03 18.4539 1329.52 18.2045 1332.52 17.7056L1335.52 17.2056C1339.57 16.5299 1341.6 16.1921 1342.92 17.3154C1344.25 18.4388 1344.25 20.4937 1344.25 24.6035V35.3965C1344.25 39.5063 1344.25 41.5612 1342.92 42.6846C1341.6 43.808 1339.57 43.4701 1335.52 42.7945L1332.52 42.2945C1329.52 41.7957 1328.03 41.5462 1327.14 40.4972C1326.25 39.4481 1326.25 37.9309 1326.25 34.8965V25.1036Z" stroke="#9933FF" stroke-width="2.4" stroke-linecap="round" stroke-linejoin="round"/>
<path d="M1330.75 23.625V36.375C1330.75 36.7235 1330.75 36.8977 1330.78 37.0426C1330.9 37.6377 1331.36 38.1028 1331.96 38.2212C1332.1 38.25 1332.28 38.25 1332.62 38.25C1332.97 38.25 1333.15 38.25 1333.29 38.2212C1333.89 38.1028 1334.35 37.6377 1334.47 37.0426C1334.5 36.8977 1334.5 36.7235 1334.5 36.375V23.625C1334.5 23.2765 1334.5 23.1023 1334.47 22.9574C1334.35 22.3623 1333.89 21.8972 1333.29 21.7788C1333.15 21.75 1332.97 21.75 1332.62 21.75C1332.28 21.75 1332.1 21.75 1331.96 21.7788C1331.36 21.8972 1330.9 22.3623 1330.78 22.9574C1330.75 23.1023 1330.75 23.2765 1330.75 23.625Z" stroke="#9933FF" stroke-width="2.4" stroke-linecap="round" stroke-linejoin="round"/>
<path d="M1315.75 24C1319.06 24 1321.75 27.9363 1321.75 30C1321.75 32.0637 1319.06 36 1315.75 36C1314.06 36 1314.06 24 1315.75 24Z" stroke="#9933FF" stroke-width="2.4" stroke-linecap="round" stroke-linejoin="round"/>
<rect x="1400.5" y="0.5" width="59" height="59" rx="19.5" stroke="#E0E4EB"/>
<path d="M1418.52 24.1226C1419.35 20.1128 1419.76 18.1079 1421.21 16.929C1422.66 15.75 1424.71 15.75 1428.8 15.75H1431.2C1435.29 15.75 1437.34 15.75 1438.79 16.929C1440.24 18.1079 1440.65 20.1128 1441.48 24.1226L1444.12 36.8862C1444.14 36.9736 1444.15 37.0173 1444.16 37.0611C1444.21 37.3537 1444.24 37.6506 1444.25 37.9483C1444.25 37.9929 1444.25 38.0375 1444.25 38.1268V38.1268C1444.25 38.9379 1444.25 39.3434 1444.21 39.6839C1443.9 42.0408 1442.04 43.8956 1439.68 44.2053C1439.34 44.25 1438.94 44.25 1438.13 44.25H1421.87C1421.06 44.25 1420.66 44.25 1420.32 44.2053C1417.96 43.8956 1416.1 42.0408 1415.79 39.6839C1415.75 39.3434 1415.75 38.9379 1415.75 38.1268V38.1268C1415.75 38.0375 1415.75 37.9929 1415.75 37.9483C1415.76 37.6506 1415.79 37.3537 1415.84 37.0611C1415.85 37.0173 1415.86 36.9736 1415.88 36.8862L1418.52 24.1226Z" stroke="#5584FF" stroke-width="2.4" stroke-linecap="round" stroke-linejoin="round"/>
<path d="M1415.75 37.5H1430H1444.25" stroke="#5584FF" stroke-width="2.4" stroke-linecap="round" stroke-linejoin="round"/>
<path d="M1424.75 27L1430 32.25L1435.25 27" stroke="#5584FF" stroke-width="2.4" stroke-linecap="round" stroke-linejoin="round"/>
<path d="M1430 32.25L1430 21.75" stroke="#5584FF" stroke-width="2.4" stroke-linecap="round" stroke-linejoin="round"/>
<rect x="1500.5" y="0.5" width="59" height="59" rx="19.5" stroke="#E0E4EB"/>
<path d="M1515.75 27C1515.75 23.4981 1515.75 21.7471 1516.46 20.4216C1517.02 19.3751 1517.88 18.5179 1518.92 17.9585C1520.25 17.25 1522 17.25 1525.5 17.25H1534.5C1538 17.25 1539.75 17.25 1541.08 17.9585C1542.12 18.5179 1542.98 19.3751 1543.54 20.4216C1544.25 21.7471 1544.25 23.4981 1544.25 27V27C1544.25 30.5019 1544.25 32.2529 1543.54 33.5784C1542.98 34.6249 1542.12 35.4821 1541.08 36.0415C1539.75 36.75 1538 36.75 1534.5 36.75H1525.5C1522 36.75 1520.25 36.75 1518.92 36.0415C1517.88 35.4821 1517.02 34.6249 1516.46 33.5784C1515.75 32.2529 1515.75 30.5019 1515.75 27V27Z" stroke="#5584FF" stroke-width="2.4" stroke-linecap="round" stroke-linejoin="round"/>
<path d="M1516.5 33.75H1530H1543.5" stroke="#5584FF" stroke-width="2.4" stroke-linecap="round" stroke-linejoin="round"/>
<path d="M1535.25 42.75H1524.75" stroke="#5584FF" stroke-width="2.4" stroke-linecap="round" stroke-linejoin="round"/>
<path d="M1528.5 36.75C1528.52 39.6366 1528.16 40.9137 1527 42.75H1533C1531.84 40.9137 1531.48 39.6366 1531.5 36.75H1528.5Z" stroke="#5584FF" stroke-width="2.4" stroke-linecap="round" stroke-linejoin="round"/>
<rect x="1600.5" y="0.5" width="59" height="59" rx="19.5" stroke="#E0E4EB"/>
<path d="M1618 27.75V32.25C1618 37.9069 1618 40.7353 1619.76 42.4926C1621.51 44.25 1624.34 44.25 1630 44.25C1635.66 44.25 1638.49 44.25 1640.24 42.4926C1642 40.7353 1642 37.9069 1642 32.25V22.5L1635.21 15.75H1630C1624.34 15.75 1621.51 15.75 1619.76 17.5074C1618 19.2647 1618 22.0931 1618 27.75Z" stroke="#FFB255" stroke-width="2.4" stroke-linecap="round" stroke-linejoin="round"/>
<path d="M1642 22.5H1639.71C1637.59 22.5 1636.53 22.5 1635.87 21.841C1635.21 21.182 1635.21 20.1213 1635.21 18V15.75" stroke="#FFB255" stroke-width="2.4" stroke-linecap="round" stroke-linejoin="round"/>
<path d="M1630 27.75V36.75" stroke="#FFB255" stroke-width="2.4" stroke-linecap="round" stroke-linejoin="round"/>
<path d="M1625.5 32.25H1634.5" stroke="#FFB255" stroke-width="2.4" stroke-linecap="round" stroke-linejoin="round"/>
<rect x="1700.5" y="0.5" width="59" height="59" rx="19.5" stroke="#E0E4EB"/>
<path d="M1730 15.75H1727.75C1722.09 15.75 1719.26 15.75 1717.51 17.5074C1715.75 19.2647 1715.75 22.0931 1715.75 27.75V32.25C1715.75 37.9069 1715.75 40.7353 1717.51 42.4926C1719.26 44.25 1722.09 44.25 1727.75 44.25H1732.25C1737.91 44.25 1740.74 44.25 1742.49 42.4926C1744.25 40.7353 1744.25 37.9069 1744.25 32.25V30" stroke="#FF5574" stroke-width="2.4" stroke-linecap="round" stroke-linejoin="round"/>
<path d="M1741.87 18.6223L1741.38 18.1277L1741.38 18.1277C1740.23 16.9761 1739.65 16.4003 1738.86 16.3173C1738.06 16.2343 1737.42 16.6536 1736.13 17.4922C1732.04 20.1569 1724.83 25.5644 1723.25 31.5C1722.64 33.7816 1720.83 35.8302 1722.5 37.5C1724.17 39.1697 1726.22 37.3588 1728.5 36.75C1734.44 35.1662 1739.84 27.9635 1742.51 23.8687C1743.35 22.5801 1743.77 21.9358 1743.68 21.1428C1743.6 20.3497 1743.02 19.7739 1741.87 18.6223Z" stroke="#FF5574" stroke-width="2.4" stroke-linecap="round" stroke-linejoin="round"/>
<path d="M1734.5 18.75L1741.25 25.5" stroke="#FF5574" stroke-width="2.4" stroke-linecap="round" stroke-linejoin="round"/>
</g>
<defs>
<clipPath id="clip0_231_340">
<rect width="1760" height="60" fill="white"/>
</clipPath>
</defs>
</svg>
