<svg width="1760" height="61" viewBox="0 0 1760 61" fill="none" xmlns="http://www.w3.org/2000/svg">
<rect width="60" height="60" rx="16" fill="#F0FEF8" fill-opacity="0.1"/>
<rect x="0.5" y="0.5" width="59" height="59" rx="15.5" stroke="#0CE984" stroke-opacity="0.1"/>
<g filter="url(#filter0_d_13046_2488)">
<path fill-rule="evenodd" clip-rule="evenodd" d="M16.7612 22.1666C15.75 23.6799 15.75 25.7866 15.75 30C15.75 34.2134 15.75 36.3201 16.7612 37.8334C17.1989 38.4886 17.7614 39.0511 18.4166 39.4888C19.9299 40.5 22.0366 40.5 26.25 40.5H33.75C37.9634 40.5 40.0701 40.5 41.5834 39.4888C42.2386 39.0511 42.8011 38.4886 43.2388 37.8334C44.25 36.3201 44.25 34.2134 44.25 30C44.25 25.7866 44.25 23.6799 43.2388 22.1666C42.8011 21.5114 42.2386 20.9489 41.5834 20.5112C40.0701 19.5 37.9634 19.5 33.75 19.5H26.25C22.0366 19.5 19.9299 19.5 18.4166 20.5112C17.7614 20.9489 17.1989 21.5114 16.7612 22.1666ZM20.0546 23.1679C19.595 22.8616 18.9742 22.9858 18.6679 23.4454C18.3616 23.905 18.4858 24.5258 18.9454 24.8321L23.6708 27.9816C25.0422 28.8956 26.1386 29.6264 27.0915 30.122C28.0771 30.6345 28.9899 30.9404 30.0027 30.9403C31.0155 30.9402 31.9282 30.6341 32.9137 30.1213C33.8664 29.6255 34.9627 28.8944 36.3338 27.9801L41.0548 24.832C41.5143 24.5256 41.6384 23.9047 41.332 23.4452C41.0256 22.9857 40.4047 22.8616 39.9452 23.168L35.2718 26.2844C33.8422 27.2377 32.8356 27.9073 31.9905 28.3471C31.167 28.7756 30.5792 28.9402 30.0025 28.9403C29.4257 28.9404 28.8379 28.7759 28.0143 28.3476C27.1691 27.908 26.1623 27.2386 24.7325 26.2857L20.0546 23.1679Z" fill="#0CE984"/>
</g>
<rect x="100" width="60" height="60" rx="16" fill="#FFF8F0" fill-opacity="0.1"/>
<rect x="100.5" y="0.5" width="59" height="59" rx="15.5" stroke="#FFB255" stroke-opacity="0.1"/>
<g filter="url(#filter1_d_13046_2488)">
<path d="M118 39.1875C116.24 39.1875 114.813 37.7604 114.813 36V26.1791C114.812 23.7644 114.812 21.8565 115.013 20.3644C115.219 18.8308 115.653 17.5968 116.625 16.6248C117.597 15.6527 118.831 15.2193 120.364 15.0131C121.856 14.8125 123.764 14.8125 126.179 14.8125H136C137.76 14.8125 139.188 16.2396 139.188 18C139.188 18.5178 138.768 18.9375 138.25 18.9375C137.732 18.9375 137.313 18.5178 137.313 18C137.313 17.2751 136.725 16.6875 136 16.6875L126.25 16.6875C123.749 16.6875 121.967 16.6895 120.614 16.8714C119.289 17.0496 118.516 17.385 117.951 17.9506C117.385 18.5162 117.05 19.2886 116.871 20.6142C116.689 21.9669 116.688 23.7486 116.688 26.25L116.688 36C116.688 36.7249 117.275 37.3125 118 37.3125L118 39.1875Z" fill="#FFB255"/>
<path fill-rule="evenodd" clip-rule="evenodd" d="M131.429 45.1875H133.821C136.236 45.1875 138.144 45.1875 139.636 44.9869C141.169 44.7807 142.403 44.3473 143.375 43.3752C144.347 42.4032 144.781 41.1692 144.987 39.6356C145.188 38.1435 145.188 36.2356 145.188 33.8208V31.4292C145.188 29.0144 145.188 27.1065 144.987 25.6144C144.781 24.0808 144.347 22.8468 143.375 21.8748C142.403 20.9027 141.169 20.4693 139.636 20.2631C138.144 20.0625 136.236 20.0625 133.821 20.0625L131.429 20.0625C129.014 20.0625 127.106 20.0625 125.614 20.2631C124.081 20.4693 122.847 20.9027 121.875 21.8748C120.903 22.8468 120.469 24.0808 120.263 25.6144C120.062 27.1065 120.062 29.0144 120.063 31.4292L120.063 33.8208C120.062 36.2356 120.062 38.1435 120.263 39.6356C120.469 41.1692 120.903 42.4032 121.875 43.3752C122.847 44.3473 124.081 44.7807 125.614 44.9869C127.106 45.1875 129.014 45.1875 131.429 45.1875ZM130.98 24.036C130.711 23.034 129.289 23.034 129.019 24.0359C128.365 26.4665 126.466 28.365 124.036 29.0194C123.034 29.2892 123.034 30.7108 124.036 30.9806C126.466 31.635 128.365 33.5335 129.019 35.9641C129.289 36.966 130.711 36.966 130.981 35.964C131.635 33.5335 133.533 31.635 135.964 30.9806C136.966 30.7108 136.966 29.2892 135.964 29.0194C133.533 28.365 131.635 26.4665 130.98 24.036ZM136.638 32.3248C137.011 31.9656 137.605 31.9767 137.964 32.3496C138.839 33.2576 139.955 33.9304 141.214 34.2694C142.216 34.5392 142.216 35.9608 141.214 36.2306C138.783 36.885 136.885 38.7835 136.231 41.2141C135.961 42.216 134.539 42.216 134.269 41.214C133.93 39.9548 133.258 38.8386 132.35 37.9638C131.977 37.6046 131.966 37.0111 132.325 36.6382C132.684 36.2654 133.278 36.2543 133.65 36.6135C134.28 37.2196 134.82 37.9176 135.25 38.6868C136.056 37.2465 137.246 36.0558 138.687 35.25C137.918 34.8197 137.22 34.2796 136.613 33.6504C136.254 33.2775 136.265 32.6841 136.638 32.3248Z" fill="#FFB255"/>
</g>
<rect x="200" width="60" height="60" rx="16" fill="#F0F8FF" fill-opacity="0.1"/>
<rect x="200.5" y="0.5" width="59" height="59" rx="15.5" stroke="#55ADFF" stroke-opacity="0.1"/>
<g filter="url(#filter2_d_13046_2488)">
<path fill-rule="evenodd" clip-rule="evenodd" d="M238.438 15.75C238.438 15.2322 238.018 14.8125 237.5 14.8125C236.982 14.8125 236.562 15.2322 236.562 15.75V18.6334C235.302 18.5625 233.783 18.5625 231.921 18.5625H228.079C226.217 18.5625 224.698 18.5625 223.438 18.6334V15.75C223.438 15.2322 223.018 14.8125 222.5 14.8125C221.982 14.8125 221.562 15.2322 221.562 15.75V18.8283C220.65 18.9821 219.856 19.2302 219.127 19.6383C217.77 20.3986 216.649 21.5196 215.888 22.8773C215.319 23.8946 215.061 25.0396 214.936 26.4549C214.812 27.8484 214.812 29.5906 214.813 31.8289V31.9211C214.812 34.1594 214.812 35.9016 214.936 37.2951C215.061 38.7104 215.319 39.8554 215.888 40.8727C216.649 42.2304 217.77 43.3514 219.127 44.1117C220.145 44.6814 221.29 44.9392 222.705 45.0643C224.098 45.1875 225.841 45.1875 228.079 45.1875H231.921C234.159 45.1875 235.902 45.1875 237.295 45.0643C238.71 44.9392 239.855 44.6814 240.873 44.1117C242.23 43.3514 243.351 42.2304 244.112 40.8727C244.681 39.8554 244.939 38.7104 245.064 37.2951C245.188 35.9016 245.188 34.1595 245.188 31.9211V31.8289C245.188 29.5905 245.188 27.8484 245.064 26.4549C244.939 25.0396 244.681 23.8946 244.112 22.8773C243.351 21.5196 242.23 20.3986 240.873 19.6383C240.144 19.2302 239.35 18.9821 238.438 18.8283V15.75ZM220.812 25.5C220.812 24.9822 221.232 24.5625 221.75 24.5625H238.25C238.768 24.5625 239.188 24.9822 239.188 25.5C239.188 26.0178 238.768 26.4375 238.25 26.4375H221.75C221.232 26.4375 220.812 26.0178 220.812 25.5ZM224 30.5625C223.068 30.5625 222.312 31.318 222.312 32.25C222.312 33.182 223.068 33.9375 224 33.9375C224.932 33.9375 225.688 33.182 225.688 32.25C225.688 31.318 224.932 30.5625 224 30.5625ZM228.312 32.25C228.312 31.318 229.068 30.5625 230 30.5625C230.932 30.5625 231.688 31.318 231.688 32.25C231.688 33.182 230.932 33.9375 230 33.9375C229.068 33.9375 228.312 33.182 228.312 32.25ZM224 36.5625C223.068 36.5625 222.312 37.318 222.312 38.25C222.312 39.182 223.068 39.9375 224 39.9375C224.932 39.9375 225.688 39.182 225.688 38.25C225.688 37.318 224.932 36.5625 224 36.5625ZM228.312 38.25C228.312 37.318 229.068 36.5625 230 36.5625C230.932 36.5625 231.688 37.318 231.688 38.25C231.688 39.182 230.932 39.9375 230 39.9375C229.068 39.9375 228.312 39.182 228.312 38.25ZM236 30.5625C235.068 30.5625 234.312 31.318 234.312 32.25C234.312 33.182 235.068 33.9375 236 33.9375C236.932 33.9375 237.688 33.182 237.688 32.25C237.688 31.318 236.932 30.5625 236 30.5625Z" fill="#5585FF"/>
</g>
<rect x="300" width="60" height="60" rx="16" fill="#F6F0FF" fill-opacity="0.1"/>
<rect x="300.5" y="0.5" width="59" height="59" rx="15.5" stroke="#A157FF" stroke-opacity="0.1"/>
<g filter="url(#filter3_d_13046_2488)">
<path fill-rule="evenodd" clip-rule="evenodd" d="M313.771 25.6084C313.5 26.4838 313.5 27.5611 313.5 29.7156V32.1667C313.5 36.6335 313.5 38.867 314.621 40.4439C315.017 41.0004 315.504 41.4862 316.061 41.8811C317.641 43 319.879 43 324.355 43H335.645C340.121 43 342.359 43 343.939 41.8811C344.496 41.4862 344.983 41.0004 345.379 40.4439C346.5 38.867 346.5 36.6335 346.5 32.1667V29.7156C346.5 27.5611 346.5 26.4838 346.229 25.6084C345.636 23.6942 344.134 22.1956 342.216 21.6039C341.339 21.3333 340.26 21.3333 338.101 21.3333C337.789 21.3333 337.633 21.3333 337.487 21.308C337.168 21.2532 336.872 21.111 336.63 20.8973C336.519 20.7988 336.422 20.6774 336.227 20.4345L335.644 19.707C335.051 18.9681 334.755 18.5986 334.415 18.2996C333.695 17.6661 332.814 17.2433 331.868 17.078C331.422 17 330.948 17 330 17C329.052 17 328.578 17 328.132 17.078C327.186 17.2433 326.305 17.6661 325.585 18.2996C325.245 18.5986 324.949 18.9681 324.356 19.707L323.773 20.4345C323.578 20.6774 323.481 20.7988 323.37 20.8973C323.128 21.111 322.832 21.2532 322.513 21.308C322.367 21.3333 322.211 21.3333 321.899 21.3333C319.74 21.3333 318.661 21.3333 317.784 21.6039C315.866 22.1956 314.364 23.6942 313.771 25.6084ZM329.913 26.0625H330.087C330.7 26.0624 331.118 26.0623 331.483 26.1202C333.489 26.4379 335.062 28.011 335.38 30.0167C335.438 30.3824 335.438 30.8001 335.438 31.4132V31.5868C335.438 32.1999 335.438 32.6175 335.38 32.9833C335.062 34.989 333.489 36.5621 331.483 36.8798C331.118 36.9377 330.7 36.9376 330.087 36.9375H329.913C329.3 36.9376 328.882 36.9377 328.517 36.8798C326.511 36.5621 324.938 34.989 324.62 32.9833C324.562 32.6175 324.562 32.1999 324.563 31.5868V31.4132C324.562 30.8001 324.562 30.3824 324.62 30.0167C324.938 28.011 326.511 26.4379 328.517 26.1202C328.882 26.0623 329.3 26.0624 329.913 26.0625Z" fill="#A157FF"/>
</g>
<rect x="400" width="60" height="60" rx="16" fill="#FFF0F9" fill-opacity="0.1"/>
<rect x="400.5" y="0.5" width="59" height="59" rx="15.5" stroke="#FF55BB" stroke-opacity="0.1"/>
<g filter="url(#filter4_d_13046_2488)">
<path d="M433.965 17.7478C431.424 17.4391 428.129 17.4375 423.622 17.4375H423.25C422.732 17.4375 422.312 17.0178 422.312 16.5C422.312 15.9822 422.732 15.5625 423.25 15.5625H423.688C428.115 15.5625 431.524 15.5625 434.191 15.8865C436.893 16.2148 438.961 16.8876 440.634 18.3265C441.124 18.7474 441.577 19.2089 441.989 19.7062C443.396 21.4065 444.031 23.4863 444.309 26.1937C444.584 28.8663 444.521 32.2747 444.439 36.7013L444.437 36.7674L442.563 36.7326C442.646 32.2264 442.706 28.9316 442.444 26.3854C442.184 23.8606 441.619 22.2001 440.545 20.9019C440.2 20.4861 439.822 20.1002 439.412 19.7484C438.134 18.6498 436.484 18.0539 433.965 17.7478Z" fill="#FF55BB"/>
<path d="M424 36.9375C424.311 36.9375 424.562 37.1893 424.562 37.5C424.562 37.8107 424.311 38.0625 424 38.0625C423.689 38.0625 423.438 37.8107 423.438 37.5C423.438 37.1893 423.689 36.9375 424 36.9375Z" fill="#FF55BB"/>
<path d="M431.5 33.9375C431.811 33.9375 432.062 34.1893 432.062 34.5C432.062 34.8107 431.811 35.0625 431.5 35.0625C431.189 35.0625 430.938 34.8107 430.938 34.5C430.938 34.1893 431.189 33.9375 431.5 33.9375Z" fill="#FF55BB"/>
<path fill-rule="evenodd" clip-rule="evenodd" d="M427.792 19.3125H427.708C425.643 19.3125 424.037 19.3125 422.748 19.4178C421.439 19.5247 420.376 19.7448 419.419 20.2321C417.832 21.0411 416.541 22.3318 415.732 23.9195C415.245 24.8758 415.025 25.9391 414.918 27.2477C414.812 28.5365 414.812 30.1433 414.813 32.2076V32.2924C414.812 34.3567 414.812 35.9635 414.918 37.2523C415.025 38.5609 415.245 39.6242 415.732 40.5805C416.541 42.1682 417.832 43.4589 419.419 44.2679C420.376 44.7552 421.439 44.9753 422.748 45.0822C424.037 45.1875 425.643 45.1875 427.708 45.1875H427.792C429.857 45.1875 431.463 45.1875 432.752 45.0822C434.061 44.9753 435.124 44.7552 436.081 44.2679C437.668 43.4589 438.959 42.1682 439.768 40.5805C440.255 39.6242 440.475 38.5609 440.582 37.2523C440.688 35.9635 440.688 34.3567 440.688 32.2924V32.2076C440.688 30.1433 440.688 28.5365 440.582 27.2477C440.475 25.9391 440.255 24.8758 439.768 23.9195C438.959 22.3318 437.668 21.0411 436.081 20.2321C435.124 19.7448 434.061 19.5247 432.752 19.4178C431.463 19.3125 429.857 19.3125 427.792 19.3125ZM433.938 25.5C433.938 25.2191 433.812 24.9531 433.594 24.775C433.377 24.5969 433.092 24.5256 432.816 24.5807L425.316 26.0807C424.878 26.1684 424.562 26.5531 424.562 27V35.1277C424.382 35.0851 424.194 35.0625 424 35.0625C422.654 35.0625 421.562 36.1538 421.562 37.5C421.562 38.8462 422.654 39.9375 424 39.9375C425.346 39.9375 426.438 38.8462 426.438 37.5V27.7686L432.062 26.6436V32.1277C431.882 32.0851 431.694 32.0625 431.5 32.0625C430.154 32.0625 429.062 33.1538 429.062 34.5C429.062 35.8462 430.154 36.9375 431.5 36.9375C432.846 36.9375 433.938 35.8462 433.938 34.5V25.5Z" fill="#FF55BB"/>
</g>
<rect x="500" width="60" height="60" rx="16" fill="#FFF0F2" fill-opacity="0.1"/>
<rect x="500.5" y="0.5" width="59" height="59" rx="15.5" stroke="#FF5574" stroke-opacity="0.1"/>
<g filter="url(#filter5_d_13046_2488)">
<path fill-rule="evenodd" clip-rule="evenodd" d="M545.188 30.0649C545.188 33.1823 545.188 35.6081 544.956 37.5137C544.72 39.4544 544.233 40.9808 543.166 42.2297C542.879 42.5658 542.566 42.8789 542.23 43.1659C540.981 44.2326 539.454 44.7203 537.514 44.956C535.608 45.1875 533.182 45.1875 530.065 45.1875H529.935C526.818 45.1875 524.392 45.1875 522.486 44.956C520.546 44.7203 519.019 44.2326 517.77 43.1659C517.434 42.8789 517.121 42.5658 516.834 42.2297C515.767 40.9808 515.28 39.4544 515.044 37.5137C514.812 35.6081 514.812 33.1822 514.813 30.0648V29.9352C514.812 26.8178 514.812 24.3919 515.044 22.4863C515.28 20.5456 515.767 19.0192 516.834 17.7703C517.121 17.4342 517.434 17.1211 517.77 16.8341C519.019 15.7674 520.546 15.2797 522.486 15.044C524.392 14.8125 526.818 14.8125 529.935 14.8125H530.065C533.182 14.8125 535.608 14.8125 537.514 15.044C539.454 15.2797 540.981 15.7674 542.23 16.8341C542.566 17.1211 542.879 17.4342 543.166 17.7703C544.233 19.0192 544.72 20.5456 544.956 22.4863C545.188 24.3919 545.188 26.8177 545.188 29.9351V30.0649ZM531.858 25.1658L531.933 25.2069C533.131 25.8584 534.32 26.5863 535.221 27.3249C535.671 27.6936 536.08 28.0896 536.384 28.5057C536.681 28.9129 536.938 29.4229 536.938 29.9999C536.938 30.5768 536.681 31.0869 536.384 31.494C536.08 31.9101 535.671 32.3061 535.221 32.6749C534.32 33.4135 533.131 34.1413 531.933 34.7928L531.858 34.8339C530.66 35.4848 529.656 36.0312 528.811 36.3184C527.903 36.6272 526.997 36.6999 526.121 36.1788C525.23 35.649 524.871 34.7804 524.712 33.8085C524.562 32.8892 524.562 31.6834 524.563 30.231V29.7688C524.562 28.3164 524.562 27.1105 524.712 26.1912C524.871 25.2193 525.23 24.3507 526.121 23.8209C526.997 23.2998 527.903 23.3725 528.811 23.6813C529.656 23.9685 530.66 24.5149 531.858 25.1658Z" fill="#FF5574"/>
</g>
<rect x="600" width="60" height="60" rx="16" fill="#F0FEF8" fill-opacity="0.1"/>
<rect x="600.5" y="0.5" width="59" height="59" rx="15.5" stroke="#0CE984" stroke-opacity="0.1"/>
<g filter="url(#filter6_d_13046_2488)">
<path d="M630 16.5C626.138 16.5 623.12 17.6069 620.615 19.4194C618.15 21.2028 616.242 23.6274 614.513 26.1523C614.044 26.8358 614.219 27.7694 614.902 28.2375C615.586 28.7057 616.52 28.5311 616.988 27.8477C617.727 26.768 618.466 25.761 619.235 24.8463C619.046 25.1741 618.86 25.5055 618.678 25.839C617.55 27.8977 617.198 30.5021 617.19 32.9732C617.181 35.4635 617.523 37.9272 617.868 39.7778L617.884 39.867C618.009 40.538 618.103 41.0439 618.373 41.5641C618.836 42.4559 619.763 43.2262 620.724 43.5179C621.286 43.6882 621.853 43.6879 622.613 43.6875L622.894 43.6876C623.915 43.6882 624.66 43.6887 625.29 43.4703C626.429 43.0752 627.325 42.1794 627.72 41.0397C627.939 40.4098 627.938 39.6655 627.937 38.6445L627.937 36C627.937 34.8609 628.861 33.9375 630 33.9375C631.139 33.9375 632.062 34.8609 632.062 36L632.062 38.6445C632.062 39.6655 632.061 40.4098 632.28 41.0397C632.675 42.1794 633.57 43.0752 634.71 43.4703C635.34 43.6887 636.084 43.6882 637.105 43.6876L637.387 43.6875C638.147 43.6879 638.714 43.6882 639.275 43.5179C640.237 43.2262 641.164 42.4559 641.627 41.5641C641.897 41.0439 641.991 40.538 642.116 39.867L642.132 39.7778C642.477 37.9272 642.818 35.4635 642.81 32.9732C642.802 30.5021 642.45 27.8977 641.322 25.839C641.139 25.5048 640.953 25.1727 640.764 24.8442C641.534 25.7595 642.273 26.7672 643.013 27.8477C643.481 28.5311 644.414 28.7057 645.098 28.2375C645.781 27.7694 645.956 26.8358 645.488 26.1523C643.758 23.6274 641.85 21.2028 639.386 19.4194C636.881 17.6069 633.862 16.5 630 16.5Z" fill="#0CE984"/>
</g>
<rect x="700" width="60" height="60" rx="16" fill="#FFF8F0" fill-opacity="0.1"/>
<rect x="700.5" y="0.5" width="59" height="59" rx="15.5" stroke="#FFB255" stroke-opacity="0.1"/>
<g filter="url(#filter7_d_13046_2488)">
<path d="M730 14.8125C724.2 14.8125 720.063 19.2818 720.063 24.75C720.063 26.3771 719.943 27.2238 719.636 27.9777C719.313 28.7685 718.762 29.5215 717.7 30.9375C716.977 31.9012 716.676 32.9452 716.76 33.9742C716.843 34.9896 717.294 35.9138 717.944 36.677C719.232 38.1885 721.394 39.1875 723.641 39.1875H736.294C738.526 39.1875 740.629 38.1689 741.859 36.6413C742.48 35.8704 742.897 34.9442 742.958 33.937C743.02 32.9186 742.713 31.8873 742 30.9375C740.959 29.5494 740.487 28.8031 740.238 28.0405C739.988 27.2759 739.938 26.4249 739.938 24.75C739.938 19.2818 735.801 14.8125 730 14.8125Z" fill="#FFB255"/>
<path d="M723.629 42C724.694 44.4635 727.146 46.1875 730 46.1875C732.854 46.1875 735.306 44.4635 736.371 42C737.436 39.5365 722.564 39.5365 723.629 42Z" fill="#FFB255"/>
</g>
<rect x="800" width="60" height="60" rx="16" fill="#F0F4FF" fill-opacity="0.1"/>
<rect x="800.5" y="0.5" width="59" height="59" rx="15.5" stroke="#5585FF" stroke-opacity="0.1"/>
<g filter="url(#filter8_d_13046_2488)">
<path d="M838.67 15.9512C838.973 15.4896 839.593 15.3611 840.055 15.6642C842.032 16.9625 843.73 18.6504 845.04 20.619C845.346 21.0788 845.221 21.6995 844.761 22.0055C844.302 22.3115 843.681 22.1868 843.375 21.727C842.214 19.9825 840.709 18.4864 838.957 17.336C838.495 17.0328 838.367 16.4129 838.67 15.9512Z" fill="#5585FF"/>
<path d="M821.588 15.9512C821.891 16.4129 821.763 17.0328 821.301 17.336C819.549 18.4864 818.044 19.9825 816.883 21.727C816.577 22.1868 815.957 22.3115 815.497 22.0055C815.037 21.6995 814.912 21.0788 815.218 20.619C816.528 18.6504 818.226 16.9625 820.203 15.6642C820.665 15.3611 821.285 15.4896 821.588 15.9512Z" fill="#5585FF"/>
<path fill-rule="evenodd" clip-rule="evenodd" d="M817.151 43.5426L819.506 41.1886C818.896 40.5727 818.381 39.8627 817.982 39.0807C817.495 38.1243 817.275 37.0611 817.168 35.7524C817.062 34.4636 817.062 32.8568 817.062 30.7925V30.7077C817.062 28.6434 817.062 27.0366 817.168 25.7478C817.275 24.4392 817.495 23.3759 817.982 22.4196C818.791 20.832 820.082 19.5412 821.669 18.7323C822.626 18.245 823.689 18.0248 824.998 17.9179C826.287 17.8126 827.893 17.8126 829.958 17.8126H830.042C832.107 17.8126 833.713 17.8126 835.002 17.9179C836.311 18.0248 837.374 18.245 838.331 18.7323C839.918 19.5412 841.209 20.832 842.018 22.4196C842.505 23.3759 842.725 24.4392 842.832 25.7478C842.938 27.0367 842.938 28.6434 842.938 30.7077V30.7925C842.938 32.8568 842.938 34.4636 842.832 35.7524C842.725 37.0611 842.505 38.1243 842.018 39.0807C841.605 39.8905 841.067 40.6231 840.428 41.2539L842.708 43.5447C843.098 43.9362 843.096 44.5694 842.705 44.9589C842.313 45.3485 841.68 45.347 841.29 44.9555L838.835 42.4886C838.671 42.5872 838.502 42.6804 838.331 42.768C837.374 43.2553 836.311 43.4754 835.002 43.5823C833.713 43.6876 832.107 43.6876 830.042 43.6876H829.958C827.893 43.6876 826.287 43.6876 824.998 43.5823C823.689 43.4754 822.626 43.2553 821.669 42.768C821.469 42.666 821.274 42.5564 821.084 42.4396L818.564 44.9573C818.174 45.3477 817.54 45.3475 817.15 44.9568C816.76 44.5662 816.76 43.933 817.151 43.5426ZM831 25.5001C831 24.9478 830.552 24.5001 830 24.5001C829.448 24.5001 829 24.9478 829 25.5001L829 28.5617C829 29.2158 829 29.8036 829.064 30.2793C829.134 30.7986 829.296 31.3314 829.732 31.7679C830.169 32.2043 830.701 32.3665 831.221 32.4363C831.697 32.5002 832.284 32.5002 832.938 32.5001L836 32.5001C836.552 32.5001 837 32.0524 837 31.5001C837 30.9478 836.552 30.5001 836 30.5001H833C832.265 30.5001 831.814 30.498 831.487 30.4541C831.201 30.4156 831.153 30.3607 831.147 30.3542L831.146 30.3532C831.139 30.3475 831.085 30.2996 831.046 30.0128C831.002 29.6864 831 29.2355 831 28.5001V25.5001Z" fill="#5585FF"/>
</g>
<rect x="900" width="60" height="60" rx="16" fill="#F6F0FF" fill-opacity="0.1"/>
<rect x="900.5" y="0.5" width="59" height="59" rx="15.5" stroke="#A157FF" stroke-opacity="0.1"/>
<g filter="url(#filter9_d_13046_2488)">
<path d="M921.586 17.0626C922.489 17.062 923.159 17.0616 923.789 17.2802C923.882 17.3124 923.973 17.3481 924.064 17.3872C924.675 17.6523 925.169 18.1059 925.833 18.7171L926.663 19.4788C927.566 20.3083 927.847 20.5461 928.17 20.672C928.493 20.7978 928.861 20.8126 930.087 20.8126L938.317 20.8126C939.674 20.8126 940.787 20.8125 941.667 20.9308C942.588 21.0546 943.392 21.3233 944.034 21.9659C944.677 22.6084 944.945 23.4125 945.069 24.3334C945.097 24.5424 945.119 24.7646 945.135 25.0001H914.813V23.6379C914.812 22.421 914.812 21.4228 914.909 20.6272C915.01 19.7968 915.228 19.0624 915.754 18.4449C915.889 18.2866 916.037 18.1393 916.195 18.0043C916.812 17.4776 917.547 17.2599 918.377 17.1591C919.173 17.0626 920.171 17.0626 921.388 17.0626L921.586 17.0626Z" fill="#A157FF"/>
<path d="M914.813 27.0001V35.3169C914.812 36.6742 914.812 37.7873 914.931 38.6668C915.055 39.5877 915.323 40.3918 915.966 41.0343C916.608 41.6769 917.412 41.9456 918.333 42.0694C919.213 42.1877 920.326 42.1876 921.683 42.1876H938.317C939.674 42.1876 940.787 42.1877 941.667 42.0694C942.588 41.9456 943.392 41.6769 944.034 41.0343C944.677 40.3918 944.945 39.5877 945.069 38.6668C945.188 37.7873 945.188 36.6743 945.188 35.3169V27.6833C945.188 27.4483 945.188 27.2206 945.187 27.0001H914.813Z" fill="#A157FF"/>
</g>
<rect x="1000" width="60" height="60" rx="16" fill="#FFF0F9" fill-opacity="0.1"/>
<g filter="url(#filter10_d_13046_2488)">
<path d="M1033.28 16.5H1026.72C1023.03 16.5 1019.91 19.2539 1019.45 22.9238C1019.2 24.8903 1018.17 26.6737 1016.59 27.8676L1015.75 28.5H1044.25L1043.41 27.8676C1041.83 26.6737 1040.8 24.8903 1040.55 22.9238C1040.09 19.2539 1036.97 16.5 1033.28 16.5Z" fill="#FF55BB"/>
</g>
<g filter="url(#filter11_d_13046_2488)">
<path d="M1022.41 32.8125C1021.8 32.8124 1021.38 32.8123 1021.02 32.8702C1019.01 33.1879 1017.44 34.761 1017.12 36.7667C1017.06 37.1325 1017.06 37.5501 1017.06 38.1632V38.3368C1017.06 38.9499 1017.06 39.3676 1017.12 39.7333C1017.44 41.7391 1019.01 43.3121 1021.02 43.6298C1021.38 43.6877 1021.8 43.6877 1022.41 43.6875H1022.59C1023.2 43.6877 1023.62 43.6877 1023.98 43.6298C1025.99 43.3121 1027.56 41.7391 1027.88 39.7333C1027.94 39.3676 1027.94 38.9499 1027.94 38.3368V38.1632C1027.94 37.6068 1027.94 37.2114 1027.89 36.8696C1028.56 36.67 1029.27 36.5625 1030 36.5625C1030.73 36.5625 1031.44 36.6702 1032.11 36.8703C1032.06 37.2119 1032.06 37.6072 1032.06 38.1632V38.3368C1032.06 38.9499 1032.06 39.3676 1032.12 39.7333C1032.44 41.7391 1034.01 43.3121 1036.02 43.6298C1036.38 43.6877 1036.8 43.6877 1037.41 43.6875H1037.59C1038.2 43.6877 1038.62 43.6877 1038.98 43.6298C1040.99 43.3121 1042.56 41.7391 1042.88 39.7333C1042.94 39.3676 1042.94 38.9499 1042.94 38.3368V38.1632C1042.94 37.5501 1042.94 37.1325 1042.88 36.7667C1042.56 34.761 1040.99 33.1879 1038.98 32.8702C1038.62 32.8123 1038.2 32.8124 1037.59 32.8125H1037.41C1036.8 32.8124 1036.38 32.8123 1036.02 32.8702C1034.61 33.0925 1033.42 33.9292 1032.72 35.0987C1031.86 34.8313 1030.95 34.6875 1030 34.6875C1029.05 34.6875 1028.14 34.8311 1027.28 35.0981C1026.58 33.9289 1025.39 33.0924 1023.98 32.8702C1023.62 32.8123 1023.2 32.8124 1022.59 32.8125H1022.41Z" fill="#FF55BB"/>
</g>
<rect x="1100" width="60" height="60" rx="16" fill="#FFF0F2" fill-opacity="0.1"/>
<rect x="1100.5" y="0.5" width="59" height="59" rx="15.5" stroke="#FF5574" stroke-opacity="0.1"/>
<g filter="url(#filter12_d_13046_2488)">
<path d="M1136.47 17.3704C1134.77 15.6011 1132.36 14.75 1130 14.75C1127.64 14.75 1125.23 15.6011 1123.53 17.3704C1121.6 19.388 1120.75 22.9262 1120.75 26.25C1120.75 29.5738 1121.6 33.112 1123.53 35.1296C1125.23 36.8989 1127.64 37.75 1130 37.75C1132.36 37.75 1134.77 36.8989 1136.47 35.1296C1138.4 33.112 1139.25 29.5738 1139.25 26.25C1139.25 22.9262 1138.4 19.388 1136.47 17.3704Z" fill="#FF5574"/>
<path d="M1139.19 34.4298C1139.64 34.7458 1139.75 35.3691 1139.44 35.8221C1137.39 38.7619 1134.24 40.3595 1131 40.6322V44.25C1131 44.8023 1130.55 45.25 1130 45.25C1129.45 45.25 1129 44.8023 1129 44.25V40.6324C1125.76 40.3602 1122.61 38.7626 1120.56 35.8221C1120.24 35.3691 1120.36 34.7458 1120.81 34.4298C1121.26 34.1138 1121.89 34.2249 1122.2 34.6779C1124.05 37.3347 1127.01 38.6746 1130 38.6743C1132.98 38.674 1135.94 37.3341 1137.8 34.6779C1138.11 34.2249 1138.74 34.1138 1139.19 34.4298Z" fill="#FF5574"/>
</g>
<rect x="1200" width="60" height="60" rx="16" fill="#F0FEF8" fill-opacity="0.1"/>
<rect x="1200.5" y="0.5" width="59" height="59" rx="15.5" stroke="#0CE984" stroke-opacity="0.1"/>
<g filter="url(#filter13_d_13046_2488)">
<path fill-rule="evenodd" clip-rule="evenodd" d="M1223.18 21.1778C1222.86 21.6307 1222.97 22.2541 1223.43 22.5701C1223.88 22.8861 1224.5 22.7746 1224.82 22.3218L1224.82 22.3192L1224.83 22.3077L1224.86 22.2603C1224.89 22.2183 1224.94 22.156 1225 22.0761C1225.11 21.9164 1225.28 21.6871 1225.48 21.4115C1225.9 20.8591 1226.46 20.1265 1227.08 19.3971C1227.71 18.6625 1228.36 17.9564 1228.95 17.4424L1229 17.402V27.5625H1225.14C1224.78 27.5625 1224.56 27.5625 1224.36 27.5734C1220.84 27.7714 1218.02 30.5857 1217.82 34.111C1217.81 34.3057 1217.81 34.5289 1217.81 34.8929L1217.81 36.5314C1217.81 38.1253 1217.81 39.1042 1218.02 39.9357C1218.64 42.4188 1220.58 44.3576 1223.06 44.9796C1223.9 45.1879 1224.87 45.1877 1226.47 45.1875H1233.53C1235.13 45.1877 1236.1 45.1879 1236.94 44.9796C1239.42 44.3576 1241.36 42.4188 1241.98 39.9357C1242.19 39.1043 1242.19 38.1253 1242.19 36.5315L1242.19 34.8928C1242.19 34.529 1242.19 34.3057 1242.18 34.111C1241.98 30.5857 1239.16 27.7714 1235.64 27.5734C1235.44 27.5625 1235.22 27.5625 1234.86 27.5625H1231V17.402L1231.05 17.4424C1231.64 17.9564 1232.29 18.6625 1232.92 19.3971C1233.54 20.1265 1234.1 20.8591 1234.52 21.4115C1234.72 21.6871 1234.89 21.9164 1235 22.0761C1235.06 22.156 1235.11 22.2183 1235.14 22.2603L1235.17 22.3077L1235.18 22.3192L1235.18 22.3223C1235.5 22.7752 1236.12 22.8861 1236.57 22.5701C1237.03 22.2541 1237.14 21.6301 1236.82 21.1772L1236.82 21.1721L1236.81 21.1579L1236.77 21.1049C1236.74 21.059 1236.69 20.9925 1236.63 20.9083C1236.51 20.7399 1236.33 20.5004 1236.12 20.2135C1235.69 19.6409 1235.1 18.8735 1234.44 18.1029C1233.79 17.3375 1233.06 16.5436 1232.36 15.9326C1232.01 15.6276 1231.64 15.3475 1231.27 15.1389C1230.92 14.9399 1230.48 14.75 1230 14.75C1229.52 14.75 1229.08 14.9399 1228.73 15.1389C1228.36 15.3475 1227.99 15.6276 1227.64 15.9326C1226.94 16.5436 1226.21 17.3375 1225.56 18.1029C1224.9 18.8735 1224.31 19.6409 1223.88 20.2135C1223.67 20.5004 1223.49 20.7399 1223.37 20.9083C1223.31 20.9925 1223.26 21.059 1223.23 21.1049L1223.19 21.1579L1223.18 21.1721L1223.18 21.1778ZM1224 21.75C1223.18 21.1778 1223.18 21.1779 1223.18 21.1778L1224 21.75ZM1236 21.75L1236.82 21.1772C1236.82 21.1773 1236.82 21.1778 1236 21.75Z" fill="#0CE984"/>
</g>
<rect x="1300" width="60" height="60" rx="16" fill="#FFF8F0" fill-opacity="0.1"/>
<rect x="1300.5" y="0.5" width="59" height="59" rx="15.5" stroke="#FFB255" stroke-opacity="0.1"/>
<g filter="url(#filter14_d_13046_2488)">
<path fill-rule="evenodd" clip-rule="evenodd" d="M1340.22 15.6484C1341.51 15.6173 1342.62 15.8266 1343.53 16.5999C1344.44 17.3733 1344.83 18.4325 1345.01 19.7076C1345.19 20.9414 1345.19 22.5372 1345.19 24.5285V35.4712C1345.19 37.4626 1345.19 39.0583 1345.01 40.292C1344.83 41.5672 1344.44 42.6264 1343.53 43.3997C1342.62 44.1731 1341.51 44.3823 1340.22 44.3512C1338.97 44.3211 1337.4 44.0588 1335.44 43.7314L1332.3 43.2089C1330.86 42.9681 1329.69 42.7731 1328.77 42.5005C1327.82 42.2166 1327.03 41.8189 1326.42 41.103C1325.82 40.387 1325.55 39.5445 1325.43 38.5573C1325.31 37.6094 1325.31 36.4228 1325.31 34.9582V25.0415C1325.31 23.5769 1325.31 22.3903 1325.43 21.4424C1325.55 20.4552 1325.82 19.6128 1326.42 18.8968C1327.03 18.1808 1327.82 17.7831 1328.77 17.4993C1329.69 17.2267 1330.86 17.0316 1332.3 16.7909L1335.44 16.2684C1337.4 15.9409 1338.97 15.6786 1340.22 15.6484ZM1332.56 20.8123L1332.63 20.8124L1332.69 20.8123C1332.97 20.812 1333.24 20.8117 1333.48 20.8592C1334.44 21.0516 1335.2 21.8074 1335.39 22.7744C1335.44 23.0132 1335.44 23.278 1335.44 23.5565V36.4433C1335.44 36.7218 1335.44 36.9866 1335.39 37.2254C1335.2 38.1924 1334.44 38.9482 1333.48 39.1406C1333.24 39.1881 1332.97 39.1878 1332.69 39.1874L1332.63 39.1874L1332.56 39.1874C1332.28 39.1878 1332.01 39.1881 1331.77 39.1406C1330.81 38.9482 1330.05 38.1924 1329.86 37.2254C1329.81 36.9866 1329.81 36.7218 1329.81 36.4433V23.5565C1329.81 23.278 1329.81 23.0132 1329.86 22.7744C1330.05 21.8074 1330.81 21.0516 1331.77 20.8592C1332.01 20.8117 1332.28 20.812 1332.56 20.8123Z" fill="#FFB255"/>
<path d="M1314.81 23.456C1315.02 23.2514 1315.34 23.0624 1315.75 23.0624C1317.78 23.0624 1319.52 24.2574 1320.7 25.609C1321.86 26.9421 1322.69 28.6538 1322.69 29.9999C1322.69 31.346 1321.86 33.0576 1320.7 34.3908C1319.52 35.7423 1317.78 36.9374 1315.75 36.9374C1315.34 36.9374 1315.02 36.7484 1314.81 36.5438C1314.6 36.3484 1314.46 36.1096 1314.35 35.8912C1314.14 35.453 1313.99 34.8898 1313.88 34.2975C1313.66 33.0957 1313.55 31.5333 1313.55 29.9999C1313.55 28.4664 1313.66 26.904 1313.88 25.7022C1313.99 25.11 1314.14 24.5468 1314.35 24.1086C1314.46 23.8902 1314.6 23.6513 1314.81 23.456Z" fill="#FFB255"/>
</g>
<rect x="1400" width="60" height="60" rx="16" fill="#F0F4FF" fill-opacity="0.1"/>
<rect x="1400.5" y="0.5" width="59" height="59" rx="15.5" stroke="#5585FF" stroke-opacity="0.1"/>
<g filter="url(#filter15_d_13046_2488)">
<path fill-rule="evenodd" clip-rule="evenodd" d="M1428.74 14.8125H1431.26C1433.26 14.8125 1434.84 14.8125 1436.1 14.9668C1437.4 15.1259 1438.47 15.4592 1439.38 16.202C1440.29 16.9447 1440.84 17.9231 1441.26 19.1642C1441.66 20.3684 1441.98 21.9186 1442.39 23.8717L1444.9 36H1415.1L1417.61 23.8717C1418.02 21.9185 1418.34 20.3684 1418.74 19.1642C1419.16 17.9231 1419.71 16.9447 1420.62 16.202C1421.53 15.4592 1422.6 15.1259 1423.9 14.9668C1425.16 14.8125 1426.74 14.8125 1428.74 14.8125ZM1430 20.75C1430.55 20.75 1431 21.1977 1431 21.75V29.8358L1434.54 26.2929C1434.93 25.9024 1435.57 25.9024 1435.96 26.2929C1436.35 26.6834 1436.35 27.3166 1435.96 27.7071L1430.71 32.9571C1430.32 33.3476 1429.68 33.3476 1429.29 32.9571L1424.04 27.7071C1423.65 27.3166 1423.65 26.6834 1424.04 26.2929C1424.43 25.9024 1425.07 25.9024 1425.46 26.2929L1429 29.8358V21.75C1429 21.1977 1429.45 20.75 1430 20.75Z" fill="#5585FF"/>
<path d="M1414.81 38C1414.81 38.0335 1414.81 38.0711 1414.81 38.1187L1414.81 38.2071C1414.81 38.9415 1414.81 39.4039 1414.87 39.806C1415.23 42.5838 1417.42 44.7698 1420.19 45.1348C1420.6 45.1876 1421.06 45.1876 1421.79 45.1875H1438.21C1438.94 45.1876 1439.4 45.1876 1439.81 45.1348C1442.58 44.7698 1444.77 42.5838 1445.13 39.806C1445.19 39.4039 1445.19 38.9415 1445.19 38.2071L1445.19 38.1188C1445.19 38.0711 1445.19 38.0335 1445.19 38H1414.81Z" fill="#5585FF"/>
</g>
<rect x="1500" width="60" height="60" rx="16" fill="#F6F0FF" fill-opacity="0.1"/>
<rect x="1500.5" y="0.5" width="59" height="59" rx="15.5" stroke="#A157FF" stroke-opacity="0.1"/>
<g filter="url(#filter16_d_13046_2488)">
<path d="M1534.54 16.3125H1525.46C1523.74 16.3125 1522.4 16.3125 1521.32 16.4044C1520.21 16.4981 1519.3 16.6925 1518.48 17.1317C1517.27 17.7785 1516.28 18.7696 1515.63 19.9797C1515.19 20.8014 1515 21.7134 1514.9 22.8152C1514.81 23.8961 1514.81 25.2423 1514.81 26.9564V27.0436C1514.81 28.7577 1514.81 30.1039 1514.9 31.1848C1514.96 31.8521 1515.05 32.4498 1515.22 33H1544.78C1544.95 32.4498 1545.04 31.8521 1545.1 31.1848C1545.19 30.1039 1545.19 28.7576 1545.19 27.0436V26.9564C1545.19 25.2423 1545.19 23.8961 1545.1 22.8152C1545 21.7134 1544.81 20.8014 1544.37 19.9797C1543.72 18.7696 1542.73 17.7785 1541.52 17.1317C1540.7 16.6925 1539.79 16.4981 1538.68 16.4044C1537.6 16.3125 1536.26 16.3125 1534.54 16.3125Z" fill="#A157FF"/>
<path d="M1543.73 35H1516.27C1516.86 35.7681 1517.61 36.4061 1518.48 36.8683C1519.3 37.3075 1520.21 37.5019 1521.32 37.5956C1522.4 37.6875 1523.74 37.6875 1525.46 37.6875H1527.55C1527.53 38.6088 1527.44 39.3045 1527.28 39.9115C1527.12 40.5588 1526.87 41.1401 1526.47 41.8125H1524.75C1524.23 41.8125 1523.81 42.2322 1523.81 42.75C1523.81 43.2678 1524.23 43.6875 1524.75 43.6875H1535.25C1535.77 43.6875 1536.19 43.2678 1536.19 42.75C1536.19 42.2322 1535.77 41.8125 1535.25 41.8125H1533.53C1533.13 41.1401 1532.88 40.5588 1532.72 39.9115C1532.56 39.3045 1532.47 38.6088 1532.45 37.6875H1534.54C1536.26 37.6875 1537.6 37.6875 1538.68 37.5956C1539.79 37.5019 1540.7 37.3075 1541.52 36.8683C1542.39 36.4061 1543.14 35.7681 1543.73 35Z" fill="#A157FF"/>
</g>
<rect x="1600" width="60" height="60" rx="16" fill="#FFF0F9" fill-opacity="0.1"/>
<g filter="url(#filter17_d_13046_2488)">
<path fill-rule="evenodd" clip-rule="evenodd" d="M1630.64 14.8125C1632.71 14.8121 1634.01 14.8119 1635.2 15.2628C1635.32 15.3105 1635.45 15.362 1635.57 15.4171C1636.73 15.9365 1637.65 16.8484 1639.12 18.315L1639.39 18.582C1640.88 20.0585 1641.8 20.9765 1642.33 22.1444C1642.38 22.2682 1642.43 22.3936 1642.48 22.5204C1642.94 23.7172 1642.94 25.0191 1642.94 27.113L1642.94 32.3216C1642.94 35.0894 1642.94 37.2623 1642.71 38.9586C1642.48 40.6964 1641.99 42.0737 1640.91 43.1556C1639.82 44.2375 1638.45 44.7259 1636.71 44.9595C1635.01 45.1876 1632.84 45.1876 1630.07 45.1875H1629.93C1627.16 45.1876 1624.99 45.1876 1623.29 44.9595C1621.55 44.7259 1620.18 44.2375 1619.09 43.1556C1618.01 42.0737 1617.52 40.6964 1617.29 38.9586C1617.06 37.2623 1617.06 35.0894 1617.06 32.3216V27.6785C1617.06 24.9107 1617.06 22.7378 1617.29 21.0415C1617.52 19.3037 1618.01 17.9264 1619.09 16.8445C1620.18 15.7626 1621.55 15.2742 1623.29 15.0406C1624.99 14.8125 1627.16 14.8125 1629.93 14.8125L1630.64 14.8125ZM1631 27.7501C1631 27.1978 1630.55 26.7501 1630 26.7501C1629.45 26.7501 1629 27.1978 1629 27.7501V31.2501H1625.5C1624.95 31.2501 1624.5 31.6978 1624.5 32.2501C1624.5 32.8023 1624.95 33.2501 1625.5 33.2501H1629V36.7501C1629 37.3023 1629.45 37.7501 1630 37.7501C1630.55 37.7501 1631 37.3023 1631 36.7501V33.2501H1634.5C1635.05 33.2501 1635.5 32.8023 1635.5 32.2501C1635.5 31.6978 1635.05 31.2501 1634.5 31.2501H1631V27.7501Z" fill="#FF55BB"/>
</g>
<g filter="url(#filter18_d_13046_2488)">
<path d="M1642.82 23.8822C1642.75 23.3935 1642.65 22.9501 1642.48 22.5203C1642.43 22.3935 1642.38 22.2681 1642.33 22.1443C1641.8 20.9764 1640.88 20.0584 1639.39 18.5819L1639.12 18.3149C1637.65 16.8483 1636.73 15.9364 1635.57 15.417C1635.45 15.3619 1635.32 15.3105 1635.2 15.2627C1634.69 15.0706 1634.16 14.9604 1633.57 14.8972C1633.56 14.931 1633.56 14.9652 1633.56 15L1633.56 18.5638C1633.56 19.57 1633.56 20.4183 1633.65 21.0937C1633.75 21.8104 1633.96 22.4711 1634.5 23.0039C1635.03 23.5366 1635.69 23.7504 1636.41 23.8467C1637.08 23.9375 1637.93 23.9375 1638.94 23.9375L1642.5 23.9375C1642.61 23.9375 1642.72 23.918 1642.82 23.8822Z" fill="#FF55BB"/>
</g>
<rect x="1700" width="60" height="60" rx="16" fill="#FFF0F2" fill-opacity="0.1"/>
<rect x="1700.5" y="0.5" width="59" height="59" rx="15.5" stroke="#FF5574" stroke-opacity="0.1"/>
<g filter="url(#filter19_d_13046_2488)">
<path d="M1730 14.75L1721.68 14.75C1720.33 14.75 1719.21 14.7499 1718.32 14.8688C1717.4 14.9935 1716.58 15.2655 1715.92 15.9216C1715.27 16.5777 1714.99 17.3971 1714.87 18.3249C1714.75 19.2087 1714.75 20.3253 1714.75 21.6794V38.3206C1714.75 39.6747 1714.75 40.7913 1714.87 41.6751C1714.99 42.6029 1715.27 43.4223 1715.92 44.0784C1716.58 44.7345 1717.4 45.0065 1718.32 45.1313C1719.21 45.2501 1720.33 45.25 1721.68 45.25H1738.32C1739.67 45.25 1740.79 45.2501 1741.68 45.1313C1742.6 45.0065 1743.42 44.7345 1744.08 44.0784C1744.73 43.4223 1745.01 42.6029 1745.13 41.6751C1745.25 40.7913 1745.25 39.6747 1745.25 38.3206V30C1745.25 29.4477 1744.8 29 1744.25 29C1743.7 29 1743.25 29.4477 1743.25 30V38.25C1743.25 39.6925 1743.25 40.6738 1743.15 41.4086C1743.05 42.1146 1742.89 42.4416 1742.66 42.6642C1742.44 42.8868 1742.11 43.0542 1741.41 43.1491C1740.67 43.2479 1739.69 43.25 1738.25 43.25H1721.75C1720.31 43.25 1719.33 43.2479 1718.59 43.1491C1717.89 43.0542 1717.56 42.8868 1717.34 42.6642C1717.11 42.4416 1716.95 42.1146 1716.85 41.4086C1716.75 40.6738 1716.75 39.6925 1716.75 38.25V21.75C1716.75 20.3075 1716.75 19.3263 1716.85 18.5914C1716.95 17.8854 1717.11 17.5584 1717.34 17.3358C1717.56 17.1132 1717.89 16.9458 1718.59 16.8509C1719.33 16.7521 1720.31 16.75 1721.75 16.75H1730C1730.55 16.75 1731 16.3023 1731 15.75C1731 15.1977 1730.55 14.75 1730 14.75Z" fill="#FF5574"/>
<path fill-rule="evenodd" clip-rule="evenodd" d="M1737.28 15.7118C1737.81 15.4631 1738.34 15.3206 1738.95 15.385C1739.58 15.4505 1740.08 15.7156 1740.56 16.0794C1740.99 16.4149 1741.46 16.8833 1742 17.4249L1742.58 17.9995C1743.12 18.5411 1743.59 19.0094 1743.92 19.4449C1744.28 19.9168 1744.55 20.4201 1744.62 21.0453C1744.68 21.6609 1744.54 22.195 1744.29 22.7209C1744.06 23.2001 1743.72 23.729 1743.32 24.3322L1743.29 24.3802C1741.94 26.454 1739.89 29.3327 1737.4 31.9027C1734.94 34.455 1731.96 36.7982 1728.74 37.656C1728.24 37.7894 1727.74 37.9928 1727.2 38.2217L1727 38.3069C1726.54 38.5046 1726.04 38.7184 1725.55 38.873C1724.99 39.0518 1724.36 39.1821 1723.71 39.1038C1723.03 39.0221 1722.4 38.722 1721.84 38.1631C1721.28 37.6041 1720.98 36.9715 1720.9 36.2908C1720.82 35.6383 1720.95 35.0072 1721.13 34.4453C1721.28 33.9596 1721.5 33.46 1721.69 32.9978C1721.72 32.9305 1721.75 32.864 1721.78 32.7984C1722.01 32.2605 1722.21 31.7585 1722.34 31.2584C1723.2 28.0439 1725.55 25.0629 1728.1 22.5956C1730.67 20.1111 1733.55 18.0561 1735.62 16.7065L1735.67 16.6753C1736.27 16.2827 1736.8 15.9385 1737.28 15.7118ZM1735.96 18.7929C1735.57 18.4024 1734.93 18.4024 1734.54 18.7929C1734.15 19.1834 1734.15 19.8166 1734.54 20.2071L1739.79 25.4571C1740.18 25.8476 1740.82 25.8476 1741.21 25.4571C1741.6 25.0666 1741.6 24.4334 1741.21 24.0429L1735.96 18.7929Z" fill="#FF5574"/>
</g>
<defs>
<filter id="filter0_d_13046_2488" x="5.75" y="9.5" width="48.5" height="41" filterUnits="userSpaceOnUse" color-interpolation-filters="sRGB">
<feFlood flood-opacity="0" result="BackgroundImageFix"/>
<feColorMatrix in="SourceAlpha" type="matrix" values="0 0 0 0 0 0 0 0 0 0 0 0 0 0 0 0 0 0 127 0" result="hardAlpha"/>
<feOffset/>
<feGaussianBlur stdDeviation="5"/>
<feComposite in2="hardAlpha" operator="out"/>
<feColorMatrix type="matrix" values="0 0 0 0 0.0470588 0 0 0 0 0.913725 0 0 0 0 0.517647 0 0 0 0.4 0"/>
<feBlend mode="normal" in2="BackgroundImageFix" result="effect1_dropShadow_13046_2488"/>
<feBlend mode="normal" in="SourceGraphic" in2="effect1_dropShadow_13046_2488" result="shape"/>
</filter>
<filter id="filter1_d_13046_2488" x="104.812" y="8.8125" width="50.375" height="50.375" filterUnits="userSpaceOnUse" color-interpolation-filters="sRGB">
<feFlood flood-opacity="0" result="BackgroundImageFix"/>
<feColorMatrix in="SourceAlpha" type="matrix" values="0 0 0 0 0 0 0 0 0 0 0 0 0 0 0 0 0 0 127 0" result="hardAlpha"/>
<feOffset dy="4"/>
<feGaussianBlur stdDeviation="5"/>
<feComposite in2="hardAlpha" operator="out"/>
<feColorMatrix type="matrix" values="0 0 0 0 1 0 0 0 0 0.698039 0 0 0 0 0.333333 0 0 0 0.4 0"/>
<feBlend mode="normal" in2="BackgroundImageFix" result="effect1_dropShadow_13046_2488"/>
<feBlend mode="normal" in="SourceGraphic" in2="effect1_dropShadow_13046_2488" result="shape"/>
</filter>
<filter id="filter2_d_13046_2488" x="204.812" y="8.8125" width="50.375" height="50.375" filterUnits="userSpaceOnUse" color-interpolation-filters="sRGB">
<feFlood flood-opacity="0" result="BackgroundImageFix"/>
<feColorMatrix in="SourceAlpha" type="matrix" values="0 0 0 0 0 0 0 0 0 0 0 0 0 0 0 0 0 0 127 0" result="hardAlpha"/>
<feOffset dy="4"/>
<feGaussianBlur stdDeviation="5"/>
<feComposite in2="hardAlpha" operator="out"/>
<feColorMatrix type="matrix" values="0 0 0 0 0.333333 0 0 0 0 0.521569 0 0 0 0 1 0 0 0 0.4 0"/>
<feBlend mode="normal" in2="BackgroundImageFix" result="effect1_dropShadow_13046_2488"/>
<feBlend mode="normal" in="SourceGraphic" in2="effect1_dropShadow_13046_2488" result="shape"/>
</filter>
<filter id="filter3_d_13046_2488" x="303.5" y="7" width="53" height="46" filterUnits="userSpaceOnUse" color-interpolation-filters="sRGB">
<feFlood flood-opacity="0" result="BackgroundImageFix"/>
<feColorMatrix in="SourceAlpha" type="matrix" values="0 0 0 0 0 0 0 0 0 0 0 0 0 0 0 0 0 0 127 0" result="hardAlpha"/>
<feOffset/>
<feGaussianBlur stdDeviation="5"/>
<feComposite in2="hardAlpha" operator="out"/>
<feColorMatrix type="matrix" values="0 0 0 0 0.631373 0 0 0 0 0.341176 0 0 0 0 1 0 0 0 0.4 0"/>
<feBlend mode="normal" in2="BackgroundImageFix" result="effect1_dropShadow_13046_2488"/>
<feBlend mode="normal" in="SourceGraphic" in2="effect1_dropShadow_13046_2488" result="shape"/>
</filter>
<filter id="filter4_d_13046_2488" x="404.812" y="9.5625" width="49.6963" height="49.625" filterUnits="userSpaceOnUse" color-interpolation-filters="sRGB">
<feFlood flood-opacity="0" result="BackgroundImageFix"/>
<feColorMatrix in="SourceAlpha" type="matrix" values="0 0 0 0 0 0 0 0 0 0 0 0 0 0 0 0 0 0 127 0" result="hardAlpha"/>
<feOffset dy="4"/>
<feGaussianBlur stdDeviation="5"/>
<feComposite in2="hardAlpha" operator="out"/>
<feColorMatrix type="matrix" values="0 0 0 0 1 0 0 0 0 0.333333 0 0 0 0 0.733333 0 0 0 0.4 0"/>
<feBlend mode="normal" in2="BackgroundImageFix" result="effect1_dropShadow_13046_2488"/>
<feBlend mode="normal" in="SourceGraphic" in2="effect1_dropShadow_13046_2488" result="shape"/>
</filter>
<filter id="filter5_d_13046_2488" x="504.812" y="8.8125" width="50.375" height="50.375" filterUnits="userSpaceOnUse" color-interpolation-filters="sRGB">
<feFlood flood-opacity="0" result="BackgroundImageFix"/>
<feColorMatrix in="SourceAlpha" type="matrix" values="0 0 0 0 0 0 0 0 0 0 0 0 0 0 0 0 0 0 127 0" result="hardAlpha"/>
<feOffset dy="4"/>
<feGaussianBlur stdDeviation="5"/>
<feComposite in2="hardAlpha" operator="out"/>
<feColorMatrix type="matrix" values="0 0 0 0 1 0 0 0 0 0.333333 0 0 0 0 0.454902 0 0 0 0.4 0"/>
<feBlend mode="normal" in2="BackgroundImageFix" result="effect1_dropShadow_13046_2488"/>
<feBlend mode="normal" in="SourceGraphic" in2="effect1_dropShadow_13046_2488" result="shape"/>
</filter>
<filter id="filter6_d_13046_2488" x="604.25" y="6.5" width="51.5005" height="47.1877" filterUnits="userSpaceOnUse" color-interpolation-filters="sRGB">
<feFlood flood-opacity="0" result="BackgroundImageFix"/>
<feColorMatrix in="SourceAlpha" type="matrix" values="0 0 0 0 0 0 0 0 0 0 0 0 0 0 0 0 0 0 127 0" result="hardAlpha"/>
<feOffset/>
<feGaussianBlur stdDeviation="5"/>
<feComposite in2="hardAlpha" operator="out"/>
<feColorMatrix type="matrix" values="0 0 0 0 0.0470588 0 0 0 0 0.913725 0 0 0 0 0.517647 0 0 0 0.4 0"/>
<feBlend mode="normal" in2="BackgroundImageFix" result="effect1_dropShadow_13046_2488"/>
<feBlend mode="normal" in="SourceGraphic" in2="effect1_dropShadow_13046_2488" result="shape"/>
</filter>
<filter id="filter7_d_13046_2488" x="706.746" y="8.8125" width="46.2197" height="51.375" filterUnits="userSpaceOnUse" color-interpolation-filters="sRGB">
<feFlood flood-opacity="0" result="BackgroundImageFix"/>
<feColorMatrix in="SourceAlpha" type="matrix" values="0 0 0 0 0 0 0 0 0 0 0 0 0 0 0 0 0 0 127 0" result="hardAlpha"/>
<feOffset dy="4"/>
<feGaussianBlur stdDeviation="5"/>
<feComposite in2="hardAlpha" operator="out"/>
<feColorMatrix type="matrix" values="0 0 0 0 1 0 0 0 0 0.698039 0 0 0 0 0.333333 0 0 0 0.4 0"/>
<feBlend mode="normal" in2="BackgroundImageFix" result="effect1_dropShadow_13046_2488"/>
<feBlend mode="normal" in="SourceGraphic" in2="effect1_dropShadow_13046_2488" result="shape"/>
</filter>
<filter id="filter8_d_13046_2488" x="805.051" y="9.5" width="50.1567" height="49.75" filterUnits="userSpaceOnUse" color-interpolation-filters="sRGB">
<feFlood flood-opacity="0" result="BackgroundImageFix"/>
<feColorMatrix in="SourceAlpha" type="matrix" values="0 0 0 0 0 0 0 0 0 0 0 0 0 0 0 0 0 0 127 0" result="hardAlpha"/>
<feOffset dy="4"/>
<feGaussianBlur stdDeviation="5"/>
<feComposite in2="hardAlpha" operator="out"/>
<feColorMatrix type="matrix" values="0 0 0 0 0.333333 0 0 0 0 0.521569 0 0 0 0 1 0 0 0 0.4 0"/>
<feBlend mode="normal" in2="BackgroundImageFix" result="effect1_dropShadow_13046_2488"/>
<feBlend mode="normal" in="SourceGraphic" in2="effect1_dropShadow_13046_2488" result="shape"/>
</filter>
<filter id="filter9_d_13046_2488" x="904.812" y="7.0625" width="50.375" height="45.125" filterUnits="userSpaceOnUse" color-interpolation-filters="sRGB">
<feFlood flood-opacity="0" result="BackgroundImageFix"/>
<feColorMatrix in="SourceAlpha" type="matrix" values="0 0 0 0 0 0 0 0 0 0 0 0 0 0 0 0 0 0 127 0" result="hardAlpha"/>
<feOffset/>
<feGaussianBlur stdDeviation="5"/>
<feComposite in2="hardAlpha" operator="out"/>
<feColorMatrix type="matrix" values="0 0 0 0 0.631373 0 0 0 0 0.341176 0 0 0 0 1 0 0 0 0.4 0"/>
<feBlend mode="normal" in2="BackgroundImageFix" result="effect1_dropShadow_13046_2488"/>
<feBlend mode="normal" in="SourceGraphic" in2="effect1_dropShadow_13046_2488" result="shape"/>
</filter>
<filter id="filter10_d_13046_2488" x="1005.75" y="10.5" width="48.5" height="32" filterUnits="userSpaceOnUse" color-interpolation-filters="sRGB">
<feFlood flood-opacity="0" result="BackgroundImageFix"/>
<feColorMatrix in="SourceAlpha" type="matrix" values="0 0 0 0 0 0 0 0 0 0 0 0 0 0 0 0 0 0 127 0" result="hardAlpha"/>
<feOffset dy="4"/>
<feGaussianBlur stdDeviation="5"/>
<feComposite in2="hardAlpha" operator="out"/>
<feColorMatrix type="matrix" values="0 0 0 0 1 0 0 0 0 0.333333 0 0 0 0 0.733333 0 0 0 0.4 0"/>
<feBlend mode="normal" in2="BackgroundImageFix" result="effect1_dropShadow_13046_2488"/>
<feBlend mode="normal" in="SourceGraphic" in2="effect1_dropShadow_13046_2488" result="shape"/>
</filter>
<filter id="filter11_d_13046_2488" x="1007.06" y="26.8125" width="45.875" height="30.875" filterUnits="userSpaceOnUse" color-interpolation-filters="sRGB">
<feFlood flood-opacity="0" result="BackgroundImageFix"/>
<feColorMatrix in="SourceAlpha" type="matrix" values="0 0 0 0 0 0 0 0 0 0 0 0 0 0 0 0 0 0 127 0" result="hardAlpha"/>
<feOffset dy="4"/>
<feGaussianBlur stdDeviation="5"/>
<feComposite in2="hardAlpha" operator="out"/>
<feColorMatrix type="matrix" values="0 0 0 0 1 0 0 0 0 0.333333 0 0 0 0 0.733333 0 0 0 0.4 0"/>
<feBlend mode="normal" in2="BackgroundImageFix" result="effect1_dropShadow_13046_2488"/>
<feBlend mode="normal" in="SourceGraphic" in2="effect1_dropShadow_13046_2488" result="shape"/>
</filter>
<filter id="filter12_d_13046_2488" x="1110.38" y="8.75" width="39.2363" height="50.5" filterUnits="userSpaceOnUse" color-interpolation-filters="sRGB">
<feFlood flood-opacity="0" result="BackgroundImageFix"/>
<feColorMatrix in="SourceAlpha" type="matrix" values="0 0 0 0 0 0 0 0 0 0 0 0 0 0 0 0 0 0 127 0" result="hardAlpha"/>
<feOffset dy="4"/>
<feGaussianBlur stdDeviation="5"/>
<feComposite in2="hardAlpha" operator="out"/>
<feColorMatrix type="matrix" values="0 0 0 0 1 0 0 0 0 0.333333 0 0 0 0 0.454902 0 0 0 0.4 0"/>
<feBlend mode="normal" in2="BackgroundImageFix" result="effect1_dropShadow_13046_2488"/>
<feBlend mode="normal" in="SourceGraphic" in2="effect1_dropShadow_13046_2488" result="shape"/>
</filter>
<filter id="filter13_d_13046_2488" x="1207.81" y="4.75" width="44.375" height="50.4375" filterUnits="userSpaceOnUse" color-interpolation-filters="sRGB">
<feFlood flood-opacity="0" result="BackgroundImageFix"/>
<feColorMatrix in="SourceAlpha" type="matrix" values="0 0 0 0 0 0 0 0 0 0 0 0 0 0 0 0 0 0 127 0" result="hardAlpha"/>
<feOffset/>
<feGaussianBlur stdDeviation="5"/>
<feComposite in2="hardAlpha" operator="out"/>
<feColorMatrix type="matrix" values="0 0 0 0 0.0470588 0 0 0 0 0.913725 0 0 0 0 0.517647 0 0 0 0.4 0"/>
<feBlend mode="normal" in2="BackgroundImageFix" result="effect1_dropShadow_13046_2488"/>
<feBlend mode="normal" in="SourceGraphic" in2="effect1_dropShadow_13046_2488" result="shape"/>
</filter>
<filter id="filter14_d_13046_2488" x="1303.55" y="9.64551" width="51.6387" height="48.7087" filterUnits="userSpaceOnUse" color-interpolation-filters="sRGB">
<feFlood flood-opacity="0" result="BackgroundImageFix"/>
<feColorMatrix in="SourceAlpha" type="matrix" values="0 0 0 0 0 0 0 0 0 0 0 0 0 0 0 0 0 0 127 0" result="hardAlpha"/>
<feOffset dy="4"/>
<feGaussianBlur stdDeviation="5"/>
<feComposite in2="hardAlpha" operator="out"/>
<feColorMatrix type="matrix" values="0 0 0 0 1 0 0 0 0 0.698039 0 0 0 0 0.333333 0 0 0 0.4 0"/>
<feBlend mode="normal" in2="BackgroundImageFix" result="effect1_dropShadow_13046_2488"/>
<feBlend mode="normal" in="SourceGraphic" in2="effect1_dropShadow_13046_2488" result="shape"/>
</filter>
<filter id="filter15_d_13046_2488" x="1404.81" y="8.8125" width="50.375" height="50.375" filterUnits="userSpaceOnUse" color-interpolation-filters="sRGB">
<feFlood flood-opacity="0" result="BackgroundImageFix"/>
<feColorMatrix in="SourceAlpha" type="matrix" values="0 0 0 0 0 0 0 0 0 0 0 0 0 0 0 0 0 0 127 0" result="hardAlpha"/>
<feOffset dy="4"/>
<feGaussianBlur stdDeviation="5"/>
<feComposite in2="hardAlpha" operator="out"/>
<feColorMatrix type="matrix" values="0 0 0 0 0.333333 0 0 0 0 0.521569 0 0 0 0 1 0 0 0 0.4 0"/>
<feBlend mode="normal" in2="BackgroundImageFix" result="effect1_dropShadow_13046_2488"/>
<feBlend mode="normal" in="SourceGraphic" in2="effect1_dropShadow_13046_2488" result="shape"/>
</filter>
<filter id="filter16_d_13046_2488" x="1504.81" y="6.3125" width="50.375" height="47.375" filterUnits="userSpaceOnUse" color-interpolation-filters="sRGB">
<feFlood flood-opacity="0" result="BackgroundImageFix"/>
<feColorMatrix in="SourceAlpha" type="matrix" values="0 0 0 0 0 0 0 0 0 0 0 0 0 0 0 0 0 0 127 0" result="hardAlpha"/>
<feOffset/>
<feGaussianBlur stdDeviation="5"/>
<feComposite in2="hardAlpha" operator="out"/>
<feColorMatrix type="matrix" values="0 0 0 0 0.631373 0 0 0 0 0.341176 0 0 0 0 1 0 0 0 0.4 0"/>
<feBlend mode="normal" in2="BackgroundImageFix" result="effect1_dropShadow_13046_2488"/>
<feBlend mode="normal" in="SourceGraphic" in2="effect1_dropShadow_13046_2488" result="shape"/>
</filter>
<filter id="filter17_d_13046_2488" x="1607.06" y="8.8125" width="45.875" height="50.375" filterUnits="userSpaceOnUse" color-interpolation-filters="sRGB">
<feFlood flood-opacity="0" result="BackgroundImageFix"/>
<feColorMatrix in="SourceAlpha" type="matrix" values="0 0 0 0 0 0 0 0 0 0 0 0 0 0 0 0 0 0 127 0" result="hardAlpha"/>
<feOffset dy="4"/>
<feGaussianBlur stdDeviation="5"/>
<feComposite in2="hardAlpha" operator="out"/>
<feColorMatrix type="matrix" values="0 0 0 0 1 0 0 0 0 0.333333 0 0 0 0 0.733333 0 0 0 0.4 0"/>
<feBlend mode="normal" in2="BackgroundImageFix" result="effect1_dropShadow_13046_2488"/>
<feBlend mode="normal" in="SourceGraphic" in2="effect1_dropShadow_13046_2488" result="shape"/>
</filter>
<filter id="filter18_d_13046_2488" x="1623.56" y="8.89722" width="29.2554" height="29.0403" filterUnits="userSpaceOnUse" color-interpolation-filters="sRGB">
<feFlood flood-opacity="0" result="BackgroundImageFix"/>
<feColorMatrix in="SourceAlpha" type="matrix" values="0 0 0 0 0 0 0 0 0 0 0 0 0 0 0 0 0 0 127 0" result="hardAlpha"/>
<feOffset dy="4"/>
<feGaussianBlur stdDeviation="5"/>
<feComposite in2="hardAlpha" operator="out"/>
<feColorMatrix type="matrix" values="0 0 0 0 1 0 0 0 0 0.333333 0 0 0 0 0.733333 0 0 0 0.4 0"/>
<feBlend mode="normal" in2="BackgroundImageFix" result="effect1_dropShadow_13046_2488"/>
<feBlend mode="normal" in="SourceGraphic" in2="effect1_dropShadow_13046_2488" result="shape"/>
</filter>
<filter id="filter19_d_13046_2488" x="1704.75" y="8.75" width="50.5" height="50.5" filterUnits="userSpaceOnUse" color-interpolation-filters="sRGB">
<feFlood flood-opacity="0" result="BackgroundImageFix"/>
<feColorMatrix in="SourceAlpha" type="matrix" values="0 0 0 0 0 0 0 0 0 0 0 0 0 0 0 0 0 0 127 0" result="hardAlpha"/>
<feOffset dy="4"/>
<feGaussianBlur stdDeviation="5"/>
<feComposite in2="hardAlpha" operator="out"/>
<feColorMatrix type="matrix" values="0 0 0 0 1 0 0 0 0 0.333333 0 0 0 0 0.454902 0 0 0 0.4 0"/>
<feBlend mode="normal" in2="BackgroundImageFix" result="effect1_dropShadow_13046_2488"/>
<feBlend mode="normal" in="SourceGraphic" in2="effect1_dropShadow_13046_2488" result="shape"/>
</filter>
</defs>
</svg>
