<svg width="1760" height="60" viewBox="0 0 1760 60" fill="none" xmlns="http://www.w3.org/2000/svg">
<g clip-path="url(#clip0_231_424)">
<rect x="0.5" y="0.5" width="59" height="59" rx="9.5" stroke="#E6EAF4"/>
<path d="M15.75 19.5H44.25V40.5H15.75V19.5Z" stroke="#1E3050" stroke-width="2"/>
<path d="M15.75 21L30.0037 31.5L44.25 21" stroke="#1E3050" stroke-width="2"/>
<rect x="100.5" y="0.5" width="59" height="59" rx="9.5" stroke="#E6EAF4"/>
<rect x="144.25" y="44.25" width="23.25" height="23.25" transform="rotate(-180 144.25 44.25)" stroke="#1E3050" stroke-width="2"/>
<path d="M138.25 18L138.25 15.75L115.75 15.75L115.75 38.25L118 38.25" stroke="#1E3050" stroke-width="2" stroke-linecap="square"/>
<path d="M130 24L130.075 24.2797C130.817 27.0329 132.967 29.1834 135.72 29.9247L136 30L135.72 30.0753C132.967 30.8166 130.817 32.9671 130.075 35.7203L130 36L129.925 35.7203C129.183 32.9671 127.033 30.8166 124.28 30.0753L124 30L124.28 29.9247C127.033 29.1834 129.183 27.0329 129.925 24.2797L130 24Z" stroke="#1E3050" stroke-width="2"/>
<path d="M133 37.2887C134.028 38.2794 134.791 39.544 135.175 40.9703L135.25 41.25L135.325 40.9703C136.067 38.2171 138.217 36.0666 140.97 35.3253L141.25 35.25L140.97 35.1747C139.544 34.7906 138.279 34.0284 137.289 33" stroke="#1E3050" stroke-width="2"/>
<rect x="200.5" y="0.5" width="59" height="59" rx="9.5" stroke="#E6EAF4"/>
<path d="M215.75 19.5H244.25V44.25H215.75V19.5Z" stroke="#1E3050" stroke-width="2"/>
<path d="M224.75 32.25C224.75 32.6642 224.414 33 224 33C223.586 33 223.25 32.6642 223.25 32.25C223.25 31.8358 223.586 31.5 224 31.5C224.414 31.5 224.75 31.8358 224.75 32.25Z" stroke="#1E3050" stroke-width="2"/>
<path d="M230.75 32.25C230.75 32.6642 230.414 33 230 33C229.586 33 229.25 32.6642 229.25 32.25C229.25 31.8358 229.586 31.5 230 31.5C230.414 31.5 230.75 31.8358 230.75 32.25Z" stroke="#1E3050" stroke-width="2"/>
<path d="M224.75 38.25C224.75 38.6642 224.414 39 224 39C223.586 39 223.25 38.6642 223.25 38.25C223.25 37.8358 223.586 37.5 224 37.5C224.414 37.5 224.75 37.8358 224.75 38.25Z" stroke="#1E3050" stroke-width="2"/>
<path d="M230.75 38.25C230.75 38.6642 230.414 39 230 39C229.586 39 229.25 38.6642 229.25 38.25C229.25 37.8358 229.586 37.5 230 37.5C230.414 37.5 230.75 37.8358 230.75 38.25Z" stroke="#1E3050" stroke-width="2"/>
<path d="M236.75 32.25C236.75 32.6642 236.414 33 236 33C235.586 33 235.25 32.6642 235.25 32.25C235.25 31.8358 235.586 31.5 236 31.5C236.414 31.5 236.75 31.8358 236.75 32.25Z" stroke="#1E3050" stroke-width="2"/>
<path d="M215.75 25.5H244.25" stroke="#1E3050" stroke-width="2"/>
<path d="M237.5 19.5V15.75" stroke="#1E3050" stroke-width="2" stroke-linecap="square"/>
<path d="M222.5 19.5V15.75" stroke="#1E3050" stroke-width="2" stroke-linecap="square"/>
<rect x="300.5" y="0.5" width="59" height="59" rx="9.5" stroke="#E6EAF4"/>
<path d="M315.75 21.75H324L327 18.75H333L336 21.75H344.25V41.25H315.75V21.75Z" stroke="#1E3050" stroke-width="2"/>
<path d="M334.5 31.5C334.5 33.9853 332.485 36 330 36C327.515 36 325.5 33.9853 325.5 31.5C325.5 29.0147 327.515 27 330 27C332.485 27 334.5 29.0147 334.5 31.5Z" stroke="#1E3050" stroke-width="2"/>
<rect x="400.5" y="0.5" width="59" height="59" rx="9.5" stroke="#E6EAF4"/>
<path d="M415.75 20.25H439.75V44.25H415.75V20.25Z" stroke="#1E3050" stroke-width="2"/>
<path d="M433 34.5V25.5L425.5 27V37.5" stroke="#1E3050" stroke-width="2"/>
<path d="M425.5 37.5C425.5 38.3284 424.828 39 424 39C423.172 39 422.5 38.3284 422.5 37.5C422.5 36.6716 423.172 36 424 36C424.828 36 425.5 36.6716 425.5 37.5Z" stroke="#1E3050" stroke-width="2"/>
<path d="M433 34.5C433 35.3284 432.328 36 431.5 36C430.672 36 430 35.3284 430 34.5C430 33.6716 430.672 33 431.5 33C432.328 33 433 33.6716 433 34.5Z" stroke="#1E3050" stroke-width="2"/>
<path d="M420.25 15.75H444.25V39.75" stroke="#1E3050" stroke-width="2" stroke-linecap="square"/>
<rect x="500.5" y="0.5" width="59" height="59" rx="9.5" stroke="#E6EAF4"/>
<path d="M515.75 15.75H544.25V44.25H515.75V15.75Z" stroke="#1E3050" stroke-width="2"/>
<path d="M536 30L526.25 24V36L536 30Z" stroke="#1E3050" stroke-width="2"/>
<rect x="600.5" y="0.5" width="59" height="59" rx="9.5" stroke="#E6EAF4"/>
<path d="M640.5 26.2895L630 18L619.5 26.2895V42.75H627V33H633V42.75H640.5V26.2895Z" stroke="#1E3050" stroke-width="2" stroke-linecap="square"/>
<path d="M615.75 29.25L630 18L644.25 29.25" stroke="#1E3050" stroke-width="2" stroke-linecap="square"/>
<rect x="700.5" y="0.5" width="59" height="59" rx="9.5" stroke="#E6EAF4"/>
<path d="M739 24.75C739 28.0703 739.323 32.6813 741.4 35.45L743.5 38.25H716.5L718.6 35.45C720.677 32.6813 721 28.0703 721 24.75C721 19.7794 724.737 15.75 730 15.75C735.263 15.75 739 19.7794 739 24.75Z" stroke="#1E3050" stroke-width="2"/>
<path d="M730 44.25C733.314 44.25 736 41.5637 736 38.25H724C724 41.5637 726.686 44.25 730 44.25Z" stroke="#1E3050" stroke-width="2"/>
<rect x="800.5" y="0.5" width="59" height="59" rx="9.5" stroke="#E6EAF4"/>
<path d="M842.75 31.5C842.75 38.5416 837.042 44.25 830 44.25C822.958 44.25 817.25 38.5416 817.25 31.5C817.25 24.4584 822.958 18.75 830 18.75C837.042 18.75 842.75 24.4584 842.75 31.5Z" stroke="#1E3050" stroke-width="2" stroke-linecap="square"/>
<path d="M830 25.5V31.5H836" stroke="#1E3050" stroke-width="2" stroke-linecap="square"/>
<path d="M821.502 16.5C819.638 17.7244 818.036 19.3163 816.801 21.1729" stroke="#1E3050" stroke-width="2" stroke-linecap="square"/>
<path d="M839.506 16.5C841.37 17.7244 842.972 19.3163 844.207 21.1729" stroke="#1E3050" stroke-width="2" stroke-linecap="square"/>
<path d="M817.857 44.2498L821.294 40.8154" stroke="#1E3050" stroke-width="2" stroke-linecap="square"/>
<path d="M841.999 44.25L838.641 40.875" stroke="#1E3050" stroke-width="2" stroke-linecap="square"/>
<rect x="900.5" y="0.5" width="59" height="59" rx="9.5" stroke="#E6EAF4"/>
<path d="M915.75 18H923.667L927.75 21.75H944.25V41.25H915.75V18Z" stroke="#1E3050" stroke-width="2"/>
<path d="M915.75 26.25H944.25" stroke="#1E3050" stroke-width="2"/>
<rect x="1000.5" y="0.5" width="59" height="59" rx="9.5" stroke="#E6EAF4"/>
<path d="M1039.75 16.5H1020.25L1018.75 28.5H1041.25L1039.75 16.5Z" stroke="#1E3050" stroke-width="2"/>
<path d="M1015.75 28.5L1044.25 28.5" stroke="#1E3050" stroke-width="2" stroke-linecap="square"/>
<path d="M1042 38.25C1042 40.7353 1039.99 42.75 1037.5 42.75C1035.01 42.75 1033 40.7353 1033 38.25C1033 35.7647 1035.01 33.75 1037.5 33.75C1039.99 33.75 1042 35.7647 1042 38.25Z" stroke="#1E3050" stroke-width="2"/>
<path d="M1033.44 36.375C1032.39 35.8935 1031.23 35.625 1030 35.625C1028.77 35.625 1027.61 35.8935 1026.56 36.375" stroke="#1E3050" stroke-width="2"/>
<path d="M1027 38.25C1027 40.7353 1024.99 42.75 1022.5 42.75C1020.01 42.75 1018 40.7353 1018 38.25C1018 35.7647 1020.01 33.75 1022.5 33.75C1024.99 33.75 1027 35.7647 1027 38.25Z" stroke="#1E3050" stroke-width="2"/>
<rect x="1100.5" y="0.5" width="59" height="59" rx="9.5" stroke="#E6EAF4"/>
<path d="M1130 44.25L1130 39.75" stroke="#1E3050" stroke-width="2" stroke-linecap="square"/>
<path d="M1124 29.25V21.75C1124 18.4363 1126.69 15.75 1130 15.75C1133.31 15.75 1136 18.4363 1136 21.75V29.25C1136 32.5637 1133.31 35.25 1130 35.25C1126.69 35.25 1124 32.5637 1124 29.25Z" stroke="#1E3050" stroke-width="2"/>
<path d="M1121.38 35.25C1125.5 41.1491 1134.5 41.1491 1138.62 35.25" stroke="#1E3050" stroke-width="2" stroke-linecap="square"/>
<rect x="1200.5" y="0.5" width="59" height="59" rx="9.5" stroke="#E6EAF4"/>
<path d="M1225.18 28.5H1218.75V44.25H1241.25V28.5H1234.82" stroke="#1E3050" stroke-width="2" stroke-linecap="square"/>
<path d="M1230 33V15.75" stroke="#1E3050" stroke-width="2"/>
<path d="M1224 21.75L1230 15.75L1236 21.75" stroke="#1E3050" stroke-width="2" stroke-linecap="square"/>
<rect x="1300.5" y="0.5" width="59" height="59" rx="9.5" stroke="#E6EAF4"/>
<path d="M1326.25 18.7502L1344.25 15.75V44.25L1326.25 41.25V18.7502Z" stroke="#1E3050" stroke-width="2" stroke-linecap="square"/>
<path d="M1330.75 21.75V38.25H1334.5V21.75H1330.75Z" stroke="#1E3050" stroke-width="2" stroke-linecap="square"/>
<path d="M1315.75 25.5L1320.25 30L1315.75 34.5V25.5Z" stroke="#1E3050" stroke-width="2" stroke-linecap="square"/>
<rect x="1400.5" y="0.5" width="59" height="59" rx="9.5" stroke="#E6EAF4"/>
<path d="M1420.25 15.75H1439.75L1444.25 37.5V44.25H1415.75V37.5L1420.25 15.75Z" stroke="#1E3050" stroke-width="2" stroke-linecap="square"/>
<path d="M1415.75 37.5H1430H1444.25" stroke="#1E3050" stroke-width="2" stroke-linecap="square"/>
<path d="M1424.75 27L1430 32.25L1435.25 27" stroke="#1E3050" stroke-width="2" stroke-linecap="square"/>
<path d="M1430 32.25L1430 21.75" stroke="#1E3050" stroke-width="2"/>
<rect x="1500.5" y="0.5" width="59" height="59" rx="9.5" stroke="#E6EAF4"/>
<path d="M1515.75 17.25H1544.25V36.75H1515.75V17.25Z" stroke="#1E3050" stroke-width="2"/>
<path d="M1515.75 33.75H1530H1544.25" stroke="#1E3050" stroke-width="2"/>
<path d="M1535.25 42.75H1524.75" stroke="#1E3050" stroke-width="2" stroke-linecap="square"/>
<path d="M1528.5 36.75C1528.52 39.6366 1528.16 40.9137 1527 42.75H1533C1531.84 40.9137 1531.48 39.6366 1531.5 36.75H1528.5Z" stroke="#1E3050" stroke-width="2"/>
<rect x="1600.5" y="0.5" width="59" height="59" rx="9.5" stroke="#E6EAF4"/>
<path d="M1618 44.25H1642L1641.96 22.5L1635.21 15.75H1618V44.25Z" stroke="#1E3050" stroke-width="2"/>
<path d="M1641.96 22.5H1635.21V15.75" stroke="#1E3050" stroke-width="2"/>
<path d="M1630 27.75V36.75" stroke="#1E3050" stroke-width="2" stroke-linecap="square"/>
<path d="M1625.5 32.25H1634.5" stroke="#1E3050" stroke-width="2" stroke-linecap="square"/>
<rect x="1700.5" y="0.5" width="59" height="59" rx="9.5" stroke="#E6EAF4"/>
<path d="M1730 15.75H1715.75V44.25H1744.25V30" stroke="#1E3050" stroke-width="2" stroke-linecap="square"/>
<path d="M1744.25 21L1739 15.75L1723.25 31.5L1722.5 37.5L1728.5 36.75L1744.25 21Z" stroke="#1E3050" stroke-width="2"/>
<path d="M1735.25 19.5L1740.5 24.75" stroke="#1E3050" stroke-width="2"/>
</g>
<defs>
<clipPath id="clip0_231_424">
<rect width="1760" height="60" fill="white"/>
</clipPath>
</defs>
</svg>
