<svg width="992" height="209" viewBox="0 0 992 209" fill="none" xmlns="http://www.w3.org/2000/svg">
<path opacity="0.2" fill-rule="evenodd" clip-rule="evenodd" d="M-0.00012207 176.044L28.4586 134.138L29.3136 134.993C43.5529 149.232 65.5074 161.1 92.8065 161.1C101.413 161.1 108.272 159.613 112.942 156.991C117.574 154.389 120.006 150.712 120.006 146.2C120.006 143.338 118.505 141.066 115.589 139.106C112.639 137.124 108.354 135.546 103.074 134.12C98.0509 132.763 92.2224 131.567 85.9332 130.276L85.0198 130.088C78.3943 128.728 71.3003 127.253 64.2013 125.379C50.0193 121.636 35.7016 116.273 24.9229 106.919C14.0977 97.525 6.90649 84.1605 6.90649 64.6C6.90649 30.3206 35.6906 0 87.4065 0C119.71 0 147.852 9.66407 169.358 28.1415L170.058 28.743L140.684 69.0545L139.864 68.366C123.26 54.4306 101.593 47.6 82.0065 47.6C74.5895 47.6 69.4235 48.8664 66.1382 51.0682C62.9214 53.2242 61.4065 56.3442 61.4065 60.4C61.4065 63.0071 62.8736 65.1363 65.8076 67.0252C68.7641 68.9287 73.0569 70.4789 78.3403 71.9131C83.1937 73.2305 88.7971 74.4285 94.8397 75.7205C95.3571 75.8311 95.8778 75.9425 96.4014 76.0546C103.028 77.4737 110.122 79.021 117.22 80.9604C131.401 84.8346 145.712 90.3009 156.486 99.5507C167.306 108.84 174.507 121.902 174.507 140.8C174.507 161.165 166.973 178.186 152.582 190.095C138.213 201.987 117.111 208.7 90.1065 208.7C49.37 208.7 20.9197 195.715 0.621466 176.629L-0.00012207 176.044ZM139.735 66.9606C123.04 53.2914 101.505 46.6 82.0065 46.6C67.0065 46.6 60.4065 51.7 60.4065 60.4C60.4065 69.3811 75.4814 72.6042 94.6239 76.697C127.914 83.8146 173.507 93.5625 173.507 140.8C173.507 181 143.806 207.7 90.1065 207.7C49.6065 207.7 21.4065 194.8 1.30649 175.9L28.6065 135.7C28.8455 135.939 29.0866 136.177 29.3298 136.415C43.7448 150.495 65.6645 162.1 92.8065 162.1C110.206 162.1 121.006 156.1 121.006 146.2C121.006 136.454 105.594 133.291 86.1486 129.299C52.9172 122.478 7.90649 113.239 7.90649 64.6C7.90649 31 36.1065 1 87.4065 1C119.506 1 147.406 10.6 168.707 28.9L140.507 67.6C140.251 67.3852 139.993 67.172 139.735 66.9606ZM319.96 205.1H266.36V50H210.26V3H375.76V50H319.96V205.1ZM267.36 49V204.1H318.96V49H374.76V4H211.26V49H267.36ZM536.52 205.1H482.92V123.691L406.199 3H466.791L509.714 75.8205L552.044 3H612.937L536.52 123.69V205.1ZM552.62 4H611.12L535.52 123.4V204.1H483.92V123.4L408.02 4H466.22L509.72 77.8L552.62 4ZM788.002 205.1H654.002V3H707.602V158.1H788.002V205.1ZM706.602 159.1V4H655.002V204.1H787.002V159.1H706.602ZM991.219 205.1H842.519V3H991.219V50H896.119V79.2H989.119V126.2H896.119V158.1H991.219V205.1ZM895.119 159.1V125.2H988.119V80.2H895.119V49H990.219V4H843.519V204.1H990.219V159.1H895.119Z" fill="#676F7E"/>
</svg>
