<svg width="1600" height="203" viewBox="0 0 1600 203" fill="none" xmlns="http://www.w3.org/2000/svg">
<path d="M1998.75 202L1723.08 167.237C1642.84 157.119 1561.65 157.075 1481.41 167.106L1322.56 186.961C1242.67 196.948 1161.83 196.948 1081.94 186.961L922.564 167.039C842.665 157.052 761.835 157.052 681.936 167.039L522.564 186.961C442.665 196.948 361.835 196.948 281.936 186.961L122.414 167.02C42.6143 157.046 -38.1159 157.033 -117.918 166.984L-398.75 202" stroke="#F0F3F5"/>
<path d="M1998.75 194L1723.08 159.237C1642.84 149.119 1561.65 149.075 1481.41 159.106L1322.56 178.961C1242.67 188.948 1161.83 188.948 1081.94 178.961L922.564 159.039C842.665 149.052 761.835 149.052 681.936 159.039L522.564 178.961C442.665 188.948 361.835 188.948 281.936 178.961L122.414 159.02C42.6143 149.046 -38.1159 149.033 -117.918 158.984L-398.75 194" stroke="#F0F3F5"/>
<path d="M1998.75 186L1723.08 151.237C1642.84 141.119 1561.65 141.075 1481.41 151.106L1322.56 170.961C1242.67 180.948 1161.83 180.948 1081.94 170.961L922.564 151.039C842.665 141.052 761.835 141.052 681.936 151.039L522.564 170.961C442.665 180.948 361.835 180.948 281.936 170.961L122.414 151.02C42.6143 141.046 -38.1159 141.033 -117.918 150.984L-398.75 186" stroke="#F0F3F5"/>
<path d="M1998.75 178L1723.08 143.237C1642.84 133.119 1561.65 133.075 1481.41 143.106L1322.56 162.961C1242.67 172.948 1161.83 172.948 1081.94 162.961L922.564 143.039C842.665 133.052 761.835 133.052 681.936 143.039L522.564 162.961C442.665 172.948 361.835 172.948 281.936 162.961L122.414 143.02C42.6143 133.046 -38.1159 133.033 -117.918 142.984L-398.75 178" stroke="#F0F3F5"/>
<path d="M1998.75 170L1723.08 135.237C1642.84 125.119 1561.65 125.075 1481.41 135.106L1322.56 154.961C1242.67 164.948 1161.83 164.948 1081.94 154.961L922.564 135.039C842.665 125.052 761.835 125.052 681.936 135.039L522.564 154.961C442.665 164.948 361.835 164.948 281.936 154.961L122.414 135.02C42.6143 125.046 -38.1159 125.033 -117.918 134.984L-398.75 170" stroke="#F0F3F5"/>
<path d="M1998.75 162L1723.08 127.237C1642.84 117.119 1561.65 117.075 1481.41 127.106L1322.56 146.961C1242.67 156.948 1161.83 156.948 1081.94 146.961L922.564 127.039C842.665 117.052 761.835 117.052 681.936 127.039L522.564 146.961C442.665 156.948 361.835 156.948 281.936 146.961L122.414 127.02C42.6143 117.046 -38.1159 117.033 -117.918 126.984L-398.75 162" stroke="#F0F3F5"/>
<path d="M1998.75 154L1723.08 119.237C1642.84 109.119 1561.65 109.075 1481.41 119.106L1322.56 138.961C1242.67 148.948 1161.83 148.948 1081.94 138.961L922.564 119.039C842.665 109.052 761.835 109.052 681.936 119.039L522.564 138.961C442.665 148.948 361.835 148.948 281.936 138.961L122.414 119.02C42.6143 109.046 -38.1159 109.033 -117.918 118.984L-398.75 154" stroke="#F0F3F5"/>
<path d="M1998.75 146L1723.08 111.237C1642.84 101.119 1561.65 101.075 1481.41 111.106L1322.56 130.961C1242.67 140.948 1161.83 140.948 1081.94 130.961L922.564 111.039C842.665 101.052 761.835 101.052 681.936 111.039L522.564 130.961C442.665 140.948 361.835 140.948 281.936 130.961L122.414 111.02C42.6143 101.046 -38.1159 101.033 -117.918 110.984L-398.75 146" stroke="#F0F3F5"/>
<path d="M1998.75 138L1723.08 103.237C1642.84 93.1187 1561.65 93.0746 1481.41 103.106L1322.56 122.961C1242.67 132.948 1161.83 132.948 1081.94 122.961L922.564 103.039C842.665 93.0519 761.835 93.0519 681.936 103.039L522.564 122.961C442.665 132.948 361.835 132.948 281.936 122.961L122.414 103.02C42.6143 93.0455 -38.1159 93.0331 -117.918 102.984L-398.75 138" stroke="#F0F3F5"/>
<path d="M1998.75 130L1723.08 95.2368C1642.84 85.1187 1561.65 85.0746 1481.41 95.1056L1322.56 114.961C1242.67 124.948 1161.83 124.948 1081.94 114.961L922.564 95.0392C842.665 85.0519 761.835 85.0519 681.936 95.0392L522.564 114.961C442.665 124.948 361.835 124.948 281.936 114.961L122.414 95.0205C42.6143 85.0455 -38.1159 85.0331 -117.918 94.9836L-398.75 130" stroke="#F0F3F5"/>
<path d="M1998.75 122L1723.08 87.2368C1642.84 77.1187 1561.65 77.0746 1481.41 87.1056L1322.56 106.961C1242.67 116.948 1161.83 116.948 1081.94 106.961L922.564 87.0392C842.665 77.0519 761.835 77.0519 681.936 87.0392L522.564 106.961C442.665 116.948 361.835 116.948 281.936 106.961L122.414 87.0205C42.6143 77.0455 -38.1159 77.0331 -117.918 86.9836L-398.75 122" stroke="#F0F3F5"/>
<path d="M1998.75 114L1723.08 79.2368C1642.84 69.1187 1561.65 69.0746 1481.41 79.1056L1322.56 98.9608C1242.67 108.948 1161.83 108.948 1081.94 98.9608L922.564 79.0392C842.665 69.0519 761.835 69.0519 681.936 79.0392L522.564 98.9608C442.665 108.948 361.835 108.948 281.936 98.9608L122.414 79.0205C42.6143 69.0455 -38.1159 69.0331 -117.918 78.9836L-398.75 114" stroke="#F0F3F5"/>
<path d="M1998.75 106L1723.08 71.2368C1642.84 61.1187 1561.65 61.0746 1481.41 71.1056L1322.56 90.9608C1242.67 100.948 1161.83 100.948 1081.94 90.9608L922.564 71.0392C842.665 61.0519 761.835 61.0519 681.936 71.0392L522.564 90.9608C442.665 100.948 361.835 100.948 281.936 90.9608L122.414 71.0205C42.6143 61.0455 -38.1159 61.0331 -117.918 70.9836L-398.75 106" stroke="#F0F3F5"/>
<path d="M1998.75 98L1723.08 63.2368C1642.84 53.1187 1561.65 53.0746 1481.41 63.1056L1322.56 82.9608C1242.67 92.9481 1161.83 92.9481 1081.94 82.9608L922.564 63.0392C842.665 53.0519 761.835 53.0519 681.936 63.0392L522.564 82.9608C442.665 92.9481 361.835 92.9481 281.936 82.9608L122.414 63.0205C42.6143 53.0455 -38.1159 53.0331 -117.918 62.9836L-398.75 98" stroke="#F0F3F5"/>
<path d="M1998.75 90L1723.08 55.2368C1642.84 45.1187 1561.65 45.0746 1481.41 55.1056L1322.56 74.9608C1242.67 84.9481 1161.83 84.9481 1081.94 74.9608L922.564 55.0392C842.665 45.0519 761.835 45.0519 681.936 55.0392L522.564 74.9608C442.665 84.9481 361.835 84.9481 281.936 74.9608L122.414 55.0205C42.6143 45.0455 -38.1159 45.0331 -117.918 54.9836L-398.75 90" stroke="#F0F3F5"/>
<path d="M1998.75 82L1723.08 47.2368C1642.84 37.1187 1561.65 37.0746 1481.41 47.1056L1322.56 66.9608C1242.67 76.9481 1161.83 76.9481 1081.94 66.9608L922.564 47.0392C842.665 37.0519 761.835 37.0519 681.936 47.0392L522.564 66.9608C442.665 76.9481 361.835 76.9481 281.936 66.9608L122.414 47.0205C42.6143 37.0455 -38.1159 37.0331 -117.918 46.9836L-398.75 82" stroke="#F0F3F5"/>
<path d="M1998.75 74L1723.08 39.2368C1642.84 29.1187 1561.65 29.0746 1481.41 39.1056L1322.56 58.9608C1242.67 68.9481 1161.83 68.9481 1081.94 58.9608L922.564 39.0392C842.665 29.0519 761.835 29.0519 681.936 39.0392L522.564 58.9608C442.665 68.9481 361.835 68.9481 281.936 58.9608L122.414 39.0205C42.6143 29.0455 -38.1159 29.0331 -117.918 38.9836L-398.75 74" stroke="#F0F3F5"/>
<path d="M1998.75 66L1723.08 31.2368C1642.84 21.1187 1561.65 21.0746 1481.41 31.1056L1322.56 50.9608C1242.67 60.9481 1161.83 60.9481 1081.94 50.9608L922.564 31.0392C842.665 21.0519 761.835 21.0519 681.936 31.0392L522.564 50.9608C442.665 60.9481 361.835 60.9481 281.936 50.9608L122.414 31.0205C42.6143 21.0455 -38.1159 21.0331 -117.918 30.9836L-398.75 66" stroke="#F0F3F5"/>
<path d="M1998.75 58L1723.08 23.2368C1642.84 13.1187 1561.65 13.0746 1481.41 23.1056L1322.56 42.9608C1242.67 52.9481 1161.83 52.9481 1081.94 42.9608L922.564 23.0392C842.665 13.0519 761.835 13.0519 681.936 23.0392L522.564 42.9608C442.665 52.9481 361.835 52.9481 281.936 42.9608L122.414 23.0205C42.6143 13.0455 -38.1159 13.0331 -117.918 22.9836L-398.75 58" stroke="#F0F3F5"/>
<path d="M1998.75 50L1723.08 15.2368C1642.84 5.11867 1561.65 5.07456 1481.41 15.1056L1322.56 34.9608C1242.67 44.9481 1161.83 44.9481 1081.94 34.9608L922.564 15.0392C842.665 5.05193 761.835 5.05191 681.936 15.0392L522.564 34.9608C442.665 44.9481 361.835 44.9481 281.936 34.9608L122.414 15.0205C42.6143 5.04554 -38.1159 5.03315 -117.918 14.9836L-398.75 50" stroke="#F0F3F5"/>
</svg>
