<svg width="426" height="66" viewBox="0 0 426 66" fill="none" xmlns="http://www.w3.org/2000/svg">
<path d="M424 65C424 65.5523 424.448 66 425 66C425.552 66 426 65.5523 426 65H424ZM2 1C2 0.447715 1.55228 0 1 0C0.447715 0 0 0.447715 0 1H2ZM0.137599 3.8424C0.191096 4.39209 0.680073 4.79433 1.22976 4.74084C1.77945 4.68734 2.18169 4.19837 2.12819 3.64868L0.137599 3.8424ZM3.15581 8.84077C2.99567 8.31221 2.43737 8.01355 1.90882 8.17369C1.38026 8.33382 1.08159 8.89212 1.24173 9.42068L3.15581 8.84077ZM3.41971 14.6736C3.68048 15.1605 4.28654 15.3437 4.77339 15.083C5.26023 14.8222 5.44351 14.2161 5.18274 13.7293L3.41971 14.6736ZM8.12753 18.1285C7.77693 17.7017 7.14678 17.64 6.72005 17.9906C6.29333 18.3412 6.23162 18.9714 6.58222 19.3981L8.12753 18.1285ZM10.6019 23.4178C11.0286 23.7684 11.6588 23.7067 12.0094 23.2799C12.36 22.8532 12.2983 22.2231 11.8715 21.8725L10.6019 23.4178ZM16.2707 24.8173C15.7839 24.5565 15.1778 24.7398 14.917 25.2266C14.6563 25.7135 14.8395 26.3195 15.3264 26.5803L16.2707 24.8173ZM20.5793 28.7583C21.1079 28.9184 21.6662 28.6197 21.8263 28.0912C21.9865 27.5626 21.6878 27.0043 21.1592 26.8442L20.5793 28.7583ZM26.3513 27.8718C25.8016 27.8183 25.3127 28.2206 25.2592 28.7702C25.2057 29.3199 25.6079 29.8089 26.1576 29.8624L26.3513 27.8718ZM32 30C32.5523 30 33 29.5523 33 29C33 28.4477 32.5523 28 32 28V30ZM38 28C37.4477 28 37 28.4477 37 29C37 29.5523 37.4477 30 38 30V28ZM44 30C44.5523 30 45 29.5523 45 29C45 28.4477 44.5523 28 44 28V30ZM50 28C49.4477 28 49 28.4477 49 29C49 29.5523 49.4477 30 50 30V28ZM56 30C56.5523 30 57 29.5523 57 29C57 28.4477 56.5523 28 56 28V30ZM62 28C61.4477 28 61 28.4477 61 29C61 29.5523 61.4477 30 62 30V28ZM68 30C68.5523 30 69 29.5523 69 29C69 28.4477 68.5523 28 68 28V30ZM74 28C73.4477 28 73 28.4477 73 29C73 29.5523 73.4477 30 74 30V28ZM80 30C80.5523 30 81 29.5523 81 29C81 28.4477 80.5523 28 80 28V30ZM86 28C85.4477 28 85 28.4477 85 29C85 29.5523 85.4477 30 86 30V28ZM92 30C92.5523 30 93 29.5523 93 29C93 28.4477 92.5523 28 92 28V30ZM98 28C97.4477 28 97 28.4477 97 29C97 29.5523 97.4477 30 98 30V28ZM104 30C104.552 30 105 29.5523 105 29C105 28.4477 104.552 28 104 28V30ZM110 28C109.448 28 109 28.4477 109 29C109 29.5523 109.448 30 110 30V28ZM116 30C116.552 30 117 29.5523 117 29C117 28.4477 116.552 28 116 28V30ZM122 28C121.448 28 121 28.4477 121 29C121 29.5523 121.448 30 122 30V28ZM128 30C128.552 30 129 29.5523 129 29C129 28.4477 128.552 28 128 28V30ZM134 28C133.448 28 133 28.4477 133 29C133 29.5523 133.448 30 134 30V28ZM140 30C140.552 30 141 29.5523 141 29C141 28.4477 140.552 28 140 28V30ZM146 28C145.448 28 145 28.4477 145 29C145 29.5523 145.448 30 146 30V28ZM152 30C152.552 30 153 29.5523 153 29C153 28.4477 152.552 28 152 28V30ZM158 28C157.448 28 157 28.4477 157 29C157 29.5523 157.448 30 158 30V28ZM164 30C164.552 30 165 29.5523 165 29C165 28.4477 164.552 28 164 28V30ZM170 28C169.448 28 169 28.4477 169 29C169 29.5523 169.448 30 170 30V28ZM176 30C176.552 30 177 29.5523 177 29C177 28.4477 176.552 28 176 28V30ZM182 28C181.448 28 181 28.4477 181 29C181 29.5523 181.448 30 182 30V28ZM188 30C188.552 30 189 29.5523 189 29C189 28.4477 188.552 28 188 28V30ZM194 28C193.448 28 193 28.4477 193 29C193 29.5523 193.448 30 194 30V28ZM200 30C200.552 30 201 29.5523 201 29C201 28.4477 200.552 28 200 28V30ZM206 28C205.448 28 205 28.4477 205 29C205 29.5523 205.448 30 206 30V28ZM212 30C212.552 30 213 29.5523 213 29C213 28.4477 212.552 28 212 28V30ZM218 28C217.448 28 217 28.4477 217 29C217 29.5523 217.448 30 218 30V28ZM224 30C224.552 30 225 29.5523 225 29C225 28.4477 224.552 28 224 28V30ZM230 28C229.448 28 229 28.4477 229 29C229 29.5523 229.448 30 230 30V28ZM236 30C236.552 30 237 29.5523 237 29C237 28.4477 236.552 28 236 28V30ZM242 28C241.448 28 241 28.4477 241 29C241 29.5523 241.448 30 242 30V28ZM248 30C248.552 30 249 29.5523 249 29C249 28.4477 248.552 28 248 28V30ZM254 28C253.448 28 253 28.4477 253 29C253 29.5523 253.448 30 254 30V28ZM260 30C260.552 30 261 29.5523 261 29C261 28.4477 260.552 28 260 28V30ZM266 28C265.448 28 265 28.4477 265 29C265 29.5523 265.448 30 266 30V28ZM272 30C272.552 30 273 29.5523 273 29C273 28.4477 272.552 28 272 28V30ZM278 28C277.448 28 277 28.4477 277 29C277 29.5523 277.448 30 278 30V28ZM284 30C284.552 30 285 29.5523 285 29C285 28.4477 284.552 28 284 28V30ZM290 28C289.448 28 289 28.4477 289 29C289 29.5523 289.448 30 290 30V28ZM296 30C296.552 30 297 29.5523 297 29C297 28.4477 296.552 28 296 28V30ZM302 28C301.448 28 301 28.4477 301 29C301 29.5523 301.448 30 302 30V28ZM308 30C308.552 30 309 29.5523 309 29C309 28.4477 308.552 28 308 28V30ZM314 28C313.448 28 313 28.4477 313 29C313 29.5523 313.448 30 314 30V28ZM320 30C320.552 30 321 29.5523 321 29C321 28.4477 320.552 28 320 28V30ZM326 28C325.448 28 325 28.4477 325 29C325 29.5523 325.448 30 326 30V28ZM332 30C332.552 30 333 29.5523 333 29C333 28.4477 332.552 28 332 28V30ZM338 28C337.448 28 337 28.4477 337 29C337 29.5523 337.448 30 338 30V28ZM344 30C344.552 30 345 29.5523 345 29C345 28.4477 344.552 28 344 28V30ZM350 28C349.448 28 349 28.4477 349 29C349 29.5523 349.448 30 350 30V28ZM356 30C356.552 30 357 29.5523 357 29C357 28.4477 356.552 28 356 28V30ZM362 28C361.448 28 361 28.4477 361 29C361 29.5523 361.448 30 362 30V28ZM368 30C368.552 30 369 29.5523 369 29C369 28.4477 368.552 28 368 28V30ZM374 28C373.448 28 373 28.4477 373 29C373 29.5523 373.448 30 374 30V28ZM380 30C380.552 30 381 29.5523 381 29C381 28.4477 380.552 28 380 28V30ZM386 28C385.448 28 385 28.4477 385 29C385 29.5523 385.448 30 386 30V28ZM391.75 30.1064C392.3 30.1492 392.782 29.7375 392.824 29.1868C392.867 28.6362 392.455 28.1552 391.905 28.1124L391.75 30.1064ZM397.64 29.0145C397.103 28.886 396.564 29.2173 396.435 29.7544C396.307 30.2915 396.638 30.8311 397.175 30.9596L397.64 29.0145ZM402.397 32.6554C402.907 32.867 403.493 32.6249 403.704 32.1148C403.916 31.6046 403.674 31.0195 403.163 30.808L402.397 32.6554ZM408.335 33.4482C407.865 33.1592 407.249 33.3064 406.96 33.777C406.671 34.2477 406.818 34.8635 407.289 35.1525L408.335 33.4482ZM411.731 38.3848C412.15 38.7437 412.782 38.6943 413.141 38.2745C413.499 37.8547 413.45 37.2235 413.03 36.8646L411.731 38.3848ZM417.135 40.9698C416.776 40.55 416.145 40.5006 415.725 40.8595C415.306 41.2184 415.256 41.8496 415.615 42.2694L417.135 40.9698ZM418.848 46.7112C419.137 47.1818 419.752 47.329 420.223 47.04C420.694 46.751 420.841 46.1352 420.552 45.6646L418.848 46.7112ZM423.192 50.8366C422.98 50.3264 422.395 50.0844 421.885 50.2959C421.375 50.5075 421.133 51.0925 421.345 51.6027L423.192 50.8366ZM423.04 56.825C423.169 57.3621 423.708 57.6934 424.246 57.5649C424.783 57.4364 425.114 56.8968 424.985 56.3596L423.04 56.825ZM425.888 62.0952C425.845 61.5446 425.364 61.1329 424.813 61.1757C424.263 61.2185 423.851 61.6995 423.894 62.2501L425.888 62.0952ZM0 1C0 1.95877 0.0465617 2.90697 0.137599 3.8424L2.12819 3.64868C2.04341 2.77752 2 1.89398 2 1H0ZM1.24173 9.42068C1.79757 11.2553 2.5302 13.0129 3.41971 14.6736L5.18274 13.7293C4.35475 12.1834 3.67299 10.5478 3.15581 8.84077L1.24173 9.42068ZM6.58222 19.3981C7.78779 20.8654 9.13459 22.2122 10.6019 23.4178L11.8715 21.8725C10.5049 20.7496 9.25041 19.4951 8.12753 18.1285L6.58222 19.3981ZM15.3264 26.5803C16.9871 27.4698 18.7447 28.2024 20.5793 28.7583L21.1592 26.8442C19.4522 26.327 17.8166 25.6452 16.2707 24.8173L15.3264 26.5803ZM26.1576 29.8624C27.093 29.9534 28.0412 30 29 30V28C28.106 28 27.2225 27.9566 26.3513 27.8718L26.1576 29.8624ZM29 30H32V28H29V30ZM38 30H44V28H38V30ZM50 30H56V28H50V30ZM62 30H68V28H62V30ZM74 30H80V28H74V30ZM86 30H92V28H86V30ZM98 30H104V28H98V30ZM110 30H116V28H110V30ZM122 30H128V28H122V30ZM134 30H140V28H134V30ZM146 30H152V28H146V30ZM158 30H164V28H158V30ZM170 30H176V28H170V30ZM182 30H188V28H182V30ZM194 30H200V28H194V30ZM206 30H212V28H206V30ZM218 30H224V28H218V30ZM230 30H236V28H230V30ZM242 30H248V28H242V30ZM254 30H260V28H254V30ZM266 30H272V28H266V30ZM278 30H284V28H278V30ZM290 30H296V28H290V30ZM302 30H308V28H302V30ZM314 30H320V28H314V30ZM326 30H332V28H326V30ZM338 30H344V28H338V30ZM350 30H356V28H350V30ZM362 30H368V28H362V30ZM374 30H380V28H374V30ZM386 30H389V28H386V30ZM389 30C389.926 30 390.843 30.0359 391.75 30.1064L391.905 28.1124C390.946 28.0379 389.977 28 389 28V30ZM397.175 30.9596C398.974 31.39 400.718 31.9592 402.397 32.6554L403.163 30.808C401.388 30.0717 399.543 29.4697 397.64 29.0145L397.175 30.9596ZM407.289 35.1525C408.855 36.1143 410.34 37.196 411.731 38.3848L413.03 36.8646C411.561 35.6082 409.991 34.4649 408.335 33.4482L407.289 35.1525ZM415.615 42.2694C416.804 43.6601 417.886 45.1449 418.848 46.7112L420.552 45.6646C419.535 44.0089 418.392 42.4395 417.135 40.9698L415.615 42.2694ZM421.345 51.6027C422.041 53.2816 422.61 55.0263 423.04 56.825L424.985 56.3596C424.53 54.4573 423.928 52.6121 423.192 50.8366L421.345 51.6027ZM423.894 62.2501C423.964 63.1573 424 64.0744 424 65H426C426 64.0226 425.962 63.0539 425.888 62.0952L423.894 62.2501Z" fill="black" fill-opacity="0.5"/>
</svg>
