<svg width="142" height="108" viewBox="0 0 142 108" fill="none" xmlns="http://www.w3.org/2000/svg" >
<style>
   .draw {
      stroke-dasharray: 1000;
      stroke-dashoffset: 1000;
      animation: draw 10s linear forwards; /* 5s animation duration */
    }

    @keyframes draw {
      to {
        stroke-dashoffset: 0;
      }
    }
  </style>
<path class="draw" d="M3.514 7.524C3.066 7.524 2.74867 7.47733 2.562 7.384C2.37533 7.29067 2.26333 7.17867 2.226 7.048C2.18867 6.91733 2.17 6.80533 2.17 6.712C2.17 6.70267 2.17 6.698 2.17 6.698C2.17 6.49267 2.26333 6.29667 2.45 6.11C2.63667 5.914 2.898 5.77867 3.234 5.704C3.514 5.648 3.84533 5.592 4.228 5.536C4.62 5.47067 5.03067 5.41467 5.46 5.368C5.89867 5.312 6.31867 5.27 6.72 5.242C7.12133 5.214 7.476 5.2 7.784 5.2C8.19467 5.2 8.512 5.26067 8.736 5.382C8.96 5.494 9.114 5.62467 9.198 5.774C9.29133 5.92333 9.338 6.04933 9.338 6.152C9.338 6.24533 9.31467 6.33867 9.268 6.432C9.22133 6.52533 9.10467 6.61867 8.918 6.712C8.74067 6.80533 8.456 6.894 8.064 6.978C7.672 7.062 7.13067 7.14133 6.44 7.216C6.37467 7.22533 6.30467 7.23467 6.23 7.244C6.16467 7.64533 6.08533 8.126 5.992 8.686C5.89867 9.23667 5.796 9.81533 5.684 10.422C5.58133 11.0193 5.47867 11.5933 5.376 12.144C5.28267 12.6853 5.19867 13.1473 5.124 13.53C5.50667 13.4927 5.84267 13.4647 6.132 13.446C6.43067 13.4273 6.63133 13.418 6.734 13.418C7.06067 13.418 7.28467 13.488 7.406 13.628C7.52733 13.7587 7.588 13.9313 7.588 14.146C7.588 14.23 7.43867 14.3607 7.14 14.538C6.84133 14.7153 6.426 14.9067 5.894 15.112C5.37133 15.3173 4.76933 15.4993 4.088 15.658C3.64 15.7607 3.19667 15.84 2.758 15.896C2.31933 15.952 2.002 15.98 1.806 15.98C1.42333 15.98 1.176 15.91 1.064 15.77C0.961333 15.63 0.91 15.4527 0.91 15.238C0.91 15.0513 0.966 14.86 1.078 14.664C1.19933 14.468 1.36733 14.328 1.582 14.244C1.806 14.16 2.05333 14.0807 2.324 14.006C2.59467 13.9313 2.87467 13.866 3.164 13.81C3.18267 13.5673 3.22 13.2453 3.276 12.844C3.332 12.4427 3.39267 12.004 3.458 11.528C3.53267 11.0427 3.60733 10.5527 3.682 10.058C3.766 9.554 3.84533 9.08267 3.92 8.644C4.004 8.196 4.074 7.80867 4.13 7.482C3.85933 7.51 3.654 7.524 3.514 7.524ZM19.8272 7.944C19.8272 8.056 19.7898 8.154 19.7152 8.238C19.6405 8.322 19.5472 8.38733 19.4352 8.434C19.2765 8.49933 19.0012 8.58333 18.6092 8.686C18.2172 8.78867 17.7412 8.90533 17.1812 9.036C16.6305 9.16667 16.0378 9.302 15.4032 9.442C14.7685 9.57267 14.1338 9.69867 13.4992 9.82C13.2565 10.716 13.0092 11.64 12.7572 12.592C12.5052 13.5347 12.2532 14.4633 12.0012 15.378C11.9078 15.7047 11.7958 15.952 11.6652 16.12C11.5345 16.2973 11.3105 16.386 10.9932 16.386C10.6478 16.386 10.4145 16.274 10.2932 16.05C10.1812 15.8353 10.1672 15.5413 10.2512 15.168C10.4938 14.1507 10.7178 13.2033 10.9232 12.326C11.1378 11.4487 11.3105 10.7393 11.4412 10.198C10.8812 10.2913 10.3912 10.366 9.97117 10.422C9.55117 10.4687 9.25251 10.4873 9.07517 10.478C8.87917 10.4593 8.71584 10.38 8.58517 10.24C8.45451 10.1 8.39384 9.92733 8.40317 9.722C8.42184 9.53533 8.50584 9.37667 8.65517 9.246C8.80451 9.106 8.98184 9.022 9.18717 8.994C9.47651 8.966 9.84984 8.924 10.3072 8.868C10.7645 8.812 11.2685 8.74667 11.8192 8.672C11.9405 8.196 12.0805 7.706 12.2392 7.202C12.3978 6.68867 12.5612 6.19867 12.7292 5.732C12.9065 5.256 13.0745 4.84067 13.2332 4.486C13.3918 4.13133 13.5365 3.87467 13.6672 3.716C13.7698 3.59467 13.8958 3.50133 14.0452 3.436C14.2038 3.37067 14.3578 3.338 14.5072 3.338C14.7032 3.338 14.8618 3.408 14.9832 3.548C15.1045 3.688 15.1652 3.85133 15.1652 4.038C15.1652 4.11267 15.1605 4.192 15.1512 4.276C15.1418 4.35067 15.1232 4.42533 15.0952 4.5C14.9178 4.96667 14.7265 5.53133 14.5212 6.194C14.3252 6.85667 14.1198 7.58467 13.9052 8.378C14.6052 8.27533 15.2912 8.17267 15.9632 8.07C16.6445 7.958 17.2605 7.85533 17.8112 7.762C18.3712 7.65933 18.8192 7.57067 19.1552 7.496C19.3418 7.43067 19.5005 7.44467 19.6312 7.538C19.7618 7.622 19.8272 7.75733 19.8272 7.944ZM20.455 9.526C20.2777 9.526 20.1423 9.47933 20.049 9.386C19.9557 9.29267 19.909 9.12933 19.909 8.896C19.909 8.756 19.951 8.61133 20.035 8.462C20.1283 8.31267 20.231 8.13533 20.343 7.93C20.455 7.72467 20.553 7.47733 20.637 7.188C20.7303 6.89867 20.777 6.55333 20.777 6.152C20.777 6.02133 20.7677 5.89067 20.749 5.76C20.7397 5.62 20.735 5.48933 20.735 5.368C20.735 4.39733 21.043 3.912 21.659 3.912C21.939 3.912 22.1677 4.01 22.345 4.206C22.5223 4.402 22.611 4.794 22.611 5.382C22.611 6.03533 22.5317 6.61867 22.373 7.132C22.2143 7.64533 22.0183 8.07933 21.785 8.434C21.5517 8.78867 21.3137 9.05933 21.071 9.246C20.8283 9.43267 20.623 9.526 20.455 9.526ZM24.646 15.714C24.2447 15.714 23.96 15.658 23.792 15.546C23.6333 15.434 23.554 15.2707 23.554 15.056C23.554 14.8693 23.6193 14.7107 23.75 14.58C23.8807 14.44 24.17 14.3 24.618 14.16C25.1407 14.0013 25.6353 13.8193 26.102 13.614C26.578 13.3993 26.9653 13.166 27.264 12.914C27.572 12.662 27.726 12.396 27.726 12.116C27.726 11.9293 27.6607 11.794 27.53 11.71C27.4087 11.626 27.264 11.584 27.096 11.584C26.956 11.584 26.7507 11.6073 26.48 11.654C26.2187 11.6913 25.9293 11.7427 25.612 11.808C25.2947 11.864 24.9867 11.9153 24.688 11.962C24.3987 11.9993 24.1513 12.018 23.946 12.018C23.4607 12.018 23.1013 11.9107 22.868 11.696C22.6347 11.472 22.518 11.1873 22.518 10.842C22.518 10.6553 22.616 10.3987 22.812 10.072C23.008 9.74533 23.2693 9.386 23.596 8.994C23.9227 8.602 24.2867 8.21 24.688 7.818C25.0893 7.426 25.4953 7.06667 25.906 6.74C26.326 6.404 26.7227 6.138 27.096 5.942C27.4693 5.73667 27.7867 5.634 28.048 5.634C28.3467 5.634 28.5847 5.72733 28.762 5.914C28.9487 6.10067 29.042 6.35267 29.042 6.67C29.042 6.81933 29.028 6.98267 29 7.16C28.972 7.328 28.902 7.482 28.79 7.622C28.678 7.75267 28.5053 7.846 28.272 7.902C28.0387 7.958 27.7213 7.94867 27.32 7.874C27.0027 8.10733 26.6713 8.364 26.326 8.644C25.99 8.91467 25.6727 9.19933 25.374 9.498C25.0753 9.78733 24.828 10.072 24.632 10.352C24.9773 10.24 25.3693 10.1513 25.808 10.086C26.2467 10.0113 26.69 9.974 27.138 9.974C27.6793 9.974 28.118 10.072 28.454 10.268C28.7993 10.4547 29.0513 10.7067 29.21 11.024C29.378 11.3413 29.462 11.6913 29.462 12.074C29.462 12.5033 29.322 12.9327 29.042 13.362C28.762 13.7913 28.3887 14.1833 27.922 14.538C27.4553 14.8927 26.9373 15.1773 26.368 15.392C25.7987 15.6067 25.2247 15.714 24.646 15.714ZM38.9304 16.568C38.6971 16.568 38.4964 16.498 38.3284 16.358C38.1604 16.2273 38.0857 15.9567 38.1044 15.546C38.1231 15.0887 38.1557 14.6127 38.2024 14.118C38.2491 13.6233 38.3004 13.1613 38.3564 12.732C38.4777 11.7893 38.5057 11.0613 38.4404 10.548C38.3844 10.0253 38.2397 9.652 38.0064 9.428C37.7824 9.204 37.4791 9.05467 37.0964 8.98C36.9097 8.94267 36.7604 8.87267 36.6484 8.77C36.5364 8.658 36.4804 8.51333 36.4804 8.336C36.4804 8.10267 36.5737 7.94867 36.7604 7.874C36.9377 7.79933 37.1664 7.762 37.4464 7.762C37.6611 7.762 37.9364 7.776 38.2724 7.804C38.6177 7.82267 38.9864 7.83667 39.3784 7.846C39.7051 6.77267 40.0737 5.886 40.4844 5.186C40.8951 4.486 41.3431 3.93533 41.8284 3.534C42.3137 3.12333 42.8271 2.83867 43.3684 2.68C43.9097 2.512 44.4697 2.428 45.0484 2.428C45.7671 2.428 46.1264 2.68467 46.1264 3.198C46.1264 3.45 46.0051 3.64133 45.7624 3.772C45.5197 3.90267 45.1511 4.01 44.6564 4.094C44.0684 4.19667 43.5504 4.388 43.1024 4.668C42.6637 4.948 42.2764 5.34467 41.9404 5.858C41.6137 6.37133 41.3244 7.034 41.0724 7.846C42.3697 7.818 43.4337 7.748 44.2644 7.636C45.0951 7.524 45.7344 7.41667 46.1824 7.314C46.6397 7.202 46.9571 7.146 47.1344 7.146C47.3864 7.146 47.5404 7.20667 47.5964 7.328C47.6617 7.44933 47.6944 7.58 47.6944 7.72C47.6944 7.87867 47.5451 8.042 47.2464 8.21C47.0504 8.322 46.7377 8.448 46.3084 8.588C45.8791 8.71867 45.3751 8.84933 44.7964 8.98C44.2177 9.10133 43.6064 9.204 42.9624 9.288C42.3277 9.36267 41.7071 9.4 41.1004 9.4C40.9511 9.4 40.8157 9.4 40.6944 9.4C40.5917 9.94133 40.4891 10.5153 40.3864 11.122C40.2931 11.7193 40.2091 12.3027 40.1344 12.872C40.0597 13.4413 39.9944 13.9593 39.9384 14.426C39.8917 14.8927 39.8637 15.266 39.8544 15.546C39.8451 15.8913 39.7564 16.148 39.5884 16.316C39.4204 16.484 39.2011 16.568 38.9304 16.568ZM46.2037 14.616C45.9704 14.616 45.7697 14.532 45.6017 14.364C45.4431 14.196 45.3637 13.9533 45.3637 13.636C45.3637 13.496 45.3824 13.2673 45.4197 12.95C45.4664 12.6233 45.5224 12.25 45.5877 11.83C45.6624 11.41 45.7324 10.9713 45.7977 10.514C45.8724 10.0567 45.9331 9.62267 45.9797 9.212C46.0357 8.80133 46.0731 8.45133 46.0917 8.162C46.1104 7.80733 46.2037 7.55533 46.3717 7.406C46.5397 7.24733 46.7404 7.168 46.9737 7.168C47.1604 7.168 47.3284 7.21467 47.4777 7.308C47.6364 7.392 47.7344 7.574 47.7717 7.854C47.8184 8.12467 47.8231 8.51667 47.7857 9.03C48.1964 8.28333 48.6117 7.616 49.0317 7.028C49.4611 6.44 49.9091 5.97333 50.3757 5.628C51.1504 5.04 51.8504 4.746 52.4757 4.746C52.8304 4.746 53.0637 4.82533 53.1757 4.984C53.2877 5.14267 53.3437 5.306 53.3437 5.474C53.3437 5.586 53.3157 5.68867 53.2597 5.782C53.2131 5.87533 53.1104 5.97333 52.9517 6.076C52.7931 6.17867 52.5504 6.314 52.2237 6.482C51.7851 6.706 51.3511 7 50.9217 7.364C50.5017 7.728 50.0817 8.19467 49.6617 8.764C49.2417 9.33333 48.8171 10.0333 48.3877 10.864C47.9584 11.6947 47.5151 12.684 47.0577 13.832C46.9737 14.1493 46.8524 14.3593 46.6937 14.462C46.5444 14.5647 46.3811 14.616 46.2037 14.616ZM59.3517 8.658C59.3517 9.08733 59.207 9.52133 58.9177 9.96C58.6284 10.3987 58.1617 10.8233 57.5177 11.234C56.883 11.6447 56.043 12.032 54.9977 12.396C55.0537 12.8907 55.231 13.2453 55.5297 13.46C55.8377 13.6653 56.3277 13.768 56.9997 13.768C57.6064 13.768 58.1757 13.7073 58.7077 13.586C59.249 13.4553 59.753 13.2827 60.2197 13.068C60.089 12.7507 59.991 12.41 59.9257 12.046C59.8604 11.6727 59.8277 11.276 59.8277 10.856C59.8277 10.0067 59.963 9.29733 60.2337 8.728C60.5044 8.15867 60.845 7.734 61.2557 7.454C61.6664 7.16467 62.0864 7.02 62.5157 7.02C62.9077 7.02 63.267 7.09467 63.5937 7.244C63.9297 7.39333 64.1957 7.622 64.3917 7.93C64.597 8.22867 64.6997 8.616 64.6997 9.092C64.6997 9.848 64.471 10.5853 64.0137 11.304C63.5657 12.0227 62.9777 12.6713 62.2497 13.25C62.5204 13.5113 62.8424 13.642 63.2157 13.642C63.5517 13.642 63.925 13.5533 64.3357 13.376C64.7464 13.1987 65.1617 12.9653 65.5817 12.676C66.011 12.3773 66.4264 12.06 66.8277 11.724C67.229 11.3787 67.5837 11.0473 67.8917 10.73C68.0037 10.59 68.111 10.5013 68.2137 10.464C68.3257 10.4173 68.4284 10.394 68.5217 10.394C68.6804 10.394 68.811 10.4453 68.9137 10.548C69.0164 10.6413 69.0677 10.7767 69.0677 10.954C69.0677 11.038 69.0444 11.1407 68.9977 11.262C68.951 11.3833 68.867 11.514 68.7457 11.654C68.4004 12.0273 67.9897 12.4287 67.5137 12.858C67.047 13.278 66.5524 13.6747 66.0297 14.048C65.507 14.4213 64.989 14.7247 64.4757 14.958C63.9624 15.1913 63.4864 15.308 63.0477 15.308C62.189 15.308 61.4564 14.9347 60.8497 14.188C60.215 14.5333 59.5477 14.804 58.8477 15C58.157 15.2053 57.4757 15.308 56.8037 15.308C55.6184 15.308 54.7457 15.0373 54.1857 14.496C53.6257 13.9547 53.3457 13.2173 53.3457 12.284C53.3457 11.416 53.4577 10.618 53.6817 9.89C53.9057 9.15267 54.1997 8.518 54.5637 7.986C54.9277 7.44467 55.3197 7.02467 55.7397 6.726C56.169 6.42733 56.5844 6.278 56.9857 6.278C57.779 6.278 58.3717 6.50667 58.7637 6.964C59.1557 7.42133 59.3517 7.986 59.3517 8.658ZM55.0817 11.038C55.5577 10.8047 56.001 10.5433 56.4117 10.254C56.8317 9.96467 57.1677 9.67067 57.4197 9.372C57.681 9.07333 57.8117 8.79333 57.8117 8.532C57.8117 8.28933 57.7604 8.10267 57.6577 7.972C57.555 7.84133 57.3544 7.776 57.0557 7.776C56.869 7.776 56.673 7.874 56.4677 8.07C56.2717 8.25667 56.0804 8.50867 55.8937 8.826C55.7164 9.14333 55.553 9.49333 55.4037 9.876C55.2637 10.2587 55.1564 10.646 55.0817 11.038ZM61.6477 12.102C62.133 11.6633 62.5064 11.1733 62.7677 10.632C63.0384 10.0813 63.1737 9.512 63.1737 8.924C63.1737 8.85867 63.127 8.77467 63.0337 8.672C62.9497 8.56 62.8237 8.504 62.6557 8.504C62.4037 8.504 62.189 8.602 62.0117 8.798C61.8344 8.994 61.699 9.25067 61.6057 9.568C61.5217 9.876 61.4797 10.212 61.4797 10.576C61.4797 11.164 61.5357 11.6727 61.6477 12.102ZM67.5803 15.364C67.291 15.364 67.0203 15.2753 66.7683 15.098C66.5163 14.9207 66.3903 14.6313 66.3903 14.23C66.3903 13.922 66.4696 13.6747 66.6283 13.488C66.787 13.292 66.969 13.1473 67.1743 13.054C67.389 12.9607 67.571 12.914 67.7203 12.914C67.879 12.914 68.0563 12.9513 68.2523 13.026C68.4576 13.0913 68.635 13.2173 68.7843 13.404C68.9336 13.5813 69.0083 13.838 69.0083 14.174C69.0083 14.5007 68.8683 14.7807 68.5883 15.014C68.3176 15.2473 67.9816 15.364 67.5803 15.364ZM4.354 34C3.794 34 3.262 33.8787 2.758 33.636C2.26333 33.384 1.85733 33.0293 1.54 32.572C1.232 32.1053 1.078 31.5593 1.078 30.934C1.078 30.318 1.20867 29.7067 1.47 29.1C1.73133 28.484 2.072 27.8913 2.492 27.322C2.92133 26.7433 3.38333 26.2067 3.878 25.712C4.382 25.2173 4.872 24.788 5.348 24.424C5.83333 24.0507 6.26267 23.7613 6.636 23.556C7.01867 23.3413 7.29867 23.234 7.476 23.234C7.66267 23.234 7.854 23.3133 8.05 23.472C8.246 23.6307 8.34867 23.8593 8.358 24.158C8.358 24.2887 8.32067 24.438 8.246 24.606C8.17133 24.774 7.99867 24.942 7.728 25.11C7.49467 25.25 7.182 25.4553 6.79 25.726C6.40733 25.9967 6.00133 26.314 5.572 26.678C5.14267 27.042 4.732 27.448 4.34 27.896C3.95733 28.3347 3.64467 28.8013 3.402 29.296C3.15933 29.7907 3.038 30.2993 3.038 30.822C3.038 31.2513 3.164 31.578 3.416 31.802C3.668 32.0167 4.00867 32.124 4.438 32.124C4.73667 32.124 5.09133 32.04 5.502 31.872C5.922 31.704 6.35133 31.4893 6.79 31.228C7.22867 30.9573 7.63 30.668 7.994 30.36C8.36733 30.052 8.65667 29.758 8.862 29.478C8.50733 29.5527 8.11533 29.6367 7.686 29.73C7.266 29.814 6.874 29.8887 6.51 29.954C6.146 30.01 5.88467 30.038 5.726 30.038C5.446 30.038 5.21267 29.982 5.026 29.87C4.83933 29.758 4.69933 29.6273 4.606 29.478C4.51267 29.3193 4.466 29.17 4.466 29.03C4.466 28.8713 4.52667 28.708 4.648 28.54C4.76933 28.372 4.97933 28.2647 5.278 28.218C5.474 28.19 5.74 28.148 6.076 28.092C6.412 28.0267 6.762 27.966 7.126 27.91C7.49933 27.8447 7.84 27.7887 8.148 27.742C8.46533 27.6953 8.70333 27.672 8.862 27.672C10.038 27.672 10.626 28.33 10.626 29.646C10.626 29.898 10.4953 30.2107 10.234 30.584C9.97267 30.948 9.618 31.3307 9.17 31.732C8.73133 32.124 8.23667 32.4927 7.686 32.838C7.13533 33.1833 6.57067 33.4633 5.992 33.678C5.42267 33.8927 4.87667 34 4.354 34ZM31.1742 27.336C31.1742 27.4667 30.9968 27.6113 30.6422 27.77C30.2875 27.9287 29.8115 28.0967 29.2142 28.274C28.6262 28.442 27.9682 28.61 27.2402 28.778C26.5122 28.9367 25.7748 29.0813 25.0282 29.212C24.7668 30.08 24.5102 30.9573 24.2582 31.844C24.0062 32.7213 23.7868 33.5427 23.6002 34.308C23.5535 34.5133 23.4462 34.6673 23.2782 34.77C23.1195 34.8727 22.9468 34.924 22.7602 34.924C22.5268 34.924 22.3355 34.8587 22.1862 34.728C22.0368 34.6067 21.9622 34.448 21.9622 34.252C21.9622 33.916 22.0555 33.3793 22.2422 32.642C22.4288 31.9047 22.6528 31.0693 22.9142 30.136C22.4848 30.752 22.0508 31.3167 21.6122 31.83C21.1735 32.3433 20.7582 32.7633 20.3662 33.09C19.7502 33.594 19.1108 33.9953 18.4482 34.294C17.7948 34.602 17.1415 34.756 16.4882 34.756C15.4428 34.756 14.6822 34.4947 14.2062 33.972C13.7302 33.4493 13.4922 32.6747 13.4922 31.648C13.4922 31.06 13.5575 30.4767 13.6882 29.898C13.8282 29.31 14.0148 28.7593 14.2482 28.246C14.4815 27.7233 14.7475 27.2613 15.0462 26.86C15.3448 26.4587 15.6575 26.146 15.9842 25.922C16.3108 25.6887 16.6375 25.572 16.9642 25.572C17.7668 25.572 18.3502 25.7867 18.7142 26.216C19.0875 26.636 19.2742 27.154 19.2742 27.77C19.2742 28.19 19.1528 28.5913 18.9102 28.974C18.6768 29.3567 18.3642 29.7113 17.9722 30.038C17.5802 30.3553 17.1415 30.626 16.6562 30.85C16.1802 31.074 15.6995 31.2373 15.2142 31.34C15.2142 31.4053 15.2142 31.4753 15.2142 31.55C15.2142 32.1473 15.3262 32.558 15.5502 32.782C15.7835 33.006 16.1568 33.118 16.6702 33.118C17.5195 33.118 18.3642 32.838 19.2042 32.278C20.0535 31.7087 20.8935 30.8407 21.7242 29.674C21.3415 29.702 21.0102 29.716 20.7302 29.716C20.3288 29.716 20.0675 29.6553 19.9462 29.534C19.8342 29.4033 19.7782 29.2213 19.7782 28.988C19.7782 28.9133 19.8108 28.8247 19.8762 28.722C19.9508 28.61 20.0395 28.512 20.1422 28.428C20.2542 28.3347 20.3708 28.288 20.4922 28.288C20.8935 28.2507 21.2808 28.2133 21.6542 28.176C22.0368 28.1387 22.4008 28.0967 22.7462 28.05C23.3902 26.9487 24.0155 25.6747 24.6222 24.228C24.8835 23.4907 25.1542 22.9027 25.4342 22.464C25.7235 22.016 26.0222 21.792 26.3302 21.792C26.4888 21.792 26.6335 21.8573 26.7642 21.988C26.9042 22.1093 26.9742 22.3053 26.9742 22.576C26.9742 22.6973 26.9042 23.0007 26.7642 23.486C26.6335 23.962 26.4562 24.564 26.2322 25.292C26.0082 26.02 25.7655 26.8133 25.5042 27.672C27.0068 27.4293 28.1688 27.21 28.9902 27.014C29.8115 26.8087 30.3295 26.706 30.5442 26.706C30.7402 26.706 30.8942 26.7713 31.0062 26.902C31.1182 27.0327 31.1742 27.1773 31.1742 27.336ZM15.4102 29.954C15.7742 29.758 16.1242 29.534 16.4602 29.282C16.7962 29.0207 17.0715 28.7593 17.2862 28.498C17.5008 28.2273 17.6082 27.9707 17.6082 27.728C17.6082 27.5133 17.5662 27.3593 17.4822 27.266C17.4075 27.1727 17.2535 27.126 17.0202 27.126C16.8148 27.126 16.6095 27.2613 16.4042 27.532C16.1988 27.8027 16.0075 28.1573 15.8302 28.596C15.6622 29.0253 15.5222 29.478 15.4102 29.954ZM37.7401 34.546C37.3667 34.546 37.0867 34.4433 36.9001 34.238C36.7134 34.0327 36.6201 33.8227 36.6201 33.608C36.6201 33.356 36.6667 33.1647 36.7601 33.034C36.8534 32.9033 37.0354 32.8053 37.3061 32.74C37.6607 32.6653 38.0294 32.572 38.4121 32.46C38.8041 32.348 39.1774 32.2313 39.5321 32.11C39.8961 31.9793 40.2134 31.8487 40.4841 31.718C40.7547 31.578 40.9507 31.4473 41.0721 31.326C40.9227 31.242 40.6847 31.144 40.3581 31.032C40.0314 30.9107 39.6674 30.7707 39.2661 30.612C38.8741 30.444 38.4961 30.248 38.1321 30.024C37.7681 29.8 37.4694 29.5387 37.2361 29.24C37.0027 28.9413 36.8861 28.6007 36.8861 28.218C36.8861 27.686 37.0214 27.1867 37.2921 26.72C37.5627 26.2533 37.9221 25.8193 38.3701 25.418C38.8181 25.0167 39.3034 24.648 39.8261 24.312C40.3581 23.976 40.8854 23.6727 41.4081 23.402C41.9401 23.122 42.4161 22.8747 42.8361 22.66C42.9947 22.5667 43.1441 22.506 43.2841 22.478C43.4334 22.4407 43.5687 22.422 43.6901 22.422C44.1101 22.422 44.3994 22.5247 44.5581 22.73C44.7167 22.9353 44.7961 23.1453 44.7961 23.36C44.7961 23.5093 44.7261 23.6867 44.5861 23.892C44.4461 24.088 44.2221 24.27 43.9141 24.438C43.6154 24.606 43.2187 24.7273 42.7241 24.802C42.6401 24.8113 42.5654 24.8207 42.5001 24.83C42.1267 25.0167 41.7254 25.2407 41.2961 25.502C40.8667 25.7633 40.4607 26.0387 40.0781 26.328C39.7047 26.608 39.3967 26.888 39.1541 27.168C38.9114 27.448 38.7901 27.7 38.7901 27.924C38.7901 28.176 38.8927 28.4047 39.0981 28.61C39.3034 28.806 39.5647 28.988 39.8821 29.156C40.2087 29.3147 40.5494 29.4687 40.9041 29.618C41.2681 29.7673 41.6087 29.9213 41.9261 30.08C42.2527 30.2293 42.5187 30.3973 42.7241 30.584C42.9294 30.7707 43.0321 30.9807 43.0321 31.214C43.0321 31.5313 42.9247 31.8347 42.7101 32.124C42.4954 32.4133 42.2154 32.684 41.8701 32.936C41.5247 33.1787 41.1467 33.398 40.7361 33.594C40.3254 33.79 39.9194 33.958 39.5181 34.098C39.1261 34.2473 38.7714 34.3593 38.4541 34.434C38.1367 34.5087 37.8987 34.546 37.7401 34.546ZM55.1143 26.944C55.1143 27.056 55.0769 27.154 55.0023 27.238C54.9276 27.322 54.8343 27.3873 54.7223 27.434C54.5636 27.4993 54.2883 27.5833 53.8963 27.686C53.5043 27.7887 53.0283 27.9053 52.4683 28.036C51.9176 28.1667 51.3249 28.302 50.6903 28.442C50.0556 28.5727 49.4209 28.6987 48.7863 28.82C48.5436 29.716 48.2963 30.64 48.0443 31.592C47.7923 32.5347 47.5403 33.4633 47.2883 34.378C47.1949 34.7047 47.0829 34.952 46.9523 35.12C46.8216 35.2973 46.5976 35.386 46.2803 35.386C45.9349 35.386 45.7016 35.274 45.5803 35.05C45.4683 34.8353 45.4543 34.5413 45.5383 34.168C45.7809 33.1507 46.0049 32.2033 46.2103 31.326C46.4249 30.4487 46.5976 29.7393 46.7283 29.198C46.1683 29.2913 45.6783 29.366 45.2583 29.422C44.8383 29.4687 44.5396 29.4873 44.3623 29.478C44.1663 29.4593 44.0029 29.38 43.8723 29.24C43.7416 29.1 43.6809 28.9273 43.6903 28.722C43.7089 28.5353 43.7929 28.3767 43.9423 28.246C44.0916 28.106 44.2689 28.022 44.4743 27.994C44.7636 27.966 45.1369 27.924 45.5943 27.868C46.0516 27.812 46.5556 27.7467 47.1063 27.672C47.2276 27.196 47.3676 26.706 47.5263 26.202C47.6849 25.6887 47.8483 25.1987 48.0163 24.732C48.1936 24.256 48.3616 23.8407 48.5203 23.486C48.6789 23.1313 48.8236 22.8747 48.9543 22.716C49.0569 22.5947 49.1829 22.5013 49.3323 22.436C49.4909 22.3707 49.6449 22.338 49.7943 22.338C49.9903 22.338 50.1489 22.408 50.2703 22.548C50.3916 22.688 50.4523 22.8513 50.4523 23.038C50.4523 23.1127 50.4476 23.192 50.4383 23.276C50.4289 23.3507 50.4103 23.4253 50.3823 23.5C50.2049 23.9667 50.0136 24.5313 49.8083 25.194C49.6123 25.8567 49.4069 26.5847 49.1923 27.378C49.8923 27.2753 50.5783 27.1727 51.2503 27.07C51.9316 26.958 52.5476 26.8553 53.0983 26.762C53.6583 26.6593 54.1063 26.5707 54.4423 26.496C54.6289 26.4307 54.7876 26.4447 54.9183 26.538C55.0489 26.622 55.1143 26.7573 55.1143 26.944ZM53.5919 34.532C53.2932 34.532 53.0226 34.448 52.7799 34.28C52.5372 34.1213 52.3459 33.9113 52.2059 33.65C52.0659 33.3793 51.9959 33.09 51.9959 32.782C51.9959 32.2033 52.1219 31.6387 52.3739 31.088C52.6352 30.5373 52.9759 30.0147 53.3959 29.52C53.8159 29.0253 54.2732 28.5727 54.7679 28.162C55.2719 27.742 55.7712 27.3827 56.2659 27.084C56.7699 26.7853 57.2272 26.552 57.6379 26.384C58.0579 26.216 58.3846 26.132 58.6179 26.132C58.8886 26.132 59.1079 26.1927 59.2759 26.314C59.4532 26.426 59.5419 26.6033 59.5419 26.846C59.5419 26.9207 59.5232 26.9813 59.4859 27.028C59.6072 27.056 59.7052 27.126 59.7799 27.238C59.8546 27.35 59.8919 27.518 59.8919 27.742C59.8919 27.8353 59.8686 28.078 59.8219 28.47C59.7752 28.862 59.7239 29.338 59.6679 29.898C59.6212 30.458 59.5979 31.0413 59.5979 31.648C59.5979 31.7413 59.6119 31.8253 59.6399 31.9C59.6679 31.9653 59.7286 31.998 59.8219 31.998C60.1952 31.998 60.5732 31.9233 60.9559 31.774C61.3479 31.6153 61.7259 31.424 62.0899 31.2C62.4632 30.9667 62.7992 30.738 63.0979 30.514C63.4059 30.2807 63.6626 30.0893 63.8679 29.94C64.0826 29.7813 64.2226 29.702 64.2879 29.702C64.6052 29.702 64.7639 29.8607 64.7639 30.178C64.7639 30.262 64.6612 30.4393 64.4559 30.71C64.2599 30.9713 63.9892 31.2747 63.6439 31.62C63.2986 31.956 62.9112 32.292 62.4819 32.628C62.0619 32.9547 61.6232 33.2253 61.1659 33.44C60.7179 33.6547 60.2839 33.762 59.8639 33.762C59.3506 33.762 58.9586 33.6407 58.6879 33.398C58.4266 33.1553 58.2399 32.8287 58.1279 32.418C58.0252 31.998 57.9692 31.5267 57.9599 31.004C57.4839 31.6853 56.9892 32.292 56.4759 32.824C55.9719 33.3467 55.4726 33.762 54.9779 34.07C54.4832 34.378 54.0212 34.532 53.5919 34.532ZM58.5479 27.518C57.6332 27.9567 56.8119 28.4607 56.0839 29.03C55.3559 29.59 54.7772 30.178 54.3479 30.794C53.9279 31.41 53.7179 32.0027 53.7179 32.572C53.7179 32.7307 53.7926 32.81 53.9419 32.81C54.1192 32.81 54.3526 32.7073 54.6419 32.502C54.9406 32.2967 55.2626 32.026 55.6079 31.69C55.9532 31.3447 56.2986 30.962 56.6439 30.542C56.9892 30.1127 57.3112 29.674 57.6099 29.226C57.9086 28.778 58.1466 28.3487 58.3239 27.938C58.3892 27.7887 58.4639 27.6487 58.5479 27.518ZM64.2779 34.616C64.0446 34.616 63.8439 34.532 63.6759 34.364C63.5173 34.196 63.4379 33.9533 63.4379 33.636C63.4379 33.496 63.4566 33.2673 63.4939 32.95C63.5406 32.6233 63.5966 32.25 63.6619 31.83C63.7366 31.41 63.8066 30.9713 63.8719 30.514C63.9466 30.0567 64.0073 29.6227 64.0539 29.212C64.1099 28.8013 64.1473 28.4513 64.1659 28.162C64.1846 27.8073 64.2779 27.5553 64.4459 27.406C64.6139 27.2473 64.8146 27.168 65.0479 27.168C65.2346 27.168 65.4026 27.2147 65.5519 27.308C65.7106 27.392 65.8086 27.574 65.8459 27.854C65.8926 28.1247 65.8973 28.5167 65.8599 29.03C66.2706 28.2833 66.6859 27.616 67.1059 27.028C67.5353 26.44 67.9833 25.9733 68.4499 25.628C69.2246 25.04 69.9246 24.746 70.5499 24.746C70.9046 24.746 71.1379 24.8253 71.2499 24.984C71.3619 25.1427 71.4179 25.306 71.4179 25.474C71.4179 25.586 71.3899 25.6887 71.3339 25.782C71.2873 25.8753 71.1846 25.9733 71.0259 26.076C70.8673 26.1787 70.6246 26.314 70.2979 26.482C69.8593 26.706 69.4253 27 68.9959 27.364C68.5759 27.728 68.1559 28.1947 67.7359 28.764C67.3159 29.3333 66.8913 30.0333 66.4619 30.864C66.0326 31.6947 65.5893 32.684 65.1319 33.832C65.0479 34.1493 64.9266 34.3593 64.7679 34.462C64.6186 34.5647 64.4553 34.616 64.2779 34.616ZM80.585 26.944C80.585 27.056 80.5477 27.154 80.473 27.238C80.3983 27.322 80.305 27.3873 80.193 27.434C80.0343 27.4993 79.759 27.5833 79.367 27.686C78.975 27.7887 78.499 27.9053 77.939 28.036C77.3883 28.1667 76.7957 28.302 76.161 28.442C75.5263 28.5727 74.8917 28.6987 74.257 28.82C74.0143 29.716 73.767 30.64 73.515 31.592C73.263 32.5347 73.011 33.4633 72.759 34.378C72.6657 34.7047 72.5537 34.952 72.423 35.12C72.2923 35.2973 72.0683 35.386 71.751 35.386C71.4057 35.386 71.1723 35.274 71.051 35.05C70.939 34.8353 70.925 34.5413 71.009 34.168C71.2517 33.1507 71.4757 32.2033 71.681 31.326C71.8957 30.4487 72.0683 29.7393 72.199 29.198C71.639 29.2913 71.149 29.366 70.729 29.422C70.309 29.4687 70.0103 29.4873 69.833 29.478C69.637 29.4593 69.4737 29.38 69.343 29.24C69.2123 29.1 69.1517 28.9273 69.161 28.722C69.1797 28.5353 69.2637 28.3767 69.413 28.246C69.5623 28.106 69.7397 28.022 69.945 27.994C70.2343 27.966 70.6077 27.924 71.065 27.868C71.5223 27.812 72.0263 27.7467 72.577 27.672C72.6983 27.196 72.8383 26.706 72.997 26.202C73.1557 25.6887 73.319 25.1987 73.487 24.732C73.6643 24.256 73.8323 23.8407 73.991 23.486C74.1497 23.1313 74.2943 22.8747 74.425 22.716C74.5277 22.5947 74.6537 22.5013 74.803 22.436C74.9617 22.3707 75.1157 22.338 75.265 22.338C75.461 22.338 75.6197 22.408 75.741 22.548C75.8623 22.688 75.923 22.8513 75.923 23.038C75.923 23.1127 75.9183 23.192 75.909 23.276C75.8997 23.3507 75.881 23.4253 75.853 23.5C75.6757 23.9667 75.4843 24.5313 75.279 25.194C75.083 25.8567 74.8777 26.5847 74.663 27.378C75.363 27.2753 76.049 27.1727 76.721 27.07C77.4023 26.958 78.0183 26.8553 78.569 26.762C79.129 26.6593 79.577 26.5707 79.913 26.496C80.0997 26.4307 80.2583 26.4447 80.389 26.538C80.5197 26.622 80.585 26.7573 80.585 26.944ZM80.8919 34.476C80.3132 34.476 79.8466 34.2753 79.4919 33.874C79.1372 33.4633 78.9599 32.8053 78.9599 31.9C78.9599 31.3213 79.0252 30.7427 79.1559 30.164C79.2959 29.576 79.4872 29.0207 79.7299 28.498C79.9819 27.966 80.2712 27.4947 80.5979 27.084C80.9339 26.6733 81.3026 26.3513 81.7039 26.118C82.1052 25.8753 82.5206 25.754 82.9499 25.754C83.6779 25.754 84.2472 25.95 84.6579 26.342C85.0686 26.734 85.2739 27.2333 85.2739 27.84C85.2739 28.3067 85.1432 28.7313 84.8819 29.114C84.6299 29.4873 84.2846 29.8233 83.8459 30.122C83.4072 30.4207 82.9172 30.6913 82.3759 30.934C81.8346 31.1767 81.2792 31.396 80.7099 31.592C80.6632 31.928 80.6399 32.2267 80.6399 32.488C80.6399 32.6467 80.7286 32.726 80.9059 32.726C81.3259 32.726 81.7739 32.6607 82.2499 32.53C82.7352 32.39 83.2252 32.2127 83.7199 31.998C84.2146 31.774 84.6906 31.5453 85.1479 31.312C85.6052 31.0693 86.0206 30.8407 86.3939 30.626C86.7766 30.402 87.0892 30.2247 87.3319 30.094C87.5839 29.954 87.7472 29.884 87.8219 29.884C88.0272 29.884 88.1766 29.9447 88.2699 30.066C88.3632 30.1873 88.4099 30.318 88.4099 30.458C88.4099 30.5233 88.2839 30.668 88.0319 30.892C87.7892 31.116 87.4532 31.382 87.0239 31.69C86.6039 31.9887 86.1279 32.3013 85.5959 32.628C85.0732 32.9453 84.5272 33.2487 83.9579 33.538C83.3979 33.818 82.8519 34.042 82.3199 34.21C81.7972 34.3873 81.3212 34.476 80.8919 34.476ZM80.9479 30.346C81.3306 30.122 81.7086 29.8887 82.0819 29.646C82.4646 29.394 82.7819 29.114 83.0339 28.806C83.2859 28.4887 83.4119 28.12 83.4119 27.7C83.4119 27.5787 83.3792 27.4993 83.3139 27.462C83.2486 27.4153 83.1552 27.392 83.0339 27.392C82.7072 27.392 82.4086 27.5367 82.1379 27.826C81.8766 28.1153 81.6432 28.4887 81.4379 28.946C81.2419 29.394 81.0786 29.8607 80.9479 30.346ZM93.4356 26.51C93.9489 25.2873 94.4016 24.0273 94.7936 22.73C94.8682 22.4687 94.9756 22.268 95.1156 22.128C95.2649 21.988 95.4702 21.918 95.7316 21.918C95.9462 21.918 96.1096 21.9833 96.2216 22.114C96.3336 22.2353 96.3896 22.4033 96.3896 22.618C96.3896 22.7953 96.3149 23.1127 96.1656 23.57C96.0162 24.018 95.8342 24.5873 95.6196 25.278C95.4049 25.9687 95.1902 26.7667 94.9756 27.672C94.7609 28.5773 94.5789 29.5713 94.4296 30.654C94.2802 31.7367 94.2056 32.894 94.2056 34.126C94.2056 34.462 94.1402 34.7373 94.0096 34.952C93.8882 35.176 93.6736 35.288 93.3656 35.288C93.0296 35.288 92.7822 35.1713 92.6236 34.938C92.4742 34.7047 92.3996 34.406 92.3996 34.042C92.3996 33.3233 92.4229 32.726 92.4696 32.25C92.5256 31.7647 92.5816 31.3493 92.6376 31.004C92.1802 31.788 91.6949 32.4647 91.1816 33.034C90.6776 33.594 90.1922 34.0233 89.7256 34.322C89.2589 34.63 88.8576 34.784 88.5216 34.784C87.9709 34.784 87.5229 34.63 87.1776 34.322C86.8322 34.014 86.6596 33.5473 86.6596 32.922C86.6596 32.4367 86.7762 31.9373 87.0096 31.424C87.2429 30.9013 87.5509 30.388 87.9336 29.884C88.3162 29.38 88.7362 28.9087 89.1936 28.47C89.6602 28.022 90.1269 27.63 90.5936 27.294C91.0602 26.9487 91.4942 26.678 91.8956 26.482C92.2969 26.286 92.6236 26.188 92.8756 26.188C93.1556 26.188 93.3422 26.2953 93.4356 26.51ZM93.1136 27.266C93.0576 27.3033 92.9969 27.3407 92.9316 27.378C92.8756 27.406 92.8196 27.4387 92.7636 27.476C92.4089 27.7 92.0309 27.9707 91.6296 28.288C91.2282 28.596 90.8316 28.9413 90.4396 29.324C90.0476 29.6973 89.6882 30.0893 89.3616 30.5C89.0442 30.9013 88.7876 31.3027 88.5916 31.704C88.4049 32.096 88.3116 32.474 88.3116 32.838C88.3116 32.9033 88.3396 32.95 88.3956 32.978C88.4516 33.006 88.5029 33.02 88.5496 33.02C88.8762 33.02 89.2262 32.8753 89.5996 32.586C89.9822 32.2967 90.3696 31.8953 90.7616 31.382C91.1629 30.8593 91.5596 30.248 91.9516 29.548C92.3529 28.848 92.7402 28.0873 93.1136 27.266ZM105.532 34C105.308 34 105.084 33.9253 104.86 33.776C104.646 33.6173 104.468 33.3933 104.328 33.104C104.188 32.8053 104.118 32.446 104.118 32.026C104.118 31.466 104.193 30.8687 104.342 30.234C104.501 29.5993 104.692 28.9647 104.916 28.33C105.14 27.6953 105.36 27.098 105.574 26.538C105.677 26.2673 105.803 26.0853 105.952 25.992C106.102 25.8893 106.298 25.838 106.54 25.838C107.091 25.838 107.366 26.1133 107.366 26.664C107.366 26.7573 107.324 26.9393 107.24 27.21C107.156 27.4713 107.044 27.7933 106.904 28.176C106.774 28.5587 106.634 28.974 106.484 29.422C106.344 29.8607 106.214 30.3087 106.092 30.766C105.98 31.214 105.892 31.6387 105.826 32.04C106.041 31.7133 106.279 31.3073 106.54 30.822C106.811 30.3273 107.096 29.8093 107.394 29.268C107.702 28.7267 108.01 28.2227 108.318 27.756C108.626 27.28 108.93 26.8927 109.228 26.594C109.527 26.2953 109.812 26.146 110.082 26.146C110.316 26.146 110.535 26.1927 110.74 26.286C110.955 26.37 111.142 26.538 111.3 26.79C111.459 27.0327 111.58 27.3827 111.664 27.84C111.758 28.2973 111.804 28.8993 111.804 29.646C111.804 30.0193 111.837 30.3833 111.902 30.738C111.977 31.0833 112.098 31.3727 112.266 31.606C112.434 31.83 112.672 31.942 112.98 31.942C113.512 31.942 113.988 31.844 114.408 31.648C114.828 31.452 115.197 31.2233 115.514 30.962C115.832 30.7007 116.098 30.472 116.312 30.276C116.443 30.1453 116.555 30.0427 116.648 29.968C116.751 29.8933 116.835 29.856 116.9 29.856C117.096 29.856 117.236 29.9073 117.32 30.01C117.414 30.1127 117.46 30.2527 117.46 30.43C117.46 30.5233 117.381 30.696 117.222 30.948C117.064 31.2 116.84 31.4893 116.55 31.816C116.27 32.1333 115.948 32.4413 115.584 32.74C115.22 33.0387 114.828 33.286 114.408 33.482C113.988 33.678 113.559 33.776 113.12 33.776C112.383 33.776 111.772 33.6453 111.286 33.384C110.81 33.1133 110.456 32.6653 110.222 32.04C109.989 31.4053 109.872 30.542 109.872 29.45C109.872 29.422 109.872 29.3753 109.872 29.31C109.872 29.0207 109.868 28.764 109.858 28.54C109.858 28.316 109.844 28.134 109.816 27.994C109.658 28.2833 109.466 28.6287 109.242 29.03C109.028 29.4313 108.794 29.8607 108.542 30.318C108.29 30.766 108.029 31.2093 107.758 31.648C107.488 32.0773 107.217 32.4693 106.946 32.824C106.685 33.1787 106.433 33.4633 106.19 33.678C105.948 33.8927 105.728 34 105.532 34ZM117.965 34.462C117.302 34.462 116.77 34.2287 116.369 33.762C115.967 33.286 115.767 32.6513 115.767 31.858C115.767 31.606 115.799 31.3493 115.865 31.088C115.939 30.8267 116.028 30.584 116.131 30.36C116.075 30.276 116.028 30.1687 115.991 30.038C115.963 29.898 115.949 29.7347 115.949 29.548C115.949 28.9413 116.056 28.386 116.271 27.882C116.485 27.3687 116.775 26.9253 117.139 26.552C117.503 26.1787 117.904 25.8893 118.343 25.684C118.781 25.4787 119.225 25.376 119.673 25.376C120.438 25.376 121.063 25.6327 121.549 26.146C122.043 26.6593 122.291 27.4573 122.291 28.54C122.291 29.0813 122.207 29.632 122.039 30.192C121.871 30.752 121.642 31.2887 121.353 31.802C121.073 32.306 120.746 32.7587 120.373 33.16C120.009 33.5613 119.617 33.8787 119.197 34.112C118.786 34.3453 118.375 34.462 117.965 34.462ZM117.741 29.73C117.787 29.8327 117.811 29.954 117.811 30.094C117.811 30.234 117.783 30.3787 117.727 30.528C117.671 30.6773 117.615 30.878 117.559 31.13C117.503 31.3727 117.475 31.7227 117.475 32.18C117.475 32.3013 117.489 32.404 117.517 32.488C117.554 32.5627 117.633 32.6 117.755 32.6C118.072 32.6 118.371 32.4973 118.651 32.292C118.94 32.0867 119.197 31.816 119.421 31.48C119.654 31.144 119.85 30.7707 120.009 30.36C120.177 29.94 120.303 29.5153 120.387 29.086C120.48 28.6473 120.527 28.2413 120.527 27.868C120.527 27.6253 120.48 27.4573 120.387 27.364C120.293 27.2707 120.13 27.224 119.897 27.224C119.579 27.224 119.253 27.3267 118.917 27.532C118.59 27.728 118.315 27.9987 118.091 28.344C117.867 28.68 117.755 29.0627 117.755 29.492C117.755 29.576 117.75 29.6553 117.741 29.73ZM125.753 34.616C125.557 34.616 125.37 34.574 125.193 34.49C125.015 34.406 124.857 34.2427 124.717 34C124.577 33.7667 124.465 33.4213 124.381 32.964C124.297 32.4973 124.255 31.8813 124.255 31.116C124.255 30.3973 124.292 29.7113 124.367 29.058C124.441 28.3953 124.549 27.8073 124.689 27.294C124.829 26.7713 124.997 26.3607 125.193 26.062C125.389 25.754 125.608 25.6 125.851 25.6C126.065 25.6 126.243 25.7027 126.383 25.908C126.523 26.1133 126.593 26.4073 126.593 26.79C126.593 27.0887 126.555 27.4807 126.481 27.966C126.415 28.4513 126.336 28.974 126.243 29.534C126.149 30.0847 126.065 30.6213 125.991 31.144C125.925 31.6573 125.893 32.096 125.893 32.46C125.893 32.5253 125.902 32.5907 125.921 32.656C125.939 32.712 125.967 32.74 126.005 32.74C126.061 32.74 126.154 32.6047 126.285 32.334C126.415 32.0633 126.574 31.7087 126.761 31.27C126.957 30.822 127.167 30.3367 127.391 29.814C127.624 29.2913 127.867 28.778 128.119 28.274C128.38 27.7607 128.641 27.3033 128.903 26.902C129.127 26.5567 129.393 26.2907 129.701 26.104C130.009 25.9173 130.293 25.824 130.555 25.824C130.788 25.824 131.017 25.8847 131.241 26.006C131.474 26.1273 131.665 26.3093 131.815 26.552C131.964 26.7947 132.039 27.098 132.039 27.462C132.039 27.602 132.02 27.8353 131.983 28.162C131.955 28.4793 131.917 28.8433 131.871 29.254C131.824 29.6553 131.777 30.0613 131.731 30.472C131.684 30.8733 131.642 31.2327 131.605 31.55C131.577 31.8673 131.563 32.0913 131.563 32.222C131.563 32.2407 131.563 32.264 131.563 32.292C131.563 32.3947 131.567 32.4973 131.577 32.6C131.586 32.6933 131.614 32.74 131.661 32.74C131.763 32.74 131.894 32.6233 132.053 32.39C132.221 32.1473 132.407 31.8253 132.613 31.424C132.827 31.0227 133.051 30.5747 133.285 30.08C133.518 29.5853 133.756 29.0767 133.999 28.554C134.251 28.022 134.498 27.518 134.741 27.042C134.927 26.6407 135.086 26.3887 135.217 26.286C135.347 26.174 135.473 26.118 135.595 26.118C135.763 26.118 135.94 26.202 136.127 26.37C136.313 26.538 136.407 26.7993 136.407 27.154C136.407 27.2753 136.402 27.3967 136.393 27.518C136.383 27.6393 136.351 27.7653 136.295 27.896C135.921 28.8387 135.534 29.7113 135.133 30.514C134.741 31.3073 134.349 31.998 133.957 32.586C133.565 33.174 133.187 33.6313 132.823 33.958C132.459 34.2847 132.118 34.448 131.801 34.448C131.147 34.448 130.643 34.2753 130.289 33.93C129.943 33.5753 129.771 33.0993 129.771 32.502C129.771 32.278 129.785 31.9933 129.813 31.648C129.841 31.2933 129.873 30.9107 129.911 30.5C129.957 30.08 130.004 29.6647 130.051 29.254C130.097 28.8433 130.144 28.4653 130.191 28.12C130.209 27.9893 130.186 27.9053 130.121 27.868C130.065 27.8307 130.013 27.8727 129.967 27.994C129.845 28.3113 129.715 28.6567 129.575 29.03C129.435 29.4033 129.304 29.73 129.183 30.01C128.987 30.4767 128.758 30.976 128.497 31.508C128.245 32.04 127.969 32.544 127.671 33.02C127.372 33.4867 127.059 33.8693 126.733 34.168C126.406 34.4667 126.079 34.616 125.753 34.616ZM137.867 34.364C137.578 34.364 137.307 34.2753 137.055 34.098C136.803 33.9207 136.677 33.6313 136.677 33.23C136.677 32.922 136.757 32.6747 136.915 32.488C137.074 32.292 137.256 32.1473 137.461 32.054C137.676 31.9607 137.858 31.914 138.007 31.914C138.166 31.914 138.343 31.9513 138.539 32.026C138.745 32.0913 138.922 32.2173 139.071 32.404C139.221 32.5813 139.295 32.838 139.295 33.174C139.295 33.5007 139.155 33.7807 138.875 34.014C138.605 34.2473 138.269 34.364 137.867 34.364Z" fill="black"/>
<path class="draw" d="M95.8699 60.764C98.7804 85.2419 108.092 96.13 137.417 99.9231" stroke="black" stroke-width="1.5" stroke-linecap="round"/>
<path class="draw" d="M130.534 87.7097C131.367 88.7486 141.156 98.0276 140.673 100.343C140.189 102.659 129.83 104.931 124.436 106.895" stroke="black" stroke-width="1.5" stroke-linecap="round"/>
</svg>
