<svg xmlns="http://www.w3.org/2000/svg" width="48" height="48" viewBox="0 0 48 48" fill="none" class = "ball">
  <path fill-rule="evenodd" clip-rule="evenodd" d="M4 24C4 12.9543 12.9543 4 24 4C23.4477 4 23 4.44772 23 5V43C23 43.5523 23.4477 44 24 44C12.9543 44 4 35.0457 4 24ZM28.3582 4.47623C37.3081 6.46525 44 14.4511 44 24C44 35.0457 35.0457 44 24 44C24.5523 44 25 43.5523 25 43V5C25 4.44772 24.5523 4 24 4C25.3901 4 26.747 4.14181 28.0572 4.41176C28.0382 4.4107 28.0192 4.41016 28 4.41016C27.4477 4.41016 27 4.85787 27 5.41016V6.95759C27 7.50988 27.4477 7.95759 28 7.95759C28.5523 7.95759 29 7.50988 29 6.95759V5.41016C29 4.9841 28.7336 4.62028 28.3582 4.47623ZM20 4.44141C20.5523 4.44141 21 4.88912 21 5.44141L21 6.98749C21 7.53977 20.5523 7.98749 20 7.98749C19.4477 7.98749 19 7.53977 19 6.98749L19 5.44141C19 4.88912 19.4477 4.44141 20 4.44141ZM20 9.07965C20.5523 9.07965 21 9.52736 21 10.0796L21 13.1718C21 13.7241 20.5523 14.1718 20 14.1718C19.4477 14.1718 19 13.7241 19 13.1718L19 10.0796C19 9.52736 19.4477 9.07965 20 9.07965ZM20 15.264C20.5523 15.264 21 15.7117 21 16.264L21 19.3561C21 19.9084 20.5523 20.3561 20 20.3561C19.4477 20.3561 19 19.9084 19 19.3561L19 16.264C19 15.7117 19.4477 15.264 20 15.264ZM20 21.4483C20.5523 21.4483 21 21.896 21 22.4483L21 25.5405C21 26.0927 20.5523 26.5405 20 26.5405C19.4477 26.5405 19 26.0927 19 25.5405L19 22.4483C19 21.896 19.4477 21.4483 20 21.4483ZM20 27.6326C20.5523 27.6326 21 28.0803 21 28.6326L21 31.7248C21 32.2771 20.5523 32.7248 20 32.7248C19.4477 32.7248 19 32.2771 19 31.7248L19 28.6326C19 28.0803 19.4477 27.6326 20 27.6326ZM20 33.8169C20.5523 33.8169 21 34.2647 21 34.8169L21 37.9091C21 38.4614 20.5523 38.9091 20 38.9091C19.4477 38.9091 19 38.4614 19 37.9091L19 34.8169C19 34.2647 19.4477 33.8169 20 33.8169ZM20 40.0013C20.5523 40.0013 21 40.449 21 41.0013L21 42.5473C21 43.0996 20.5523 43.5473 20 43.5473C19.4477 43.5473 19 43.0996 19 42.5473L19 41.0013C19 40.449 19.4477 40.0013 20 40.0013ZM29 10.0525C29 9.50019 28.5523 9.05247 28 9.05247C27.4477 9.05247 27 9.50019 27 10.0525V13.1473C27 13.6996 27.4477 14.1473 28 14.1473C28.5523 14.1473 29 13.6996 29 13.1473V10.0525ZM29 16.2422C29 15.6899 28.5523 15.2422 28 15.2422C27.4477 15.2422 27 15.6899 27 16.2422V19.3371C27 19.8894 27.4477 20.3371 28 20.3371C28.5523 20.3371 29 19.8894 29 19.3371V16.2422ZM29 22.432C29 21.8797 28.5523 21.432 28 21.432C27.4477 21.432 27 21.8797 27 22.432V25.5269C27 26.0791 27.4477 26.5269 28 26.5269C28.5523 26.5269 29 26.0791 29 25.5269V22.432ZM29 28.6217C29 28.0694 28.5523 27.6217 28 27.6217C27.4477 27.6217 27 28.0694 27 28.6217V31.7166C27 32.2689 27.4477 32.7166 28 32.7166C28.5523 32.7166 29 32.2689 29 31.7166V28.6217ZM29 34.8115C29 34.2592 28.5523 33.8115 28 33.8115C27.4477 33.8115 27 34.2592 27 34.8115V37.9064C27 38.4586 27.4477 38.9064 28 38.9064C28.5523 38.9064 29 38.4586 29 37.9064V34.8115ZM29 41.0012C29 40.4489 28.5523 40.0012 28 40.0012C27.4477 40.0012 27 40.4489 27 41.0012V42.5487C27 43.101 27.4477 43.5487 28 43.5487C28.5523 43.5487 29 43.101 29 42.5487V41.0012Z" fill="#1E3050"/>
  <style data-made-with="openStroke-instant">
     @keyframes bounce{0%,20%,50%,80%,100%{transform: translateY(0);}40%{transform:translateY(-20px);}60%{transform: translateY(-10px);}}.ball{animation:bounce 2s infinite;}</style>
</svg>