<svg width="48" height="49" viewBox="0 0 48 49" fill="none" xmlns="http://www.w3.org/2000/svg">
<path fill-rule="evenodd" clip-rule="evenodd" d="M20.226 15.8899C22.9988 15.9196 18.1172 30.1104 18.6412 36.2796C19.1698 42.5036 26.1551 40.7116 25.7117 37.1285C24.9574 31.0373 29.0729 11.9503 33.2468 11.9503C36.1754 11.9503 30.0033 25.1085 31.2177 33.5345C32.0213 39.1092 39.3144 37.1753 38.5733 33.8699C36.1216 22.9307 43.7176 12.4175 42.8664 4.96882C42.4941 1.70969 40.506 0.115837 38.5175 0.100246C31.5551 0.047436 26.1769 14.1245 26.1769 14.1245C26.1769 14.1245 26.7369 6.12359 21.3258 5.82987C13.0408 5.37973 4.83914 25.8222 5.07147 44.0753C5.14554 49.8985 12.4965 48.9067 12.11 44.2639C11.3912 35.6298 16.2737 15.8482 20.226 15.8899Z" fill="#1FB6FF"/>
</svg>
