<svg width="49" height="49" viewBox="0 0 49 49" fill="none" xmlns="http://www.w3.org/2000/svg">
<path fill-rule="evenodd" clip-rule="evenodd" d="M48.482 16.5191C48.4775 16.4876 48.47 16.4591 48.4655 16.4291C48.455 16.3706 48.4445 16.3121 48.4295 16.2566C48.4205 16.2221 48.407 16.1891 48.3965 16.1561C48.38 16.1051 48.3635 16.0556 48.344 16.0061C48.3305 15.9716 48.314 15.9371 48.2975 15.9056C48.2765 15.8576 48.254 15.8126 48.227 15.7691C48.209 15.7361 48.188 15.7046 48.1685 15.6731C48.1415 15.6296 48.113 15.5876 48.0815 15.5471C48.059 15.5171 48.035 15.4871 48.011 15.4586C47.978 15.4196 47.9435 15.3821 47.9075 15.3461C47.8805 15.3191 47.855 15.2906 47.8265 15.2666C47.7875 15.2321 47.7485 15.1991 47.7095 15.1676C47.678 15.1436 47.648 15.1196 47.6165 15.0971C47.6045 15.0896 47.594 15.0791 47.582 15.0716L25.6445 0.446598C24.9515 -0.0154023 24.05 -0.0154023 23.3555 0.446598L1.4195 15.0716C1.4075 15.0791 1.397 15.0896 1.385 15.0971C1.352 15.1196 1.322 15.1436 1.292 15.1676C1.2515 15.1991 1.2125 15.2321 1.175 15.2666C1.1465 15.2906 1.1195 15.3191 1.0925 15.3461C1.0565 15.3821 1.022 15.4196 0.9905 15.4586C0.965 15.4871 0.941 15.5171 0.9185 15.5471C0.8885 15.5876 0.86 15.6296 0.833 15.6731C0.812 15.7046 0.7925 15.7361 0.773 15.7691C0.7475 15.8126 0.725 15.8576 0.7025 15.9056C0.6875 15.9371 0.671 15.9716 0.6575 16.0061C0.6365 16.0556 0.62 16.1051 0.6035 16.1561C0.593 16.1891 0.581 16.2221 0.572 16.2566C0.557 16.3121 0.5465 16.3706 0.536 16.4291C0.53 16.4591 0.5225 16.4876 0.5195 16.5191C0.5075 16.6061 0.5 16.6961 0.5 16.7876V31.4126C0.5 31.5026 0.5075 31.5926 0.5195 31.6826C0.5225 31.7111 0.53 31.7411 0.536 31.7711C0.5465 31.8296 0.557 31.8866 0.572 31.9436C0.581 31.9781 0.593 32.0111 0.6035 32.0441C0.62 32.0936 0.6365 32.1446 0.6575 32.1956C0.671 32.2286 0.6875 32.2616 0.7025 32.2946C0.725 32.3411 0.7475 32.3861 0.773 32.4326C0.7925 32.4641 0.812 32.4956 0.833 32.5271C0.86 32.5706 0.8885 32.6111 0.9185 32.6516C0.941 32.6831 0.965 32.7131 0.9905 32.7416C1.022 32.7791 1.0565 32.8181 1.0925 32.8526C1.1195 32.8811 1.1465 32.9081 1.175 32.9336C1.2125 32.9681 1.2515 33.0011 1.292 33.0326C1.322 33.0566 1.352 33.0806 1.385 33.1031C1.397 33.1106 1.4075 33.1211 1.4195 33.1286L23.3555 47.7536C23.702 47.9846 24.101 48.1001 24.5 48.1001C24.899 48.1001 25.298 47.9846 25.6445 47.7536L47.582 33.1286C47.594 33.1211 47.6045 33.1106 47.6165 33.1031C47.648 33.0806 47.678 33.0566 47.7095 33.0326C47.7485 33.0011 47.7875 32.9681 47.8265 32.9336C47.855 32.9081 47.8805 32.8811 47.9075 32.8526C47.9435 32.8181 47.978 32.7791 48.011 32.7416C48.035 32.7131 48.059 32.6831 48.0815 32.6516C48.113 32.6111 48.1415 32.5706 48.1685 32.5271C48.188 32.4956 48.209 32.4641 48.227 32.4326C48.254 32.3861 48.2765 32.3411 48.2975 32.2946C48.314 32.2616 48.3305 32.2286 48.344 32.1956C48.3635 32.1446 48.38 32.0936 48.3965 32.0441C48.407 32.0111 48.4205 31.9781 48.4295 31.9436C48.4445 31.8866 48.455 31.8296 48.4655 31.7711C48.47 31.7411 48.4775 31.7111 48.482 31.6826C48.494 31.5926 48.5 31.5026 48.5 31.4126V16.7876C48.5 16.6961 48.494 16.6061 48.482 16.5191ZM26.5625 6.01807L42.7235 16.7911L35.5055 21.6196L26.5625 15.6376V6.01807ZM22.4375 6.01807V15.6376L13.496 21.6196L6.27649 16.7911L22.4375 6.01807ZM4.625 20.6489L9.7865 24.1004L4.625 27.5519V20.6489ZM22.4375 42.1825L6.27649 31.4095L13.496 26.5825L22.4375 32.563V42.1825ZM24.5 28.9792L17.2055 24.0997L24.5 19.2202L31.796 24.0997L24.5 28.9792ZM26.5625 42.1825V32.563L35.5055 26.5825L42.7235 31.4095L26.5625 42.1825ZM44.375 27.5519L39.215 24.1004L44.375 20.6489V27.5519Z" fill="#0B0B0A"/>
</svg>
