<svg width="48" height="49" viewBox="0 0 48 49" fill="none" xmlns="http://www.w3.org/2000/svg">
<g clip-path="url(#clip0_11330_136239)">
<path d="M24 48.1001C36.9787 48.1001 47.5 37.3549 47.5 24.1001C47.5 10.8453 36.9787 0.100098 24 0.100098C11.0213 0.100098 0.5 10.8453 0.5 24.1001C0.5 37.3549 11.0213 48.1001 24 48.1001Z" fill="#7D2AE7"/>
<path d="M24 48.1001C36.9787 48.1001 47.5 37.3549 47.5 24.1001C47.5 10.8453 36.9787 0.100098 24 0.100098C11.0213 0.100098 0.5 10.8453 0.5 24.1001C0.5 37.3549 11.0213 48.1001 24 48.1001Z" fill="url(#paint0_radial_11330_136239)"/>
<path d="M24 48.1001C36.9787 48.1001 47.5 37.3549 47.5 24.1001C47.5 10.8453 36.9787 0.100098 24 0.100098C11.0213 0.100098 0.5 10.8453 0.5 24.1001C0.5 37.3549 11.0213 48.1001 24 48.1001Z" fill="url(#paint1_radial_11330_136239)"/>
<path d="M24 48.1001C36.9787 48.1001 47.5 37.3549 47.5 24.1001C47.5 10.8453 36.9787 0.100098 24 0.100098C11.0213 0.100098 0.5 10.8453 0.5 24.1001C0.5 37.3549 11.0213 48.1001 24 48.1001Z" fill="url(#paint2_radial_11330_136239)"/>
<path d="M24 48.1001C36.9787 48.1001 47.5 37.3549 47.5 24.1001C47.5 10.8453 36.9787 0.100098 24 0.100098C11.0213 0.100098 0.5 10.8453 0.5 24.1001C0.5 37.3549 11.0213 48.1001 24 48.1001Z" fill="url(#paint3_radial_11330_136239)"/>
<path d="M34.1456 29.0235C33.9516 29.0235 33.7809 29.1908 33.6033 29.5561C31.5977 33.7096 28.1335 36.6485 24.1248 36.6485C19.4896 36.6485 16.6192 32.3752 16.6192 26.4717C16.6192 16.4717 22.0748 10.6899 26.8667 10.6899C29.1059 10.6899 30.4734 12.127 30.4734 14.4139C30.4734 17.1282 28.9634 18.5653 28.9634 19.5225C28.9634 19.9522 29.2252 20.2124 29.7441 20.2124C31.8292 20.2124 34.2764 17.7656 34.2764 14.3089C34.2764 10.9572 31.4201 8.49365 26.6283 8.49365C18.7089 8.49365 11.6708 15.9919 11.6708 26.3666C11.6708 34.3973 16.1611 39.704 23.0893 39.704C30.4429 39.704 34.695 32.232 34.695 29.8067C34.695 29.2696 34.4261 29.0235 34.1456 29.0235Z" fill="white"/>
</g>
<defs>
<radialGradient id="paint0_radial_11330_136239" cx="0" cy="0" r="1" gradientUnits="userSpaceOnUse" gradientTransform="translate(9.57863 42.6435) rotate(-50.011) scale(36.7986 36.6719)">
<stop stop-color="#6420FF"/>
<stop offset="1" stop-color="#6420FF" stop-opacity="0"/>
</radialGradient>
<radialGradient id="paint1_radial_11330_136239" cx="0" cy="0" r="1" gradientUnits="userSpaceOnUse" gradientTransform="translate(12.9426 5.55684) rotate(55.2698) scale(41.5749 41.277)">
<stop stop-color="#00C4CC"/>
<stop offset="1" stop-color="#00C4CC" stop-opacity="0"/>
</radialGradient>
<radialGradient id="paint2_radial_11330_136239" cx="0" cy="0" r="1" gradientUnits="userSpaceOnUse" gradientTransform="translate(9.57842 42.6433) rotate(-45.7984) scale(36.2971 16.6874)">
<stop stop-color="#6420FF"/>
<stop offset="1" stop-color="#6420FF" stop-opacity="0"/>
</radialGradient>
<radialGradient id="paint3_radial_11330_136239" cx="0" cy="0" r="1" gradientUnits="userSpaceOnUse" gradientTransform="translate(19.7205 6.56747) rotate(66.9575) scale(37.6663 62.1919)">
<stop stop-color="#00C4CC" stop-opacity="0.725916"/>
<stop offset="0.0001" stop-color="#00C4CC"/>
<stop offset="1" stop-color="#00C4CC" stop-opacity="0"/>
</radialGradient>
<clipPath id="clip0_11330_136239">
<rect width="47" height="48" fill="white" transform="translate(0.5 0.100098)"/>
</clipPath>
</defs>
</svg>
