<svg width="48" height="49" viewBox="0 0 48 49" fill="none" xmlns="http://www.w3.org/2000/svg">
<path fill-rule="evenodd" clip-rule="evenodd" d="M10.9939 3.92232L24.3333 2.5L37.6727 3.92232L48 17.9045L24.3333 45.7L0.666626 17.9045L10.9939 3.92232Z" fill="#1E3050"/>
<path fill-rule="evenodd" clip-rule="evenodd" d="M10.2528 17.9043L24.3333 45.6998L0.666626 17.9043H10.2528Z" fill="#EA6C00"/>
<path fill-rule="evenodd" clip-rule="evenodd" d="M38.4138 17.9043L24.3332 45.6998L47.9999 17.9043H38.4138Z" fill="#EA6C00"/>
<path fill-rule="evenodd" clip-rule="evenodd" d="M10.2535 17.9043H38.4145L24.334 45.6998L10.2535 17.9043Z" fill="#FDAD00"/>
<path fill-rule="evenodd" clip-rule="evenodd" d="M24.3329 2.5L10.9935 3.9223L10.2524 17.9045L24.3329 2.5Z" fill="#FDD231"/>
<path fill-rule="evenodd" clip-rule="evenodd" d="M24.3329 2.5L37.6723 3.9223L38.4134 17.9045L24.3329 2.5Z" fill="#FDD231"/>
<path fill-rule="evenodd" clip-rule="evenodd" d="M47.9993 17.9065L37.6719 3.92432L38.4131 17.9065H47.9993Z" fill="#FDAD00"/>
<path fill-rule="evenodd" clip-rule="evenodd" d="M0.666626 17.9065L10.9939 3.92432L10.2528 17.9065H0.666626Z" fill="#FDAD00"/>
<path fill-rule="evenodd" clip-rule="evenodd" d="M24.3329 2.5L10.2524 17.9045H38.4134L24.3329 2.5Z" fill="#FEEEB7"/>
</svg>
