<svg width="48" height="49" viewBox="0 0 48 49" fill="none" xmlns="http://www.w3.org/2000/svg">
<path fill-rule="evenodd" clip-rule="evenodd" d="M42.24 17.9879C42.24 8.10874 34.0737 0.100098 24 0.100098C13.9263 0.100098 5.76001 8.10874 5.76001 17.9879L5.76387 40.2222C7.83332 40.2242 9.51029 41.8701 9.51029 43.9C9.51029 45.157 8.86727 46.2668 7.88622 46.9301C11.232 49.4294 17.357 47.9244 17.356 42.4156L17.3518 17.9869C17.3518 14.3871 20.3283 11.468 24 11.468C27.6717 11.468 30.6482 14.3871 30.6482 17.9879C30.6482 21.5887 27.8422 24.5077 24.1705 24.5077C20.9695 24.5077 18.3746 27.0525 18.3746 30.1917C18.3746 33.3309 20.9695 35.8757 24.1705 35.8757C34.2442 35.8757 42.24 27.8671 42.24 17.9879ZM24.1705 33.8694C26.2417 33.8694 27.9208 32.2228 27.9208 30.1915C27.9208 28.1603 26.2417 26.5137 24.1705 26.5137C22.0993 26.5137 20.4202 28.1603 20.4202 30.1915C20.4202 32.2228 22.0993 33.8694 24.1705 33.8694Z" fill="url(#paint0_linear_11330_136235)"/>
<defs>
<linearGradient id="paint0_linear_11330_136235" x1="-3.08593" y1="18.8239" x2="21.8056" y2="50.1945" gradientUnits="userSpaceOnUse">
<stop stop-color="#C36AD5"/>
<stop offset="0.126866" stop-color="#AE5CCC"/>
<stop offset="0.565942" stop-color="#7234B1"/>
<stop offset="1" stop-color="#54219F"/>
</linearGradient>
</defs>
</svg>
