<svg width="49" height="49" viewBox="0 0 49 49" fill="none" xmlns="http://www.w3.org/2000/svg">
<path fill-rule="evenodd" clip-rule="evenodd" d="M44.1487 0.100098H4.85127C2.44818 0.100098 0.5 2.04828 0.5 4.45137V43.7488C0.5 46.1519 2.44818 48.1001 4.85127 48.1001H44.1487C46.5518 48.1001 48.5 46.1519 48.5 43.7488V4.45137C48.5 2.04828 46.5518 0.100098 44.1487 0.100098ZM16.542 15.2022C18.1376 15.2022 19.4742 13.9515 19.4742 12.3124C19.4742 10.6744 18.1376 9.424 16.542 9.424C14.9464 9.424 13.61 10.6744 13.61 12.3124C13.61 13.9515 14.9464 15.2022 16.542 15.2022ZM10.4616 30.6748C10.2895 31.4079 10.2029 32.1996 10.2029 32.8454C10.2029 35.3899 11.5827 37.0792 14.5151 37.0792C16.9471 37.0792 18.9186 35.6348 20.338 33.303L19.4713 36.7818H24.3004L27.0604 25.7119C27.7502 22.909 29.0869 21.4543 31.1138 21.4543C32.7093 21.4543 33.7011 22.4465 33.7011 24.0845C33.7011 24.5592 33.6578 25.0761 33.4855 25.6368L32.0622 30.725C31.8466 31.4581 31.7607 32.1918 31.7607 32.881C31.7607 35.2967 33.1835 37.0636 36.1587 37.0636C38.7029 37.0636 40.7295 35.4258 41.8507 31.5016L39.9537 30.769C39.0047 33.3981 38.1855 33.8734 37.5387 33.8734C36.8918 33.8734 36.5467 33.4425 36.5467 32.5805C36.5467 32.1925 36.6333 31.7618 36.7624 31.2432L38.1426 26.2859C38.4873 25.1219 38.6169 24.0898 38.6169 23.1414C38.6169 19.433 36.3744 17.4978 33.6578 17.4978C31.1138 17.4978 28.5264 19.7925 27.2331 22.2076L28.1815 17.8727H20.808L19.7729 21.6908H23.2227L21.0986 30.1959C19.4302 33.9043 16.3658 33.9645 15.9813 33.8783C15.3498 33.7359 14.946 33.4961 14.946 32.6756C14.946 32.2021 15.0322 31.5221 15.2478 30.7021L18.4822 17.8727H10.2895L9.25438 21.6908H12.6607L10.4616 30.6748Z" fill="#FF3366"/>
</svg>
