<svg width="49" height="49" viewBox="0 0 49 49" fill="none" xmlns="http://www.w3.org/2000/svg">
<g clip-path="url(#clip0_11330_136228)">
<path d="M40.3334 0.100098H8.33337C3.9151 0.100098 0.333374 3.68182 0.333374 8.1001V40.1001C0.333374 44.5184 3.9151 48.1001 8.33337 48.1001H40.3334C44.7517 48.1001 48.3334 44.5184 48.3334 40.1001V8.1001C48.3334 3.68182 44.7517 0.100098 40.3334 0.100098Z" fill="#001E36"/>
<path fill-rule="evenodd" clip-rule="evenodd" d="M11.1334 13.1311V33.3593C11.1334 33.5362 11.2134 33.6148 11.3734 33.6148H15.2534C15.3934 33.5952 15.4934 33.4772 15.4734 33.3396V27.0294C15.8534 27.0294 16.1334 27.0294 16.3334 27.049C16.5334 27.0687 16.8534 27.0687 17.3334 27.0687C18.9734 27.0687 20.4734 26.8917 21.8334 26.4003C23.1334 25.9285 24.2534 25.1029 25.0534 24.002C25.8534 22.9011 26.2534 21.5054 26.2534 19.8148C26.2534 18.9302 26.0934 18.0849 25.7934 17.2593C25.4734 16.414 24.9734 15.6473 24.3334 15.0182C23.5734 14.2909 22.6534 13.7405 21.6534 13.4063C20.5334 12.9935 19.1734 12.7969 17.5334 12.7969C16.9334 12.7969 16.3334 12.7969 15.7134 12.8165C15.4141 12.826 15.1241 12.8309 14.8434 12.8357C14.5427 12.8408 14.2527 12.8457 13.9734 12.8558C13.7115 12.8654 13.459 12.8703 13.2136 12.8751C12.9531 12.8801 12.7006 12.885 12.4534 12.8952C11.9934 12.9148 11.6734 12.9148 11.3334 12.9148C11.1934 12.9148 11.1334 12.9935 11.1334 13.1311ZM15.4934 23.314V16.7088C15.6334 16.6892 15.9134 16.6695 16.3134 16.6892C16.6934 16.6695 17.1534 16.6695 17.6734 16.6695C18.4934 16.6499 19.2934 16.7678 20.0334 17.0627C20.6134 17.2789 21.0934 17.6721 21.4334 18.1832C21.7534 18.714 21.9134 19.3234 21.8934 19.9328C21.8934 20.7977 21.6934 21.4661 21.2734 21.9576C20.8334 22.449 20.2734 22.8225 19.6334 22.9994C18.8934 23.2353 18.1134 23.3533 17.3334 23.3533H16.2734C16.0506 23.3533 15.8106 23.3363 15.5534 23.3182C15.5335 23.3168 15.5135 23.3154 15.4934 23.314Z" fill="#31A8FF"/>
<path d="M35.8134 21.4465C36.4934 21.5841 37.1334 21.8003 37.7334 22.1149C37.8134 22.1542 37.9134 22.1542 38.0934 22.1149C38.1534 22.0755 38.1934 21.9969 38.1934 21.9183V18.714C38.1934 18.6354 38.1734 18.5567 38.1534 18.4781C38.1134 18.3995 38.0334 18.3208 37.9534 18.3012C37.4134 18.0849 36.8334 17.9277 36.2334 17.849C35.4134 17.7311 34.5734 17.6721 33.7534 17.6721C32.3334 17.6721 31.1534 17.8884 30.2134 18.3602C29.3534 18.7533 28.6134 19.3824 28.1134 20.1687C27.6734 20.896 27.4334 21.702 27.4334 22.5473C27.4134 23.2354 27.5734 23.9234 27.8934 24.5525C28.2734 25.2208 28.7934 25.7909 29.4134 26.2234C30.2934 26.8131 31.2334 27.2849 32.2534 27.6388C33.2334 28.0123 33.8934 28.3072 34.2134 28.5627C34.5334 28.8183 34.6934 29.0738 34.6934 29.349C34.6934 29.7029 34.4734 30.0371 34.1534 30.1747C33.7934 30.3516 33.2534 30.4499 32.4934 30.4499C31.6934 30.4499 30.8934 30.3516 30.1334 30.155C29.2534 29.9584 28.4334 29.6439 27.6534 29.1918C27.5934 29.1525 27.5334 29.1328 27.4734 29.1721C27.4134 29.2114 27.3934 29.2901 27.3934 29.349V32.7696C27.3734 32.9268 27.4734 33.0644 27.6134 33.1431C28.2534 33.4379 28.9534 33.6542 29.6534 33.7721C30.5534 33.949 31.4534 34.0277 32.3734 34.0277C33.8134 34.0277 35.0134 33.8114 35.9934 33.3986C36.8934 33.0448 37.6734 32.4354 38.2334 31.649C38.7534 30.8824 39.0334 29.9584 39.0134 29.0345C39.0334 28.3268 38.8734 27.6388 38.5534 27.0097C38.1734 26.3413 37.6334 25.7909 36.9734 25.3781C36.0134 24.7884 34.9734 24.2969 33.8934 23.9431C33.4134 23.7465 32.9334 23.5302 32.4734 23.2943C32.2134 23.1567 31.9734 22.9798 31.7934 22.7636C31.6734 22.6063 31.5934 22.4294 31.5934 22.2525C31.5934 22.0755 31.6534 21.879 31.7534 21.7217C31.8934 21.5251 32.1134 21.3875 32.3734 21.3285C32.7534 21.2302 33.1734 21.1713 33.5734 21.1909C34.3334 21.1909 35.0734 21.2892 35.8134 21.4465Z" fill="#31A8FF"/>
</g>
<defs>
<clipPath id="clip0_11330_136228">
<rect width="48" height="48" fill="white" transform="translate(0.333374 0.100098)"/>
</clipPath>
</defs>
</svg>
