<svg width="49" height="49" viewBox="0 0 49 49" fill="none" xmlns="http://www.w3.org/2000/svg">
<g clip-path="url(#clip0_11330_136240)">
<path d="M24.5 28.3076C26.8628 28.3076 28.7783 26.4238 28.7783 24.1001C28.7783 21.7763 26.8628 19.8926 24.5 19.8926C22.1372 19.8926 20.2217 21.7763 20.2217 24.1001C20.2217 26.4238 22.1372 28.3076 24.5 28.3076Z" fill="#61DAFB"/>
<path d="M24.5 32.7204C37.1785 32.7204 47.4565 28.861 47.4565 24.1002C47.4565 19.3394 37.1785 15.48 24.5 15.48C11.8214 15.48 1.54346 19.3394 1.54346 24.1002C1.54346 28.861 11.8214 32.7204 24.5 32.7204Z" stroke="#61DAFB" stroke-width="2"/>
<path d="M16.9091 28.4101C23.2483 39.2084 31.7859 46.0325 35.9782 43.6521C40.1706 41.2717 38.4301 30.5882 32.0909 19.7899C25.7516 8.99156 17.214 2.1675 13.0217 4.54791C8.82937 6.92832 10.5698 17.6118 16.9091 28.4101Z" stroke="#61DAFB" stroke-width="2"/>
<path d="M16.9091 19.7898C10.5698 30.5881 8.82939 41.2716 13.0217 43.652C17.2141 46.0324 25.7516 39.2083 32.0909 28.41C38.4302 17.6117 40.1706 6.92821 35.9783 4.54779C31.7859 2.16738 23.2484 8.99144 16.9091 19.7898Z" stroke="#61DAFB" stroke-width="2"/>
</g>
<defs>
<clipPath id="clip0_11330_136240">
<rect width="48" height="48" fill="white" transform="translate(0.5 0.100098)"/>
</clipPath>
</defs>
</svg>
