<svg width="48" height="49" viewBox="0 0 48 49" fill="none" xmlns="http://www.w3.org/2000/svg">
<path d="M23.6666 24.1001C23.6666 21.9784 24.4978 19.9435 25.9772 18.4432C27.4567 16.943 29.4633 16.1001 31.5555 16.1001C33.6478 16.1001 35.6543 16.943 37.1338 18.4432C38.6133 19.9435 39.4444 21.9784 39.4444 24.1001C39.4444 26.2218 38.6133 28.2567 37.1338 29.757C35.6543 31.2572 33.6478 32.1001 31.5555 32.1001C29.4633 32.1001 27.4567 31.2572 25.9772 29.757C24.4978 28.2567 23.6666 26.2218 23.6666 24.1001Z" fill="#1ABCFE"/>
<path d="M7.88892 40.1001C7.88892 37.9784 8.72006 35.9435 10.1995 34.4432C11.679 32.943 13.6855 32.1001 15.7778 32.1001H23.6667V40.1001C23.6667 42.2218 22.8355 44.2567 21.3561 45.7569C19.8766 47.2572 17.8701 48.1001 15.7778 48.1001C13.6855 48.1001 11.679 47.2572 10.1995 45.7569C8.72006 44.2567 7.88892 42.2218 7.88892 40.1001H7.88892Z" fill="#0ACF83"/>
<path d="M23.6666 0.100098V16.1001H31.5555C33.6478 16.1001 35.6543 15.2572 37.1338 13.757C38.6133 12.2567 39.4444 10.2218 39.4444 8.1001C39.4444 5.97837 38.6133 3.94353 37.1338 2.44324C35.6543 0.942952 33.6478 0.100098 31.5555 0.100098L23.6666 0.100098Z" fill="#FF7262"/>
<path d="M7.88892 8.1001C7.88892 10.2218 8.72006 12.2567 10.1995 13.757C11.679 15.2572 13.6855 16.1001 15.7778 16.1001H23.6667V0.100098H15.7778C13.6855 0.100098 11.679 0.942952 10.1995 2.44324C8.72006 3.94353 7.88892 5.97837 7.88892 8.1001H7.88892Z" fill="#F24E1E"/>
<path d="M7.88892 24.1001C7.88892 26.2218 8.72006 28.2567 10.1995 29.757C11.679 31.2572 13.6855 32.1001 15.7778 32.1001H23.6667V16.1001H15.7778C13.6855 16.1001 11.679 16.943 10.1995 18.4432C8.72006 19.9435 7.88892 21.9784 7.88892 24.1001H7.88892Z" fill="#A259FF"/>
</svg>
