<svg width="49" height="49" viewBox="0 0 49 49" fill="none" xmlns="http://www.w3.org/2000/svg">
<g clip-path="url(#clip0_11330_136229)">
<path d="M40.3333 0.100098H8.33325C3.91497 0.100098 0.333252 3.68182 0.333252 8.1001V40.1001C0.333252 44.5184 3.91498 48.1001 8.33325 48.1001H40.3333C44.7515 48.1001 48.3333 44.5184 48.3333 40.1001V8.1001C48.3333 3.68182 44.7515 0.100098 40.3333 0.100098Z" fill="#330000"/>
<path d="M23.5332 29.6215H16.0932L14.5732 34.2412C14.5332 34.4181 14.3732 34.5361 14.1932 34.5164H10.4332C10.2132 34.5164 10.1532 34.3985 10.2132 34.1626L16.6532 15.9395C16.7132 15.7429 16.7732 15.5267 16.8532 15.2908C16.9332 14.8779 16.9732 14.4455 16.9732 14.013C16.9532 13.9147 17.0332 13.8164 17.1332 13.7968H22.3132C22.4732 13.7968 22.5532 13.8557 22.5732 13.954L29.8732 34.2019C29.9332 34.4181 29.8732 34.5164 29.6732 34.5164H25.4932C25.3532 34.5361 25.2132 34.4378 25.1732 34.3002L23.5332 29.6215ZM17.2532 25.6309H22.3332C22.2132 25.2181 22.0532 24.7267 21.8732 24.2156C21.6932 23.6848 21.5132 23.1147 21.3332 22.525C21.1332 21.9156 20.9532 21.3258 20.7532 20.7164C20.5532 20.107 20.3732 19.5369 20.2132 18.9668C20.0532 18.4164 19.9132 17.9053 19.7732 17.4335H19.7332C19.5532 18.2788 19.3332 19.1241 19.0532 19.9694C18.7532 20.913 18.4532 21.8959 18.1332 22.8788C17.8532 23.8814 17.5532 24.8053 17.2532 25.6309ZM34.3332 17.2369C33.6732 17.2566 33.0332 17.001 32.5532 16.5489C32.0932 16.0574 31.8532 15.4087 31.8732 14.7403C31.8532 14.072 32.1132 13.4429 32.5932 12.9908C33.0732 12.5386 33.7132 12.3027 34.3732 12.3027C35.1532 12.3027 35.7532 12.5386 36.1932 12.9908C36.6332 13.4626 36.8732 14.0916 36.8532 14.7403C36.8732 15.4087 36.6332 16.0574 36.1532 16.5489C35.6932 17.0207 35.0132 17.2762 34.3332 17.2369ZM32.0932 34.3002V19.1634C32.0932 18.9668 32.1732 18.8882 32.3532 18.8882H36.3132C36.4932 18.8882 36.5732 18.9865 36.5732 19.1634V34.3002C36.5732 34.5164 36.4932 34.6147 36.3132 34.6147H32.3932C32.1932 34.6147 32.0932 34.4968 32.0932 34.3002Z" fill="#FF9A00"/>
</g>
<defs>
<clipPath id="clip0_11330_136229">
<rect width="48" height="48" fill="white" transform="translate(0.333252 0.100098)"/>
</clipPath>
</defs>
</svg>
