<svg width="48" height="49" viewBox="0 0 48 49" fill="none" xmlns="http://www.w3.org/2000/svg">
<g clip-path="url(#clip0_11330_136234)">
<path fill-rule="evenodd" clip-rule="evenodd" d="M1.87292 31.2129C-0.30929 20.8423 5.8586 9.50085 14.5719 3.9304C27.8598 -4.56454 47.0162 2.15578 46.6445 19.6629C46.3838 31.9389 37.9785 40.4672 27.0824 44.854C23.7202 46.2076 19.0757 46.6021 18.1402 41.9847C17.748 40.0489 18.8088 38.7553 19.8369 37.5018C20.7565 36.3804 21.6499 35.2911 21.4533 33.8025C21.1909 31.8152 18.6538 30.1887 16.8272 31.2554C15.5688 31.9903 14.4754 33.2224 13.3687 34.4696C11.5614 36.5061 9.71871 38.5826 7.06446 38.5987C3.51711 38.6203 2.43714 33.8943 1.87292 31.2129ZM26 29.1001C27.6569 29.1001 29 27.757 29 26.1001C29 24.4432 27.6569 23.1001 26 23.1001C24.3431 23.1001 23 24.4432 23 26.1001C23 27.757 24.3431 29.1001 26 29.1001Z" fill="#1E3050"/>
<path d="M38.4382 21.3916C37.5357 21.3916 35.0155 22.2947 35.0584 23.4149L35.9338 46.2955C35.9766 47.4156 36.6604 48.1001 37.5628 48.1001C38.4653 48.1001 39.149 47.4157 39.1917 46.2955L40.0639 23.4181C40.1066 22.298 39.3406 21.3916 38.4382 21.3916Z" fill="white"/>
<path fill-rule="evenodd" clip-rule="evenodd" d="M35.6958 40.0772L35.9337 46.2959C35.9766 47.416 36.6603 48.1005 37.5628 48.1005C38.4652 48.1005 39.149 47.416 39.1917 46.2959L39.5587 36.6689C38.3833 37.9004 37.0887 39.037 35.6958 40.0772Z" fill="#1E3050"/>
<path fill-rule="evenodd" clip-rule="evenodd" d="M31.9058 14.8055C31.9058 14.158 32.4269 13.6367 33.0745 13.6367H42.0096C42.6571 13.6367 43.1784 14.158 43.1784 14.8055C43.1742 15.0601 43.0368 15.3556 42.8836 15.622L40.067 20.8831H40.0669V24.0811H35.0586V20.8831H35.0586C34.8141 20.4412 34.5513 19.98 34.2801 19.504C33.4904 18.118 32.6292 16.6064 31.9395 15.0814C31.9182 14.9929 31.9058 14.9008 31.9058 14.8055Z" fill="white"/>
<path d="M8.16777 28.0191C10.4434 28.0191 12.2882 26.1744 12.2882 23.8987C12.2882 21.6231 10.4434 19.7783 8.16777 19.7783C5.89213 19.7783 4.04736 21.6231 4.04736 23.8987C4.04736 26.1744 5.89213 28.0191 8.16777 28.0191Z" fill="white"/>
<path d="M13.4291 17.6256C15.7048 17.6256 17.5495 15.7808 17.5495 13.5052C17.5495 11.2295 15.7048 9.38477 13.4291 9.38477C11.1535 9.38477 9.30872 11.2295 9.30872 13.5052C9.30872 15.7808 11.1535 17.6256 13.4291 17.6256Z" fill="white"/>
<path d="M24.777 13.3443C27.0527 13.3443 28.8974 11.4996 28.8974 9.22392C28.8974 6.94828 27.0527 5.10352 24.777 5.10352C22.5014 5.10352 20.6566 6.94828 20.6566 9.22392C20.6566 11.4996 22.5014 13.3443 24.777 13.3443Z" fill="white"/>
</g>
<defs>
<clipPath id="clip0_11330_136234">
<rect width="48" height="48" fill="white" transform="translate(0 0.100098)"/>
</clipPath>
</defs>
</svg>
