<svg width="49" height="49" viewBox="0 0 49 49" fill="none" xmlns="http://www.w3.org/2000/svg">
<path fill-rule="evenodd" clip-rule="evenodd" d="M6.74002 43.2251L2.90002 0.100098H45.14L41.3 43.2251L23.9732 48.1001" fill="#E34C26"/>
<path d="M39.1793 40.8778L42.548 3.04541H24.02L23.9789 45.1545L39.1793 40.8778Z" fill="#F06529"/>
<path d="M17.0431 19.6001L16.5748 14.1626H36.8039L36.8975 13.0376L37.1785 10.3188L37.2721 8.9126H10.7679L10.8616 10.3188L12.1728 24.9438H30.5292L29.8736 31.7876L23.9731 33.3813L18.0726 31.7876L17.698 27.5688H12.4531L13.1087 35.9126L23.9731 38.9126H24.0668V38.8867L34.8375 35.9126L34.9311 34.9751L36.1487 21.0063L36.336 19.6001H17.0431Z" fill="white"/>
</svg>
