<svg width="49" height="49" viewBox="0 0 49 49" fill="none" xmlns="http://www.w3.org/2000/svg">
<g clip-path="url(#clip0_11330_136230)">
<path d="M48.3333 4.78747C48.3333 2.20044 46.2329 0.100098 43.6457 0.100098H5.02114C2.43394 0.100098 0.333252 2.20044 0.333252 4.78747V43.4122C0.333252 45.9994 2.43394 48.1001 5.02114 48.1001H43.6459C46.2329 48.1001 48.3333 45.9994 48.3333 43.4122V4.78747Z" fill="#134881"/>
<path d="M44.8181 42.7241C44.8098 43.752 43.9727 44.5846 42.943 44.5846H24.0202L15.9318 30.5749H44.8181V42.7241ZM3.84937 42.7093V34.4837L21.6707 3.61572H28.6354L13.5797 29.694L22.1763 44.5844H5.72428C4.68937 44.5844 3.84937 43.7442 3.84937 42.7093ZM26.6854 28.9772H19.6439C18.8576 28.9772 18.1313 28.5648 17.7387 27.8837C17.3451 27.2031 17.3451 26.3641 17.7387 25.6835L21.261 19.5817L26.6854 28.9772ZM42.9431 3.61572C43.9729 3.61572 44.81 4.44818 44.8182 5.47641V28.9772H28.5301L22.183 17.9852L30.4791 3.61572H42.9431Z" fill="url(#paint0_radial_11330_136230)"/>
</g>
<defs>
<radialGradient id="paint0_radial_11330_136230" cx="0" cy="0" r="1" gradientUnits="userSpaceOnUse" gradientTransform="translate(35.1808 -4.10967) scale(48.6651)">
<stop stop-color="#6BE1FB"/>
<stop offset="1" stop-color="#38BDFA"/>
</radialGradient>
<clipPath id="clip0_11330_136230">
<rect width="48" height="48" fill="white" transform="translate(0.333252 0.100098)"/>
</clipPath>
</defs>
</svg>
