<svg width="48" height="49" viewBox="0 0 48 49" fill="none" xmlns="http://www.w3.org/2000/svg">
<g clip-path="url(#clip0_11330_136233)">
<path d="M22.2913 41.2861L21.5002 40.6917C12.0494 32.583 -0.910281 5.32063 19.5172 0.292856C20.1901 0.126825 20.2073 0.126288 20.6129 0.113626C20.7096 0.110608 20.8284 0.1069 20.9834 0.100098C4.93318 6.41935 15.7622 31.057 22.2913 41.2861Z" fill="#61A706"/>
<path d="M23.0717 41.4788L22.8608 40.8813C22.5843 39.858 22.2919 38.9484 22.0042 38.0538C21.7871 37.3785 21.5727 36.7116 21.37 36.0109L20.6528 33.1999C18.5257 25.0044 15.618 11.1805 20.1711 3.16493C21.029 1.65499 22.9487 -0.208335 24.9387 0.559485C26.7705 1.26626 27.8112 3.08783 28.5038 4.67808C29.4109 6.75023 29.868 9.22717 30.0368 11.4439C30.4833 17.3102 29.5656 23.1636 28.3421 28.9078C27.8921 31.0249 25.7227 39.3199 24.8965 41.2636L24.7031 41.6812L24.5449 41.7519L23.2053 41.7455L23.0717 41.4788Z" fill="#61A706"/>
<path d="M21.1204 48.1001L19.9637 43.8723L27.7549 43.8016L26.6755 48.1001H21.1204Z" fill="#61A706"/>
<path d="M26.4998 40.6917L25.7087 41.2861C32.2412 31.057 43.0668 6.41935 27.0166 0.100098C27.1716 0.1069 27.2903 0.110608 27.387 0.113626C27.7927 0.126288 27.8099 0.126825 28.4827 0.292856C48.9102 5.32063 35.9505 32.583 26.4998 40.6917Z" fill="#61A706"/>
<path d="M12.9249 2.26541C8.90619 3.97453 5.81921 7.68513 5.1547 11.7106L5 13.4197L5.01758 14.7947L5.22853 16.3111L5.34456 17.0339C6.92672 24.9916 14.1625 35.423 20.5298 40.952C11.726 30.2185 -1.56071 13.2398 12.9249 2.26541Z" fill="#61A706"/>
<path d="M42.8453 11.7106C42.1808 7.68513 39.0938 3.97453 35.0751 2.26541C49.5607 13.2398 36.274 30.2185 27.4667 40.952C33.834 35.423 41.0698 24.9916 42.6519 17.0339L42.768 16.3111L42.9789 14.7947L43 13.4197L42.8453 11.7106Z" fill="#61A706"/>
</g>
<defs>
<clipPath id="clip0_11330_136233">
<rect width="48" height="48" fill="white" transform="translate(0 0.100098)"/>
</clipPath>
</defs>
</svg>
