<svg xmlns="http://www.w3.org/2000/svg" width="48" height="48" viewBox="0 0 48 48" fill="none" class="dollar">
  <path fill-rule="evenodd" clip-rule="evenodd" d="M24 4C12.9543 4 4 12.9543 4 24C4 35.0457 12.9543 44 24 44C35.0457 44 44 35.0457 44 24C44 12.9543 35.0457 4 24 4ZM22.5 10.5824C15.7501 11.3286 10.5 17.0512 10.5 24C10.5 31.1195 16.0111 36.9518 23 37.4635V35.4418C18.7768 34.9469 15.5 31.3561 15.5 27C15.5 26.1716 16.1716 25.5 17 25.5C17.8284 25.5 18.5 26.1716 18.5 27C18.5 30.0376 20.9624 32.5 24 32.5C27.0296 32.5 29.487 30.0505 29.4999 27.024C29.4889 26.7583 29.4073 26.6089 29.2855 26.482C29.1288 26.3189 28.8339 26.1274 28.3172 25.9579C27.2597 25.611 25.738 25.5 24 25.5C22.2875 25.5 20.3327 25.4671 18.7818 24.9944C17.9845 24.7514 17.1705 24.3581 16.5413 23.6852C15.8827 22.9806 15.5315 22.0813 15.5007 21.0447C15.5002 21.0298 15.5 21.0149 15.5 21C15.5 16.8174 18.521 13.3404 22.5 12.6319V10.5824ZM25.5 12.6319C29.479 13.3404 32.5 16.8174 32.5 21C32.5 21.8284 31.8284 22.5 31 22.5C30.1716 22.5 29.5 21.8284 29.5 21C29.5 17.9624 27.0376 15.5 24 15.5C20.9705 15.5 18.513 17.9494 18.5001 20.9759C18.5145 21.3382 18.6201 21.5158 18.7328 21.6364C18.8772 21.7908 19.1516 21.9709 19.6564 22.1247C20.7094 22.4457 22.2125 22.5 24 22.5C25.762 22.5 27.7033 22.5992 29.2524 23.1074C30.0391 23.3654 30.8333 23.7627 31.4491 24.4039C32.0969 25.0784 32.4704 25.9449 32.4994 26.9571C32.4998 26.9714 32.5 26.9857 32.5 27C32.5 31.3561 29.2232 34.9469 25 35.4418V37.4635C31.9889 36.9518 37.5 31.1195 37.5 24C37.5 17.0512 32.2499 11.3286 25.5 10.5824V12.6319ZM24 7.5C14.8873 7.5 7.5 14.8873 7.5 24C7.5 33.1127 14.8873 40.5 24 40.5C33.1127 40.5 40.5 33.1127 40.5 24C40.5 14.8873 33.1127 7.5 24 7.5Z" fill="#1E3050"/>
  <style data-made-with="openStroke-instant">
     @keyframes flip{0%{transform: rotateY(0deg);}100%{transform:rotateY(180deg);}}.dollar{animation:flip 1s linear infinite;}</style>
</svg>