<svg xmlns="http://www.w3.org/2000/svg" width="48" height="48" viewBox="0 0 48 48" fill="none" class="downarrow">
  <path fill-rule="evenodd" clip-rule="evenodd" d="M44 24C44 12.9543 35.0457 4 24 4C12.9543 4 4 12.9543 4 24C4 35.0457 12.9543 44 24 44C35.0457 44 44 35.0457 44 24ZM24.9909 38.1261L32.9878 31.1289C33.6112 30.5833 33.6744 29.6357 33.1289 29.0122C32.5833 28.3888 31.6357 28.3256 31.0122 28.8711L25.5 33.6944L25.5 11C25.5 10.1716 24.8284 9.5 24 9.5C23.1716 9.5 22.5 10.1716 22.5 11L22.5 33.6943L16.9878 28.8711C16.3643 28.3256 15.4167 28.3888 14.8711 29.0122C14.3256 29.6357 14.3888 30.5833 15.0122 31.1289L23.0049 38.1225C23.2697 38.3574 23.6182 38.5 24 38.5C24.3798 38.5 24.7267 38.3588 24.9909 38.1261Z" fill="#1E3050"/>
  <style data-made-with="openStroke-instant">
     @keyframes beat-fade{0%,100%{opacity:0.6;transform: scale(1);}50%{opacity: 1;transform: scale(1.3);}}.downarrow{animation:beat-fade 2s infinite;}</style>
</svg>