<svg width="60" height="61" viewBox="0 0 60 61" fill="none" xmlns="http://www.w3.org/2000/svg">
<g id="Brand Logos">
<path id="Vector" d="M30 30.1001C30 27.4479 31.0536 24.9044 32.9289 23.029C34.8043 21.1537 37.3478 20.1001 40 20.1001C42.6522 20.1001 45.1957 21.1537 47.0711 23.029C48.9464 24.9044 50 27.4479 50 30.1001C50 32.7523 48.9464 35.2958 47.0711 37.1712C45.1957 39.0465 42.6522 40.1001 40 40.1001C37.3478 40.1001 34.8043 39.0465 32.9289 37.1712C31.0536 35.2958 30 32.7523 30 30.1001Z" fill="#1ABCFE"/>
<path id="Vector_2" d="M10 50.1001C10 47.4479 11.0536 44.9044 12.9289 43.029C14.8043 41.1537 17.3478 40.1001 20 40.1001H30V50.1001C30 52.7523 28.9464 55.2958 27.0711 57.1712C25.1957 59.0465 22.6522 60.1001 20 60.1001C17.3478 60.1001 14.8043 59.0465 12.9289 57.1712C11.0536 55.2958 10 52.7523 10 50.1001H10Z" fill="#0ACF83"/>
<path id="Vector_3" d="M30 0.100098V20.1001H40C42.6522 20.1001 45.1957 19.0465 47.0711 17.1712C48.9464 15.2958 50 12.7523 50 10.1001C50 7.44793 48.9464 4.90439 47.0711 3.02903C45.1957 1.15367 42.6522 0.100098 40 0.100098L30 0.100098Z" fill="#FF7262"/>
<path id="Vector_4" d="M10 10.1001C10 12.7523 11.0536 15.2958 12.9289 17.1712C14.8043 19.0465 17.3478 20.1001 20 20.1001H30V0.100098H20C17.3478 0.100098 14.8043 1.15367 12.9289 3.02903C11.0536 4.90439 10 7.44793 10 10.1001H10Z" fill="#F24E1E"/>
<path id="Vector_5" d="M10 30.1001C10 32.7523 11.0536 35.2958 12.9289 37.1712C14.8043 39.0465 17.3478 40.1001 20 40.1001H30V20.1001H20C17.3478 20.1001 14.8043 21.1537 12.9289 23.029C11.0536 24.9044 10 27.4479 10 30.1001H10Z" fill="#A259FF"/>
</g>
</svg>
