       <svg
              xmlns="http://www.w3.org/2000/svg"
              width="48"
              height="48"
              viewBox="0 0 48 48"
              fill="none"
              class = "gair"
            >
              <path
                fill-rule="evenodd"
                clip-rule="evenodd"
                d="M20.1277 4.877L19.9882 3.75L18.8879 4.03087C16.9681 4.52093 15.1563 5.28038 13.4953 6.26629L12.5193 6.84565L13.217 7.74092C14.4094 9.27096 14.3013 11.487 12.8942 12.8941C11.4871 14.3013 9.27101 14.4093 7.74096 13.2169L6.84569 12.5192L6.26633 13.4952C5.2804 15.1563 4.52094 16.9681 4.03087 18.8879L3.75 19.9882L4.877 20.1277C6.80259 20.3659 8.2937 22.0095 8.2937 23.9999C8.2937 25.9903 6.80261 27.6339 4.87705 27.8722L3.75005 28.0116L4.03093 29.1119C4.52099 31.0317 5.28043 32.8434 6.26632 34.5043L6.84564 35.4803L7.74091 34.7827C9.27094 33.5904 11.4869 33.6985 12.894 35.1056C14.3011 36.5127 14.4092 38.7286 13.2169 40.2587L12.5192 41.1539L13.4952 41.7332C15.1563 42.7192 16.9681 43.4787 18.8879 43.9687L19.9883 44.2496L20.1277 43.1226C20.3659 41.197 22.0096 39.7058 24 39.7058C25.9904 39.7058 27.634 41.1969 27.8722 43.1225L28.0117 44.2495L29.112 43.9686C31.0318 43.4786 32.8435 42.7191 34.5044 41.7332L35.4803 41.154L34.7829 40.2588C33.5909 38.7287 33.6991 36.5131 35.1061 35.1061C36.513 33.6991 38.7287 33.5909 40.2588 34.7829L41.154 35.4803L41.7332 34.5044C42.7192 32.8434 43.4787 31.0316 43.9687 29.1118L44.2496 28.0115L43.1226 27.872C41.1971 27.6337 39.706 25.9901 39.706 23.9998C39.706 22.0095 41.1971 20.3659 43.1226 20.1276L44.2496 19.9881L43.9687 18.8878C43.4787 16.968 42.7192 15.1562 41.7333 13.4952L41.154 12.5193L40.2587 13.2168C38.7287 14.4089 36.5129 14.3008 35.1058 12.8937C33.6988 11.4867 33.5907 9.2709 34.7828 7.74087L35.4803 6.84562L34.5044 6.26634C32.8434 5.28044 31.0317 4.521 29.112 4.03093L28.0116 3.75005L27.8722 4.87705C27.6339 6.80261 25.9903 8.29369 23.9999 8.29369C22.0096 8.29369 20.3659 6.80258 20.1277 4.877ZM24 17C20.134 17 17 20.134 17 24C17 27.866 20.134 31 24 31C27.866 31 31 27.866 31 24C31 20.134 27.866 17 24 17Z"
                fill="#1E3050"
              />
              <style data-made-with="openStroke-instant">
     @keyframes rotate{0%{transform: rotate(0deg);}100%{transform:rotate(360deg);}}.gair{animation:rotate 5s linear infinite;}</style>
            </svg>