<svg width="40" height="40" viewBox="0 0 40 40" fill="none" xmlns="http://www.w3.org/2000/svg">
<path fill-rule="evenodd" clip-rule="evenodd" d="M20 36.9231C23.3987 36.9231 26.1538 34.1679 26.1538 30.7692L26.1538 29.2308L13.8462 29.2308L13.8462 30.7692C13.8462 34.1679 16.6013 36.9231 20 36.9231ZM10.7692 29.2308L10.7692 30.7692C10.7692 35.8672 14.902 40 20 40C25.098 40 29.2308 35.8672 29.2308 30.7692L29.2308 29.2308L30.7692 29.2308C35.8672 29.2308 40 25.098 40 20C40 14.902 35.8672 10.7692 30.7692 10.7692L29.2308 10.7692L29.2308 9.23077C29.2308 4.13275 25.098 2.51192e-06 20 2.06624e-06C14.902 1.62056e-06 10.7692 4.13276 10.7692 9.23077L10.7692 10.7692L9.23077 10.7692C4.13276 10.7692 6.00884e-06 14.902 5.56315e-06 20C5.11747e-06 25.098 4.13276 29.2308 9.23077 29.2308L10.7692 29.2308ZM13.8462 26.1538L26.1538 26.1538L26.1538 13.8462L13.8462 13.8462L13.8462 26.1538ZM10.7692 13.8462L10.7692 26.1538L9.23077 26.1538C5.8321 26.1538 3.07692 23.3987 3.07693 20C3.07693 16.6013 5.8321 13.8462 9.23077 13.8462L10.7692 13.8462ZM13.8462 10.7692L26.1538 10.7692L26.1538 9.23077C26.1538 5.83209 23.3987 3.07693 20 3.07693C16.6013 3.07693 13.8462 5.83209 13.8462 9.23077L13.8462 10.7692ZM29.2308 13.8462L29.2308 26.1538L30.7692 26.1538C34.1679 26.1538 36.9231 23.3987 36.9231 20C36.9231 16.6013 34.1679 13.8462 30.7692 13.8462L29.2308 13.8462Z" fill="white"/>
<path fill-rule="evenodd" clip-rule="evenodd" d="M12.3077 10.7695C13.1574 10.7695 13.8462 11.4583 13.8462 12.308C13.8462 13.1577 13.1574 13.8465 12.3077 13.8465C11.4581 13.8465 10.7693 13.1577 10.7693 12.308C10.7693 11.4583 11.4581 10.7695 12.3077 10.7695ZM12.3077 26.1542C13.1574 26.1542 13.8462 26.843 13.8462 27.6926C13.8462 28.5423 13.1574 29.2311 12.3077 29.2311C11.4581 29.2311 10.7693 28.5423 10.7693 27.6926C10.7693 26.843 11.4581 26.1542 12.3077 26.1542ZM29.2308 12.308C29.2308 11.4583 28.542 10.7695 27.6924 10.7695C26.8427 10.7695 26.1539 11.4583 26.1539 12.308C26.1539 13.1577 26.8427 13.8465 27.6924 13.8465C28.542 13.8465 29.2308 13.1577 29.2308 12.308ZM27.6924 26.1542C28.542 26.1542 29.2308 26.843 29.2308 27.6926C29.2308 28.5423 28.542 29.2311 27.6924 29.2311C26.8427 29.2311 26.1539 28.5423 26.1539 27.6926C26.1539 26.843 26.8427 26.1542 27.6924 26.1542Z" fill="white"/>
</svg>
