<svg width="16" height="16" viewBox="0 0 16 16" fill="none" xmlns="http://www.w3.org/2000/svg">
<path id="Vector" fill-rule="evenodd" clip-rule="evenodd" d="M15.8021 3.12961L15.8052 3.1299L15.1314 13.9113C15.0928 14.5289 14.6102 15.0186 14.0061 15.0774C13.9659 15.0813 13.925 15.0833 13.8838 15.0833H2.11621C1.86746 15.0833 1.63487 15.0104 1.43938 14.8843C1.11612 14.6758 0.894304 14.3218 0.868647 13.9113L0.194824 3.12991L0.199165 3.12947C0.121918 1.93397 1.08602 0.916626 2.30374 0.916626H13.6975C14.9153 0.916626 15.8794 1.93405 15.8021 3.12961ZM14.965 3.13765C15.048 2.40545 14.4655 1.74996 13.6975 1.74996H2.30374C1.52995 1.74996 0.944532 2.41538 1.03829 3.15423C1.11709 3.77531 1.65542 4.24995 2.30362 4.24995H13.6974C14.3369 4.24995 14.8841 3.77142 14.965 3.13765Z" fill="#1E3050"/>
</svg>
