<svg xmlns="http://www.w3.org/2000/svg" width="10" height="10" viewBox="0 0 16 16" fill="none">
  <path d="M7.37516 4.53973C6.59524 4.75299 6.12516 5.35145 6.12516 5.91683C6.12516 6.30527 6.24917 6.53785 6.5095 6.74086C6.70524 6.8935 6.98551 7.03353 7.37516 7.16806V4.53973Z" fill="#1E3050"/>
  <path d="M8.62516 8.83227L8.62516 11.4606C9.40508 11.2473 9.87516 10.6489 9.87516 10.0835C9.87516 9.69505 9.75115 9.46247 9.49082 9.25946C9.29508 9.10682 9.01481 8.96679 8.62516 8.83227Z" fill="#1E3050"/>
  <path fill-rule="evenodd" clip-rule="evenodd" d="M8.00016 0.0834961C3.62791 0.0834961 0.0834961 3.62791 0.0834961 8.00016C0.0834961 12.3724 3.62791 15.9168 8.00016 15.9168C12.3724 15.9168 15.9168 12.3724 15.9168 8.00016C15.9168 3.62791 12.3724 0.0834961 8.00016 0.0834961ZM7.37516 3.26411V2.16683H8.62516V3.26411C9.98386 3.50739 11.1252 4.52817 11.1252 5.91683H9.87516C9.87516 5.35145 9.40508 4.75299 8.62516 4.53973V7.52125C9.27239 7.7099 9.83408 7.942 10.2595 8.27375C10.8325 8.72059 11.1252 9.32134 11.1252 10.0835C11.1252 11.4722 9.98386 12.4929 8.62516 12.7362V13.8335H7.37516V12.7362C6.01647 12.4929 4.87516 11.4722 4.87516 10.0835H6.12516C6.12516 10.6489 6.59524 11.2473 7.37516 11.4606L7.37516 8.47907C6.72794 8.29043 6.16624 8.05833 5.74082 7.72657C5.16782 7.27973 4.87516 6.67898 4.87516 5.91683C4.87516 4.52817 6.01647 3.50739 7.37516 3.26411Z" fill="#1E3050"/>
</svg>