<svg width="48px" height="48px" viewBox="0 0 48 48" fill="none" xmlns="http://www.w3.org/2000/svg"><!--! OpenStrokeicons.com Free 1.0 by @openstroke - https://openstrokeicons.com License - https://openstrokeicons.com/pricing (Commercial License) Copyright 2023 Openstrokeicons.com -->
<path fill-rule="evenodd" clip-rule="evenodd" d="M38.1421 9.85786C30.3316 2.04738 17.6683 2.04738 9.85787 9.85786C2.04738 17.6683 2.04738 30.3316 9.85786 38.1421C17.6683 45.9526 30.3316 45.9526 38.1421 38.1421C45.9526 30.3316 45.9526 17.6684 38.1421 9.85786ZM35.0602 12.9393C35.646 13.5251 35.646 14.4749 35.0602 15.0607L26.1218 23.999L35.0618 32.939C35.6475 33.5248 35.6475 34.4745 35.0618 35.0603C34.476 35.6461 33.5262 35.6461 32.9404 35.0603L24.0005 26.1203L15.0605 35.0603C14.4748 35.6461 13.525 35.6461 12.9392 35.0603C12.3534 34.4745 12.3534 33.5248 12.9392 32.939L21.8792 23.999L12.9408 15.0607C12.355 14.4749 12.355 13.5251 12.9408 12.9393C13.5266 12.3536 14.4763 12.3536 15.0621 12.9393L24.0005 21.8777L32.9389 12.9393C33.5246 12.3536 34.4744 12.3536 35.0602 12.9393Z" fill="#f11e1eff" fill-opacity="0.3" stroke-width="2"/>
<path d="M35.0603 15.0607C35.6461 14.4749 35.6461 13.5251 35.0603 12.9393C34.4745 12.3536 33.5248 12.3536 32.939 12.9393L24.0006 21.8777L15.0622 12.9393C14.4765 12.3536 13.5267 12.3536 12.9409 12.9393C12.3551 13.5251 12.3551 14.4749 12.9409 15.0607L21.8793 23.999L12.9393 32.939C12.3536 33.5248 12.3536 34.4745 12.9393 35.0603C13.5251 35.6461 14.4749 35.6461 15.0607 35.0603L24.0006 26.1203L32.9406 35.0603C33.5264 35.6461 34.4761 35.6461 35.0619 35.0603C35.6477 34.4745 35.6477 33.5248 35.0619 32.939L26.1219 23.999L35.0603 15.0607Z" fill="#f11e1eff" stroke-width="2"/>
</svg>
