<svg width="41" height="40" viewBox="0 0 41 40" fill="none" xmlns="http://www.w3.org/2000/svg">
<path fill-rule="evenodd" clip-rule="evenodd" d="M23.0001 11.666C23.0001 7.52388 19.6422 4.16602 15.5001 4.16602C11.6396 4.16602 8.46028 7.08282 8.04583 10.8329L5.49988 10.8335C5.03964 10.8336 4.66664 11.2068 4.66675 11.667C4.66686 12.1273 5.04005 12.5003 5.50028 12.5002L8.04588 12.4995C8.33988 15.1584 10.0238 17.3971 12.352 18.4751C12.7928 18.6792 13.0967 19.0652 13.1678 19.4806C13.8179 23.2791 16.3021 26.448 19.6749 28.0469V34.9992C19.6749 35.4594 20.048 35.8325 20.5082 35.8325C20.9685 35.8325 21.3416 35.4594 21.3416 34.9992V28.6851C22.396 28.9981 23.5123 29.166 24.6667 29.166C25.601 29.166 26.4906 29.056 27.3603 28.8489C27.5759 28.7976 27.7892 28.7402 28.0001 28.6771V34.9988C28.0001 35.459 28.3732 35.8321 28.8334 35.8321C29.2937 35.8321 29.6667 35.459 29.6667 34.9988V28.0347C33.6017 26.1593 36.3334 22.1487 36.3334 17.4993V15.0137C36.3334 13.633 35.2141 12.5137 33.8334 12.5137H23.8334C23.3825 12.5137 23.0001 12.1356 23.0001 11.666ZM13.8334 11.6668C13.8334 10.7464 14.5796 10.0002 15.5001 10.0002C16.4206 10.0002 17.1667 10.7464 17.1667 11.6668C17.1667 12.5873 16.4206 13.3335 15.5001 13.3335C14.5796 13.3335 13.8334 12.5873 13.8334 11.6668Z" fill="#1E3050"/>
</svg>
