<svg width="41" height="40" viewBox="0 0 41 40" fill="none" xmlns="http://www.w3.org/2000/svg">
<g id="automotive">
<path id="Vector" fill-rule="evenodd" clip-rule="evenodd" d="M6.33325 6.66699C6.33325 5.28628 7.45254 4.16699 8.83325 4.16699H32.1666C33.5473 4.16699 34.6666 5.28628 34.6666 6.66699V30.0003C34.6666 31.381 33.5473 32.5003 32.1666 32.5003H31.7499V35.0003C31.7499 35.6907 31.1903 36.2503 30.4999 36.2503C29.8096 36.2503 29.2499 35.6907 29.2499 35.0003V32.5003H11.7499V35.0003C11.7499 35.6907 11.1903 36.2503 10.4999 36.2503C9.80956 36.2503 9.24992 35.6907 9.24992 35.0003V32.5003H8.83325C7.45254 32.5003 6.33325 31.381 6.33325 30.0003V6.66699ZM32.9999 17.5003V6.66699C32.9999 6.20675 32.6268 5.83366 32.1666 5.83366H8.83325C8.37301 5.83366 7.99992 6.20675 7.99992 6.66699V17.5003H32.9999ZM13.8333 22.0837C14.5236 22.0837 15.0833 22.6433 15.0833 23.3337V26.667C15.0833 27.3573 14.5236 27.917 13.8333 27.917C13.1429 27.917 12.5833 27.3573 12.5833 26.667V23.3337C12.5833 22.6433 13.1429 22.0837 13.8333 22.0837ZM27.1666 22.0837C27.8569 22.0837 28.4166 22.6433 28.4166 23.3337V26.667C28.4166 27.3573 27.8569 27.917 27.1666 27.917C26.4762 27.917 25.9166 27.3573 25.9166 26.667V23.3337C25.9166 22.6433 26.4762 22.0837 27.1666 22.0837Z" fill="#1E3050"/>
</g>
</svg>
