<svg width="41" height="40" viewBox="0 0 41 40" fill="none" xmlns="http://www.w3.org/2000/svg">
<g id="buildings">
<path id="Vector" fill-rule="evenodd" clip-rule="evenodd" d="M28.4168 5C28.4168 4.30964 27.8572 3.75 27.1668 3.75C26.4765 3.75 25.9168 4.30964 25.9168 5V8.14929L22.3221 5.27351C21.2569 4.42133 19.7433 4.42133 18.6781 5.27351L9.73971 12.4242L4.76088 16.0753C4.20417 16.4836 4.08383 17.2658 4.49208 17.8225C4.90033 18.3792 5.68258 18.4996 6.23929 18.0913L9.66683 15.5778V33.3333H5.50008C4.80973 33.3333 4.25008 33.893 4.25008 34.5833C4.25008 35.2737 4.80973 35.8333 5.50008 35.8333H33.8334C34.5238 35.8333 35.0834 35.2737 35.0834 34.5833C35.0834 33.893 34.5238 33.3333 33.8334 33.3333H31.3335V15.5779L34.7609 18.0913C35.3176 18.4996 36.0998 18.3792 36.5081 17.8225C36.9163 17.2658 36.796 16.4836 36.2393 16.0753L31.2605 12.4242L28.4168 10.1493V5ZM24.6668 33.3333V25C24.6668 23.6193 23.5475 22.5 22.1668 22.5H18.8335C17.4528 22.5 16.3335 23.6193 16.3335 25V33.3333H24.6668ZM20.5002 12.5C19.1195 12.5 18.0002 13.6193 18.0002 15C18.0002 16.3807 19.1195 17.5 20.5002 17.5C21.8809 17.5 23.0002 16.3807 23.0002 15C23.0002 13.6193 21.8809 12.5 20.5002 12.5Z" fill="#1E3050"/>
</g>
</svg>
