<svg width="41" height="40" viewBox="0 0 41 40" fill="none" xmlns="http://www.w3.org/2000/svg">
<path fill-rule="evenodd" clip-rule="evenodd" d="M15.5001 5.83301C14.1194 5.83301 13.0001 6.9523 13.0001 8.33301V10.833H7.16675C5.78604 10.833 4.66675 11.9523 4.66675 13.333V17.4997H36.3334V13.333C36.3334 11.9523 35.2141 10.833 33.8334 10.833H28.0001V8.33301C28.0001 6.9523 26.8808 5.83301 25.5001 5.83301H15.5001ZM26.3334 10.833V8.33301C26.3334 7.87277 25.9603 7.49967 25.5001 7.49967H15.5001C15.0398 7.49967 14.6667 7.87277 14.6667 8.33301V10.833H26.3334Z" fill="#1E3050"/>
<path d="M24.5834 19.1663H36.3334V31.6663C36.3334 33.0471 35.2141 34.1663 33.8334 34.1663H7.16675C5.78604 34.1663 4.66675 33.0471 4.66675 31.6663V19.1663H16.4168C16.8028 21.0682 18.4843 22.4997 20.5001 22.4997C22.5159 22.4997 24.1973 21.0682 24.5834 19.1663Z" fill="#1E3050"/>
</svg>
