<svg width="41" height="40" viewBox="0 0 41 40" fill="none" xmlns="http://www.w3.org/2000/svg">
<path d="M18.8297 3.7298C19.132 3.48111 19.5667 3.47638 19.8743 3.71842C22.8641 6.07048 24.7177 8.89152 25.416 12.0329C25.864 14.0484 25.829 16.1619 25.3449 18.3263C25.7418 17.8515 26.1541 17.3322 26.5575 16.7839C27.3684 15.6814 28.12 14.4915 28.6303 13.3399C29.1468 12.174 29.3772 11.1339 29.2586 10.2959C29.2009 9.88878 29.4488 9.50049 29.8423 9.38142C30.2359 9.26234 30.6574 9.44808 30.8351 9.81883C32.3995 13.0823 33.3922 17.4477 32.2692 21.5639C31.8751 23.0082 31.2261 24.4019 30.2718 25.6921L35.0473 23.835C35.6907 23.5848 36.4151 23.9035 36.6653 24.5469C36.9156 25.1904 36.5968 25.9148 35.9534 26.165L23.9491 30.8333L35.9534 35.5017C36.5968 35.7519 36.9156 36.4763 36.6653 37.1197C36.4151 37.7631 35.6907 38.0819 35.0473 37.8317L20.5003 32.1745L5.9534 37.8317C5.30998 38.0819 4.58555 37.7631 4.33533 37.1197C4.08511 36.4763 4.40386 35.7519 5.04728 35.5017L17.0388 30.8383C17.0156 30.8261 16.9924 30.8138 16.9692 30.8013L5.04728 26.165C4.40386 25.9148 4.08511 25.1904 4.33533 24.5469C4.58555 23.9035 5.30998 23.5848 5.9534 23.835L13.0252 26.5851C12.3023 25.0953 11.8545 23.2808 11.8545 21.1455C11.8545 16.3976 14.4196 13.5939 16.4549 11.3692L16.6238 11.1844C17.6817 10.0261 18.5051 9.08446 18.9124 8.08373C19.2872 7.163 19.3263 6.14025 18.6171 4.75263C18.4389 4.40406 18.5274 3.97848 18.8297 3.7298Z" fill="#1E3050"/>
</svg>
