<svg width="41" height="40" viewBox="0 0 41 40" fill="none" xmlns="http://www.w3.org/2000/svg">
<g id="childhood">
<path id="Vector" fill-rule="evenodd" clip-rule="evenodd" d="M19.6667 5.00033C19.6667 4.54009 20.0398 4.16699 20.5001 4.16699C27.4036 4.16699 33.0001 9.76343 33.0001 16.667C33.0001 20.7239 31.0674 24.3294 28.0725 26.6131L31.1496 32.7783C32.7247 31.8781 34.2075 30.7557 35.5521 29.4111C35.8776 29.0856 36.4052 29.0856 36.7306 29.4111C37.0561 29.7365 37.0561 30.2641 36.7306 30.5896C27.9438 39.3764 13.6976 39.3764 4.91083 30.5896C4.58539 30.2641 4.58539 29.7365 4.91083 29.4111C5.23626 29.0856 5.7639 29.0856 6.08934 29.4111C7.29269 30.6144 8.60663 31.6398 9.99844 32.4872L12.9242 26.6105C9.9313 24.3267 8.00008 20.7224 8.00008 16.667C8.00008 16.2068 8.37318 15.8337 8.83341 15.8337H19.6667V5.00033ZM14.3245 27.5374L11.4573 33.2966C17.1603 36.1661 23.9066 36.2493 29.6702 33.5463L26.6722 27.5394C24.8513 28.5753 22.7448 29.167 20.5001 29.167C18.254 29.167 16.1462 28.5746 14.3245 27.5374Z" fill="#1E3050"/>
</g>
</svg>
