<svg width="100" height="100" viewBox="0 0 100 100" fill="none" xmlns="http://www.w3.org/2000/svg">
<g id="Symbol">
<g id="Sharp classic">
<g id="Rounded cap">
<path id="Stroke style (Stroke)" fill-rule="evenodd" clip-rule="evenodd" d="M100 89C100 95.0751 95.0751 100 89 100H43V86H86V43H100V89Z" fill="black"/>
<path id="left" d="M93 36C96.866 36 100 39.134 100 43L100 50L86 50L86 43C86 39.134 89.134 36 93 36Z" fill="#36DC5E"/>
<path id="left_2" d="M36 93C36 89.134 39.134 86 43 86L50 86L50 100L43 100C39.134 100 36 96.866 36 93Z" fill="#36DC5E"/>
<rect id="Node" x="45" y="95" width="4" height="4" transform="rotate(180 45 95)" fill="white" stroke="#0074FF"/>
<rect id="Node_2" x="95" y="45" width="4" height="4" transform="rotate(180 95 45)" fill="white" stroke="#0074FF"/>
<path id="Stroke" d="M45 93H93V45" stroke="#0074FF"/>
</g>
<g id="Rounded corner">
<path id="Stroke style (Stroke)_2" fill-rule="evenodd" clip-rule="evenodd" d="M0 11C0 4.92486 4.92487 0 11 0H57V14H14V57H0V11Z" fill="black"/>
<path id="Stroke style" d="M14 7H11C8.79086 7 7 8.79086 7 11V14" stroke="#36DC5E" stroke-width="14"/>
<path id="Stroke_2" d="M57 7H7V57" stroke="#0074FF"/>
<rect id="Node_3" x="5" y="5" width="4" height="4" fill="white" stroke="#0074FF"/>
</g>
<rect id="Fill" x="23" y="23" width="52" height="52" rx="8" fill="#36DC5E"/>
</g>
</g>
</svg>
