<svg width="41" height="40" viewBox="0 0 41 40" fill="none" xmlns="http://www.w3.org/2000/svg">
<g id="clothing-fashion">
<path id="Union" d="M11.3334 7.9165H9.10356L7.48898 20.8332H15.5001C16.8808 20.8332 18.0001 21.9525 18.0001 23.3332V23.7498H22.9822L22.9822 23.333C22.9823 21.9523 24.1016 20.8332 25.4822 20.8332H33.5112L31.8966 7.9165H29.6667C28.9764 7.9165 28.4167 7.35686 28.4167 6.6665C28.4167 5.97615 28.9764 5.4165 29.6667 5.4165H32.2644C33.3151 5.4165 34.2014 6.19887 34.3317 7.24143L36.3238 23.1781L36.311 23.1797C36.3141 23.2305 36.3157 23.2816 36.3157 23.3332V29.9998C36.3157 31.3805 35.1964 32.4998 33.8157 32.4998H25.4823C24.1016 32.4998 22.9823 31.3806 22.9823 29.9999L22.9822 26.2498H18.0001V29.9998C18.0001 31.3806 16.8808 32.4998 15.5001 32.4998H7.16675C5.78604 32.4998 4.66675 31.3806 4.66675 29.9998V23.3332C4.66675 23.1504 4.68636 22.9722 4.72359 22.8006L6.66849 7.24143C6.79881 6.19887 7.68506 5.4165 8.73573 5.4165H11.3334C12.0238 5.4165 12.5834 5.97615 12.5834 6.6665C12.5834 7.35686 12.0238 7.9165 11.3334 7.9165Z" fill="#1E3050"/>
</g>
</svg>
