<svg width="41" height="40" viewBox="0 0 41 40" fill="none" xmlns="http://www.w3.org/2000/svg">
<g id="coding">
<g id="Union">
<path d="M21.4847 8.76548C22.1666 8.87315 22.6321 9.51323 22.5244 10.1951L19.3665 30.1951C19.2589 30.877 18.6188 31.3426 17.9369 31.2349C17.255 31.1272 16.7895 30.4871 16.8971 29.8052L20.055 9.80523C20.1627 9.12332 20.8028 8.65781 21.4847 8.76548Z" fill="#1E3050"/>
<path d="M26.2828 10.783C26.7709 10.2948 27.5624 10.2948 28.0505 10.783L36.3839 19.1163C36.872 19.6045 36.872 20.3959 36.3839 20.8841L28.0505 29.2174C27.5624 29.7056 26.7709 29.7056 26.2828 29.2174C25.7946 28.7292 25.7946 27.9378 26.2828 27.4496L33.7322 20.0002L26.2828 12.5507C25.7946 12.0626 25.7946 11.2711 26.2828 10.783Z" fill="#1E3050"/>
<path d="M12.9494 29.2174C13.4376 29.7056 14.2291 29.7056 14.7172 29.2174C15.2054 28.7292 15.2054 27.9378 14.7172 27.4496L7.26777 20.0002L14.7172 12.5507C15.2054 12.0626 15.2054 11.2711 14.7172 10.783C14.2291 10.2948 13.4376 10.2948 12.9494 10.783L4.61612 19.1163C4.12796 19.6045 4.12796 20.3959 4.61612 20.8841L12.9494 29.2174Z" fill="#1E3050"/>
</g>
</g>
</svg>
