<svg width="41" height="40" viewBox="0 0 41 40" fill="none" xmlns="http://www.w3.org/2000/svg">
<g id="connectivity">
<g id="Vector">
<path d="M10.2891 5.22305C10.7773 5.71121 10.7773 6.50266 10.2891 6.99082C5.57029 11.7097 5.57029 19.3604 10.2891 24.0792C10.7773 24.5674 10.7773 25.3588 10.2891 25.847C9.80097 26.3351 9.00951 26.3351 8.52136 25.847C2.82621 20.1518 2.82621 10.9182 8.52136 5.22305C9.00951 4.73489 9.80097 4.73489 10.2891 5.22305Z" fill="#1E3050"/>
<path d="M32.4809 5.22305C31.9927 4.73489 31.2013 4.73489 30.7131 5.22305C30.225 5.71121 30.225 6.50266 30.7131 6.99082C35.432 11.7097 35.432 19.3604 30.7131 24.0792C30.225 24.5674 30.225 25.3588 30.7131 25.847C31.2013 26.3351 31.9927 26.3351 32.4809 25.847C38.176 20.1518 38.176 10.9182 32.4809 5.22305Z" fill="#1E3050"/>
<path d="M15.0032 9.93659C15.4913 10.4247 15.4913 11.2162 15.0032 11.7044C12.8878 13.8197 12.8878 17.2493 15.0032 19.3647C15.4913 19.8528 15.4913 20.6443 15.0032 21.1324C14.515 21.6206 13.7236 21.6206 13.2354 21.1324C10.1438 18.0408 10.1438 13.0282 13.2354 9.93659C13.7236 9.44844 14.515 9.44844 15.0032 9.93659Z" fill="#1E3050"/>
<path d="M21.2843 18.0244C21.1579 17.708 20.8516 17.5003 20.5108 17.5002C20.1701 17.5 19.8636 17.7073 19.7368 18.0236L13.0598 34.6903C12.9219 35.0345 13.0281 35.4286 13.3204 35.6569C13.6127 35.8852 14.0207 35.8929 14.3214 35.6757L20.5096 31.2054L26.6778 35.675C26.9781 35.8926 27.3862 35.8855 27.6789 35.6575C27.9715 35.4296 28.0782 35.0356 27.9406 34.6911L21.2843 18.0244Z" fill="#1E3050"/>
<path d="M27.7641 9.93659C27.2759 9.44844 26.4845 9.44844 25.9963 9.93659C25.5082 10.4247 25.5082 11.2162 25.9963 11.7044C28.1117 13.8197 28.1117 17.2493 25.9963 19.3647C25.5082 19.8528 25.5082 20.6443 25.9963 21.1325C26.4845 21.6206 27.2759 21.6206 27.7641 21.1325C30.8557 18.0408 30.8557 13.0282 27.7641 9.93659Z" fill="#1E3050"/>
</g>
</g>
</svg>
