<svg width="41" height="40" viewBox="0 0 41 40" fill="none" xmlns="http://www.w3.org/2000/svg">
<g id="design">
<g id="Vector">
<path d="M31.6103 6.33972C30.9595 5.68884 29.9042 5.68884 29.2533 6.33972L25.7178 9.87527L31.6104 15.7679L35.146 12.2324C35.7969 11.5816 35.7969 10.5263 35.146 9.87539L31.6103 6.33972Z" fill="#1E3050"/>
<path d="M15.8081 19.7849L24.5393 11.0538L30.4319 16.9464L21.7073 25.6708L18.2514 33.7918C18.1333 34.0692 17.8747 34.2612 17.575 34.2939L7.24208 35.4207L15.6995 26.9633C16.025 26.6378 16.025 26.1102 15.6995 25.7848C15.3741 25.4593 14.8465 25.4593 14.521 25.7848L6.06641 34.2394L7.23023 23.942C7.26379 23.645 7.4538 23.3887 7.72821 23.2704L15.8081 19.7849Z" fill="#1E3050"/>
</g>
</g>
</svg>
