<svg width="41" height="40" viewBox="0 0 41 40" fill="none" xmlns="http://www.w3.org/2000/svg">
<g id="devices-hardware">
<g id="Union">
<path d="M7.16675 9.16699C5.78604 9.16699 4.66675 10.2863 4.66675 11.667V23.3337C4.66675 24.7144 5.78604 25.8337 7.16675 25.8337H14.2501V28.7503H8.83341C8.14306 28.7503 7.58341 29.31 7.58341 30.0003C7.58341 30.6907 8.14306 31.2503 8.83341 31.2503H22.1667C22.8571 31.2503 23.4167 30.6907 23.4167 30.0003C23.4167 29.31 22.8571 28.7503 22.1667 28.7503H16.7501V25.8337H23.8334C25.2141 25.8337 26.3334 24.7144 26.3334 23.3337V11.667C26.3334 10.2863 25.2141 9.16699 23.8334 9.16699H7.16675Z" fill="#1E3050"/>
<path d="M32.1667 9.16699C30.786 9.16699 29.6667 10.2863 29.6667 11.667V15.8337L36.3334 15.8337V11.667C36.3334 10.2863 35.2141 9.16699 33.8334 9.16699H32.1667Z" fill="#1E3050"/>
<path d="M29.6667 28.3337V17.5003L36.3334 17.5003V28.3337C36.3334 29.7144 35.2141 30.8337 33.8334 30.8337H32.1667C30.786 30.8337 29.6667 29.7144 29.6667 28.3337Z" fill="#1E3050"/>
</g>
</g>
</svg>
