<svg width="41" height="40" viewBox="0 0 41 40" fill="none" xmlns="http://www.w3.org/2000/svg">
<g id="editing">
<path id="Union" fill-rule="evenodd" clip-rule="evenodd" d="M9.61612 30.8839C9.85054 31.1183 10.1685 31.25 10.5 31.25L29.25 31.25V35C29.25 35.6904 29.8096 36.25 30.5 36.25C31.1904 36.25 31.75 35.6904 31.75 35V31.25H35.5C36.1904 31.25 36.75 30.6904 36.75 30C36.75 29.3096 36.1904 28.75 35.5 28.75H31.75V10.5178L36.3839 5.88389C36.872 5.39573 36.872 4.60427 36.3839 4.11612C35.8957 3.62796 35.1043 3.62796 34.6161 4.11612L29.9822 8.75H11.75V5C11.75 4.30964 11.1904 3.75 10.5 3.75C9.80964 3.75 9.25 4.30964 9.25 5V8.75H5.5C4.80964 8.75 4.25 9.30965 4.25 10C4.25 10.6904 4.80964 11.25 5.5 11.25H9.25L9.25 30C9.25 30.3315 9.38169 30.6495 9.61612 30.8839ZM11.75 11.25L11.75 26.9822L27.4822 11.25H11.75ZM29.25 13.0178L13.5178 28.75H29.25L29.25 13.0178Z" fill="#1E3050"/>
</g>
</svg>
