<svg width="41" height="40" viewBox="0 0 41 40" fill="none" xmlns="http://www.w3.org/2000/svg">
<g id="education">
<g id="Vector">
<path d="M19.6667 8.5868C17.5004 7.56025 14.8911 7.47506 12.5187 7.71557C9.83803 7.98731 7.27917 8.69646 5.67621 9.14069C5.53664 9.17937 5.40392 9.21615 5.27939 9.25035C4.91755 9.34972 4.66675 9.67868 4.66675 10.0539V33.3335C4.66675 33.6282 4.82234 33.9009 5.07596 34.0509C5.32959 34.2008 5.64355 34.2057 5.90171 34.0637L5.99405 34.0129C9.20148 32.2486 11.4553 31.0198 13.5586 30.6333C15.4639 30.2832 17.2999 30.6226 19.6667 32.1671V8.5868Z" fill="#1E3050"/>
<path d="M21.3334 32.1203C23.1679 30.6847 24.936 30.1781 26.9541 30.4334C29.1506 30.7112 31.7232 31.9005 35.0501 34.0349C35.3065 34.1995 35.6323 34.2109 35.8997 34.0648C36.1671 33.9186 36.3334 33.6382 36.3334 33.3335V10.0557C36.3334 9.68334 36.0864 9.35617 35.7282 9.25422C35.5938 9.21593 35.4486 9.17404 35.2937 9.12932C33.7972 8.69735 31.3835 8.00063 28.7729 7.72685C26.3643 7.47425 23.678 7.56793 21.3334 8.64021V32.1203Z" fill="#1E3050"/>
</g>
</g>
</svg>
