<svg width="41" height="40" viewBox="0 0 41 40" fill="none" xmlns="http://www.w3.org/2000/svg">
<g id="food-beverage">
<path id="Union" d="M13.3794 4.69713C13.212 4.02738 12.5333 3.62018 11.8636 3.78762C11.1938 3.95505 10.7866 4.63372 10.9541 5.30347L13.1865 14.2333C13.0853 14.1903 12.9748 14.167 12.8606 14.167H9.30104C7.67407 14.167 6.4821 15.696 6.87643 17.2733L11.0431 33.94C11.3213 35.0529 12.3213 35.8336 13.4685 35.8336H27.5325C28.6797 35.8336 29.6797 35.0529 29.9579 33.94L34.1246 17.2733C34.5189 15.696 33.3269 14.167 31.6999 14.167H28.1404C28.0113 14.167 27.8869 14.1968 27.7754 14.2512L29.9454 5.29463C30.1079 4.62369 29.6958 3.948 29.0248 3.78544C28.3539 3.62289 27.6782 4.03501 27.5157 4.70596L24.2852 18.0393L24.4093 18.0693C23.6095 18.5589 22.7112 18.9026 21.7501 19.0635V5.0003C21.7501 4.30994 21.1904 3.7503 20.5001 3.7503C19.8097 3.7503 19.2501 4.30994 19.2501 5.0003V19.0632C18.286 18.9014 17.3841 18.5557 16.5819 18.0632L16.7128 18.0305L13.3794 4.69713Z" fill="#1E3050"/>
</g>
</svg>
