<svg width="41" height="40" viewBox="0 0 41 40" fill="none" xmlns="http://www.w3.org/2000/svg">
<g id="furniture">
<g id="Vector">
<path d="M10.9166 17.5215V35.0003C10.9166 35.6907 11.4762 36.2503 12.1666 36.2503C12.8569 36.2503 13.4166 35.6907 13.4166 35.0003V18.765C12.7058 18.4927 12.0383 18.1791 11.4234 17.8278C11.2519 17.7297 11.0827 17.6276 10.9166 17.5215Z" fill="#1E3050"/>
<path d="M19.2499 19.965V30C19.2499 30.6904 19.8096 31.25 20.4999 31.25C21.1903 31.25 21.7499 30.6904 21.7499 30V19.965C21.3376 19.9882 20.9206 20 20.4999 20C20.0793 20 19.6623 19.9882 19.2499 19.965Z" fill="#1E3050"/>
<path d="M27.5833 18.765V34.9995C27.5833 35.6898 28.1429 36.2495 28.8333 36.2495C29.5236 36.2495 30.0833 35.6898 30.0833 34.9995V17.5215C29.9171 17.6276 29.748 17.7297 29.5764 17.8278C28.9616 18.1791 28.2941 18.4927 27.5833 18.765Z" fill="#1E3050"/>
<path d="M32.1666 11.6667C32.1666 15.3486 26.9432 18.3333 20.4999 18.3333C14.0566 18.3333 8.83325 15.3486 8.83325 11.6667C8.83325 7.98477 14.0566 5 20.4999 5C26.9432 5 32.1666 7.98477 32.1666 11.6667Z" fill="#1E3050"/>
</g>
</g>
</svg>
