<svg width="41" height="40" viewBox="0 0 41 40" fill="none" xmlns="http://www.w3.org/2000/svg">
<g id="gaming">
<path id="Vector" fill-rule="evenodd" clip-rule="evenodd" d="M18.8334 4.16699L7.16673 4.16706C5.78603 4.16707 4.66675 5.28636 4.66675 6.66706V18.3336C4.66675 19.7144 5.78604 20.8336 7.16675 20.8336H18.5323L15.7432 23.6228C14.7668 24.5991 14.7668 26.182 15.7432 27.1583L23.9927 35.4079C24.969 36.3842 26.552 36.3842 27.5283 35.4079L35.7778 27.1583C36.7542 26.182 36.7542 24.5991 35.7778 23.6228L27.5282 15.3733C26.5519 14.397 24.969 14.397 23.9927 15.3733L21.3334 18.0326V6.66699C21.3334 5.28627 20.2141 4.16698 18.8334 4.16699ZM11.3334 9.16699C10.4129 9.16699 9.66675 9.91318 9.66675 10.8337V14.167C9.66675 15.0875 10.4129 15.8337 11.3334 15.8337H14.6667C15.5872 15.8337 16.3334 15.0875 16.3334 14.167V10.8337C16.3334 9.91318 15.5872 9.16699 14.6667 9.16699H11.3334ZM26.939 21.8551C26.2881 21.2042 25.2329 21.2042 24.582 21.8551L22.225 24.2121C21.5741 24.863 21.5741 25.9183 22.225 26.5692L24.582 28.9262C25.2329 29.577 26.2881 29.577 26.939 28.9262L29.296 26.5692C29.9469 25.9183 29.9469 24.863 29.296 24.2121L26.939 21.8551Z" fill="#1E3050"/>
</g>
</svg>
