<svg width="41" height="40" viewBox="0 0 41 40" fill="none" xmlns="http://www.w3.org/2000/svg">
<g id="holidays">
<path id="Vector" fill-rule="evenodd" clip-rule="evenodd" d="M22.2658 5.26641C23.2421 4.2901 24.825 4.2901 25.8013 5.26641L28.1584 7.62344C28.4838 7.94887 28.4838 8.47651 28.1584 8.80195C27.1821 9.77826 27.1821 11.3612 28.1584 12.3375C29.1347 13.3138 30.7176 13.3138 31.6939 12.3375C32.0193 12.012 32.547 12.012 32.8724 12.3375L35.2294 14.6945C36.2058 15.6708 36.2057 17.2537 35.2294 18.23L18.7303 34.7292C17.754 35.7055 16.1711 35.7055 15.1947 34.7292L12.8377 32.3722C12.5123 32.0467 12.5123 31.5191 12.8377 31.1937C13.814 30.2174 13.814 28.6344 12.8377 27.6581C11.8614 26.6818 10.2785 26.6818 9.30219 27.6581C8.97675 27.9836 8.44912 27.9836 8.12368 27.6581L5.76666 25.3011C4.79035 24.3248 4.79035 22.7419 5.76666 21.7656L22.2658 5.26641ZM18.7129 11.0087C18.3874 10.6833 17.8598 10.6833 17.5344 11.0087C17.2089 11.3342 17.2089 11.8618 17.5344 12.1872L18.14 12.7929C18.4654 13.1183 18.9931 13.1183 19.3185 12.7929C19.6439 12.4674 19.6439 11.9398 19.3185 11.6144L18.7129 11.0087ZM21.741 14.0369C21.4156 13.7114 20.8879 13.7114 20.5625 14.0369C20.2371 14.3623 20.2371 14.8899 20.5625 15.2154L21.7737 16.4266C22.0992 16.7521 22.6268 16.7521 22.9523 16.4266C23.2777 16.1012 23.2777 15.5736 22.9523 15.2481L21.741 14.0369ZM25.3748 17.6706C25.0493 17.3452 24.5217 17.3452 24.1963 17.6706C23.8708 17.9961 23.8708 18.5237 24.1963 18.8491L25.4075 20.0604C25.7329 20.3858 26.2606 20.3858 26.586 20.0604C26.9115 19.735 26.9115 19.2073 26.586 18.8819L25.3748 17.6706ZM29.0085 21.3044C28.6831 20.9789 28.1555 20.9789 27.83 21.3044C27.5046 21.6298 27.5046 22.1575 27.83 22.4829L28.4356 23.0885C28.7611 23.414 29.2887 23.414 29.6142 23.0885C29.9396 22.7631 29.9396 22.2354 29.6142 21.91L29.0085 21.3044Z" fill="#1E3050"/>
</g>
</svg>
