<svg width="41" height="40" viewBox="0 0 41 40" fill="none" xmlns="http://www.w3.org/2000/svg">
<g id="household">
<path id="Union" fill-rule="evenodd" clip-rule="evenodd" d="M5.91675 5.83333C5.91675 4.68274 6.84949 3.75 8.00008 3.75H33.0001C34.1507 3.75 35.0834 4.68274 35.0834 5.83333V34.1667C35.0834 35.3173 34.1507 36.25 33.0001 36.25H8.00008C6.84949 36.25 5.91675 35.3173 5.91675 34.1667V5.83333ZM8.41675 6.25V33.75H15.7005L13.4524 23.5121C13.3983 23.2655 13.4588 23.0078 13.617 22.8111C13.7752 22.6144 14.014 22.5 14.2664 22.5H26.7631C27.0157 22.5 27.2546 22.6145 27.4128 22.8114C27.571 23.0083 27.6313 23.2663 27.5769 23.513L25.317 33.75H32.5834V6.25H26.3334V10.8333C26.3334 11.7538 25.5872 12.5 24.6667 12.5H21.7501V16.6667C21.7501 17.357 21.1904 17.9167 20.5001 17.9167C19.8097 17.9167 19.2501 17.357 19.2501 16.6667V12.5H16.3334C15.4129 12.5 14.6667 11.7538 14.6667 10.8333V6.25H8.41675Z" fill="#1E3050"/>
</g>
</svg>
