<svg width="41" height="40" viewBox="0 0 41 40" fill="none" xmlns="http://www.w3.org/2000/svg">
<g id="logistics">
<path id="Union" fill-rule="evenodd" clip-rule="evenodd" d="M20.5 4.1665C18.1988 4.1665 16.3333 6.03198 16.3333 8.33317C16.3333 9.8858 17.1826 11.2401 18.4419 11.9569L13.3156 17.0832H6.33333C5.18274 17.0832 4.25 18.0159 4.25 19.1665V34.1665C4.25 35.3171 5.18274 36.2498 6.33333 36.2498H34.6667C35.8173 36.2498 36.75 35.3171 36.75 34.1665V19.1665C36.75 18.0159 35.8173 17.0832 34.6667 17.0832H27.6844L22.5581 11.9569C23.8174 11.2401 24.6667 9.8858 24.6667 8.33317C24.6667 6.03198 22.8012 4.1665 20.5 4.1665ZM24.1489 17.0832L20.5 13.4343L16.8511 17.0832H24.1489ZM6.75 33.7498V19.5832H9.25L9.25 33.7498H6.75ZM11.75 33.7498H14.25V19.5832H11.75V33.7498ZM19.25 33.7498H16.75V19.5832H19.25V33.7498ZM21.75 33.7498H24.25V19.5832H21.75V33.7498ZM29.25 33.7498H26.75V19.5832H29.25V33.7498ZM31.75 33.7498H34.25V19.5832H31.75V33.7498Z" fill="#1E3050"/>
</g>
</svg>
