<svg width="41" height="40" viewBox="0 0 41 40" fill="none" xmlns="http://www.w3.org/2000/svg">
<g id="mathematics">
<path id="Subtract" fill-rule="evenodd" clip-rule="evenodd" d="M20.6334 4.1665C11.8889 4.1665 4.80005 11.2553 4.80005 19.9998C4.80005 28.7443 11.8889 35.8332 20.6334 35.8332C29.3779 35.8332 36.4667 28.7443 36.4667 19.9998C36.4667 11.2553 29.3779 4.1665 20.6334 4.1665ZM12.7167 23.3332C12.7167 22.6428 13.2764 22.0832 13.9667 22.0832H27.3C27.9904 22.0832 28.55 22.6428 28.55 23.3332C28.55 24.0235 27.9904 24.5832 27.3 24.5832H13.9667C13.2764 24.5832 12.7167 24.0235 12.7167 23.3332ZM13.9667 15.4165C13.2764 15.4165 12.7167 15.9761 12.7167 16.6665C12.7167 17.3569 13.2764 17.9165 13.9667 17.9165H27.3C27.9904 17.9165 28.55 17.3569 28.55 16.6665C28.55 15.9761 27.9904 15.4165 27.3 15.4165H13.9667Z" fill="#1E3050"/>
</g>
</svg>
