<svg width="41" height="40" viewBox="0 0 41 40" fill="none" xmlns="http://www.w3.org/2000/svg">
<g id="medical-health">
<g id="Vector">
<path d="M20.5264 10.7636C18.7641 9.12728 16.7699 7.76665 14.6879 7.15365C12.3261 6.45829 9.8685 6.73611 7.62982 8.58833C5.12329 10.6622 4.32865 13.1389 4.7128 15.7295C5.0684 18.1276 6.42221 20.5594 8.13895 22.84H12.0498L15.5901 17.5294C15.7286 17.3217 15.953 17.187 16.2014 17.1624C16.4499 17.1378 16.6962 17.2259 16.8728 17.4024L21.9652 22.4949L26.8135 17.6465C27.1261 17.334 27.55 17.1584 27.992 17.1584H36.3085C36.4076 16.7661 36.4821 16.3727 36.5289 15.9786C36.8441 13.3291 35.9005 10.7766 33.2021 8.54403C33.1759 8.52234 33.1483 8.50227 33.1197 8.48395C30.3533 6.71565 27.9157 6.52768 25.6884 7.30485C23.7776 7.97155 22.0896 9.32916 20.5264 10.7636Z" fill="#1E3050"/>
<path d="M35.7427 18.825H27.992L22.5545 24.2626C22.229 24.5881 21.7014 24.5881 21.3759 24.2626L16.413 19.2997L13.4365 23.7645C13.1274 24.2282 12.607 24.5067 12.0498 24.5067H9.47436C11.0869 26.4098 12.9124 28.2282 14.6266 29.8564C15.4402 30.6293 16.2215 31.3528 16.9449 32.0228C18.1268 33.1175 19.1546 34.0694 19.9182 34.8607C20.0747 35.0229 20.2902 35.1147 20.5155 35.1154C20.7409 35.116 20.9569 35.0253 21.1143 34.8641C21.9394 34.0185 23.0936 32.9988 24.4271 31.8207C25.0803 31.2436 25.7765 30.6285 26.4982 29.9773C28.662 28.0245 31.0051 25.7875 32.8811 23.4339C34.0526 21.964 35.0714 20.4128 35.7427 18.825Z" fill="#1E3050"/>
</g>
</g>
</svg>
