<svg width="41" height="40" viewBox="0 0 41 40" fill="none" xmlns="http://www.w3.org/2000/svg">
<g id="media-playback">
<path id="Vector" fill-rule="evenodd" clip-rule="evenodd" d="M3.83325 20.0002C3.83325 10.7954 11.2952 3.3335 20.4999 3.3335C29.7047 3.3335 37.1666 10.7954 37.1666 20.0002C37.1666 29.2049 29.7047 36.6668 20.4999 36.6668C11.2952 36.6668 3.83325 29.2049 3.83325 20.0002ZM16.7515 13.4442C17.0103 13.2956 17.3287 13.2967 17.5865 13.447L27.5865 19.2803C27.8425 19.4297 27.9999 19.7038 27.9999 20.0002C27.9999 20.2966 27.8425 20.5706 27.5865 20.72L17.5865 26.5533C17.3287 26.7037 17.0103 26.7047 16.7515 26.5561C16.4928 26.4075 16.3333 26.1319 16.3333 25.8335V14.1668C16.3333 13.8684 16.4928 13.5928 16.7515 13.4442Z" fill="#1E3050"/>
</g>
</svg>
