<svg width="41" height="40" viewBox="0 0 41 40" fill="none" xmlns="http://www.w3.org/2000/svg">
<g id="military">
<g id="Union">
<path d="M11.3334 10C11.3334 8.61929 12.4527 7.5 13.8334 7.5H17.1667C18.5475 7.5 19.6667 8.61929 19.6667 10V12.5L11.3334 12.5V10Z" fill="#1E3050"/>
<path d="M32.1667 14.1667C32.8571 14.1667 33.4167 14.7263 33.4167 15.4167C33.4167 16.107 32.8571 16.6667 32.1667 16.6667L23.0001 16.6667V19.1667L8.00008 19.1667V15.8333C8.00008 14.9129 8.74627 14.1667 9.66675 14.1667L32.1667 14.1667Z" fill="#1E3050"/>
<path d="M8.00008 20.8333V21.1157C5.99357 22.1069 4.66675 24.3839 4.66675 26.6667C4.66675 29.8883 7.27842 32.5 10.5001 32.5L30.5048 32.2803C33.7243 32.2777 36.3334 29.667 36.3334 26.4469C36.3334 23.1769 33.6718 20.8333 30.5001 20.8333L8.00008 20.8333Z" fill="#1E3050"/>
</g>
</g>
</svg>
