<svg width="41" height="40" viewBox="0 0 41 40" fill="none" xmlns="http://www.w3.org/2000/svg">
<g id="photography">
<path id="Vector" fill-rule="evenodd" clip-rule="evenodd" d="M17.5119 7.5C17.0699 7.5 16.646 7.67559 16.3334 7.98816L13.4882 10.8333H6.33341C5.41294 10.8333 4.66675 11.5795 4.66675 12.5V30.8333C4.66675 31.7538 5.41294 32.5 6.33342 32.5H34.6667C35.5872 32.5 36.3334 31.7538 36.3334 30.8333V12.5C36.3334 11.5795 35.5872 10.8333 34.6667 10.8333H27.5119L24.6667 7.98816C24.3542 7.67559 23.9303 7.5 23.4882 7.5H17.5119ZM20.5001 15.8333C17.2784 15.8333 14.6667 18.445 14.6667 21.6667C14.6667 24.8883 17.2784 27.5 20.5001 27.5C23.7217 27.5 26.3334 24.8883 26.3334 21.6667C26.3334 18.445 23.7217 15.8333 20.5001 15.8333Z" fill="#1E3050"/>
</g>
</svg>
