<svg width="41" height="40" viewBox="0 0 41 40" fill="none" xmlns="http://www.w3.org/2000/svg">
<g id="science">
<g id="Union">
<path fill-rule="evenodd" clip-rule="evenodd" d="M14.6667 15.6084V5.83317H13.8333C13.3731 5.83317 13 5.46007 13 4.99984C13 4.5396 13.3731 4.1665 13.8333 4.1665H27.1667C27.6269 4.1665 28 4.5396 28 4.99984C28 5.46007 27.6269 5.83317 27.1667 5.83317H26.3333V15.6084C28.9604 16.997 31.0331 19.2941 32.1328 22.0832H8.86723C9.96693 19.2941 12.0396 16.997 14.6667 15.6084ZM21.3333 15.8332C20.4129 15.8332 19.6667 16.5794 19.6667 17.4998C19.6667 18.4203 20.4129 19.1665 21.3333 19.1665C22.2538 19.1665 23 18.4203 23 17.4998C23 16.5794 22.2538 15.8332 21.3333 15.8332Z" fill="#1E3050"/>
<path fill-rule="evenodd" clip-rule="evenodd" d="M8.17296 24.5832H32.827C32.9408 25.2611 33 25.9571 33 26.6665C33 29.9015 31.7701 32.8511 29.7537 35.0702C29.2854 35.5855 28.629 35.8332 27.9845 35.8332H13.0155C12.371 35.8332 11.7146 35.5855 11.2463 35.0702C9.22995 32.8511 8 29.9015 8 26.6665C8 25.9571 8.05918 25.2611 8.17296 24.5832ZM16.3333 25.8332C15.4129 25.8332 14.6667 26.5794 14.6667 27.4998C14.6667 28.4203 15.4129 29.1665 16.3333 29.1665C17.2538 29.1665 18 28.4203 18 27.4998C18 26.5794 17.2538 25.8332 16.3333 25.8332ZM21.3333 29.1665C21.3333 28.246 22.0795 27.4998 23 27.4998C23.9205 27.4998 24.6667 28.246 24.6667 29.1665C24.6667 30.087 23.9205 30.8332 23 30.8332C22.0795 30.8332 21.3333 30.087 21.3333 29.1665Z" fill="#1E3050"/>
</g>
</g>
</svg>
