<svg width="100" height="100" viewBox="0 0 100 100" fill="none" xmlns="http://www.w3.org/2000/svg">
<g id="Sharp classic">
<g id="Rounded corner">
<path id="Stroke style (Stroke)" fill-rule="evenodd" clip-rule="evenodd" d="M100 100H43V86H86V43H100C100 62 100 81 100 100Z" fill="black"/>
<rect id="left" x="36" y="86" width="14" height="14" fill="#36DC5E"/>
<rect id="left_2" x="100" y="36" width="14" height="14" transform="rotate(90 100 36)" fill="#36DC5E"/>
<rect id="Node" x="45" y="95" width="4" height="4" transform="rotate(180 45 95)" fill="white" stroke="#0074FF"/>
<rect id="Node_2" x="95" y="45" width="4" height="4" transform="rotate(180 95 45)" fill="white" stroke="#0074FF"/>
<path id="Stroke" d="M45 93H93V45" stroke="#0074FF"/>
</g>
<g id="Sharp corner">
<path id="Stroke style (Stroke)_2" fill-rule="evenodd" clip-rule="evenodd" d="M0 11C0 4.92486 4.92487 0 11 0H57V14H14V57H0V11Z" fill="black"/>
<path id="Stroke style" d="M14 7H7V14" stroke="#36DC5E" stroke-width="14"/>
<path id="Stroke_2" d="M57 7H7V57" stroke="#0074FF"/>
<rect id="Node_3" x="5" y="5" width="4" height="4" fill="white" stroke="#0074FF"/>
</g>
<rect id="Fill" x="23" y="23" width="52" height="52" fill="#36DC5E"/>
</g>
</svg>
