<svg width="41" height="40" viewBox="0 0 41 40" fill="none" xmlns="http://www.w3.org/2000/svg">
<g id="shopping">
<g id="Vector">
<path fill-rule="evenodd" clip-rule="evenodd" d="M14.6667 10.0003V10.8337H12.1667C10.786 10.8337 9.66675 11.9529 9.66675 13.3337V25.8337H31.3334V13.3337C31.3334 11.9529 30.2141 10.8337 28.8334 10.8337H26.3334V10.0003C26.3334 6.77866 23.7217 4.16699 20.5001 4.16699C17.2784 4.16699 14.6667 6.77866 14.6667 10.0003ZM20.5001 5.83366C18.1989 5.83366 16.3334 7.69914 16.3334 10.0003V10.8337H24.6667V10.0003C24.6667 7.69914 22.8013 5.83366 20.5001 5.83366Z" fill="#1E3050"/>
<path d="M31.3334 27.5003H9.66675V33.3337C9.66675 34.7144 10.786 35.8337 12.1667 35.8337H28.8334C30.2141 35.8337 31.3334 34.7144 31.3334 33.3337V27.5003Z" fill="#1E3050"/>
</g>
</g>
</svg>
