<svg width="41" height="40" viewBox="0 0 41 40" fill="none" xmlns="http://www.w3.org/2000/svg">
<g id="social">
<path id="Vector" fill-rule="evenodd" clip-rule="evenodd" d="M11.3334 17.1817L5.1274 14.0787C4.84508 13.9375 4.66675 13.649 4.66675 13.3333C4.66675 13.0177 4.84508 12.7291 5.1274 12.588L11.7045 9.29944C12.6684 6.32382 15.4097 4.16504 18.7358 4.16504C22.0627 4.16504 24.541 6.09999 25.8224 9.2154L35.84 28.8649C36.6879 30.5281 35.4799 32.5001 33.6131 32.5004L28.005 32.5011V35.0016C28.005 35.4619 27.6319 35.835 27.1716 35.835C26.7114 35.835 26.3383 35.4619 26.3383 35.0016V32.5013L23.8335 32.5016C22.9822 32.5016 22.143 32.4164 21.3335 32.2536L21.3338 34.9995C21.3338 35.4598 20.9607 35.8329 20.5005 35.833C20.0403 35.833 19.6671 35.4599 19.6671 34.9997L19.6668 31.7949C14.8051 30.0825 11.3334 25.4489 11.3334 20.0016V17.1817ZM18.8334 9.16667C17.4527 9.16667 16.3334 10.286 16.3334 11.6667C16.3334 13.0474 17.4527 14.1667 18.8334 14.1667C20.2141 14.1667 21.3334 13.0474 21.3334 11.6667C21.3334 10.286 20.2141 9.16667 18.8334 9.16667Z" fill="#1E3050"/>
</g>
</svg>
