<svg width="41" height="40" viewBox="0 0 41 40" fill="none" xmlns="http://www.w3.org/2000/svg">
<g id="users-people">
<g id="Vector">
<path fill-rule="evenodd" clip-rule="evenodd" d="M10.4999 4.1665C9.11921 4.1665 7.99992 5.28579 7.99992 6.6665V10.4165H3.83325C3.1429 10.4165 2.58325 10.9761 2.58325 11.6665C2.58325 12.3569 3.1429 12.9165 3.83325 12.9165H7.99992V16.6665C7.99992 18.0472 9.11921 19.1665 10.4999 19.1665H30.4999C31.8806 19.1665 32.9999 18.0472 32.9999 16.6665V12.9165H37.1666C37.8569 12.9165 38.4166 12.3569 38.4166 11.6665C38.4166 10.9761 37.8569 10.4165 37.1666 10.4165H32.9999V6.6665C32.9999 5.28579 31.8806 4.1665 30.4999 4.1665H10.4999ZM20.4999 9.1665C19.1192 9.1665 17.9999 10.2858 17.9999 11.6665C17.9999 13.0472 19.1192 14.1665 20.4999 14.1665C21.8806 14.1665 22.9999 13.0472 22.9999 11.6665C22.9999 10.2858 21.8806 9.1665 20.4999 9.1665Z" fill="#1E3050"/>
<path d="M8.83326 24.1665C8.59145 24.1665 8.36156 24.2715 8.20327 24.4543C8.04499 24.6371 7.97391 24.8797 8.00849 25.119C8.88478 31.1832 14.1486 35.8332 20.4999 35.8332C26.8512 35.8332 32.1151 31.1832 32.9914 25.119C33.0259 24.8797 32.9549 24.6371 32.7966 24.4543C32.6383 24.2715 32.4084 24.1665 32.1666 24.1665H8.83326Z" fill="#1E3050"/>
</g>
</g>
</svg>
