<svg width="41" height="40" viewBox="0 0 41 40" fill="none" xmlns="http://www.w3.org/2000/svg">
<g id="weather">
<g id="Vector">
<path d="M5.5 16.25C4.80964 16.25 4.25 15.6904 4.25 15C4.25 14.3096 4.80964 13.75 5.5 13.75H23.8333C25.9044 13.75 27.5833 12.0711 27.5833 10C27.5833 7.92893 25.9044 6.25 23.8333 6.25H18.8333C18.143 6.25 17.5833 5.69036 17.5833 5C17.5833 4.30964 18.143 3.75 18.8333 3.75H23.8333C27.2851 3.75 30.0833 6.54822 30.0833 10C30.0833 11.5951 29.4858 13.0507 28.5023 14.155C33.2579 15.4687 36.75 19.8265 36.75 25C36.75 31.2132 31.7132 36.25 25.5 36.25H22.1667C21.4763 36.25 20.9167 35.6904 20.9167 35C20.9167 34.3096 21.4763 33.75 22.1667 33.75H25.5C30.3325 33.75 34.25 29.8325 34.25 25C34.25 20.1675 30.3325 16.25 25.5 16.25H5.5Z" fill="#1E3050"/>
<path d="M4.25 21.6667C4.25 20.9763 4.80964 20.4167 5.5 20.4167H25.5C28.0313 20.4167 30.0833 22.4687 30.0833 25C30.0833 27.5313 28.0313 29.5833 25.5 29.5833C24.8096 29.5833 24.25 29.0237 24.25 28.3333C24.25 27.643 24.8096 27.0833 25.5 27.0833C26.6506 27.0833 27.5833 26.1506 27.5833 25C27.5833 23.8494 26.6506 22.9167 25.5 22.9167H5.5C4.80964 22.9167 4.25 22.357 4.25 21.6667Z" fill="#1E3050"/>
<path d="M8.83333 27.0833C8.14298 27.0833 7.58333 27.643 7.58333 28.3333C7.58333 29.0237 8.14298 29.5833 8.83333 29.5833H15.5C16.1904 29.5833 16.75 29.0237 16.75 28.3333C16.75 27.643 16.1904 27.0833 15.5 27.0833H8.83333Z" fill="#1E3050"/>
</g>
</g>
</svg>
