<svg width="26" height="26" viewBox="0 0 26 26" fill="none" xmlns="http://www.w3.org/2000/svg">
<path fill-rule="evenodd" clip-rule="evenodd" d="M0.333252 12.9997C0.333252 6.00407 6.00431 0.333008 12.9999 0.333008C19.9955 0.333008 25.6666 6.00407 25.6666 12.9997C25.6666 19.9953 19.9955 25.6663 12.9999 25.6663C6.00431 25.6663 0.333252 19.9953 0.333252 12.9997ZM10.9999 6.99967C10.9999 6.26329 11.5969 5.66634 12.3333 5.66634C13.0696 5.66634 13.6666 6.26329 13.6666 6.99967C13.6666 7.73605 13.0696 8.33301 12.3333 8.33301C11.5969 8.33301 10.9999 7.73605 10.9999 6.99967ZM9.33325 11.6663C9.33325 11.1141 9.78097 10.6663 10.3333 10.6663H12.9999C13.5522 10.6663 13.9999 11.1141 13.9999 11.6663V18.6663H16.9999C17.5522 18.6663 17.9999 19.1141 17.9999 19.6663C17.9999 20.2186 17.5522 20.6663 16.9999 20.6663H8.99992C8.44763 20.6663 7.99992 20.2186 7.99992 19.6663C7.99992 19.1141 8.44763 18.6663 8.99992 18.6663H11.9999V12.6663H10.3333C9.78097 12.6663 9.33325 12.2186 9.33325 11.6663Z" fill="#0074FF"/>
</svg>
