<svg width="289" height="254" viewBox="0 0 289 254" fill="none" xmlns="http://www.w3.org/2000/svg">
<path fill-rule="evenodd" clip-rule="evenodd" d="M21.3653 40H2.20769C0.98806 40 0 39.0113 0 37.7922V2.20768C0 0.988208 0.988216 0 2.20769 0H37.7925C39.0116 0 40 0.988208 40 2.20768V37.7922C40 39.0115 39.0115 40 37.7925 40H27.5994V24.5098H32.7988L33.5773 18.473H27.5994V14.6189C27.5994 12.8711 28.0848 11.68 30.5911 11.68L33.7878 11.6786V6.27924C33.2349 6.20567 31.3373 6.04131 29.1296 6.04131C24.5207 6.04131 21.3653 8.8546 21.3653 14.021V18.473H16.1526V24.5098H21.3653V40Z" fill="#1E3050"/>
<path fill-rule="evenodd" clip-rule="evenodd" d="M120.041 0H85.9512C84.323 0 83 1.2919 83 2.88455V37.1154C83 38.7081 84.323 40.0015 85.9512 40.0015H120.041C121.673 40.0015 123 38.7081 123 37.1154V2.88455C123 1.2919 121.673 0 120.041 0Z" fill="#1E3050"/>
<path fill-rule="evenodd" clip-rule="evenodd" d="M92.533 5.40625C94.3955 5.40625 95.909 6.9197 95.909 8.78516C95.909 10.6484 94.3955 12.1619 92.533 12.1619C90.6668 12.1619 89.1577 10.6484 89.1577 8.78516C89.1577 6.9197 90.6668 5.40625 92.533 5.40625ZM89.6218 33.4644H95.448V14.7226H89.6218V33.4644Z" fill="white"/>
<path fill-rule="evenodd" clip-rule="evenodd" d="M99.1001 14.7225H104.687V17.2854H104.767C105.544 15.8113 107.445 14.2578 110.278 14.2578C116.176 14.2578 117.265 18.1385 117.265 23.1851V33.4644H111.443V24.3494C111.443 22.1756 111.406 19.38 108.416 19.38C105.384 19.38 104.923 21.7494 104.923 24.1938V33.4644H99.1001V14.7225Z" fill="white"/>
<path fill-rule="evenodd" clip-rule="evenodd" d="M166 19.9998C166 8.97107 174.969 0 185.994 0V0.000331832H186.006C197.031 0.000331832 206 8.97141 206 20.0002C206 31.0286 197.031 40 186.006 40C181.939 40 178.166 38.7891 175.004 36.6963L167.316 39.1532L169.808 31.7225C167.411 28.43 166 24.3737 166 19.9998ZM179.142 9.17069C179.73 9.19458 180.024 9.22976 180.411 10.1586C180.537 10.461 180.709 10.8786 180.897 11.3362C181.434 12.6396 182.105 14.2677 182.21 14.4853C182.351 14.7793 182.492 15.1792 182.292 15.5671C182.117 15.9391 181.962 16.1178 181.705 16.4152C181.686 16.4375 181.666 16.4605 181.645 16.4843C181.52 16.6303 181.396 16.7611 181.273 16.8916C181.108 17.0661 180.944 17.24 180.776 17.4486L180.761 17.4652C180.495 17.7778 180.206 18.1175 180.541 18.6949C180.881 19.271 182.057 21.1873 183.785 22.7273C185.836 24.5517 187.529 25.2368 188.293 25.5457C188.361 25.5733 188.422 25.5978 188.475 25.6199C188.957 25.82 189.533 25.7729 189.885 25.3966C190.268 24.9845 190.727 24.3397 191.205 23.6688C191.286 23.5554 191.367 23.4412 191.449 23.3273C191.848 22.7629 192.354 22.6922 192.883 22.8919C193.423 23.0801 196.28 24.491 196.868 24.785C196.988 24.8451 197.099 24.8988 197.202 24.9484C197.603 25.1413 197.872 25.2705 197.984 25.4669C198.126 25.7138 198.126 26.8779 197.643 28.2421C197.161 29.6056 195.245 30.7348 193.717 31.064C192.671 31.2873 191.308 31.4638 186.712 29.5591C181.268 27.3043 177.619 22.0136 176.877 20.9375C176.818 20.8518 176.777 20.7928 176.756 20.7642C176.747 20.7529 176.738 20.7394 176.726 20.724C176.353 20.2133 174.381 17.5171 174.381 14.7322C174.381 11.9436 175.758 10.5438 176.375 9.9169C176.393 9.89881 176.41 9.88136 176.427 9.86455C176.909 9.37078 177.708 9.14746 178.472 9.14746C178.719 9.14746 178.942 9.15907 179.142 9.17069Z" fill="#1E3050"/>
<path fill-rule="evenodd" clip-rule="evenodd" d="M268.999 0C257.955 0 249 8.99689 249 20.0976C249 28.9752 254.73 36.5076 262.679 39.1653C263.679 39.3499 264.044 38.7295 264.044 38.1969C264.044 37.7196 264.026 36.4561 264.016 34.7793C258.453 35.9939 257.279 32.0851 257.279 32.0851C256.37 29.764 255.059 29.146 255.059 29.146C253.243 27.8988 255.196 27.9239 255.196 27.9239C257.203 28.0658 258.259 29.9951 258.259 29.9951C260.044 33.0661 262.94 32.1793 264.08 31.6643C264.261 30.3656 264.779 29.4801 265.35 28.9777C260.909 28.4703 256.24 26.747 256.24 19.0463C256.24 16.8521 257.019 15.0585 258.299 13.653C258.093 13.1443 257.406 11.102 258.494 8.33497C258.494 8.33497 260.174 7.79488 263.994 10.3948C265.59 9.94896 267.3 9.72664 269.001 9.71785C270.7 9.72664 272.411 9.94896 274.009 10.3948C277.826 7.79488 279.503 8.33497 279.503 8.33497C280.594 11.102 279.908 13.1443 279.701 13.653C280.984 15.0585 281.758 16.8521 281.758 19.0463C281.758 26.7659 277.081 28.4653 272.626 28.9626C273.344 29.5831 273.984 30.809 273.984 32.6842C273.984 35.3709 273.959 37.5375 273.959 38.1969C273.959 38.7345 274.319 39.36 275.334 39.1628C283.275 36.5 289 28.9727 289 20.0976C289 8.99689 280.045 0 268.999 0Z" fill="#1E3050"/>
<path fill-rule="evenodd" clip-rule="evenodd" d="M26.1844 89.2425C27.5223 87.5272 28.5365 85.1027 28.1696 82.6279C25.983 82.7789 23.4271 84.1684 21.9358 85.9795C20.5763 87.6206 19.459 90.0618 19.8954 92.4312C22.2858 92.5054 24.753 91.0824 26.1844 89.2425ZM37.9999 112.521C37.0433 114.639 36.5829 115.585 35.3505 117.461C33.6314 120.08 31.2074 123.34 28.2008 123.364C25.5322 123.393 24.8441 121.627 21.2213 121.649C17.5985 121.668 16.8432 123.398 14.1699 123.372C11.1656 123.345 8.86869 120.403 7.14959 117.785C2.33994 110.468 1.83404 101.88 4.79991 97.311C6.90983 94.0672 10.2377 92.1698 13.3643 92.1698C16.5459 92.1698 18.5479 93.9139 21.1829 93.9139C23.7388 93.9139 25.2949 92.165 28.9752 92.165C31.7613 92.165 34.7128 93.6815 36.8131 96.2976C29.9271 100.068 31.042 109.893 37.9999 112.521Z" fill="#1E3050"/>
<g clip-path="url(#clip0_11686_179841)">
<path d="M116.455 88.8259C119.15 86.8032 123 88.7259 123 92.0986V115.28C123 116.785 121.782 118.008 120.273 118.008H113.833V90.7918L116.455 88.8259Z" fill="#1E3050"/>
<path d="M112.167 103.833L112.167 103.837L103 110.735L93.8333 103.837V92.0418L103 98.9168L112.167 92.0418V103.833Z" fill="#1E3050"/>
<path d="M92.1667 90.7918L89.5455 88.8259C86.8455 86.8032 83 88.7259 83 92.0986V115.28C83 116.79 84.2227 118.008 85.7273 118.008H92.1667V90.7918Z" fill="#1E3050"/>
</g>
<path d="M166 115.315C169.547 117.642 173.882 119 178.611 119C193.783 119 202.453 106.394 201.862 94.9515C203.438 93.7879 204.818 92.4303 206 90.6848C204.621 91.2667 203.044 91.8485 201.271 92.0424C203.044 91.0727 204.227 89.5212 204.818 87.5818C203.241 88.5515 201.468 89.1333 199.695 89.5212C198.118 87.9697 196.148 87 193.783 87C188.463 87 184.522 91.8485 185.704 96.8909C178.808 96.503 172.897 93.4 168.759 88.5515C166.591 92.2364 167.576 96.8909 171.32 99.4121C169.941 99.4121 168.759 99.0242 167.576 98.4424C167.576 102.127 170.138 105.618 174.079 106.394C172.897 106.782 171.714 106.782 170.335 106.588C171.32 109.885 174.473 112.212 178.02 112.212C174.67 114.733 170.335 115.897 166 115.315Z" fill="#1E3050"/>
<path d="M288.204 93.3177C287.678 91.6168 286.362 90.1776 284.652 89.7851C281.495 89 268.997 89 268.997 89C268.997 89 256.499 89 253.341 89.7851C251.631 90.3084 250.316 91.6168 249.789 93.3177C249 96.4579 249 103 249 103C249 103 249 109.542 249.789 112.682C250.316 114.383 251.631 115.822 253.341 116.215C256.499 117 268.997 117 268.997 117C268.997 117 281.495 117 284.652 116.215C286.362 115.692 287.678 114.383 288.204 112.682C288.993 109.542 288.994 103 288.994 103C288.994 103 289.125 96.4579 288.204 93.3177Z" fill="#1E3050"/>
<path d="M265 109V97L275 103L265 109Z" fill="white"/>
<path d="M20.3869 166C22.0416 166 27.6458 166.49 30.2853 172.786C31.1735 174.905 30.9606 178.504 30.789 181.396L30.7821 181.518C30.7634 181.834 30.7458 182.136 30.7301 182.429C30.8537 182.501 31.0706 182.59 31.4019 182.607C31.9016 182.583 32.4812 182.408 33.1261 182.086C33.4004 181.95 33.694 181.921 33.8919 181.921C34.1814 181.921 34.4769 181.981 34.726 182.091L34.7282 182.092C35.4686 182.373 35.9344 182.941 35.9461 183.578C35.9605 184.388 35.2804 185.087 33.9245 185.657C33.7591 185.726 33.5578 185.795 33.3437 185.867C32.5783 186.125 31.4219 186.516 31.1081 187.302C30.9457 187.71 31.0099 188.234 31.3003 188.861C31.307 188.875 31.3132 188.889 31.319 188.904C31.4206 189.155 33.867 195.093 39.3056 196.046C39.7233 196.12 40.0222 196.516 39.9987 196.966C39.9915 197.101 39.9614 197.235 39.9091 197.365C39.502 198.375 37.7812 199.118 34.6468 199.635C34.5427 199.785 34.4344 200.313 34.368 200.636L34.3675 200.639C34.3006 200.964 34.2329 201.286 34.1384 201.627C34.008 202.102 33.6794 202.364 33.2135 202.364H33.1909L33.1677 202.363C32.9458 202.363 32.6419 202.323 32.2644 202.245C31.6619 202.12 30.9863 202.004 30.1325 202.004C29.6361 202.004 29.1215 202.05 28.6044 202.141C27.5946 202.32 26.7369 202.964 25.7415 203.712L25.7377 203.715C24.314 204.786 22.7007 206 20.2474 206C20.1375 206 20.0341 205.996 19.9546 205.993C19.8876 205.998 19.8198 206 19.7524 206C17.2999 206 15.6864 204.787 14.2616 203.715C13.2669 202.967 12.4076 202.32 11.3965 202.141C10.8785 202.05 10.3641 202.004 9.86781 202.004C8.97293 202.004 8.25802 202.153 7.73595 202.261C7.38802 202.334 7.08738 202.396 6.83265 202.396C6.20191 202.396 5.95659 201.987 5.86215 201.645C5.76585 201.297 5.69827 200.967 5.6328 200.647L5.63109 200.638C5.56423 200.313 5.4564 199.789 5.35258 199.639C2.21902 199.122 0.497711 198.378 0.0897557 197.363C0.0382662 197.234 0.00843692 197.101 0.0012581 196.967C-0.0218874 196.517 0.276776 196.12 0.694881 196.047C6.13086 195.095 8.57934 189.156 8.6812 188.904C8.68582 188.892 8.69093 188.881 8.69607 188.869C8.69726 188.867 8.69845 188.864 8.69964 188.861C8.98977 188.235 9.05462 187.71 8.89211 187.302C8.57828 186.516 7.42255 186.125 6.65725 185.867C6.44498 185.795 6.24263 185.727 6.07541 185.657C4.22278 184.878 3.96496 183.984 4.0745 183.371C4.22649 182.519 5.20269 181.948 6.01885 181.948C6.25451 181.948 6.46777 181.994 6.65281 182.086C7.34965 182.434 7.96864 182.61 8.49232 182.61C8.88468 182.61 9.13396 182.51 9.27048 182.429C9.25583 182.156 9.2392 181.875 9.22288 181.599C9.21879 181.53 9.21472 181.461 9.2107 181.393L9.21044 181.389C9.03993 178.5 8.82783 174.906 9.7147 172.79C12.353 166.497 17.9454 166.008 19.5954 166.008C19.6464 166.008 20.2875 166.001 20.2875 166.001C20.3183 166 20.3524 166 20.3869 166Z" fill="#1E3050"/>
<path fill-rule="evenodd" clip-rule="evenodd" d="M91.3721 186C91.3721 184.701 91.5926 183.455 91.986 182.287L85.0986 177.14C83.7563 179.807 83 182.812 83 186C83 189.184 83.7553 192.188 85.0958 194.853L91.9795 189.696C91.5898 188.533 91.3721 187.292 91.3721 186Z" fill="#1E3050"/>
<path fill-rule="evenodd" clip-rule="evenodd" d="M103.465 174.182C106.348 174.182 108.953 175.182 111 176.818L116.953 171C113.325 167.909 108.674 166 103.465 166C95.3772 166 88.4265 170.526 85.0981 177.14L91.9856 182.287C93.5726 177.573 98.0963 174.182 103.465 174.182Z" fill="#1E3050"/>
<path fill-rule="evenodd" clip-rule="evenodd" d="M103.464 197.818C98.0958 197.818 93.5721 194.427 91.9851 189.713L85.0977 194.859C88.426 201.474 95.3767 206 103.464 206C108.456 206 113.221 204.266 116.798 201.016L110.26 196.069C108.416 197.207 106.093 197.818 103.464 197.818Z" fill="#1E3050"/>
<path fill-rule="evenodd" clip-rule="evenodd" d="M123 186C123 184.818 122.814 183.545 122.535 182.363H103.465V190.091H114.442C113.893 192.725 112.399 194.751 110.261 196.069L116.799 201.015C120.556 197.602 123 192.519 123 186Z" fill="#1E3050"/>
<g clip-path="url(#clip1_11686_179841)">
<path d="M186 206C197.046 206 206 197.046 206 186C206 174.954 197.046 166 186 166C174.954 166 166 174.954 166 186C166 197.046 174.954 206 186 206Z" fill="#1E3050"/>
<path d="M194.635 190.102C194.469 190.102 194.324 190.242 194.173 190.546C192.466 194.007 189.518 196.456 186.106 196.456C182.161 196.456 179.718 192.895 179.718 187.976C179.718 179.642 184.362 174.824 188.44 174.824C190.345 174.824 191.509 176.022 191.509 177.928C191.509 180.19 190.224 181.387 190.224 182.185C190.224 182.543 190.447 182.76 190.889 182.76C192.663 182.76 194.746 180.721 194.746 177.84C194.746 175.047 192.315 172.994 188.237 172.994C181.497 172.994 175.507 179.243 175.507 187.888C175.507 194.58 179.329 199.003 185.225 199.003C191.483 199.003 195.102 192.776 195.102 190.755C195.102 190.307 194.873 190.102 194.635 190.102Z" fill="white"/>
</g>
<path fill-rule="evenodd" clip-rule="evenodd" d="M269 166C273.033 166 276.354 167.109 279.418 168.93C279.457 168.945 279.465 168.992 279.449 169.031C279.434 169.07 279.395 169.078 279.356 169.062C275.479 168.227 269.594 171.57 269.039 171.906C269.035 171.908 269.031 171.91 269.028 171.912C269.019 171.918 269.011 171.922 269 171.922C268.984 171.922 268.969 171.914 268.953 171.906C267.476 171.062 262.036 168.211 258.605 169.086C258.566 169.094 258.527 169.086 258.512 169.047C258.496 169.008 258.512 168.969 258.543 168.945C261.607 167.102 264.975 166 269 166ZM254.948 171.766C254.94 171.766 254.948 171.758 254.963 171.75L254.956 171.765C254.955 171.766 254.955 171.766 254.955 171.766L254.956 171.765C254.985 171.739 256.835 170.339 263.513 176.984C263.537 177 263.553 177.023 263.553 177.047C263.553 177.07 263.537 177.094 263.521 177.109C259.488 181.898 251.696 193.328 253.22 198.039C253.236 198.078 253.236 198.117 253.197 198.141C253.158 198.164 253.111 198.141 253.088 198.109C250.524 194.742 249 190.547 249 185.992C249 180.422 251.274 175.391 254.948 171.766ZM283.052 171.766C283.052 171.766 283.052 171.758 283.037 171.75L283.045 171.766C283.045 171.767 283.045 171.766 283.043 171.765C282.98 171.72 281.11 170.395 274.494 176.977C274.471 177 274.455 177.016 274.455 177.047C274.455 177.063 274.471 177.086 274.487 177.102C278.512 181.891 286.304 193.328 284.78 198.039C284.764 198.078 284.772 198.118 284.803 198.141C284.842 198.164 284.889 198.141 284.913 198.11C287.476 194.743 289 190.547 289 185.993C289 180.422 286.726 175.391 283.052 171.766ZM269.063 182.07C269.047 182.055 269.023 182.039 269 182.039C268.977 182.039 268.945 182.055 268.937 182.07C262.951 186.625 252.712 197.875 255.831 201.055C259.348 204.133 263.959 206 269 206C274.041 206 278.644 204.133 282.169 201.055H282.177V201.047L282.169 201.055C285.295 197.867 275.049 186.617 269.063 182.07Z" fill="#1E3050"/>
<defs>
<clipPath id="clip0_11686_179841">
<rect width="40" height="40" fill="white" transform="translate(83 83)"/>
</clipPath>
<clipPath id="clip1_11686_179841">
<rect width="40" height="40" fill="white" transform="translate(166 166)"/>
</clipPath>
</defs>
</svg>
