<svg width="100" height="100" viewBox="0 0 100 100" fill="none" xmlns="http://www.w3.org/2000/svg">
<path fill-rule="evenodd" clip-rule="evenodd" d="M10.625 7.5V8.125H8.75C7.71447 8.125 6.875 8.96447 6.875 10V19.375H23.125V10C23.125 8.96447 22.2855 8.125 21.25 8.125H19.375V7.5C19.375 5.08375 17.4162 3.125 15 3.125C12.5838 3.125 10.625 5.08375 10.625 7.5ZM15 4.375C13.2741 4.375 11.875 5.77411 11.875 7.5V8.125H18.125V7.5C18.125 5.77411 16.7259 4.375 15 4.375Z" fill="#1E3050"/>
<path d="M23.125 20.625H6.875V25C6.875 26.0355 7.71447 26.875 8.75 26.875H21.25C22.2855 26.875 23.125 26.0355 23.125 25V20.625Z" fill="#1E3050"/>
<path d="M58.3328 4.75479C57.8446 4.26663 57.0531 4.26663 56.565 4.75479L53.9133 7.40645L58.3328 11.8259L60.9845 9.17432C61.4727 8.68617 61.4727 7.8947 60.9845 7.40655L58.3328 4.75479Z" fill="#1E3050"/>
<path d="M46.4811 14.8387L53.0294 8.29033L57.4489 12.7098L50.9055 19.2531L48.3135 25.3438C48.225 25.5519 48.031 25.6959 47.8062 25.7204L40.0566 26.5655L46.3996 20.2225C46.6437 19.9784 46.6437 19.5827 46.3996 19.3386C46.1556 19.0945 45.7598 19.0945 45.5158 19.3386L39.1748 25.6795L40.0477 17.9565C40.0728 17.7337 40.2154 17.5416 40.4212 17.4528L46.4811 14.8387Z" fill="#1E3050"/>
<path d="M84.375 6.43961C82.7503 5.6697 80.7933 5.60581 79.0139 5.78619C77.0035 5.99 75.0843 6.52185 73.8821 6.85503C73.7774 6.88404 73.6779 6.91162 73.5845 6.93727C73.3131 7.0118 73.125 7.25852 73.125 7.53996V24.9997C73.125 25.2206 73.2417 25.4252 73.4319 25.5377C73.6221 25.6501 73.8576 25.6538 74.0512 25.5473L74.1205 25.5092C76.526 24.186 78.2164 23.2644 79.7939 22.9745C81.2229 22.7119 82.5999 22.9664 84.375 24.1248V6.43961Z" fill="#1E3050"/>
<path d="M85.625 24.0898C87.0008 23.013 88.327 22.6331 89.8405 22.8245C91.4879 23.0329 93.4173 23.9249 95.9125 25.5257C96.1048 25.6491 96.3492 25.6577 96.5497 25.5481C96.7503 25.4385 96.875 25.2282 96.875 24.9997V7.54129C96.875 7.26202 96.6897 7.01664 96.4211 6.94017C96.3203 6.91146 96.2114 6.88004 96.0952 6.8465C94.9728 6.52253 93.1626 5.99999 91.2046 5.79465C89.3982 5.6052 87.3834 5.67546 85.625 6.47967V24.0898Z" fill="#1E3050"/>
<path d="M18.1248 38.2734L11.875 39.9918V61.2882L18.1248 59.5698V38.2734Z" fill="#1E3050"/>
<path d="M19.3748 59.4875L25.4195 60.4949C26.1814 60.6219 26.875 60.0344 26.875 59.2619V41.7002C26.875 41.1622 26.5307 40.6845 26.0203 40.5144L19.3748 38.2992V59.4875Z" fill="#1E3050"/>
<path d="M10.625 61.2997V39.9917L4.70637 38.3645C3.91062 38.1457 3.125 38.7445 3.125 39.5698V58.4488C3.125 59.0224 3.51538 59.5224 4.07184 59.6615L10.625 61.2997Z" fill="#1E3050"/>
<path d="M43.125 40.9375H41.4526L40.2417 50.625H46.25C47.2855 50.625 48.125 51.4645 48.125 52.5V52.8125H51.8616L51.8616 52.4998C51.8617 51.4644 52.7011 50.625 53.7366 50.625H59.7583L58.5474 40.9375H56.875C56.3572 40.9375 55.9375 40.5178 55.9375 40C55.9375 39.4822 56.3572 39.0625 56.875 39.0625H58.8233C59.6113 39.0625 60.276 39.6493 60.3737 40.4312L61.8678 52.3837L61.8582 52.3849C61.8605 52.423 61.8617 52.4614 61.8617 52.5V57.5C61.8617 58.5355 61.0222 59.375 59.9867 59.375H53.7366C52.7011 59.375 51.8617 58.5356 51.8616 57.5001L51.8616 54.6875H48.125V57.5C48.125 58.5355 47.2855 59.375 46.25 59.375H40C38.9645 59.375 38.125 58.5355 38.125 57.5V52.5C38.125 52.3629 38.1397 52.2293 38.1676 52.1006L39.6263 40.4312C39.724 39.6493 40.3887 39.0625 41.1767 39.0625H43.125C43.6428 39.0625 44.0625 39.4822 44.0625 40C44.0625 40.5178 43.6428 40.9375 43.125 40.9375Z" fill="#1E3050"/>
<path d="M85.9375 38.1611V49.0622H96.8385C96.3847 43.2513 91.7483 38.615 85.9375 38.1611Z" fill="#1E3050"/>
<path d="M84.0625 38.1611V49.9997C84.0625 50.5174 84.4822 50.9372 85 50.9372H96.8385C96.3606 57.0573 91.2429 61.8747 85 61.8747C78.4416 61.8747 73.125 56.5581 73.125 49.9997C73.125 43.7568 77.9424 38.6391 84.0625 38.1611Z" fill="#1E3050"/>
<path fill-rule="evenodd" clip-rule="evenodd" d="M2.5 85C2.5 78.0964 8.09644 72.5 15 72.5C21.9036 72.5 27.5 78.0964 27.5 85C27.5 91.9036 21.9036 97.5 15 97.5C8.09644 97.5 2.5 91.9036 2.5 85ZM12.1887 80.083C12.3828 79.9716 12.6216 79.9724 12.8149 80.0851L20.3149 84.4601C20.5069 84.5721 20.625 84.7777 20.625 85C20.625 85.2223 20.5069 85.4279 20.3149 85.5399L12.8149 89.9149C12.6216 90.0276 12.3828 90.0284 12.1887 89.917C11.9947 89.8055 11.875 89.5988 11.875 89.375V80.625C11.875 80.4012 11.9947 80.1945 12.1887 80.083Z" fill="#1E3050"/>
<path d="M48.7473 72.7976C48.974 72.6111 49.3 72.6075 49.5308 72.7891C51.7731 74.5531 53.1632 76.6689 53.687 79.0249C54.023 80.5366 53.9968 82.1217 53.6336 83.7449C53.9313 83.3889 54.2406 82.9994 54.5431 82.5882C55.1513 81.7613 55.715 80.8689 56.0977 80.0051C56.4851 79.1307 56.6579 78.3506 56.5689 77.7221C56.5257 77.4168 56.7116 77.1256 57.0067 77.0363C57.3019 76.947 57.6181 77.0863 57.7514 77.3644C58.9246 79.812 59.6691 83.086 58.8269 86.1731C58.5314 87.2564 58.0445 88.3017 57.3289 89.2693L60.9105 87.8765C61.393 87.6888 61.9363 87.9279 62.124 88.4105C62.3117 88.893 62.0726 89.4363 61.59 89.624L52.5868 93.1252L61.59 96.6265C62.0726 96.8142 62.3117 97.3575 62.124 97.84C61.9363 98.3226 61.393 98.5617 60.9105 98.374L50.0003 94.1311L39.09 98.374C38.6075 98.5617 38.0642 98.3226 37.8765 97.84C37.6888 97.3575 37.9279 96.8142 38.4105 96.6265L47.4041 93.129C47.3867 93.1198 47.3693 93.1106 47.3519 93.1012L38.4105 89.624C37.9279 89.4363 37.6888 88.893 37.8765 88.4105C38.0642 87.9279 38.6075 87.6888 39.09 87.8765L44.3939 89.9391C43.8517 88.8217 43.5159 87.4608 43.5159 85.8593C43.5159 82.2984 45.4397 80.1956 46.9661 78.5271L47.0928 78.3886C47.8862 77.5198 48.5038 76.8136 48.8093 76.063C49.0904 75.3725 49.1197 74.6054 48.5878 73.5647C48.4542 73.3033 48.5205 72.9841 48.7473 72.7976Z" fill="#1E3050"/>
<path fill-rule="evenodd" clip-rule="evenodd" d="M82.7589 75.625C82.4274 75.625 82.1094 75.7567 81.875 75.9911L79.7411 78.125H74.375C73.6846 78.125 73.125 78.6846 73.125 79.375V93.125C73.125 93.8154 73.6846 94.375 74.375 94.375H95.625C96.3154 94.375 96.875 93.8154 96.875 93.125V79.375C96.875 78.6846 96.3154 78.125 95.625 78.125H90.2589L88.125 75.9911C87.8906 75.7567 87.5726 75.625 87.2411 75.625H82.7589ZM85 81.875C82.5838 81.875 80.625 83.8338 80.625 86.25C80.625 88.6662 82.5838 90.625 85 90.625C87.4162 90.625 89.375 88.6662 89.375 86.25C89.375 83.8338 87.4162 81.875 85 81.875Z" fill="#1E3050"/>
</svg>
