<svg width="290" height="254" viewBox="0 0 290 254" fill="none" xmlns="http://www.w3.org/2000/svg">
<path fill-rule="evenodd" clip-rule="evenodd" d="M3.83325 17.917V34.167H37.1666V17.917L3.83325 17.917ZM25.4999 25.8337C25.4999 23.9927 26.9923 22.5003 28.8333 22.5003C30.6742 22.5003 32.1666 23.9927 32.1666 25.8337C32.1666 27.6746 30.6742 29.167 28.8333 29.167C26.9923 29.167 25.4999 27.6746 25.4999 25.8337Z" fill="#1E3050" fill-opacity="0.3"/>
<path d="M3.83325 5.83301H37.1666V15.4163L31.7499 15.4163V10.4163H29.2499V15.4163H26.7499V10.4163H24.2499V15.4163H21.7499V10.4163H19.2499V15.4163H16.7499V10.4163H14.2499V15.4163H11.7499V10.4163H9.24992V15.4163L3.83325 15.4163V5.83301Z" fill="#1E3050"/>
<path fill-rule="evenodd" clip-rule="evenodd" d="M28.8333 22.5C26.9924 22.5 25.5 23.9924 25.5 25.8333C25.5 27.6743 26.9924 29.1667 28.8333 29.1667C30.6743 29.1667 32.1667 27.6743 32.1667 25.8333C32.1667 23.9924 30.6743 22.5 28.8333 22.5Z" fill="#1E3050"/>
<path d="M98.4999 19.1667C100.801 19.1667 102.667 21.0321 102.667 23.3333C102.667 25.6345 100.801 27.5 98.4999 27.5C96.1987 27.5 94.3333 25.6345 94.3333 23.3333C94.3333 21.0321 96.1987 19.1667 98.4999 19.1667Z" fill="#1E3050" fill-opacity="0.3"/>
<path fill-rule="evenodd" clip-rule="evenodd" d="M120.167 12.5H86.8333V34.1667H120.167V12.5ZM104.333 23.3333C104.333 20.1117 101.722 17.5 98.4999 17.5C95.2783 17.5 92.6666 20.1117 92.6666 23.3333C92.6666 26.555 95.2783 29.1667 98.4999 29.1667C101.722 29.1667 104.333 26.555 104.333 23.3333ZM107.25 27.0833V29.5833H114.75V27.0833H107.25ZM108.917 22.0833H114.75V24.5833H108.917V22.0833ZM107.25 17.0833V19.5833H114.75V17.0833L107.25 17.0833Z" fill="#1E3050" fill-opacity="0.3"/>
<path fill-rule="evenodd" clip-rule="evenodd" d="M118.237 7.74077L93.0833 11.0947V12.5003H90.5833V8.90587L117.907 5.2627L118.237 7.74077Z" fill="#1E3050"/>
<path fill-rule="evenodd" clip-rule="evenodd" d="M98.4999 19.1667C100.801 19.1667 102.667 21.0321 102.667 23.3333C102.667 25.6345 100.801 27.5 98.4999 27.5C96.1987 27.5 94.3333 25.6345 94.3333 23.3333C94.3333 21.0321 96.1987 19.1667 98.4999 19.1667ZM104.333 23.3333C104.333 20.1117 101.722 17.5 98.4999 17.5C95.2783 17.5 92.6666 20.1117 92.6666 23.3333C92.6666 26.555 95.2783 29.1667 98.4999 29.1667C101.722 29.1667 104.333 26.555 104.333 23.3333Z" fill="#1E3050"/>
<path fill-rule="evenodd" clip-rule="evenodd" d="M107.25 27.083L114.75 27.083L114.75 29.583L107.25 29.583L107.25 27.083Z" fill="#1E3050"/>
<path fill-rule="evenodd" clip-rule="evenodd" d="M108.917 22.083L114.75 22.083L114.75 24.583L108.917 24.583L108.917 22.083Z" fill="#1E3050"/>
<path fill-rule="evenodd" clip-rule="evenodd" d="M107.25 17.083L114.75 17.083L114.75 19.583L107.25 19.583L107.25 17.083Z" fill="#1E3050"/>
<path d="M200.25 26.6667V2.65625L180.25 6.46577V27.3356C181.745 28.2001 182.75 29.816 182.75 31.6667V8.53453L197.75 5.67739V22.3356C199.245 23.2001 200.25 24.816 200.25 26.6667Z" fill="#1E3050" fill-opacity="0.3"/>
<path d="M177.75 26.667C174.989 26.667 172.75 28.9056 172.75 31.667C172.75 34.4284 174.989 36.667 177.75 36.667C180.511 36.667 182.75 34.4284 182.75 31.667C182.75 28.9056 180.511 26.667 177.75 26.667Z" fill="#1E3050"/>
<path d="M195.25 21.667C192.489 21.667 190.25 23.9056 190.25 26.667C190.25 29.4284 192.489 31.667 195.25 31.667C198.011 31.667 200.25 29.4284 200.25 26.667C200.25 23.9056 198.011 21.667 195.25 21.667Z" fill="#1E3050"/>
<path fill-rule="evenodd" clip-rule="evenodd" d="M262.417 36.6663L262.417 3.33301H286.167V36.6663H262.417ZM270.333 24.1663C269.578 24.1663 268.86 24.2671 268.302 24.4532C268.027 24.5448 267.745 24.6722 267.514 24.8541C267.293 25.0287 267 25.3532 267 25.833C267 26.3128 267.293 26.6373 267.514 26.8119C267.745 26.9938 268.027 27.1213 268.302 27.2128C268.86 27.3989 269.578 27.4997 270.333 27.4997C271.088 27.4997 271.807 27.3989 272.365 27.2128C272.639 27.1213 272.922 26.9938 273.153 26.8119C273.374 26.6373 273.667 26.3128 273.667 25.833C273.667 25.8286 273.667 25.8242 273.667 25.8197L273.667 16.2497H276.583V13.7497H271.167V24.2087C270.899 24.1807 270.619 24.1663 270.333 24.1663Z" fill="#1E3050" fill-opacity="0.3"/>
<path fill-rule="evenodd" clip-rule="evenodd" d="M270.333 24.1667C269.578 24.1667 268.86 24.2674 268.302 24.4535C268.027 24.5451 267.745 24.6725 267.514 24.8545C267.292 25.029 267 25.3535 267 25.8333C267 26.3132 267.292 26.6377 267.514 26.8122C267.745 26.9942 268.027 27.1216 268.302 27.2132C268.86 27.3992 269.578 27.5 270.333 27.5C271.088 27.5 271.806 27.3992 272.365 27.2132C272.639 27.1216 272.922 26.9942 273.153 26.8122C273.374 26.6377 273.667 26.3132 273.667 25.8333C273.667 25.8289 273.667 25.8245 273.667 25.8201L273.667 16.25H276.583V13.75H271.167V24.209C270.899 24.1811 270.619 24.1667 270.333 24.1667Z" fill="#1E3050"/>
<path d="M252.833 3.33301H259.917L259.917 36.6663H252.833V3.33301Z" fill="#1E3050"/>
<path d="M28.7027 105.668C29.393 104.473 30.922 104.063 32.1177 104.753C32.2691 104.841 32.4079 104.942 32.5334 105.053C31.9972 105.337 31.5317 105.769 31.2061 106.333L26.2061 114.994C25.8807 115.557 25.7386 116.176 25.7613 116.782C25.6018 116.729 25.4453 116.66 25.294 116.572C24.0983 115.882 23.6886 114.353 24.379 113.157L28.7027 105.668Z" fill="#1E3050"/>
<path d="M12.3745 105.674C11.6841 104.478 10.1551 104.069 8.9594 104.759C8.8093 104.846 8.67158 104.946 8.54688 105.056C9.08076 105.34 9.54415 105.771 9.86861 106.333L14.8686 114.994C15.1931 115.555 15.3353 116.173 15.3136 116.777C15.4719 116.724 15.6272 116.655 15.7773 116.568C16.9731 115.878 17.3828 114.349 16.6924 113.153L12.3745 105.674Z" fill="#1E3050"/>
<path d="M6.75 102.167C6.75 99.2709 7.64538 96.5839 9.17442 94.3677C9.21537 94.4153 9.2584 94.4617 9.30352 94.5069C10.2748 95.4782 11.8466 95.4831 12.8241 94.5217L13.5957 93.8182C15.4705 92.2659 17.8752 91.3337 20.4997 91.3337C23.5006 91.3337 25.2123 91.9356 26.238 92.5728C27.0736 93.0919 27.4888 93.6403 27.8476 94.1142C27.9346 94.2291 28.0184 94.3398 28.1039 94.4445L28.1304 94.4768L28.1599 94.5063C29.1362 95.4826 30.7191 95.4826 31.6954 94.5063C31.7407 94.461 31.7838 94.4145 31.8249 94.3667C33.3507 96.5778 34.2457 99.2577 34.25 102.146L34.2498 102.167C34.2498 103.323 34.1075 104.443 33.84 105.514L36.1457 106.571C36.5376 105.176 36.7478 103.706 36.7498 102.189L36.75 102.167C36.75 93.1924 29.4746 85.917 20.5 85.917C11.5254 85.917 4.25 93.1924 4.25 102.167C4.25 103.721 4.46854 105.226 4.87729 106.652L7.15808 105.507C6.89167 104.439 6.75 103.32 6.75 102.167Z" fill="#1E3050" fill-opacity="0.3"/>
<path d="M8.01898 105.724C7.74802 105.601 7.45673 105.527 7.1597 105.506L4.87892 106.652C4.39222 107.413 4.33662 108.413 4.81973 109.25L9.81973 117.91C10.5101 119.106 12.0391 119.516 13.2348 118.825C13.9608 118.406 14.397 117.678 14.4732 116.903C14.5225 116.401 14.4211 115.88 14.1499 115.41L9.14986 106.75C8.87864 106.28 8.478 105.932 8.01898 105.724Z" fill="#1E3050"/>
<path d="M36.2609 109.25C36.7614 108.383 36.6837 107.341 36.1473 106.57L33.8417 105.513C33.5737 105.54 33.3116 105.611 33.066 105.722C32.6052 105.93 32.2028 106.279 31.9307 106.75L26.9307 115.41C26.6588 115.881 26.5575 116.404 26.6078 116.907C26.6852 117.681 27.1211 118.407 27.8458 118.825C29.0415 119.516 30.5705 119.106 31.2609 117.91L36.2609 109.25Z" fill="#1E3050"/>
<path d="M103.5 107.167C102.119 107.167 101 108.286 101 109.667C101 111.048 102.119 112.167 103.5 112.167C104.881 112.167 106 111.048 106 109.667C106 108.286 104.881 107.167 103.5 107.167Z" fill="#1E3050"/>
<path fill-rule="evenodd" clip-rule="evenodd" d="M104.333 92.167H109.333V93.8337H104.333V92.167Z" fill="#1E3050" fill-opacity="0.3"/>
<path fill-rule="evenodd" clip-rule="evenodd" d="M102.751 92.167H97.7512V93.8337H102.751V92.167Z" fill="#1E3050" fill-opacity="0.3"/>
<path fill-rule="evenodd" clip-rule="evenodd" d="M120.167 103V111.333C120.167 115.517 116.6 118.833 112.296 118.833H94.7036C90.4 118.833 86.8333 115.517 86.8333 111.333V103H120.167ZM101 109.667C101 108.286 102.119 107.167 103.5 107.167C104.881 107.167 106 108.286 106 109.667C106 111.047 104.881 112.167 103.5 112.167C102.119 112.167 101 111.047 101 109.667Z" fill="#1E3050" fill-opacity="0.3"/>
<path fill-rule="evenodd" clip-rule="evenodd" d="M106.067 88.6374C107.156 87.6338 108.623 87.167 110.167 87.167C111.413 87.167 113.204 87.6268 114.678 88.3319C115.421 88.6873 116.135 89.1289 116.676 89.6499C117.198 90.1517 117.648 90.8168 117.666 91.6178C117.779 92.6858 117.779 93.3148 117.666 94.3829C117.648 95.1839 117.198 95.849 116.676 96.3507C116.135 96.8718 115.421 97.3134 114.678 97.6688C113.508 98.2284 112.138 98.6335 111 98.7768V103C149.413 103 57.4607 103 96.0847 103V98.7768C94.9464 98.6335 93.5771 98.2284 92.4071 97.6688C91.664 97.3134 90.9498 96.8718 90.4084 96.3507C89.8871 95.849 89.4365 95.1839 89.4186 94.3829C89.3061 93.3148 89.3061 92.6858 89.4186 91.6178C89.4365 90.8168 89.8871 90.1517 90.4084 89.6499C90.9498 89.1289 91.664 88.6873 92.4071 88.3319C93.8813 87.6268 95.6716 87.167 96.9181 87.167C98.4617 87.167 99.9286 87.6338 101.018 88.6374C101.95 89.4952 102.546 90.6905 102.707 92.167H97.7514V93.8337H102.707C102.55 95.2746 101.978 96.4479 101.085 97.3008V103H106V97.3008C105.107 96.4479 104.535 95.2746 104.378 93.8337H109.333V92.167H104.378C104.539 90.6905 105.135 89.4952 106.067 88.6374Z" fill="#1E3050"/>
<path d="M175.25 115.084V105.917H177.75V112.584H195.25V105.917H197.75V115.084H187.75V117.167H192.75V119.667H180.25V117.167H185.25V115.084H175.25Z" fill="#1E3050" fill-opacity="0.3"/>
<path d="M179.833 110.5V95.5H193.167V110.5H179.833Z" fill="#1E3050"/>
<path d="M193.167 86.333H179.833V93.833H193.167V86.333Z" fill="#1E3050" fill-opacity="0.3"/>
<path d="M258.667 96.333L258.667 109.666H252.833V96.333H258.667Z" fill="#1E3050"/>
<path d="M280.695 90.0361L281.579 90.92C288.25 97.5915 288.25 108.408 281.579 115.079L280.695 115.963L278.927 114.196L279.811 113.312C285.506 107.617 285.506 98.3829 279.811 92.6878L278.927 91.8039L280.695 90.0361Z" fill="#1E3050"/>
<path d="M277.21 94.4556L276.326 93.5717L274.559 95.3395L275.442 96.2233C279.185 99.9659 279.185 106.034 275.442 109.776L274.559 110.66L276.326 112.428L277.21 111.544C281.929 106.825 281.929 99.1744 277.21 94.4556Z" fill="#1E3050"/>
<path d="M271.167 89.0088V116.991L260.333 110.325L260.333 95.7515H260.21L271.167 89.0088Z" fill="#1E3050" fill-opacity="0.3"/>
<path d="M3.41675 197.25V199.75H37.5834V197.25H3.41675Z" fill="#1E3050"/>
<path d="M20.4982 172.191L38.101 193.5H26.0271L20.4982 186.361L14.9692 193.5H2.89575L20.4982 172.191Z" fill="#1E3050" fill-opacity="0.3"/>
<path fill-rule="evenodd" clip-rule="evenodd" d="M86.8333 179.333H120.167V202.666H86.8333V179.333ZM106 191.416C106 188.885 108.052 186.833 110.583 186.833C113.115 186.833 115.167 188.885 115.167 191.416C115.167 193.948 113.115 196 110.583 196C108.052 196 106 193.948 106 191.416Z" fill="#1E3050" fill-opacity="0.3"/>
<path fill-rule="evenodd" clip-rule="evenodd" d="M116.417 168.917L116.417 179.334L113.917 179.334L113.917 168.917L116.417 168.917Z" fill="#1E3050"/>
<path fill-rule="evenodd" clip-rule="evenodd" d="M107.831 176.416L109.775 179.333H112.78L109.169 173.916H86.8333V179.333H89.3333V176.416H107.831Z" fill="#1E3050"/>
<circle cx="110.583" cy="191.416" r="4.58333" fill="#1E3050"/>
<path fill-rule="evenodd" clip-rule="evenodd" d="M186.5 169.333C180.517 169.333 175.667 174.183 175.667 180.166V193.5C175.667 198.562 179.771 202.666 184.833 202.666H188.167C193.229 202.666 197.333 198.562 197.333 193.5V180.166C197.333 174.183 192.483 169.333 186.5 169.333ZM183.167 181.833C183.167 179.992 184.659 178.5 186.5 178.5C188.341 178.5 189.833 179.992 189.833 181.833C189.833 183.674 188.341 185.166 186.5 185.166C184.659 185.166 183.167 183.674 183.167 181.833Z" fill="#1E3050" fill-opacity="0.3"/>
<path d="M186.5 178.5C184.659 178.5 183.167 179.992 183.167 181.833C183.167 183.674 184.659 185.167 186.5 185.167C188.341 185.167 189.833 183.674 189.833 181.833C189.833 179.992 188.341 178.5 186.5 178.5Z" fill="#1E3050"/>
<path fill-rule="evenodd" clip-rule="evenodd" d="M252.833 186C252.833 176.795 260.295 169.333 269.5 169.333C278.705 169.333 286.167 176.795 286.167 186C286.167 195.204 278.705 202.666 269.5 202.666C260.295 202.666 252.833 195.204 252.833 186ZM264.5 186C264.5 183.238 266.738 181 269.5 181C272.261 181 274.5 183.238 274.5 186C274.5 188.761 272.261 191 269.5 191C266.738 191 264.5 188.761 264.5 186Z" fill="#1E3050" fill-opacity="0.3"/>
<path fill-rule="evenodd" clip-rule="evenodd" d="M264.5 186C264.5 183.239 266.739 181 269.5 181C272.261 181 274.5 183.239 274.5 186C274.5 188.761 272.261 191 269.5 191C266.739 191 264.5 188.761 264.5 186Z" fill="#1E3050"/>
</svg>
