<svg width="290" height="254" viewBox="0 0 290 254" fill="none" xmlns="http://www.w3.org/2000/svg">
<path fill-rule="evenodd" clip-rule="evenodd" d="M3.83325 5.83301H37.1666V15.1663L31.9999 15.1663V11.6663V10.1663H28.9999V11.6663V15.1663H26.9999V11.6663V10.1663H23.9999V11.6663V15.1663H21.9999V11.6663V10.1663H18.9999V11.6663V15.1663H16.9999V11.6663V10.1663H13.9999V11.6663V15.1663H11.9999V11.6663V10.1663H8.99992V11.6663V15.1663H3.83325L3.83325 18.1663L8.99992 18.1663H11.9999H13.9999H16.9999H18.9999H21.9999H23.9999H26.9999H28.9999H31.9999H37.1666V34.1663H3.83325V5.83301ZM25.4999 25.833C25.4999 23.9921 26.9923 22.4997 28.8333 22.4997C30.6742 22.4997 32.1666 23.9921 32.1666 25.833C32.1666 27.674 30.6742 29.1663 28.8333 29.1663C26.9923 29.1663 25.4999 27.674 25.4999 25.833Z" fill="#1E3050"/>
<path fill-rule="evenodd" clip-rule="evenodd" d="M117.031 8.15337L118.518 7.95513L118.122 4.98145L116.635 5.17969L91.635 8.51302L90.3333 8.68659V9.99987V12.4999H86.8333V34.1665H120.167V12.4999H93.3333V11.3131L117.031 8.15337ZM102.5 23.3332C102.5 21.1241 100.709 19.3332 98.4999 19.3332C96.2908 19.3332 94.4999 21.1241 94.4999 23.3332C94.4999 25.5423 96.2908 27.3332 98.4999 27.3332C100.709 27.3332 102.5 25.5423 102.5 23.3332ZM98.4999 17.3332C101.814 17.3332 104.5 20.0195 104.5 23.3332C104.5 26.6469 101.814 29.3332 98.4999 29.3332C95.1862 29.3332 92.4999 26.6469 92.4999 23.3332C92.4999 20.0195 95.1862 17.3332 98.4999 17.3332ZM107 26.8332H108.5H113.5H115V29.8332H113.5H108.5H107V26.8332ZM110.167 21.8332H108.667V24.8332H110.167H113.5H115V21.8332H113.5H110.167ZM107 16.8332H108.5H113.5H115V19.8332H113.5H108.5H107V16.8332Z" fill="#1E3050"/>
<path fill-rule="evenodd" clip-rule="evenodd" d="M200.5 2.77051V4.58319V27.0832H200.233C200.021 29.6497 197.871 31.6665 195.25 31.6665C192.489 31.6665 190.25 29.4279 190.25 26.6665C190.25 23.9051 192.489 21.6665 195.25 21.6665C196.059 21.6665 196.824 21.8588 197.5 22.2002V6.39587L183 9.15778V32.0832H182.733C182.521 34.6497 180.371 36.6665 177.75 36.6665C174.989 36.6665 172.75 34.4279 172.75 31.6665C172.75 28.9051 174.989 26.6665 177.75 26.6665C178.559 26.6665 179.324 26.8588 180 27.2002V7.91652V6.67527L181.219 6.44302L198.719 3.10968L200.5 2.77051Z" fill="#1E3050"/>
<path fill-rule="evenodd" clip-rule="evenodd" d="M259.667 36.6663L259.667 3.33301L252.833 3.33301V36.6663H259.667ZM262.667 36.6663L262.667 3.33301L286.167 3.33301V36.6663H262.667ZM270.333 23.9997C269.565 23.9997 268.829 24.102 268.249 24.2951C267.965 24.3899 267.662 24.5248 267.411 24.7232C267.17 24.9127 266.833 25.2802 266.833 25.833C266.833 26.3858 267.17 26.7533 267.411 26.9428C267.662 27.1412 267.965 27.2761 268.249 27.3709C268.829 27.5641 269.565 27.6663 270.333 27.6663C271.101 27.6663 271.838 27.5641 272.417 27.3709C272.702 27.2761 273.004 27.1412 273.256 26.9428C273.496 26.7533 273.833 26.3858 273.833 25.833C273.833 25.8286 273.833 25.8241 273.833 25.8197H273.917V16.4997H276.583V13.4997H272.417H270.917V14.9997V24.0197C270.726 24.0064 270.53 23.9997 270.333 23.9997Z" fill="#1E3050"/>
<path fill-rule="evenodd" clip-rule="evenodd" d="M9.35063 94.5528C7.86751 96.7203 7 99.3423 7 102.167C7 103.333 7.14756 104.463 7.42441 105.54C7.62866 105.577 7.82798 105.639 8.01735 105.724C8.47637 105.933 8.87702 106.281 9.14823 106.751L14.1482 115.411C14.4194 115.881 14.5209 116.402 14.4716 116.904C14.3954 117.679 13.9591 118.407 13.2332 118.826C13.0837 118.912 12.929 118.981 12.7714 119.034C11.6683 119.402 10.4222 118.957 9.8181 117.911L4.8181 109.251C4.39832 108.524 4.38527 107.673 4.70836 106.963C4.24736 105.444 4 103.833 4 102.167C4 93.0543 11.3873 85.667 20.5 85.667C29.6127 85.667 37 93.0543 37 102.167L36.9998 102.192C36.9974 103.813 36.7608 105.381 36.3212 106.864C36.6924 107.593 36.6987 108.489 36.2592 109.251L31.2592 117.911C31.1729 118.06 31.0735 118.198 30.9633 118.322C30.1918 119.192 28.8904 119.43 27.8442 118.826C27.1195 118.408 26.6835 117.681 26.6062 116.908C26.5559 116.405 26.6571 115.882 26.9291 115.411L31.9291 106.751C32.2012 106.279 32.6035 105.93 33.0644 105.722C33.2271 105.649 33.3971 105.593 33.5713 105.556C33.8508 104.474 33.9998 103.339 33.9998 102.167L34 102.145C33.9954 99.328 33.1283 96.7138 31.6487 94.5518C30.6693 95.4824 29.1208 95.4672 28.1599 94.5063L28.1304 94.4768L28.1039 94.4445C28.0184 94.3398 27.9346 94.2291 27.8476 94.1142C27.4888 93.6403 27.0736 93.0919 26.238 92.5728C25.2123 91.9356 23.5006 91.3337 20.4997 91.3337C17.8752 91.3337 15.4705 92.2659 13.5957 93.8182L12.8241 94.5217C11.8622 95.4678 10.325 95.4781 9.35063 94.5528ZM28.704 105.669C29.3943 104.473 30.9233 104.064 32.1191 104.754C32.2168 104.811 32.3092 104.873 32.3963 104.94C31.8587 105.237 31.3926 105.68 31.0631 106.251L26.0631 114.911C25.7337 115.482 25.5831 116.106 25.5941 116.72C25.4927 116.679 25.3929 116.63 25.2953 116.573C24.0996 115.883 23.6899 114.354 24.3803 113.158L28.704 105.669ZM12.3758 105.675C11.6854 104.479 10.1564 104.069 8.9607 104.76C8.86421 104.816 8.77285 104.877 8.68676 104.943C9.2219 105.24 9.68585 105.682 10.0143 106.251L15.0143 114.911C15.3427 115.48 15.4933 116.102 15.4833 116.715C15.5835 116.673 15.6822 116.625 15.7787 116.569C16.9744 115.879 17.3841 114.35 16.6937 113.154L12.3758 105.675Z" fill="#1E3050"/>
<path fill-rule="evenodd" clip-rule="evenodd" d="M106.067 88.6374C107.156 87.6338 108.623 87.167 110.167 87.167C111.413 87.167 113.203 87.6268 114.678 88.3319C115.421 88.6873 116.135 89.1288 116.676 89.6499C117.198 90.1517 117.648 90.8168 117.666 91.6178C117.779 92.6858 117.779 93.3148 117.666 94.3829C117.648 95.1839 117.198 95.849 116.676 96.3507C116.135 96.8718 115.421 97.3134 114.678 97.6688C113.508 98.2284 112.138 98.6335 111 98.7768V103H120.167V111.334C120.167 115.518 116.6 118.834 112.296 118.834H94.7036C90.4 118.834 86.8333 115.518 86.8333 111.334V103H96.0846V98.7768C94.9462 98.6335 93.577 98.2284 92.4069 97.6688C91.6638 97.3134 90.9496 96.8718 90.4082 96.3507C89.8869 95.849 89.4363 95.1839 89.4184 94.3829C89.3059 93.3148 89.3059 92.6858 89.4184 91.6178C89.4363 90.8168 89.8869 90.1517 90.4082 89.6499C90.9496 89.1288 91.6638 88.6873 92.4069 88.3319C93.8811 87.6268 95.6714 87.167 96.9179 87.167C98.4615 87.167 99.9284 87.6338 101.018 88.6374C101.914 89.4626 102.5 90.6004 102.687 92.0003H101.918H98.5846H97.5846V94.0003H98.5846H101.918H102.687C102.504 95.3653 101.943 96.481 101.085 97.3008V103H106V97.3008C105.141 96.481 104.58 95.3653 104.398 94.0003H105.167H108.5H109.5V92.0003H108.5H105.167H104.398C104.585 90.6004 105.17 89.4626 106.067 88.6374ZM101 109.667C101 108.286 102.119 107.167 103.5 107.167C104.881 107.167 106 108.286 106 109.667C106 111.048 104.881 112.167 103.5 112.167C102.119 112.167 101 111.048 101 109.667Z" fill="#1E3050"/>
<path fill-rule="evenodd" clip-rule="evenodd" d="M193.167 86.333H179.833V93.6663H193.167L193.167 86.333ZM179.833 110.5V95.6663H193.167L193.167 110.5H179.833ZM176.5 115.333H175V113.833V107.166V105.666H178V107.166V112.333H185H188H195V107.166V105.666H198V107.166V113.833V115.333H196.5H188V116.916H191.5H193V119.916H191.5H188H185H181.5H180V116.916H181.5H185V115.333H176.5Z" fill="#1E3050"/>
<path fill-rule="evenodd" clip-rule="evenodd" d="M271.167 89.0088V116.991L260.5 110.427L260.5 95.7515H260.21L271.167 89.0088ZM258.5 96.3334L258.5 109.667H252.833V96.3334H258.5ZM280.695 89.6829L281.755 90.7435C288.524 97.5126 288.524 108.487 281.755 115.257L280.695 116.317L278.573 114.196L279.634 113.135C285.231 107.538 285.231 98.4624 279.634 92.8649L278.573 91.8042L280.695 89.6829ZM277.387 94.2791L276.326 93.2184L274.205 95.3398L275.265 96.4004C278.91 100.045 278.91 105.955 275.265 109.6L274.205 110.66L276.326 112.782L277.387 111.721C282.203 106.905 282.203 99.0956 277.387 94.2791Z" fill="#1E3050"/>
<path fill-rule="evenodd" clip-rule="evenodd" d="M20.4999 172.191L38.1027 193.5H26.0288L20.4999 186.361L14.9709 193.5H2.89746L20.4999 172.191ZM4.66667 197H3.16667V200H4.66667H36.3333H37.8333V197H36.3333H4.66667Z" fill="#1E3050"/>
<path fill-rule="evenodd" clip-rule="evenodd" d="M116.667 168.667V170.167V179.334H120.167V202.667H86.8333V180.167H86.5833V175.167V173.667H88.0833H108.5H109.303L109.748 174.335L113.08 179.334H113.667V170.167V168.667L116.667 168.667ZM109.475 179.334L107.697 176.667H89.5833V179.334H109.475ZM106 191.417C106 188.886 108.052 186.834 110.583 186.834C113.115 186.834 115.167 188.886 115.167 191.417C115.167 193.948 113.115 196 110.583 196C108.052 196 106 193.948 106 191.417Z" fill="#1E3050"/>
<path fill-rule="evenodd" clip-rule="evenodd" d="M186.5 169.333C180.517 169.333 175.667 174.183 175.667 180.166V193.5C175.667 198.562 179.771 202.666 184.833 202.666H188.167C193.229 202.666 197.333 198.562 197.333 193.5V180.166C197.333 174.183 192.483 169.333 186.5 169.333ZM183.167 181.833C183.167 179.992 184.659 178.5 186.5 178.5C188.341 178.5 189.833 179.992 189.833 181.833C189.833 183.674 188.341 185.166 186.5 185.166C184.659 185.166 183.167 183.674 183.167 181.833Z" fill="#1E3050"/>
<path fill-rule="evenodd" clip-rule="evenodd" d="M252.833 186C252.833 176.795 260.295 169.333 269.5 169.333C278.705 169.333 286.167 176.795 286.167 186C286.167 195.204 278.705 202.666 269.5 202.666C260.295 202.666 252.833 195.204 252.833 186ZM264.5 186C264.5 183.238 266.738 181 269.5 181C272.261 181 274.5 183.238 274.5 186C274.5 188.761 272.261 191 269.5 191C266.738 191 264.5 188.761 264.5 186Z" fill="#1E3050"/>
</svg>
