<svg width="240" height="240" viewBox="0 0 240 240" fill="none" xmlns="http://www.w3.org/2000/svg">
<rect x="0.5" y="0.5" width="239" height="239" rx="7.5" fill="white" stroke="#E8E8E8"/>
<path d="M53.3494 51.8242C54.4494 51.8242 56.2828 53.2904 56.6495 55.4908C56.9606 57.3575 56.7313 59.2609 56.2828 60.9909" stroke="black" stroke-width="1.46667"/>
<mask id="path-3-inside-1_8029_44729" fill="white">
<path fill-rule="evenodd" clip-rule="evenodd" d="M56.9642 57.6191C55.0219 55.3919 52.4894 54.2842 50.123 54.9334C46.2539 55.9947 44.294 61.3508 45.7454 66.8964C47.1968 72.442 51.5099 76.0772 55.379 75.0158C55.9884 74.8486 56.5504 74.5749 57.0593 74.2107C57.5364 74.5338 58.0584 74.7788 58.6208 74.9331C62.4899 75.9945 66.803 72.3593 68.2544 66.8137C69.7058 61.2681 67.7459 55.912 63.8768 54.8506C61.4813 54.1935 58.9155 55.3367 56.9642 57.6191Z"/>
</mask>
<path fill-rule="evenodd" clip-rule="evenodd" d="M56.9642 57.6191C55.0219 55.3919 52.4894 54.2842 50.123 54.9334C46.2539 55.9947 44.294 61.3508 45.7454 66.8964C47.1968 72.442 51.5099 76.0772 55.379 75.0158C55.9884 74.8486 56.5504 74.5749 57.0593 74.2107C57.5364 74.5338 58.0584 74.7788 58.6208 74.9331C62.4899 75.9945 66.803 72.3593 68.2544 66.8137C69.7058 61.2681 67.7459 55.912 63.8768 54.8506C61.4813 54.1935 58.9155 55.3367 56.9642 57.6191Z" fill="white"/>
<path d="M50.123 54.9334L50.511 56.3478L50.123 54.9334ZM56.9642 57.6191L55.8588 58.5831L56.9752 59.8632L58.0789 58.5722L56.9642 57.6191ZM45.7454 66.8964L44.3265 67.2677L45.7454 66.8964ZM55.379 75.0158L55.767 76.4302L55.767 76.4302L55.379 75.0158ZM57.0593 74.2107L57.8817 72.9963L57.0361 72.4235L56.2056 73.0181L57.0593 74.2107ZM58.6208 74.9331L59.0088 73.5187H59.0088L58.6208 74.9331ZM68.2544 66.8137L69.6732 67.185H69.6733L68.2544 66.8137ZM63.8768 54.8506L63.4888 56.2651V56.2651L63.8768 54.8506ZM50.511 56.3478C52.1456 55.8994 54.1376 56.6094 55.8588 58.5831L58.0695 56.6551C55.9062 54.1744 52.8332 52.669 49.735 53.5189L50.511 56.3478ZM47.1643 66.525C46.5054 64.0078 46.6382 61.5905 47.3164 59.7373C47.9971 57.877 49.1619 56.7178 50.511 56.3478L49.735 53.5189C47.2149 54.2103 45.4653 56.2598 44.5617 58.7293C43.6554 61.2059 43.5339 64.2394 44.3265 67.2677L47.1643 66.525ZM54.991 73.6014C53.6475 73.9699 52.0872 73.565 50.6008 72.3123C49.1172 71.0618 47.8232 69.0427 47.1643 66.525L44.3265 67.2677C45.119 70.2957 46.7073 72.867 48.7103 74.5552C50.7106 76.2411 53.2414 77.1231 55.767 76.4302L54.991 73.6014ZM56.2056 73.0181C55.8312 73.286 55.4258 73.4821 54.991 73.6014L55.767 76.4302C56.551 76.2152 57.2697 75.8638 57.913 75.4033L56.2056 73.0181ZM56.2368 75.425C56.8415 75.8346 57.5096 76.1491 58.2328 76.3475L59.0088 73.5187C58.6072 73.4085 58.2312 73.233 57.8817 72.9963L56.2368 75.425ZM58.2328 76.3475C60.7584 77.0404 63.2891 76.1584 65.2894 74.4725C67.2925 72.7843 68.8808 70.213 69.6732 67.185L66.8355 66.4423C66.1766 68.96 64.8826 70.9791 63.399 72.2295C61.9126 73.4823 60.3523 73.8872 59.0088 73.5187L58.2328 76.3475ZM69.6733 67.185C70.4658 64.1567 70.3444 61.1232 69.4381 58.6466C68.5345 56.1771 66.7848 54.1275 64.2648 53.4362L63.4888 56.2651C64.8378 56.6351 66.0027 57.7943 66.6834 59.6546C67.3615 61.5077 67.4943 63.9251 66.8355 66.4423L69.6733 67.185ZM64.2648 53.4362C61.128 52.5757 58.019 54.1283 55.8494 56.666L58.0789 58.5722C59.812 56.5451 61.8345 55.8113 63.4888 56.2651L64.2648 53.4362Z" fill="black" mask="url(#path-3-inside-1_8029_44729)"/>
<path d="M59.0092 73.5188C60.3526 73.8873 61.913 73.4824 63.3994 72.2296C64.883 70.9792 66.1769 68.9601 66.8358 66.4424C67.4947 63.9252 67.3619 61.5078 66.6838 59.6547C66.003 57.7944 64.8382 56.6352 63.4891 56.2651L63.2381 59.0655C62.8921 62.9254 61.9364 66.706 60.4065 70.2666L59.0092 73.5188Z" fill="#DCDCDC"/>
<path d="M56.6327 54.0997C57.5654 51.2027 60.3813 49.3134 63.4156 49.5489C62.483 52.4459 59.667 54.3352 56.6327 54.0997Z" fill="#DCDCDC" stroke="black" stroke-width="1.46667"/>
<circle cx="63.6" cy="68.6" r="0.733333" fill="#8C8C8C"/>
<circle cx="60.3" cy="68.2333" r="1.1" fill="#8C8C8C"/>
<ellipse cx="50.7666" cy="60.1666" rx="2.56667" ry="3.3" transform="rotate(30 50.7666 60.1666)" fill="#DCDCDC"/>
<ellipse cx="50.7538" cy="59.3897" rx="0.700281" ry="1.16714" transform="rotate(30 50.7538 59.3897)" fill="white"/>
<circle cx="58.1" cy="70.4336" r="0.366667" fill="#8C8C8C"/>
<circle cx="62.8667" cy="62.7333" r="0.733333" fill="#8C8C8C"/>
<circle cx="55.5333" cy="71.5331" r="0.733333" fill="#8C8C8C"/>
<circle cx="61.7667" cy="71.1665" r="0.366667" fill="#8C8C8C"/>
<circle cx="63.9667" cy="65.2998" r="0.366667" fill="#8C8C8C"/>
<circle cx="59.5667" cy="72.6333" r="0.366667" fill="#8C8C8C"/>
<path d="M133.914 55.3998C133.831 56.979 133.479 58.5343 132.873 59.9986C132.173 61.689 131.146 63.225 129.852 64.5189C128.559 65.8127 127.023 66.839 125.332 67.5392C123.642 68.2394 121.83 68.5998 120 68.5998C118.17 68.5998 116.358 68.2394 114.668 67.5392C112.977 66.839 111.441 65.8127 110.148 64.5189C108.854 63.225 107.828 61.689 107.127 59.9986C106.521 58.5343 106.169 56.979 106.086 55.3998L120 55.3998H133.914Z" stroke="black" stroke-width="1.46667"/>
<path d="M114.949 66.8616C116.55 67.5249 118.267 67.8664 120 67.8664C121.734 67.8664 123.45 67.5249 125.052 66.8616C126.653 66.1982 128.108 65.2259 129.334 64.0002C130.56 62.7744 131.532 61.3193 132.195 59.7178C127.483 63.0495 122.135 65.3732 116.484 66.5436L114.949 66.8616Z" fill="#DCDCDC"/>
<mask id="path-19-inside-2_8029_44729" fill="white">
<path d="M131.733 54.6664C131.733 57.7783 130.497 60.7627 128.297 62.9632C126.096 65.1636 123.112 66.3998 120 66.3998C116.888 66.3998 113.904 65.1636 111.703 62.9632C109.503 60.7627 108.267 57.7783 108.267 54.6664L120 54.6664H131.733Z"/>
</mask>
<path d="M131.733 54.6664C131.733 57.7783 130.497 60.7627 128.297 62.9632C126.096 65.1636 123.112 66.3998 120 66.3998C116.888 66.3998 113.904 65.1636 111.703 62.9632C109.503 60.7627 108.267 57.7783 108.267 54.6664L120 54.6664H131.733Z" fill="white" stroke="black" stroke-width="2.93333" mask="url(#path-19-inside-2_8029_44729)"/>
<path d="M120 61.2666L120.609 62.2821C120.69 62.4174 120.733 62.573 120.733 62.7308C120.733 63.1358 120.405 63.4666 120 63.4666C119.595 63.4666 119.267 63.1358 119.267 62.7308C119.267 62.573 119.31 62.4174 119.391 62.2821L120 61.2666Z" fill="#8C8C8C"/>
<path d="M125.716 57.967L126.9 57.947C127.058 57.9444 127.214 57.9851 127.351 58.064C127.701 58.2665 127.824 58.7162 127.621 59.067C127.419 59.4177 126.968 59.5366 126.617 59.3341C126.481 59.2552 126.367 59.1403 126.291 59.0023L125.716 57.967Z" fill="#8C8C8C"/>
<path d="M123.3 60.3824L124.335 60.9571C124.473 61.0337 124.588 61.1471 124.667 61.2837C124.87 61.6345 124.751 62.0851 124.4 62.2876C124.049 62.4901 123.599 62.3678 123.397 62.017C123.318 61.8804 123.277 61.7242 123.28 61.5664L123.3 60.3824Z" fill="#8C8C8C"/>
<ellipse cx="116.278" cy="58.427" rx="1.4216" ry="1.82777" transform="rotate(30 116.278 58.427)" fill="#DCDCDC"/>
<ellipse cx="115.972" cy="58.0264" rx="0.415781" ry="0.501418" transform="rotate(30 115.972 58.0264)" fill="white"/>
<path d="M114.284 57.9666L113.709 59.002C113.633 59.14 113.519 59.2549 113.383 59.3338C113.032 59.5363 112.581 59.4174 112.379 59.0666C112.176 58.7159 112.299 58.2661 112.649 58.0636C112.786 57.9847 112.942 57.9441 113.1 57.9467L114.284 57.9666Z" fill="#8C8C8C"/>
<path d="M116.7 60.3823L116.72 61.5663C116.722 61.7241 116.682 61.8803 116.603 62.017C116.4 62.3677 115.951 62.4901 115.6 62.2875C115.249 62.085 115.13 61.6344 115.333 61.2836C115.412 61.147 115.527 61.0336 115.665 60.9571L116.7 60.3823Z" fill="#8C8C8C"/>
<circle cx="178.6" cy="65.6666" r="9.53333" fill="white" stroke="black" stroke-width="1.46667"/>
<path d="M178.6 74.4665C183.46 74.4665 187.4 70.5266 187.4 65.6665C187.4 63.5854 186.678 61.6731 185.47 60.1665L185.463 60.4766C185.313 67.0039 180.328 72.3992 173.833 73.065C175.207 73.9518 176.843 74.4665 178.6 74.4665Z" fill="#DCDCDC"/>
<circle cx="188.867" cy="67.1335" r="8.06667" fill="white" stroke="black" stroke-width="1.46667"/>
<circle cx="188.867" cy="67.1333" r="2.93333" fill="#DCDCDC" stroke="#8C8C8C" stroke-width="5.86667" stroke-dasharray="4.4 1.47"/>
<path d="M183 49.5332L181.947 50.1651C180.289 51.16 179.15 52.8321 178.832 54.7395L178.6 56.1332" stroke="black" stroke-width="1.46667"/>
<path d="M169.268 57.4436C170.83 53.0414 175.379 50.4149 179.972 51.2636C178.411 55.6658 173.861 58.2923 169.268 57.4436Z" fill="#DCDCDC" stroke="black" stroke-width="1.46667"/>
<circle cx="188.867" cy="67.1332" r="0.733333" fill="#DCDCDC"/>
<circle cx="176.4" cy="72.9999" r="0.733333" fill="#8C8C8C"/>
<circle cx="179.333" cy="71.5331" r="0.733333" fill="#8C8C8C"/>
<circle cx="179.7" cy="73.3667" r="0.366667" fill="#8C8C8C"/>
<circle cx="178.233" cy="68.9668" r="0.366667" fill="#8C8C8C"/>
<circle cx="176.033" cy="70.4336" r="0.366667" fill="#8C8C8C"/>
<circle cx="177.5" cy="71.1665" r="0.366667" fill="#8C8C8C"/>
<circle cx="173.833" cy="71.1665" r="0.366667" fill="#8C8C8C"/>
<ellipse cx="174.406" cy="62.4747" rx="2.56667" ry="3.3" transform="rotate(30 174.406 62.4747)" fill="#DCDCDC"/>
<ellipse cx="174.393" cy="61.6978" rx="0.700281" ry="1.16714" transform="rotate(30 174.393 61.6978)" fill="white"/>
<path d="M55.1665 114.134L56.2667 113.4M57.3665 113.4H56.2667M56.2667 113.4C55.6556 112.056 54.5065 110.467 54.7998 106.067" stroke="black" stroke-width="1.46667" stroke-linecap="round"/>
<path d="M55.6308 108.777C59.4348 108.134 63.1783 110.295 64.5235 113.911C60.7195 114.554 56.976 112.392 55.6308 108.777Z" fill="#DCDCDC" stroke="black" stroke-width="1.46667"/>
<path d="M52.5676 115.786L52.5884 115.731L52.6 115.672C52.7669 114.838 53.1996 114.298 53.8009 113.947C54.4279 113.581 55.2774 113.4 56.2667 113.4C57.2559 113.4 58.1054 113.581 58.7324 113.947C59.3338 114.298 59.7664 114.838 59.9333 115.672L59.945 115.731L59.9658 115.786L61.0035 118.554C61.4001 119.611 62.0901 120.496 62.7124 121.267C63.7266 122.526 64.3333 124.124 64.3333 125.867C64.3333 129.837 60.4007 133.2 56.2667 133.2C52.1326 133.2 48.2 129.837 48.2 125.867C48.2 124.124 48.8067 122.526 49.821 121.267C50.4433 120.496 51.1332 119.611 51.5298 118.554L52.5676 115.786Z" fill="white" stroke="black" stroke-width="1.46667"/>
<path d="M56.2667 132.467C60.0797 132.467 63.6 129.354 63.6 125.867C63.6 124.298 63.0544 122.86 62.1414 121.728C61.6647 125.804 59.6699 129.55 56.5544 132.22L56.2667 132.467Z" fill="#DCDCDC"/>
<circle cx="59.9333" cy="126.6" r="0.733333" transform="rotate(180 59.9333 126.6)" fill="#8C8C8C"/>
<circle cx="58.8334" cy="129.9" r="1.1" transform="rotate(180 58.8334 129.9)" fill="#8C8C8C"/>
<circle cx="58.1" cy="126.233" r="0.366667" transform="rotate(180 58.1 126.233)" fill="#8C8C8C"/>
<circle cx="54.4333" cy="130.633" r="0.366667" transform="rotate(180 54.4333 130.633)" fill="#8C8C8C"/>
<circle cx="56.6333" cy="127.7" r="0.366667" transform="rotate(180 56.6333 127.7)" fill="#8C8C8C"/>
<circle cx="56.6333" cy="130.633" r="0.366667" transform="rotate(180 56.6333 130.633)" fill="#8C8C8C"/>
<ellipse cx="51.714" cy="124.286" rx="1.96172" ry="2.52221" transform="rotate(30 51.714 124.286)" fill="#DCDCDC"/>
<ellipse cx="51.3267" cy="123.364" rx="0.700281" ry="1.16714" transform="rotate(30 51.3267 123.364)" fill="white"/>
<path d="M123.516 130.276L125.726 124.751C125.819 124.519 125.862 124.271 125.852 124.022C125.791 122.426 123.818 121.715 122.753 122.905L118.491 127.662C118.04 128.165 117.452 128.527 116.8 128.703L110.417 130.421C109.461 130.679 109.141 131.874 109.841 132.575L109.935 132.669C111.215 133.948 112.95 134.667 114.759 134.667H116.694C118.359 134.667 119.975 134.1 121.275 133.06L121.708 132.714C122.511 132.071 123.134 131.231 123.516 130.276Z" fill="#DCDCDC"/>
<path d="M107.578 111.864C107.957 110.759 108.642 109.785 109.554 109.055L109.83 108.835C110.803 108.056 112.084 107.777 113.293 108.079L115.082 108.526C115.382 108.601 115.693 108.628 116.002 108.606L118.904 108.399C119.978 108.322 121.05 108.578 121.973 109.132L122.266 109.308C123.232 109.888 123.938 110.817 124.238 111.903C124.832 114.057 125.133 116.282 125.133 118.516V118.91C125.133 122.443 124.459 125.944 123.147 129.225L122.883 129.885C122.517 130.8 121.92 131.605 121.15 132.221L120.817 132.487C119.647 133.423 118.193 133.933 116.694 133.933H114.971C113.22 133.933 111.542 133.238 110.304 132L109.627 131.323C109.125 130.821 108.708 130.242 108.39 129.607L107.835 128.497C106.673 126.172 106.067 123.573 106.067 120.972C106.067 117.885 106.578 114.782 107.578 111.864Z" stroke="black" stroke-width="1.46667"/>
<path d="M115.523 105.739C115.341 105.377 114.901 105.23 114.539 105.411C114.176 105.592 114.03 106.033 114.211 106.395L115.523 105.739ZM115.135 106.605L115.791 106.277L115.135 106.605ZM114.211 106.395L114.48 106.932L115.791 106.277L115.523 105.739L114.211 106.395ZM114.867 108.572L114.867 109L116.333 109L116.333 108.572L114.867 108.572ZM114.48 106.932C114.734 107.442 114.867 108.003 114.867 108.572L116.333 108.572C116.333 107.775 116.148 106.989 115.791 106.277L114.48 106.932Z" fill="black"/>
<mask id="path-58-inside-3_8029_44729" fill="white">
<path fill-rule="evenodd" clip-rule="evenodd" d="M134.666 121.537C134.666 121.513 134.667 121.49 134.667 121.467C134.667 118.227 130.07 115.6 124.4 115.6C118.73 115.6 114.133 118.227 114.133 121.467C114.133 121.61 114.142 121.751 114.16 121.892C114.142 122.023 114.133 122.158 114.133 122.294V122.379C114.133 124.19 114.555 125.977 115.365 127.597L116.534 129.936C116.887 130.641 117.351 131.284 117.908 131.841L118.585 132.519C119.961 133.894 121.826 134.667 123.771 134.667H125.494C127.159 134.667 128.775 134.1 130.075 133.06L130.408 132.794C131.277 132.099 131.951 131.19 132.364 130.157L133.625 127.003C134.313 125.284 134.667 123.448 134.667 121.596C134.667 121.576 134.666 121.556 134.666 121.537Z"/>
</mask>
<path fill-rule="evenodd" clip-rule="evenodd" d="M134.666 121.537C134.666 121.513 134.667 121.49 134.667 121.467C134.667 118.227 130.07 115.6 124.4 115.6C118.73 115.6 114.133 118.227 114.133 121.467C114.133 121.61 114.142 121.751 114.16 121.892C114.142 122.023 114.133 122.158 114.133 122.294V122.379C114.133 124.19 114.555 125.977 115.365 127.597L116.534 129.936C116.887 130.641 117.351 131.284 117.908 131.841L118.585 132.519C119.961 133.894 121.826 134.667 123.771 134.667H125.494C127.159 134.667 128.775 134.1 130.075 133.06L130.408 132.794C131.277 132.099 131.951 131.19 132.364 130.157L133.625 127.003C134.313 125.284 134.667 123.448 134.667 121.596C134.667 121.576 134.666 121.556 134.666 121.537Z" fill="#DCDCDC"/>
<path d="M134.666 121.537L133.2 121.507L133.199 121.54L133.2 121.573L134.666 121.537ZM114.16 121.892L115.614 122.085L115.639 121.897L115.615 121.709L114.16 121.892ZM115.365 127.597L114.054 128.253H114.054L115.365 127.597ZM117.908 131.841L118.945 130.804L118.945 130.804L117.908 131.841ZM118.585 132.519L117.548 133.556L118.585 132.519ZM130.075 133.06L129.159 131.914L129.159 131.914L130.075 133.06ZM130.408 132.794L129.491 131.649L130.408 132.794ZM132.364 130.157L133.726 130.702H133.726L132.364 130.157ZM133.625 127.003L132.264 126.459H132.264L133.625 127.003ZM133.2 121.467C133.2 121.48 133.2 121.493 133.2 121.507L136.132 121.567C136.133 121.533 136.133 121.5 136.133 121.467H133.2ZM124.4 117.067C127.027 117.067 129.333 117.678 130.932 118.592C132.572 119.529 133.2 120.6 133.2 121.467H136.133C136.133 119.093 134.463 117.231 132.387 116.045C130.27 114.835 127.443 114.133 124.4 114.133V117.067ZM115.6 121.467C115.6 120.6 116.228 119.529 117.868 118.592C119.467 117.678 121.773 117.067 124.4 117.067V114.133C121.357 114.133 118.53 114.835 116.413 116.045C114.337 117.231 112.667 119.093 112.667 121.467H115.6ZM115.615 121.709C115.605 121.629 115.6 121.548 115.6 121.467H112.667C112.667 121.671 112.679 121.874 112.705 122.074L115.615 121.709ZM112.706 121.699C112.68 121.894 112.667 122.093 112.667 122.294H115.6C115.6 122.223 115.605 122.153 115.614 122.085L112.706 121.699ZM112.667 122.294V122.379H115.6V122.294H112.667ZM112.667 122.379C112.667 124.418 113.142 126.429 114.054 128.253L116.677 126.941C115.969 125.525 115.6 123.962 115.6 122.379H112.667ZM114.054 128.253L115.223 130.592L117.846 129.28L116.677 126.941L114.054 128.253ZM115.223 130.592C115.646 131.438 116.202 132.21 116.871 132.879L118.945 130.804C118.499 130.359 118.128 129.844 117.846 129.28L115.223 130.592ZM116.871 132.879L117.548 133.556L119.623 131.482L118.945 130.804L116.871 132.879ZM117.548 133.556C119.199 135.206 121.437 136.133 123.771 136.133V133.2C122.215 133.2 120.723 132.582 119.623 131.482L117.548 133.556ZM123.771 136.133H125.494V133.2H123.771V136.133ZM125.494 136.133C127.493 136.133 129.431 135.453 130.992 134.205L129.159 131.914C128.119 132.747 126.826 133.2 125.494 133.2V136.133ZM130.992 134.205L131.324 133.939L129.491 131.649L129.159 131.914L130.992 134.205ZM131.324 133.939C132.391 133.086 133.218 131.97 133.726 130.702L131.002 129.612C130.683 130.41 130.162 131.112 129.491 131.649L131.324 133.939ZM133.726 130.702L134.987 127.548L132.264 126.459L131.002 129.612L133.726 130.702ZM134.987 127.548C135.744 125.655 136.133 123.635 136.133 121.596H133.2C133.2 123.262 132.882 124.912 132.264 126.459L134.987 127.548ZM136.133 121.596C136.133 121.564 136.133 121.532 136.132 121.5L133.2 121.573C133.2 121.581 133.2 121.589 133.2 121.596H136.133Z" fill="black" mask="url(#path-58-inside-3_8029_44729)"/>
<path d="M133.933 121.467C133.933 122.71 133.045 123.979 131.296 124.978C129.568 125.966 127.131 126.6 124.4 126.6C121.669 126.6 119.232 125.966 117.504 124.978C115.755 123.979 114.867 122.71 114.867 121.467C114.867 120.223 115.755 118.955 117.504 117.955C119.232 116.968 121.669 116.333 124.4 116.333C127.131 116.333 129.568 116.968 131.296 117.955C133.045 118.955 133.933 120.223 133.933 121.467Z" fill="white" stroke="black" stroke-width="1.46667"/>
<ellipse cx="124.4" cy="121.467" rx="4.4" ry="2.2" fill="#8C8C8C"/>
<ellipse cx="111.252" cy="112.926" rx="1.97843" ry="2.54369" transform="rotate(30 111.252 112.926)" fill="#DCDCDC"/>
<ellipse cx="111.242" cy="112.327" rx="0.539788" ry="0.899647" transform="rotate(30 111.242 112.327)" fill="white"/>
<circle cx="113.4" cy="131" r="0.733333" fill="#8C8C8C"/>
<circle cx="114.5" cy="127.7" r="0.366667" fill="#8C8C8C"/>
<path d="M180.067 134.667C186.547 134.667 191.8 130.122 191.8 123.667C191.8 122.772 191.699 121.914 191.508 121.1L189.995 122.775C184.964 128.342 177.406 130.901 170.028 129.533C172.085 132.707 175.811 134.667 180.067 134.667Z" fill="#DCDCDC"/>
<path d="M178.385 105.548C178.099 105.262 177.634 105.262 177.348 105.548C177.062 105.835 177.062 106.299 177.348 106.585L178.385 105.548ZM179.333 110.089L179.333 114.134L180.8 114.134L180.8 110.089L179.333 110.089ZM179.296 106.46L178.385 105.548L177.348 106.585L178.259 107.497L179.296 106.46ZM180.8 110.089C180.8 108.728 180.259 107.422 179.296 106.46L178.259 107.497C178.947 108.184 179.333 109.117 179.333 110.089L180.8 110.089Z" fill="black"/>
<path d="M180.385 109.739C182.62 106.595 186.795 105.476 190.303 107.082C188.068 110.226 183.893 111.345 180.385 109.739Z" fill="white" stroke="black" stroke-width="1.46667"/>
<path d="M191.067 123.667C191.067 129.656 186.204 133.933 180.067 133.933C173.929 133.933 169.067 129.656 169.067 123.667C169.067 117.677 173.929 113.4 180.067 113.4C186.204 113.4 191.067 117.677 191.067 123.667Z" stroke="black" stroke-width="1.46667"/>
<ellipse cx="175.461" cy="119.301" rx="2.29352" ry="2.94882" transform="rotate(30 175.461 119.301)" fill="#DCDCDC"/>
<ellipse cx="175.449" cy="118.606" rx="0.625758" ry="1.04293" transform="rotate(30 175.449 118.606)" fill="white"/>
<circle cx="177.867" cy="131" r="0.733333" fill="#8C8C8C"/>
<circle cx="182.267" cy="126.6" r="0.733333" fill="#8C8C8C"/>
<circle cx="179.7" cy="128.434" r="0.366667" fill="#8C8C8C"/>
<circle cx="181.167" cy="129.9" r="0.366667" fill="#8C8C8C"/>
<circle cx="176.767" cy="126.967" r="0.366667" fill="#8C8C8C"/>
<circle cx="184.1" cy="129.166" r="0.366667" fill="#8C8C8C"/>
<circle cx="184.833" cy="126.967" r="0.366667" fill="#8C8C8C"/>
<circle cx="175.3" cy="129.166" r="0.366667" fill="#8C8C8C"/>
<path d="M196.933 125.867C196.933 130.556 193.067 133.934 188.133 133.934C183.199 133.934 179.333 130.556 179.333 125.867C179.333 121.178 183.199 117.8 188.133 117.8C193.067 117.8 196.933 121.178 196.933 125.867Z" fill="#DCDCDC" stroke="black" stroke-width="1.46667"/>
<path d="M190.7 121.421L188.133 125.866M185.567 130.312L188.133 125.866M188.133 125.866L183.688 123.3M188.133 125.866L192.579 128.433M188.133 125.866L193.142 124.524M188.133 125.866L183.124 127.208M188.133 125.866L189.475 130.875M188.133 125.866L186.791 120.857" stroke="#8C8C8C" stroke-width="1.46667" stroke-linecap="round"/>
<path d="M54.0177 192.667H59.7543C65.5233 192.667 70.2 187.99 70.2 182.221V181.3L68.7333 177.267C65.5764 183.806 59.0567 188.058 51.7996 188.311L46 188.514C47.8395 191.118 50.8293 192.667 54.0177 192.667Z" fill="#DCDCDC"/>
<path d="M59.1551 167.497H55.3469L56.4801 164.975C56.7283 164.422 57.2775 164.067 57.8831 164.067C58.8234 164.067 59.5436 164.903 59.4043 165.833L59.1551 167.497Z" stroke="black" stroke-width="1.46667"/>
<path d="M49.1295 172.968L53.3167 169.821C54.2929 169.088 55.0673 168.119 55.5677 167.005L56.4799 164.975L55.811 164.674L56.4799 164.975C56.7281 164.422 57.2774 164.067 57.883 164.067C58.8232 164.067 59.5434 164.903 59.4042 165.833L59.2405 166.926C59.0903 167.929 59.5018 168.933 60.3125 169.542L64.8705 172.968C67.7642 175.142 69.4667 178.551 69.4667 182.171C69.4667 187.563 65.0957 191.933 59.7039 191.933H54.296C48.9042 191.933 44.5333 187.563 44.5333 182.171C44.5333 178.551 46.2358 175.142 49.1295 172.968Z" stroke="black" stroke-width="1.46667"/>
<path d="M57.7333 167.733L58.2411 168.597C62.4668 175.78 62.5527 184.669 58.4667 191.933V191.933" stroke="black" stroke-width="1.46667"/>
<path d="M59.9333 169.2L62.226 172.327C65.8001 177.2 66.5089 183.608 64.0865 189.145V189.145C63.3455 190.839 61.6721 191.934 59.8233 191.934H59.2" stroke="black" stroke-width="1.46667"/>
<ellipse cx="52.0728" cy="176.275" rx="2.56667" ry="3.3" transform="rotate(30 52.0728 176.275)" fill="#DCDCDC"/>
<ellipse cx="52.06" cy="175.498" rx="0.700281" ry="1.16714" transform="rotate(30 52.06 175.498)" fill="white"/>
<path d="M54.0667 169.2L51.774 172.327C48.1999 177.2 47.4911 183.608 49.9135 189.145V189.145C50.6545 190.839 52.3279 191.934 54.1767 191.934H54.8" stroke="black" stroke-width="1.46667"/>
<path d="M56.2667 167.733L55.7589 168.597C51.5332 175.78 51.4473 184.669 55.5333 191.933V191.933" stroke="black" stroke-width="1.46667"/>
<circle cx="62.1333" cy="187.533" r="0.733333" fill="#8C8C8C"/>
<circle cx="55.5333" cy="186.8" r="0.733333" fill="#8C8C8C"/>
<circle cx="63.9667" cy="184.967" r="0.366667" fill="#8C8C8C"/>
<circle cx="57.3667" cy="188.633" r="0.366667" fill="#8C8C8C"/>
<circle cx="59.5667" cy="184.233" r="0.366667" fill="#8C8C8C"/>
<circle cx="58.1" cy="185.7" r="0.366667" fill="#8C8C8C"/>
<circle cx="56.6333" cy="184.233" r="0.366667" fill="#8C8C8C"/>
<path d="M114.867 192.667C119.322 192.667 122.933 187.516 122.933 180.2L121.587 181.863C118.449 185.74 113.944 188.267 109 188.924C110.471 191.28 112.555 192.667 114.867 192.667Z" fill="#DCDCDC"/>
<path d="M122.2 180.2C122.2 183.745 121.324 186.713 119.959 188.772C118.596 190.829 116.784 191.933 114.867 191.933C112.949 191.933 111.138 190.829 109.774 188.772C108.409 186.713 107.533 183.745 107.533 180.2C107.533 176.655 108.409 173.687 109.774 171.629C111.138 169.571 112.949 168.467 114.867 168.467C116.784 168.467 118.596 169.571 119.959 171.629C121.324 173.687 122.2 176.655 122.2 180.2Z" stroke="black" stroke-width="1.46667"/>
<path d="M113.073 163.457C112.736 163.232 112.281 163.323 112.056 163.66C111.832 163.997 111.923 164.452 112.26 164.677L113.073 163.457ZM114.867 168.467L114.539 169.123C114.721 169.214 114.933 169.225 115.124 169.154L114.867 168.467ZM112.26 164.677L112.501 164.838L113.314 163.617L113.073 163.457L112.26 164.677ZM114.133 167.888L114.133 168.467L115.6 168.467L115.6 167.888L114.133 167.888ZM115.195 167.811L112.261 166.344L111.605 167.656L114.539 169.123L115.195 167.811ZM115.124 169.154L118.057 168.054L117.542 166.68L114.609 167.78L115.124 169.154ZM112.501 164.838C113.521 165.518 114.133 166.662 114.133 167.888L115.6 167.888C115.6 166.172 114.742 164.569 113.314 163.617L112.501 164.838Z" fill="black"/>
<ellipse cx="112.033" cy="174.592" rx="1.52392" ry="1.95932" transform="rotate(30 112.033 174.592)" fill="#DCDCDC"/>
<ellipse cx="112.025" cy="174.131" rx="0.415781" ry="0.692968" transform="rotate(30 112.025 174.131)" fill="white"/>
<circle cx="125.867" cy="183.867" r="8.06667" fill="#DCDCDC" stroke="black" stroke-width="1.46667"/>
<circle cx="112.667" cy="188.267" r="0.733333" fill="#8C8C8C"/>
<circle cx="115.6" cy="183.133" r="0.733333" fill="#8C8C8C"/>
<circle cx="113.767" cy="185.7" r="0.366667" fill="#8C8C8C"/>
<circle cx="114.5" cy="190.1" r="0.366667" fill="#8C8C8C"/>
<circle cx="115.233" cy="187.9" r="0.366667" fill="#8C8C8C"/>
<circle cx="116.7" cy="184.967" r="0.366667" fill="#8C8C8C"/>
<path fill-rule="evenodd" clip-rule="evenodd" d="M126.747 185.627C127.024 185.904 127.154 186.295 127.099 186.683L126.886 188.173C126.819 188.638 127.245 189.022 127.701 188.908C129.28 188.513 130.513 187.28 130.908 185.701C131.022 185.245 130.638 184.819 130.173 184.886L128.683 185.099C128.295 185.154 127.904 185.024 127.627 184.747L127.54 184.66C127.102 184.222 127.102 183.512 127.54 183.074C127.834 182.78 128.266 182.672 128.664 182.795L129.656 183.102C130.152 183.255 130.642 182.849 130.585 182.333C130.399 180.657 129.076 179.334 127.4 179.148C126.884 179.091 126.478 179.582 126.631 180.078L126.938 181.07C127.061 181.467 126.954 181.9 126.66 182.194C126.222 182.632 125.512 182.632 125.074 182.194L124.987 182.107C124.71 181.83 124.579 181.438 124.635 181.051L124.817 179.777C124.898 179.209 124.377 178.739 123.82 178.878C122.371 179.24 121.24 180.371 120.878 181.82C120.739 182.377 121.209 182.898 121.777 182.817L123.051 182.635C123.438 182.579 123.83 182.71 124.107 182.987C124.593 183.473 124.593 184.261 124.107 184.747C123.83 185.024 123.438 185.154 123.051 185.099L121.777 184.917C121.209 184.836 120.739 185.356 120.878 185.913C121.24 187.362 122.371 188.493 123.82 188.855C124.377 188.994 124.898 188.525 124.817 187.956L124.635 186.683C124.579 186.295 124.71 185.904 124.987 185.627C125.473 185.141 126.261 185.141 126.747 185.627Z" fill="#8C8C8C"/>
<path d="M185.349 189.436L187.193 186.902C188.252 185.446 188.597 183.589 188.133 181.85C183.287 186.58 176.509 188.825 169.8 187.9L171.441 189.677C173.2 191.583 175.675 192.667 178.268 192.667H179.006C181.515 192.667 183.873 191.466 185.349 189.436Z" fill="#DCDCDC"/>
<ellipse cx="174.299" cy="178.259" rx="1.52392" ry="1.95932" transform="rotate(30 174.299 178.259)" fill="#DCDCDC"/>
<ellipse cx="174.292" cy="177.798" rx="0.415781" ry="0.692968" transform="rotate(30 174.292 177.798)" fill="white"/>
<path d="M179.695 170.938L181.33 172.164C183.071 173.47 184.64 174.991 186 176.69L186.206 176.948C189.525 181.097 188.825 187.157 184.647 190.44C183.416 191.407 181.895 191.933 180.329 191.933H176.871C175.305 191.933 173.784 191.407 172.553 190.44C168.375 187.157 167.675 181.097 170.994 176.948L171.2 176.69C172.56 174.991 174.129 173.47 175.87 172.164L177.505 170.938C178.154 170.451 179.046 170.451 179.695 170.938Z" stroke="black" stroke-width="1.46667"/>
<path fill-rule="evenodd" clip-rule="evenodd" d="M175.667 171.767L177.465 169.369C177.732 169.014 177.95 168.625 178.115 168.212C178.433 167.417 178.544 166.555 178.438 165.705L178.233 164.067L180.067 163.333L180.75 165.155C181.013 165.858 180.942 166.642 180.556 167.285C180.241 167.809 180.133 168.433 180.253 169.033L180.8 171.767L178.6 170.3L175.667 171.767Z" fill="black"/>
<circle cx="175.667" cy="189" r="0.733333" fill="#8C8C8C"/>
<circle cx="183" cy="184.6" r="0.733333" fill="#8C8C8C"/>
<circle cx="177.5" cy="187.166" r="0.366667" fill="#8C8C8C"/>
<circle cx="181.167" cy="189.367" r="0.366667" fill="#8C8C8C"/>
<circle cx="179.7" cy="184.967" r="0.366667" fill="#8C8C8C"/>
<circle cx="181.167" cy="187.166" r="0.366667" fill="#8C8C8C"/>
<circle cx="178.967" cy="188.633" r="0.366667" fill="#8C8C8C"/>
<path d="M182.867 176.373L185.009 176.083C186.381 175.897 187.77 175.886 189.144 176.049L189.553 176.098C193.981 176.624 197.154 180.626 196.656 185.057C196.551 185.998 196.128 186.876 195.458 187.546L192.913 190.091C192.243 190.761 191.365 191.184 190.424 191.29C185.993 191.787 181.991 188.615 181.465 184.186L181.416 183.777C181.253 182.403 181.264 181.014 181.45 179.642L181.739 177.501C181.819 176.914 182.28 176.452 182.867 176.373Z" fill="#DCDCDC" stroke="black" stroke-width="1.46667"/>
<path fill-rule="evenodd" clip-rule="evenodd" d="M181.222 180.004L181.131 179.006C181.021 177.789 180.603 176.613 179.926 175.596L178.37 173.522L180.185 171.707L180.768 173.456C181.054 174.314 181.727 174.987 182.584 175.272C182.713 175.315 182.839 175.367 182.96 175.428L184.852 176.374L182.259 176.892L181.222 180.004Z" fill="black"/>
<path d="M193.181 183.342L191.793 181.028C191.119 179.906 189.644 179.574 188.555 180.3C187.971 180.689 187.871 181.508 188.345 182.026L191.533 185.518C192.121 186.163 193.189 185.905 193.418 185.063C193.577 184.481 193.491 183.859 193.181 183.342Z" fill="#8C8C8C"/>
<path d="M188.709 187.814L186.843 186.695C185.477 185.875 185.073 184.08 185.957 182.754C186.194 182.398 186.692 182.337 187.008 182.626L190.885 186.166C191.53 186.754 191.272 187.822 190.43 188.052C189.848 188.21 189.226 188.125 188.709 187.814Z" fill="#8C8C8C"/>
</svg>
