<svg width="240" height="240" viewBox="0 0 240 240" fill="none" xmlns="http://www.w3.org/2000/svg">
<rect x="0.5" y="0.5" width="239" height="239" rx="7.5" fill="white" stroke="#E8E8E8"/>
<path d="M53.3494 51.8242C54.4494 51.8242 56.2827 53.2904 56.6494 55.4908C56.9605 57.3575 56.7313 59.2609 56.2827 60.9909" stroke="#4D4D4D" stroke-width="1.33333"/>
<mask id="path-3-inside-1_8029_44690" fill="white">
<path fill-rule="evenodd" clip-rule="evenodd" d="M56.964 57.619C55.0217 55.3919 52.4893 54.2843 50.1229 54.9334C46.2538 55.9948 44.2939 61.3508 45.7453 66.8964C47.1967 72.4421 51.5098 76.0772 55.3789 75.0159C55.9884 74.8487 56.5505 74.5749 57.0594 74.2106C57.5365 74.5336 58.0584 74.7786 58.6207 74.9329C62.4898 75.9942 66.8029 72.3591 68.2543 66.8134C69.7057 61.2678 67.7458 55.9118 63.8767 54.8504C61.4811 54.1932 58.9154 55.3365 56.964 57.619Z"/>
</mask>
<path fill-rule="evenodd" clip-rule="evenodd" d="M56.964 57.619C55.0217 55.3919 52.4893 54.2843 50.1229 54.9334C46.2538 55.9948 44.2939 61.3508 45.7453 66.8964C47.1967 72.4421 51.5098 76.0772 55.3789 75.0159C55.9884 74.8487 56.5505 74.5749 57.0594 74.2106C57.5365 74.5336 58.0584 74.7786 58.6207 74.9329C62.4898 75.9942 66.8029 72.3591 68.2543 66.8134C69.7057 61.2678 67.7458 55.9118 63.8767 54.8504C61.4811 54.1932 58.9154 55.3365 56.964 57.619Z" fill="#D9D9D9"/>
<path d="M50.1229 54.9334L49.7702 53.6476L50.1229 54.9334ZM56.964 57.619L55.9591 58.4954L56.974 59.6591L57.9774 58.4854L56.964 57.619ZM45.7453 66.8964L47.0352 66.5589L45.7453 66.8964ZM55.3789 75.0159L55.7316 76.3017H55.7316L55.3789 75.0159ZM57.0594 74.2106L57.8071 73.1066L57.0383 72.5859L56.2833 73.1264L57.0594 74.2106ZM58.6207 74.9329L58.9735 73.647H58.9735L58.6207 74.9329ZM63.8767 54.8504L64.2295 53.5646L63.8767 54.8504ZM50.4757 56.2192C52.1767 55.7526 54.2179 56.4988 55.9591 58.4954L57.9689 56.7426C55.8256 54.2851 52.8018 52.8159 49.7702 53.6476L50.4757 56.2192ZM47.0352 66.5589C46.3703 64.0184 46.5026 61.573 47.1911 59.6915C47.8819 57.8035 49.0734 56.6039 50.4757 56.2192L49.7702 53.6476C47.3034 54.3243 45.5803 56.3334 44.6868 58.7752C43.7909 61.2234 43.6689 64.2289 44.4554 67.234L47.0352 66.5589ZM55.0262 73.73C53.629 74.1133 52.0245 73.6867 50.5148 72.4143C49.0076 71.1439 47.7002 69.0997 47.0352 66.5589L44.4554 67.234C45.2418 70.2388 46.8168 72.785 48.7962 74.4533C50.7731 76.1195 53.2598 76.9798 55.7316 76.3017L55.0262 73.73ZM56.2833 73.1264C55.8967 73.4032 55.477 73.6064 55.0262 73.73L55.7316 76.3017C56.4999 76.0909 57.2044 75.7466 57.8356 75.2947L56.2833 73.1264ZM56.3118 75.3145C56.9048 75.7162 57.5596 76.0243 58.268 76.2187L58.9735 73.647C58.5573 73.5329 58.1681 73.3511 57.8071 73.1066L56.3118 75.3145ZM58.268 76.2187C60.7399 76.8968 63.2265 76.0365 65.2034 74.3703C67.1829 72.702 68.7578 70.1558 69.5442 67.151L66.9644 66.4758C66.2994 69.0167 64.9921 71.0609 63.4849 72.3313C61.9751 73.6037 60.3707 74.0303 58.9735 73.647L58.268 76.2187ZM69.5442 67.151C70.3307 64.1459 70.2087 61.1404 69.3128 58.6921C68.4193 56.2504 66.6963 54.2413 64.2295 53.5646L63.524 56.1362C64.9263 56.5209 66.1177 57.7205 66.8086 59.6085C67.4971 61.49 67.6293 63.9354 66.9644 66.4758L69.5442 67.151ZM64.2295 53.5646C61.16 52.7225 58.1003 54.238 55.9505 56.7526L57.9774 58.4854C59.7304 56.4351 61.8023 55.6639 63.524 56.1362L64.2295 53.5646Z" fill="#4D4D4D" mask="url(#path-3-inside-1_8029_44690)"/>
<path d="M56.5441 54.159C57.468 51.1608 60.3797 49.2072 63.5043 49.4892C62.5804 52.4873 59.6687 54.4409 56.5441 54.159Z" fill="white" stroke="#4D4D4D" stroke-width="1.33333"/>
<mask id="path-6-inside-2_8029_44690" fill="white">
<path d="M134.667 54.6667C134.667 56.5927 134.287 58.4999 133.55 60.2794C132.813 62.0588 131.733 63.6756 130.371 65.0376C129.009 66.3995 127.392 67.4798 125.613 68.2169C123.833 68.954 121.926 69.3333 120 69.3333C118.074 69.3333 116.167 68.954 114.387 68.2169C112.608 67.4798 110.991 66.3995 109.629 65.0376C108.267 63.6756 107.187 62.0588 106.45 60.2794C105.713 58.4999 105.333 56.5927 105.333 54.6667L120 54.6667H134.667Z"/>
</mask>
<path d="M134.667 54.6667C134.667 56.5927 134.287 58.4999 133.55 60.2794C132.813 62.0588 131.733 63.6756 130.371 65.0376C129.009 66.3995 127.392 67.4798 125.613 68.2169C123.833 68.954 121.926 69.3333 120 69.3333C118.074 69.3333 116.167 68.954 114.387 68.2169C112.608 67.4798 110.991 66.3995 109.629 65.0376C108.267 63.6756 107.187 62.0588 106.45 60.2794C105.713 58.4999 105.333 56.5927 105.333 54.6667L120 54.6667H134.667Z" fill="white" stroke="#4D4D4D" stroke-width="2.66667" mask="url(#path-6-inside-2_8029_44690)"/>
<mask id="path-7-inside-3_8029_44690" fill="white">
<path d="M131.733 54.6667C131.733 57.7786 130.497 60.763 128.297 62.9634C126.096 65.1638 123.112 66.4 120 66.4C116.888 66.4 113.904 65.1638 111.703 62.9634C109.503 60.763 108.267 57.7786 108.267 54.6667L120 54.6667H131.733Z"/>
</mask>
<path d="M131.733 54.6667C131.733 57.7786 130.497 60.763 128.297 62.9634C126.096 65.1638 123.112 66.4 120 66.4C116.888 66.4 113.904 65.1638 111.703 62.9634C109.503 60.763 108.267 57.7786 108.267 54.6667L120 54.6667H131.733Z" fill="#D9D9D9" stroke="#4D4D4D" stroke-width="2.66667" mask="url(#path-7-inside-3_8029_44690)"/>
<path d="M120 61.2666L120.609 62.2821C120.69 62.4174 120.733 62.573 120.733 62.7308C120.733 63.1358 120.405 63.4666 120 63.4666C119.595 63.4666 119.267 63.1358 119.267 62.7308C119.267 62.573 119.309 62.4174 119.391 62.2821L120 61.2666Z" fill="#4D4D4D"/>
<path d="M125.716 57.9665L126.9 57.9466C127.058 57.9439 127.214 57.9846 127.351 58.0635C127.701 58.266 127.824 58.7157 127.621 59.0665C127.419 59.4172 126.968 59.5362 126.617 59.3337C126.481 59.2548 126.367 59.1398 126.291 59.0018L125.716 57.9665Z" fill="#4D4D4D"/>
<path d="M114.284 57.9669L113.709 59.0022C113.633 59.1402 113.519 59.2552 113.383 59.334C113.032 59.5366 112.581 59.4176 112.379 59.0669C112.176 58.7161 112.299 58.2664 112.649 58.0639C112.786 57.985 112.942 57.9443 113.1 57.947L114.284 57.9669Z" fill="#4D4D4D"/>
<path d="M123.3 60.3824L124.335 60.9571C124.473 61.0337 124.588 61.1471 124.667 61.2837C124.869 61.6345 124.751 62.0851 124.4 62.2876C124.049 62.4901 123.599 62.3678 123.397 62.017C123.318 61.8804 123.277 61.7242 123.28 61.5664L123.3 60.3824Z" fill="#4D4D4D"/>
<path d="M116.7 60.3823L116.72 61.5663C116.722 61.7241 116.682 61.8803 116.603 62.017C116.4 62.3677 115.951 62.4901 115.6 62.2875C115.249 62.085 115.13 61.6344 115.333 61.2836C115.412 61.147 115.527 61.0336 115.665 60.9571L116.7 60.3823Z" fill="#4D4D4D"/>
<path d="M188.2 65.6668C188.2 70.9687 183.902 75.2668 178.6 75.2668C173.298 75.2668 169 70.9687 169 65.6668C169 60.3649 173.298 56.0668 178.6 56.0668C183.902 56.0668 188.2 60.3649 188.2 65.6668Z" fill="#D9D9D9" stroke="#4D4D4D" stroke-width="1.33333"/>
<path d="M197 67.1333C197 71.6252 193.359 75.2666 188.867 75.2666C184.375 75.2666 180.733 71.6252 180.733 67.1333C180.733 62.6413 184.375 58.9999 188.867 58.9999C193.359 58.9999 197 62.6413 197 67.1333Z" fill="white" stroke="#4D4D4D" stroke-width="1.33333"/>
<path d="M194.042 64.3672C194.222 64.7032 194.37 65.0587 194.482 65.4297L191.93 66.2029C192.018 66.4941 192.067 66.8056 192.067 67.1333C192.067 67.4609 192.018 67.7725 191.93 68.0636L194.482 68.8368C194.37 69.2079 194.222 69.5634 194.042 69.8993L191.691 68.6402C191.392 69.198 190.931 69.6588 190.374 69.9575L191.633 72.3082C191.297 72.4882 190.941 72.6364 190.57 72.7488L189.797 70.1967C189.506 70.2849 189.194 70.3333 188.867 70.3333C188.539 70.3333 188.227 70.2849 187.936 70.1967L187.163 72.7488C186.792 72.6364 186.437 72.4882 186.101 72.3082L187.36 69.9575C186.802 69.6588 186.341 69.198 186.042 68.6402L183.692 69.8993C183.512 69.5634 183.364 69.2079 183.251 68.8368L185.803 68.0636C185.715 67.7725 185.667 67.4609 185.667 67.1333C185.667 66.8056 185.715 66.4941 185.803 66.2029L183.251 65.4297C183.364 65.0587 183.512 64.7032 183.692 64.3672L186.042 65.6263C186.341 65.0685 186.802 64.6078 187.36 64.309L186.101 61.9583C186.437 61.7784 186.792 61.6302 187.163 61.5178L187.936 64.0699C188.227 63.9817 188.539 63.9333 188.867 63.9333C189.194 63.9333 189.506 63.9817 189.797 64.0699L190.57 61.5178C190.941 61.6302 191.297 61.7784 191.633 61.9583L190.374 64.309C190.931 64.6078 191.392 65.0685 191.691 65.6263L194.042 64.3672Z" fill="white" stroke="#4D4D4D" stroke-width="5.33333" stroke-dasharray="4 1.33"/>
<path d="M183 49.5332L181.709 50.3077C180.202 51.2121 179.167 52.7322 178.878 54.4662L178.6 56.1332" stroke="#4D4D4D" stroke-width="1.33333"/>
<path d="M169.18 57.4947C170.736 52.993 175.384 50.3093 180.061 51.2125C178.505 55.7142 173.857 58.3978 169.18 57.4947Z" fill="white" stroke="#4D4D4D" stroke-width="1.33333"/>
<path d="M175.3 71.3824C174.297 70.8031 173.464 69.97 172.884 68.9667C172.305 67.9633 172 66.8252 172 65.6667" stroke="#4D4D4D" stroke-width="1.33333"/>
<circle cx="188.867" cy="67.1335" r="0.733334" fill="white"/>
<path d="M55.1663 114.133L56.2665 113.4M57.3663 113.4H56.2665M56.2665 113.4C55.6554 112.056 54.5063 110.467 54.7996 106.067" stroke="#4D4D4D" stroke-width="1.33333" stroke-linecap="round"/>
<path d="M55.5406 108.725C59.4295 108.028 63.2722 110.247 64.6134 113.963C60.7245 114.659 56.8817 112.441 55.5406 108.725Z" stroke="#4D4D4D" stroke-width="1.33333"/>
<path d="M52.5053 115.763L52.5242 115.712L52.5348 115.66C52.7055 114.806 53.1501 114.25 53.7674 113.89C54.4081 113.515 55.2705 113.333 56.2668 113.333C57.263 113.333 58.1255 113.515 58.7662 113.89C59.3835 114.25 59.8281 114.806 59.9988 115.66L60.0094 115.712L60.0283 115.763L61.1146 118.66C61.4755 119.622 62.0984 120.426 62.6839 121.128C63.7557 122.412 64.4001 124.063 64.4001 125.867C64.4001 129.882 60.43 133.267 56.2668 133.267C52.1036 133.267 48.1335 129.882 48.1335 125.867C48.1335 124.063 48.7779 122.412 49.8497 121.128C50.4352 120.426 51.0581 119.622 51.419 118.66L52.5053 115.763Z" fill="#D9D9D9" stroke="#4D4D4D" stroke-width="1.33333"/>
<path d="M54.0666 129.677C53.2278 129.193 52.5722 128.445 52.2015 127.551C51.8308 126.656 51.7658 125.664 52.0165 124.728" stroke="#4D4D4D" stroke-width="1.33333"/>
<path d="M107.515 111.843C107.898 110.726 108.591 109.741 109.513 109.004L109.812 108.764C110.787 107.985 112.07 107.705 113.281 108.007L115.129 108.469C115.402 108.538 115.685 108.562 115.966 108.542L118.9 108.333C119.987 108.255 121.073 108.514 122.008 109.075L122.3 109.251C123.281 109.84 123.998 110.783 124.302 111.886C124.898 114.046 125.2 116.276 125.2 118.517V118.91C125.2 122.452 124.524 125.961 123.209 129.25L122.945 129.91C122.574 130.836 121.97 131.65 121.191 132.273L120.676 132.685C119.612 133.536 118.291 134 116.928 134H114.695C113.103 134 111.577 133.368 110.452 132.243L109.503 131.294C109.047 130.838 108.668 130.311 108.379 129.734L107.775 128.527C106.608 126.193 106 123.584 106 120.972C106 117.878 106.512 114.767 107.515 111.843Z" fill="#D9D9D9" stroke="#4D4D4D" stroke-width="1.33333"/>
<path d="M115.463 105.769C115.298 105.439 114.898 105.306 114.568 105.47C114.239 105.635 114.106 106.035 114.27 106.365L115.463 105.769ZM115.6 108.478L116.267 108.478L115.6 108.478ZM114.27 106.365L114.581 106.987L115.774 106.391L115.463 105.769L114.27 106.365ZM114.933 108.478L114.933 109L116.267 109L116.267 108.478L114.933 108.478ZM114.581 106.987C114.813 107.45 114.933 107.96 114.933 108.478L116.267 108.478C116.267 107.753 116.098 107.039 115.774 106.391L114.581 106.987Z" fill="#4D4D4D"/>
<mask id="path-26-inside-4_8029_44690" fill="white">
<path fill-rule="evenodd" clip-rule="evenodd" d="M134.666 121.537C134.667 121.514 134.667 121.49 134.667 121.467C134.667 118.226 130.07 115.6 124.4 115.6C118.73 115.6 114.134 118.226 114.134 121.467C114.134 121.609 114.143 121.751 114.16 121.892C114.143 122.023 114.134 122.158 114.134 122.294V122.378C114.134 124.19 114.555 125.977 115.366 127.597L116.583 130.032C116.904 130.673 117.325 131.258 117.832 131.765L118.781 132.714C120.031 133.964 121.727 134.667 123.495 134.667H125.728C127.242 134.667 128.711 134.151 129.893 133.206L130.408 132.794C131.277 132.099 131.951 131.19 132.364 130.157L133.626 127.003C134.314 125.283 134.667 123.448 134.667 121.596C134.667 121.576 134.667 121.557 134.666 121.537Z"/>
</mask>
<path fill-rule="evenodd" clip-rule="evenodd" d="M134.666 121.537C134.667 121.514 134.667 121.49 134.667 121.467C134.667 118.226 130.07 115.6 124.4 115.6C118.73 115.6 114.134 118.226 114.134 121.467C114.134 121.609 114.143 121.751 114.16 121.892C114.143 122.023 114.134 122.158 114.134 122.294V122.378C114.134 124.19 114.555 125.977 115.366 127.597L116.583 130.032C116.904 130.673 117.325 131.258 117.832 131.765L118.781 132.714C120.031 133.964 121.727 134.667 123.495 134.667H125.728C127.242 134.667 128.711 134.151 129.893 133.206L130.408 132.794C131.277 132.099 131.951 131.19 132.364 130.157L133.626 127.003C134.314 125.283 134.667 123.448 134.667 121.596C134.667 121.576 134.667 121.557 134.666 121.537Z" fill="#D9D9D9"/>
<path d="M134.666 121.537L133.333 121.51L133.333 121.54L133.333 121.57L134.666 121.537ZM114.16 121.892L115.482 122.067L115.505 121.897L115.483 121.726L114.16 121.892ZM115.366 127.597L114.173 128.193H114.173L115.366 127.597ZM117.832 131.765L118.775 130.822L118.775 130.822L117.832 131.765ZM118.781 132.714L117.838 133.657L117.838 133.657L118.781 132.714ZM129.893 133.206L129.06 132.164L129.06 132.164L129.893 133.206ZM132.364 130.157L133.602 130.652L132.364 130.157ZM133.626 127.003L132.388 126.508V126.508L133.626 127.003ZM133.334 121.467C133.334 121.481 133.334 121.495 133.333 121.51L135.999 121.565C136 121.532 136 121.499 136 121.467H133.334ZM124.4 116.933C127.046 116.933 129.376 117.549 130.998 118.476C132.658 119.424 133.334 120.531 133.334 121.467H136C136 119.162 134.377 117.335 132.321 116.161C130.228 114.964 127.424 114.267 124.4 114.267V116.933ZM115.467 121.467C115.467 120.531 116.142 119.424 117.802 118.476C119.424 117.549 121.754 116.933 124.4 116.933V114.267C121.376 114.267 118.573 114.964 116.479 116.161C114.423 117.335 112.8 119.162 112.8 121.467H115.467ZM115.483 121.726C115.472 121.64 115.467 121.554 115.467 121.467H112.8C112.8 121.665 112.813 121.862 112.837 122.057L115.483 121.726ZM112.838 121.716C112.813 121.906 112.8 122.099 112.8 122.294H115.467C115.467 122.216 115.472 122.141 115.482 122.067L112.838 121.716ZM112.8 122.294V122.378H115.467V122.294H112.8ZM112.8 122.378C112.8 124.397 113.27 126.388 114.173 128.193L116.558 127.001C115.841 125.566 115.467 123.983 115.467 122.378H112.8ZM114.173 128.193L115.391 130.629L117.776 129.436L116.558 127.001L114.173 128.193ZM115.391 130.629C115.775 131.398 116.281 132.1 116.889 132.708L118.775 130.822C118.369 130.417 118.032 129.949 117.776 129.436L115.391 130.629ZM116.889 132.708L117.838 133.657L119.724 131.771L118.775 130.822L116.889 132.708ZM117.838 133.657C119.339 135.157 121.373 136 123.495 136V133.333C122.081 133.333 120.724 132.771 119.724 131.771L117.838 133.657ZM123.495 136H125.728V133.333H123.495V136ZM125.728 136C127.545 136 129.308 135.382 130.726 134.247L129.06 132.164C128.114 132.921 126.94 133.333 125.728 133.333V136ZM130.726 134.247L131.241 133.835L129.575 131.753L129.06 132.164L130.726 134.247ZM131.241 133.835C132.29 132.996 133.103 131.899 133.602 130.652L131.126 129.662C130.798 130.481 130.264 131.201 129.575 131.753L131.241 133.835ZM133.602 130.652L134.864 127.498L132.388 126.508L131.126 129.662L133.602 130.652ZM134.864 127.498C135.615 125.621 136 123.618 136 121.596H133.334C133.334 123.279 133.013 124.946 132.388 126.508L134.864 127.498ZM136 121.596C136 121.565 136 121.535 135.999 121.504L133.333 121.57C133.334 121.579 133.334 121.587 133.334 121.596H136Z" fill="#4D4D4D" mask="url(#path-26-inside-4_8029_44690)"/>
<path d="M134 121.467C134 122.744 133.088 124.031 131.329 125.036C129.589 126.03 127.141 126.667 124.4 126.667C121.66 126.667 119.211 126.03 117.471 125.036C115.712 124.031 114.8 122.744 114.8 121.467C114.8 120.189 115.712 118.902 117.471 117.897C119.211 116.903 121.66 116.267 124.4 116.267C127.141 116.267 129.589 116.903 131.329 117.897C133.088 118.902 134 120.189 134 121.467Z" fill="white" stroke="#4D4D4D" stroke-width="1.33333"/>
<ellipse cx="124.4" cy="121.467" rx="4.4" ry="2.2" fill="#4D4D4D"/>
<path d="M191.133 123.667C191.133 129.699 186.236 134 180.067 134C173.898 134 169 129.699 169 123.667C169 117.635 173.898 113.333 180.067 113.333C186.236 113.333 191.133 117.635 191.133 123.667Z" fill="#D9D9D9" stroke="#4D4D4D" stroke-width="1.33333"/>
<path d="M197 125.867C197 130.599 193.097 134 188.133 134C183.169 134 179.267 130.599 179.267 125.867C179.267 121.135 183.169 117.733 188.133 117.733C193.097 117.733 197 121.135 197 125.867Z" fill="white" stroke="#4D4D4D" stroke-width="1.33333"/>
<path d="M178.338 105.595C178.078 105.335 177.656 105.335 177.395 105.595C177.135 105.856 177.135 106.278 177.395 106.538L178.338 105.595ZM179.4 109.924L179.4 114.133L180.733 114.133L180.733 109.924L179.4 109.924ZM179.367 106.624L178.338 105.595L177.395 106.538L178.424 107.566L179.367 106.624ZM180.733 109.924C180.733 108.686 180.242 107.499 179.367 106.624L178.424 107.566C179.049 108.192 179.4 109.039 179.4 109.924L180.733 109.924Z" fill="#4D4D4D"/>
<path d="M180.284 109.766C182.541 106.524 186.828 105.376 190.404 107.055C188.146 110.297 183.86 111.446 180.284 109.766Z" fill="#D9D9D9" stroke="#4D4D4D" stroke-width="1.33333"/>
<path d="M190.7 121.421L188.133 125.866M185.567 130.312L188.133 125.866M188.133 125.866L183.688 123.3M188.133 125.866L192.579 128.433M188.133 125.866L193.142 124.524M188.133 125.866L183.124 127.209M188.133 125.866L189.475 130.875M188.133 125.866L186.791 120.858" stroke="#4D4D4D" stroke-width="1.33333" stroke-linecap="round"/>
<path d="M49.0897 172.914L53.2768 169.768C54.244 169.041 55.0113 168.081 55.5071 166.977L56.4193 164.947C56.6783 164.371 57.2513 164 57.8832 164C58.8641 164 59.6156 164.872 59.4703 165.842L59.3066 166.935C59.16 167.914 59.5616 168.894 60.3528 169.489L64.9107 172.914C67.8212 175.101 69.5335 178.53 69.5335 182.171C69.5335 187.599 65.1327 192 59.7041 192H54.2962C48.8676 192 44.4668 187.599 44.4668 182.171C44.4668 178.53 46.1792 175.101 49.0897 172.914Z" fill="#D9D9D9" stroke="#4D4D4D" stroke-width="1.33333"/>
<path d="M59.2123 167.563H55.2437L56.419 164.947C56.678 164.371 57.2511 164 57.8829 164C58.8639 164 59.6153 164.872 59.47 165.842L59.2123 167.563Z" stroke="#4D4D4D" stroke-width="1.33333"/>
<path d="M54.0667 169.2L51.774 172.326C48.1999 177.2 47.4911 183.608 49.9135 189.145V189.145C50.6545 190.839 52.3279 191.933 54.1767 191.933H54.8" stroke="#4D4D4D" stroke-width="1.33333"/>
<path d="M56.2666 167.733L55.7588 168.597C51.5331 175.78 51.4472 184.669 55.5332 191.933V191.933" stroke="#4D4D4D" stroke-width="1.33333"/>
<path d="M57.7334 167.733L58.2412 168.597C62.4669 175.78 62.5528 184.669 58.4668 191.933V191.933" stroke="#4D4D4D" stroke-width="1.33333"/>
<path d="M59.9333 169.2L62.226 172.326C65.8001 177.2 66.5089 183.608 64.0865 189.145V189.145C63.3455 190.839 61.6721 191.933 59.8233 191.933H59.2" stroke="#4D4D4D" stroke-width="1.33333"/>
<path d="M122.267 180.2C122.267 183.755 121.388 186.737 120.015 188.808C118.643 190.879 116.812 192 114.867 192C112.921 192 111.091 190.879 109.719 188.808C108.345 186.737 107.467 183.755 107.467 180.2C107.467 176.645 108.345 173.663 109.719 171.592C111.091 169.521 112.921 168.4 114.867 168.4C116.812 168.4 118.643 169.521 120.015 171.592C121.388 173.663 122.267 176.645 122.267 180.2Z" fill="#D9D9D9" stroke="#4D4D4D" stroke-width="1.33333"/>
<path d="M113.037 163.512C112.73 163.308 112.316 163.39 112.112 163.697C111.908 164.003 111.991 164.417 112.297 164.621L113.037 163.512ZM114.867 168.467L114.569 169.063C114.735 169.146 114.927 169.156 115.101 169.091L114.867 168.467ZM113.086 164.346L112.716 164.901L113.086 164.346ZM112.297 164.621L112.716 164.901L113.455 163.791L113.037 163.512L112.297 164.621ZM114.2 167.674L114.2 168.467L115.534 168.467L115.534 167.674L114.2 167.674ZM115.165 167.87L112.232 166.404L111.635 167.596L114.569 169.063L115.165 167.87ZM115.101 169.091L118.034 167.991L117.566 166.742L114.633 167.842L115.101 169.091ZM112.716 164.901C113.643 165.519 114.2 166.56 114.2 167.674L115.534 167.674C115.534 166.114 114.754 164.657 113.455 163.791L112.716 164.901Z" fill="#4D4D4D"/>
<circle cx="125.867" cy="183.867" r="8.13333" fill="white" stroke="#4D4D4D" stroke-width="1.33333"/>
<path fill-rule="evenodd" clip-rule="evenodd" d="M126.747 185.626C127.024 185.903 127.154 186.295 127.099 186.682L126.886 188.173C126.819 188.638 127.245 189.022 127.701 188.908C129.28 188.513 130.513 187.28 130.908 185.701C131.022 185.245 130.638 184.819 130.173 184.886L128.683 185.098C128.295 185.154 127.904 185.023 127.627 184.746L127.54 184.659C127.102 184.221 127.102 183.511 127.54 183.073C127.834 182.779 128.266 182.672 128.664 182.795L129.656 183.102C130.152 183.255 130.642 182.849 130.585 182.333C130.399 180.657 129.076 179.334 127.4 179.148C126.884 179.091 126.478 179.581 126.631 180.077L126.938 181.069C127.061 181.467 126.954 181.899 126.66 182.193C126.222 182.631 125.512 182.631 125.074 182.193L124.987 182.106C124.71 181.829 124.579 181.438 124.635 181.05L124.816 179.777C124.898 179.208 124.377 178.739 123.82 178.878C122.371 179.24 121.24 180.371 120.878 181.82C120.739 182.377 121.208 182.898 121.777 182.816L123.051 182.634C123.438 182.579 123.83 182.709 124.107 182.986C124.593 183.472 124.593 184.26 124.107 184.746C123.83 185.023 123.438 185.154 123.051 185.098L121.777 184.917C121.208 184.835 120.739 185.356 120.878 185.913C121.24 187.362 122.371 188.493 123.82 188.855C124.377 188.994 124.898 188.525 124.816 187.956L124.635 186.682C124.579 186.295 124.71 185.903 124.987 185.626C125.473 185.14 126.261 185.14 126.747 185.626Z" fill="#4D4D4D"/>
<path d="M179.735 170.885L181.37 172.111C183.115 173.42 184.689 174.945 186.052 176.649L186.258 176.906C189.601 181.085 188.895 187.187 184.688 190.493C183.445 191.469 181.91 192 180.329 192H176.871C175.29 192 173.755 191.469 172.512 190.493C168.304 187.187 167.599 181.085 170.942 176.906L171.148 176.649C172.511 174.945 174.084 173.42 175.83 172.111L177.465 170.885C178.137 170.38 179.062 170.38 179.735 170.885Z" fill="#D9D9D9" stroke="#4D4D4D" stroke-width="1.33333"/>
<path fill-rule="evenodd" clip-rule="evenodd" d="M175.667 171.767L177.465 169.369C177.732 169.013 177.95 168.624 178.115 168.212C178.433 167.417 178.544 166.554 178.438 165.705L178.233 164.067L180.067 163.333L180.75 165.155C181.013 165.857 180.942 166.641 180.556 167.284C180.241 167.809 180.133 168.432 180.253 169.032L180.8 171.767L178.6 170.3L175.667 171.767Z" fill="#4D4D4D"/>
<path d="M182.858 176.307L185 176.017C186.377 175.831 187.772 175.819 189.152 175.983L189.561 176.032C194.025 176.562 197.224 180.597 196.722 185.065C196.615 186.021 196.186 186.913 195.505 187.593L192.96 190.139C192.279 190.819 191.388 191.249 190.431 191.356C185.963 191.858 181.929 188.659 181.398 184.195L181.35 183.785C181.186 182.406 181.197 181.011 181.383 179.634L181.673 177.492C181.757 176.875 182.242 176.39 182.858 176.307Z" fill="white" stroke="#4D4D4D" stroke-width="1.33333"/>
<path fill-rule="evenodd" clip-rule="evenodd" d="M181.222 180.004L181.116 178.838C181.015 177.731 180.64 176.668 180.024 175.743L179.926 175.596L178.37 173.522L180.185 171.707L180.768 173.456C181.054 174.314 181.727 174.987 182.584 175.272C182.713 175.315 182.839 175.367 182.96 175.428L184.852 176.374L182.259 176.892L181.222 180.004Z" fill="#4D4D4D"/>
<path d="M193.181 183.342L191.793 181.028C191.119 179.906 189.644 179.574 188.555 180.3C187.971 180.69 187.871 181.508 188.345 182.027L191.533 185.519C192.121 186.163 193.189 185.905 193.418 185.064C193.577 184.481 193.491 183.859 193.181 183.342Z" fill="#4D4D4D"/>
<path d="M188.708 187.814L186.843 186.695C185.476 185.875 185.073 184.08 185.957 182.754C186.194 182.398 186.692 182.337 187.007 182.626L190.885 186.166C191.53 186.754 191.272 187.822 190.43 188.052C189.848 188.21 189.226 188.125 188.708 187.814Z" fill="#4D4D4D"/>
</svg>
