<svg width="70" height="69" viewBox="0 0 70 69" fill="none" xmlns="http://www.w3.org/2000/svg">
<mask id="mask0_7739_11928" style="mask-type:alpha" maskUnits="userSpaceOnUse" x="0" y="0" width="70" height="69">
<rect width="70" height="69" fill="#D9D9D9"/>
</mask>
<g mask="url(#mask0_7739_11928)">
<path d="M34.7634 0.763406L70 36L70.0001 68.5269L2.23656 0.763442L34.7634 0.763406Z" fill="url(#paint0_linear_7739_11928)"/>
<path d="M25.3283 12.5415L30.278 7.59178L32.265 9.57875C32.7788 10.0926 33.0499 10.6041 33.0782 11.1132C33.1159 11.6223 32.9485 12.063 32.5761 12.4355C32.265 12.7466 31.9303 12.9116 31.572 12.9304C31.2232 12.9493 30.8956 12.8715 30.5892 12.6971C30.8154 13.0365 30.9074 13.4113 30.8649 13.8214C30.8272 14.2268 30.6599 14.578 30.3629 14.875C29.9716 15.2662 29.5073 15.4477 28.9699 15.4194C28.4325 15.3912 27.9045 15.1178 27.386 14.5992L25.3283 12.5415ZM29.1042 10.5758L30.0518 11.5233C30.3063 11.7778 30.5609 11.9146 30.8154 11.9334C31.07 11.9523 31.3057 11.8533 31.5225 11.6364C31.73 11.429 31.8242 11.198 31.8054 10.9435C31.796 10.6889 31.6569 10.4273 31.3882 10.1586L30.4548 9.22519L29.1042 10.5758ZM26.9688 12.7112L27.9799 13.7224C28.2486 13.9911 28.5173 14.1372 28.786 14.1608C29.0642 14.1844 29.3164 14.083 29.5426 13.8567C29.7736 13.6258 29.8773 13.3665 29.8538 13.0789C29.8302 12.7914 29.6864 12.5156 29.4224 12.2516L28.4254 11.2546L26.9688 12.7112ZM31.3872 18.7701C31.0336 18.4166 30.7956 18.0277 30.673 17.6034C30.5505 17.1792 30.5481 16.7525 30.6659 16.3236C30.7838 15.8946 31.0219 15.501 31.3801 15.1427C31.7431 14.7797 32.1414 14.5322 32.5751 14.4002C33.0135 14.2729 33.4449 14.2659 33.8691 14.379C34.3028 14.4921 34.7035 14.7326 35.0712 15.1003C35.4153 15.4444 35.644 15.8239 35.7571 16.2387C35.8703 16.6535 35.8679 17.066 35.75 17.4761C35.6416 17.8863 35.4271 18.2516 35.1066 18.5722C35.0547 18.624 34.9982 18.6759 34.9369 18.7277C34.8803 18.7843 34.819 18.8409 34.753 18.8974L32.0872 16.2316C31.8327 16.5239 31.7125 16.8327 31.7266 17.1579C31.7455 17.4879 31.8775 17.7755 32.1226 18.0206C32.3064 18.2045 32.4997 18.3176 32.7024 18.36C32.9145 18.4024 33.1172 18.3883 33.3105 18.3176L34.2298 19.2368C33.9422 19.3924 33.6287 19.4843 33.2893 19.5126C32.9593 19.5409 32.6293 19.4937 32.2994 19.3712C31.9741 19.2533 31.67 19.053 31.3872 18.7701ZM34.3358 15.8356C34.1143 15.6141 33.855 15.4821 33.558 15.4397C33.2657 15.3925 32.9688 15.4727 32.6671 15.6801L34.4136 17.4266C34.6305 17.1815 34.7295 16.9128 34.7106 16.6205C34.6917 16.3283 34.5668 16.0666 34.3358 15.8356ZM35.3587 22.7417C35.0476 22.4305 34.8237 22.1076 34.687 21.7729C34.555 21.4335 34.5078 21.1035 34.5455 20.783C34.5832 20.4624 34.7058 20.1701 34.9132 19.9062L35.8254 20.8183C35.717 20.9833 35.6745 21.1766 35.6981 21.3981C35.7311 21.6197 35.8466 21.8295 36.0446 22.0275C36.2426 22.2255 36.4264 22.3292 36.5961 22.3386C36.7706 22.3527 36.9096 22.308 37.0133 22.2042C37.1642 22.0534 37.1995 21.8861 37.1194 21.7022C37.044 21.5136 36.9143 21.2756 36.7305 20.988C36.6126 20.8042 36.4995 20.6109 36.3911 20.4082C36.2827 20.2055 36.1978 20.0028 36.1365 19.8001C36.0847 19.5974 36.0752 19.3994 36.1082 19.2061C36.1459 19.0081 36.2497 18.8243 36.4194 18.6546C36.7305 18.3434 37.1147 18.2044 37.5719 18.2374C38.0339 18.2751 38.4888 18.5179 38.9367 18.9657C39.3515 19.3805 39.5848 19.8072 39.6367 20.2456C39.6933 20.6887 39.5754 21.1035 39.2831 21.4901L38.4275 20.6345C38.635 20.3233 38.569 19.9981 38.2296 19.6587C38.0599 19.489 37.8949 19.39 37.7346 19.3617C37.579 19.3381 37.4517 19.3758 37.3527 19.4748C37.249 19.5785 37.2349 19.7294 37.3103 19.9274C37.3857 20.1254 37.5107 20.3634 37.6851 20.6415C37.8736 20.9432 38.0339 21.2308 38.1659 21.5042C38.3073 21.7776 38.371 22.044 38.3568 22.3032C38.3474 22.5578 38.2178 22.81 37.9679 23.0598C37.7558 23.2814 37.5036 23.4205 37.2113 23.477C36.9191 23.5336 36.6126 23.5006 36.2921 23.378C35.9715 23.2555 35.6604 23.0433 35.3587 22.7417ZM39.1613 26.3745C38.7936 26.0068 38.5885 25.6226 38.5461 25.2219C38.5037 24.8212 38.7111 24.3923 39.1684 23.935L40.6957 22.4077L40.0947 21.8066L40.8513 21.05L41.4523 21.651L42.4988 20.8167L43.2979 21.6157L42.3574 22.5561L43.3049 23.5037L42.5483 24.2603L41.6008 23.3127L40.0664 24.8472C39.8967 25.0169 39.8142 25.1701 39.8189 25.3068C39.833 25.4435 39.9297 25.6014 40.1088 25.7806L40.5472 26.219L39.7765 26.9897L39.1613 26.3745ZM43.7163 30.9296L46.8559 24.1696L47.8246 25.1384L45.2012 30.5619L50.6318 27.9456L51.5864 28.9002L44.8265 32.0397L43.7163 30.9296ZM47.8794 35.2623C47.5777 34.9606 47.3773 34.666 47.2783 34.3784C47.184 34.0861 47.1699 33.8127 47.2359 33.5582C47.3019 33.3036 47.4315 33.0797 47.6248 32.8864C47.9501 32.5612 48.3413 32.4244 48.7986 32.4763C49.2559 32.5282 49.739 32.8086 50.2482 33.3178L51.1391 34.2087L51.224 34.1239C51.4644 33.8834 51.5728 33.6383 51.5492 33.3885C51.5257 33.1386 51.4125 32.9123 51.2098 32.7096C51.026 32.5258 50.8209 32.4103 50.5946 32.3632C50.3731 32.3113 50.161 32.3537 49.9582 32.4904L49.0744 31.6066C49.3525 31.3756 49.6589 31.2389 49.9936 31.1964C50.333 31.1587 50.6701 31.2082 51.0048 31.3449C51.3442 31.4769 51.66 31.6891 51.9523 31.9813C52.452 32.481 52.7207 32.9996 52.7584 33.537C52.7961 34.0744 52.5863 34.5717 52.1291 35.029L49.9724 37.1856L49.2016 36.4149L49.6825 35.7643C49.3902 35.8492 49.0885 35.8586 48.7774 35.7926C48.471 35.7313 48.1716 35.5546 47.8794 35.2623ZM48.7915 34.7603C49.0508 35.0195 49.336 35.135 49.6471 35.1067C49.963 35.0832 50.2647 34.9653 50.5522 34.7532L49.7815 33.9824C49.5411 33.742 49.3242 33.6147 49.1309 33.6006C48.9424 33.5817 48.7845 33.636 48.6572 33.7632C48.5205 33.8999 48.4663 34.0579 48.4945 34.237C48.5228 34.4161 48.6218 34.5905 48.7915 34.7603ZM50.8361 38.0494L55.9273 32.9582L56.8324 33.8633L51.7412 38.9544L50.8361 38.0494ZM53.8964 41.2793C53.458 40.8409 53.2553 40.3648 53.2883 39.851C53.326 39.3419 53.6088 38.8233 54.1368 38.2953L56.1167 36.3154L57.0147 37.2135L55.1197 39.1085C54.818 39.4102 54.6483 39.7025 54.6106 39.9853C54.5729 40.2682 54.686 40.5416 54.95 40.8056C55.1998 41.0554 55.4945 41.1709 55.8339 41.1521C56.178 41.1379 56.5103 40.9706 56.8309 40.65L58.6411 38.8398L59.5462 39.7449L56.0389 43.2522L55.2399 42.4531L55.7632 41.7885C55.4473 41.8874 55.1244 41.8945 54.7944 41.8097C54.4691 41.7295 54.1698 41.5528 53.8964 41.2793ZM58.5873 45.9703C58.2338 45.6167 57.9957 45.2278 57.8731 44.8035C57.7506 44.3793 57.7482 43.9527 57.8661 43.5237C57.9839 43.0947 58.222 42.7011 58.5803 42.3428C58.9432 41.9798 59.3416 41.7323 59.7753 41.6004C60.2137 41.4731 60.645 41.466 61.0693 41.5791C61.503 41.6923 61.9037 41.9327 62.2714 42.3004C62.6155 42.6445 62.8441 43.024 62.9572 43.4388C63.0704 43.8537 63.068 44.2661 62.9502 44.6763C62.8418 45.0864 62.6273 45.4517 62.3067 45.7723C62.2549 45.8241 62.1983 45.876 62.137 45.9278C62.0804 45.9844 62.0192 46.041 61.9532 46.0976L59.2874 43.4318C59.0328 43.724 58.9126 44.0328 58.9267 44.3581C58.9456 44.6881 59.0776 44.9756 59.3227 45.2207C59.5066 45.4046 59.6998 45.5177 59.9025 45.5602C60.1147 45.6026 60.3174 45.5884 60.5107 45.5177L61.4299 46.437C61.1423 46.5925 60.8289 46.6845 60.4894 46.7127C60.1595 46.741 59.8295 46.6939 59.4995 46.5713C59.1742 46.4535 58.8702 46.2531 58.5873 45.9703ZM61.536 43.0358C61.3144 42.8142 61.0551 42.6822 60.7581 42.6398C60.4659 42.5927 60.1689 42.6728 59.8672 42.8802L61.6137 44.6268C61.8306 44.3816 61.9296 44.1129 61.9107 43.8207C61.8919 43.5284 61.7669 43.2668 61.536 43.0358Z" fill="white"/>
</g>
<defs>
<linearGradient id="paint0_linear_7739_11928" x1="18.5" y1="-15.5" x2="1.44532" y2="50.9256" gradientUnits="userSpaceOnUse">
<stop stop-color="#7238FA"/>
<stop offset="1" stop-color="#FA3838"/>
</linearGradient>
</defs>
</svg>
