<svg width="54" height="58" viewBox="0 0 54 58" fill="none" xmlns="http://www.w3.org/2000/svg">
<path fill-rule="evenodd" clip-rule="evenodd" d="M2 2H26V26H2V2ZM8 8V20H20V8H8Z" fill="black"/>
<rect x="8" y="8" width="12" height="12" stroke="#0D99FF"/>
<rect x="2" y="2" width="24" height="24" stroke="#0D99FF"/>
<path d="M30 10H52" stroke="black" stroke-width="6"/>
<path fill-rule="evenodd" clip-rule="evenodd" d="M52 13H30V7H52V13Z" stroke="#0D99FF"/>
<path d="M30 19H44" stroke="black" stroke-width="6"/>
<path fill-rule="evenodd" clip-rule="evenodd" d="M44 22H30V16H44V22Z" stroke="#0D99FF"/>
<rect x="31" y="17" width="2" height="2" rx="1" transform="rotate(180 31 17)" fill="white" stroke="#0D99FF" stroke-width="0.5"/>
<rect x="31" y="23" width="2" height="2" rx="1" transform="rotate(180 31 23)" fill="white" stroke="#0D99FF" stroke-width="0.5"/>
<rect x="45" y="17" width="2" height="2" rx="1" transform="rotate(180 45 17)" fill="white" stroke="#0D99FF" stroke-width="0.5"/>
<rect x="45" y="23" width="2" height="2" rx="1" transform="rotate(180 45 23)" fill="white" stroke="#0D99FF" stroke-width="0.5"/>
<rect x="3" y="3" width="2" height="2" rx="1" transform="rotate(180 3 3)" fill="white" stroke="#0D99FF" stroke-width="0.5"/>
<rect x="3" y="27" width="2" height="2" rx="1" transform="rotate(180 3 27)" fill="white" stroke="#0D99FF" stroke-width="0.5"/>
<rect x="27" y="27" width="2" height="2" rx="1" transform="rotate(180 27 27)" fill="white" stroke="#0D99FF" stroke-width="0.5"/>
<rect x="27" y="3" width="2" height="2" rx="1" transform="rotate(180 27 3)" fill="white" stroke="#0D99FF" stroke-width="0.5"/>
<rect x="9" y="9" width="2" height="2" rx="1" transform="rotate(180 9 9)" fill="white" stroke="#0D99FF" stroke-width="0.5"/>
<rect x="9" y="21" width="2" height="2" rx="1" transform="rotate(180 9 21)" fill="white" stroke="#0D99FF" stroke-width="0.5"/>
<rect x="21" y="9" width="2" height="2" rx="1" transform="rotate(180 21 9)" fill="white" stroke="#0D99FF" stroke-width="0.5"/>
<rect x="21" y="21" width="2" height="2" rx="1" transform="rotate(180 21 21)" fill="white" stroke="#0D99FF" stroke-width="0.5"/>
<rect x="31" y="8" width="2" height="2" rx="1" transform="rotate(180 31 8)" fill="white" stroke="#0D99FF" stroke-width="0.5"/>
<rect x="31" y="14" width="2" height="2" rx="1" transform="rotate(180 31 14)" fill="white" stroke="#0D99FF" stroke-width="0.5"/>
<rect x="53" y="8" width="2" height="2" rx="1" transform="rotate(180 53 8)" fill="white" stroke="#0D99FF" stroke-width="0.5"/>
<rect x="53" y="14" width="2" height="2" rx="1" transform="rotate(180 53 14)" fill="white" stroke="#0D99FF" stroke-width="0.5"/>
<path fill-rule="evenodd" clip-rule="evenodd" d="M2 32H26V56H2V32ZM8 38V50H20V38H8Z" fill="black"/>
<rect x="8" y="38" width="12" height="12" stroke="#0D99FF"/>
<rect x="2" y="32" width="24" height="24" stroke="#0D99FF"/>
<path d="M30 40H52" stroke="black" stroke-width="6"/>
<path fill-rule="evenodd" clip-rule="evenodd" d="M52 43H30V37H52V43Z" stroke="#0D99FF"/>
<path d="M30 49H44" stroke="black" stroke-width="6"/>
<path fill-rule="evenodd" clip-rule="evenodd" d="M44 52H30V46H44V52Z" stroke="#0D99FF"/>
<rect x="31" y="47" width="2" height="2" rx="1" transform="rotate(180 31 47)" fill="white" stroke="#0D99FF" stroke-width="0.5"/>
<rect x="31" y="53" width="2" height="2" rx="1" transform="rotate(180 31 53)" fill="white" stroke="#0D99FF" stroke-width="0.5"/>
<rect x="45" y="47" width="2" height="2" rx="1" transform="rotate(180 45 47)" fill="white" stroke="#0D99FF" stroke-width="0.5"/>
<rect x="45" y="53" width="2" height="2" rx="1" transform="rotate(180 45 53)" fill="white" stroke="#0D99FF" stroke-width="0.5"/>
<rect x="3" y="33" width="2" height="2" rx="1" transform="rotate(180 3 33)" fill="white" stroke="#0D99FF" stroke-width="0.5"/>
<rect x="3" y="57" width="2" height="2" rx="1" transform="rotate(180 3 57)" fill="white" stroke="#0D99FF" stroke-width="0.5"/>
<rect x="27" y="57" width="2" height="2" rx="1" transform="rotate(180 27 57)" fill="white" stroke="#0D99FF" stroke-width="0.5"/>
<rect x="27" y="33" width="2" height="2" rx="1" transform="rotate(180 27 33)" fill="white" stroke="#0D99FF" stroke-width="0.5"/>
<rect x="9" y="39" width="2" height="2" rx="1" transform="rotate(180 9 39)" fill="white" stroke="#0D99FF" stroke-width="0.5"/>
<rect x="9" y="51" width="2" height="2" rx="1" transform="rotate(180 9 51)" fill="white" stroke="#0D99FF" stroke-width="0.5"/>
<rect x="21" y="39" width="2" height="2" rx="1" transform="rotate(180 21 39)" fill="white" stroke="#0D99FF" stroke-width="0.5"/>
<rect x="21" y="51" width="2" height="2" rx="1" transform="rotate(180 21 51)" fill="white" stroke="#0D99FF" stroke-width="0.5"/>
<rect x="31" y="38" width="2" height="2" rx="1" transform="rotate(180 31 38)" fill="white" stroke="#0D99FF" stroke-width="0.5"/>
<rect x="31" y="44" width="2" height="2" rx="1" transform="rotate(180 31 44)" fill="white" stroke="#0D99FF" stroke-width="0.5"/>
<rect x="53" y="38" width="2" height="2" rx="1" transform="rotate(180 53 38)" fill="white" stroke="#0D99FF" stroke-width="0.5"/>
<rect x="53" y="44" width="2" height="2" rx="1" transform="rotate(180 53 44)" fill="white" stroke="#0D99FF" stroke-width="0.5"/>
</svg>
