<svg width="20" height="20" viewBox="0 0 20 20" fill="none" xmlns="http://www.w3.org/2000/svg">
<path d="M2.6328 5.45825C2.56084 4.30686 3.47526 3.3335 4.6289 3.3335H15.3711C16.5247 3.3335 17.4392 4.30686 17.3672 5.45825L16.7253 15.7292C16.6923 16.2562 16.2553 16.6668 15.7272 16.6668H4.27278C3.74472 16.6668 3.30767 16.2562 3.27473 15.7292L2.6328 5.45825Z" stroke="#2F3037" stroke-width="1.5"/>
<path d="M2.73431 5.20689C2.60996 4.21213 3.38561 3.3335 4.3881 3.3335H15.6122C16.6147 3.3335 17.3903 4.21213 17.266 5.20689C17.1617 6.04094 16.4527 6.66683 15.6122 6.66683H4.3881C3.54756 6.66683 2.83856 6.04094 2.73431 5.20689Z" stroke="#2F3037" stroke-width="1.5"/>
</svg>
