<svg width="240" height="240" viewBox="0 0 240 240" fill="none" xmlns="http://www.w3.org/2000/svg">
<rect x="0.5" y="0.5" width="239" height="239" rx="7.5" fill="white" stroke="#E8E8E8"/>
<path d="M64.3303 48.935C63.5477 52.9087 59.6919 55.4957 55.7181 54.7131C56.5007 50.7394 60.3565 48.1524 64.3303 48.935Z" fill="#138643"/>
<path d="M53.3495 51.8242C54.4495 51.8242 56.2828 53.2904 56.6495 55.4908C56.9606 57.3575 56.7314 59.2609 56.2828 60.9909" stroke="#5E3108" stroke-width="1.46667"/>
<mask id="path-4-inside-1_8029_44711" fill="white">
<path fill-rule="evenodd" clip-rule="evenodd" d="M56.9642 57.6193C55.022 55.3922 52.4894 54.2844 50.123 54.9336C46.254 55.995 44.294 61.351 45.7455 66.8966C47.1969 72.4423 51.51 76.0774 55.379 75.0161C55.9885 74.8489 56.5505 74.5751 57.0593 74.2109C57.5364 74.5341 58.0585 74.7791 58.6209 74.9333C62.4899 75.9947 66.803 72.3595 68.2544 66.8139C69.7058 61.2683 67.7459 55.9123 63.8768 54.8509C61.4813 54.1937 58.9156 55.337 56.9642 57.6193Z"/>
</mask>
<path fill-rule="evenodd" clip-rule="evenodd" d="M56.9642 57.6193C55.022 55.3922 52.4894 54.2844 50.123 54.9336C46.254 55.995 44.294 61.351 45.7455 66.8966C47.1969 72.4423 51.51 76.0774 55.379 75.0161C55.9885 74.8489 56.5505 74.5751 57.0593 74.2109C57.5364 74.5341 58.0585 74.7791 58.6209 74.9333C62.4899 75.9947 66.803 72.3595 68.2544 66.8139C69.7058 61.2683 67.7459 55.9123 63.8768 54.8509C61.4813 54.1937 58.9156 55.337 56.9642 57.6193Z" fill="#F04242"/>
<path d="M50.123 54.9336L50.511 56.348L50.123 54.9336ZM56.9642 57.6193L55.8589 58.5833L56.9752 59.8634L58.079 58.5724L56.9642 57.6193ZM45.7455 66.8966L44.3266 67.268L45.7455 66.8966ZM55.379 75.0161L55.767 76.4305L55.767 76.4305L55.379 75.0161ZM57.0593 74.2109L57.8818 72.9966L57.0361 72.4238L56.2056 73.0183L57.0593 74.2109ZM58.6209 74.9333L59.0089 73.5189H59.0089L58.6209 74.9333ZM68.2544 66.8139L69.6733 67.1853H69.6733L68.2544 66.8139ZM63.8768 54.8509L63.4888 56.2653V56.2653L63.8768 54.8509ZM50.511 56.348C52.1456 55.8996 54.1377 56.6097 55.8589 58.5833L58.0696 56.6554C55.9062 54.1746 52.8333 52.6693 49.735 53.5192L50.511 56.348ZM47.1643 66.5253C46.5055 64.008 46.6383 61.5907 47.3164 59.7375C47.9971 57.8772 49.162 56.7181 50.511 56.348L49.735 53.5192C47.215 54.2105 45.4654 56.2601 44.5617 58.7295C43.6555 61.2061 43.534 64.2396 44.3266 67.268L47.1643 66.5253ZM54.991 73.6016C53.6476 73.9702 52.0872 73.5653 50.6008 72.3125C49.1172 71.0621 47.8233 69.043 47.1643 66.5253L44.3266 67.268C45.119 70.2959 46.7073 72.8672 48.7104 74.5554C50.7107 76.2413 53.2414 77.1233 55.767 76.4305L54.991 73.6016ZM56.2056 73.0183C55.8313 73.2863 55.4259 73.4824 54.991 73.6016L55.767 76.4305C56.551 76.2154 57.2697 75.864 57.913 75.4035L56.2056 73.0183ZM56.2368 75.4253C56.8416 75.8349 57.5097 76.1494 58.2328 76.3478L59.0089 73.5189C58.6073 73.4088 58.2312 73.2332 57.8818 72.9966L56.2368 75.4253ZM58.2328 76.3478C60.7585 77.0406 63.2892 76.1586 65.2895 74.4727C67.2925 72.7845 68.8808 70.2132 69.6733 67.1853L66.8356 66.4426C66.1766 68.9603 64.8827 70.9794 63.3991 72.2298C61.9127 73.4826 60.3523 73.8875 59.0089 73.5189L58.2328 76.3478ZM69.6733 67.1853C70.4659 64.1569 70.3444 61.1234 69.4382 58.6468C68.5345 56.1773 66.7849 54.1278 64.2649 53.4365L63.4888 56.2653C64.8379 56.6354 66.0027 57.7945 66.6835 59.6548C67.3616 61.508 67.4944 63.9253 66.8356 66.4426L69.6733 67.1853ZM64.2649 53.4365C61.128 52.576 58.0191 54.1286 55.8495 56.6662L58.079 58.5724C59.8121 56.5454 61.8346 55.8115 63.4888 56.2653L64.2649 53.4365Z" fill="#BD0F0F" mask="url(#path-4-inside-1_8029_44711)"/>
<mask id="path-6-inside-2_8029_44711" fill="white">
<path d="M134.667 54.6667C134.667 56.5927 134.287 58.4999 133.55 60.2794C132.813 62.0588 131.733 63.6756 130.371 65.0376C129.009 66.3995 127.392 67.4798 125.613 68.2169C123.833 68.954 121.926 69.3333 120 69.3333C118.074 69.3333 116.167 68.954 114.387 68.2169C112.608 67.4798 110.991 66.3995 109.629 65.0376C108.267 63.6756 107.187 62.0588 106.45 60.2794C105.713 58.4999 105.333 56.5927 105.333 54.6667L120 54.6667H134.667Z"/>
</mask>
<path d="M134.667 54.6667C134.667 56.5927 134.287 58.4999 133.55 60.2794C132.813 62.0588 131.733 63.6756 130.371 65.0376C129.009 66.3995 127.392 67.4798 125.613 68.2169C123.833 68.954 121.926 69.3333 120 69.3333C118.074 69.3333 116.167 68.954 114.387 68.2169C112.608 67.4798 110.991 66.3995 109.629 65.0376C108.267 63.6756 107.187 62.0588 106.45 60.2794C105.713 58.4999 105.333 56.5927 105.333 54.6667L120 54.6667H134.667Z" fill="#FBF1D0" stroke="#138643" stroke-width="2.93333" mask="url(#path-6-inside-2_8029_44711)"/>
<path d="M120 66.4C123.137 66.4 126.145 65.1638 128.362 62.9634C130.229 61.1115 131.407 58.7044 131.733 56.1333H108.267C108.593 58.7044 109.771 61.1115 111.638 62.9634C113.856 65.1638 116.864 66.4 120 66.4Z" fill="#EC1313"/>
<path d="M120 61.2666L120.609 62.2821C120.691 62.4174 120.733 62.573 120.733 62.7308C120.733 63.1358 120.405 63.4666 120 63.4666C119.595 63.4666 119.267 63.1358 119.267 62.7308C119.267 62.573 119.31 62.4174 119.391 62.2821L120 61.2666Z" fill="black"/>
<path d="M125.716 57.9667L126.9 57.9468C127.058 57.9441 127.214 57.9848 127.351 58.0637C127.701 58.2662 127.824 58.716 127.621 59.0667C127.419 59.4175 126.968 59.5364 126.617 59.3339C126.481 59.255 126.367 59.14 126.291 59.0021L125.716 57.9667Z" fill="black"/>
<path d="M114.284 57.9666L113.709 59.002C113.633 59.14 113.519 59.2549 113.383 59.3338C113.032 59.5363 112.581 59.4174 112.379 59.0666C112.176 58.7159 112.299 58.2661 112.649 58.0636C112.786 57.9847 112.942 57.9441 113.1 57.9467L114.284 57.9666Z" fill="black"/>
<path d="M123.3 60.3821L124.335 60.9569C124.473 61.0335 124.588 61.1468 124.667 61.2835C124.87 61.6342 124.751 62.0849 124.4 62.2874C124.049 62.4899 123.599 62.3675 123.397 62.0168C123.318 61.8801 123.277 61.7239 123.28 61.5662L123.3 60.3821Z" fill="black"/>
<path d="M116.7 60.3823L116.72 61.5663C116.722 61.7241 116.682 61.8803 116.603 62.017C116.4 62.3677 115.951 62.4901 115.6 62.2875C115.249 62.085 115.13 61.6344 115.333 61.2836C115.412 61.147 115.527 61.0336 115.665 60.9571L116.7 60.3823Z" fill="black"/>
<circle cx="178.6" cy="65.6666" r="9.53333" fill="#F09442" stroke="#EC7913" stroke-width="1.46667"/>
<circle cx="188.867" cy="67.1333" r="8.06667" fill="#F8CAA1" stroke="#EC7913" stroke-width="1.46667"/>
<circle cx="188.867" cy="67.1333" r="2.93333" fill="#FDF2E7" stroke="#F09442" stroke-width="5.86667" stroke-dasharray="4.4 1.47"/>
<circle cx="188.867" cy="67.1332" r="0.733333" fill="#FDF2E7"/>
<path d="M180.907 50.7238C179.44 56.2007 173.81 59.4509 168.333 57.9834C169.801 52.5065 175.431 49.2562 180.907 50.7238Z" fill="#138643"/>
<path d="M175.3 71.3824C174.297 70.8031 173.464 69.97 172.884 68.9667C172.305 67.9633 172 66.8252 172 65.6667" stroke="#F4AF71" stroke-width="1.46667"/>
<path d="M183 49.5334L181.947 50.1654C180.289 51.1603 179.15 52.8323 178.832 54.7398L178.6 56.1334" stroke="#5E4908" stroke-width="1.46667"/>
<path d="M55.1664 114.133L56.2666 113.4M57.3664 113.4H56.2666M56.2666 113.4C55.6555 112.056 54.5064 110.467 54.7998 106.067" stroke="#5E4908" stroke-width="1.46667" stroke-linecap="round"/>
<path d="M55.6308 108.777C59.4348 108.134 63.1783 110.295 64.5235 113.911C60.7194 114.554 56.976 112.393 55.6308 108.777Z" stroke="#138643" stroke-width="1.46667"/>
<path d="M52.5676 115.786L52.5884 115.731L52.6 115.673C52.7669 114.838 53.1996 114.298 53.8009 113.947C54.4279 113.581 55.2774 113.4 56.2667 113.4C57.2559 113.4 58.1054 113.581 58.7324 113.947C59.3338 114.298 59.7664 114.838 59.9333 115.673L59.945 115.731L59.9658 115.786L61.0035 118.554C61.4001 119.611 62.0901 120.496 62.7124 121.268C63.7266 122.526 64.3333 124.124 64.3333 125.867C64.3333 129.838 60.4007 133.2 56.2667 133.2C52.1326 133.2 48.2 129.838 48.2 125.867C48.2 124.124 48.8067 122.526 49.821 121.268C50.4433 120.496 51.1332 119.611 51.5298 118.554L52.5676 115.786Z" fill="#CDE456" stroke="#A4B93B" stroke-width="1.46667"/>
<path d="M54.0667 129.677C53.2279 129.193 52.5723 128.445 52.2016 127.55C51.831 126.655 51.7659 125.663 52.0166 124.728" stroke="#A4B93B" stroke-width="1.46667"/>
<path d="M107.578 111.865C107.957 110.76 108.642 109.785 109.554 109.056L109.83 108.835C110.803 108.056 112.084 107.777 113.293 108.079L115.082 108.526C115.382 108.602 115.693 108.629 116.002 108.607L118.904 108.399C119.978 108.323 121.05 108.579 121.973 109.133L122.266 109.308C123.232 109.888 123.938 110.817 124.238 111.903C124.832 114.058 125.133 116.282 125.133 118.517V118.91C125.133 122.443 124.459 125.944 123.147 129.225L122.883 129.885C122.517 130.8 121.92 131.605 121.15 132.221L120.817 132.487C119.647 133.423 118.193 133.933 116.694 133.933H114.971C113.221 133.933 111.542 133.238 110.304 132L109.627 131.323C109.125 130.821 108.708 130.242 108.39 129.608L107.835 128.497C106.673 126.172 106.067 123.574 106.067 120.972C106.067 117.886 106.578 114.782 107.578 111.865Z" fill="#8E0B0B" stroke="#5E0808" stroke-width="1.46667"/>
<path d="M115.523 105.739C115.341 105.376 114.901 105.23 114.539 105.411C114.176 105.592 114.03 106.032 114.211 106.395L115.523 105.739ZM115.135 106.604L115.791 106.276L115.135 106.604ZM114.211 106.395L114.48 106.932L115.791 106.276L115.523 105.739L114.211 106.395ZM114.867 108.572L114.867 109L116.333 109L116.333 108.572L114.867 108.572ZM114.48 106.932C114.734 107.441 114.867 108.003 114.867 108.572L116.333 108.572C116.333 107.775 116.148 106.989 115.791 106.276L114.48 106.932Z" fill="#5E0808"/>
<mask id="path-26-inside-3_8029_44711" fill="white">
<path fill-rule="evenodd" clip-rule="evenodd" d="M134.666 121.537C134.666 121.513 134.667 121.49 134.667 121.467C134.667 118.227 130.07 115.6 124.4 115.6C118.73 115.6 114.133 118.227 114.133 121.467C114.133 121.61 114.142 121.751 114.16 121.892C114.142 122.023 114.133 122.158 114.133 122.294V122.379C114.133 124.19 114.555 125.977 115.365 127.597L116.534 129.936C116.887 130.641 117.351 131.284 117.908 131.841L118.585 132.519C119.961 133.894 121.826 134.667 123.771 134.667H125.494C127.159 134.667 128.775 134.1 130.075 133.06L130.408 132.794C131.277 132.099 131.951 131.19 132.364 130.157L133.625 127.003C134.313 125.284 134.667 123.448 134.667 121.596C134.667 121.576 134.666 121.556 134.666 121.537Z"/>
</mask>
<path fill-rule="evenodd" clip-rule="evenodd" d="M134.666 121.537C134.666 121.513 134.667 121.49 134.667 121.467C134.667 118.227 130.07 115.6 124.4 115.6C118.73 115.6 114.133 118.227 114.133 121.467C114.133 121.61 114.142 121.751 114.16 121.892C114.142 122.023 114.133 122.158 114.133 122.294V122.379C114.133 124.19 114.555 125.977 115.365 127.597L116.534 129.936C116.887 130.641 117.351 131.284 117.908 131.841L118.585 132.519C119.961 133.894 121.826 134.667 123.771 134.667H125.494C127.159 134.667 128.775 134.1 130.075 133.06L130.408 132.794C131.277 132.099 131.951 131.19 132.364 130.157L133.625 127.003C134.313 125.284 134.667 123.448 134.667 121.596C134.667 121.576 134.666 121.556 134.666 121.537Z" fill="#8E0B0B"/>
<path d="M134.666 121.537L133.2 121.507L133.199 121.54L133.2 121.573L134.666 121.537ZM114.16 121.892L115.614 122.085L115.639 121.897L115.615 121.709L114.16 121.892ZM115.365 127.597L114.053 128.253H114.053L115.365 127.597ZM117.908 131.841L118.945 130.804L118.945 130.804L117.908 131.841ZM118.585 132.519L117.548 133.556L118.585 132.519ZM130.075 133.06L129.159 131.914L129.159 131.914L130.075 133.06ZM130.408 132.794L129.491 131.649L130.408 132.794ZM132.364 130.157L133.726 130.702H133.726L132.364 130.157ZM133.625 127.003L132.264 126.459H132.264L133.625 127.003ZM133.2 121.467C133.2 121.48 133.2 121.493 133.2 121.507L136.132 121.567C136.133 121.533 136.133 121.5 136.133 121.467H133.2ZM124.4 117.067C127.027 117.067 129.333 117.678 130.932 118.592C132.572 119.529 133.2 120.6 133.2 121.467H136.133C136.133 119.093 134.463 117.231 132.387 116.045C130.27 114.835 127.443 114.133 124.4 114.133V117.067ZM115.6 121.467C115.6 120.6 116.228 119.529 117.868 118.592C119.467 117.678 121.773 117.067 124.4 117.067V114.133C121.357 114.133 118.53 114.835 116.413 116.045C114.337 117.231 112.667 119.093 112.667 121.467H115.6ZM115.615 121.709C115.605 121.629 115.6 121.548 115.6 121.467H112.667C112.667 121.671 112.679 121.874 112.705 122.074L115.615 121.709ZM112.706 121.699C112.68 121.894 112.667 122.093 112.667 122.294H115.6C115.6 122.223 115.605 122.153 115.614 122.085L112.706 121.699ZM112.667 122.294V122.379H115.6V122.294H112.667ZM112.667 122.379C112.667 124.418 113.141 126.429 114.053 128.253L116.677 126.941C115.969 125.525 115.6 123.962 115.6 122.379H112.667ZM114.053 128.253L115.223 130.592L117.846 129.28L116.677 126.941L114.053 128.253ZM115.223 130.592C115.646 131.438 116.202 132.21 116.871 132.879L118.945 130.804C118.499 130.359 118.128 129.844 117.846 129.28L115.223 130.592ZM116.871 132.879L117.548 133.556L119.623 131.482L118.945 130.804L116.871 132.879ZM117.548 133.556C119.199 135.206 121.437 136.133 123.771 136.133V133.2C122.215 133.2 120.723 132.582 119.623 131.482L117.548 133.556ZM123.771 136.133H125.494V133.2H123.771V136.133ZM125.494 136.133C127.493 136.133 129.431 135.453 130.992 134.205L129.159 131.914C128.119 132.747 126.826 133.2 125.494 133.2V136.133ZM130.992 134.205L131.324 133.939L129.491 131.649L129.159 131.914L130.992 134.205ZM131.324 133.939C132.391 133.086 133.218 131.97 133.726 130.702L131.002 129.612C130.683 130.41 130.162 131.112 129.491 131.649L131.324 133.939ZM133.726 130.702L134.987 127.548L132.264 126.459L131.002 129.612L133.726 130.702ZM134.987 127.548C135.744 125.655 136.133 123.635 136.133 121.596H133.2C133.2 123.262 132.882 124.912 132.264 126.459L134.987 127.548ZM136.133 121.596C136.133 121.564 136.133 121.532 136.132 121.5L133.2 121.573C133.2 121.581 133.2 121.589 133.2 121.596H136.133Z" fill="#5E0808" mask="url(#path-26-inside-3_8029_44711)"/>
<path d="M133.933 121.467C133.933 122.71 133.045 123.979 131.296 124.978C129.568 125.966 127.131 126.6 124.4 126.6C121.669 126.6 119.232 125.966 117.504 124.978C115.755 123.979 114.867 122.71 114.867 121.467C114.867 120.223 115.755 118.955 117.504 117.955C119.232 116.968 121.669 116.333 124.4 116.333C127.131 116.333 129.568 116.968 131.296 117.955C133.045 118.955 133.933 120.223 133.933 121.467Z" fill="#D5C2A6" stroke="#5E0808" stroke-width="1.46667"/>
<ellipse cx="124.4" cy="121.467" rx="4.4" ry="2.2" fill="#62260C"/>
<path d="M191.354 106.8C188.924 111.009 183.542 112.451 179.333 110.021C181.763 105.812 187.145 104.37 191.354 106.8Z" fill="#138643"/>
<path d="M178.385 105.548C178.099 105.262 177.634 105.262 177.348 105.548C177.062 105.834 177.062 106.299 177.348 106.585L178.385 105.548ZM179.333 110.089L179.333 114.133L180.8 114.133L180.8 110.089L179.333 110.089ZM179.296 106.459L178.385 105.548L177.348 106.585L178.259 107.496L179.296 106.459ZM180.8 110.089C180.8 108.728 180.259 107.422 179.296 106.459L178.259 107.496C178.947 108.184 179.333 109.117 179.333 110.089L180.8 110.089Z" fill="#9A532E"/>
<path d="M191.067 123.667C191.067 129.657 186.204 133.933 180.067 133.933C173.929 133.933 169.067 129.657 169.067 123.667C169.067 117.677 173.929 113.4 180.067 113.4C186.204 113.4 191.067 117.677 191.067 123.667Z" fill="#544358" stroke="#180F10" stroke-width="1.46667"/>
<path d="M196.933 125.867C196.933 130.556 193.067 133.933 188.133 133.933C183.199 133.933 179.333 130.556 179.333 125.867C179.333 121.178 183.199 117.8 188.133 117.8C193.067 117.8 196.933 121.178 196.933 125.867Z" fill="#E6D1C9" stroke="#180F10" stroke-width="1.46667"/>
<path d="M190.7 121.421L188.133 125.867M185.567 130.312L188.133 125.867M188.133 125.867L183.688 123.3M188.133 125.867L192.579 128.433M188.133 125.867L193.142 124.525M188.133 125.867L183.124 127.209M188.133 125.867L189.475 130.875M188.133 125.867L186.791 120.858" stroke="#B89B8B" stroke-width="1.46667" stroke-linecap="round"/>
<path d="M49.1296 172.967L53.3168 169.821C54.2929 169.087 55.0674 168.118 55.5678 167.005L56.48 164.974L55.8111 164.674L56.48 164.974C56.7282 164.422 57.2774 164.067 57.883 164.067C58.8233 164.067 59.5435 164.903 59.4042 165.833L59.2405 166.926C59.0903 167.928 59.5019 168.933 60.3126 169.542L64.8705 172.967C67.7642 175.142 69.4667 178.551 69.4667 182.171C69.4667 187.562 65.0958 191.933 59.704 191.933H54.2961C48.9043 191.933 44.5334 187.562 44.5334 182.171C44.5334 178.551 46.2358 175.142 49.1296 172.967Z" fill="url(#paint0_linear_8029_44711)" stroke="#150309" stroke-width="1.46667"/>
<path d="M54.0667 169.2L51.774 172.326C48.1999 177.2 47.4911 183.608 49.9135 189.145V189.145C50.6545 190.839 52.3279 191.933 54.1767 191.933H54.8" stroke="#150309" stroke-width="1.46667"/>
<path d="M59.9333 169.2L62.226 172.326C65.8001 177.2 66.5089 183.608 64.0865 189.145V189.145C63.3455 190.839 61.6721 191.933 59.8233 191.933H59.2" stroke="#150309" stroke-width="1.46667"/>
<path d="M56.2667 167.733L55.759 168.597C51.5332 175.78 51.4473 184.669 55.5333 191.933V191.933" stroke="#150309" stroke-width="1.46667"/>
<path d="M57.7333 167.733L58.241 168.597C62.4668 175.78 62.5527 184.669 58.4667 191.933V191.933" stroke="#150309" stroke-width="1.46667"/>
<path d="M59.1552 167.496H55.3469L56.4801 164.974C56.7283 164.422 57.2775 164.067 57.8831 164.067C58.8234 164.067 59.5436 164.903 59.4043 165.833L59.1552 167.496Z" fill="#AF7085" stroke="#150309" stroke-width="1.46667"/>
<path d="M113.073 163.456C112.737 163.232 112.281 163.323 112.057 163.66C111.832 163.997 111.923 164.452 112.26 164.677L113.073 163.456ZM114.867 168.467L114.539 169.123C114.721 169.214 114.933 169.225 115.124 169.153L114.867 168.467ZM112.26 164.677L112.501 164.837L113.314 163.617L113.073 163.456L112.26 164.677ZM114.133 167.888L114.133 168.467L115.6 168.467L115.6 167.888L114.133 167.888ZM115.195 167.811L112.261 166.344L111.605 167.656L114.539 169.123L115.195 167.811ZM115.124 169.153L118.058 168.053L117.543 166.68L114.609 167.78L115.124 169.153ZM112.501 164.837C113.521 165.517 114.133 166.662 114.133 167.888L115.6 167.888C115.6 166.172 114.742 164.569 113.314 163.617L112.501 164.837Z" fill="#638940"/>
<path d="M122.2 180.2C122.2 183.745 121.324 186.713 119.959 188.772C118.596 190.829 116.784 191.933 114.867 191.933C112.949 191.933 111.138 190.829 109.774 188.772C108.409 186.713 107.533 183.745 107.533 180.2C107.533 176.655 108.409 173.687 109.774 171.629C111.138 169.571 112.949 168.467 114.867 168.467C116.784 168.467 118.596 169.571 119.959 171.629C121.324 173.687 122.2 176.655 122.2 180.2Z" fill="#7CB128" stroke="#638940" stroke-width="1.46667"/>
<circle cx="125.867" cy="183.867" r="8.06667" fill="#CCD16F" stroke="#638940" stroke-width="1.46667"/>
<path fill-rule="evenodd" clip-rule="evenodd" d="M126.747 185.627C127.024 185.904 127.154 186.295 127.099 186.683L126.886 188.173C126.819 188.638 127.245 189.022 127.701 188.908C129.28 188.513 130.513 187.28 130.908 185.701C131.022 185.245 130.638 184.819 130.173 184.886L128.683 185.099C128.295 185.154 127.904 185.024 127.627 184.747L127.54 184.66C127.102 184.222 127.102 183.512 127.54 183.074C127.834 182.78 128.266 182.672 128.664 182.795L129.656 183.102C130.152 183.255 130.642 182.849 130.585 182.333C130.399 180.657 129.076 179.334 127.4 179.148C126.884 179.091 126.478 179.582 126.631 180.078L126.938 181.07C127.061 181.467 126.954 181.9 126.66 182.194C126.222 182.632 125.512 182.632 125.074 182.194L124.987 182.107C124.71 181.83 124.579 181.438 124.635 181.051L124.816 179.777C124.898 179.209 124.377 178.739 123.82 178.878C122.371 179.24 121.24 180.371 120.878 181.82C120.739 182.377 121.208 182.898 121.777 182.817L123.051 182.635C123.438 182.579 123.83 182.71 124.107 182.987C124.593 183.473 124.593 184.261 124.107 184.747C123.83 185.024 123.438 185.154 123.051 185.099L121.777 184.917C121.208 184.836 120.739 185.356 120.878 185.913C121.24 187.362 122.371 188.493 123.82 188.855C124.377 188.994 124.898 188.525 124.816 187.956L124.635 186.683C124.579 186.295 124.71 185.904 124.987 185.627C125.473 185.141 126.261 185.141 126.747 185.627Z" fill="#959029"/>
<path fill-rule="evenodd" clip-rule="evenodd" d="M175.667 171.767L177.465 169.369C177.732 169.013 177.95 168.624 178.115 168.212C178.433 167.417 178.544 166.554 178.438 165.705L178.233 164.067L180.067 163.333L180.75 165.155C181.013 165.857 180.942 166.641 180.556 167.284C180.241 167.809 180.133 168.432 180.253 169.032L180.8 171.767L178.6 170.3L175.667 171.767Z" fill="#896F5D"/>
<path d="M179.695 170.938L181.33 172.164C183.071 173.47 184.64 174.991 186 176.691L186.206 176.948C189.525 181.097 188.825 187.157 184.647 190.44C183.416 191.408 181.895 191.933 180.329 191.933H176.871C175.305 191.933 173.784 191.408 172.553 190.44C168.375 187.157 167.675 181.097 170.994 176.948L171.2 176.691C172.56 174.991 174.129 173.47 175.87 172.164L177.505 170.938C178.154 170.451 179.046 170.451 179.695 170.938Z" fill="#F4AF71" stroke="#EC7913" stroke-width="1.46667"/>
<path fill-rule="evenodd" clip-rule="evenodd" d="M181.222 180.004L181.131 179.006C181.021 177.789 180.603 176.613 179.926 175.596L178.37 173.522L180.185 171.707L180.768 173.456C181.054 174.313 181.727 174.986 182.584 175.272C182.713 175.315 182.839 175.367 182.96 175.428L184.852 176.374L182.259 176.892L181.222 180.004Z" fill="#896F5D"/>
<path d="M182.867 176.373L185.009 176.083C186.381 175.898 187.77 175.886 189.144 176.05L189.553 176.098C193.981 176.624 197.154 180.626 196.656 185.057C196.551 185.999 196.128 186.876 195.458 187.546L192.913 190.092C192.243 190.762 191.365 191.184 190.424 191.29C185.993 191.788 181.991 188.615 181.465 184.187L181.416 183.778C181.253 182.403 181.264 181.014 181.45 179.642L181.739 177.501C181.819 176.914 182.28 176.452 182.867 176.373Z" fill="#F4AF71" stroke="#EC7913" stroke-width="1.46667"/>
<path d="M193.181 183.342L191.793 181.028C191.119 179.906 189.644 179.574 188.555 180.3C187.971 180.69 187.871 181.508 188.345 182.027L191.533 185.519C192.121 186.163 193.189 185.905 193.418 185.064C193.577 184.481 193.491 183.859 193.181 183.342Z" fill="#5E3108"/>
<path d="M188.708 187.814L186.843 186.695C185.476 185.875 185.073 184.08 185.957 182.754C186.194 182.398 186.692 182.338 187.007 182.626L190.885 186.166C191.53 186.755 191.272 187.822 190.43 188.052C189.848 188.211 189.226 188.125 188.708 187.814Z" fill="#5E3108"/>
<defs>
<linearGradient id="paint0_linear_8029_44711" x1="57" y1="163.333" x2="57" y2="192.667" gradientUnits="userSpaceOnUse">
<stop stop-color="#CAA771"/>
<stop offset="0.317708" stop-color="#78425A"/>
<stop offset="0.84375" stop-color="#533743"/>
</linearGradient>
</defs>
</svg>
