<svg width="16" height="17" viewBox="0 0 16 17" fill="none" xmlns="http://www.w3.org/2000/svg">
<path fill-rule="evenodd" clip-rule="evenodd" d="M8.54612 16.5H0.883077C0.395224 16.5 0 16.1045 0 15.6169V1.38307C0 0.895283 0.395286 0.5 0.883077 0.5H15.117C15.6047 0.5 16 0.895283 16 1.38307V15.6169C16 16.1046 15.6046 16.5 15.117 16.5H11.0398V10.3039H13.1195L13.4309 7.88919H11.0398V6.34755C11.0398 5.64843 11.2339 5.172 12.2364 5.172L13.5151 5.17144V3.0117C13.294 2.98227 12.5349 2.91652 11.6519 2.91652C9.80828 2.91652 8.54612 4.04184 8.54612 6.1084V7.88919H6.46104V10.3039H8.54612V16.5Z" fill="#4267B2"/>
</svg>
