<svg width="17" height="17" viewBox="0 0 17 17" fill="none" xmlns="http://www.w3.org/2000/svg">
<path d="M16.3442 8.68417C16.3442 8.14035 16.3001 7.59359 16.206 7.05859H8.66016V10.1393H12.9813C12.802 11.1328 12.2259 12.0118 11.3822 12.5703V14.5692H13.9602C15.4741 13.1758 16.3442 11.1181 16.3442 8.68417Z" fill="#4285F4"/>
<path d="M8.66024 16.5002C10.8179 16.5002 12.6375 15.7918 13.9632 14.5689L11.3852 12.57C10.668 13.058 9.742 13.3343 8.66318 13.3343C6.57609 13.3343 4.80648 11.9263 4.17153 10.0332H1.51123V12.0938C2.86931 14.7953 5.63544 16.5002 8.66024 16.5002Z" fill="#34A853"/>
<path d="M4.16852 10.0338C3.83341 9.04024 3.83341 7.96436 4.16852 6.97079V4.91016H1.51116C0.376489 7.17068 0.376489 9.83392 1.51116 12.0944L4.16852 10.0338Z" fill="#FBBC04"/>
<path d="M8.66024 3.66645C9.80079 3.64881 10.9031 4.07798 11.7291 4.86579L14.0132 2.58175C12.5669 1.22367 10.6474 0.477023 8.66024 0.500539C5.63543 0.500539 2.86931 2.20548 1.51123 4.90988L4.16859 6.97051C4.8006 5.0745 6.57315 3.66645 8.66024 3.66645Z" fill="#EA4335"/>
</svg>
