<svg width="98" height="67" viewBox="0 0 98 67" fill="none" xmlns="http://www.w3.org/2000/svg">
<path d="M4 60V4H94V60H4Z" fill="#FCFCFD" stroke="#3F5AD3" stroke-width="2"/>
<path d="M94 4H4L47.9166 32.3018C48.5763 32.727 49.4237 32.727 50.0834 32.3018L94 4Z" fill="#FAD338" stroke="#3F5AD3" stroke-width="2" stroke-linejoin="round"/>
<rect x="1" y="1" width="6" height="6" rx="3" fill="white" stroke="#3F5AD3" stroke-width="2"/>
<rect x="91" y="1" width="6" height="6" rx="3" fill="white" stroke="#3F5AD3" stroke-width="2"/>
<rect x="1" y="57" width="6" height="6" rx="3" fill="white" stroke="#3F5AD3" stroke-width="2"/>
<rect x="91" y="57" width="6" height="6" rx="3" fill="white" stroke="#3F5AD3" stroke-width="2"/>
<g filter="url(#filter0_d_5838_1805)">
<path d="M78.1454 61.3478L68 37L92.3478 46.9424L81.7478 50.4424L78.1454 61.3478Z" fill="black"/>
<path d="M78.1454 61.3478L68 37L92.3478 46.9424L81.7478 50.4424L78.1454 61.3478Z" stroke="#F7F7F8" stroke-linejoin="round"/>
</g>
<rect x="47.5" y="24.5" width="3" height="17" rx="1.5" stroke="black"/>
<rect x="46" y="28" width="6" height="6" rx="3" transform="rotate(-90 46 28)" fill="#E5412E"/>
<rect x="46" y="44" width="6" height="6" rx="3" transform="rotate(-90 46 44)" fill="#E5412E"/>
<defs>
<filter id="filter0_d_5838_1805" x="64.4565" y="34.9783" width="31.4346" height="31.4346" filterUnits="userSpaceOnUse" color-interpolation-filters="sRGB">
<feFlood flood-opacity="0" result="BackgroundImageFix"/>
<feColorMatrix in="SourceAlpha" type="matrix" values="0 0 0 0 0 0 0 0 0 0 0 0 0 0 0 0 0 0 127 0" result="hardAlpha"/>
<feOffset dy="1.52174"/>
<feGaussianBlur stdDeviation="1.52174"/>
<feComposite in2="hardAlpha" operator="out"/>
<feColorMatrix type="matrix" values="0 0 0 0 0 0 0 0 0 0 0 0 0 0 0 0 0 0 0.25 0"/>
<feBlend mode="normal" in2="BackgroundImageFix" result="effect1_dropShadow_5838_1805"/>
<feBlend mode="normal" in="SourceGraphic" in2="effect1_dropShadow_5838_1805" result="shape"/>
</filter>
</defs>
</svg>
