<svg width="100" height="100" viewBox="0 0 100 100" fill="none" xmlns="http://www.w3.org/2000/svg">
<path d="M38 60L50 38L62 60L59.1171 61.9219C57.1697 63.2202 56 65.4058 56 67.7463V71H44V67.7463C44 65.4058 42.8303 63.2202 40.8829 61.9219L38 60Z" fill="#FAD338"/>
<path d="M56 71H44M56 71V67.7463C56 65.4058 57.1697 63.2202 59.1171 61.9219L62 60L50 38M56 71H59V80H41V71H44M44 71V67.7463C44 65.4058 42.8303 63.2202 40.8829 61.9219L38 60L50 38M50 38V53" stroke="#3F5AD3" stroke-width="2" stroke-linecap="round" stroke-linejoin="round"/>
<path d="M45.5714 20H54.4286V24.0088V28.75H45.5714V24.0088V20Z" fill="#FAD338"/>
<path d="M19 46.25H23.6828H27.8571V55H19V46.25Z" fill="#FAD338"/>
<path d="M72.1429 46.25H76.3172H81V55H72.1429V46.25Z" fill="#FAD338"/>
<path d="M76.3172 46.25H72.1429V55H81V46.25H76.3172ZM76.3172 46.25C74.7228 34.9139 65.8003 25.8935 54.4286 24.0088M23.6828 46.25H19V55H27.8571V46.25H23.6828ZM23.6828 46.25C25.2772 34.9139 34.1997 25.8935 45.5714 24.0088M45.5714 24.0088V28.75H54.4286V24.0088M45.5714 24.0088V20H54.4286V24.0088" stroke="#3F5AD3" stroke-width="2" stroke-linejoin="round"/>
</svg>
