<svg width="24" height="24" viewBox="0 0 24 24" fill="none" xmlns="http://www.w3.org/2000/svg">
<path d="M22 7.39783V6.04297C22 4.9384 21.1046 4.04297 20 4.04297H4C2.89543 4.04297 2 4.9384 2 6.04297V7.41006L3.83237 8.05678C3.83213 8.0567 3.83261 8.05687 3.83237 8.05678L12.0003 10.9396L22 7.39783Z" fill="black"/>
<path d="M12.6665 12.8254L20.8331 9.94302C20.8779 9.92721 20.9209 9.90853 20.9619 9.88726L22 9.51957V18.043C22 19.1475 21.1046 20.043 20 20.043H4C2.89543 20.043 2 19.1475 2 18.043V9.53098L11.3346 12.8256C11.3885 12.8446 11.4429 12.8612 11.4978 12.8754C11.8822 12.9752 12.2896 12.9584 12.6665 12.8254Z" fill="black"/>
</svg>
