<svg width="40" height="40" viewBox="0 0 40 40" fill="none" xmlns="http://www.w3.org/2000/svg">
<path d="M20 14C20.7879 14 21.5681 14.1552 22.2961 14.4567C23.0241 14.7583 23.6855 15.2002 24.2426 15.7574C24.7998 16.3145 25.2417 16.9759 25.5433 17.7039C25.8448 18.4319 26 19.2121 26 20C26 20.7879 25.8448 21.5681 25.5433 22.2961C25.2417 23.0241 24.7998 23.6855 24.2426 24.2426C23.6855 24.7998 23.0241 25.2417 22.2961 25.5433C21.5681 25.8448 20.7879 26 20 26C19.2121 26 18.4319 25.8448 17.7039 25.5433C16.9759 25.2417 16.3145 24.7998 15.7574 24.2426C15.2002 23.6855 14.7582 23.0241 14.4567 22.2961C14.1552 21.5681 14 20.7879 14 20C14 19.2121 14.1552 18.4318 14.4567 17.7039C14.7583 16.9759 15.2002 16.3145 15.7574 15.7574C16.3145 15.2002 16.9759 14.7582 17.7039 14.4567C18.4319 14.1552 19.2121 14 20 14L20 14Z" stroke="#2F3037" stroke-width="1.5"/>
<path d="M20 16L20 20" stroke="#2F3037" stroke-width="1.5"/>
</svg>
