<svg width="76" height="74" viewBox="0 0 76 74" fill="none" xmlns="http://www.w3.org/2000/svg">
<rect y="69" width="76" height="5" rx="2.5" fill="#E3E4E7"/>
<path d="M3.19727 31.6358C3.19727 30.6312 3.63436 29.6763 4.39473 29.0197L35.7417 1.95164C37.0393 0.831157 38.9621 0.831159 40.2597 1.95164L71.6067 29.0197C72.3671 29.6763 72.8042 30.6312 72.8042 31.6358V70.1239H3.19727V31.6358Z" fill="white" stroke="#5E5F6E" stroke-width="1.5"/>
<path d="M13 15.1392C13 15.0623 13.0623 15 13.1392 15H62.8608C62.9377 15 63 15.0623 63 15.1392V70.8608C63 70.9377 62.9377 71 62.8608 71H13.1392C13.0623 71 13 70.9377 13 70.8608V15.1392Z" fill="white" stroke="#5E5F6E" stroke-width="1.5"/>
<path d="M31.0104 25.0104L25 19" stroke="#7238FA" stroke-width="1.5"/>
<path d="M44.9896 38.9896L51 45" stroke="#7238FA" stroke-width="1.5"/>
<path d="M34 23L34 18" stroke="#7238FA" stroke-width="1.5"/>
<path d="M42 41L42 46" stroke="#7238FA" stroke-width="1.5"/>
<path d="M24 28L29 28" stroke="#7238FA" stroke-width="1.5"/>
<path d="M52 36L47 36" stroke="#7238FA" stroke-width="1.5"/>
<path d="M35.7499 34.251L40.25 29.751" stroke="#7238FA" stroke-width="1.5" stroke-linejoin="round"/>
<path d="M42.5 34.2502L46.0157 30.7345C46.5594 30.1908 46.5594 29.3094 46.0157 28.7657L41.2344 23.9844C40.6907 23.4407 39.8093 23.4407 39.2656 23.9844L35.7499 27.5001" stroke="#7238FA" stroke-width="1.5"/>
<path d="M33.5 29.751L29.9843 33.2667C29.4407 33.8103 29.4407 34.6918 29.9843 35.2354L34.7656 40.0168C35.3093 40.5604 36.1908 40.5604 36.7344 40.0168L40.2501 36.5011" stroke="#7238FA" stroke-width="1.5"/>
<path d="M38.0007 60.0925L3.19727 31.5564V70.124H72.8042V31.5564L38.0007 60.0925Z" fill="white" stroke="#5E5F6E" stroke-width="1.5" stroke-linejoin="bevel"/>
<path d="M3.19727 71.0005L36.4352 48.3986C37.3801 47.7561 38.6216 47.7561 39.5665 48.3986L72.8042 71.0005H3.19727Z" fill="white" stroke="#5E5F6E" stroke-width="1.5" stroke-linecap="round" stroke-linejoin="round"/>
</svg>
