<svg width="60" height="60" viewBox="0 0 60 60" fill="none" xmlns="http://www.w3.org/2000/svg">
<path d="M25.6591 28.0909C25.6591 25.6935 27.6026 23.75 30 23.75C32.3974 23.75 34.3409 25.6935 34.3409 28.0909V28.9451C34.3409 30.5611 34.982 32.1085 36.1189 33.25H23.8811C25.018 32.1085 25.6591 30.5611 25.6591 28.9451V28.0909ZM23.3931 33.7151L23.3935 33.7148C23.3934 33.7149 23.3932 33.715 23.3931 33.7151L23.2081 33.5194L23.3931 33.7151Z" stroke="#2F3037" stroke-width="1.5"/>
<path d="M32.25 34C32.25 34.5967 32.0129 35.169 31.591 35.591C31.169 36.0129 30.5967 36.25 30 36.25C29.4033 36.25 28.831 36.0129 28.409 35.591C27.9871 35.169 27.75 34.5967 27.75 34" stroke="#2F3037" stroke-width="1.5"/>
</svg>
