<svg width="50" height="50" viewBox="0 0 50 50" fill="none" xmlns="http://www.w3.org/2000/svg">
<path fill-rule="evenodd" clip-rule="evenodd" d="M25 46.1538C29.2483 46.1538 32.6923 42.7099 32.6923 38.4615L32.6923 36.5385L17.3077 36.5385L17.3077 38.4615C17.3077 42.7099 20.7517 46.1538 25 46.1538ZM13.4615 36.5385L13.4615 38.4615C13.4615 44.8341 18.6275 50 25 50C31.3725 50 36.5385 44.8341 36.5385 38.4615L36.5385 36.5385L38.4615 36.5385C44.8341 36.5385 50 31.3725 50 25C50 18.6275 44.8341 13.4615 38.4615 13.4615L36.5385 13.4615L36.5385 11.5385C36.5385 5.16595 31.3725 6.00093e-06 25 5.44383e-06C18.6275 4.88672e-06 13.4615 5.16595 13.4615 11.5385L13.4615 13.4615L11.5385 13.4615C5.16595 13.4615 1.03721e-05 18.6275 9.81496e-06 25C9.25786e-06 31.3725 5.16595 36.5385 11.5385 36.5385L13.4615 36.5385ZM17.3077 32.6923L32.6923 32.6923L32.6923 17.3077L17.3077 17.3077L17.3077 32.6923ZM13.4615 17.3077L13.4615 32.6923L11.5385 32.6923C7.29012 32.6923 3.84616 29.2483 3.84616 25C3.84616 20.7517 7.29013 17.3077 11.5385 17.3077L13.4615 17.3077ZM17.3077 13.4615L32.6923 13.4615L32.6923 11.5385C32.6923 7.29012 29.2484 3.84616 25 3.84616C20.7517 3.84616 17.3077 7.29012 17.3077 11.5385L17.3077 13.4615ZM36.5385 17.3077L36.5385 32.6923L38.4615 32.6923C42.7099 32.6923 46.1538 29.2483 46.1538 25C46.1538 20.7517 42.7099 17.3077 38.4615 17.3077L36.5385 17.3077Z" fill="white"/>
</svg>
