<svg width="138" height="30" viewBox="0 0 138 30" fill="none" xmlns="http://www.w3.org/2000/svg">
<g clip-path="url(#clip0_7273_127)">
<path d="M41.318 21.4858C40.058 21.4858 38.954 21.2098 38.006 20.6578C37.07 20.1058 36.332 19.3438 35.792 18.3718C35.264 17.3878 35 16.2538 35 14.9698C35 13.6858 35.264 12.5578 35.792 11.5858C36.332 10.6018 37.07 9.83382 38.006 9.28182C38.954 8.72982 40.058 8.45381 41.318 8.45381C42.566 8.45381 43.664 8.72982 44.612 9.28182C45.56 9.83382 46.298 10.6018 46.826 11.5858C47.354 12.5578 47.618 13.6858 47.618 14.9698C47.618 16.2538 47.354 17.3878 46.826 18.3718C46.298 19.3438 45.56 20.1058 44.612 20.6578C43.664 21.2098 42.566 21.4858 41.318 21.4858ZM41.318 19.4158C42.518 19.4158 43.472 19.0198 44.18 18.2278C44.9 17.4358 45.26 16.3498 45.26 14.9698C45.26 13.5898 44.9 12.5038 44.18 11.7118C43.472 10.9198 42.518 10.5238 41.318 10.5238C40.118 10.5238 39.158 10.9198 38.438 11.7118C37.718 12.5038 37.358 13.5898 37.358 14.9698C37.358 16.3498 37.718 17.4358 38.438 18.2278C39.158 19.0198 40.118 19.4158 41.318 19.4158Z" fill="black"/>
<path d="M49.5983 25.2298V12.3418H51.6503L51.9023 13.6198C52.1903 13.2238 52.5683 12.8758 53.0363 12.5758C53.5163 12.2758 54.1343 12.1258 54.8903 12.1258C55.7303 12.1258 56.4803 12.3298 57.1403 12.7378C57.8003 13.1458 58.3223 13.7038 58.7063 14.4118C59.0903 15.1198 59.2823 15.9238 59.2823 16.8238C59.2823 17.7238 59.0903 18.5278 58.7063 19.2358C58.3223 19.9318 57.8003 20.4838 57.1403 20.8918C56.4803 21.2878 55.7303 21.4858 54.8903 21.4858C54.2183 21.4858 53.6303 21.3598 53.1263 21.1078C52.6223 20.8558 52.2143 20.5018 51.9023 20.0458V25.2298H49.5983ZM54.4043 19.4698C55.1363 19.4698 55.7423 19.2238 56.2223 18.7318C56.7023 18.2398 56.9423 17.6038 56.9423 16.8238C56.9423 16.0438 56.7023 15.4018 56.2223 14.8978C55.7423 14.3938 55.1363 14.1418 54.4043 14.1418C53.6603 14.1418 53.0483 14.3938 52.5683 14.8978C52.1003 15.3898 51.8663 16.0258 51.8663 16.8058C51.8663 17.5858 52.1003 18.2278 52.5683 18.7318C53.0483 19.2238 53.6603 19.4698 54.4043 19.4698Z" fill="black"/>
<path d="M65.6785 21.4858C64.7785 21.4858 63.9805 21.2938 63.2845 20.9098C62.5885 20.5258 62.0425 19.9858 61.6465 19.2898C61.2505 18.5938 61.0525 17.7898 61.0525 16.8778C61.0525 15.9538 61.2445 15.1318 61.6285 14.4118C62.0245 13.6918 62.5645 13.1338 63.2485 12.7378C63.9445 12.3298 64.7605 12.1258 65.6965 12.1258C66.5725 12.1258 67.3465 12.3178 68.0185 12.7018C68.6905 13.0858 69.2125 13.6138 69.5845 14.2858C69.9685 14.9458 70.1605 15.6838 70.1605 16.4998C70.1605 16.6318 70.1545 16.7698 70.1425 16.9138C70.1425 17.0578 70.1365 17.2078 70.1245 17.3638H63.3385C63.3865 18.0598 63.6265 18.6058 64.0585 19.0018C64.5025 19.3978 65.0365 19.5958 65.6605 19.5958C66.1285 19.5958 66.5185 19.4938 66.8305 19.2898C67.1545 19.0738 67.3945 18.7978 67.5505 18.4618H69.8905C69.7225 19.0258 69.4405 19.5418 69.0445 20.0098C68.6605 20.4658 68.1805 20.8258 67.6045 21.0898C67.0405 21.3538 66.3985 21.4858 65.6785 21.4858ZM65.6965 13.9978C65.1325 13.9978 64.6345 14.1598 64.2025 14.4838C63.7705 14.7958 63.4945 15.2758 63.3745 15.9238H67.8205C67.7845 15.3358 67.5685 14.8678 67.1725 14.5198C66.7765 14.1718 66.2845 13.9978 65.6965 13.9978Z" fill="black"/>
<path d="M72.0983 21.2698V12.3418H74.1323L74.3123 13.8538C74.5883 13.3258 74.9843 12.9058 75.5003 12.5938C76.0283 12.2818 76.6463 12.1258 77.3543 12.1258C78.4583 12.1258 79.3163 12.4738 79.9283 13.1698C80.5403 13.8658 80.8463 14.8858 80.8463 16.2298V21.2698H78.5423V16.4458C78.5423 15.6778 78.3863 15.0898 78.0743 14.6818C77.7623 14.2738 77.2763 14.0698 76.6163 14.0698C75.9683 14.0698 75.4343 14.2978 75.0143 14.7538C74.6063 15.2098 74.4023 15.8458 74.4023 16.6618V21.2698H72.0983Z" fill="black"/>
<path d="M87.4055 21.4858C86.4815 21.4858 85.6655 21.3298 84.9575 21.0178C84.2495 20.6938 83.6915 20.2378 83.2835 19.6498C82.8755 19.0498 82.6655 18.3238 82.6535 17.4718H85.0835C85.1074 18.0598 85.3175 18.5578 85.7135 18.9658C86.1215 19.3618 86.6795 19.5598 87.3875 19.5598C87.9995 19.5598 88.4855 19.4158 88.8455 19.1278C89.2055 18.8278 89.3855 18.4318 89.3855 17.9398C89.3855 17.4238 89.2235 17.0218 88.8995 16.7338C88.5875 16.4458 88.1675 16.2118 87.6395 16.0318C87.1115 15.8518 86.5475 15.6598 85.9475 15.4558C84.9755 15.1198 84.2314 14.6878 83.7155 14.1598C83.2114 13.6318 82.9595 12.9298 82.9595 12.0538C82.9475 11.3098 83.1215 10.6738 83.4815 10.1458C83.8535 9.60581 84.3574 9.19181 84.9935 8.90381C85.6295 8.60381 86.3615 8.45381 87.1895 8.45381C88.0295 8.45381 88.7675 8.60381 89.4035 8.90381C90.0515 9.20381 90.5555 9.62381 90.9155 10.1638C91.2875 10.7038 91.4855 11.3458 91.5095 12.0898H89.0435C89.0315 11.6458 88.8575 11.2558 88.5215 10.9198C88.1975 10.5718 87.7415 10.3978 87.1535 10.3978C86.6495 10.3858 86.2235 10.5118 85.8755 10.7758C85.5395 11.0278 85.3715 11.3998 85.3715 11.8918C85.3715 12.3118 85.5035 12.6478 85.7675 12.8998C86.0315 13.1398 86.3915 13.3438 86.8475 13.5118C87.3035 13.6798 87.8255 13.8598 88.4135 14.0518C89.0375 14.2678 89.6075 14.5198 90.1235 14.8078C90.6395 15.0958 91.0535 15.4798 91.3655 15.9598C91.6775 16.4278 91.8335 17.0338 91.8335 17.7778C91.8335 18.4378 91.6655 19.0498 91.3295 19.6138C90.9935 20.1778 90.4955 20.6338 89.8355 20.9818C89.1755 21.3178 88.3655 21.4858 87.4055 21.4858Z" fill="black"/>
<path d="M97.7677 21.2698C96.8317 21.2698 96.0817 21.0418 95.5177 20.5858C94.9537 20.1298 94.6717 19.3198 94.6717 18.1558V14.2678H93.1417V12.3418H94.6717L94.9417 9.94781H96.9757V12.3418H99.3877V14.2678H96.9757V18.1738C96.9757 18.6058 97.0657 18.9058 97.2457 19.0738C97.4377 19.2298 97.7617 19.3078 98.2177 19.3078H99.3337V21.2698H97.7677Z" fill="black"/>
<path d="M101.366 21.2698V12.3418H103.418L103.634 14.0158C103.958 13.4398 104.396 12.9838 104.948 12.6478C105.512 12.2998 106.172 12.1258 106.928 12.1258V14.5558H106.28C105.776 14.5558 105.326 14.6338 104.93 14.7898C104.534 14.9458 104.222 15.2158 103.994 15.5998C103.778 15.9838 103.67 16.5178 103.67 17.2018V21.2698H101.366Z" fill="black"/>
<path d="M112.628 21.4858C111.764 21.4858 110.984 21.2878 110.288 20.8918C109.604 20.4958 109.058 19.9498 108.65 19.2538C108.254 18.5458 108.056 17.7298 108.056 16.8058C108.056 15.8818 108.26 15.0718 108.668 14.3758C109.076 13.6678 109.622 13.1158 110.306 12.7198C111.002 12.3238 111.782 12.1258 112.646 12.1258C113.498 12.1258 114.266 12.3238 114.95 12.7198C115.646 13.1158 116.192 13.6678 116.588 14.3758C116.996 15.0718 117.2 15.8818 117.2 16.8058C117.2 17.7298 116.996 18.5458 116.588 19.2538C116.192 19.9498 115.646 20.4958 114.95 20.8918C114.254 21.2878 113.48 21.4858 112.628 21.4858ZM112.628 19.4878C113.228 19.4878 113.75 19.2658 114.194 18.8218C114.638 18.3658 114.86 17.6938 114.86 16.8058C114.86 15.9178 114.638 15.2518 114.194 14.8078C113.75 14.3518 113.234 14.1238 112.646 14.1238C112.034 14.1238 111.506 14.3518 111.062 14.8078C110.63 15.2518 110.414 15.9178 110.414 16.8058C110.414 17.6938 110.63 18.3658 111.062 18.8218C111.506 19.2658 112.028 19.4878 112.628 19.4878Z" fill="black"/>
<path d="M119.26 21.2698V8.30981H121.564V15.9598L124.732 12.3418H127.468L123.814 16.4098L128.062 21.2698H125.182L121.564 16.7878V21.2698H119.26Z" fill="black"/>
<path d="M133.091 21.4858C132.191 21.4858 131.393 21.2938 130.697 20.9098C130.001 20.5258 129.455 19.9858 129.059 19.2898C128.663 18.5938 128.465 17.7898 128.465 16.8778C128.465 15.9538 128.657 15.1318 129.041 14.4118C129.437 13.6918 129.977 13.1338 130.661 12.7378C131.357 12.3298 132.173 12.1258 133.109 12.1258C133.985 12.1258 134.759 12.3178 135.431 12.7018C136.103 13.0858 136.625 13.6138 136.997 14.2858C137.381 14.9458 137.573 15.6838 137.573 16.4998C137.573 16.6318 137.567 16.7698 137.555 16.9138C137.555 17.0578 137.549 17.2078 137.537 17.3638H130.751C130.799 18.0598 131.039 18.6058 131.471 19.0018C131.915 19.3978 132.449 19.5958 133.073 19.5958C133.541 19.5958 133.931 19.4938 134.243 19.2898C134.567 19.0738 134.807 18.7978 134.963 18.4618H137.303C137.135 19.0258 136.853 19.5418 136.457 20.0098C136.073 20.4658 135.593 20.8258 135.017 21.0898C134.453 21.3538 133.811 21.4858 133.091 21.4858ZM133.109 13.9978C132.545 13.9978 132.047 14.1598 131.615 14.4838C131.183 14.7958 130.907 15.2758 130.787 15.9238H135.233C135.197 15.3358 134.981 14.8678 134.585 14.5198C134.189 14.1718 133.697 13.9978 133.109 13.9978Z" fill="black"/>
<path fill-rule="evenodd" clip-rule="evenodd" d="M15 27.6923C17.549 27.6923 19.6154 25.6259 19.6154 23.0769L19.6154 21.9231L10.3846 21.9231L10.3846 23.0769C10.3846 25.6259 12.451 27.6923 15 27.6923ZM8.07693 21.9231L8.07693 23.0769C8.07693 26.9004 11.1765 30 15 30C18.8235 30 21.9231 26.9004 21.9231 23.0769L21.9231 21.9231L23.0769 21.9231C26.9004 21.9231 30 18.8235 30 15C30 11.1765 26.9004 8.07693 23.0769 8.07692L21.9231 8.07692L21.9231 6.92308C21.9231 3.09957 18.8235 9.30269e-07 15 5.96007e-07C11.1765 2.61745e-07 8.07693 3.09957 8.07693 6.92308L8.07693 8.07692L6.92308 8.07692C3.09957 8.07692 3.55295e-06 11.1765 3.21869e-06 15C2.88443e-06 18.8235 3.09957 21.9231 6.92308 21.9231L8.07693 21.9231ZM10.3846 19.6154L19.6154 19.6154L19.6154 10.3846L10.3846 10.3846L10.3846 19.6154ZM8.07693 10.3846L8.07693 19.6154L6.92308 19.6154C4.37407 19.6154 2.30769 17.549 2.30769 15C2.30769 12.451 4.37407 10.3846 6.92308 10.3846L8.07693 10.3846ZM10.3846 8.07692L19.6154 8.07692L19.6154 6.92308C19.6154 4.37407 17.549 2.30769 15 2.30769C12.451 2.30769 10.3846 4.37407 10.3846 6.92308L10.3846 8.07692ZM21.9231 10.3846L21.9231 19.6154L23.0769 19.6154C25.6259 19.6154 27.6923 17.549 27.6923 15C27.6923 12.451 25.6259 10.3846 23.0769 10.3846L21.9231 10.3846Z" fill="black"/>
<path fill-rule="evenodd" clip-rule="evenodd" d="M9.23075 8.0769C9.868 8.0769 10.3846 8.5935 10.3846 9.23075C10.3846 9.868 9.868 10.3846 9.23075 10.3846C8.5935 10.3846 8.0769 9.868 8.0769 9.23075C8.0769 8.5935 8.5935 8.0769 9.23075 8.0769ZM9.23075 19.6154C9.868 19.6154 10.3846 20.132 10.3846 20.7692C10.3846 21.4065 9.868 21.9231 9.23075 21.9231C8.5935 21.9231 8.0769 21.4065 8.0769 20.7692C8.0769 20.132 8.5935 19.6154 9.23075 19.6154ZM21.9231 9.23075C21.9231 8.5935 21.4065 8.0769 20.7692 8.0769C20.132 8.0769 19.6154 8.5935 19.6154 9.23075C19.6154 9.868 20.132 10.3846 20.7692 10.3846C21.4065 10.3846 21.9231 9.868 21.9231 9.23075ZM20.7692 19.6154C21.4065 19.6154 21.9231 20.132 21.9231 20.7692C21.9231 21.4065 21.4065 21.9231 20.7692 21.9231C20.132 21.9231 19.6154 21.4065 19.6154 20.7692C19.6154 20.132 20.132 19.6154 20.7692 19.6154Z" fill="white"/>
</g>
<defs>
<clipPath id="clip0_7273_127">
<rect width="137.75" height="30" fill="white"/>
</clipPath>
</defs>
</svg>
