<svg width="40" height="40" viewBox="0 0 40 40" fill="none" xmlns="http://www.w3.org/2000/svg">
<path fill-rule="evenodd" clip-rule="evenodd" d="M20 36.9231C23.3987 36.9231 26.1538 34.1679 26.1538 30.7692L26.1538 29.2308L13.8462 29.2308L13.8462 30.7692C13.8462 34.1679 16.6013 36.9231 20 36.9231ZM10.7692 29.2308L10.7692 30.7692C10.7692 35.8672 14.902 40 20 40C25.098 40 29.2308 35.8672 29.2308 30.7692L29.2308 29.2308L30.7692 29.2308C35.8672 29.2308 40 25.098 40 20C40 14.902 35.8672 10.7692 30.7692 10.7692L29.2308 10.7692L29.2308 9.23077C29.2308 4.13275 25.098 2.51192e-06 20 2.06624e-06C14.902 1.62056e-06 10.7692 4.13276 10.7692 9.23077L10.7692 10.7692L9.23077 10.7692C4.13276 10.7692 6.00884e-06 14.902 5.56315e-06 20C5.11747e-06 25.098 4.13276 29.2308 9.23077 29.2308L10.7692 29.2308ZM13.8462 26.1538L26.1538 26.1538L26.1538 13.8462L13.8462 13.8462L13.8462 26.1538ZM10.7692 13.8462L10.7692 26.1538L9.23077 26.1538C5.8321 26.1538 3.07692 23.3987 3.07693 20C3.07693 16.6013 5.8321 13.8462 9.23077 13.8462L10.7692 13.8462ZM13.8462 10.7692L26.1538 10.7692L26.1538 9.23077C26.1538 5.83209 23.3987 3.07693 20 3.07693C16.6013 3.07693 13.8462 5.83209 13.8462 9.23077L13.8462 10.7692ZM29.2308 13.8462L29.2308 26.1538L30.7692 26.1538C34.1679 26.1538 36.9231 23.3987 36.9231 20C36.9231 16.6013 34.1679 13.8462 30.7692 13.8462L29.2308 13.8462Z" fill="black"/>
<path fill-rule="evenodd" clip-rule="evenodd" d="M12.307 10.769C13.1567 10.769 13.8455 11.4578 13.8455 12.3075C13.8455 13.1572 13.1567 13.846 12.307 13.846C11.4573 13.846 10.7686 13.1572 10.7686 12.3075C10.7686 11.4578 11.4573 10.769 12.307 10.769ZM12.307 26.1536C13.1567 26.1536 13.8455 26.8424 13.8455 27.6921C13.8455 28.5418 13.1567 29.2306 12.307 29.2306C11.4573 29.2306 10.7686 28.5418 10.7686 27.6921C10.7686 26.8424 11.4573 26.1536 12.307 26.1536ZM29.2302 12.3075C29.2302 11.4578 28.5415 10.769 27.6918 10.769C26.8421 10.769 26.1533 11.4578 26.1533 12.3075C26.1533 13.1572 26.8421 13.846 27.6918 13.846C28.5415 13.846 29.2302 13.1572 29.2302 12.3075ZM27.6918 26.1536C28.5415 26.1536 29.2302 26.8424 29.2302 27.6921C29.2302 28.5418 28.5415 29.2306 27.6918 29.2306C26.8421 29.2306 26.1533 28.5418 26.1533 27.6921C26.1533 26.8424 26.8421 26.1536 27.6918 26.1536Z" fill="white"/>
</svg>
