<svg width="20" height="20" viewBox="0 0 20 20" fill="none" xmlns="http://www.w3.org/2000/svg">
<path fill-rule="evenodd" clip-rule="evenodd" d="M10 18.4615C11.6993 18.4615 13.0769 17.084 13.0769 15.3846L13.0769 14.6154L6.92308 14.6154L6.92308 15.3846C6.92308 17.084 8.30066 18.4615 10 18.4615ZM5.38462 14.6154L5.38462 15.3846C5.38462 17.9336 7.45099 20 10 20C12.549 20 14.6154 17.9336 14.6154 15.3846L14.6154 14.6154L15.3846 14.6154C17.9336 14.6154 20 12.549 20 10C20 7.45099 17.9336 5.38462 15.3846 5.38462L14.6154 5.38462L14.6154 4.61538C14.6154 2.06638 12.549 5.40706e-07 10 3.17865e-07C7.451 9.5024e-08 5.38462 2.06638 5.38462 4.61538L5.38462 5.38462L4.61539 5.38462C2.06638 5.38462 2.28916e-06 7.45099 2.06632e-06 10C1.84348e-06 12.549 2.06638 14.6154 4.61538 14.6154L5.38462 14.6154ZM6.92308 13.0769L13.0769 13.0769L13.0769 6.92308L6.92308 6.92308L6.92308 13.0769ZM5.38462 6.92308L5.38462 13.0769L4.61538 13.0769C2.91605 13.0769 1.53846 11.6993 1.53846 10C1.53846 8.30066 2.91605 6.92308 4.61539 6.92308L5.38462 6.92308ZM6.92308 5.38462L13.0769 5.38462L13.0769 4.61538C13.0769 2.91605 11.6993 1.53846 10 1.53846C8.30066 1.53846 6.92308 2.91605 6.92308 4.61538L6.92308 5.38462ZM14.6154 6.92308L14.6154 13.0769L15.3846 13.0769C17.084 13.0769 18.4615 11.6993 18.4615 10C18.4615 8.30066 17.084 6.92308 15.3846 6.92308L14.6154 6.92308Z" fill="#7238fa"/>
<path fill-rule="evenodd" clip-rule="evenodd" d="M6.154 5.38451C6.57883 5.38451 6.92323 5.72891 6.92323 6.15374C6.92323 6.57858 6.57883 6.92297 6.154 6.92297C5.72916 6.92297 5.38477 6.57858 5.38477 6.15374C5.38477 5.72891 5.72916 5.38451 6.154 5.38451ZM6.154 13.0768C6.57883 13.0768 6.92323 13.4212 6.92323 13.8461C6.92323 14.2709 6.57883 14.6153 6.154 14.6153C5.72916 14.6153 5.38477 14.2709 5.38477 13.8461C5.38477 13.4212 5.72916 13.0768 6.154 13.0768ZM14.6155 6.15374C14.6155 5.72891 14.2711 5.38451 13.8463 5.38451C13.4215 5.38451 13.0771 5.72891 13.0771 6.15374C13.0771 6.57858 13.4215 6.92297 13.8463 6.92297C14.2711 6.92297 14.6155 6.57858 14.6155 6.15374ZM13.8463 13.0768C14.2711 13.0768 14.6155 13.4212 14.6155 13.8461C14.6155 14.2709 14.2711 14.6153 13.8463 14.6153C13.4215 14.6153 13.0771 14.2709 13.0771 13.8461C13.0771 13.4212 13.4215 13.0768 13.8463 13.0768Z" fill="white"/>
</svg>
