<svg width="184" height="40" viewBox="0 0 184 40" fill="none" xmlns="http://www.w3.org/2000/svg">
<g clip-path="url(#clip0_5034_4819)">
<path d="M55.1175 28.6614C53.4367 28.6614 51.964 28.2932 50.6994 27.5569C49.4508 26.8205 48.4663 25.804 47.746 24.5074C47.0416 23.1948 46.6895 21.682 46.6895 19.9692C46.6895 18.2564 47.0416 16.7517 47.746 15.4551C48.4663 14.1424 49.4508 13.1179 50.6994 12.3816C51.964 11.6452 53.4367 11.2771 55.1175 11.2771C56.7823 11.2771 58.247 11.6452 59.5116 12.3816C60.7762 13.1179 61.7607 14.1424 62.465 15.4551C63.1693 16.7517 63.5215 18.2564 63.5215 19.9692C63.5215 21.682 63.1693 23.1948 62.465 24.5074C61.7607 25.804 60.7762 26.8205 59.5116 27.5569C58.247 28.2932 56.7823 28.6614 55.1175 28.6614ZM55.1175 25.9001C56.7183 25.9001 57.9909 25.3718 58.9353 24.3153C59.8958 23.2588 60.376 21.8101 60.376 19.9692C60.376 18.1283 59.8958 16.6796 58.9353 15.6231C57.9909 14.5666 56.7183 14.0384 55.1175 14.0384C53.5167 14.0384 52.2361 14.5666 51.2757 15.6231C50.3152 16.6796 49.835 18.1283 49.835 19.9692C49.835 21.8101 50.3152 23.2588 51.2757 24.3153C52.2361 25.3718 53.5167 25.9001 55.1175 25.9001Z" fill="black"/>
<path d="M66.1632 33.6558V16.4635H68.9005L69.2366 18.1684C69.6208 17.6401 70.1251 17.1759 70.7494 16.7757C71.3897 16.3755 72.2141 16.1754 73.2225 16.1754C74.3431 16.1754 75.3436 16.4475 76.224 16.9918C77.1044 17.5361 77.8007 18.2804 78.313 19.2249C78.8252 20.1693 79.0813 21.2418 79.0813 22.4424C79.0813 23.643 78.8252 24.7155 78.313 25.6599C77.8007 26.5884 77.1044 27.3247 76.224 27.869C75.3436 28.3973 74.3431 28.6614 73.2225 28.6614C72.3261 28.6614 71.5417 28.4933 70.8694 28.1571C70.1971 27.821 69.6528 27.3488 69.2366 26.7405V33.6558H66.1632ZM72.5742 25.9721C73.5507 25.9721 74.3591 25.6439 74.9994 24.9876C75.6397 24.3313 75.9599 23.4829 75.9599 22.4424C75.9599 21.4019 75.6397 20.5455 74.9994 19.8732C74.3591 19.2008 73.5507 18.8647 72.5742 18.8647C71.5818 18.8647 70.7654 19.2008 70.1251 19.8732C69.5008 20.5295 69.1886 21.3779 69.1886 22.4184C69.1886 23.4589 69.5008 24.3153 70.1251 24.9876C70.7654 25.6439 71.5818 25.9721 72.5742 25.9721Z" fill="black"/>
<path d="M87.6137 28.6614C86.4131 28.6614 85.3486 28.4053 84.4202 27.893C83.4917 27.3808 82.7634 26.6604 82.2351 25.732C81.7069 24.8035 81.4427 23.731 81.4427 22.5144C81.4427 21.2818 81.6988 20.1853 82.2111 19.2249C82.7393 18.2644 83.4597 17.52 84.3721 16.9918C85.3006 16.4475 86.3891 16.1754 87.6377 16.1754C88.8063 16.1754 89.8387 16.4315 90.7352 16.9438C91.6316 17.456 92.3279 18.1604 92.8242 19.0568C93.3364 19.9372 93.5925 20.9217 93.5925 22.0102C93.5925 22.1863 93.5845 22.3704 93.5685 22.5625C93.5685 22.7546 93.5605 22.9546 93.5445 23.1627H84.4922C84.5562 24.0912 84.8764 24.8195 85.4526 25.3478C86.0449 25.876 86.7573 26.1402 87.5897 26.1402C88.214 26.1402 88.7342 26.0041 89.1504 25.732C89.5826 25.4438 89.9028 25.0757 90.1109 24.6274H93.2324C93.0083 25.3798 92.6321 26.0681 92.1038 26.6924C91.5916 27.3007 90.9513 27.781 90.1829 28.1331C89.4306 28.4853 88.5741 28.6614 87.6137 28.6614ZM87.6377 18.6726C86.8853 18.6726 86.221 18.8887 85.6447 19.3209C85.0685 19.7371 84.7003 20.3774 84.5402 21.2418H90.4711C90.423 20.4575 90.1349 19.8332 89.6066 19.3689C89.0784 18.9047 88.4221 18.6726 87.6377 18.6726Z" fill="black"/>
<path d="M96.1775 28.3732V16.4635H98.8908L99.1309 18.4805C99.4991 17.7762 100.027 17.2159 100.716 16.7997C101.42 16.3835 102.244 16.1754 103.189 16.1754C104.662 16.1754 105.806 16.6396 106.623 17.5681C107.439 18.4965 107.847 19.8572 107.847 21.65V28.3732H104.774V21.9382C104.774 20.9137 104.566 20.1293 104.149 19.585C103.733 19.0408 103.085 18.7686 102.204 18.7686C101.34 18.7686 100.628 19.0728 100.067 19.6811C99.5231 20.2894 99.251 21.1378 99.251 22.2263V28.3732H96.1775Z" fill="black"/>
<path d="M116.597 28.6614C115.364 28.6614 114.276 28.4533 113.331 28.0371C112.387 27.6049 111.643 26.9966 111.098 26.2122C110.554 25.4118 110.274 24.4434 110.258 23.3068H113.499C113.531 24.0912 113.812 24.7555 114.34 25.2998C114.884 25.828 115.628 26.0921 116.573 26.0921C117.389 26.0921 118.038 25.9001 118.518 25.5159C118.998 25.1157 119.238 24.5874 119.238 23.9311C119.238 23.2428 119.022 22.7065 118.59 22.3223C118.174 21.9382 117.613 21.626 116.909 21.3859C116.205 21.1458 115.452 20.8897 114.652 20.6175C113.355 20.1693 112.363 19.593 111.675 18.8887C111.002 18.1844 110.666 17.2479 110.666 16.0794C110.65 15.0869 110.882 14.2385 111.362 13.5341C111.859 12.8138 112.531 12.2615 113.379 11.8773C114.228 11.4771 115.204 11.2771 116.309 11.2771C117.429 11.2771 118.414 11.4771 119.262 11.8773C120.127 12.2775 120.799 12.8378 121.279 13.5581C121.775 14.2785 122.039 15.1349 122.072 16.1274H118.782C118.766 15.5351 118.534 15.0148 118.086 14.5666C117.653 14.1024 117.045 13.8703 116.261 13.8703C115.588 13.8543 115.02 14.0224 114.556 14.3745C114.108 14.7107 113.884 15.2069 113.884 15.8633C113.884 16.4235 114.06 16.8717 114.412 17.2079C114.764 17.528 115.244 17.8002 115.853 18.0243C116.461 18.2484 117.157 18.4885 117.942 18.7446C118.774 19.0328 119.534 19.3689 120.223 19.7531C120.911 20.1373 121.463 20.6495 121.879 21.2898C122.296 21.9141 122.504 22.7225 122.504 23.715C122.504 24.5954 122.28 25.4118 121.831 26.1642C121.383 26.9165 120.719 27.5248 119.838 27.9891C118.958 28.4373 117.877 28.6614 116.597 28.6614Z" fill="black"/>
<path d="M130.42 28.3732C129.171 28.3732 128.171 28.0691 127.418 27.4608C126.666 26.8525 126.29 25.772 126.29 24.2193V19.0328H124.249V16.4635H126.29L126.65 13.27H129.363V16.4635H132.581V19.0328H129.363V24.2433C129.363 24.8195 129.483 25.2197 129.723 25.4438C129.98 25.6519 130.412 25.756 131.02 25.756H132.509V28.3732H130.42Z" fill="black"/>
<path d="M135.22 28.3732V16.4635H137.957L138.245 18.6966C138.677 17.9282 139.262 17.3199 139.998 16.8717C140.75 16.4075 141.631 16.1754 142.639 16.1754V19.417H141.775C141.102 19.417 140.502 19.521 139.974 19.7291C139.446 19.9372 139.029 20.2974 138.725 20.8096C138.437 21.3219 138.293 22.0342 138.293 22.9466V28.3732H135.22Z" fill="black"/>
<path d="M150.244 28.6614C149.091 28.6614 148.051 28.3973 147.122 27.869C146.21 27.3407 145.481 26.6124 144.937 25.684C144.409 24.7395 144.145 23.651 144.145 22.4184C144.145 21.1858 144.417 20.1053 144.961 19.1768C145.505 18.2324 146.234 17.496 147.146 16.9678C148.075 16.4395 149.115 16.1754 150.268 16.1754C151.404 16.1754 152.429 16.4395 153.341 16.9678C154.269 17.496 154.998 18.2324 155.526 19.1768C156.07 20.1053 156.342 21.1858 156.342 22.4184C156.342 23.651 156.07 24.7395 155.526 25.684C154.998 26.6124 154.269 27.3407 153.341 27.869C152.413 28.3973 151.38 28.6614 150.244 28.6614ZM150.244 25.9961C151.044 25.9961 151.74 25.7 152.333 25.1077C152.925 24.4994 153.221 23.603 153.221 22.4184C153.221 21.2338 152.925 20.3454 152.333 19.7531C151.74 19.1448 151.052 18.8407 150.268 18.8407C149.451 18.8407 148.747 19.1448 148.155 19.7531C147.578 20.3454 147.29 21.2338 147.29 22.4184C147.29 23.603 147.578 24.4994 148.155 25.1077C148.747 25.7 149.443 25.9961 150.244 25.9961Z" fill="black"/>
<path d="M159.09 28.3732V11.085H162.164V21.2898L166.39 16.4635H170.04L165.165 21.8901L170.832 28.3732H166.99L162.164 22.3944V28.3732H159.09Z" fill="black"/>
<path d="M177.54 28.6614C176.339 28.6614 175.274 28.4053 174.346 27.893C173.418 27.3808 172.689 26.6604 172.161 25.732C171.633 24.8035 171.369 23.731 171.369 22.5144C171.369 21.2818 171.625 20.1853 172.137 19.2249C172.665 18.2644 173.386 17.52 174.298 16.9918C175.226 16.4475 176.315 16.1754 177.564 16.1754C178.732 16.1754 179.765 16.4315 180.661 16.9438C181.557 17.456 182.254 18.1604 182.75 19.0568C183.262 19.9372 183.518 20.9217 183.518 22.0102C183.518 22.1863 183.51 22.3704 183.494 22.5625C183.494 22.7546 183.486 22.9546 183.47 23.1627H174.418C174.482 24.0912 174.802 24.8195 175.379 25.3478C175.971 25.876 176.683 26.1402 177.516 26.1402C178.14 26.1402 178.66 26.0041 179.076 25.732C179.509 25.4438 179.829 25.0757 180.037 24.6274H183.158C182.934 25.3798 182.558 26.0681 182.03 26.6924C181.517 27.3007 180.877 27.781 180.109 28.1331C179.356 28.4853 178.5 28.6614 177.54 28.6614ZM177.564 18.6726C176.811 18.6726 176.147 18.8887 175.571 19.3209C174.994 19.7371 174.626 20.3774 174.466 21.2418H180.397C180.349 20.4575 180.061 19.8332 179.533 19.3689C179.004 18.9047 178.348 18.6726 177.564 18.6726Z" fill="black"/>
<path fill-rule="evenodd" clip-rule="evenodd" d="M20.0099 36.9411C23.4102 36.9411 26.1667 34.1846 26.1667 30.7843L26.1667 29.2451L13.8532 29.2451L13.8532 30.7843C13.8532 34.1846 16.6096 36.9411 20.0099 36.9411ZM10.7748 29.2451L10.7748 30.7843C10.7748 35.8848 14.9095 40.0195 20.0099 40.0195C25.1104 40.0195 29.2451 35.8848 29.2451 30.7843L29.2451 29.2451L30.7843 29.2451C35.8848 29.2451 40.0195 25.1104 40.0195 20.0099C40.0195 14.9095 35.8848 10.7748 30.7843 10.7748L29.2451 10.7748L29.2451 9.23555C29.2451 4.1351 25.1104 0.000361093 20.01 0.000360647C14.9095 0.000360201 10.7748 4.1351 10.7748 9.23555L10.7748 10.7748L9.23556 10.7748C4.1351 10.7748 0.000364591 14.9095 0.000364146 20.0099C0.0003637 25.1104 4.1351 29.2451 9.23555 29.2451L10.7748 29.2451ZM13.8532 26.1667L26.1667 26.1667L26.1667 13.8532L13.8532 13.8532L13.8532 26.1667ZM10.7748 13.8532L10.7748 26.1667L9.23555 26.1667C5.83525 26.1667 3.07876 23.4102 3.07876 20.0099C3.07876 16.6096 5.83525 13.8532 9.23556 13.8532L10.7748 13.8532ZM13.8532 10.7748L26.1667 10.7748L26.1667 9.23555C26.1667 5.83525 23.4103 3.07876 20.01 3.07876C16.6096 3.07876 13.8532 5.83525 13.8532 9.23555L13.8532 10.7748ZM29.2451 13.8532L29.2451 26.1667L30.7843 26.1667C34.1846 26.1667 36.9411 23.4102 36.9411 20.0099C36.9411 16.6096 34.1846 13.8532 30.7843 13.8532L29.2451 13.8532Z" fill="#7238FA"/>
<path fill-rule="evenodd" clip-rule="evenodd" d="M12.3136 10.7744C13.1637 10.7744 13.8528 11.4635 13.8528 12.3136C13.8528 13.1637 13.1637 13.8528 12.3136 13.8528C11.4635 13.8528 10.7744 13.1637 10.7744 12.3136C10.7744 11.4635 11.4635 10.7744 12.3136 10.7744ZM12.3136 26.1666C13.1637 26.1666 13.8528 26.8557 13.8528 27.7058C13.8528 28.5558 13.1637 29.2449 12.3136 29.2449C11.4635 29.2449 10.7744 28.5558 10.7744 27.7058C10.7744 26.8557 11.4635 26.1666 12.3136 26.1666ZM29.245 12.3136C29.245 11.4635 28.5558 10.7744 27.7058 10.7744C26.8557 10.7744 26.1666 11.4635 26.1666 12.3136C26.1666 13.1637 26.8557 13.8528 27.7058 13.8528C28.5558 13.8528 29.245 13.1637 29.245 12.3136ZM27.7058 26.1666C28.5558 26.1666 29.245 26.8557 29.245 27.7058C29.245 28.5558 28.5558 29.2449 27.7058 29.2449C26.8557 29.2449 26.1666 28.5558 26.1666 27.7058C26.1666 26.8557 26.8557 26.1666 27.7058 26.1666Z" fill="white"/>
</g>
<defs>
<clipPath id="clip0_5034_4819">
<rect width="183.667" height="40" fill="white"/>
</clipPath>
</defs>
</svg>
