<svg width="21" height="21" viewBox="0 0 21 21" fill="none" xmlns="http://www.w3.org/2000/svg">
<path fill-rule="evenodd" clip-rule="evenodd" d="M10.5 18.9615C12.1993 18.9615 13.5769 17.584 13.5769 15.8846L13.5769 15.1154L7.42308 15.1154L7.42308 15.8846C7.42308 17.584 8.80066 18.9615 10.5 18.9615ZM5.88462 15.1154L5.88462 15.8846C5.88462 18.4336 7.95099 20.5 10.5 20.5C13.049 20.5 15.1154 18.4336 15.1154 15.8846L15.1154 15.1154L15.8846 15.1154C18.4336 15.1154 20.5 13.049 20.5 10.5C20.5 7.95099 18.4336 5.88462 15.8846 5.88462L15.1154 5.88462L15.1154 5.11538C15.1154 2.56638 13.049 0.500001 10.5 0.5C7.951 0.5 5.88462 2.56638 5.88462 5.11538L5.88462 5.88462L5.11539 5.88462C2.56638 5.88462 0.500002 7.95099 0.500002 10.5C0.500002 13.049 2.56638 15.1154 5.11538 15.1154L5.88462 15.1154ZM7.42308 13.5769L13.5769 13.5769L13.5769 7.42308L7.42308 7.42308L7.42308 13.5769ZM5.88462 7.42308L5.88462 13.5769L5.11538 13.5769C3.41605 13.5769 2.03846 12.1993 2.03846 10.5C2.03846 8.80066 3.41605 7.42308 5.11539 7.42308L5.88462 7.42308ZM7.42308 5.88462L13.5769 5.88462L13.5769 5.11538C13.5769 3.41605 12.1993 2.03846 10.5 2.03846C8.80066 2.03846 7.42308 3.41605 7.42308 5.11538L7.42308 5.88462ZM15.1154 7.42308L15.1154 13.5769L15.8846 13.5769C17.584 13.5769 18.9615 12.1993 18.9615 10.5C18.9615 8.80066 17.584 7.42308 15.8846 7.42308L15.1154 7.42308Z" fill="black"/>
<path fill-rule="evenodd" clip-rule="evenodd" d="M6.654 5.88463C7.07883 5.88463 7.42323 6.22903 7.42323 6.65387C7.42323 7.0787 7.07883 7.4231 6.654 7.4231C6.22916 7.4231 5.88477 7.0787 5.88477 6.65387C5.88477 6.22903 6.22916 5.88463 6.654 5.88463ZM6.654 13.5769C7.07883 13.5769 7.42323 13.9213 7.42323 14.3462C7.42323 14.771 7.07883 15.1154 6.654 15.1154C6.22916 15.1154 5.88477 14.771 5.88477 14.3462C5.88477 13.9213 6.22916 13.5769 6.654 13.5769ZM15.1156 6.65387C15.1156 6.22903 14.7712 5.88463 14.3464 5.88463C13.9215 5.88463 13.5771 6.22903 13.5771 6.65387C13.5771 7.0787 13.9215 7.4231 14.3464 7.4231C14.7712 7.4231 15.1156 7.0787 15.1156 6.65387ZM14.3464 13.5769C14.7712 13.5769 15.1156 13.9213 15.1156 14.3462C15.1156 14.771 14.7712 15.1154 14.3464 15.1154C13.9215 15.1154 13.5771 14.771 13.5771 14.3462C13.5771 13.9213 13.9215 13.5769 14.3464 13.5769Z" fill="white"/>
</svg>
