<svg width="30" height="30" viewBox="0 0 30 30" fill="none" xmlns="http://www.w3.org/2000/svg">
<path fill-rule="evenodd" clip-rule="evenodd" d="M15 27.6923C17.549 27.6923 19.6154 25.6259 19.6154 23.0769L19.6154 21.9231L10.3846 21.9231L10.3846 23.0769C10.3846 25.6259 12.451 27.6923 15 27.6923ZM8.07692 21.9231L8.07692 23.0769C8.07692 26.9004 11.1765 30 15 30C18.8235 30 21.9231 26.9004 21.9231 23.0769L21.9231 21.9231L23.0769 21.9231C26.9004 21.9231 30 18.8235 30 15C30 11.1765 26.9004 8.07693 23.0769 8.07692L21.9231 8.07692L21.9231 6.92307C21.9231 3.09956 18.8235 -9.7708e-07 15 -1.31134e-06C11.1765 -1.6456e-06 8.07693 3.09957 8.07693 6.92307L8.07693 8.07692L6.92308 8.07692C3.09957 8.07692 1.6456e-06 11.1765 1.31134e-06 15C9.7708e-07 18.8235 3.09957 21.9231 6.92308 21.9231L8.07692 21.9231ZM10.3846 19.6154L19.6154 19.6154L19.6154 10.3846L10.3846 10.3846L10.3846 19.6154ZM8.07693 10.3846L8.07692 19.6154L6.92308 19.6154C4.37407 19.6154 2.30769 17.549 2.30769 15C2.30769 12.451 4.37407 10.3846 6.92308 10.3846L8.07693 10.3846ZM10.3846 8.07692L19.6154 8.07692L19.6154 6.92307C19.6154 4.37407 17.549 2.30769 15 2.30769C12.451 2.30769 10.3846 4.37407 10.3846 6.92307L10.3846 8.07692ZM21.9231 10.3846L21.9231 19.6154L23.0769 19.6154C25.6259 19.6154 27.6923 17.549 27.6923 15C27.6923 12.451 25.6259 10.3846 23.0769 10.3846L21.9231 10.3846Z" fill="#7238FA"/>
<path fill-rule="evenodd" clip-rule="evenodd" d="M9.23075 8.0769C9.868 8.0769 10.3846 8.5935 10.3846 9.23075C10.3846 9.868 9.868 10.3846 9.23075 10.3846C8.5935 10.3846 8.0769 9.868 8.0769 9.23075C8.0769 8.5935 8.5935 8.0769 9.23075 8.0769ZM9.23075 19.6154C9.868 19.6154 10.3846 20.132 10.3846 20.7692C10.3846 21.4065 9.868 21.9231 9.23075 21.9231C8.5935 21.9231 8.0769 21.4065 8.0769 20.7692C8.0769 20.132 8.5935 19.6154 9.23075 19.6154ZM21.9231 9.23075C21.9231 8.5935 21.4065 8.0769 20.7692 8.0769C20.132 8.0769 19.6154 8.5935 19.6154 9.23075C19.6154 9.868 20.132 10.3846 20.7692 10.3846C21.4065 10.3846 21.9231 9.868 21.9231 9.23075ZM20.7692 19.6154C21.4065 19.6154 21.9231 20.132 21.9231 20.7692C21.9231 21.4065 21.4065 21.9231 20.7692 21.9231C20.132 21.9231 19.6154 21.4065 19.6154 20.7692C19.6154 20.132 20.132 19.6154 20.7692 19.6154Z" fill="white"/>
</svg>
