<svg width="177" height="30" viewBox="0 0 177 30" fill="none" xmlns="http://www.w3.org/2000/svg">
<rect x="9.25" y="1.25" width="11.5" height="27.5" rx="5.75" stroke="url(#paint0_linear_12978_9590)" stroke-width="2.5"/>
<rect x="28.75" y="9.25" width="11.5" height="27.5" rx="5.75" transform="rotate(90 28.75 9.25)" stroke="url(#paint1_linear_12978_9590)" stroke-width="2.5"/>
<path fill-rule="evenodd" clip-rule="evenodd" d="M9.25 8C9.94036 8 10.5 8.55964 10.5 9.25C10.5 9.94036 9.94036 10.5 9.25 10.5C8.55964 10.5 8 9.94036 8 9.25C8 8.55964 8.55964 8 9.25 8ZM9.25 19.5C9.94036 19.5 10.5 20.0596 10.5 20.75C10.5 21.4404 9.94036 22 9.25 22C8.55964 22 8 21.4404 8 20.75C8 20.0596 8.55964 19.5 9.25 19.5ZM22 9.25C22 8.55964 21.4404 8 20.75 8C20.0596 8 19.5 8.55964 19.5 9.25C19.5 9.94036 20.0596 10.5 20.75 10.5C21.4404 10.5 22 9.94036 22 9.25ZM20.75 19.5C21.4404 19.5 22 20.0596 22 20.75C22 21.4404 21.4404 22 20.75 22C20.0596 22 19.5 21.4404 19.5 20.75C19.5 20.0596 20.0596 19.5 20.75 19.5Z" fill="white"/>
<path fill-rule="evenodd" clip-rule="evenodd" d="M9.23051 8.125C9.86776 8.125 10.3844 8.64159 10.3844 9.27885C10.3844 9.9161 9.86776 10.4327 9.23051 10.4327C8.59325 10.4327 8.07666 9.9161 8.07666 9.27885C8.07666 8.64159 8.59325 8.125 9.23051 8.125ZM9.23051 19.6636C9.86776 19.6636 10.3844 20.1802 10.3844 20.8174C10.3844 21.4547 9.86776 21.9713 9.23051 21.9713C8.59325 21.9713 8.07666 21.4547 8.07666 20.8174C8.07666 20.1802 8.59325 19.6636 9.23051 19.6636ZM21.9228 9.27885C21.9228 8.64159 21.4062 8.125 20.769 8.125C20.1317 8.125 19.6151 8.64159 19.6151 9.27885C19.6151 9.9161 20.1317 10.4327 20.769 10.4327C21.4062 10.4327 21.9228 9.9161 21.9228 9.27885ZM20.769 19.6636C21.4062 19.6636 21.9228 20.1802 21.9228 20.8174C21.9228 21.4547 21.4062 21.9713 20.769 21.9713C20.1317 21.9713 19.6151 21.4547 19.6151 20.8174C19.6151 20.1802 20.1317 19.6636 20.769 19.6636Z" fill="white"/>
<path d="M171.974 20.7242C170.711 20.7242 169.484 20.3865 168.555 19.7982C168.164 19.551 168.094 19.0337 168.332 18.6369C168.652 18.101 169.402 17.9913 169.957 18.2761C170.609 18.6102 171.388 18.8492 172.087 18.8492C173.118 18.8492 173.606 18.4555 173.606 17.893C173.606 16.4117 168.243 17.6305 168.243 14.068C168.243 12.5492 169.556 11.218 171.956 11.218C173.148 11.218 174.156 11.5419 174.97 12.0261C175.345 12.249 175.435 12.7351 175.22 13.1143C174.929 13.628 174.203 13.7266 173.667 13.4774C173.168 13.2451 172.574 13.093 171.956 13.093C171.093 13.093 170.531 13.468 170.531 13.9742C170.531 15.3055 175.912 14.1805 175.912 17.8367C175.912 19.5055 174.487 20.7242 171.974 20.7242Z" fill="url(#paint2_linear_12978_9590)"/>
<path d="M166.366 19.2992C166.366 19.962 165.829 20.4992 165.166 20.4992C164.503 20.4992 163.966 19.962 163.966 19.2992V15.0242C163.966 13.768 163.31 13.3367 162.297 13.3367C162.005 13.3367 161.734 13.3878 161.488 13.4741C160.527 13.8103 160.235 14.9399 160.235 15.9575V19.3086C160.235 19.9662 159.702 20.4992 159.044 20.4992C158.387 20.4992 157.854 19.9662 157.854 19.3086V12.6336C157.854 11.976 158.387 11.443 159.044 11.443H159.92C160.094 11.443 160.235 11.5839 160.235 11.7577C160.235 12.0495 160.624 12.2075 160.86 12.036C161.486 11.5819 162.358 11.218 163.404 11.218C165.41 11.218 166.366 12.343 166.366 14.1055V19.2992Z" fill="url(#paint3_linear_12978_9590)"/>
<path d="M151.269 20.7242C148.288 20.7242 146.488 18.5305 146.488 15.9617C146.488 13.393 148.288 11.218 151.269 11.218C154.269 11.218 156.069 13.393 156.069 15.9617C156.069 18.5305 154.269 20.7242 151.269 20.7242ZM151.269 18.6055C152.769 18.6055 153.594 17.3867 153.594 15.9617C153.594 14.5555 152.769 13.3367 151.269 13.3367C149.788 13.3367 148.963 14.5555 148.963 15.9617C148.963 17.3867 149.788 18.6055 151.269 18.6055Z" fill="url(#paint4_linear_12978_9590)"/>
<path d="M141.931 20.7242C139.156 20.7242 137.131 18.7555 137.131 15.9617C137.131 13.1867 139.156 11.218 141.931 11.218C143.272 11.218 144.231 11.6387 144.887 12.1833C145.289 12.5178 145.226 13.1181 144.845 13.4765C144.378 13.9146 143.624 13.7913 143.038 13.5333C142.743 13.4034 142.41 13.3367 142.043 13.3367C140.6 13.3367 139.587 14.3867 139.587 15.9617C139.587 17.5367 140.6 18.6055 142.043 18.6055C142.413 18.6055 142.749 18.5301 143.046 18.3913C143.625 18.1206 144.374 18.0043 144.839 18.4418C145.224 18.8032 145.287 19.4081 144.883 19.7468C144.227 20.2954 143.269 20.7242 141.931 20.7242Z" fill="url(#paint5_linear_12978_9590)"/>
<path d="M134.151 10.468C133.382 10.468 132.745 9.83047 132.745 9.04297C132.745 8.25547 133.382 7.63672 134.151 7.63672C134.938 7.63672 135.576 8.25547 135.576 9.04297C135.576 9.83047 134.938 10.468 134.151 10.468ZM135.351 19.3086C135.351 19.9662 134.818 20.4992 134.16 20.4992C133.503 20.4992 132.97 19.9662 132.97 19.3086V12.6336C132.97 11.976 133.503 11.443 134.16 11.443C134.818 11.443 135.351 11.976 135.351 12.6336V19.3086Z" fill="url(#paint6_linear_12978_9590)"/>
<path d="M126.862 20.7244C124.106 20.7244 122.025 18.8682 122.025 15.9619C122.025 13.3369 123.975 11.2182 126.712 11.2182C129.431 11.2182 131.25 13.2432 131.25 16.1869C131.25 16.4976 130.998 16.7494 130.687 16.7494H125.391C124.932 16.7494 124.574 17.1714 124.802 17.5701C125.205 18.2754 125.992 18.7744 127.125 18.7744C127.628 18.7744 128.252 18.6379 128.785 18.3858C129.207 18.1869 129.764 18.2461 130.026 18.6315L130.23 18.932C130.439 19.2399 130.393 19.6604 130.08 19.8621C129.199 20.4299 128.024 20.7244 126.862 20.7244ZM128.144 15.0994C128.584 15.0994 128.939 14.7105 128.747 14.3148C128.448 13.6993 127.822 13.1682 126.712 13.1682C125.665 13.1682 125.039 13.6839 124.729 14.3042C124.531 14.7023 124.887 15.0994 125.332 15.0994H128.144Z" fill="#1E3050"/>
<path d="M120.637 19.3009C121.006 19.7955 120.653 20.4994 120.036 20.4994H118.945C118.698 20.4994 118.467 20.3779 118.327 20.1746L116.679 17.78C116.407 17.3854 115.841 17.343 115.513 17.6928L115.265 17.9582C115.135 18.0971 115.063 18.2803 115.063 18.4705V19.7494C115.063 20.1636 114.727 20.4994 114.313 20.4994H113.432C113.017 20.4994 112.682 20.1636 112.682 19.7494V8.74316C112.682 8.32895 113.017 7.99316 113.432 7.99316H114.313C114.727 7.99316 115.063 8.32895 115.063 8.74316V13.4361C115.063 14.1337 115.932 14.4535 116.384 13.9223L118.269 11.707C118.412 11.5396 118.621 11.4432 118.841 11.4432H119.77C120.414 11.4432 120.758 12.2009 120.335 12.6861L118.236 15.0931C118.004 15.3594 117.989 15.7515 118.2 16.0346L120.637 19.3009Z" fill="#1E3050"/>
<path d="M106.097 20.7244C103.115 20.7244 101.315 18.5307 101.315 15.9619C101.315 13.3932 103.115 11.2182 106.097 11.2182C109.097 11.2182 110.897 13.3932 110.897 15.9619C110.897 18.5307 109.097 20.7244 106.097 20.7244ZM106.097 18.6057C107.597 18.6057 108.422 17.3869 108.422 15.9619C108.422 14.5557 107.597 13.3369 106.097 13.3369C104.615 13.3369 103.79 14.5557 103.79 15.9619C103.79 17.3869 104.615 18.6057 106.097 18.6057Z" fill="#1E3050"/>
<path d="M97.5213 19.7494C97.5213 20.1636 97.1856 20.4994 96.7713 20.4994H95.8901C95.4759 20.4994 95.1401 20.1636 95.1401 19.7494V12.1932C95.1401 11.779 95.4759 11.4432 95.8901 11.4432H97.1974C97.3763 11.4432 97.5213 11.5882 97.5213 11.7671C97.5213 12.0701 97.9266 12.2295 98.1666 12.0446C98.6024 11.7089 99.12 11.4422 99.6662 11.3097C100.069 11.212 100.409 11.554 100.409 11.9682V12.8832C100.409 13.2219 100.091 13.4869 99.7526 13.4869C99.0478 13.4869 98.1327 13.8474 97.666 14.3398C97.5629 14.4486 97.5213 14.5983 97.5213 14.7483V19.7494Z" fill="#1E3050"/>
<path d="M91.8421 20.7244C90.1734 20.7244 89.2921 19.8619 89.2921 18.2307V14.2744C89.2921 13.8602 88.9564 13.5244 88.5421 13.5244C88.1279 13.5244 87.7921 13.1886 87.7921 12.7744V12.1932C87.7921 11.779 88.1279 11.4432 88.5421 11.4432C88.9564 11.4432 89.2921 11.1074 89.2921 10.6932V9.71817C89.2921 9.30395 89.6279 8.96817 90.0421 8.96817H90.9234C91.3376 8.96817 91.6734 9.30395 91.6734 9.71817V10.6932C91.6734 11.1074 92.0092 11.4432 92.4234 11.4432H92.7609C93.1751 11.4432 93.5109 11.779 93.5109 12.1932V12.7744C93.5109 13.1886 93.1751 13.5244 92.7609 13.5244H92.4234C92.0092 13.5244 91.6734 13.8602 91.6734 14.2744V17.5932C91.6734 18.1744 91.9734 18.6057 92.4984 18.6057C92.8818 18.6057 93.46 18.8151 93.5628 19.1845L93.7046 19.694C93.7812 19.969 93.6984 20.2731 93.444 20.4027C93.071 20.5928 92.5459 20.7244 91.8421 20.7244Z" fill="#1E3050"/>
<path d="M83.1316 20.7244C81.7977 20.7244 80.5041 20.3478 79.5584 19.6972C79.2658 19.4959 79.2122 19.0998 79.3944 18.7949L79.6334 18.3951C79.8795 17.9835 80.4518 17.9009 80.8668 18.1413C81.5617 18.544 82.4538 18.8494 83.2441 18.8494C84.2753 18.8494 84.7628 18.4557 84.7628 17.8932C84.7628 16.4119 79.4003 17.6307 79.4003 14.0682C79.4003 12.5494 80.7128 11.2182 83.1128 11.2182C84.3541 11.2182 85.395 11.5689 86.2253 12.086C86.5392 12.2815 86.6159 12.6929 86.4336 13.0147L86.2887 13.2704C86.0417 13.7062 85.4295 13.7886 84.9854 13.5569C84.4555 13.2805 83.7986 13.0932 83.1128 13.0932C82.2503 13.0932 81.6878 13.4682 81.6878 13.9744C81.6878 15.3057 87.0691 14.1807 87.0691 17.8369C87.0691 19.5057 85.6441 20.7244 83.1316 20.7244Z" fill="#1E3050"/>
<path d="M77.5234 19.7494C77.5234 20.1636 77.1877 20.4994 76.7734 20.4994H75.8734C75.4592 20.4994 75.1234 20.1636 75.1234 19.7494V15.0244C75.1234 13.7682 74.4672 13.3369 73.4547 13.3369C72.6348 13.3369 71.9869 13.7385 71.5614 14.1904C71.4462 14.3128 71.3922 14.4783 71.3922 14.6463V19.7494C71.3922 20.1636 71.0564 20.4994 70.6422 20.4994H69.7609C69.3467 20.4994 69.0109 20.1636 69.0109 19.7494V12.1932C69.0109 11.779 69.3467 11.4432 69.7609 11.4432H71.0775C71.2513 11.4432 71.3922 11.5841 71.3922 11.7579C71.3922 12.0497 71.7815 12.2077 72.0176 12.0362C72.6428 11.5821 73.5157 11.2182 74.5609 11.2182C76.5672 11.2182 77.5234 12.3432 77.5234 14.1057V19.7494Z" fill="#1E3050"/>
<path d="M62.9034 20.7244C60.1472 20.7244 58.0659 18.8682 58.0659 15.9619C58.0659 13.3369 60.0159 11.2182 62.7534 11.2182C65.4722 11.2182 67.2909 13.2432 67.2909 16.1869C67.2909 16.4976 67.0391 16.7494 66.7284 16.7494H61.4328C60.9735 16.7494 60.615 17.1714 60.8429 17.5701C61.246 18.2754 62.0328 18.7744 63.1659 18.7744C63.6691 18.7744 64.2928 18.6379 64.8266 18.3858C65.2478 18.1869 65.8054 18.2461 66.0669 18.6315L66.2708 18.932C66.4798 19.2399 66.4341 19.6604 66.1213 19.8621C65.2404 20.4299 64.0655 20.7244 62.9034 20.7244ZM64.1854 15.0994C64.6252 15.0994 64.9805 14.7105 64.7884 14.3148C64.4895 13.6993 63.8637 13.1682 62.7534 13.1682C61.7059 13.1682 61.0804 13.6839 60.7707 14.3042C60.5719 14.7023 60.9282 15.0994 61.3731 15.0994H64.1854Z" fill="#1E3050"/>
<path d="M52.8908 20.7244C52.5185 20.7244 52.1576 20.6698 51.8137 20.559C51.1388 20.3417 50.097 20.766 50.097 21.475V23.1994C50.097 23.6136 49.7612 23.9494 49.347 23.9494H48.4658C48.0516 23.9494 47.7158 23.6136 47.7158 23.1994V12.1932C47.7158 11.779 48.0516 11.4432 48.4658 11.4432H49.8028C49.9653 11.4432 50.097 11.5749 50.097 11.7374C50.097 12.0167 50.4747 12.1584 50.6925 11.9836C51.3125 11.486 52.0708 11.2182 52.8908 11.2182C55.2158 11.2182 56.9033 12.9432 56.9033 15.9619C56.9033 18.9807 55.2158 20.7244 52.8908 20.7244ZM52.1408 18.6057C53.5095 18.6057 54.447 17.5369 54.447 15.9619C54.447 14.4057 53.5095 13.3369 52.1408 13.3369C51.4526 13.3369 50.6894 13.6825 50.241 14.1853C50.14 14.2985 50.097 14.4494 50.097 14.6011V17.3255C50.097 17.4755 50.139 17.6247 50.2385 17.7369C50.6769 18.2313 51.4538 18.6057 52.1408 18.6057Z" fill="#1E3050"/>
<path d="M41.1309 20.7244C38.1496 20.7244 36.3496 18.5307 36.3496 15.9619C36.3496 13.3932 38.1496 11.2182 41.1309 11.2182C44.1309 11.2182 45.9309 13.3932 45.9309 15.9619C45.9309 18.5307 44.1309 20.7244 41.1309 20.7244ZM41.1309 18.6057C42.6309 18.6057 43.4559 17.3869 43.4559 15.9619C43.4559 14.5557 42.6309 13.3369 41.1309 13.3369C39.6496 13.3369 38.8246 14.5557 38.8246 15.9619C38.8246 17.3869 39.6496 18.6057 41.1309 18.6057Z" fill="#1E3050"/>
<defs>
<linearGradient id="paint0_linear_12978_9590" x1="15" y1="-6.375" x2="29.3653" y2="0.905496" gradientUnits="userSpaceOnUse">
<stop stop-color="#4CC3F9"/>
<stop offset="1" stop-color="#7638FA"/>
</linearGradient>
<linearGradient id="paint1_linear_12978_9590" x1="26.25" y1="3.75" x2="46.9902" y2="5.2021" gradientUnits="userSpaceOnUse">
<stop stop-color="#FFC109"/>
<stop offset="1" stop-color="#FF0AE6"/>
</linearGradient>
<linearGradient id="paint2_linear_12978_9590" x1="122.375" y1="-4.12578" x2="174.005" y2="47.3931" gradientUnits="userSpaceOnUse">
<stop stop-color="#FFC109"/>
<stop offset="1" stop-color="#FF0AE6"/>
</linearGradient>
<linearGradient id="paint3_linear_12978_9590" x1="122.375" y1="-4.12578" x2="174.005" y2="47.3931" gradientUnits="userSpaceOnUse">
<stop stop-color="#FFC109"/>
<stop offset="1" stop-color="#FF0AE6"/>
</linearGradient>
<linearGradient id="paint4_linear_12978_9590" x1="122.375" y1="-4.12578" x2="174.005" y2="47.3931" gradientUnits="userSpaceOnUse">
<stop stop-color="#FFC109"/>
<stop offset="1" stop-color="#FF0AE6"/>
</linearGradient>
<linearGradient id="paint5_linear_12978_9590" x1="122.375" y1="-4.12578" x2="174.005" y2="47.3931" gradientUnits="userSpaceOnUse">
<stop stop-color="#FFC109"/>
<stop offset="1" stop-color="#FF0AE6"/>
</linearGradient>
<linearGradient id="paint6_linear_12978_9590" x1="122.375" y1="-4.12578" x2="174.005" y2="47.3931" gradientUnits="userSpaceOnUse">
<stop stop-color="#FFC109"/>
<stop offset="1" stop-color="#FF0AE6"/>
</linearGradient>
</defs>
</svg>
