<svg width="121" height="121" viewBox="0 0 121 121" fill="none" xmlns="http://www.w3.org/2000/svg">
<path fill-rule="evenodd" clip-rule="evenodd" d="M60.3076 110.962C70.5036 110.962 78.7692 102.696 78.7692 92.5001L78.7692 87.8847L41.8461 87.8847L41.8461 92.5001C41.8461 102.696 50.1116 110.962 60.3076 110.962ZM32.6153 87.8847L32.6153 92.5001C32.6153 107.794 45.0136 120.192 60.3076 120.192C75.6017 120.192 87.9999 107.794 87.9999 92.5001L87.9999 87.8847L92.6153 87.8847C107.909 87.8847 120.308 75.4865 120.308 60.1925C120.308 44.8984 107.909 32.5002 92.6153 32.5002L87.9999 32.5001L87.9999 27.8848C87.9999 12.5907 75.6017 0.192455 60.3076 0.192454C45.0136 0.192453 32.6153 12.5907 32.6153 27.8848L32.6153 32.5001L27.9999 32.5001C12.7059 32.5001 0.307639 44.8984 0.307638 60.1924C0.307636 75.4865 12.7059 87.8847 27.9999 87.8847L32.6153 87.8847ZM41.8461 78.654L78.7692 78.654L78.7692 41.7309L41.8461 41.7309L41.8461 78.654ZM32.6153 41.7309L32.6153 78.654L27.9999 78.654C17.8039 78.654 9.5384 70.3885 9.5384 60.1924C9.5384 49.9964 17.8039 41.7309 27.9999 41.7309L32.6153 41.7309ZM41.8461 32.5001L78.7692 32.5001L78.7692 27.8848C78.7692 17.6887 70.5037 9.42322 60.3076 9.42322C50.1116 9.42322 41.8461 17.6887 41.8461 27.8848L41.8461 32.5001ZM87.9999 41.7309L87.9999 78.654L92.6153 78.654C102.811 78.654 111.077 70.3885 111.077 60.1925C111.077 49.9964 102.811 41.7309 92.6153 41.7309L87.9999 41.7309Z" fill="white"/>
<path fill-rule="evenodd" clip-rule="evenodd" d="M37.2307 32.5002C39.7797 32.5002 41.8461 34.5666 41.8461 37.1156C41.8461 39.6646 39.7797 41.731 37.2307 41.731C34.6817 41.731 32.6153 39.6646 32.6153 37.1156C32.6153 34.5666 34.6817 32.5002 37.2307 32.5002ZM37.2307 78.6541C39.7797 78.6541 41.8461 80.7205 41.8461 83.2695C41.8461 85.8185 39.7797 87.8848 37.2307 87.8848C34.6817 87.8848 32.6153 85.8185 32.6153 83.2695C32.6153 80.7205 34.6817 78.6541 37.2307 78.6541ZM87.9999 37.1156C87.9999 34.5666 85.9335 32.5002 83.3845 32.5002C80.8355 32.5002 78.7691 34.5666 78.7691 37.1156C78.7691 39.6646 80.8355 41.731 83.3845 41.731C85.9335 41.731 87.9999 39.6646 87.9999 37.1156ZM83.3845 78.6541C85.9335 78.6541 87.9999 80.7205 87.9999 83.2695C87.9999 85.8185 85.9335 87.8848 83.3845 87.8848C80.8355 87.8848 78.7691 85.8185 78.7691 83.2695C78.7691 80.7205 80.8355 78.6541 83.3845 78.6541Z" fill="black"/>
</svg>
