<svg width="552" height="121" viewBox="0 0 552 121" fill="none" xmlns="http://www.w3.org/2000/svg">
<g clip-path="url(#clip0_3189_271)">
<path d="M165.58 86.136C160.54 86.136 156.124 85.032 152.332 82.824C148.588 80.616 145.636 77.568 143.476 73.68C141.364 69.744 140.308 65.208 140.308 60.072C140.308 54.936 141.364 50.424 143.476 46.536C145.636 42.6 148.588 39.528 152.332 37.32C156.124 35.112 160.54 34.008 165.58 34.008C170.572 34.008 174.964 35.112 178.756 37.32C182.548 39.528 185.5 42.6 187.612 46.536C189.724 50.424 190.78 54.936 190.78 60.072C190.78 65.208 189.724 69.744 187.612 73.68C185.5 77.568 182.548 80.616 178.756 82.824C174.964 85.032 170.572 86.136 165.58 86.136ZM165.58 77.856C170.38 77.856 174.196 76.272 177.028 73.104C179.908 69.936 181.348 65.592 181.348 60.072C181.348 54.552 179.908 50.208 177.028 47.04C174.196 43.872 170.38 42.288 165.58 42.288C160.78 42.288 156.94 43.872 154.06 47.04C151.18 50.208 149.74 54.552 149.74 60.072C149.74 65.592 151.18 69.936 154.06 73.104C156.94 76.272 160.78 77.856 165.58 77.856Z" fill="white"/>
<path d="M198.701 101.112V49.56H206.909L207.917 54.672C209.069 53.088 210.581 51.696 212.453 50.496C214.373 49.296 216.845 48.696 219.869 48.696C223.229 48.696 226.229 49.512 228.869 51.144C231.509 52.776 233.597 55.008 235.133 57.84C236.669 60.672 237.437 63.888 237.437 67.488C237.437 71.088 236.669 74.304 235.133 77.136C233.597 79.92 231.509 82.128 228.869 83.76C226.229 85.344 223.229 86.136 219.869 86.136C217.181 86.136 214.829 85.632 212.813 84.624C210.797 83.616 209.165 82.2 207.917 80.376V101.112H198.701ZM217.925 78.072C220.853 78.072 223.277 77.088 225.197 75.12C227.117 73.152 228.077 70.608 228.077 67.488C228.077 64.368 227.117 61.8 225.197 59.784C223.277 57.768 220.853 56.76 217.925 56.76C214.949 56.76 212.501 57.768 210.581 59.784C208.709 61.752 207.773 64.296 207.773 67.416C207.773 70.536 208.709 73.104 210.581 75.12C212.501 77.088 214.949 78.072 217.925 78.072Z" fill="white"/>
<path d="M263.022 86.136C259.422 86.136 256.23 85.368 253.446 83.832C250.662 82.296 248.478 80.136 246.894 77.352C245.31 74.568 244.518 71.352 244.518 67.704C244.518 64.008 245.286 60.72 246.822 57.84C248.406 54.96 250.566 52.728 253.302 51.144C256.086 49.512 259.35 48.696 263.094 48.696C266.598 48.696 269.694 49.464 272.382 51C275.07 52.536 277.158 54.648 278.646 57.336C280.182 59.976 280.95 62.928 280.95 66.192C280.95 66.72 280.926 67.272 280.878 67.848C280.878 68.424 280.854 69.024 280.806 69.648H253.662C253.854 72.432 254.814 74.616 256.542 76.2C258.318 77.784 260.454 78.576 262.95 78.576C264.822 78.576 266.382 78.168 267.63 77.352C268.926 76.488 269.886 75.384 270.51 74.04H279.87C279.198 76.296 278.07 78.36 276.486 80.232C274.95 82.056 273.03 83.496 270.726 84.552C268.47 85.608 265.902 86.136 263.022 86.136ZM263.094 56.184C260.838 56.184 258.846 56.832 257.118 58.128C255.39 59.376 254.286 61.296 253.806 63.888H271.59C271.446 61.536 270.582 59.664 268.998 58.272C267.414 56.88 265.446 56.184 263.094 56.184Z" fill="white"/>
<path d="M288.701 85.272V49.56H296.837L297.557 55.608C298.661 53.496 300.245 51.816 302.309 50.568C304.421 49.32 306.893 48.696 309.725 48.696C314.141 48.696 317.573 50.088 320.021 52.872C322.469 55.656 323.693 59.736 323.693 65.112V85.272H314.477V65.976C314.477 62.904 313.853 60.552 312.605 58.92C311.357 57.288 309.413 56.472 306.773 56.472C304.181 56.472 302.045 57.384 300.365 59.208C298.733 61.032 297.917 63.576 297.917 66.84V85.272H288.701Z" fill="white"/>
<path d="M349.929 86.136C346.233 86.136 342.969 85.512 340.137 84.264C337.305 82.968 335.073 81.144 333.441 78.792C331.809 76.392 330.969 73.488 330.921 70.08H340.641C340.737 72.432 341.577 74.424 343.161 76.056C344.793 77.64 347.025 78.432 349.857 78.432C352.305 78.432 354.249 77.856 355.689 76.704C357.129 75.504 357.849 73.92 357.849 71.952C357.849 69.888 357.201 68.28 355.905 67.128C354.657 65.976 352.977 65.04 350.865 64.32C348.753 63.6 346.497 62.832 344.097 62.016C340.209 60.672 337.233 58.944 335.169 56.832C333.153 54.72 332.145 51.912 332.145 48.408C332.097 45.432 332.793 42.888 334.233 40.776C335.721 38.616 337.737 36.96 340.281 35.808C342.825 34.608 345.753 34.008 349.065 34.008C352.425 34.008 355.377 34.608 357.921 35.808C360.513 37.008 362.529 38.688 363.969 40.848C365.457 43.008 366.249 45.576 366.345 48.552H356.481C356.433 46.776 355.737 45.216 354.393 43.872C353.097 42.48 351.273 41.784 348.921 41.784C346.905 41.736 345.201 42.24 343.809 43.296C342.465 44.304 341.793 45.792 341.793 47.76C341.793 49.44 342.321 50.784 343.377 51.792C344.433 52.752 345.873 53.568 347.697 54.24C349.521 54.912 351.609 55.632 353.961 56.4C356.457 57.264 358.737 58.272 360.801 59.424C362.865 60.576 364.521 62.112 365.769 64.032C367.017 65.904 367.641 68.328 367.641 71.304C367.641 73.944 366.969 76.392 365.625 78.648C364.281 80.904 362.289 82.728 359.649 84.12C357.009 85.464 353.769 86.136 349.929 86.136Z" fill="white"/>
<path d="M391.378 85.272C387.634 85.272 384.634 84.36 382.378 82.536C380.122 80.712 378.994 77.472 378.994 72.816V57.264H372.874V49.56H378.994L380.074 39.984H388.21V49.56H397.858V57.264H388.21V72.888C388.21 74.616 388.57 75.816 389.29 76.488C390.058 77.112 391.354 77.424 393.178 77.424H397.642V85.272H391.378Z" fill="white"/>
<path d="M405.771 85.272V49.56H413.979L414.843 56.256C416.139 53.952 417.891 52.128 420.099 50.784C422.355 49.392 424.995 48.696 428.019 48.696V58.416H425.427C423.411 58.416 421.611 58.728 420.027 59.352C418.443 59.976 417.195 61.056 416.283 62.592C415.419 64.128 414.987 66.264 414.987 69V85.272H405.771Z" fill="white"/>
<path d="M450.821 86.136C447.365 86.136 444.245 85.344 441.461 83.76C438.725 82.176 436.541 79.992 434.909 77.208C433.325 74.376 432.533 71.112 432.533 67.416C432.533 63.72 433.349 60.48 434.981 57.696C436.613 54.864 438.797 52.656 441.533 51.072C444.317 49.488 447.437 48.696 450.893 48.696C454.301 48.696 457.373 49.488 460.109 51.072C462.893 52.656 465.077 54.864 466.661 57.696C468.293 60.48 469.109 63.72 469.109 67.416C469.109 71.112 468.293 74.376 466.661 77.208C465.077 79.992 462.893 82.176 460.109 83.76C457.325 85.344 454.229 86.136 450.821 86.136ZM450.821 78.144C453.221 78.144 455.309 77.256 457.085 75.48C458.861 73.656 459.749 70.968 459.749 67.416C459.749 63.864 458.861 61.2 457.085 59.424C455.309 57.6 453.245 56.688 450.893 56.688C448.445 56.688 446.333 57.6 444.557 59.424C442.829 61.2 441.965 63.864 441.965 67.416C441.965 70.968 442.829 73.656 444.557 75.48C446.333 77.256 448.421 78.144 450.821 78.144Z" fill="white"/>
<path d="M477.349 85.272V33.432H486.565V64.032L499.237 49.56H510.181L495.565 65.832L512.557 85.272H501.037L486.565 67.344V85.272H477.349Z" fill="white"/>
<path d="M532.67 86.136C529.07 86.136 525.878 85.368 523.094 83.832C520.31 82.296 518.126 80.136 516.542 77.352C514.958 74.568 514.166 71.352 514.166 67.704C514.166 64.008 514.934 60.72 516.47 57.84C518.054 54.96 520.214 52.728 522.95 51.144C525.734 49.512 528.998 48.696 532.742 48.696C536.246 48.696 539.342 49.464 542.03 51C544.718 52.536 546.806 54.648 548.294 57.336C549.83 59.976 550.598 62.928 550.598 66.192C550.598 66.72 550.574 67.272 550.526 67.848C550.526 68.424 550.502 69.024 550.454 69.648H523.31C523.502 72.432 524.462 74.616 526.19 76.2C527.966 77.784 530.102 78.576 532.598 78.576C534.47 78.576 536.03 78.168 537.278 77.352C538.574 76.488 539.534 75.384 540.158 74.04H549.518C548.846 76.296 547.718 78.36 546.134 80.232C544.598 82.056 542.678 83.496 540.374 84.552C538.118 85.608 535.55 86.136 532.67 86.136ZM532.742 56.184C530.486 56.184 528.494 56.832 526.766 58.128C525.038 59.376 523.934 61.296 523.454 63.888H541.238C541.094 61.536 540.23 59.664 538.646 58.272C537.062 56.88 535.094 56.184 532.742 56.184Z" fill="white"/>
<path fill-rule="evenodd" clip-rule="evenodd" d="M60.3077 110.962C70.5037 110.962 78.7692 102.696 78.7692 92.5001L78.7692 87.8847L41.8461 87.8847L41.8461 92.5001C41.8461 102.696 50.1117 110.962 60.3077 110.962ZM32.6154 87.8847L32.6154 92.5001C32.6154 107.794 45.0136 120.192 60.3077 120.192C75.6017 120.192 88 107.794 88 92.5001L88 87.8847L92.6154 87.8847C107.909 87.8847 120.308 75.4865 120.308 60.1924C120.308 44.8984 107.909 32.5001 92.6154 32.5001L88 32.5001L88 27.8847C88 12.5907 75.6017 0.192448 60.3077 0.192446C45.0137 0.192445 32.6154 12.5907 32.6154 27.8848L32.6154 32.5001L28 32.5001C12.706 32.5001 0.307692 44.8984 0.307691 60.1924C0.30769 75.4865 12.706 87.8847 28 87.8847L32.6154 87.8847ZM41.8461 78.654L78.7692 78.654L78.7692 41.7309L41.8462 41.7309L41.8461 78.654ZM32.6154 41.7309L32.6154 78.654L28 78.654C17.804 78.654 9.53845 70.3885 9.53845 60.1924C9.53845 49.9964 17.804 41.7309 28 41.7309L32.6154 41.7309ZM41.8462 32.5001L78.7692 32.5001L78.7692 27.8847C78.7692 17.6887 70.5037 9.42321 60.3077 9.42321C50.1117 9.42321 41.8462 17.6887 41.8462 27.8848L41.8462 32.5001ZM88 41.7309L88 78.654L92.6154 78.654C102.811 78.654 111.077 70.3885 111.077 60.1924C111.077 49.9964 102.811 41.7309 92.6154 41.7309L88 41.7309Z" fill="white"/>
<path fill-rule="evenodd" clip-rule="evenodd" d="M37.2307 32.5002C39.7797 32.5002 41.8461 34.5666 41.8461 37.1156C41.8461 39.6646 39.7797 41.731 37.2307 41.731C34.6817 41.731 32.6153 39.6646 32.6153 37.1156C32.6153 34.5666 34.6817 32.5002 37.2307 32.5002ZM37.2307 78.6541C39.7797 78.6541 41.8461 80.7205 41.8461 83.2695C41.8461 85.8185 39.7797 87.8849 37.2307 87.8849C34.6817 87.8849 32.6153 85.8185 32.6153 83.2695C32.6153 80.7205 34.6817 78.6541 37.2307 78.6541ZM88 37.1156C88 34.5666 85.9336 32.5002 83.3846 32.5002C80.8356 32.5002 78.7692 34.5666 78.7692 37.1156C78.7692 39.6646 80.8356 41.731 83.3846 41.731C85.9336 41.731 88 39.6646 88 37.1156ZM83.3846 78.6541C85.9336 78.6541 88 80.7205 88 83.2695C88 85.8185 85.9336 87.8849 83.3846 87.8849C80.8356 87.8849 78.7692 85.8185 78.7692 83.2695C78.7692 80.7205 80.8356 78.6541 83.3846 78.6541Z" fill="black"/>
</g>
<defs>
<clipPath id="clip0_3189_271">
<rect width="551" height="120" fill="white" transform="translate(0.307678 0.192444)"/>
</clipPath>
</defs>
</svg>
