<svg width="14" height="14" viewBox="0 0 14 14" fill="none" xmlns="http://www.w3.org/2000/svg">
<path d="M0.5 7.04011C0.5 3.42622 3.41475 0.5 7.00054 0.5C10.5873 0.5 13.5 3.42607 13.5 7.04011C13.5 10.6464 10.5947 13.5 7.00054 13.5C3.40727 13.5 0.5 10.6463 0.5 7.04011Z" stroke="#5E5F6E"/>
<path fill-rule="evenodd" clip-rule="evenodd" d="M6.99945 4.9C7.3862 4.9 7.6998 4.58675 7.6998 4.2C7.6998 3.81325 7.3862 3.5 6.99945 3.5C6.6134 3.5 6.2998 3.81325 6.2998 4.2C6.2998 4.58675 6.6134 4.9 6.99945 4.9ZM6.2998 6.3V10.5H7.6998L7.6998 6.3H6.2998Z" fill="#5E5F6E"/>
</svg>
