<svg width="40" height="40" viewBox="0 0 40 40" fill="none" xmlns="http://www.w3.org/2000/svg">
<rect width="40" height="40" rx="10" fill="#7238FA"/>
<mask id="path-2-inside-1_6023_396" fill="white">
<path fill-rule="evenodd" clip-rule="evenodd" d="M23.2281 13.875C22.7861 13.875 22.3621 13.6994 22.0496 13.3869L21.1784 12.5157C20.5275 11.8648 19.4723 11.8648 18.8214 12.5157L17.9502 13.3869C17.6377 13.6994 17.2137 13.875 16.7717 13.875H15.5416C14.6211 13.875 13.8749 14.6212 13.8749 15.5417V16.7718C13.8749 17.2138 13.6993 17.6377 13.3868 17.9503L12.5155 18.8216C11.8646 19.4724 11.8646 20.5277 12.5155 21.1786L13.3868 22.0499C13.6993 22.3624 13.8749 22.7863 13.8749 23.2284V24.4595C13.8749 25.38 14.6211 26.1262 15.5416 26.1262H16.7728C17.2148 26.1262 17.6387 26.3018 17.9513 26.6144L18.8214 27.4845C19.4723 28.1354 20.5275 28.1354 21.1784 27.4845L22.0485 26.6144C22.3611 26.3018 22.785 26.1262 23.227 26.1262H24.4595C25.3799 26.1262 26.1261 25.38 26.1261 24.4595V23.2271C26.1261 22.7851 26.3017 22.3612 26.6143 22.0486L27.4843 21.1786C28.1352 20.5277 28.1352 19.4724 27.4843 18.8216L26.6143 17.9516C26.3017 17.639 26.1261 17.2151 26.1261 16.773V15.5417C26.1261 14.6212 25.3799 13.875 24.4595 13.875H23.2281Z"/>
</mask>
<path d="M18.8214 27.4845L17.7607 28.5451L18.8214 27.4845ZM17.9513 26.6144L19.0119 25.5537L17.9513 26.6144ZM13.3868 22.0499L12.3261 23.1105L13.3868 22.0499ZM12.5155 18.8216L11.4548 17.7609L12.5155 18.8216ZM12.5155 21.1786L13.5762 20.1179L12.5155 21.1786ZM13.3868 17.9503L12.3261 16.8896L13.3868 17.9503ZM20.1177 13.5763L20.9889 14.4475L23.1102 12.3262L22.2391 11.455L20.1177 13.5763ZM19.0109 14.4475L19.882 13.5763L17.7607 11.455L16.8896 12.3262L19.0109 14.4475ZM15.5416 15.375H16.7717V12.375H15.5416V15.375ZM15.3749 16.7718V15.5417H12.3749V16.7718H15.3749ZM13.5762 19.8822L14.4474 19.011L12.3261 16.8896L11.4548 17.7609L13.5762 19.8822ZM14.4474 20.9892L13.5762 20.1179L11.4548 22.2393L12.3261 23.1105L14.4474 20.9892ZM15.3749 24.4595V23.2284H12.3749V24.4595H15.3749ZM16.7728 24.6262H15.5416V27.6262H16.7728V24.6262ZM19.882 26.4238L19.0119 25.5537L16.8906 27.675L17.7607 28.5451L19.882 26.4238ZM20.9879 25.5537L20.1177 26.4238L22.2391 28.5451L23.1092 27.675L20.9879 25.5537ZM24.4595 24.6262H23.227V27.6262H24.4595V24.6262ZM24.6261 23.2271V24.4595H27.6261V23.2271H24.6261ZM26.4236 20.1179L25.5536 20.9879L27.6749 23.1093L28.545 22.2393L26.4236 20.1179ZM25.5536 19.0122L26.4236 19.8822L28.545 17.7609L27.6749 16.8909L25.5536 19.0122ZM24.6261 15.5417V16.773H27.6261V15.5417H24.6261ZM23.2281 15.375H24.4595V12.375H23.2281V15.375ZM27.6261 15.5417C27.6261 13.7928 26.2084 12.375 24.4595 12.375V15.375C24.5515 15.375 24.6261 15.4496 24.6261 15.5417H27.6261ZM27.6749 16.8909C27.6437 16.8596 27.6261 16.8172 27.6261 16.773H24.6261C24.6261 17.6129 24.9598 18.4183 25.5536 19.0122L27.6749 16.8909ZM28.545 22.2393C29.7816 21.0026 29.7816 18.9976 28.545 17.7609L26.4236 19.8822C26.4887 19.9473 26.4887 20.0528 26.4236 20.1179L28.545 22.2393ZM27.6261 23.2271C27.6261 23.1829 27.6437 23.1405 27.6749 23.1093L25.5536 20.9879C24.9598 21.5818 24.6261 22.3873 24.6261 23.2271H27.6261ZM24.4595 27.6262C26.2084 27.6262 27.6261 26.2084 27.6261 24.4595H24.6261C24.6261 24.5516 24.5515 24.6262 24.4595 24.6262V27.6262ZM23.1092 27.675C23.1404 27.6438 23.1828 27.6262 23.227 27.6262V24.6262C22.3872 24.6262 21.5817 24.9598 20.9879 25.5537L23.1092 27.675ZM17.7607 28.5451C18.9974 29.7818 21.0024 29.7818 22.2391 28.5451L20.1177 26.4238C20.0527 26.4889 19.9471 26.4889 19.882 26.4238L17.7607 28.5451ZM16.7728 27.6262C16.817 27.6262 16.8594 27.6438 16.8906 27.675L19.0119 25.5537C18.4181 24.9598 17.6126 24.6262 16.7728 24.6262V27.6262ZM12.3749 24.4595C12.3749 26.2084 13.7927 27.6262 15.5416 27.6262V24.6262C15.4495 24.6262 15.3749 24.5516 15.3749 24.4595H12.3749ZM12.3261 23.1105C12.3574 23.1418 12.3749 23.1842 12.3749 23.2284H15.3749C15.3749 22.3885 15.0413 21.5831 14.4474 20.9892L12.3261 23.1105ZM11.4548 17.7609C10.2182 18.9976 10.2182 21.0026 11.4548 22.2393L13.5762 20.1179C13.5111 20.0528 13.5111 19.9473 13.5762 19.8822L11.4548 17.7609ZM12.3749 16.7718C12.3749 16.816 12.3574 16.8584 12.3261 16.8896L14.4474 19.011C15.0413 18.4171 15.3749 17.6116 15.3749 16.7718H12.3749ZM15.5416 12.375C13.7927 12.375 12.3749 13.7928 12.3749 15.5417H15.3749C15.3749 15.4496 15.4495 15.375 15.5416 15.375V12.375ZM16.8896 12.3262C16.8583 12.3574 16.8159 12.375 16.7717 12.375V15.375C17.6116 15.375 18.417 15.0414 19.0109 14.4475L16.8896 12.3262ZM20.9889 14.4475C21.5828 15.0414 22.3882 15.375 23.2281 15.375V12.375C23.1839 12.375 23.1415 12.3574 23.1102 12.3262L20.9889 14.4475ZM22.2391 11.455C21.0024 10.2184 18.9974 10.2184 17.7607 11.455L19.882 13.5763C19.9471 13.5113 20.0527 13.5113 20.1177 13.5763L22.2391 11.455Z" fill="white" mask="url(#path-2-inside-1_6023_396)"/>
<circle cx="20" cy="20" r="2.25" stroke="white" stroke-width="1.5"/>
</svg>
