<svg width="240" height="240" viewBox="0 0 240 240" fill="none" xmlns="http://www.w3.org/2000/svg">
<rect x="0.5" y="0.5" width="239" height="239" rx="7.5" fill="white" stroke="#E8E8E8"/>
<path d="M60.1168 51.25C60.4739 51.252 60.8131 51.4065 61.0488 51.6747L70.9388 62.9247C71.263 63.2934 71.3413 63.8178 71.1389 64.2652C70.9365 64.7126 70.491 65 70 65H50C49.5066 65 49.0593 64.7097 48.8583 64.259C48.6574 63.8083 48.7404 63.2815 49.0703 62.9145L59.1803 51.6645C59.4189 51.3989 59.7598 51.2481 60.1168 51.25Z" fill="black"/>
<path d="M50 66.25C49.3096 66.25 48.75 66.8096 48.75 67.5C48.75 68.1904 49.3096 68.75 50 68.75H70C70.6904 68.75 71.25 68.1904 71.25 67.5C71.25 66.8096 70.6904 66.25 70 66.25H50Z" fill="black"/>
<path fill-rule="evenodd" clip-rule="evenodd" d="M107.5 50C107.5 48.6193 108.619 47.5 110 47.5H130C131.381 47.5 132.5 48.6193 132.5 50V70C132.5 71.3807 131.381 72.5 130 72.5H110C108.619 72.5 107.5 71.3807 107.5 70V50ZM119.999 54.4373C120.368 54.4367 120.719 54.5997 120.957 54.8823L124.587 59.1948C124.9 59.5667 124.969 60.0864 124.764 60.5272C124.558 60.9679 124.116 61.2498 123.63 61.2498H116.392C115.906 61.2498 115.465 60.9687 115.259 60.5288C115.054 60.0889 115.121 59.5699 115.433 59.1976L119.042 54.8851C119.279 54.6017 119.629 54.4378 119.999 54.4373ZM113.75 63.75C113.06 63.75 112.5 64.3096 112.5 65C112.5 65.6904 113.06 66.25 113.75 66.25H126.25C126.94 66.25 127.5 65.6904 127.5 65C127.5 64.3096 126.94 63.75 126.25 63.75H113.75Z" fill="black"/>
<path d="M170 51.25C169.31 51.25 168.75 51.8096 168.75 52.5C168.75 53.1904 169.31 53.75 170 53.75H178.654L169.036 66.757C168.756 67.1364 168.713 67.6416 168.925 68.063C169.138 68.4844 169.57 68.7502 170.042 68.7502H189.949C190.421 68.7502 190.852 68.4845 191.065 68.0633C191.278 67.642 191.235 67.137 190.954 66.7575L181.346 53.75H190C190.69 53.75 191.25 53.1904 191.25 52.5C191.25 51.8096 190.69 51.25 190 51.25H170Z" fill="black"/>
<path fill-rule="evenodd" clip-rule="evenodd" d="M60 107.5C53.0964 107.5 47.5 113.096 47.5 120C47.5 126.904 53.0964 132.5 60 132.5C66.9036 132.5 72.5 126.904 72.5 120C72.5 113.096 66.9036 107.5 60 107.5ZM57.5 113.75C58.1904 113.75 58.75 114.31 58.75 115V125C58.75 125.69 58.1904 126.25 57.5 126.25C56.8096 126.25 56.25 125.69 56.25 125V115C56.25 114.31 56.8096 113.75 57.5 113.75ZM63.75 115C63.75 114.31 63.1904 113.75 62.5 113.75C61.8096 113.75 61.25 114.31 61.25 115V125C61.25 125.69 61.8096 126.25 62.5 126.25C63.1904 126.25 63.75 125.69 63.75 125V115Z" fill="black"/>
<path d="M113.75 107.5C112.369 107.5 111.25 108.619 111.25 110V130C111.25 131.381 112.369 132.5 113.75 132.5H116.25C117.631 132.5 118.75 131.381 118.75 130V110C118.75 108.619 117.631 107.5 116.25 107.5H113.75Z" fill="black"/>
<path d="M123.75 107.5C122.369 107.5 121.25 108.619 121.25 110V130C121.25 131.381 122.369 132.5 123.75 132.5H126.25C127.631 132.5 128.75 131.381 128.75 130V110C128.75 108.619 127.631 107.5 126.25 107.5H123.75Z" fill="black"/>
<path fill-rule="evenodd" clip-rule="evenodd" d="M170 107.5C168.619 107.5 167.5 108.619 167.5 110V130C167.5 131.381 168.619 132.5 170 132.5H190C191.381 132.5 192.5 131.381 192.5 130V110C192.5 108.619 191.381 107.5 190 107.5H170ZM177.5 113.75C178.19 113.75 178.75 114.31 178.75 115V125C178.75 125.69 178.19 126.25 177.5 126.25C176.81 126.25 176.25 125.69 176.25 125V115C176.25 114.31 176.81 113.75 177.5 113.75ZM183.75 115C183.75 114.31 183.19 113.75 182.5 113.75C181.81 113.75 181.25 114.31 181.25 115V125C181.25 125.69 181.81 126.25 182.5 126.25C183.19 126.25 183.75 125.69 183.75 125V115Z" fill="black"/>
<path fill-rule="evenodd" clip-rule="evenodd" d="M50 167.5C48.6193 167.5 47.5 168.619 47.5 170V190C47.5 191.381 48.6193 192.5 50 192.5H70C71.3807 192.5 72.5 191.381 72.5 190V170C72.5 168.619 71.3807 167.5 70 167.5H50ZM59.4434 176.46C59.0598 176.204 58.5666 176.18 58.1602 176.398C57.7537 176.615 57.5 177.039 57.5 177.5V182.5C57.5 182.961 57.7537 183.385 58.1602 183.602C58.5666 183.82 59.0598 183.796 59.4434 183.54L63.1934 181.04C63.5411 180.808 63.75 180.418 63.75 180C63.75 179.582 63.5411 179.192 63.1934 178.96L59.4434 176.46Z" fill="black"/>
<path fill-rule="evenodd" clip-rule="evenodd" d="M110 167.5C108.619 167.5 107.5 168.619 107.5 170V183.75H112.5V182.5C112.5 181.81 113.06 181.25 113.75 181.25C114.44 181.25 115 181.81 115 182.5V183.75H132.5V170C132.5 168.619 131.381 167.5 130 167.5H110ZM119.443 173.96C119.06 173.704 118.567 173.68 118.16 173.898C117.754 174.115 117.5 174.539 117.5 175V180C117.5 180.461 117.754 180.885 118.16 181.102C118.567 181.32 119.06 181.296 119.443 181.04L123.193 178.54C123.541 178.308 123.75 177.918 123.75 177.5C123.75 177.082 123.541 176.692 123.193 176.46L119.443 173.96Z" fill="black"/>
<path d="M132.5 190V186.25H115V187.5C115 188.19 114.44 188.75 113.75 188.75C113.06 188.75 112.5 188.19 112.5 187.5V186.25H107.5V190C107.5 191.381 108.619 192.5 110 192.5H130C131.381 192.5 132.5 191.381 132.5 190Z" fill="black"/>
<path fill-rule="evenodd" clip-rule="evenodd" d="M170 167.5C168.619 167.5 167.5 168.619 167.5 170V180C167.5 181.381 168.619 182.5 170 182.5H190C191.381 182.5 192.5 181.381 192.5 180V170C192.5 168.619 191.381 167.5 190 167.5H170ZM179.443 171.46C179.06 171.204 178.567 171.18 178.16 171.398C177.754 171.615 177.5 172.039 177.5 172.5V177.5C177.5 177.961 177.754 178.385 178.16 178.602C178.567 178.82 179.06 178.796 179.443 178.54L183.193 176.04C183.541 175.808 183.75 175.418 183.75 175C183.75 174.582 183.541 174.192 183.193 173.96L179.443 171.46Z" fill="black"/>
<path d="M178.537 190C178.022 191.456 176.633 192.5 175 192.5C173.367 192.5 171.978 191.456 171.463 190H168.75C168.06 190 167.5 189.44 167.5 188.75C167.5 188.06 168.06 187.5 168.75 187.5H171.463C171.978 186.044 173.367 185 175 185C176.633 185 178.022 186.044 178.537 187.5H191.25C191.94 187.5 192.5 188.06 192.5 188.75C192.5 189.44 191.94 190 191.25 190H178.537Z" fill="black"/>
</svg>
