<svg width="538" height="186" viewBox="0 0 538 186" fill="none" xmlns="http://www.w3.org/2000/svg">
<rect x="8" y="7" width="522" height="172" stroke="#7238FA" stroke-width="4"/>
<rect x="2" y="2" width="12" height="12" fill="white" stroke="#18181C" stroke-width="4"/>
<rect x="2" y="172" width="12" height="12" fill="white" stroke="#18181C" stroke-width="4"/>
<rect x="524" y="2" width="12" height="12" fill="white" stroke="#18181C" stroke-width="4"/>
<rect x="524" y="172" width="12" height="12" fill="white" stroke="#18181C" stroke-width="4"/>
<rect x="18" y="18" width="12" height="12" rx="6" fill="white" stroke="#7238FA" stroke-width="4"/>
<rect x="18" y="156" width="12" height="12" rx="6" fill="white" stroke="#7238FA" stroke-width="4"/>
<rect x="508" y="18" width="12" height="12" rx="6" fill="white" stroke="#7238FA" stroke-width="4"/>
<rect x="508" y="156" width="12" height="12" rx="6" fill="white" stroke="#7238FA" stroke-width="4"/>
<g filter="url(#filter0_d_920_496)">
<path fill-rule="evenodd" clip-rule="evenodd" d="M524 102.743L503 93L507.967 116L514.036 106.916L524 102.743Z" fill="black"/>
<path d="M513.65 105.993L513.372 106.11L513.204 106.36L508.446 113.482L504.402 94.7526L521.523 102.696L513.65 105.993Z" stroke="white" stroke-width="2"/>
</g>
<defs>
<filter id="filter0_d_920_496" x="500" y="91" width="27" height="29" filterUnits="userSpaceOnUse" color-interpolation-filters="sRGB">
<feFlood flood-opacity="0" result="BackgroundImageFix"/>
<feColorMatrix in="SourceAlpha" type="matrix" values="0 0 0 0 0 0 0 0 0 0 0 0 0 0 0 0 0 0 127 0" result="hardAlpha"/>
<feOffset dy="1"/>
<feGaussianBlur stdDeviation="1.5"/>
<feColorMatrix type="matrix" values="0 0 0 0 0 0 0 0 0 0 0 0 0 0 0 0 0 0 0.25 0"/>
<feBlend mode="normal" in2="BackgroundImageFix" result="effect1_dropShadow_920_496"/>
<feBlend mode="normal" in="SourceGraphic" in2="effect1_dropShadow_920_496" result="shape"/>
</filter>
</defs>
</svg>
