<svg width="20" height="20" viewBox="0 0 20 20" fill="none" xmlns="http://www.w3.org/2000/svg">
<path d="M19.1194 7.8677L18.3992 7.1477C18.1191 6.8677 17.959 6.4877 17.959 6.0887V5.0577C17.959 3.3977 16.6085 2.0487 14.9479 2.0487H13.9176C13.5174 2.0487 13.1373 1.8877 12.8572 1.6077L12.1269 0.878698C10.9465 -0.291302 9.03579 -0.291302 7.86537 0.887698L7.14511 1.6077C6.865 1.8877 6.48487 2.0487 6.08472 2.0487H5.05435C3.39375 2.0487 2.04326 3.3977 2.04326 5.0577V6.0777C2.04326 6.4877 1.8832 6.8677 1.6031 7.1477L0.872832 7.8787C-0.297592 9.0577 -0.287588 10.9687 0.882836 12.1377L1.6031 12.8477C1.8832 13.1377 2.04326 13.5177 2.04326 13.9187V14.9477C2.04326 16.6077 3.39375 17.9587 5.05435 17.9587H6.08472C6.48487 17.9587 6.865 18.1177 7.14511 18.3977L7.87537 19.1287C8.46558 19.7087 9.23586 19.9977 10.0061 19.9977C10.7764 19.9977 11.5467 19.7087 12.1369 19.1177L12.8572 18.3977C13.1373 18.1177 13.5174 17.9587 13.9176 17.9587H14.9479C16.6085 17.9587 17.959 16.6077 17.959 14.9477V13.9187C17.959 13.5177 18.1191 13.1377 18.3992 12.8577L19.1094 12.1477C19.1194 12.1377 19.1294 12.1287 19.1395 12.1177C19.6997 11.5487 20.0098 10.7877 19.9998 9.9877C19.9998 9.1877 19.6897 8.4277 19.1194 7.8677Z" fill="#0AC20A"/>
<path d="M9.5572 13.0023C9.3725 13.0045 9.1878 12.9248 9.04543 12.7632L7.21478 10.6819C6.93099 10.3597 6.92811 9.835 7.20804 9.50842C7.48894 9.18184 7.94492 9.17852 8.22871 9.50067L9.54662 10.9974L12.7654 7.24893C13.0453 6.92235 13.5023 6.92013 13.7861 7.24228C14.0689 7.56444 14.0718 8.08918 13.7918 8.41576L10.0661 12.7554C9.92564 12.9192 9.7419 13.0012 9.5572 13.0023Z" fill="white"/>
</svg>
