<svg xmlns="http://www.w3.org/2000/svg" width="140" height="17" viewBox="0 0 140 17" fill="none">
  <path d="M135.975 13.7247C134.712 13.7247 133.485 13.387 132.555 12.7987C132.164 12.5515 132.095 12.0342 132.332 11.6374C132.652 11.1015 133.402 10.9918 133.958 11.2766C134.609 11.6107 135.388 11.8497 136.087 11.8497C137.119 11.8497 137.606 11.456 137.606 10.8935C137.606 9.41221 132.244 10.631 132.244 7.06846C132.244 5.54971 133.556 4.21846 135.956 4.21846C137.149 4.21846 138.157 4.54236 138.97 5.02661C139.345 5.2495 139.435 5.73563 139.22 6.11481C138.929 6.62849 138.203 6.72704 137.668 6.47792C137.169 6.24558 136.574 6.09346 135.956 6.09346C135.094 6.09346 134.531 6.46846 134.531 6.97471C134.531 8.30596 139.912 7.18096 139.912 10.8372C139.912 12.506 138.487 13.7247 135.975 13.7247Z" fill="url(#paint0_linear_13345_3630)"/>
  <path d="M130.367 12.2997C130.367 12.9624 129.829 13.4997 129.167 13.4997C128.504 13.4997 127.967 12.9624 127.967 12.2997V8.02471C127.967 6.76846 127.31 6.33721 126.298 6.33721C126.005 6.33721 125.735 6.38831 125.488 6.47457C124.528 6.8108 124.235 7.94038 124.235 8.95801V12.3091C124.235 12.9666 123.702 13.4997 123.045 13.4997C122.387 13.4997 121.854 12.9666 121.854 12.3091V5.63408C121.854 4.97652 122.387 4.44346 123.045 4.44346H123.921C124.094 4.44346 124.235 4.58436 124.235 4.75817C124.235 5.05 124.625 5.20801 124.861 5.03651C125.486 4.58241 126.359 4.21846 127.404 4.21846C129.41 4.21846 130.367 5.34346 130.367 7.10596V12.2997Z" fill="url(#paint1_linear_13345_3630)"/>
  <path d="M115.269 13.7247C112.288 13.7247 110.488 11.531 110.488 8.96221C110.488 6.39346 112.288 4.21846 115.269 4.21846C118.269 4.21846 120.069 6.39346 120.069 8.96221C120.069 11.531 118.269 13.7247 115.269 13.7247ZM115.269 11.606C116.769 11.606 117.594 10.3872 117.594 8.96221C117.594 7.55596 116.769 6.33721 115.269 6.33721C113.788 6.33721 112.963 7.55596 112.963 8.96221C112.963 10.3872 113.788 11.606 115.269 11.606Z" fill="url(#paint2_linear_13345_3630)"/>
  <path d="M105.931 13.7247C103.156 13.7247 101.131 11.756 101.131 8.96221C101.131 6.18721 103.156 4.21846 105.931 4.21846C107.272 4.21846 108.232 4.63919 108.887 5.18378C109.29 5.51832 109.226 6.11854 108.845 6.47704C108.379 6.9151 107.624 6.79176 107.039 6.53384C106.744 6.40385 106.41 6.33721 106.044 6.33721C104.6 6.33721 103.588 7.38721 103.588 8.96221C103.588 10.5372 104.6 11.606 106.044 11.606C106.414 11.606 106.749 11.5306 107.046 11.3917C107.625 11.1211 108.374 11.0048 108.84 11.4423C109.224 11.8037 109.288 12.4086 108.883 12.7473C108.228 13.2958 107.27 13.7247 105.931 13.7247Z" fill="url(#paint3_linear_13345_3630)"/>
  <path d="M98.1514 3.46846C97.3826 3.46846 96.7451 2.83096 96.7451 2.04346C96.7451 1.25596 97.3826 0.637207 98.1514 0.637207C98.9389 0.637207 99.5764 1.25596 99.5764 2.04346C99.5764 2.83096 98.9389 3.46846 98.1514 3.46846ZM99.3514 12.3091C99.3514 12.9666 98.8183 13.4997 98.1607 13.4997C97.5032 13.4997 96.9701 12.9666 96.9701 12.3091V5.63408C96.9701 4.97652 97.5032 4.44346 98.1607 4.44346C98.8183 4.44346 99.3514 4.97652 99.3514 5.63408V12.3091Z" fill="url(#paint4_linear_13345_3630)"/>
  <path d="M90.8626 13.7244C88.1064 13.7244 86.0251 11.8682 86.0251 8.96192C86.0251 6.33692 87.9751 4.21817 90.7126 4.21817C93.4314 4.21817 95.2502 6.24317 95.2502 9.18692C95.2502 9.49758 94.9983 9.74942 94.6877 9.74942H89.392C88.9327 9.74942 88.5742 10.1714 88.8021 10.5701C89.2052 11.2754 89.9921 11.7744 91.1251 11.7744C91.6283 11.7744 92.252 11.6379 92.7859 11.3858C93.207 11.1869 93.7646 11.2461 94.0261 11.6315L94.2301 11.932C94.439 12.2399 94.3933 12.6604 94.0805 12.8621C93.1997 13.4299 92.0247 13.7244 90.8626 13.7244ZM92.1446 8.09942C92.5844 8.09942 92.9397 7.71052 92.7476 7.31484C92.4487 6.69928 91.8229 6.16817 90.7126 6.16817C89.6652 6.16817 89.0396 6.68388 88.7299 7.3042C88.5312 7.70229 88.8874 8.09942 89.3323 8.09942H92.1446Z" fill="white"/>
  <path d="M84.6377 12.3009C85.0068 12.7955 84.6538 13.4994 84.0366 13.4994H82.9451C82.6983 13.4994 82.4672 13.3779 82.3273 13.1746L80.6794 10.78C80.4079 10.3854 79.8411 10.343 79.5139 10.6928L79.2656 10.9582C79.1356 11.0971 79.0633 11.2803 79.0633 11.4705V12.7494C79.0633 13.1636 78.7275 13.4994 78.3133 13.4994H77.4321C77.0179 13.4994 76.6821 13.1636 76.6821 12.7494V1.74316C76.6821 1.32895 77.0179 0.993164 77.4321 0.993164H78.3133C78.7275 0.993164 79.0633 1.32895 79.0633 1.74316V6.43615C79.0633 7.13374 79.9323 7.45349 80.3845 6.92227L82.27 4.70704C82.4125 4.53963 82.6213 4.44317 82.8411 4.44317H83.7703C84.4141 4.44317 84.7587 5.20094 84.3355 5.68613L82.2363 8.09314C82.0041 8.35936 81.9892 8.75152 82.2004 9.03464L84.6377 12.3009Z" fill="white"/>
  <path d="M70.0972 13.7244C67.1159 13.7244 65.3159 11.5307 65.3159 8.96192C65.3159 6.39317 67.1159 4.21817 70.0972 4.21817C73.0972 4.21817 74.8972 6.39317 74.8972 8.96192C74.8972 11.5307 73.0972 13.7244 70.0972 13.7244ZM70.0972 11.6057C71.5972 11.6057 72.4222 10.3869 72.4222 8.96192C72.4222 7.55567 71.5972 6.33692 70.0972 6.33692C68.6159 6.33692 67.7909 7.55567 67.7909 8.96192C67.7909 10.3869 68.6159 11.6057 70.0972 11.6057Z" fill="white"/>
  <path d="M61.5218 12.7494C61.5218 13.1636 61.186 13.4994 60.7718 13.4994H59.8906C59.4764 13.4994 59.1406 13.1636 59.1406 12.7494V5.19317C59.1406 4.77895 59.4764 4.44317 59.8906 4.44317H61.1979C61.3768 4.44317 61.5218 4.58821 61.5218 4.76712C61.5218 5.07012 61.9271 5.22954 62.1671 5.0446C62.6028 4.70887 63.1205 4.44219 63.6667 4.30966C64.0692 4.21199 64.4093 4.55395 64.4093 4.96817V5.88323C64.4093 6.2219 64.0917 6.48692 63.7531 6.48692C63.0483 6.48692 62.1332 6.84737 61.6665 7.33976C61.5634 7.4486 61.5218 7.59832 61.5218 7.74828V12.7494Z" fill="white"/>
  <path d="M55.8426 13.7244C54.1739 13.7244 53.2926 12.8619 53.2926 11.2307V7.27441C53.2926 6.8602 52.9568 6.52442 52.5426 6.52442C52.1284 6.52442 51.7926 6.18863 51.7926 5.77442V5.19317C51.7926 4.77895 52.1284 4.44317 52.5426 4.44317C52.9568 4.44317 53.2926 4.10738 53.2926 3.69317V2.71817C53.2926 2.30395 53.6284 1.96817 54.0426 1.96817H54.9239C55.3381 1.96817 55.6739 2.30395 55.6739 2.71817V3.69317C55.6739 4.10738 56.0097 4.44317 56.4239 4.44317H56.7614C57.1756 4.44317 57.5114 4.77895 57.5114 5.19317V5.77442C57.5114 6.18863 57.1756 6.52442 56.7614 6.52442H56.4239C56.0097 6.52442 55.6739 6.8602 55.6739 7.27442V10.5932C55.6739 11.1744 55.9739 11.6057 56.4989 11.6057C56.8823 11.6057 57.4605 11.8151 57.5633 12.1845L57.7051 12.694C57.7817 12.969 57.6989 13.2731 57.4445 13.4027C57.0715 13.5928 56.5464 13.7244 55.8426 13.7244Z" fill="white"/>
  <path d="M47.1321 13.7244C45.7981 13.7244 44.5046 13.3478 43.5589 12.6972C43.2663 12.4959 43.2127 12.0998 43.3949 11.7949L43.6339 11.3951C43.88 10.9835 44.4523 10.9009 44.8673 11.1413C45.5621 11.544 46.4543 11.8494 47.2446 11.8494C48.2758 11.8494 48.7633 11.4557 48.7633 10.8932C48.7633 9.41192 43.4008 10.6307 43.4008 7.06817C43.4008 5.54942 44.7133 4.21817 47.1133 4.21817C48.3546 4.21817 49.3955 4.56887 50.2258 5.08601C50.5397 5.2815 50.6164 5.69295 50.4341 6.01466L50.2891 6.27042C50.0422 6.70624 49.43 6.78856 48.9858 6.55688C48.456 6.28049 47.7991 6.09317 47.1133 6.09317C46.2508 6.09317 45.6883 6.46816 45.6883 6.97442C45.6883 8.30567 51.0696 7.18067 51.0696 10.8369C51.0696 12.5057 49.6446 13.7244 47.1321 13.7244Z" fill="white"/>
  <path d="M41.5239 12.7494C41.5239 13.1636 41.1881 13.4994 40.7739 13.4994H39.8739C39.4597 13.4994 39.1239 13.1636 39.1239 12.7494V8.02442C39.1239 6.76817 38.4677 6.33692 37.4552 6.33692C36.6353 6.33692 35.9874 6.73849 35.5619 7.19042C35.4467 7.31277 35.3927 7.47826 35.3927 7.64631V12.7494C35.3927 13.1636 35.0569 13.4994 34.6427 13.4994H33.7614C33.3472 13.4994 33.0114 13.1636 33.0114 12.7494V5.19317C33.0114 4.77895 33.3472 4.44317 33.7614 4.44317H35.078C35.2518 4.44317 35.3927 4.58407 35.3927 4.75788C35.3927 5.04971 35.782 5.20772 36.0181 5.03622C36.6433 4.58212 37.5162 4.21817 38.5614 4.21817C40.5677 4.21817 41.5239 5.34317 41.5239 7.10567V12.7494Z" fill="white"/>
  <path d="M26.9039 13.7244C24.1477 13.7244 22.0664 11.8682 22.0664 8.96192C22.0664 6.33692 24.0164 4.21817 26.7539 4.21817C29.4727 4.21817 31.2914 6.24317 31.2914 9.18692C31.2914 9.49758 31.0396 9.74942 30.7289 9.74942H25.4332C24.974 9.74942 24.6155 10.1714 24.8434 10.5701C25.2465 11.2754 26.0333 11.7744 27.1664 11.7744C27.6696 11.7744 28.2933 11.6379 28.8271 11.3858C29.2483 11.1869 29.8059 11.2461 30.0674 11.6315L30.2713 11.932C30.4803 12.2399 30.4345 12.6604 30.1218 12.8621C29.2409 13.4299 28.066 13.7244 26.9039 13.7244ZM28.1859 8.09942C28.6257 8.09942 28.981 7.71052 28.7888 7.31484C28.49 6.69928 27.8642 6.16817 26.7539 6.16817C25.7064 6.16817 25.0809 6.68388 24.7712 7.3042C24.5724 7.70229 24.9286 8.09942 25.3736 8.09942H28.1859Z" fill="white"/>
  <path d="M16.8913 13.7244C16.519 13.7244 16.1581 13.6698 15.8142 13.559C15.1393 13.3417 14.0975 13.766 14.0975 14.475V16.1994C14.0975 16.6136 13.7617 16.9494 13.3475 16.9494H12.4663C12.052 16.9494 11.7163 16.6136 11.7163 16.1994V5.19317C11.7163 4.77895 12.052 4.44317 12.4663 4.44317H13.8033C13.9658 4.44317 14.0975 4.57491 14.0975 4.73742C14.0975 5.01673 14.4752 5.15839 14.693 4.98358C15.313 4.48603 16.0712 4.21817 16.8913 4.21817C19.2163 4.21817 20.9038 5.94317 20.9038 8.96192C20.9038 11.9807 19.2163 13.7244 16.8913 13.7244ZM16.1413 11.6057C17.51 11.6057 18.4475 10.5369 18.4475 8.96192C18.4475 7.40567 17.51 6.33692 16.1413 6.33692C15.4531 6.33692 14.6898 6.68248 14.2415 7.18531C14.1405 7.29855 14.0975 7.44939 14.0975 7.60111V10.3255C14.0975 10.4755 14.1394 10.6247 14.2389 10.7369C14.6774 11.2313 15.4543 11.6057 16.1413 11.6057Z" fill="white"/>
  <path d="M5.13135 13.7244C2.1501 13.7244 0.350098 11.5307 0.350098 8.96192C0.350098 6.39317 2.1501 4.21817 5.13135 4.21817C8.13135 4.21817 9.93135 6.39317 9.93135 8.96192C9.93135 11.5307 8.13135 13.7244 5.13135 13.7244ZM5.13135 11.6057C6.63135 11.6057 7.45635 10.3869 7.45635 8.96192C7.45635 7.55567 6.63135 6.33692 5.13135 6.33692C3.6501 6.33692 2.8251 7.55567 2.8251 8.96192C2.8251 10.3869 3.6501 11.6057 5.13135 11.6057Z" fill="white"/>
  <defs>
    <linearGradient id="paint0_linear_13345_3630" x1="86.3751" y1="-11.1253" x2="138.005" y2="40.3936" gradientUnits="userSpaceOnUse">
      <stop stop-color="#FFC109"/>
      <stop offset="1" stop-color="#FF0AE6"/>
    </linearGradient>
    <linearGradient id="paint1_linear_13345_3630" x1="86.3751" y1="-11.1253" x2="138.005" y2="40.3936" gradientUnits="userSpaceOnUse">
      <stop stop-color="#FFC109"/>
      <stop offset="1" stop-color="#FF0AE6"/>
    </linearGradient>
    <linearGradient id="paint2_linear_13345_3630" x1="86.3751" y1="-11.1253" x2="138.005" y2="40.3936" gradientUnits="userSpaceOnUse">
      <stop stop-color="#FFC109"/>
      <stop offset="1" stop-color="#FF0AE6"/>
    </linearGradient>
    <linearGradient id="paint3_linear_13345_3630" x1="86.3751" y1="-11.1253" x2="138.005" y2="40.3936" gradientUnits="userSpaceOnUse">
      <stop stop-color="#FFC109"/>
      <stop offset="1" stop-color="#FF0AE6"/>
    </linearGradient>
    <linearGradient id="paint4_linear_13345_3630" x1="86.3751" y1="-11.1253" x2="138.005" y2="40.3936" gradientUnits="userSpaceOnUse">
      <stop stop-color="#FFC109"/>
      <stop offset="1" stop-color="#FF0AE6"/>
    </linearGradient>
  </defs>
</svg>