<svg width="140" height="17" viewBox="0 0 140 17" fill="none" xmlns="http://www.w3.org/2000/svg">
<g id="openstrokeicons">
<g id="Vector">
<path d="M135.975 13.725C134.712 13.725 133.485 13.3873 132.555 12.799C132.164 12.5517 132.095 12.0344 132.332 11.6376C132.652 11.1018 133.402 10.9921 133.958 11.2769C134.609 11.6109 135.388 11.85 136.087 11.85C137.119 11.85 137.606 11.4562 137.606 10.8937C137.606 9.41245 132.244 10.6312 132.244 7.0687C132.244 5.54995 133.556 4.2187 135.956 4.2187C137.149 4.2187 138.157 4.5426 138.97 5.02685C139.345 5.24974 139.435 5.73587 139.22 6.11505C138.929 6.62873 138.203 6.72728 137.668 6.47817C137.169 6.24583 136.574 6.0937 135.956 6.0937C135.094 6.0937 134.531 6.4687 134.531 6.97495C134.531 8.3062 139.912 7.1812 139.912 10.8375C139.912 12.5062 138.487 13.725 135.975 13.725Z" fill="url(#paint0_linear_12700_4650)"/>
<path d="M130.367 12.2999C130.367 12.9627 129.829 13.5 129.167 13.5C128.504 13.5 127.967 12.9627 127.967 12.2999V8.02495C127.967 6.7687 127.31 6.33745 126.298 6.33745C126.005 6.33745 125.735 6.38855 125.488 6.47481C124.528 6.81105 124.235 7.94063 124.235 8.95826V12.3093C124.235 12.9669 123.702 13.5 123.045 13.5C122.387 13.5 121.854 12.9669 121.854 12.3093V5.63433C121.854 4.97676 122.387 4.4437 123.045 4.4437H123.921C124.094 4.4437 124.235 4.58461 124.235 4.75842C124.235 5.05025 124.625 5.20826 124.861 5.03675C125.486 4.58266 126.359 4.2187 127.404 4.2187C129.41 4.2187 130.367 5.3437 130.367 7.1062V12.2999Z" fill="url(#paint1_linear_12700_4650)"/>
<path d="M115.269 13.725C112.288 13.725 110.488 11.5312 110.488 8.96245C110.488 6.3937 112.288 4.2187 115.269 4.2187C118.269 4.2187 120.069 6.3937 120.069 8.96245C120.069 11.5312 118.269 13.725 115.269 13.725ZM115.269 11.6062C116.769 11.6062 117.594 10.3875 117.594 8.96245C117.594 7.5562 116.769 6.33745 115.269 6.33745C113.788 6.33745 112.963 7.5562 112.963 8.96245C112.963 10.3875 113.788 11.6062 115.269 11.6062Z" fill="url(#paint2_linear_12700_4650)"/>
<path d="M105.931 13.725C103.156 13.725 101.131 11.7562 101.131 8.96245C101.131 6.18745 103.156 4.2187 105.931 4.2187C107.272 4.2187 108.232 4.63943 108.887 5.18403C109.29 5.51856 109.226 6.11879 108.845 6.47728C108.379 6.91534 107.624 6.792 107.039 6.53408C106.744 6.40409 106.41 6.33745 106.044 6.33745C104.6 6.33745 103.588 7.38745 103.588 8.96245C103.588 10.5375 104.6 11.6062 106.044 11.6062C106.414 11.6062 106.749 11.5309 107.046 11.392C107.625 11.1213 108.374 11.005 108.84 11.4426C109.224 11.804 109.288 12.4089 108.883 12.7476C108.228 13.2961 107.27 13.725 105.931 13.725Z" fill="url(#paint3_linear_12700_4650)"/>
<path d="M98.1514 3.4687C97.3826 3.4687 96.7451 2.8312 96.7451 2.0437C96.7451 1.2562 97.3826 0.637451 98.1514 0.637451C98.9389 0.637451 99.5764 1.2562 99.5764 2.0437C99.5764 2.8312 98.9389 3.4687 98.1514 3.4687ZM99.3514 12.3093C99.3514 12.9669 98.8183 13.5 98.1607 13.5C97.5032 13.5 96.9701 12.9669 96.9701 12.3093V5.63433C96.9701 4.97676 97.5032 4.4437 98.1607 4.4437C98.8183 4.4437 99.3514 4.97676 99.3514 5.63433V12.3093Z" fill="url(#paint4_linear_12700_4650)"/>
</g>
<g id="Vector_2">
<path d="M90.8626 13.725C88.1064 13.725 86.0251 11.8688 86.0251 8.96253C86.0251 6.33753 87.9751 4.21878 90.7126 4.21878C93.4314 4.21878 95.2502 6.24378 95.2502 9.18753C95.2502 9.49819 94.9983 9.75003 94.6877 9.75003H89.392C88.9327 9.75003 88.5742 10.172 88.8021 10.5707C89.2052 11.276 89.9921 11.775 91.1251 11.775C91.6283 11.775 92.252 11.6385 92.7859 11.3864C93.207 11.1875 93.7646 11.2467 94.0261 11.6321L94.2301 11.9326C94.439 12.2406 94.3933 12.661 94.0805 12.8627C93.1997 13.4305 92.0247 13.725 90.8626 13.725ZM92.1446 8.10003C92.5844 8.10003 92.9397 7.71113 92.7476 7.31545C92.4487 6.69989 91.8229 6.16878 90.7126 6.16878C89.6652 6.16878 89.0396 6.68449 88.7299 7.30481C88.5312 7.70291 88.8874 8.10003 89.3323 8.10003H92.1446Z" fill="#1E3050"/>
<path d="M84.6377 12.3015C85.0068 12.7961 84.6538 13.5 84.0366 13.5H82.9451C82.6983 13.5 82.4672 13.3786 82.3273 13.1752L80.6794 10.7806C80.4079 10.386 79.8411 10.3436 79.5139 10.6934L79.2656 10.9588C79.1356 11.0977 79.0633 11.2809 79.0633 11.4711V12.75C79.0633 13.1642 78.7275 13.5 78.3133 13.5H77.4321C77.0179 13.5 76.6821 13.1642 76.6821 12.75V1.74377C76.6821 1.32956 77.0179 0.993774 77.4321 0.993774H78.3133C78.7275 0.993774 79.0633 1.32956 79.0633 1.74377V6.43676C79.0633 7.13435 79.9323 7.4541 80.3845 6.92288L82.27 4.70765C82.4125 4.54024 82.6213 4.44378 82.8411 4.44378H83.7703C84.4141 4.44378 84.7587 5.20155 84.3355 5.68674L82.2363 8.09375C82.0041 8.35997 81.9892 8.75214 82.2004 9.03525L84.6377 12.3015Z" fill="#1E3050"/>
<path d="M70.0972 13.725C67.1159 13.725 65.3159 11.5313 65.3159 8.96253C65.3159 6.39378 67.1159 4.21878 70.0972 4.21878C73.0972 4.21878 74.8972 6.39378 74.8972 8.96253C74.8972 11.5313 73.0972 13.725 70.0972 13.725ZM70.0972 11.6063C71.5972 11.6063 72.4222 10.3875 72.4222 8.96253C72.4222 7.55628 71.5972 6.33753 70.0972 6.33753C68.6159 6.33753 67.7909 7.55628 67.7909 8.96253C67.7909 10.3875 68.6159 11.6063 70.0972 11.6063Z" fill="#1E3050"/>
<path d="M61.5218 12.75C61.5218 13.1642 61.186 13.5 60.7718 13.5H59.8906C59.4764 13.5 59.1406 13.1642 59.1406 12.75V5.19378C59.1406 4.77956 59.4764 4.44378 59.8906 4.44378H61.1979C61.3768 4.44378 61.5218 4.58882 61.5218 4.76774C61.5218 5.07073 61.9271 5.23015 62.1671 5.04521C62.6028 4.70948 63.1205 4.4428 63.6667 4.31027C64.0692 4.2126 64.4093 4.55456 64.4093 4.96878V5.88384C64.4093 6.22251 64.0917 6.48753 63.7531 6.48753C63.0483 6.48753 62.1332 6.84798 61.6665 7.34037C61.5634 7.44921 61.5218 7.59893 61.5218 7.74889V12.75Z" fill="#1E3050"/>
<path d="M55.8426 13.725C54.1739 13.725 53.2926 12.8625 53.2926 11.2313V7.27502C53.2926 6.86081 52.9568 6.52503 52.5426 6.52503C52.1284 6.52503 51.7926 6.18924 51.7926 5.77503V5.19378C51.7926 4.77956 52.1284 4.44378 52.5426 4.44378C52.9568 4.44378 53.2926 4.10799 53.2926 3.69378V2.71878C53.2926 2.30456 53.6284 1.96878 54.0426 1.96878H54.9239C55.3381 1.96878 55.6739 2.30456 55.6739 2.71878V3.69378C55.6739 4.10799 56.0097 4.44378 56.4239 4.44378H56.7614C57.1756 4.44378 57.5114 4.77956 57.5114 5.19378V5.77503C57.5114 6.18924 57.1756 6.52503 56.7614 6.52503H56.4239C56.0097 6.52503 55.6739 6.86081 55.6739 7.27503V10.5938C55.6739 11.175 55.9739 11.6063 56.4989 11.6063C56.8823 11.6063 57.4605 11.8157 57.5633 12.1851L57.7051 12.6946C57.7817 12.9696 57.6989 13.2737 57.4445 13.4033C57.0715 13.5934 56.5464 13.725 55.8426 13.725Z" fill="#1E3050"/>
<path d="M47.1321 13.725C45.7981 13.725 44.5046 13.3484 43.5589 12.6978C43.2663 12.4965 43.2127 12.1004 43.3949 11.7955L43.6339 11.3957C43.88 10.9841 44.4523 10.9015 44.8673 11.142C45.5621 11.5447 46.4543 11.85 47.2446 11.85C48.2758 11.85 48.7633 11.4563 48.7633 10.8938C48.7633 9.41253 43.4008 10.6313 43.4008 7.06878C43.4008 5.55003 44.7133 4.21878 47.1133 4.21878C48.3546 4.21878 49.3955 4.56948 50.2258 5.08662C50.5397 5.28211 50.6164 5.69356 50.4341 6.01527L50.2891 6.27103C50.0422 6.70685 49.43 6.78917 48.9858 6.55749C48.456 6.2811 47.7991 6.09378 47.1133 6.09378C46.2508 6.09378 45.6883 6.46878 45.6883 6.97503C45.6883 8.30628 51.0696 7.18128 51.0696 10.8375C51.0696 12.5063 49.6446 13.725 47.1321 13.725Z" fill="#1E3050"/>
<path d="M41.5239 12.75C41.5239 13.1642 41.1881 13.5 40.7739 13.5H39.8739C39.4597 13.5 39.1239 13.1642 39.1239 12.75V8.02503C39.1239 6.76878 38.4677 6.33753 37.4552 6.33753C36.6353 6.33753 35.9874 6.7391 35.5619 7.19103C35.4467 7.31338 35.3927 7.47888 35.3927 7.64692V12.75C35.3927 13.1642 35.0569 13.5 34.6427 13.5H33.7614C33.3472 13.5 33.0114 13.1642 33.0114 12.75V5.19378C33.0114 4.77956 33.3472 4.44378 33.7614 4.44378H35.078C35.2518 4.44378 35.3927 4.58468 35.3927 4.75849C35.3927 5.05032 35.782 5.20833 36.0181 5.03683C36.6433 4.58273 37.5162 4.21878 38.5614 4.21878C40.5677 4.21878 41.5239 5.34378 41.5239 7.10628V12.75Z" fill="#1E3050"/>
<path d="M26.9039 13.725C24.1477 13.725 22.0664 11.8688 22.0664 8.96253C22.0664 6.33753 24.0164 4.21878 26.7539 4.21878C29.4727 4.21878 31.2914 6.24378 31.2914 9.18753C31.2914 9.49819 31.0396 9.75003 30.7289 9.75003H25.4332C24.974 9.75003 24.6155 10.172 24.8434 10.5707C25.2465 11.276 26.0333 11.775 27.1664 11.775C27.6696 11.775 28.2933 11.6385 28.8271 11.3864C29.2483 11.1875 29.8059 11.2467 30.0674 11.6321L30.2713 11.9326C30.4803 12.2406 30.4345 12.661 30.1218 12.8627C29.2409 13.4305 28.066 13.725 26.9039 13.725ZM28.1859 8.10003C28.6257 8.10003 28.981 7.71113 28.7888 7.31545C28.49 6.69989 27.8642 6.16878 26.7539 6.16878C25.7064 6.16878 25.0809 6.68449 24.7712 7.30481C24.5724 7.7029 24.9286 8.10003 25.3736 8.10003H28.1859Z" fill="#1E3050"/>
<path d="M16.8913 13.725C16.519 13.725 16.1581 13.6704 15.8142 13.5597C15.1393 13.3423 14.0975 13.7667 14.0975 14.4756V16.2C14.0975 16.6142 13.7617 16.95 13.3475 16.95H12.4663C12.052 16.95 11.7163 16.6142 11.7163 16.2V5.19378C11.7163 4.77956 12.052 4.44378 12.4663 4.44378H13.8033C13.9658 4.44378 14.0975 4.57552 14.0975 4.73803C14.0975 5.01734 14.4752 5.159 14.693 4.98419C15.313 4.48664 16.0712 4.21878 16.8913 4.21878C19.2163 4.21878 20.9038 5.94378 20.9038 8.96253C20.9038 11.9813 19.2163 13.725 16.8913 13.725ZM16.1413 11.6063C17.51 11.6063 18.4475 10.5375 18.4475 8.96253C18.4475 7.40628 17.51 6.33753 16.1413 6.33753C15.4531 6.33753 14.6898 6.68309 14.2415 7.18592C14.1405 7.29916 14.0975 7.45 14.0975 7.60172V10.3262C14.0975 10.4761 14.1394 10.6253 14.2389 10.7375C14.6774 11.2319 15.4543 11.6063 16.1413 11.6063Z" fill="#1E3050"/>
<path d="M5.13135 13.725C2.1501 13.725 0.350098 11.5313 0.350098 8.96253C0.350098 6.39378 2.1501 4.21878 5.13135 4.21878C8.13135 4.21878 9.93135 6.39378 9.93135 8.96253C9.93135 11.5313 8.13135 13.725 5.13135 13.725ZM5.13135 11.6063C6.63135 11.6063 7.45635 10.3875 7.45635 8.96253C7.45635 7.55628 6.63135 6.33753 5.13135 6.33753C3.6501 6.33753 2.8251 7.55628 2.8251 8.96253C2.8251 10.3875 3.6501 11.6063 5.13135 11.6063Z" fill="#1E3050"/>
</g>
</g>
<defs>
<linearGradient id="paint0_linear_12700_4650" x1="86.3751" y1="-11.125" x2="138.005" y2="40.3938" gradientUnits="userSpaceOnUse">
<stop stop-color="#FFC109"/>
<stop offset="1" stop-color="#FF0AE6"/>
</linearGradient>
<linearGradient id="paint1_linear_12700_4650" x1="86.3751" y1="-11.125" x2="138.005" y2="40.3938" gradientUnits="userSpaceOnUse">
<stop stop-color="#FFC109"/>
<stop offset="1" stop-color="#FF0AE6"/>
</linearGradient>
<linearGradient id="paint2_linear_12700_4650" x1="86.3751" y1="-11.125" x2="138.005" y2="40.3938" gradientUnits="userSpaceOnUse">
<stop stop-color="#FFC109"/>
<stop offset="1" stop-color="#FF0AE6"/>
</linearGradient>
<linearGradient id="paint3_linear_12700_4650" x1="86.3751" y1="-11.125" x2="138.005" y2="40.3938" gradientUnits="userSpaceOnUse">
<stop stop-color="#FFC109"/>
<stop offset="1" stop-color="#FF0AE6"/>
</linearGradient>
<linearGradient id="paint4_linear_12700_4650" x1="86.3751" y1="-11.125" x2="138.005" y2="40.3938" gradientUnits="userSpaceOnUse">
<stop stop-color="#FFC109"/>
<stop offset="1" stop-color="#FF0AE6"/>
</linearGradient>
</defs>
</svg>
