<svg width="26" height="26" viewBox="0 0 26 26" fill="none" xmlns="http://www.w3.org/2000/svg">
<g id="Icon / Trial">
<g id="Union" filter="url(#filter0_dif_12653_8534)">
<path d="M12.2275 5.39197L12.1471 5.69033C11.4306 8.35172 9.35173 10.4306 6.69034 11.1471L6.39197 11.2275V12.7725L6.69033 12.8528C9.35172 13.5694 11.4306 15.6482 12.1471 18.3096L12.2275 18.608H13.7725L13.8528 18.3096C14.5694 15.6482 16.6482 13.5694 19.3096 12.8528L19.608 12.7725V11.2275L19.3096 11.1472C16.6482 10.4306 14.5694 8.35173 13.8528 5.69034L13.7725 5.39197H12.2275Z" fill="url(#paint0_radial_12653_8534)"/>
<path d="M6.69033 12.8528L6.39197 12.7725L6.69033 12.8528ZM6.69033 12.8528C9.35172 13.5694 11.4306 15.6482 12.1471 18.3096L12.2275 18.608L6.69033 12.8528ZM12.2275 4.89197H11.8443L11.7447 5.26197L11.6643 5.56032L11.6643 5.56033C10.9941 8.04965 9.04966 9.99409 6.56034 10.6643L6.56033 10.6643L6.26197 10.7447L5.89197 10.8443V11.2275V12.7725V13.1556L6.26197 13.2553L6.56032 13.3356L6.56033 13.3356C9.04965 14.0058 10.9941 15.9503 11.6643 18.4396L11.6643 18.4396L11.7447 18.738L11.8443 19.108H12.2275H13.7725H14.1556L14.2553 18.738L14.3356 18.4397L14.3356 18.4396C15.0058 15.9503 16.9503 14.0058 19.4396 13.3356L19.4396 13.3356L19.738 13.2553L20.108 13.1556V12.7725V11.2275V10.8443L19.738 10.7447L19.4397 10.6643L19.4396 10.6643C16.9503 9.9941 15.0058 8.04966 14.3356 5.56034L14.3356 5.56033L14.2553 5.26196L14.1556 4.89197H13.7725H12.2275Z" stroke="#FEE78A" stroke-linecap="round"/>
</g>
</g>
<defs>
<filter id="filter0_dif_12653_8534" x="0.391968" y="0.391968" width="25.2161" height="25.2161" filterUnits="userSpaceOnUse" color-interpolation-filters="sRGB">
<feFlood flood-opacity="0" result="BackgroundImageFix"/>
<feColorMatrix in="SourceAlpha" type="matrix" values="0 0 0 0 0 0 0 0 0 0 0 0 0 0 0 0 0 0 127 0" result="hardAlpha"/>
<feOffset dy="1"/>
<feGaussianBlur stdDeviation="2.5"/>
<feComposite in2="hardAlpha" operator="out"/>
<feColorMatrix type="matrix" values="0 0 0 0 0.996078 0 0 0 0 0.815686 0 0 0 0 0.0980392 0 0 0 0.4 0"/>
<feBlend mode="normal" in2="BackgroundImageFix" result="effect1_dropShadow_12653_8534"/>
<feBlend mode="normal" in="SourceGraphic" in2="effect1_dropShadow_12653_8534" result="shape"/>
<feColorMatrix in="SourceAlpha" type="matrix" values="0 0 0 0 0 0 0 0 0 0 0 0 0 0 0 0 0 0 127 0" result="hardAlpha"/>
<feOffset dy="4"/>
<feGaussianBlur stdDeviation="1"/>
<feComposite in2="hardAlpha" operator="arithmetic" k2="-1" k3="1"/>
<feColorMatrix type="matrix" values="0 0 0 0 0.992157 0 0 0 0 0.819608 0 0 0 0 0.121569 0 0 0 0.15 0"/>
<feBlend mode="normal" in2="shape" result="effect2_innerShadow_12653_8534"/>
<feGaussianBlur stdDeviation="0.25" result="effect3_foregroundBlur_12653_8534"/>
</filter>
<radialGradient id="paint0_radial_12653_8534" cx="0" cy="0" r="1" gradientUnits="userSpaceOnUse" gradientTransform="translate(20.2 5.59998) rotate(135.855) scale(18.9526 18.4046)">
<stop offset="0.00428621" stop-color="#FFCC00"/>
<stop offset="1" stop-color="#FAD338"/>
</radialGradient>
</defs>
</svg>
