<svg width="79" height="149" viewBox="0 0 79 149" fill="none" xmlns="http://www.w3.org/2000/svg">
<path d="M42.0325 23.6205C39.3506 26.7422 36.2149 28.88 33.3658 29.8517C30.4852 30.834 28.1418 30.5637 26.6933 29.3194C25.2449 28.0751 24.6245 25.7991 25.1616 22.8035C25.6929 19.8405 27.3338 16.4186 30.0157 13.2969C32.6976 10.1753 35.8333 8.0375 38.6824 7.06582C41.5629 6.08344 43.9064 6.35375 45.3548 7.59809C46.8033 8.84244 47.4236 11.1184 46.8865 14.114C46.3553 17.077 44.7144 20.4989 42.0325 23.6205Z" fill="#36B289" stroke="#2B9471" stroke-width="2.50002"/>
<path d="M32.5336 26.0975C35.0761 30.5516 36.0723 35.2682 35.683 39.2618C35.2934 43.2592 33.5401 46.4189 30.6942 48.0433C27.8483 49.6677 24.236 49.5706 20.5959 47.8735C16.9591 46.1779 13.4043 42.9216 10.8619 38.4676C8.31948 34.0136 7.32323 29.297 7.7125 25.3034C8.10214 21.306 9.85543 18.1463 12.7013 16.5219C15.5472 14.8975 19.1595 14.9945 22.7997 16.6917C26.4364 18.3873 29.9912 21.6435 32.5336 26.0975Z" fill="#36B289" stroke="#2B9471" stroke-width="2.50002"/>
<path d="M64.6193 62.4204C61.072 63.3709 57.6481 63.2272 54.9977 62.2889C52.3408 61.3483 50.5821 59.6677 50.0271 57.5964C49.4721 55.5251 50.1548 53.1902 51.9854 51.0473C53.8116 48.9095 56.7049 47.0731 60.2523 46.1226C63.7997 45.1721 67.2236 45.3159 69.874 46.2542C72.5308 47.1947 74.2895 48.8754 74.8446 50.9467C75.3996 53.018 74.7168 55.3528 72.8862 57.4957C71.06 59.6335 68.1667 61.4699 64.6193 62.4204Z" fill="#36B289" stroke="#2B9471" stroke-width="2.50002"/>
<path d="M15.0429 77.9191C11.4955 76.9686 8.60216 75.1322 6.77599 72.9944C4.94541 70.8515 4.26262 68.5167 4.81764 66.4453C5.37265 64.374 7.1314 62.6934 9.78821 61.7528C12.4386 60.8145 15.8625 60.6708 19.4099 61.6213C22.9573 62.5718 25.8506 64.4082 27.6768 66.546C29.5074 68.6889 30.1901 71.0237 29.6351 73.095C29.0801 75.1664 27.3214 76.847 24.6646 77.7875C22.0141 78.7258 18.5902 78.8696 15.0429 77.9191Z" fill="#36B289" stroke="#2B9471" stroke-width="2.50002"/>
<path d="M55.9917 71.4456C55.3088 79.1227 52.4609 85.8227 48.4712 90.4548C44.4798 95.0889 39.4252 97.5807 34.256 97.121C29.0869 96.6612 24.5514 93.3164 21.4406 88.0506C18.3311 82.787 16.7104 75.6897 17.3933 68.0126C18.0761 60.3355 20.924 53.6356 24.9137 49.0034C28.9051 44.3693 33.9598 41.8775 39.1289 42.3373C44.298 42.797 48.8335 46.1418 51.9443 51.4076C55.0539 56.6712 56.6745 63.7685 55.9917 71.4456Z" fill="#36B289" stroke="#2B9471" stroke-width="2.50002"/>
<rect x="2.66016" y="145.674" width="70.0014" height="2.5" fill="#E8E9EB"/>
<path d="M8.28517 88.1736C8.28517 87.8284 8.565 87.5486 8.91018 87.5486H66.4113C66.7565 87.5486 67.0364 87.8284 67.0364 88.1736V135.673C67.0364 141.542 62.2793 146.299 56.4113 146.299H18.9103C13.0422 146.299 8.28517 141.542 8.28517 135.673V88.1736Z" fill="white" stroke="black" stroke-width="3.75004"/>
<path d="M13.9102 93.1736V128.174C13.9102 138.799 15.1602 140.674 21.4103 140.674" stroke="#EEEEF0" stroke-width="2.50002" stroke-linecap="round"/>
<path fill-rule="evenodd" clip-rule="evenodd" d="M39.8102 12.9487L41.8845 9.42358L41.9631 13.6146L39.8102 12.9487ZM15.6354 23.5083L15.8732 18.1736L17.8506 23.0945L15.6354 23.5083ZM23.9105 55.6736L25.7855 60.6736L27.6605 59.4236L23.9105 55.6736ZM22.0354 68.1736L20.1604 63.1736L23.9105 66.9236L22.0354 68.1736ZM29.5356 68.1736L27.6605 63.1736L31.4106 66.9236L29.5356 68.1736ZM29.5356 76.9236L27.6605 71.9236L31.4106 75.6736L29.5356 76.9236ZM30.1606 80.6736L32.0356 85.6736L33.9107 84.4236L30.1606 80.6736ZM21.4104 71.9236L23.2855 76.9236L25.1605 75.6736L21.4104 71.9236ZM25.7855 85.6736L23.9105 80.6736L27.6605 84.4236L25.7855 85.6736ZM15.2583 69.6456L12.6603 64.9802L16.9265 68.1306L15.2583 69.6456ZM7.66016 65.3538L10.717 69.7323L12.2233 68.0562L7.66016 65.3538ZM12.157 20.6736L13.2623 25.898L15.3033 24.9428L12.157 20.6736ZM23.1817 47.2622L23.0605 41.9236L25.3641 46.7005L23.1817 47.2622ZM19.3105 36.9236L19.4316 42.2622L21.614 41.7005L19.3105 36.9236ZM15.6815 37.2622L15.5604 31.9236L17.8639 36.7005L15.6815 37.2622ZM11.8103 26.9236L11.9315 32.2622L14.1138 31.7005L11.8103 26.9236ZM20.6613 24.7634L20.707 19.4236L22.8601 24.2701L20.6613 24.7634ZM25.7071 23.1736L25.6614 28.5134L27.8602 28.0201L25.7071 23.1736ZM41.8845 14.4236L39.8102 17.9487L41.9631 18.6146L41.8845 14.4236ZM36.0602 17.9487L38.1344 14.4236L38.213 18.6146L36.0602 17.9487ZM57.612 50.6736L54.2791 53.0444L55.9724 54.5314L57.612 50.6736ZM55.7157 57.2248L58.696 54.4236L57.5951 58.4682L55.7157 57.2248ZM69.4335 49.0964L66.9496 52.3459L69.0066 53.2664L69.4335 49.0964ZM59.6763 52.6822L62.1482 49.4236L61.7366 53.5951L59.6763 52.6822ZM67.6122 46.9236L64.2793 49.2944L65.9726 50.7814L67.6122 46.9236ZM58.1892 61.0816L60.698 57.8513L60.239 62.0179L58.1892 61.0816ZM64.8488 54.4236L62.0416 57.3983L63.9921 58.5269L64.8488 54.4236ZM67.2303 57.7915L69.551 54.4236L69.3301 58.6096L67.2303 57.7915ZM34.3843 14.4236L32.3101 17.9487L34.463 18.6146L34.3843 14.4236ZM33.5601 22.9487L35.6343 19.4236L35.713 23.6146L33.5601 22.9487ZM39.3844 19.4236L37.3102 22.9487L39.463 23.6146L39.3844 19.4236ZM29.81 21.6987L31.8843 18.1736L31.9629 22.3646L29.81 21.6987ZM36.8844 10.6736L34.8101 14.1987L36.963 14.8646L36.8844 10.6736ZM16.9426 31.0073L16.6835 25.6736L19.1098 30.3893L18.8384 30.4667L20.3432 34.3723L18.1223 34.7543L18.367 30.6011L16.9426 31.0073ZM22.1865 26.9236L21.8724 32.2543L24.0933 31.8723L22.1865 26.9236ZM22.6165 33.1736L21.7941 38.4499L24.0413 38.2819L22.6165 33.1736ZM25.5442 38.4499L26.3666 33.1736L27.7914 38.2819L25.5442 38.4499ZM29.0568 29.4236L27.9994 34.6579L30.2519 34.5905L29.0568 29.4236ZM30.5366 40.9432L31.4009 35.6736L32.7851 40.7931L30.5366 40.9432ZM26.6498 39.4236L26.6764 44.0239L28.5644 43.5719L26.6498 39.4236ZM13.9078 75.872L11.4102 71.1521L15.6081 74.393L13.9078 75.872ZM31.8159 54.4236L31.9296 59.7624L34.1127 59.2037L31.8159 54.4236ZM30.6795 51.0124L30.5659 45.6736L32.8627 50.4537L30.6795 51.0124ZM38.066 43.1736L38.1797 48.5124L40.3629 47.9537L38.066 43.1736ZM36.1661 55.5844L37.8948 50.532L38.4082 55.8104L36.1661 55.5844ZM37.0843 60.6736L35.3555 65.726L37.5977 65.952L37.0843 60.6736ZM35.3555 75.726L37.0843 70.6736L37.5977 75.952L35.3555 75.726ZM36.7815 79.4236L36.9322 84.7615L39.1114 84.1877L36.7815 79.4236ZM40.8953 63.5182L44.77 59.8435L42.777 64.7581L40.8953 63.5182ZM44.7654 68.1736L40.8907 71.8483L42.7724 73.0882L44.7654 68.1736ZM39.6407 79.3483L43.5153 75.6736L41.5224 80.5882L39.6407 79.3483ZM47.2654 50.6736L43.3908 54.3483L45.2725 55.5882L47.2654 50.6736ZM48.5453 63.4395L52.065 59.4236L50.5333 64.5009L48.5453 63.4395ZM50.815 69.4236L47.2953 73.4395L49.2832 74.5009L50.815 69.4236ZM44.7953 83.4395L48.3149 79.4236L46.7832 84.5009L44.7953 83.4395Z" fill="#2A9471"/>
</svg>
