<svg width="510" height="233" viewBox="0 0 510 233" fill="none" xmlns="http://www.w3.org/2000/svg">
<mask id="mask0_13469_6673" style="mask-type:alpha" maskUnits="userSpaceOnUse" x="0" y="0" width="510" height="233">
<path d="M254.996 232.466C344.024 232.466 429.738 218.404 510 192.4V0H0V192.403C80.2595 218.405 165.971 232.466 254.996 232.466Z" fill="#D9D9D9"/>
</mask>
<g mask="url(#mask0_13469_6673)">
<rect x="235.389" y="77.1592" width="38.4095" height="91.8487" rx="19.2047" stroke="url(#paint0_linear_13469_6673)" stroke-width="8.34988"/>
<rect x="300.518" y="103.879" width="38.4095" height="91.8487" rx="19.2047" transform="rotate(90 300.518 103.879)" stroke="url(#paint1_linear_13469_6673)" stroke-width="8.34988"/>
<path fill-rule="evenodd" clip-rule="evenodd" d="M235.389 99.7031C237.695 99.7031 239.564 101.572 239.564 103.878C239.564 106.184 237.695 108.053 235.389 108.053C233.083 108.053 231.214 106.184 231.214 103.878C231.214 101.572 233.083 99.7031 235.389 99.7031ZM235.389 138.113C237.695 138.113 239.564 139.982 239.564 142.288C239.564 144.593 237.695 146.462 235.389 146.462C233.083 146.462 231.214 144.593 231.214 142.288C231.214 139.982 233.083 138.113 235.389 138.113ZM277.973 103.878C277.973 101.572 276.104 99.7031 273.798 99.7031C271.493 99.7031 269.623 101.572 269.623 103.878C269.623 106.184 271.493 108.053 273.798 108.053C276.104 108.053 277.973 106.184 277.973 103.878ZM273.798 138.113C276.104 138.113 277.973 139.982 277.973 142.288C277.973 144.593 276.104 146.462 273.798 146.462C271.493 146.462 269.623 144.593 269.623 142.288C269.623 139.982 271.493 138.113 273.798 138.113Z" fill="white"/>
<path d="M121.745 0.00195312V10.1628" stroke="#FF6D6C" stroke-width="4.00795" stroke-linecap="round"/>
<path d="M138.018 6.69824L130.785 13.883" stroke="#FF6D6C" stroke-width="4.00795" stroke-linecap="round"/>
<path d="M144.758 22.8623L134.53 22.8623" stroke="#FF6D6C" stroke-width="4.00795" stroke-linecap="round"/>
<path d="M138.018 39.0293L130.785 31.8445" stroke="#FF6D6C" stroke-width="4.00795" stroke-linecap="round"/>
<path d="M121.745 35.5645V45.7253" stroke="#FF6D6C" stroke-width="4.00795" stroke-linecap="round"/>
<path d="M112.705 31.8467L105.472 39.0315" stroke="#FF6D6C" stroke-width="4.00795" stroke-linecap="round"/>
<path d="M108.96 22.8623L98.7321 22.8623" stroke="#FF6D6C" stroke-width="4.00795" stroke-linecap="round"/>
<path d="M112.705 13.8809L105.472 6.69608" stroke="#FF6D6C" stroke-width="4.00795" stroke-linecap="round"/>
<path d="M409.775 171.094V181.255" stroke="#FF6D6C" stroke-width="4.00795" stroke-linecap="round"/>
<path d="M426.048 177.789L418.816 184.974" stroke="#FF6D6C" stroke-width="4.00795" stroke-linecap="round"/>
<path d="M432.788 193.956L422.56 193.956" stroke="#FF6D6C" stroke-width="4.00795" stroke-linecap="round"/>
<path d="M426.048 210.121L418.816 202.936" stroke="#FF6D6C" stroke-width="4.00795" stroke-linecap="round"/>
<path d="M409.775 206.657V216.818" stroke="#FF6D6C" stroke-width="4.00795" stroke-linecap="round"/>
<path d="M400.734 202.939L393.502 210.124" stroke="#FF6D6C" stroke-width="4.00795" stroke-linecap="round"/>
<path d="M396.99 193.956L386.762 193.956" stroke="#FF6D6C" stroke-width="4.00795" stroke-linecap="round"/>
<path d="M400.734 184.973L393.502 177.788" stroke="#FF6D6C" stroke-width="4.00795" stroke-linecap="round"/>
<g opacity="0.4" filter="url(#filter0_f_13469_6673)">
<path d="M510.494 221.937C510.494 221.937 432.977 240.746 382.994 239.134C332.274 237.499 306.272 221.937 255.494 221.937C204.716 221.937 178.714 237.499 127.994 239.134C78.011 240.746 0.494142 221.937 0.494142 221.937L0.494163 -12.7676L510.494 -12.7675L510.494 221.937Z" fill="url(#paint2_linear_13469_6673)" fill-opacity="0.2"/>
</g>
<path d="M446.507 22.0869V32.2477" stroke="#FF6D6C" stroke-width="4.00795" stroke-linecap="round"/>
<path d="M462.779 28.7832L455.547 35.968" stroke="#FF6D6C" stroke-width="4.00795" stroke-linecap="round"/>
<path d="M469.52 44.9473L459.292 44.9473" stroke="#FF6D6C" stroke-width="4.00795" stroke-linecap="round"/>
<path d="M462.779 61.1143L455.547 53.9295" stroke="#FF6D6C" stroke-width="4.00795" stroke-linecap="round"/>
<path d="M446.507 57.6494V67.8102" stroke="#FF6D6C" stroke-width="4.00795" stroke-linecap="round"/>
<path d="M437.466 53.9336L430.234 61.1184" stroke="#FF6D6C" stroke-width="4.00795" stroke-linecap="round"/>
<path d="M433.722 44.9473L423.494 44.9473" stroke="#FF6D6C" stroke-width="4.00795" stroke-linecap="round"/>
<path d="M437.466 35.9658L430.234 28.781" stroke="#FF6D6C" stroke-width="4.00795" stroke-linecap="round"/>
<g opacity="0.8">
<path d="M48.9951 187.32V197.481" stroke="#FF6D6C" stroke-width="4.00795" stroke-linecap="round"/>
<path d="M65.2671 194.017L58.0349 201.201" stroke="#FF6D6C" stroke-width="4.00795" stroke-linecap="round"/>
<path d="M72.0078 210.183L61.7799 210.183" stroke="#FF6D6C" stroke-width="4.00795" stroke-linecap="round"/>
<path d="M65.2676 226.348L58.0354 219.163" stroke="#FF6D6C" stroke-width="4.00795" stroke-linecap="round"/>
<path d="M48.9951 222.884V233.045" stroke="#FF6D6C" stroke-width="4.00795" stroke-linecap="round"/>
<path d="M39.9546 219.167L32.7224 226.352" stroke="#FF6D6C" stroke-width="4.00795" stroke-linecap="round"/>
<path d="M36.2104 210.183L25.9826 210.183" stroke="#FF6D6C" stroke-width="4.00795" stroke-linecap="round"/>
<path d="M39.9546 201.199L32.7224 194.014" stroke="#FF6D6C" stroke-width="4.00795" stroke-linecap="round"/>
</g>
<path opacity="0.8" d="M128.762 96.6014C129.362 98.8291 127.31 100.868 125.068 100.271L113.635 97.2273C111.392 96.6304 110.641 93.8456 112.283 92.2148L120.652 83.8998C122.294 82.269 125.097 83.0152 125.698 85.2429L128.762 96.6014Z" fill="#C6A3FF"/>
<rect opacity="0.8" width="13.1127" height="13.1127" rx="4.00795" transform="matrix(0.70943 -0.704776 0.70943 0.704776 111.503 166.476)" fill="#FDDE51"/>
<ellipse opacity="0.8" cx="195.608" cy="218.293" rx="7.79463" ry="8.11223" stroke="#C6A3FF" stroke-width="4.00795"/>
<path opacity="0.8" d="M183.633 65.0411C185.879 65.6389 186.635 68.4419 184.991 70.0751L184.827 70.2378C183.19 71.864 180.399 71.1099 179.797 68.879L179.737 68.6567C179.135 66.4258 181.173 64.3863 183.409 64.9815L183.633 65.0411Z" fill="#C6A3FF"/>
<path opacity="0.8" d="M331.604 51.4189C332.205 53.6466 330.153 55.6852 327.91 55.0883L307.264 49.5924C305.022 48.9955 304.271 46.2108 305.912 44.5799L321.026 29.5649C322.668 27.9341 325.471 28.6802 326.072 30.908L331.604 51.4189Z" fill="#C6A3FF"/>
<ellipse opacity="0.8" cx="377.483" cy="98.4531" rx="6.30994" ry="6.26854" stroke="#FDDE51" stroke-width="4.00795"/>
<path opacity="0.8" d="M316.322 204.382C316.923 206.61 314.871 208.648 312.628 208.051L307.537 206.696C305.294 206.099 304.543 203.314 306.185 201.684L309.912 197.981C311.554 196.35 314.357 197.096 314.958 199.324L316.322 204.382Z" fill="#FF7271"/>
<path opacity="0.8" d="M353.689 141.253C354.829 139.168 357.823 139.168 358.963 141.253L364.179 150.789C365.274 152.792 363.825 155.237 361.542 155.237H351.11C348.827 155.237 347.377 152.792 348.473 150.789L353.689 141.253Z" fill="#FF7A79"/>
<ellipse opacity="0.8" cx="243.119" cy="22.1249" rx="7.79463" ry="8.11223" stroke="#FDDE51" stroke-width="4.00795"/>
<rect opacity="0.8" width="17.0807" height="17.0807" rx="4.00795" transform="matrix(0.70943 -0.704776 0.70943 0.704776 33.4062 65.874)" fill="#FF7A79"/>
<rect opacity="0.8" width="19.6036" height="19.6036" rx="4.00795" transform="matrix(0.70943 -0.704776 0.70943 0.704776 464.709 157.626)" fill="#FF7A79"/>
<path opacity="0.8" d="M56.7957 129.399C59.0414 129.997 59.7974 132.8 58.1535 134.433L55.8567 136.715C54.2197 138.341 51.4285 137.587 50.8268 135.356L49.9861 132.239C49.3844 130.008 51.4221 127.968 53.6582 128.564L56.7957 129.399Z" fill="#FDDE51"/>
</g>
<defs>
<filter id="filter0_f_13469_6673" x="-199.506" y="-212.768" width="910" height="652" filterUnits="userSpaceOnUse" color-interpolation-filters="sRGB">
<feFlood flood-opacity="0" result="BackgroundImageFix"/>
<feBlend mode="normal" in="SourceGraphic" in2="BackgroundImageFix" result="shape"/>
<feGaussianBlur stdDeviation="100" result="effect1_foregroundBlur_13469_6673"/>
</filter>
<linearGradient id="paint0_linear_13469_6673" x1="254.593" y1="51.692" x2="302.573" y2="76.0086" gradientUnits="userSpaceOnUse">
<stop stop-color="#4CC3F9"/>
<stop offset="1" stop-color="#7638FA"/>
</linearGradient>
<linearGradient id="paint1_linear_13469_6673" x1="292.168" y1="85.5092" x2="361.439" y2="90.3591" gradientUnits="userSpaceOnUse">
<stop stop-color="#FFC109"/>
<stop offset="1" stop-color="#FF0AE6"/>
</linearGradient>
<linearGradient id="paint2_linear_13469_6673" x1="63.5832" y1="30.8105" x2="447.525" y2="30.8106" gradientUnits="userSpaceOnUse">
<stop stop-color="#2694FF"/>
<stop offset="0.489748" stop-color="#C35FE9"/>
<stop offset="1" stop-color="#7238FA"/>
</linearGradient>
</defs>
</svg>
