<svg xmlns="http://www.w3.org/2000/svg" width="61" height="60" viewBox="0 0 61 60" fill="none">
  <g clip-path="url(#clip0_13469_6744)">
    <path d="M30.5 59.75C46.9305 59.75 60.25 46.4305 60.25 30C60.25 13.5695 46.9305 0.25 30.5 0.25C14.0695 0.25 0.75 13.5695 0.75 30C0.75 46.4305 14.0695 59.75 30.5 59.75Z" fill="#F1615F"/>
    <path d="M30.4998 12.3496C25.7098 12.3496 25.0998 12.3696 23.2198 12.4596C21.3398 12.5496 20.0598 12.8396 18.9398 13.2796C17.7798 13.7296 16.7898 14.3296 15.8098 15.3196C14.8298 16.2996 14.2298 17.2896 13.7698 18.4496C13.3298 19.5696 13.0298 20.8596 12.9498 22.7296C12.8698 24.6096 12.8398 25.2096 12.8398 30.0096C12.8398 34.7996 12.8598 35.3996 12.9498 37.2896C13.0398 39.1696 13.3298 40.4496 13.7698 41.5696C14.2198 42.7296 14.8198 43.7196 15.8098 44.6996C16.7898 45.6796 17.7798 46.2896 18.9398 46.7396C20.0598 47.1796 21.3498 47.4696 23.2198 47.5596C25.0998 47.6496 25.6998 47.6696 30.4998 47.6696C35.2898 47.6696 35.8898 47.6496 37.7798 47.5596C39.6598 47.4696 40.9398 47.1796 42.0698 46.7396C43.2298 46.2896 44.2098 45.6796 45.1898 44.6996C46.1698 43.7196 46.7698 42.7296 47.2298 41.5696C47.6598 40.4496 47.9598 39.1696 48.0498 37.2896C48.1298 35.4096 48.1598 34.8096 48.1598 30.0096C48.1598 25.2196 48.1398 24.6196 48.0498 22.7296C47.9598 20.8496 47.6598 19.5696 47.2298 18.4496C46.7798 17.2896 46.1698 16.2996 45.1898 15.3196C44.2098 14.3396 43.2298 13.7396 42.0598 13.2796C40.9298 12.8396 39.6498 12.5496 37.7698 12.4596C35.8898 12.3696 35.2898 12.3496 30.4998 12.3496ZM28.9198 15.5296C29.3898 15.5296 29.9098 15.5296 30.4998 15.5296C35.2098 15.5296 35.7698 15.5496 37.6298 15.6296C39.3498 15.7096 40.2798 15.9996 40.9098 16.2396C41.7298 16.5596 42.3198 16.9396 42.9398 17.5596C43.5598 18.1796 43.9398 18.7696 44.2598 19.5896C44.4998 20.2096 44.7898 21.1496 44.8698 22.8696C44.9498 24.7296 44.9698 25.2896 44.9698 29.9996C44.9698 34.7096 44.9498 35.2696 44.8698 37.1296C44.7898 38.8496 44.4998 39.7796 44.2598 40.4096C43.9398 41.2296 43.5598 41.8196 42.9398 42.4396C42.3198 43.0596 41.7398 43.4396 40.9098 43.7596C40.2898 43.9996 39.3498 44.2896 37.6298 44.3696C35.7698 44.4496 35.2098 44.4696 30.4998 44.4696C25.7898 44.4696 25.2298 44.4496 23.3698 44.3696C21.6498 44.2896 20.7198 43.9996 20.0898 43.7596C19.2698 43.4396 18.6798 43.0596 18.0598 42.4396C17.4398 41.8196 17.0598 41.2296 16.7398 40.4096C16.4998 39.7896 16.2098 38.8496 16.1298 37.1296C16.0498 35.2696 16.0298 34.7096 16.0298 29.9996C16.0298 25.2896 16.0498 24.7296 16.1298 22.8696C16.2098 21.1496 16.4998 20.2196 16.7398 19.5896C17.0598 18.7696 17.4398 18.1796 18.0598 17.5596C18.6798 16.9396 19.2698 16.5596 20.0898 16.2396C20.7098 15.9996 21.6498 15.7096 23.3698 15.6296C24.9998 15.5496 25.6298 15.5296 28.9198 15.5296ZM39.9198 18.4596C38.7498 18.4596 37.7998 19.4096 37.7998 20.5796C37.7998 21.7496 38.7498 22.6996 39.9198 22.6996C41.0898 22.6996 42.0398 21.7496 42.0398 20.5796C42.0398 19.4096 41.0898 18.4596 39.9198 18.4596ZM30.4998 20.9396C25.4898 20.9396 21.4398 24.9996 21.4398 29.9996C21.4398 35.0096 25.4998 39.0596 30.4998 39.0596C35.5098 39.0596 39.5598 34.9996 39.5598 29.9996C39.5598 24.9896 35.5098 20.9396 30.4998 20.9396ZM30.4998 24.1196C33.7498 24.1196 36.3798 26.7496 36.3798 29.9996C36.3798 33.2496 33.7498 35.8796 30.4998 35.8796C27.2498 35.8796 24.6198 33.2496 24.6198 29.9996C24.6198 26.7496 27.2498 24.1196 30.4998 24.1196Z" fill="white"/>
  </g>
  <defs>
    <clipPath id="clip0_13469_6744">
      <rect width="60" height="60" fill="white" transform="translate(0.5)"/>
    </clipPath>
  </defs>
</svg>