<svg xmlns="http://www.w3.org/2000/svg" width="61" height="60" viewBox="0 0 61 60" fill="none">
  <g clip-path="url(#clip0_13469_6731)">
    <path d="M30.5 60C47.0685 60 60.5 46.5685 60.5 30C60.5 13.4315 47.0685 0 30.5 0C13.9315 0 0.5 13.4315 0.5 30C0.5 46.5685 13.9315 60 30.5 60Z" fill="#0A66C2"/>
    <path d="M22.25 43.625H16.5V25.125H22.25V43.625ZM19.125 22.75C17 22.75 15.625 21.375 15.625 19.5C15.625 17.625 17 16.25 19.125 16.25C21.25 16.25 22.625 17.625 22.625 19.5C22.625 21.375 21.375 22.75 19.125 22.75ZM45.375 43.625H38.75V34C38.75 31.5 37.75 29.75 35.5 29.75C33.75 29.75 32.875 30.875 32.375 32C32.25 32.375 32.25 33 32.25 33.5V43.5H25.75C25.75 43.5 25.875 26.5 25.75 25H32.25V27.875C32.625 26.625 34.75 24.75 38 24.75C42.125 24.75 45.375 27.375 45.375 33.125V43.625Z" fill="white"/>
  </g>
  <defs>
    <clipPath id="clip0_13469_6731">
      <rect width="60" height="60" fill="white" transform="translate(0.5)"/>
    </clipPath>
  </defs>
</svg>