<svg xmlns="http://www.w3.org/2000/svg" width="61" height="60" viewBox="0 0 61 60" fill="none">
  <path d="M30.458 2.25C15.1247 2.25 2.70801 14.6667 2.70801 30C2.70801 41.75 9.99967 51.7917 20.333 55.8333C20.083 53.625 19.8747 50.2917 20.4163 47.875C20.9163 45.7083 23.6663 34.0833 23.6663 34.0833C23.6663 34.0833 22.833 32.4167 22.833 29.9583C22.833 26.0833 25.083 23.2083 27.833 23.2083C30.208 23.2083 31.333 25 31.333 27.125C31.333 29.5 29.833 33.0833 29.0413 36.375C28.3747 39.125 30.4163 41.375 33.1663 41.375C38.083 41.375 41.8747 36.1667 41.8747 28.6667C41.8747 22.0417 37.083 17.375 30.2913 17.375C22.4163 17.375 17.7497 23.2917 17.7497 29.4167C17.7497 31.7917 18.6663 34.375 19.833 35.75C20.0413 36.0417 20.083 36.25 20.0413 36.5417C19.833 37.4167 19.3747 39.2917 19.2913 39.6667C19.1663 40.1667 18.8747 40.2917 18.3747 40.0417C14.9163 38.4167 12.7497 33.375 12.7497 29.2917C12.7497 20.5417 19.1247 12.5 31.083 12.5C40.708 12.5 48.1663 19.375 48.1663 28.5C48.1663 38.0417 42.1247 45.75 33.7913 45.75C30.9997 45.75 28.333 44.2917 27.4163 42.5833C27.4163 42.5833 26.0413 47.875 25.708 49.1667C25.083 51.5833 23.3747 54.5833 22.2497 56.4583C24.833 57.25 27.583 57.7083 30.458 57.7083C45.7913 57.7083 58.208 45.2917 58.208 29.9583C58.208 14.6667 45.7913 2.25 30.458 2.25Z" fill="#E60023"/>
</svg>