<svg xmlns="http://www.w3.org/2000/svg" width="61" height="60" viewBox="0 0 61 60" fill="none">
  <g clip-path="url(#clip0_13469_6736)">
    <path fill-rule="evenodd" clip-rule="evenodd" d="M30.5 60C47.0685 60 60.5 46.5685 60.5 30C60.5 13.4315 47.0685 0 30.5 0C13.9315 0 0.5 13.4315 0.5 30C0.5 46.5685 13.9315 60 30.5 60ZM31.82 25.92C31.756 25.92 30.0274 23.68 27.98 20.96L24.2674 16H19.884C17.4674 16 15.5 16.0163 15.5 16.0474C15.5 16.08 18.06 19.52 21.18 23.68C24.3 27.856 26.844 31.3274 26.8274 31.3926C26.7963 31.44 24.2363 34.24 21.1474 37.584C18.044 40.9274 15.5 43.7126 15.5 43.76C15.5 43.8074 16.06 43.84 16.7474 43.84H17.98L22.86 38.544C25.5474 35.6326 27.82 33.184 27.916 33.104C28.044 33.007 29.356 34.624 32.156 38.384L36.22 43.824L40.5874 43.84C42.9726 43.84 44.94 43.7926 44.94 43.7126C44.94 43.6474 42.236 40 38.94 35.6L32.94 27.616L33.7074 26.8C34.14 26.3674 36.316 24.016 38.54 21.6C40.764 19.1837 42.844 16.9274 43.164 16.5926L43.724 16H41.116L36.524 20.96C34.0126 23.68 31.884 25.92 31.82 25.92Z" fill="black"/>
    <path d="M19.5194 18.224C19.5831 18.336 23.6141 23.744 28.4468 30.2074L37.2468 41.9837L39.2141 42C40.4305 42 41.1668 41.936 41.1341 41.84C41.1194 41.76 37.1031 36.3526 32.2394 29.84L23.3741 18H21.3908C19.7434 18 19.4068 18.0326 19.5194 18.224Z" fill="black"/>
  </g>
  <defs>
    <clipPath id="clip0_13469_6736">
      <rect width="60" height="60" fill="white" transform="translate(0.5)"/>
    </clipPath>
  </defs>
</svg>