<svg width="136" height="50" viewBox="0 0 136 50" fill="none" xmlns="http://www.w3.org/2000/svg">
<path fill-rule="evenodd" clip-rule="evenodd" d="M17.6784 9.47226C17.8223 9.25033 18.1471 9.25029 18.2911 9.47219L32.968 32.0885C33.1256 32.3315 32.9513 32.6525 32.6616 32.6525H30.9243C30.7388 32.6525 30.5658 32.5586 30.4648 32.403L18.1386 13.4124C18.0666 13.3015 17.9042 13.3015 17.8323 13.4125L16.7617 15.063C16.6832 15.1839 16.6833 15.3397 16.7617 15.4605L30.2575 36.2623C30.4152 36.5053 30.2408 36.8263 29.9512 36.8263H22.7974C22.6122 36.8263 22.4395 36.7326 22.3384 36.5774L12.6964 21.7725C12.6242 21.6617 12.4619 21.6619 12.3901 21.7729L11.332 23.4082C11.2537 23.5292 11.2539 23.6848 11.3324 23.8056L22.1373 40.4358C22.2951 40.6788 22.1208 41 21.831 41H14.6235C14.4368 41 14.263 40.9049 14.1623 40.7478L7.32811 30.0843C7.25627 29.9722 7.09251 29.9722 7.02065 30.0843L5.5584 32.3648C5.44551 32.5409 5.44272 32.7659 5.5512 32.9447L6.30356 34.1847C6.45123 34.4281 6.27601 34.7394 5.99133 34.7394H2.00198C1.71323 34.7394 1.53869 34.4201 1.69454 34.177L6.86214 26.1177C7.00582 25.8936 7.33325 25.8936 7.47697 26.1176L15.5767 38.7451C15.6439 38.8498 15.7597 38.9131 15.8841 38.9131H18.0909C18.2358 38.9131 18.3229 38.7526 18.2441 38.6311L8.6857 23.9096C8.56807 23.7284 8.56789 23.495 8.68523 23.3137L12.2303 17.8347C12.3739 17.6127 12.6986 17.6122 12.8429 17.8338L23.7995 34.6565C23.8332 34.7082 23.8907 34.7394 23.9525 34.7394H26.2231C26.3679 34.7394 26.4551 34.5789 26.3763 34.4574L14.1164 15.5602C13.9987 15.3788 13.9987 15.1453 14.1164 14.9639L17.6784 9.47226Z" fill="black"/>
<path fill-rule="evenodd" clip-rule="evenodd" d="M51.2328 28.0307H45.8302L43.7231 32.5853H41.334L44.4411 25.8693H50.2374L48.2787 21.6177H46.4158L46.571 21.2798C47.1566 20.0051 47.7353 18.7257 48.3301 17.4545L48.5424 17.0001L55.6663 32.5853H53.332L51.2328 28.0307ZM59.1968 25.2844C59.1867 26.0229 59.323 26.7557 59.5975 27.439C59.872 28.1223 60.2791 28.7418 60.7943 29.2604C61.3094 29.7789 61.922 30.1858 62.5951 30.4564C63.2683 30.727 63.9881 30.8559 64.7113 30.8352C65.6154 30.859 66.5113 30.6553 67.3201 30.2422C68.1289 29.8291 68.8257 29.2193 69.3491 28.4665L69.4906 28.2789L71.1846 29.606L71.0522 29.7924C70.1177 31.1172 68.7957 32.1053 67.2763 32.6148C65.7569 33.1242 64.1184 33.1286 62.5963 32.6275C61.0743 32.1264 59.7471 31.1454 58.8057 29.8258C57.8643 28.5061 57.3572 26.9157 57.3572 25.2833C57.3572 23.6508 57.8643 22.0604 58.8057 20.7407C59.7471 19.4211 61.0743 18.4402 62.5963 17.939C64.1184 17.4379 65.7569 17.4423 67.2763 17.9518C68.7957 18.4612 70.1177 19.4493 71.0522 20.7741L71.1846 20.9617L69.4906 22.2888L69.3491 22.1012C68.8257 21.3484 68.1289 20.7385 67.3201 20.3254C66.5113 19.9124 65.6154 19.7087 64.7113 19.7324C63.988 19.7118 63.2681 19.8407 62.5948 20.1114C61.9216 20.3821 61.309 20.789 60.7938 21.3077C60.2787 21.8264 59.8716 22.446 59.5972 23.1295C59.3227 23.8129 59.1866 24.5459 59.1968 25.2844ZM75.997 25.2844C75.9869 26.0229 76.1232 26.7557 76.3977 27.439C76.6722 28.1223 77.0793 28.7418 77.5944 29.2604C78.1096 29.7789 78.7221 30.1858 79.3953 30.4564C80.0684 30.727 80.7883 30.8559 81.5115 30.8352C82.4158 30.8623 83.3127 30.6604 84.1219 30.2475C84.9312 29.8345 85.6277 29.2235 86.1492 28.4688L86.2908 28.2789L87.9847 29.606L87.8523 29.7924C86.9178 31.1172 85.5958 32.1053 84.0764 32.6148C82.557 33.1242 80.9185 33.1286 79.3965 32.6275C77.8744 32.1264 76.5473 31.1454 75.6059 29.8258C74.6645 28.5061 74.1573 26.9157 74.1573 25.2833C74.1573 23.6508 74.6645 22.0604 75.6059 20.7407C76.5473 19.4211 77.8744 18.4402 79.3965 17.939C80.9185 17.4379 82.557 17.4423 84.0764 17.9518C85.5958 18.4612 86.9178 19.4493 87.8523 20.7741L87.9847 20.9617L86.2908 22.2888L86.1492 22.1C85.6278 21.3452 84.9314 20.7339 84.1221 20.3207C83.3128 19.9076 82.4159 19.7055 81.5115 19.7324C80.7882 19.7118 80.0682 19.8407 79.395 20.1114C78.7218 20.3821 78.1091 20.789 77.594 21.3077C77.0788 21.8264 76.6718 22.446 76.3973 23.1295C76.1229 23.8129 75.9867 24.5459 75.997 25.2844ZM116.151 26.6034L119.641 32.576H117.157L113.833 26.8993H111.122V32.576H108.97V24.7333H114.376C114.695 24.7684 115.019 24.7344 115.324 24.6335C115.63 24.5327 115.912 24.3672 116.151 24.1479C116.391 23.9286 116.582 23.6604 116.713 23.3606C116.844 23.0609 116.911 22.7364 116.911 22.4082C116.911 22.08 116.844 21.7555 116.713 21.4558C116.582 21.1561 116.391 20.8878 116.151 20.6685C115.912 20.4492 115.63 20.2838 115.324 20.1829C115.019 20.0821 114.695 20.0481 114.376 20.0831H108.97V17.9171H114.401C115.001 17.8825 115.601 17.9734 116.166 18.1841C116.73 18.3949 117.247 18.721 117.684 19.1427C118.12 19.5643 118.468 20.0725 118.705 20.6361C118.943 21.1997 119.065 21.8069 119.065 22.4205C119.077 23.3432 118.801 24.246 118.277 24.9981C117.753 25.7502 117.008 26.3124 116.151 26.6034ZM97.968 17.5699C99.4568 17.5559 100.916 17.9929 102.162 18.8257C103.407 19.6585 104.382 20.8497 104.964 22.2484C105.546 23.6472 105.709 25.1908 105.431 26.6838C105.154 28.1769 104.448 29.5524 103.405 30.6362C102.361 31.7201 101.026 32.4636 99.5684 32.7728C98.1107 33.0819 96.5959 32.9428 95.2157 32.373C93.8355 31.8032 92.6519 30.8283 91.8146 29.5717C90.9773 28.3151 90.524 26.8332 90.512 25.3136C90.4906 24.3019 90.6679 23.2961 91.0334 22.3554C91.3989 21.4148 91.9453 20.5584 92.6401 19.8367C93.335 19.115 94.1645 18.5426 95.0795 18.1533C95.9946 17.764 96.9767 17.5656 97.968 17.5699ZM122.434 32.5853V17.9171H125.649C126.387 17.9171 127.133 17.9323 127.863 17.994C128.658 18.0408 129.443 18.1899 130.201 18.4379C131.433 18.9886 132.496 19.8689 133.278 20.9858C134.059 22.1027 134.531 23.4146 134.642 24.7826C134.753 26.1506 134.5 27.5238 133.909 28.7568C133.318 29.9899 132.411 31.037 131.285 31.7872C129.987 32.3769 128.572 32.6502 127.152 32.5853H122.434ZM98.0285 19.7324C97.3188 19.7368 96.6169 19.8851 95.9638 20.1687C95.3107 20.4523 94.7193 20.8656 94.2241 21.3846C93.7288 21.9036 93.3396 22.5179 93.0789 23.1918C92.8183 23.8657 92.6915 24.5857 92.7058 25.3101C92.7009 26.0334 92.8367 26.7506 93.1054 27.42C93.3742 28.0893 93.7705 28.6975 94.2714 29.2093C94.7723 29.721 95.3678 30.1261 96.0233 30.401C96.6789 30.6759 97.3814 30.8152 98.09 30.8107C98.7987 30.8062 99.4995 30.6581 100.152 30.3749C100.804 30.0918 101.394 29.6792 101.889 29.1612C102.384 28.6432 102.773 28.03 103.033 27.3573C103.294 26.6846 103.421 25.9657 103.407 25.2425C103.415 24.5183 103.282 23.7997 103.015 23.1288C102.747 22.4578 102.352 21.848 101.851 21.335C101.35 20.8219 100.754 20.416 100.098 20.1408C99.4415 19.8656 98.738 19.7268 98.0285 19.7324ZM124.533 30.4624H125.701C126.483 30.4624 127.265 30.4461 128.043 30.3762C128.527 30.3464 129.005 30.262 129.47 30.1245C130.411 29.7983 131.218 29.1604 131.762 28.3123C132.306 27.4642 132.557 26.4545 132.475 25.444C132.556 24.3534 132.273 23.2668 131.672 22.3612C131.071 21.4557 130.187 20.7846 129.164 20.4572C128.849 20.363 128.528 20.2926 128.202 20.2463C127.84 20.1915 127.477 20.1565 127.113 20.1298C126.44 20.0855 125.765 20.0773 125.092 20.0773H124.531L124.533 30.4624Z" fill="black"/>
</svg>
