<svg width="165" height="50" viewBox="0 0 165 50" fill="none" xmlns="http://www.w3.org/2000/svg">
<path d="M35.0483 12.0513C31.7327 9.97697 27.3677 10.4667 23.4747 12.9222C19.5938 10.4681 15.2261 9.97697 11.9146 12.0513C6.67608 15.3357 6.03918 23.7957 10.4934 30.9452C13.7766 36.2185 18.9109 39.3062 23.4814 39.2492C28.0519 39.3062 33.1863 36.2185 36.4695 30.9452C40.9183 23.7957 40.2868 15.3357 35.0483 12.0513ZM12.9017 29.4366C11.983 27.9755 11.29 26.3833 10.8463 24.7142C10.4518 23.2657 10.301 21.7613 10.4001 20.263C10.5989 17.6216 11.6712 15.5636 13.4182 14.4675C15.1653 13.3713 17.4749 13.3075 19.9346 14.2857C20.3085 14.4365 20.6745 14.6063 21.0312 14.7944C19.6641 16.044 18.4755 17.477 17.4992 19.0529C14.7948 23.3942 13.9699 28.2265 14.9138 32.0767C14.1619 31.262 13.4882 30.3781 12.9017 29.4366ZM36.1179 24.7142C35.6736 26.3831 34.9807 27.9752 34.0625 29.4366C33.4763 30.38 32.8026 31.2657 32.0504 32.0821C32.8942 28.6294 32.3209 24.4008 30.252 20.434C30.1857 20.3013 30.0664 20.2032 29.9237 20.1641C29.781 20.125 29.6285 20.1486 29.5042 20.2291L23.0541 24.2733C22.9354 24.3474 22.851 24.4659 22.8195 24.6026C22.7881 24.7393 22.8121 24.8829 22.8865 25.0018L23.833 26.5199C23.9069 26.639 24.025 26.7237 24.1613 26.7552C24.2975 26.7868 24.4407 26.7626 24.5592 26.6881L28.7402 24.0684C28.8754 24.4754 29.0107 24.8756 29.1121 25.2894C29.5065 26.7379 29.6573 28.2422 29.5583 29.7405C29.3595 32.3833 28.2872 34.4413 26.5402 35.5375C25.639 36.0902 24.6065 36.3901 23.5504 36.4057H23.4152C22.359 36.3904 21.3264 36.0905 20.4254 35.5375C18.677 34.4413 17.6047 32.3833 17.4059 29.7405C17.3076 28.2423 17.4584 26.738 17.8522 25.2894C18.7589 21.9386 20.6321 18.9312 23.2367 16.6449C24.36 15.6552 25.6395 14.8597 27.0229 14.2911C29.4758 13.3129 31.7895 13.3767 33.5379 14.4729C35.2863 15.569 36.3573 17.6271 36.556 20.2685C36.6565 21.7645 36.5085 23.2669 36.1179 24.7142Z" fill="black"/>
<path d="M72.0623 18.4717C68.2815 18.4717 65.2258 21.433 65.2258 25.2004C65.2258 28.9421 68.2815 31.855 72.0623 31.855C75.8687 31.855 78.9243 28.9467 78.9243 25.2004C78.9243 21.4345 75.8732 18.4732 72.0623 18.4732V18.4717ZM72.0623 28.3372C70.3196 28.3372 68.993 26.9231 68.993 25.1747C68.993 23.4264 70.3196 21.9911 72.0623 21.9911C73.8306 21.9911 75.1571 23.4309 75.1571 25.1793C75.1571 26.9276 73.8306 28.3432 72.0623 28.3432V28.3372ZM87.4491 13.3037H80.4921C80.3402 13.3009 80.1938 13.3602 80.0865 13.4681C79.9792 13.576 79.9205 13.7231 79.9238 13.8755V30.8916C79.9128 31.0491 79.968 31.2041 80.0759 31.319C80.1839 31.4338 80.3348 31.4983 80.4921 31.4966H87.4491C93.0163 31.4966 96.8845 27.7821 96.8845 22.3783C96.8845 16.9411 93.0163 13.3037 87.4491 13.3037ZM87.6135 27.9031H83.8071V16.8882H87.6135C90.6948 16.8882 92.8188 19.2007 92.8188 22.3707C92.8188 25.4878 90.6948 27.9031 87.6135 27.9031ZM110.732 18.8377H108.117C107.817 18.8615 107.583 19.1078 107.574 19.4094V20.1883C106.979 19.2007 105.632 18.4732 103.956 18.4732C100.694 18.4732 97.6382 21.0443 97.6382 25.1505C97.6382 29.234 100.667 31.852 103.93 31.852C105.613 31.852 106.986 31.1261 107.582 30.1385V30.9431C107.583 31.2433 107.825 31.4866 108.124 31.489H110.74C110.885 31.4924 111.025 31.4359 111.128 31.3328C111.231 31.2297 111.287 31.0889 111.284 30.9431V19.4094C111.288 19.2596 111.232 19.1143 111.128 19.0067C111.024 18.899 110.882 18.838 110.732 18.8377ZM104.648 28.3659C102.916 28.3659 101.615 27.0304 101.615 25.1777C101.615 23.325 102.916 21.9911 104.648 21.9911C106.38 21.9911 107.681 23.3235 107.681 25.1762C107.681 27.0289 106.382 28.3644 104.648 28.3644V28.3659ZM125.414 13.3038H122.798C122.65 13.2993 122.507 13.3546 122.4 13.4573C122.293 13.5599 122.232 13.7013 122.23 13.8498V20.1369C121.627 19.2007 120.261 18.4732 118.553 18.4732C115.315 18.4732 112.312 21.0443 112.312 25.1505C112.312 29.234 115.341 31.852 118.604 31.852C120.287 31.852 121.556 31.1261 122.255 30.1385V30.9431C122.256 31.2437 122.498 31.4874 122.798 31.489H125.414C125.559 31.4928 125.7 31.4365 125.803 31.3333C125.905 31.2301 125.962 31.089 125.958 30.9431V13.8528C125.962 13.7063 125.907 13.5645 125.804 13.4606C125.701 13.3567 125.56 13.3 125.414 13.3038ZM119.329 28.3977C117.605 28.3977 116.314 27.0486 116.314 25.1762C116.314 23.3039 117.609 21.9548 119.329 21.9548C121.049 21.9548 122.344 23.3039 122.344 25.1762C122.344 27.0486 121.055 28.3977 119.329 28.3977ZM140.092 13.3038H137.481C137.333 13.2993 137.189 13.3546 137.082 13.4572C136.975 13.5598 136.913 13.7012 136.911 13.8498V20.1369C136.316 19.2007 134.942 18.4732 133.234 18.4732C129.996 18.4732 126.993 21.0443 126.993 25.1505C126.993 29.234 130.023 31.852 133.286 31.852C134.969 31.852 136.237 31.1261 136.937 30.1385V30.9431C136.938 31.2439 137.181 31.4874 137.481 31.489H140.092C140.237 31.4928 140.378 31.4365 140.48 31.3332C140.583 31.2299 140.639 31.0889 140.635 30.9431V13.8528C140.64 13.7065 140.584 13.5646 140.481 13.4606C140.379 13.3567 140.238 13.2999 140.092 13.3038ZM134.008 28.3977C132.282 28.3977 130.993 27.0486 130.993 25.1762C130.993 23.3039 132.288 21.9548 134.008 21.9548C135.728 21.9548 137.023 23.3039 137.023 25.1762C137.023 27.0486 135.737 28.3977 134.012 28.3977H134.008ZM154.413 19.7225L150.51 33.1512C149.756 35.5408 148.076 36.97 145.46 36.97C144.271 36.97 143.188 36.7265 142.34 36.2395C141.845 35.9567 141.435 35.6981 141.435 35.2837C141.435 35.0266 141.518 34.8935 141.669 34.653L142.444 33.4885C142.662 33.1633 142.823 33.0574 143.059 33.0574C143.245 33.062 143.425 33.1249 143.574 33.2374C144.061 33.5535 144.513 33.8257 145.202 33.8257C146.007 33.8257 146.622 33.5671 146.954 32.6052L147.289 31.4906H145.709C145.32 31.4906 145.106 31.2576 145.009 30.9446L141.516 19.7225C141.387 19.2808 141.506 18.8392 142.153 18.8392H144.904C145.24 18.8392 145.475 18.9542 145.623 19.4366L148.202 28.4733L150.614 19.4366C150.691 19.1251 150.899 18.8392 151.314 18.8392H153.923C154.437 18.8377 154.592 19.2007 154.413 19.7225ZM64.24 23.7167V30.8901C64.2424 31.0481 64.181 31.2004 64.0696 31.3121C63.9582 31.4238 63.8065 31.4855 63.649 31.483H61.4903C61.3327 31.4859 61.1807 31.4244 61.0693 31.3125C60.9578 31.2007 60.8965 31.0482 60.8994 30.8901V29.0072C59.5291 30.7434 57.1457 31.8369 54.4504 31.8369C49.3882 31.8369 45.4326 28.0165 45.4326 22.5779C45.4326 16.926 49.7033 13.03 55.0986 13.03C59.0814 13.03 62.2652 14.7481 63.6792 18.204C63.7188 18.2953 63.7408 18.3933 63.744 18.4929C63.744 18.6562 63.637 18.7802 63.2918 18.8997L60.7712 19.8737C60.6192 19.937 60.4488 19.9397 60.2949 19.8813C60.1599 19.8013 60.0542 19.6799 59.9934 19.5349C59.0889 17.8093 57.4789 16.6371 55.0006 16.6371C51.7867 16.6371 49.4847 19.1553 49.4847 22.4206C49.4847 25.5861 51.4445 28.189 55.0926 28.189C57.0116 28.189 58.5417 27.2815 59.2547 26.2848H56.9784C56.821 26.2873 56.6692 26.2256 56.5578 26.1139C56.4465 26.0022 56.385 25.8499 56.3875 25.692V23.7425C56.385 23.5845 56.4465 23.4322 56.5578 23.3205C56.6692 23.2088 56.821 23.1471 56.9784 23.1496H63.649C63.8036 23.1417 63.9545 23.198 64.0664 23.3053C64.1782 23.4127 64.241 23.5615 64.24 23.7167ZM154.484 16.1819V16.008C154.484 15.9958 154.488 15.9839 154.496 15.9747C154.505 15.967 154.516 15.9627 154.528 15.9626H155.63C155.641 15.9622 155.653 15.9666 155.661 15.9747C155.669 15.9839 155.673 15.9958 155.673 16.008V16.1819C155.673 16.1936 155.669 16.2049 155.661 16.2137C155.653 16.2218 155.641 16.2262 155.63 16.2258H155.227V17.3162C155.226 17.3409 155.206 17.3608 155.182 17.3616H154.974C154.962 17.3615 154.951 17.3566 154.944 17.348C154.935 17.3397 154.93 17.3282 154.93 17.3162V16.2258H154.528C154.516 16.2267 154.504 16.2224 154.496 16.2139C154.487 16.2055 154.483 16.1938 154.484 16.1819ZM156.41 16.0019L156.712 16.7022L157.013 16.0019C157.018 15.9895 157.026 15.9789 157.037 15.9717C157.05 15.9652 157.064 15.962 157.078 15.9626H157.428C157.44 15.9617 157.451 15.9659 157.459 15.9739C157.468 15.982 157.472 15.9933 157.472 16.0049V17.3177C157.473 17.3293 157.468 17.3408 157.46 17.3491C157.452 17.3575 157.441 17.362 157.429 17.3616H157.233C157.222 17.362 157.21 17.3576 157.202 17.3495C157.193 17.3413 157.189 17.3296 157.19 17.3177V16.3271L156.866 17.047C156.861 17.0606 156.853 17.0726 156.842 17.0818C156.829 17.0887 156.815 17.0918 156.801 17.0909H156.641C156.627 17.0916 156.614 17.0885 156.602 17.0818C156.59 17.0731 156.582 17.0609 156.578 17.047L156.255 16.3271V17.3177C156.255 17.3294 156.251 17.3407 156.243 17.3495C156.235 17.3569 156.224 17.3612 156.213 17.3616H156.012C156.002 17.3617 155.991 17.3573 155.984 17.3495C155.975 17.3413 155.971 17.3296 155.972 17.3177V16.0049C155.971 15.9933 155.976 15.982 155.984 15.9739C155.992 15.9659 156.004 15.9617 156.015 15.9626H156.355C156.368 15.9622 156.382 15.9653 156.394 15.9717C156.402 15.98 156.408 15.9905 156.41 16.0019Z" fill="black"/>
</svg>
