<svg width="224" height="136" viewBox="0 0 224 136" fill="none" xmlns="http://www.w3.org/2000/svg">
<circle cx="13.0002" cy="12" r="6.5" stroke="white"/>
<path d="M9.70877 4.16417L9.32153 3.24219" stroke="white" stroke-linecap="round" stroke-linejoin="round"/>
<path d="M4.24123 15.6783L5.16321 15.291" stroke="white" stroke-linecap="round" stroke-linejoin="round"/>
<path d="M20.8366 8.7095L21.7585 8.32227" stroke="white" stroke-linecap="round" stroke-linejoin="round"/>
<path d="M16.679 20.7579L16.2917 19.8359" stroke="white" stroke-linecap="round" stroke-linejoin="round"/>
<path d="M16.5924 3.20508L16.2143 4.13084" stroke="white" stroke-linecap="round" stroke-linejoin="round"/>
<path d="M9.78613 19.8691L9.40801 20.7949" stroke="white" stroke-linecap="round" stroke-linejoin="round"/>
<path d="M21.7949 15.5918L20.8692 15.2137" stroke="white" stroke-linecap="round" stroke-linejoin="round"/>
<path d="M5.13086 8.78516L4.2051 8.40704" stroke="white" stroke-linecap="round" stroke-linejoin="round"/>
<path d="M19.7178 5.2832L19.0107 5.99031" stroke="white" stroke-linecap="round" stroke-linejoin="round"/>
<path d="M6.98962 18.0098L6.28252 18.7169" stroke="white" stroke-linecap="round" stroke-linejoin="round"/>
<path d="M19.7178 18.7168L19.0107 18.0097" stroke="white" stroke-linecap="round" stroke-linejoin="round"/>
<path d="M6.98962 5.99023L6.28252 5.28313" stroke="white" stroke-linecap="round" stroke-linejoin="round"/>
<path d="M3.50024 12H4.50024" stroke="white" stroke-linecap="round" stroke-linejoin="round"/>
<path d="M21.5002 12H22.5002" stroke="white" stroke-linecap="round" stroke-linejoin="round"/>
<path d="M13 2.5L13 3.5" stroke="white" stroke-linecap="round" stroke-linejoin="round"/>
<path d="M13 20.5L13 21.5" stroke="white" stroke-linecap="round" stroke-linejoin="round"/>
<path d="M8.75024 16.75C9.29496 16.0004 9.74125 15.5712 10.5045 15.2782C11.067 15.0622 11.5002 14.5678 11.5002 13.9653V13.9653C11.5002 13.6056 11.3355 13.2711 11.1228 12.981C10.7353 12.4526 10.5002 11.7592 10.5002 11C10.5002 9.34315 11.6195 8 13.0002 8C14.381 8 15.5002 9.34315 15.5002 11C15.5002 11.7637 15.2625 12.4607 14.8709 12.9903C14.6614 13.2736 14.5002 13.6014 14.5002 13.9538V13.9538C14.5002 14.5586 14.9467 15.0461 15.5116 15.2621C16.2252 15.5348 16.6824 15.9707 17.2502 16.75" stroke="white" stroke-linejoin="round"/>
<circle cx="79.0002" cy="12" r="9.5" stroke="white"/>
<path d="M71.9998 12H73.4998" stroke="white" stroke-linecap="round" stroke-linejoin="round"/>
<path d="M73.9998 14.5H72.9998C72.4475 14.5 71.9998 14.0523 71.9998 13.5V10.5C71.9998 9.94772 72.4475 9.5 72.9998 9.5H73.9998" stroke="white" stroke-linecap="round" stroke-linejoin="round"/>
<path d="M75.5002 9.5L78.0002 14.5" stroke="white" stroke-linecap="round" stroke-linejoin="round"/>
<path d="M77.9998 9.5L75.4998 14.5" stroke="white" stroke-linecap="round" stroke-linejoin="round"/>
<path d="M80.4998 9.5V14.5H79.4998H81.4998M80.4998 9.5H79.4998M80.4998 9.5H81.4998" stroke="white" stroke-linecap="round" stroke-linejoin="round"/>
<path d="M84.5002 14.5V9.5M84.5002 9.5H83.0002M84.5002 9.5H86.0002" stroke="white" stroke-linecap="round" stroke-linejoin="round"/>
<path d="M141.5 12.2428C140.278 11.234 139.5 9.70794 139.5 8C139.5 4.96243 141.962 2.5 145 2.5C148.037 2.5 150.5 4.96243 150.5 8C150.5 9.70794 149.721 11.234 148.5 12.2428" stroke="white" stroke-linecap="round"/>
<path d="M150 21.5L150.745 17.0275C150.895 16.1282 150.418 15.2413 149.585 14.8711L146.5 13.5V8.5C146.5 7.67157 145.828 7 145 7C144.171 7 143.5 7.67157 143.5 8.5V16.5L141.634 14.8661C141.145 14.378 140.354 14.378 139.866 14.8661C139.378 15.3543 139.378 16.1457 139.866 16.6339L143 21.5" stroke="white" stroke-linecap="round" stroke-linejoin="round"/>
<path d="M219.835 8.5C218.441 4.98538 215.011 2.5 211 2.5C205.754 2.5 201.5 6.75329 201.5 12C201.5 17.2467 205.754 21.5 211 21.5C215.011 21.5 218.441 19.0146 219.835 15.5" stroke="white" stroke-linecap="round"/>
<path d="M220.5 12H207M207 12L210.5 8M207 12L210.5 16" stroke="white" stroke-linecap="round" stroke-linejoin="round"/>
<rect x="3.50024" y="59.5" width="19" height="17" rx="2" stroke="white" stroke-linejoin="round"/>
<path d="M3.50024 63.5H22.5002" stroke="white"/>
<path d="M5.99976 61.5H6.99976" stroke="white" stroke-linecap="round"/>
<path d="M8.99976 61.5H9.99976" stroke="white" stroke-linecap="round"/>
<path d="M11.9998 61.5H12.9998" stroke="white" stroke-linecap="round"/>
<path d="M12.9998 67.5C9.96219 67.5 7.49976 69.9624 7.49976 73H9.49976C9.49976 71.067 11.0668 69.5 12.9998 69.5C14.9328 69.5 16.4998 71.067 16.4998 73H18.4998C18.4998 69.9624 16.0373 67.5 12.9998 67.5Z" stroke="white" stroke-linejoin="round"/>
<path d="M13 67.5V69.5" stroke="white"/>
<path d="M9.10352 69.1074L10.5249 70.526" stroke="white"/>
<path d="M17.6462 67.8964C17.8415 67.7012 18.158 67.7012 18.3533 67.8964C18.5486 68.0917 18.5486 68.4083 18.3533 68.6036L17.6462 67.8964ZM18.3533 68.6036L13.9265 73.0303L13.2194 72.3232L17.6462 67.8964L18.3533 68.6036Z" fill="white"/>
<circle cx="12.9998" cy="73.5" r="1" stroke="white"/>
<path d="M77.5 71C78.6889 71.6861 79.3375 71.6874 80.5 71" stroke="white" stroke-linecap="round" stroke-linejoin="round"/>
<path d="M88.4998 71L88.4998 75.5C88.4998 76.6046 87.6043 77.5 86.4998 77.5L81.9998 77.5M88.4998 65L88.4998 60.5C88.4998 59.3954 87.6043 58.5 86.4998 58.5L81.9998 58.5M69.4998 71L69.4998 75.5C69.4998 76.6046 70.3952 77.5 71.4998 77.5L75.9998 77.5M69.4998 65L69.4998 60.5C69.4998 59.3954 70.3952 58.5 71.4998 58.5L75.9998 58.5" stroke="white" stroke-linecap="round" stroke-linejoin="round"/>
<ellipse cx="78.9998" cy="68" rx="5.5" ry="6" stroke="white"/>
<path d="M73.5198 67.502C76.3688 66.6826 78.0577 66.0685 79.0002 64.5C79.9428 66.0685 81.6278 66.6807 84.4768 67.5" stroke="white" stroke-linecap="round" stroke-linejoin="round"/>
<circle cx="76.9998" cy="68.5" r="0.5" stroke="white"/>
<circle cx="81" cy="68.5" r="0.5" stroke="white"/>
<rect x="135.5" y="58.5" width="19" height="15.5" rx="2" stroke="white" stroke-linejoin="round"/>
<path d="M135.5 71.5H154.5" stroke="white" stroke-linecap="round" stroke-linejoin="round"/>
<path d="M149 65.5C149 67.7091 147.209 69.5 145 69.5C142.791 69.5 141 67.7091 141 65.5C141 63.2909 142.791 61.5 145 61.5C145.728 61.5 146.411 61.6948 147 62.0351" stroke="white" stroke-linecap="round"/>
<path d="M143.25 64.75L145 66.5L149.5 62.25" stroke="white" stroke-linecap="round" stroke-linejoin="round"/>
<path d="M141 77.5H149" stroke="white" stroke-linecap="round" stroke-linejoin="round"/>
<path d="M142.5 77.5C143.525 76.1195 143.806 75.3572 143.5 74" stroke="white" stroke-linecap="round" stroke-linejoin="round"/>
<path d="M147.5 77.5C146.463 76.1341 146.222 75.3664 146.5 74" stroke="white" stroke-linecap="round" stroke-linejoin="round"/>
<path d="M220.5 71L220.5 75.5C220.5 76.6046 219.604 77.5 218.5 77.5L214 77.5M220.5 65L220.5 60.5C220.5 59.3954 219.604 58.5 218.5 58.5L214 58.5M201.5 71L201.5 75.5C201.5 76.6046 202.395 77.5 203.5 77.5L208 77.5M201.5 65L201.5 60.5C201.5 59.3954 202.395 58.5 203.5 58.5L208 58.5" stroke="white" stroke-linecap="round" stroke-linejoin="round"/>
<path d="M206 66V70C206 71.3987 206.575 72.6633 207.5 73.5707M206.416 64C207.188 62.2341 208.95 61 211 61C211.911 61 212.765 61.2435 213.5 61.6689M209.5 74.7711C209.974 74.9198 210.478 75 211 75C212.636 75 214.088 74.2144 215.001 73M215.771 71.5C215.92 71.0265 216 70.5226 216 70V66C216 64.8744 215.628 63.8357 215.001 63" stroke="white" stroke-linecap="round" stroke-linejoin="round"/>
<path d="M209.5 63.4013C209.941 63.1461 210.454 63 211 63C212.657 63 214 64.3431 214 66V67.5M208.5 64.3411C208.184 64.8163 208 65.3866 208 66V70C208 71.6569 209.343 73 211 73C212.657 73 214 71.6569 214 70V69" stroke="white" stroke-linecap="round" stroke-linejoin="round"/>
<path d="M210 70C210 70.5523 210.447 71 211 71C211.552 71 212 70.5523 212 70V66C212 65.4477 211.552 65 211 65C210.447 65 210 65.4477 210 66V68.5" stroke="white" stroke-linecap="round" stroke-linejoin="round"/>
<path d="M5.00024 118.104C5.00024 117.167 5.65131 116.355 6.56638 116.152L11.5664 115.041C12.8154 114.763 14.0002 115.714 14.0002 116.993V131.007C14.0002 132.286 12.8154 133.237 11.5664 132.959L6.56638 131.848C5.65131 131.645 5.00024 130.833 5.00024 129.896V118.104Z" stroke="white" stroke-linejoin="round"/>
<path d="M14.0002 116H19.0002C20.1048 116 21.0002 116.895 21.0002 118V130C21.0002 131.105 20.1048 132 19.0002 132H14.0002V116Z" stroke="white" stroke-linejoin="round"/>
<circle cx="10.7502" cy="124.25" r="1.25" stroke="white"/>
<path d="M69.5002 118.037C69.5002 117.13 70.1094 116.338 70.9849 116.104L74.4849 115.171C75.7546 114.832 77.0002 115.789 77.0002 117.103V130.897C77.0002 132.211 75.7546 133.168 74.4849 132.829L70.9849 131.896C70.1094 131.662 69.5002 130.87 69.5002 129.963V118.037Z" stroke="white" stroke-linejoin="round"/>
<path d="M83.0002 129V130C83.0002 131.105 82.1048 132 81.0002 132H77.0002V116H81.0002C82.1048 116 83.0002 116.895 83.0002 118V119" stroke="white" stroke-linecap="round" stroke-linejoin="round"/>
<circle cx="74.7502" cy="124.25" r="0.75" stroke="white"/>
<path d="M78.9998 124H88.4998M88.4998 124L85.9998 121M88.4998 124L85.9998 127" stroke="white" stroke-linecap="round" stroke-linejoin="round"/>
<path d="M144 129.938V131.5C144 132.605 144.895 133.5 146 133.5H152.5C153.604 133.5 154.5 132.605 154.5 131.5V116.5C154.5 115.395 153.604 114.5 152.5 114.5H146C144.895 114.5 144 115.395 144 116.5V118.062" stroke="white" stroke-linecap="round" stroke-linejoin="round"/>
<path d="M144.244 125.5C143.626 127.248 141.96 128.5 140 128.5C137.515 128.5 135.5 126.485 135.5 124C135.5 121.515 137.515 119.5 140 119.5C141.96 119.5 143.626 120.752 144.244 122.5H151L152.5 124L151 125.5L150.25 125.5L150 126.5H148.5L148.25 125.5H147L146.75 126.5H145.5L145.25 125.5L144.244 125.5ZM144.244 125.5L144.25 125.5" stroke="white" stroke-linejoin="round"/>
<circle cx="138.5" cy="124" r="1" stroke="white"/>
<path d="M211.5 130C211.5 131.933 209.933 133.5 208 133.5H206C204.067 133.5 202.5 131.933 202.5 130V118C202.5 116.067 204.067 114.5 206 114.5H208C209.933 114.5 211.5 116.067 211.5 118V128" stroke="white" stroke-linejoin="round"/>
<path d="M202.5 118.5H211.5" stroke="white" stroke-linecap="round" stroke-linejoin="round"/>
<path d="M202.5 124.5H211.5" stroke="white" stroke-linecap="round" stroke-linejoin="round"/>
<path d="M209.829 130C209.417 131.165 208.306 132 207 132C205.343 132 204 130.657 204 129C204 127.343 205.343 126 207 126C208.306 126 209.417 126.835 209.829 128" stroke="white"/>
<path d="M206 129C206 128.448 206.448 128 207 128H218.5C219.053 128 219.5 128.448 219.5 129V129C219.5 129.552 219.053 130 218.5 130H207C206.448 130 206 129.552 206 129V129Z" stroke="white" stroke-linejoin="round"/>
<circle cx="205" cy="121.5" r="1" stroke="white"/>
<circle cx="209" cy="121.5" r="1" stroke="white"/>
</svg>
