<svg width="26" height="8" viewBox="0 0 26 8" fill="none" xmlns="http://www.w3.org/2000/svg">
<path d="M22.6002 7.19999C20.8329 7.19999 19.4002 5.7673 19.4002 3.99999C19.4002 2.23268 20.8329 0.799988 22.6002 0.799988C24.3675 0.799988 25.8002 2.23268 25.8002 3.99999C25.8002 5.7673 24.3675 7.19999 22.6002 7.19999Z" fill="#1E3050"/>
<path d="M13.0002 7.19999C11.2329 7.19999 9.8002 5.7673 9.8002 3.99999C9.8002 2.23268 11.2329 0.799988 13.0002 0.799988C14.7675 0.799988 16.2002 2.23268 16.2002 3.99999C16.2002 5.7673 14.7675 7.19999 13.0002 7.19999Z" fill="#1E3050"/>
<path d="M3.40019 7.19999C1.63288 7.19999 0.200195 5.7673 0.200195 3.99999C0.200195 2.23268 1.63288 0.799988 3.4002 0.799988C5.16751 0.799988 6.60019 2.23268 6.60019 3.99999C6.60019 5.7673 5.16751 7.19999 3.40019 7.19999Z" fill="#1E3050"/>
</svg>
