<svg width="20" height="20" viewBox="0 0 20 20" fill="none" xmlns="http://www.w3.org/2000/svg">
<path fill-rule="evenodd" clip-rule="evenodd" d="M0 10C0 4.4772 4.4772 0 10 0C15.5228 0 20 4.4772 20 10C20 15.5228 15.5228 20 10 20C4.4772 20 0 15.5228 0 10ZM14.5002 11.3008C14.942 11.3008 15.3002 10.9426 15.3002 10.5008C15.3002 10.059 14.942 9.70078 14.5002 9.70078H10.3002V5.50078C10.3002 5.05895 9.94202 4.70078 9.5002 4.70078C9.05837 4.70078 8.7002 5.05895 8.7002 5.50078V10.5008C8.7002 10.9426 9.05837 11.3008 9.5002 11.3008H14.5002Z" fill="#7238FA"/>
</svg>
