<svg width="18" height="18" viewBox="0 0 18 18" fill="none" xmlns="http://www.w3.org/2000/svg">
<path fill-rule="evenodd" clip-rule="evenodd" d="M0.666016 1.91699C0.666016 1.22664 1.22566 0.666992 1.91602 0.666992H16.0827C16.773 0.666992 17.3327 1.22664 17.3327 1.91699V16.8993C17.3375 17.0267 17.2841 17.1547 17.1769 17.2406C17.0073 17.3766 16.7639 17.3584 16.6162 17.2046L15.2185 15.8084L13.4262 17.241C13.274 17.3626 13.058 17.3626 12.9059 17.241L11.0828 15.7838L9.25964 17.2424C9.10746 17.3641 8.89123 17.3641 8.73906 17.2424L6.91602 15.7839L5.09297 17.2424C4.92718 17.375 4.68818 17.3617 4.53805 17.2116L3.13509 15.8087L1.34297 17.2424C1.2179 17.3424 1.04655 17.3619 0.902187 17.2925C0.757826 17.2232 0.666016 17.0772 0.666016 16.917V1.91699ZM4.41602 6.11699C3.97419 6.11699 3.61602 6.47516 3.61602 6.91699C3.61602 7.35882 3.97419 7.71699 4.41602 7.71699H13.5827C14.0245 7.71699 14.3827 7.35882 14.3827 6.91699C14.3827 6.47516 14.0245 6.11699 13.5827 6.11699H4.41602ZM3.61602 4.41699C3.61602 3.97516 3.97419 3.61699 4.41602 3.61699H11.4993C11.9412 3.61699 12.2993 3.97516 12.2993 4.41699C12.2993 4.85882 11.9412 5.21699 11.4993 5.21699H4.41602C3.97419 5.21699 3.61602 4.85882 3.61602 4.41699ZM4.41602 8.61699C3.97419 8.61699 3.61602 8.97516 3.61602 9.41699C3.61602 9.85882 3.97419 10.217 4.41602 10.217H11.4993C11.9412 10.217 12.2993 9.85882 12.2993 9.41699C12.2993 8.97516 11.9412 8.61699 11.4993 8.61699H4.41602Z" fill="#1E3050"/>
</svg>
