<svg width="18" height="18" viewBox="0 0 18 18" fill="none" xmlns="http://www.w3.org/2000/svg">
<path fill-rule="evenodd" clip-rule="evenodd" d="M7.20733 0.739508C7.3062 0.80698 7.37127 0.913709 7.38596 1.03249C7.48524 1.83482 8.17008 2.45612 8.9994 2.45612C9.82872 2.45612 10.5136 1.83483 10.6128 1.03251C10.6275 0.913728 10.6926 0.807 10.7915 0.739529C10.8903 0.672058 11.0134 0.65036 11.1294 0.679965C11.9293 0.88416 12.6842 1.2006 13.3763 1.61138C13.4791 1.67246 13.5508 1.77481 13.573 1.89238C13.5952 2.00995 13.5658 2.13139 13.4923 2.22577C12.9955 2.86329 13.0406 3.78654 13.6269 4.3728C14.2131 4.95906 15.1364 5.00413 15.7739 4.50741C15.8683 4.43387 15.9897 4.40445 16.1073 4.42665C16.2249 4.44885 16.3272 4.52052 16.3883 4.6234C16.7991 5.31549 17.1155 6.0704 17.3197 6.87033C17.3493 6.9863 17.3276 7.1094 17.2602 7.20826C17.1927 7.30712 17.086 7.37219 16.9672 7.38689C16.1649 7.48619 15.5436 8.17102 15.5436 9.00033C15.5436 9.82963 16.1649 10.5145 16.9672 10.6138C17.086 10.6285 17.1927 10.6935 17.2602 10.7924C17.3276 10.8913 17.3493 11.0144 17.3197 11.1303C17.1155 11.9303 16.7991 12.6852 16.3883 13.3773C16.3272 13.4801 16.2249 13.5518 16.1073 13.574C15.9897 13.5962 15.8683 13.5668 15.7739 13.4933C15.1364 12.9966 14.2132 13.0417 13.627 13.6279C13.0407 14.2142 12.9956 15.1374 13.4923 15.7749C13.5658 15.8693 13.5952 15.9907 13.573 16.1083C13.5508 16.2258 13.4792 16.3282 13.3763 16.3893C12.6842 16.8 11.9293 17.1165 11.1294 17.3207C11.0135 17.3503 10.8904 17.3286 10.7915 17.2611C10.6926 17.1936 10.6276 17.0869 10.6129 16.9681C10.5136 16.1658 9.82875 15.5445 8.99942 15.5445C8.17009 15.5445 7.48524 16.1658 7.38598 16.9681C7.37128 17.0869 7.30621 17.1937 7.20735 17.2611C7.10849 17.3286 6.98538 17.3503 6.86941 17.3207C6.06947 17.1165 5.31454 16.8001 4.62245 16.3893C4.51955 16.3282 4.44788 16.2258 4.42569 16.1083C4.40349 15.9907 4.43292 15.8692 4.50646 15.7749C5.00326 15.1373 4.95821 14.214 4.37192 13.6277C3.78563 13.0415 2.86233 12.9964 2.22481 13.4932C2.13043 13.5667 2.00899 13.5962 1.89141 13.574C1.77383 13.5518 1.67147 13.4801 1.6104 13.3772C1.19961 12.6852 0.883181 11.9303 0.678988 11.1304C0.649382 11.0144 0.67108 10.8913 0.738551 10.7924C0.806023 10.6936 0.91275 10.6285 1.03154 10.6138C1.83385 10.5145 2.45514 9.82969 2.45514 9.00037C2.45514 8.17105 1.83384 7.48621 1.03152 7.38693C0.912732 7.37224 0.806004 7.30717 0.738531 7.2083C0.671059 7.10944 0.64936 6.98634 0.678964 6.87037C0.883157 6.07044 1.1996 5.31552 1.61041 4.62343C1.67148 4.52053 1.77385 4.44886 1.89143 4.42667C2.00901 4.40448 2.13046 4.43391 2.22484 4.50746C2.86235 5.00431 3.78571 4.95928 4.37202 4.37297C4.95833 3.78666 5.00335 2.86331 4.50651 2.2258C4.43296 2.13142 4.40353 2.00997 4.42572 1.89239C4.44791 1.77481 4.51959 1.67244 4.62248 1.61137C5.31456 1.20057 6.06948 0.884131 6.8694 0.67994C6.98537 0.650336 7.10847 0.672036 7.20733 0.739508ZM6.08203 9.00065C6.08203 7.38982 7.38787 6.08398 8.9987 6.08398C10.6095 6.08398 11.9154 7.38982 11.9154 9.00065C11.9154 10.6115 10.6095 11.9173 8.9987 11.9173C7.38787 11.9173 6.08203 10.6115 6.08203 9.00065Z" fill="#7238FA"/>
</svg>
